<svg xmlns="http://www.w3.org/2000/svg" version="1.1" xmlns:xlink="http://www.w3.org/1999/xlink" xmlns:svgjs="http://svgjs.com/svgjs" width="512" height="512" x="0" y="0" fill="white" viewBox="0 0 32 32" style="enable-background:new 0 0 512 512" xml:space="preserve" class=""><g><path d="M29 2H3a1 1 0 0 0-1 1v26a1 1 0 0 0 1 1h26a1 1 0 0 0 1-1V3a1 1 0 0 0-1-1zm-1 6H16.618l2-4H28zM12.618 8l2-4h1.764l-2 4zM4 4h8.382l-2 4H4zm24 24H4V10h24z" fill="#ffffff" data-original="#000000" class=""></path><circle cx="6" cy="6" r="1" fill="#ffffff" data-original="#000000" class=""></circle><circle cx="9" cy="6" r="1" fill="#ffffff" data-original="#000000" class=""></circle><path d="M12.707 21.293a1 1 0 0 0-1.414 0l-2 2a1 1 0 0 0 0 1.414l2 2a.997.997 0 0 0 1.414 0 1 1 0 0 0 0-1.414L11.414 24l1.293-1.293a1 1 0 0 0 0-1.414zM19.293 21.293a1 1 0 0 0 0 1.414L20.586 24l-1.293 1.293a1 1 0 1 0 1.414 1.414l2-2a1 1 0 0 0 0-1.414l-2-2a1 1 0 0 0-1.414 0zM17.447 21.105a1 1 0 0 0-1.342.448l-2 4a1 1 0 1 0 1.79.894l2-4a1 1 0 0 0-.448-1.342zM12 12v4a1 1 0 0 0 1 1h6a1 1 0 0 0 1-1v-4a1 1 0 0 0-1-1h-6a1 1 0 0 0-1 1zm2 1h4v2h-4zM6 17h4a1 1 0 0 0 1-1v-4a1 1 0 0 0-1-1H6a1 1 0 0 0-1 1v4a1 1 0 0 0 1 1zm1-4h2v2H7zM22 17h4a1 1 0 0 0 1-1v-4a1 1 0 0 0-1-1h-4a1 1 0 0 0-1 1v4a1 1 0 0 0 1 1zm1-4h2v2h-2zM11 19a1 1 0 0 0-1-1H6a1 1 0 1 0 0 2h4a1 1 0 0 0 1-1zM22 20h4a1 1 0 1 0 0-2h-4a1 1 0 1 0 0 2zM20 19a1 1 0 0 0-1-1h-6a1 1 0 1 0 0 2h6a1 1 0 0 0 1-1z" fill="#ffffff" data-original="#000000" class=""></path></g></svg>