<svg xmlns="http://www.w3.org/2000/svg" version="1.1" xmlns:xlink="http://www.w3.org/1999/xlink" xmlns:svgjs="http://svgjs.com/svgjs" width="512" height="512" x="0" y="0" fill="white" viewBox="0 0 512.009 512.009" style="enable-background:new 0 0 512 512" xml:space="preserve" class=""><g><path d="M512.009 104.429V16.392c0-9.043-7.339-16.383-16.392-16.383H16.383C7.339.009 0 7.348 0 16.392v479.235C0 504.669 7.339 512 16.383 512h479.234c9.043 0 16.383-7.331 16.392-16.374V149.708c0-9.043-7.339-16.383-16.392-16.383-9.052 0-16.383 7.331-16.383 16.383v329.527H32.765V120.811h462.852c9.052 0 16.392-7.33 16.392-16.382zm-32.774-16.383H32.765V32.774h446.469v55.272z" fill="#ffffff" data-original="#000000" class=""></path><path d="M432.926 77.219h15.806c9.043 0 16.392-7.339 16.392-16.383s-7.339-16.383-16.392-16.383h-15.806c-9.052 0-16.383 7.339-16.383 16.383s7.331 16.383 16.383 16.383zM371.194 77.219h15.788c9.052 0 16.392-7.339 16.392-16.383s-7.339-16.383-16.392-16.383h-15.788c-9.052 0-16.383 7.339-16.383 16.383s7.331 16.383 16.383 16.383zM415.212 365.434c0-9.052-7.339-16.392-16.392-16.392H113.241c-9.043 0-16.383 7.339-16.383 16.392 0 9.052 7.331 16.392 16.383 16.392H398.82c9.053 0 16.392-7.34 16.392-16.392zM113.241 407.145c-9.043 0-16.383 7.339-16.383 16.392 0 9.052 7.331 16.392 16.383 16.392h135.517c9.052 0 16.383-7.339 16.383-16.392 0-9.052-7.331-16.392-16.383-16.392H113.241zM108.493 311.263c8.68 2.6 17.803-2.352 20.385-11.022l2.237-7.499h35.143l2.237 7.499c2.121 7.1 8.635 11.706 15.69 11.706 1.553 0 3.133-.213 4.695-.683 8.671-2.591 13.605-11.715 11.013-20.385l-35.508-119.054c-2.068-6.94-8.458-11.697-15.699-11.697s-13.632 4.757-15.699 11.697L97.48 290.878c-2.592 8.67 2.343 17.793 11.013 20.385zm47.99-51.296h-15.592l7.796-26.136 7.796 26.136zM398.75 224.042c9.052 0 16.392-7.331 16.392-16.383v-5.254c0-23.314-19.578-42.279-43.637-42.279h-2.441c-24.059 0-43.628 18.965-43.628 42.279v67.27c0 23.296 19.569 42.261 43.628 42.261h2.441c24.059 0 43.637-18.956 43.637-42.261v-6.39c0-9.043-7.339-16.383-16.392-16.383-9.052 0-16.383 7.331-16.383 16.383v6.39c0 5.147-4.979 9.496-10.872 9.496h-2.441c-5.884 0-10.854-4.349-10.854-9.496v-67.27c0-5.156 4.97-9.514 10.854-9.514h2.441c5.893 0 10.872 4.357 10.872 9.514v5.254c0 9.044 7.331 16.383 16.383 16.383zM299.868 202.414c0-23.314-18.965-42.279-42.279-42.279H233.44c-9.043 0-16.383 7.331-16.383 16.383v119.037c0 9.052 7.331 16.383 16.383 16.383h30.014c25.879 0 46.921-21.264 46.921-47.435v-2.813c0-14.287-6.284-27.111-16.194-35.818a42.016 42.016 0 0 0 5.686-21.14v-2.318zm-32.766 0v2.316c0 5.254-4.269 9.523-9.514 9.523h-7.765V192.9h7.765c5.157.001 9.514 4.358 9.514 9.514zm10.499 62.088c0 8.085-6.354 14.67-14.146 14.67h-13.632v-32.153h7.765c1.256 0 2.496-.066 3.724-.174.703.092 1.414.156 2.142.156 7.677 0 14.146 6.727 14.146 14.688v2.813z" fill="#ffffff" data-original="#000000" class=""></path></g></svg>