<svg width="30" height="30" viewBox="0 0 30 30" fill="none" xmlns="http://www.w3.org/2000/svg">
<g clip-path="url(#clip0_1_595)">
<path d="M4.37476 4.99097C3.33923 4.99097 2.49976 5.83044 2.49976 6.86597V11.866H3.74974V6.86597C3.74974 6.5208 4.02959 6.24095 4.37476 6.24095H19.3748V4.99097H4.37476Z" fill="#FF0071"/>
<path d="M4.37476 23.7408C4.02959 23.7408 3.74974 23.4609 3.74974 23.1158V16.8657H2.49976V23.1158C2.49976 24.1513 3.33923 24.9908 4.37476 24.9908H10.6248V23.7408H4.37476Z" fill="#FF0071"/>
<path d="M19.8168 25.3528L4.63801 10.174C4.39396 9.92997 3.99834 9.92997 3.75423 10.174L0.182989 13.7453C-0.0609963 13.9893 -0.0609963 14.3849 0.182989 14.629L15.3618 29.8078C15.479 29.925 15.638 29.9909 15.8037 29.9909C15.9694 29.9908 16.1283 29.925 16.2455 29.8078L19.8168 26.2366C20.0608 25.9925 20.0608 25.5968 19.8168 25.3528ZM15.8037 28.4822L1.50862 14.1871L4.19615 11.4996L18.4912 25.7947L15.8037 28.4822Z" fill="#FF0071"/>
<path d="M27.4998 23.7407H18.1248V24.9907H24.9998V28.1157C24.9998 28.4609 25.2796 28.7407 25.6248 28.7407H27.4998C28.8805 28.7407 29.9998 27.6215 29.9998 26.2407C29.9998 24.86 28.8805 23.7407 27.4998 23.7407ZM27.4998 27.4907H26.2498V24.9907H27.4998C28.1901 24.9907 28.7498 25.5503 28.7498 26.2407C28.7498 26.9311 28.1901 27.4907 27.4998 27.4907Z" fill="#FF0071"/>
<path d="M27.5 4.99097H24.375V6.24095H27.5C28.1903 6.24095 28.75 6.80058 28.75 7.49094V26.241H30V7.49094C30 6.11023 28.8807 4.99097 27.5 4.99097Z" fill="#FF0071"/>
<path d="M11.4333 17.6739L9.55811 19.5491L10.442 20.4329L12.3171 18.5578L11.4333 17.6739Z" fill="#FF0071"/>
<path d="M8.9335 15.1744L7.05835 17.0496L7.94221 17.9334L9.81736 16.0583L8.9335 15.1744Z" fill="#FF0071"/>
<path d="M13.932 20.1742L12.0569 22.0493L12.9407 22.9332L14.8159 21.058L13.932 20.1742Z" fill="#FF0071"/>
<path d="M16.433 22.6754L14.5579 24.5505L15.4417 25.4344L17.3169 23.5592L16.433 22.6754Z" fill="#FF0071"/>
<path d="M6.43156 12.6741L4.5564 14.5493L5.44026 15.4332L7.31542 13.558L6.43156 12.6741Z" fill="#FF0071"/>
<path d="M26.9586 1.39578L26.0948 0.532048C25.3639 -0.165631 24.2137 -0.165631 23.4829 0.532048L13.9791 10.0358C13.7351 10.2799 13.7351 10.6755 13.9791 10.9196L16.571 13.5115C16.6879 13.6292 16.8471 13.6951 17.0129 13.6946C17.1787 13.6945 17.3376 13.6287 17.4547 13.5115L26.9586 4.00767C26.9588 4.00737 26.9591 4.00708 26.9594 4.00679C27.6802 3.28556 27.6798 2.11655 26.9586 1.39578ZM26.0754 3.12331L17.0129 12.1858L15.3048 10.4777L24.3673 1.41576C24.6033 1.19023 24.975 1.19023 25.2111 1.41576L26.0754 2.27891C26.0755 2.27903 26.0756 2.27909 26.0757 2.2792C26.3087 2.51235 26.3086 2.89028 26.0754 3.12331Z" fill="#FF0071"/>
<path d="M16.8125 12.4771L14.115 13.3778L15.0156 10.6759L13.8281 10.2803L12.5318 14.1684C12.5106 14.2322 12.4998 14.2989 12.4998 14.366C12.4998 14.7112 12.7797 14.991 13.1249 14.9909C13.191 14.9911 13.2568 14.981 13.3199 14.9609L17.208 13.6646L16.8125 12.4771Z" fill="#FF0071"/>
<path d="M22.6385 2.25969L21.7546 3.14355L24.3466 5.73552L25.2305 4.85166L22.6385 2.25969Z" fill="#FF0071"/>
<path d="M22.5 13.7407H13.125V14.9907H22.5V13.7407Z" fill="#FF0071"/>
<path d="M24.9997 13.7407H23.7498V14.9907H24.9997V13.7407Z" fill="#FF0071"/>
<path d="M27.5 13.7407H26.25V14.9907H27.5V13.7407Z" fill="#FF0071"/>
</g>
<defs>
<clipPath id="clip0_1_595">
<rect width="30" height="30" fill="white"/>
</clipPath>
</defs>
</svg>
