<svg width="30" height="30" viewBox="0 0 30 30" fill="none" xmlns="http://www.w3.org/2000/svg">
<g clip-path="url(#clip0_1_667)">
<path d="M9.21045 18.1875V4.5625C9.21045 3.73537 8.53757 3.0625 7.71045 3.0625H4.46045C3.63332 3.0625 2.96045 3.73537 2.96045 4.5625V5.61087C2.96045 5.887 3.18432 6.11087 3.46045 6.11087C3.73657 6.11087 3.96045 5.887 3.96045 5.61087V4.5625C3.96045 4.28681 4.18476 4.0625 4.46045 4.0625H7.71045C7.98614 4.0625 8.21045 4.28681 8.21045 4.5625V13.9375H5.6197C5.34357 13.9375 5.1197 14.1614 5.1197 14.4375C5.1197 14.7136 5.34357 14.9375 5.6197 14.9375H8.21045V18.1875C8.21045 18.4632 7.98614 18.6875 7.71045 18.6875H4.46045C4.18476 18.6875 3.96045 18.4632 3.96045 18.1875V8.8125H6.46445C6.74057 8.8125 6.96445 8.58862 6.96445 8.3125C6.96445 8.03637 6.74057 7.8125 6.46445 7.8125H3.46045C3.18432 7.8125 2.96045 8.03637 2.96045 8.3125V18.1875C2.96045 19.0146 3.63332 19.6875 4.46045 19.6875H7.71045C8.53751 19.6875 9.21045 19.0146 9.21045 18.1875Z" fill="#008181"/>
<path d="M29.5289 17.1186L26.2178 10.25C25.7389 9.25663 24.541 8.83806 23.5477 9.31694L22.3229 9.90738L23.065 8.76813C23.6683 7.84194 23.4071 6.60406 22.4807 6.00075L16.0914 1.83913C15.1676 1.23738 13.9259 1.49938 13.324 2.4235L13.0198 2.89069C12.8691 3.12206 12.9344 3.43181 13.1659 3.58256C13.3973 3.73325 13.707 3.66788 13.8577 3.43644L14.1619 2.96925C14.4628 2.50725 15.0836 2.37613 15.5457 2.67706L21.935 6.8385C22.3982 7.14019 22.5288 7.759 22.2272 8.22219L20.5835 10.7458C10.5401 15.5874 11.1645 15.2815 11.1068 15.3229C11.0024 15.3976 10.9286 15.5121 10.9059 15.6427C10.8936 15.7126 10.8979 15.1469 10.8979 24.1874C10.8979 26.8411 8.73907 28.9999 6.08545 28.9999C3.43182 28.9999 1.27295 26.8411 1.27295 24.1874V2C1.27295 1.44856 1.72157 1 2.27295 1H9.89795C10.4493 1 10.8979 1.44856 10.8979 2V12.4173C10.8979 12.6934 11.1218 12.9173 11.3979 12.9173C11.6741 12.9173 11.8979 12.6934 11.8979 12.4173V11.3697L12.696 10.1444L14.4766 11.3042C14.5609 11.3591 14.6555 11.3853 14.7491 11.3853C15.2455 11.3853 15.4381 10.737 15.0224 10.4662L13.2418 9.30644L15.0156 6.58313C15.1661 6.352 15.4754 6.28588 15.7074 6.43706L18.4306 8.21081C18.6623 8.36163 18.7276 8.671 18.5768 8.90269L17.9551 9.85713C17.8044 10.0885 17.8698 10.3983 18.1012 10.549C18.3326 10.6998 18.6423 10.6343 18.793 10.4029L19.4146 9.44844C19.8671 8.75375 19.6712 7.82531 18.9764 7.37288L16.2531 5.59919C15.5586 5.14675 14.6301 5.34269 14.1776 6.03744L11.8979 9.53738V2C11.8979 0.897188 11.0008 0 9.89795 0H2.27295C1.17014 0 0.272949 0.897188 0.272949 2V24.1875C0.272949 27.3925 2.88045 30 6.08545 30C9.18139 30 11.7194 27.5669 11.8887 24.5126C12.2209 24.5821 12.5543 24.5383 12.8473 24.397L25.1206 18.4804C25.8673 18.1205 26.1806 17.2248 25.8204 16.4779L24.4091 13.5503C24.0499 12.8052 23.1514 12.4914 22.4066 12.8504L13.5112 17.1386C13.2624 17.2584 13.158 17.5573 13.2779 17.8061L14.6432 20.6382C14.7631 20.8869 15.0619 20.9914 15.3108 20.8714C15.5594 20.7516 15.6639 20.4527 15.544 20.2039L14.3959 17.8222L22.8408 13.7512C23.0893 13.6315 23.3886 13.7361 23.5084 13.9844L24.9196 16.9121C25.0396 17.161 24.9353 17.4596 24.6864 17.5796L21.7588 18.9909L20.7633 16.9258C20.6433 16.6771 20.3444 16.5726 20.0958 16.6926C19.847 16.8124 19.7426 17.1113 19.8625 17.3601L20.8579 19.4251L12.4129 23.4963C12.2424 23.5784 12.0438 23.5553 11.8979 23.4473V16.043L23.982 10.2177C24.4788 9.97819 25.0776 10.1876 25.3171 10.6843L28.6282 17.5528C28.8676 18.0495 28.6583 18.6484 28.1616 18.8879L14.651 25.4009C14.4023 25.5208 14.2978 25.8196 14.4178 26.0684C14.5039 26.2471 14.6825 26.3514 14.8685 26.3514C15.0453 26.3514 14.1581 26.7487 28.5958 19.7887C29.5892 19.3098 30.0078 18.1119 29.5289 17.1186Z" fill="#008181"/>
<path d="M6.08545 25.5625C5.32726 25.5625 4.71045 24.9457 4.71045 24.1875C4.71045 23.9114 4.48657 23.6875 4.21045 23.6875C3.93432 23.6875 3.71045 23.9114 3.71045 24.1875C3.71045 25.4971 4.77589 26.5625 6.08545 26.5625C7.39501 26.5625 8.46044 25.4971 8.46044 24.1875C8.46044 22.8779 7.39501 21.8125 6.08545 21.8125C5.80932 21.8125 5.58545 22.0364 5.58545 22.3125C5.58545 22.5886 5.80932 22.8125 6.08545 22.8125C6.84363 22.8125 7.46044 23.4293 7.46044 24.1875C7.46044 24.9457 6.84357 25.5625 6.08545 25.5625Z" fill="#008181"/>
</g>
<defs>
<clipPath id="clip0_1_667">
<rect width="30" height="30" fill="white"/>
</clipPath>
</defs>
</svg>
