<svg width="25" height="25" viewBox="0 0 25 25" fill="none" xmlns="http://www.w3.org/2000/svg">
<path d="M24.2676 0.952148H0.732422C0.32793 0.952148 0 1.28008 0 1.68457V19.458C0 19.8625 0.32793 20.1904 0.732422 20.1904H8.10547V22.583H6.29883C5.89434 22.583 5.56641 22.9109 5.56641 23.3154C5.56641 23.7199 5.89434 24.0479 6.29883 24.0479H18.7012C19.1057 24.0479 19.4336 23.7199 19.4336 23.3154C19.4336 22.9109 19.1057 22.583 18.7012 22.583H16.8945V20.1904H24.2676C24.6721 20.1904 25 19.8625 25 19.458V1.68457C25 1.28008 24.6721 0.952148 24.2676 0.952148ZM23.5352 3.88184H4.39453V2.41699H23.5352V3.88184ZM1.46484 2.41699H2.92969V18.7256H1.46484V2.41699ZM15.4297 22.583H9.57031V20.1904H15.4297V22.583ZM4.39453 18.7256V5.34668H23.5352V18.7256H4.39453Z" fill="#FF8947"/>
<path d="M15.7227 7.54395C15.7227 7.13945 15.3947 6.81152 14.9902 6.81152H6.64062C6.23613 6.81152 5.9082 7.13945 5.9082 7.54395C5.9082 7.94844 6.23613 8.27637 6.64062 8.27637H14.9902C15.3947 8.27637 15.7227 7.94849 15.7227 7.54395Z" fill="#FF8947"/>
<path d="M13.0212 11.2061H15.0147C15.4192 11.2061 15.7471 10.8781 15.7471 10.4736C15.7471 10.0691 15.4192 9.74121 15.0147 9.74121H13.0212C12.6167 9.74121 12.2888 10.0691 12.2888 10.4736C12.2888 10.8781 12.6167 11.2061 13.0212 11.2061Z" fill="#FF8947"/>
<path d="M20.166 13.4036C20.166 12.9991 19.8381 12.6711 19.4336 12.6711H13.0371C12.6326 12.6711 12.3047 12.9991 12.3047 13.4036C12.3047 13.8081 12.6326 14.136 13.0371 14.136H19.4336C19.8381 14.136 20.166 13.8081 20.166 13.4036Z" fill="#FF8947"/>
<path d="M21.3378 15.6008H18.2202C17.8157 15.6008 17.4878 15.9288 17.4878 16.3333C17.4878 16.7377 17.8157 17.0657 18.2202 17.0657H21.3378C21.7423 17.0657 22.0702 16.7377 22.0702 16.3333C22.0702 15.9288 21.7423 15.6008 21.3378 15.6008Z" fill="#FF8947"/>
</svg>
