<svg width="133" height="106" viewBox="0 0 133 106" fill="none" xmlns="http://www.w3.org/2000/svg">
<path opacity="0.2" d="M52.7602 2.46178L52.3008 1.74234L51.5181 2.08316C39.4677 7.33089 26.8676 16.2549 17.2689 27.1688C7.67787 38.074 1 51.0652 1 64.4417C1 75.9324 3.54971 86.0664 9.12836 93.3507C14.7384 100.676 23.3211 105 35.0913 105C49.324 105 61.05 93.6696 61.05 80.9944C61.05 74.5986 59.01 68.7337 54.6101 64.0384L54.5991 64.0267L54.5877 64.0153C48.1221 57.5469 38.7938 56.1472 30.0435 56.1472H23.032C25.5969 35.7093 39.6458 23.3091 58.8044 13.9994L59.8148 13.5085L59.2102 12.5618L52.7602 2.46178ZM123.991 2.46178L123.531 1.74234L122.749 2.08316C110.698 7.33089 98.098 16.2549 88.4994 27.1688C78.9083 38.074 72.2304 51.0652 72.2304 64.4417C72.2304 75.7891 74.7087 85.9201 80.2133 93.2386C85.7507 100.601 94.2643 105 106.041 105C120.274 105 132 93.6696 132 80.9944C132 75.6404 130.697 70.877 128.041 66.9661C125.384 63.0519 121.416 60.0562 116.196 58.1706L116.196 58.1705L116.185 58.1667C110.22 56.091 103.566 56.1141 95.847 56.141C95.3238 56.1428 94.7957 56.1447 94.2626 56.1459C96.828 35.7087 110.877 23.3089 130.035 13.9994L131.045 13.5085L130.441 12.5618L123.991 2.46178Z" stroke="#545454" stroke-width="2"/>
</svg>
