<svg xmlns="http://www.w3.org/2000/svg" version="1.1" xmlns:xlink="http://www.w3.org/1999/xlink" xmlns:svgjs="http://svgjs.com/svgjs" width="512" height="512" x="0" y="0" fill="white" viewBox="0 0 512 512" style="enable-background:new 0 0 512 512" xml:space="preserve" class=""><g><path d="M21.336.003v469.331H64V512l21.333-14.222L106.666 512v-42.667h383.997V0L21.336.003zm42.667 426.664V42.669h312.885l.003 383.997H64.003zm383.994-384v99.555h-28.442l-.001-99.555h28.443zm0 142.221v99.555h-28.44l-.001-99.555h28.441zm0 241.779h-28.44V327.11h28.44v99.557z" fill="#ffffff" data-original="#000000" class=""></path><path d="M135.087 177.642a23.428 23.428 0 0 0-4.426-7.066c-1.877-2.057-4.129-3.725-6.751-5.008-2.625-1.28-5.486-1.923-8.586-1.923H87.957v63.496h17.439v-19.496h10.374c3.1 0 5.948-.612 8.54-1.833 2.594-1.22 4.799-2.862 6.618-4.918 1.818-2.057 3.233-4.412 4.248-7.066a22.75 22.75 0 0 0 1.519-8.183c.002-2.682-.535-5.349-1.608-8.003zm-17.484 13.325c-.924.984-1.921 1.476-2.995 1.476h-9.212v-13.595h8.764c1.074 0 2.146.478 3.22 1.432 1.074.954 1.61 2.743 1.61 5.365-.002 2.566-.464 4.339-1.387 5.322zM203.723 183.769a32.912 32.912 0 0 0-6.482-10.374c-2.805-3.042-6.171-5.484-10.106-7.333-3.935-1.847-8.317-2.772-13.146-2.772-4.71 0-9.047.879-13.013 2.637-3.965 1.759-7.393 4.114-10.283 7.066-2.893 2.951-5.143 6.366-6.753 10.24a31.171 31.171 0 0 0-2.413 12.072c0 4.115.774 8.109 2.325 11.984a32.973 32.973 0 0 0 6.528 10.33c2.802 3.012 6.171 5.441 10.105 7.289 3.935 1.849 8.319 2.772 13.147 2.772 4.709 0 9.045-.895 13.01-2.682 3.965-1.789 7.378-4.159 10.24-7.11 2.861-2.951 5.097-6.35 6.707-10.196a30.841 30.841 0 0 0 2.415-12.028c0-4.056-.761-8.019-2.281-11.895zm-16.276 17.707c-.568 2.028-1.431 3.831-2.593 5.411-1.163 1.58-2.669 2.862-4.517 3.844-1.849.984-4.025 1.476-6.529 1.476s-4.665-.477-6.484-1.431-3.324-2.206-4.517-3.758c-1.193-1.55-2.088-3.322-2.682-5.32a21.583 21.583 0 0 1-.895-6.215c0-2.086.282-4.127.851-6.127.565-1.995 1.445-3.785 2.637-5.365 1.192-1.579 2.697-2.847 4.517-3.802 1.818-.953 3.979-1.431 6.484-1.431 2.445 0 4.575.462 6.394 1.387 1.818.924 3.338 2.146 4.561 3.667 1.22 1.52 2.13 3.28 2.728 5.276.594 1.998.895 4.069.895 6.215 0 2.09-.284 4.146-.85 6.173zM256.174 203.801c2.863-2.027 5.099-4.635 6.709-7.825 1.61-3.189 2.414-6.632 2.414-10.33 0-2.684-.536-5.35-1.61-8.004-1.074-2.651-2.549-5.008-4.426-7.066-1.877-2.057-4.129-3.725-6.753-5.008-2.624-1.28-5.485-1.923-8.584-1.923H214.77v63.496h17.439v-19.496h6.527l11.18 19.496h19.675l-13.417-23.34zm-9.971-13.146c-.924 1.193-1.923 1.789-2.995 1.789h-10.999V178.85h10.551c1.074 0 2.146.582 3.22 1.745 1.074 1.163 1.61 2.847 1.61 5.053 0 2.146-.463 3.817-1.387 5.007zM271.019 163.646v15.204h18.334v48.292h17.438V178.85h18.243v-15.204zM131.51 257.218v-15.202H87.957v63.496h17.439v-23.61h21.285v-14.131h-21.285v-10.553zM197.553 262.139a32.9 32.9 0 0 0-6.482-10.374c-2.805-3.042-6.171-5.485-10.108-7.333-3.935-1.847-8.317-2.772-13.146-2.772-4.71 0-9.047.879-13.012 2.637-3.965 1.759-7.393 4.115-10.283 7.066-2.893 2.951-5.143 6.366-6.753 10.24a31.172 31.172 0 0 0-2.414 12.072c0 4.114.774 8.109 2.325 11.984a32.973 32.973 0 0 0 6.528 10.33c2.802 3.012 6.171 5.441 10.105 7.289 3.935 1.849 8.319 2.772 13.147 2.772 4.709 0 9.045-.895 13.01-2.682 3.965-1.789 7.38-4.159 10.24-7.11 2.862-2.951 5.097-6.35 6.707-10.196a30.838 30.838 0 0 0 2.415-12.028c.003-4.056-.758-8.019-2.279-11.895zm-16.276 17.707c-.567 2.028-1.431 3.831-2.593 5.412-1.163 1.58-2.669 2.862-4.517 3.844-1.849.984-4.025 1.476-6.529 1.476-2.505 0-4.665-.476-6.484-1.431-1.819-.954-3.324-2.206-4.517-3.758-1.193-1.55-2.088-3.322-2.682-5.32a21.583 21.583 0 0 1-.895-6.215c0-2.086.282-4.127.85-6.127.565-1.995 1.445-3.784 2.637-5.365 1.192-1.579 2.698-2.847 4.517-3.802 1.818-.953 3.979-1.431 6.484-1.431 2.445 0 4.575.462 6.394 1.387 1.818.924 3.338 2.146 4.561 3.667 1.22 1.52 2.13 3.28 2.728 5.276.594 1.998.895 4.069.895 6.215a22.77 22.77 0 0 1-.849 6.172zM226.037 290.309v-48.293h-17.439v63.496h46.235v-15.203zM262.257 242.019h17.439v63.496h-17.439zM350.655 262.139a32.9 32.9 0 0 0-6.484-10.374c-2.805-3.042-6.171-5.485-10.106-7.333-3.935-1.847-8.317-2.772-13.146-2.772-4.71 0-9.047.879-13.013 2.637-3.965 1.759-7.393 4.114-10.283 7.066-2.893 2.951-5.143 6.366-6.753 10.24a31.172 31.172 0 0 0-2.414 12.072c0 4.115.774 8.109 2.325 11.984a32.973 32.973 0 0 0 6.528 10.33c2.802 3.012 6.171 5.441 10.105 7.289 3.935 1.848 8.319 2.772 13.148 2.772 4.709 0 9.045-.895 13.01-2.682 3.965-1.789 7.378-4.159 10.241-7.11a32.586 32.586 0 0 0 6.706-10.196 30.838 30.838 0 0 0 2.415-12.028c.002-4.056-.759-8.019-2.279-11.895zm-16.274 17.707c-.567 2.028-1.431 3.831-2.593 5.411-1.163 1.58-2.669 2.862-4.517 3.844-1.849.984-4.025 1.476-6.529 1.476s-4.665-.477-6.484-1.431c-1.819-.954-3.324-2.206-4.516-3.758-1.193-1.55-2.088-3.322-2.682-5.32a21.583 21.583 0 0 1-.895-6.215c0-2.086.282-4.127.851-6.127.565-1.995 1.444-3.784 2.637-5.365 1.192-1.579 2.697-2.847 4.517-3.802 1.818-.953 3.979-1.431 6.484-1.431 2.445 0 4.575.462 6.394 1.387 1.818.924 3.338 2.146 4.561 3.667 1.22 1.52 2.13 3.28 2.728 5.276.594 1.998.895 4.069.895 6.215a22.887 22.887 0 0 1-.851 6.173z" fill="#ffffff" data-original="#000000" class=""></path></g></svg>