<svg xmlns="http://www.w3.org/2000/svg" version="1.1" xmlns:xlink="http://www.w3.org/1999/xlink" xmlns:svgjs="http://svgjs.com/svgjs" width="512" height="512" x="0" y="0" fill="white" viewBox="0 0 60 60" style="enable-background:new 0 0 512 512" xml:space="preserve" class=""><g><path d="M30.225 25.919A1.986 1.986 0 0 0 32 27h2.648c.645 0 1.25-.313 1.623-.838l5.223-7.362 5.238 7.364a2 2 0 0 0 1.624.836H51a2 2 0 0 0 1.623-3.162L45.274 13.5l7.354-10.339A2 2 0 0 0 51 0h-2.644c-.645 0-1.25.313-1.623.838L41.506 8.2 36.268.839A2 2 0 0 0 34.644 0H32a2 2 0 0 0-1.623 3.162l.927 1.3a1 1 0 0 0 1.629-1.16L32 2h2.642l5.238 7.364a1.991 1.991 0 0 0 3.247 0L48.356 2H51l-7.355 10.34a2.006 2.006 0 0 0 0 2.322L51 25h-2.642l-5.238-7.364a1.991 1.991 0 0 0-3.247 0L34.644 25H32l7.355-10.34a2.006 2.006 0 0 0 0-2.322L34.98 6.189a1 1 0 1 0-1.628 1.161l4.374 6.15-7.353 10.339a1.994 1.994 0 0 0-.148 2.08zM12 0H9a2 2 0 0 0-2 2v15a10.039 10.039 0 0 0 3.163 7.3 9.9 9.9 0 0 0 6.829 2.7c.223 0 .447-.007.674-.021A10.183 10.183 0 0 0 27 16.691V10a1 1 0 0 0-2 0v6.691a8.178 8.178 0 0 1-7.464 8.291A8 8 0 0 1 9 17V2h3v14.829a5.131 5.131 0 0 0 4.514 5.148A5 5 0 0 0 22 17V2h3v4a1 1 0 0 0 2 0V2a2 2 0 0 0-2-2h-3a2 2 0 0 0-2 2v15a3 3 0 0 1-3.3 2.986 3.118 3.118 0 0 1-2.7-3.157V2a2 2 0 0 0-2-2zM25 33h-3a2 2 0 0 0-2 2v15a3 3 0 0 1-3.3 2.986 3.118 3.118 0 0 1-2.7-3.157V35a2 2 0 0 0-2-2H9a2 2 0 0 0-2 2v15a10.039 10.039 0 0 0 3.163 7.3 9.9 9.9 0 0 0 6.829 2.7c.223 0 .447-.007.674-.021A10.183 10.183 0 0 0 27 49.691V43a1 1 0 0 0-2 0v6.691a8.178 8.178 0 0 1-7.464 8.291A8 8 0 0 1 9 50V35h3v14.829a5.131 5.131 0 0 0 4.514 5.148A5 5 0 0 0 22 50V35h3v4a1 1 0 0 0 2 0v-4a2 2 0 0 0-2-2zM51 33H33a2 2 0 0 0-2 2v3a2 2 0 0 0 2 2h6v13h-6a2 2 0 0 0-2 2v3a2 2 0 0 0 2 2h18a2 2 0 0 0 2-2v-3a2 2 0 0 0-2-2h-6v-7a1 1 0 0 0-2 0v7a2 2 0 0 0 2 2h6v3H33v-3h6a2 2 0 0 0 2-2V40a2 2 0 0 0-2-2h-6v-3h18v3h-6a2 2 0 0 0-2 2v2a1 1 0 0 0 2 0v-2h6a2 2 0 0 0 2-2v-3a2 2 0 0 0-2-2zM59 29H1a1 1 0 0 0 0 2h58a1 1 0 0 0 0-2z" fill="#ffffff" data-original="#000000" class=""></path></g></svg>