<svg xmlns="http://www.w3.org/2000/svg" version="1.1" xmlns:xlink="http://www.w3.org/1999/xlink" xmlns:svgjs="http://svgjs.com/svgjs" width="512" height="512" x="0" y="0" fill="white" viewBox="0 0 24 24" style="enable-background:new 0 0 512 512" xml:space="preserve" class=""><g><g fill="#000" fill-rule="evenodd" clip-rule="evenodd"><path d="M1.5 2a.5.5 0 0 1 .5-.5h20a.5.5 0 0 1 .5.5v20a.5.5 0 0 1-.5.5H2a.5.5 0 0 1-.5-.5zm1 .5v19h19v-19z" fill="#ffffff" data-original="#000000" class=""></path><path d="M1.5 2a.5.5 0 0 1 .5-.5h20a.5.5 0 0 1 .5.5v5a.5.5 0 0 1-.5.5H2a.5.5 0 0 1-.5-.5zm1 .5v4h19v-4z" fill="#ffffff" data-original="#000000" class=""></path><path d="M6.5 5h-2V4h2zM10.5 5h-2V4h2zM14.5 5h-2V4h2zM12 11a1.5 1.5 0 1 0 0 3 1.5 1.5 0 0 0 0-3zm-2.5 1.5a2.5 2.5 0 1 1 5 0 2.5 2.5 0 0 1-5 0z" fill="#ffffff" data-original="#000000" class=""></path><path d="M8.535 18h6.93a3.501 3.501 0 0 0-6.93 0zm-1.035.5a4.5 4.5 0 1 1 9 0 .5.5 0 0 1-.5.5H8a.5.5 0 0 1-.5-.5z" fill="#ffffff" data-original="#000000" class=""></path></g></g></svg>