<?xml version="1.0" encoding="UTF-8" standalone="no"?>
<!-- Created with Inkscape (http://www.inkscape.org/) -->

<svg
   width="135.46667mm"
   height="130.95111mm"
   viewBox="0 0 135.46667 130.95111"
   version="1.1"
   id="svg28"
   xml:space="preserve"
   xmlns:inkscape="http://www.inkscape.org/namespaces/inkscape"
   xmlns:sodipodi="http://sodipodi.sourceforge.net/DTD/sodipodi-0.dtd"
   xmlns="http://www.w3.org/2000/svg"
   xmlns:svg="http://www.w3.org/2000/svg"><sodipodi:namedview
     id="namedview30"
     pagecolor="#ffffff"
     bordercolor="#000000"
     borderopacity="0.25"
     inkscape:showpageshadow="2"
     inkscape:pageopacity="0.0"
     inkscape:pagecheckerboard="0"
     inkscape:deskcolor="#d1d1d1"
     inkscape:document-units="mm"
     showgrid="false" /><defs
     id="defs25" /><g
     inkscape:label="Layer 1"
     inkscape:groupmode="layer"
     id="layer1"
     transform="translate(518.03499,428.69664)"><g
       id="g58"
       transform="matrix(2.2577778,0,0,2.2577778,-518.03498,-430.95443)"
       style="fill:#fefefe;fill-opacity:1"><path
         d="m 57,19 h -0.162 c -0.014,-0.035 -0.021,-0.074 -0.036,-0.108 a 6.221,6.221 0 0 0 -2.6,-2.55 A 6.065,6.065 0 0 1 52.513,14.964 6.087,6.087 0 0 1 51.872,12.853 6.173,6.173 0 0 0 50.509,9.493 6.17,6.17 0 0 0 47.148,8.13 6.087,6.087 0 0 1 45.037,7.489 6.057,6.057 0 0 1 43.66,5.8 6.174,6.174 0 0 0 41.106,3.205 6.085,6.085 0 0 0 37.494,3.228 6.083,6.083 0 0 1 35.285,3.446 5.95,5.95 0 0 1 33.4,2.432 6.22,6.22 0 0 0 30,1 6.22,6.22 0 0 0 26.6,2.432 5.966,5.966 0 0 1 24.717,3.448 6.209,6.209 0 0 1 22.505,3.227 6.13,6.13 0 0 0 18.893,3.2 6.226,6.226 0 0 0 16.342,5.8 6.052,6.052 0 0 1 14.963,7.49 6.087,6.087 0 0 1 12.852,8.131 6.17,6.17 0 0 0 9.493,9.493 6.173,6.173 0 0 0 8.13,12.853 6.083,6.083 0 0 1 7.49,14.962 6.037,6.037 0 0 1 5.8,16.339 6.178,6.178 0 0 0 3.2,18.916 C 3.19,18.943 3.184,18.972 3.174,19 H 3 a 3,3 0 0 0 -3,3 v 16 a 3,3 0 0 0 3,3 h 0.162 c 0.014,0.035 0.021,0.074 0.036,0.108 a 6.226,6.226 0 0 0 2.6,2.55 6.065,6.065 0 0 1 1.689,1.378 6.087,6.087 0 0 1 0.641,2.111 6.173,6.173 0 0 0 1.363,3.36 6.17,6.17 0 0 0 3.359,1.363 6.087,6.087 0 0 1 2.111,0.641 6.057,6.057 0 0 1 1.379,1.689 6.174,6.174 0 0 0 2.554,2.595 6.085,6.085 0 0 0 3.612,-0.023 6.012,6.012 0 0 1 2.209,-0.218 5.95,5.95 0 0 1 1.885,1.014 6.22,6.22 0 0 0 3.4,1.432 6.22,6.22 0 0 0 3.4,-1.432 5.966,5.966 0 0 1 1.883,-1.016 6.143,6.143 0 0 1 2.212,0.221 6.147,6.147 0 0 0 3.616,0.029 6.226,6.226 0 0 0 2.551,-2.6 6.052,6.052 0 0 1 1.379,-1.69 6.087,6.087 0 0 1 2.111,-0.641 6.17,6.17 0 0 0 3.359,-1.363 6.173,6.173 0 0 0 1.363,-3.36 6.083,6.083 0 0 1 0.64,-2.109 6.037,6.037 0 0 1 1.686,-1.378 6.178,6.178 0 0 0 2.6,-2.577 C 56.81,41.057 56.816,41.028 56.826,41 H 57 a 3,3 0 0 0 3,-3 V 22 A 3,3 0 0 0 57,19 Z M 6.9,18.015 a 7.49,7.49 0 0 0 2.255,-1.939 7.526,7.526 0 0 0 0.944,-2.852 4.711,4.711 0 0 1 0.812,-2.317 4.707,4.707 0 0 1 2.316,-0.812 A 7.5,7.5 0 0 0 16.08,9.15 7.477,7.477 0 0 0 18.022,6.891 4.774,4.774 0 0 1 19.666,5.044 4.678,4.678 0 0 1 22.102,5.185 7.663,7.663 0 0 0 25.109,5.411 7.374,7.374 0 0 0 27.738,4.083 4.729,4.729 0 0 1 30,3 4.729,4.729 0 0 1 32.266,4.083 7.374,7.374 0 0 0 34.9,5.411 7.532,7.532 0 0 0 37.91,5.189 4.61,4.61 0 0 1 40.342,5.054 4.715,4.715 0 0 1 41.985,6.9 a 7.49,7.49 0 0 0 1.939,2.255 7.519,7.519 0 0 0 2.853,0.944 4.707,4.707 0 0 1 2.316,0.812 4.711,4.711 0 0 1 0.812,2.317 7.531,7.531 0 0 0 0.945,2.854 7.478,7.478 0 0 0 2.258,1.939 A 9.655,9.655 0 0 1 54.437,19 H 50.188 A 22.981,22.981 0 0 0 9.813,19 H 5.565 A 9.686,9.686 0 0 1 6.9,18.015 Z M 47.886,19 H 12.114 a 21,21 0 0 1 35.772,0 z M 53.1,41.985 a 7.49,7.49 0 0 0 -2.255,1.939 7.526,7.526 0 0 0 -0.944,2.852 4.711,4.711 0 0 1 -0.812,2.317 4.707,4.707 0 0 1 -2.316,0.812 7.5,7.5 0 0 0 -2.853,0.945 7.477,7.477 0 0 0 -1.942,2.259 4.774,4.774 0 0 1 -1.644,1.847 4.678,4.678 0 0 1 -2.436,-0.141 7.627,7.627 0 0 0 -3.007,-0.226 7.374,7.374 0 0 0 -2.629,1.328 A 4.729,4.729 0 0 1 30,57 4.729,4.729 0 0 1 27.734,55.917 7.374,7.374 0 0 0 25.105,54.589 7.548,7.548 0 0 0 22.095,54.811 4.642,4.642 0 0 1 19.663,54.946 4.715,4.715 0 0 1 18.015,53.1 7.49,7.49 0 0 0 16.076,50.845 7.519,7.519 0 0 0 13.223,49.901 4.707,4.707 0 0 1 10.907,49.089 4.711,4.711 0 0 1 10.095,46.772 7.531,7.531 0 0 0 9.15,43.918 7.478,7.478 0 0 0 6.892,41.979 9.655,9.655 0 0 1 5.563,41 h 4.25 a 22.981,22.981 0 0 0 40.375,0 h 4.247 A 9.686,9.686 0 0 1 53.1,41.985 Z M 12.114,41 H 47.886 A 21,21 0 0 1 12.114,41 Z M 58,38 a 1,1 0 0 1 -1,1 H 3 A 1,1 0 0 1 2,38 V 22 a 1,1 0 0 1 1,-1 h 54 a 1,1 0 0 1 1,1 z"
         id="path32"
         style="fill:#fefefe;fill-opacity:1" /><path
         d="M 10,35 H 9 V 24 A 1,1 0 0 0 7.293,23.293 l -2,2 a 1,1 0 0 0 1.414,1.414 L 7,26.414 V 35 H 6 a 1,1 0 0 0 0,2 h 4 a 1,1 0 0 0 0,-2 z"
         id="path34"
         style="fill:#fefefe;fill-opacity:1" /><path
         d="m 19,23 c -3.309,0 -6,3.14 -6,7 0,3.86 2.691,7 6,7 3.309,0 6,-3.14 6,-7 0,-3.86 -2.691,-7 -6,-7 z m 0,12 c -2.206,0 -4,-2.243 -4,-5 0,-2.757 1.794,-5 4,-5 2.206,0 4,2.243 4,5 0,2.757 -1.794,5 -4,5 z"
         id="path36"
         style="fill:#fefefe;fill-opacity:1" /><path
         d="m 33,23 c -3.309,0 -6,3.14 -6,7 0,3.86 2.691,7 6,7 3.309,0 6,-3.14 6,-7 0,-3.86 -2.691,-7 -6,-7 z m 0,12 c -2.206,0 -4,-2.243 -4,-5 0,-2.757 1.794,-5 4,-5 2.206,0 4,2.243 4,5 0,2.757 -1.794,5 -4,5 z"
         id="path38"
         style="fill:#fefefe;fill-opacity:1" /><path
         d="m 47,26 a 3,3 0 1 0 -3,3 3,3 0 0 0 3,-3 z m -4,0 a 1,1 0 1 1 1,1 1,1 0 0 1 -1,-1 z"
         id="path40"
         style="fill:#fefefe;fill-opacity:1" /><path
         d="m 52,31 a 3,3 0 1 0 3,3 3,3 0 0 0 -3,-3 z m 0,4 a 1,1 0 1 1 1,-1 1,1 0 0 1 -1,1 z"
         id="path42"
         style="fill:#fefefe;fill-opacity:1" /><path
         d="m 53.707,24.293 a 1,1 0 0 0 -1.414,0 l -10,10 a 1,1 0 1 0 1.414,1.414 l 10,-10 a 1,1 0 0 0 0,-1.414 z"
         id="path44"
         style="fill:#fefefe;fill-opacity:1" /></g></g></svg>
