<?xml version="1.0" encoding="UTF-8" standalone="no"?>
<!-- Created with Inkscape (http://www.inkscape.org/) -->

<svg
   width="135.46667mm"
   height="135.46664mm"
   viewBox="0 0 135.46667 135.46664"
   version="1.1"
   id="svg28"
   xml:space="preserve"
   xmlns:inkscape="http://www.inkscape.org/namespaces/inkscape"
   xmlns:sodipodi="http://sodipodi.sourceforge.net/DTD/sodipodi-0.dtd"
   xmlns="http://www.w3.org/2000/svg"
   xmlns:svg="http://www.w3.org/2000/svg"><sodipodi:namedview
     id="namedview30"
     pagecolor="#ffffff"
     bordercolor="#000000"
     borderopacity="0.25"
     inkscape:showpageshadow="2"
     inkscape:pageopacity="0.0"
     inkscape:pagecheckerboard="0"
     inkscape:deskcolor="#d1d1d1"
     inkscape:document-units="mm"
     showgrid="false" /><defs
     id="defs25" /><g
     inkscape:label="Layer 1"
     inkscape:groupmode="layer"
     id="layer1"
     transform="translate(516.54921,594.21556)"><g
       id="g123"
       transform="matrix(2.2577778,0,0,2.2577778,-516.54921,-594.21556)"
       style="fill:#fefefe;fill-opacity:1"><path
         d="M 57,0 H 3 A 3,3 0 0 0 0,3 v 44 a 3,3 0 0 0 3,3 h 19.9 c -0.589,3.228 -3.921,3.982 -4.1,4.02 A 3.994,3.994 0 0 0 15,58 a 2,2 0 0 0 2,2 h 26 a 2,2 0 0 0 2,-2 4,4 0 0 0 -3.8,-3.98 v 0 C 41.043,53.988 37.686,53.267 37.1,50 H 57 a 3,3 0 0 0 3,-3 V 3 A 3,3 0 0 0 57,0 Z M 3,2 h 54 a 1,1 0 0 1 1,1 V 42 H 2 V 3 A 1,1 0 0 1 3,2 Z M 43,58 H 17 a 2,2 0 0 1 2,-2 h 22 a 2.005,2.005 0 0 1 2,2 z M 37.082,54 H 22.916 a 6.6,6.6 0 0 0 2.014,-4 h 10.14 a 6.6,6.6 0 0 0 2.014,4 z M 57,48 H 3 A 1,1 0 0 1 2,47 v -3 h 56 v 3 a 1,1 0 0 1 -1,1 z"
         id="path97"
         style="fill:#fefefe;fill-opacity:1" /><path
         d="m 6,40 h 48 a 2,2 0 0 0 2,-2 V 6 A 2,2 0 0 0 54,4 H 6 A 2,2 0 0 0 4,6 v 32 a 2,2 0 0 0 2,2 z m 12.234,-9.029 -1.229,-2.923 c 0.307,-0.372 0.641,-0.729 0.966,-1.062 a 9.739,9.739 0 0 1 1.128,-0.977 l 2.872,1.225 A 1,1 0 0 0 22.88,27.171 13.664,13.664 0 0 1 26.674,25.6 1,1 0 0 0 27.363,25 l 1.193,-2.934 a 11.759,11.759 0 0 1 2.923,0.037 L 32.637,25 a 1,1 0 0 0 0.689,0.6 13.664,13.664 0 0 1 3.794,1.574 1,1 0 0 0 0.909,0.063 l 2.923,-1.229 c 0.372,0.308 0.729,0.641 1.062,0.966 a 9.643,9.643 0 0 1 0.977,1.128 l -1.225,2.872 a 1,1 0 0 0 0.063,0.909 13.664,13.664 0 0 1 1.571,3.791 1,1 0 0 0 0.6,0.689 l 2.934,1.193 c 0.014,0.141 0.021,0.294 0.031,0.444 h -5.016 a 11.99,11.99 0 0 0 -23.9,0 h -5 c 0.015,-0.162 0.027,-0.324 0.054,-0.481 L 16,36.363 a 1,1 0 0 0 0.6,-0.689 13.664,13.664 0 0 1 1.574,-3.794 1,1 0 0 0 0.06,-0.909 z M 39.949,38 h -19.9 a 10,10 0 0 1 19.9,0 z M 6,6 H 54 V 38 H 48.972 C 48.96,37.783 48.947,37.569 48.928,37.369 a 2.064,2.064 0 0 0 -1.285,-1.706 l -2.431,-0.971 a 15.636,15.636 0 0 0 -1.41,-3.4 l 1.028,-2.409 a 2.013,2.013 0 0 0 -0.294,-2.112 c -0.307,-0.373 -0.655,-0.754 -1.108,-1.217 -0.448,-0.438 -0.829,-0.786 -1.19,-1.083 a 2.016,2.016 0 0 0 -2.122,-0.3 L 37.705,25.2 a 15.636,15.636 0 0 0 -3.4,-1.41 l -0.972,-2.434 a 2.06,2.06 0 0 0 -1.694,-1.281 18.634,18.634 0 0 0 -3.273,0 2.064,2.064 0 0 0 -1.706,1.285 l -0.971,2.431 a 15.636,15.636 0 0 0 -3.4,1.41 L 19.886,24.17 a 2.013,2.013 0 0 0 -2.112,0.294 c -0.373,0.307 -0.754,0.655 -1.217,1.108 -0.438,0.448 -0.786,0.829 -1.083,1.19 a 2.018,2.018 0 0 0 -0.3,2.122 L 16.2,31.3 a 15.636,15.636 0 0 0 -1.41,3.4 l -2.434,0.972 a 2.06,2.06 0 0 0 -1.281,1.694 c -0.02,0.206 -0.033,0.423 -0.045,0.644 H 6 Z"
         id="path99"
         style="fill:#fefefe;fill-opacity:1" /><path
         d="m 21,18 a 3,3 0 0 0 3,-3 1,1 0 0 0 -2,0 1,1 0 0 1 -2,0 v -4 a 1,1 0 0 1 2,0 1,1 0 0 0 2,0 3,3 0 0 0 -6,0 v 4 a 3,3 0 0 0 3,3 z"
         id="path101"
         style="fill:#fefefe;fill-opacity:1" /><path
         d="m 27,18 a 1,1 0 0 0 1,-1 v -6 l 0.8,1.067 a 1.544,1.544 0 0 0 2.4,0 L 32,11 v 6 a 1,1 0 0 0 2,0 V 9.5 A 1.5,1.5 0 0 0 31.3,8.6 L 30,10.335 28.7,8.6 A 1.5,1.5 0 0 0 26,9.5 V 17 a 1,1 0 0 0 1,1 z"
         id="path103"
         style="fill:#fefefe;fill-opacity:1" /><path
         d="m 39,14 a 1,1 0 1 1 -0.867,1.5 1,1 0 0 0 -1.731,1 A 3,3 0 1 0 39,12 1,1 0 1 1 39.867,10.5 1,1 0 0 0 41.598,9.5 3,3 0 1 0 39,14 Z"
         id="path105"
         style="fill:#fefefe;fill-opacity:1" /><path
         d="m 14,18 a 1,1 0 0 0 0,-2 h -4 a 1,1 0 0 0 0,2 z"
         id="path107"
         style="fill:#fefefe;fill-opacity:1" /><path
         d="m 46,18 h 4 a 1,1 0 0 0 0,-2 h -4 a 1,1 0 0 0 0,2 z"
         id="path109"
         style="fill:#fefefe;fill-opacity:1" /></g></g></svg>
