<?xml version="1.0" encoding="UTF-8" standalone="no"?>
<!-- Created with Inkscape (http://www.inkscape.org/) -->

<svg
   width="135.52051mm"
   height="135.50732mm"
   viewBox="0 0 135.52051 135.50732"
   version="1.1"
   id="svg28"
   xml:space="preserve"
   xmlns:inkscape="http://www.inkscape.org/namespaces/inkscape"
   xmlns:sodipodi="http://sodipodi.sourceforge.net/DTD/sodipodi-0.dtd"
   xmlns="http://www.w3.org/2000/svg"
   xmlns:svg="http://www.w3.org/2000/svg"><sodipodi:namedview
     id="namedview30"
     pagecolor="#ffffff"
     bordercolor="#000000"
     borderopacity="0.25"
     inkscape:showpageshadow="2"
     inkscape:pageopacity="0.0"
     inkscape:pagecheckerboard="0"
     inkscape:deskcolor="#d1d1d1"
     inkscape:document-units="mm"
     showgrid="false" /><defs
     id="defs25" /><g
     inkscape:label="Layer 1"
     inkscape:groupmode="layer"
     id="layer1"
     transform="translate(760.00771,637.97343)"><g
       id="g239"
       transform="matrix(1.0583333,0,0,1.0583333,-759.97638,-637.94058)"
       style="fill:#fefefe;fill-opacity:1"><path
         d="M 126.89,93.13 113.77,86.57 105.42,64.85 A 2,2 0 0 0 104.3,63.71 L 52.49,43 a 2,2 0 0 0 -2.15,0.44 l -6.91,6.91 A 2,2 0 0 0 43,52.49 l 20.71,51.81 a 2,2 0 0 0 1.14,1.12 l 21.72,8.35 6.56,13.12 a 2,2 0 0 0 1.47,1.11 1.73,1.73 0 0 0 0.32,0 2,2 0 0 0 1.41,-0.59 L 127.41,96.33 A 2,2 0 0 0 128,94.6 2,2 0 0 0 126.89,93.13 Z m -79.7,-40.9 1.11,-1.1 25.79,25.79 a 11.77,11.77 0 1 0 2.83,-2.83 L 51.13,48.3 52.23,47.19 102,67.1 109.85,87.52 87.52,109.85 67.1,102 Z m 36.51,23.7 a 7.77,7.77 0 1 1 -5.5,2.27 7.78,7.78 0 0 1 5.5,-2.27 z m 11.77,46.69 -5,-10 22.13,-22.13 10,5 z"
         id="path228"
         style="fill:#fefefe;fill-opacity:1" /><path
         d="m 38.25,107 a 2.06,2.06 0 0 0 -2.83,0 l -2.54,2.54 a 54.91,54.91 0 0 1 -1,-63.74 10.26,10.26 0 0 0 13.96,-13.89 54.91,54.91 0 0 1 63.74,1 L 107,35.42 a 2,2 0 0 0 -0.58,1.41 2,2 0 0 0 0.58,1.42 l 8.82,8.75 a 2,2 0 0 0 2.82,0 l 8.77,-8.77 a 2,2 0 0 0 0,-2.83 l -8.77,-8.77 a 2,2 0 0 0 -2.82,0 L 112.43,30 A 58.91,58.91 0 0 0 53.33,23.13 L 64.86,11.63 A 6.13,6.13 0 1 0 62,8.8 L 42.54,28.29 A 10.27,10.27 0 0 0 28.29,42.54 L 8.8,62 a 6.14,6.14 0 1 0 2.83,2.83 l 11.53,-11.5 a 58.91,58.91 0 0 0 6.84,59.1 l -3.38,3.39 a 2,2 0 0 0 0,2.82 l 8.77,8.77 a 2,2 0 0 0 1.41,0.59 2,2 0 0 0 1.42,-0.59 L 47,118.64 a 2,2 0 0 0 0,-2.82 z m 79,-76.15 5.94,5.94 -5.94,5.94 -5.94,-5.94 z M 66,4.63 a 2.13,2.13 0 1 1 0,3 2.12,2.12 0 0 1 0,-3 z M 32.4,32.4 a 6.25,6.25 0 0 1 8.86,0 6.27,6.27 0 1 1 -8.86,0 z M 7.64,69 a 2.13,2.13 0 0 1 -3,-3 2.14,2.14 0 0 1 3,0 2.12,2.12 0 0 1 0,3 z m 29.19,54.13 -5.94,-5.94 5.94,-5.94 5.94,5.94 z"
         id="path230"
         style="fill:#fefefe;fill-opacity:1" /></g></g></svg>
