<?xml version="1.0"?>
<svg xmlns="http://www.w3.org/2000/svg" viewBox="0 0 512 512" width="512" height="512"><g id="_OUTLINE" data-name=" OUTLINE"><path d="M344,248a96,96,0,1,0,96,96A96.10874,96.10874,0,0,0,344,248ZM304,413.2373v-8.99414a40.02292,40.02292,0,0,1,20.57422-34.96582L344,358.48535l19.42578,10.792A40.02292,40.02292,0,0,1,384,404.24316v8.99414a79.71214,79.71214,0,0,1-80,0Zm24-91.35937V312a16,16,0,0,1,32,0v9.87793a16.01053,16.01053,0,0,1-8.22949,13.9873L344,340.18164l-7.76953-4.31641A16.00946,16.00946,0,0,1,328,321.87793Zm71.90723,79.26978A56.02907,56.02907,0,0,0,371.19531,355.291l-10.74023-5.96778A32.01694,32.01694,0,0,0,376,321.87793V312a32,32,0,0,0-64,0v9.87793a32.0203,32.0203,0,0,0,15.54492,27.44531L316.80469,355.291a56.02907,56.02907,0,0,0-28.71192,45.85669,80,80,0,1,1,111.81446,0Z"/><path d="M311.374,163.8252A23.73065,23.73065,0,0,0,332.25879,176H467.74121a23.99991,23.99991,0,0,0,20.58008-36.34766L420.58008,26.751a24.0007,24.0007,0,0,0-41.16016-.001L311.67871,139.65234A23.73157,23.73157,0,0,0,311.374,163.8252Zm14.02539-15.94043L393.14062,34.98242v-.001a7.99978,7.99978,0,0,1,13.71876.001l67.74121,112.90235A7.99979,7.99979,0,0,1,467.74121,160H332.25879a7.99979,7.99979,0,0,1-6.85938-12.11523Z"/><rect x="392" y="56" width="16" height="56"/><rect x="392" y="128" width="16" height="16"/><path d="M496,369.25684V318.74316l-23.92188-4.33886-7.2539-22.56153L481.63965,274.127l-29.41406-40.916-21.90625,10.72461-18.89356-13.88184,3.28906-24.08984L367.01953,190.293,355.64258,211.791H332.35742L320.97949,190.293l-25.96631,8.53174A111.99928,111.99928,0,1,0,184,296a111.448,111.448,0,0,0,37.13184-6.3103l2.04394,2.15307-7.2539,22.56153L192,318.74316V336H170.03906l-4.1123-22.6709-44.24317-14.22168L104.87305,315.0625,82.3418,298.86426l10.1416-20.71289L65.05859,240.82715l-22.77734,3.1084L33.707,217.84082l20.28223-10.73437v-46.2129L33.707,150.15918l8.57422-26.09473,22.77734,3.1084L92.4834,89.84863,82.3418,69.13574l22.53125-16.19726,16.80957,15.9541L165.92676,54.6709,170.03809,32h27.92285l4.1123,22.6709,44.24317,14.22168L263.127,52.9375,285.6582,69.13574,275.5166,89.84863l22.19629,30.208,12.89453-9.47266-16.46-22.40136L305.9707,64.03418,261.7168,32.2168l-19.53516,18.541L216.10449,42.374,211.32031,16h-54.6416l-4.7832,26.374-26.07813,8.38379-19.53222-18.54L62.0293,64.03418,73.85254,88.18262,57.79688,110.03418l-26.55665-3.624L14.293,157.9873l23.69629,12.541v26.94336L14.293,210.0127l16.94726,51.5791,26.55665-3.626,16.05566,21.85156L62.0293,303.96582l44.25586,31.81738,19.5332-18.541,26.07715,8.38379L156.67969,352H192v17.25684l23.92188,4.33886,7.2539,22.56153-16.81543,17.71582,29.415,40.916,21.90527-10.72461,18.89356,13.88184-3.28906,24.08984,47.69531,15.6709L332.35742,476.21l23.28516-.001,11.37793,21.498,47.69433-15.6709-3.28906-24.08984,18.89356-13.88184,21.90527,10.72461,29.416-40.916-16.8164-17.71582,7.2539-22.56153ZM88,184a96,96,0,1,1,189.80273,20.47949l-4.51757,1.48438,3.28906,24.08984-18.89356,13.88184-13.20581-6.46607a87.26021,87.26021,0,0,0-41.35669-52.03784A31.82879,31.82879,0,0,0,216,159.751V136a32,32,0,0,0-64,0v23.751a31.82657,31.82657,0,0,0,12.88184,25.68164,87.43208,87.43208,0,0,0-44.64331,70.26709A95.78593,95.78593,0,0,1,88,184Zm112-48v23.751a15.92412,15.92412,0,0,1-10.05859,14.85547L184,176.9834l-5.94238-2.37695A15.92467,15.92467,0,0,1,168,159.751V136a16,16,0,0,1,32,0ZM184,280a95.4093,95.4093,0,0,1-48-12.887v-4.95a71.65391,71.65391,0,0,1,45.26074-66.85059L184,194.2168l2.74023,1.0957a71.5158,71.5158,0,0,1,42.48194,47.0127L206.35938,274.127l2.49121,2.62451A95.91815,95.91815,0,0,1,184,280ZM460.91992,415.28516l-13.79687,19.1914-18.46973-9.043-34.36621,25.251,2.77148,20.31055-22.21,7.29785-9.57129-18.084-42.55468.001-9.57032,18.083-22.21093-7.29785,2.77148-20.31055-34.36621-25.251-18.46973,9.043-13.7959-19.1914,14.2295-14.99317-13.0918-40.72754L208,355.89746V332.10254l20.21875-3.667,13.0918-40.72754-14.23047-14.99317L240.877,253.52246l18.46973,9.044,34.36621-25.251-2.77148-20.31055,22.21-7.29785,9.57129,18.084h42.55468l9.57032-18.084,22.21093,7.29785-2.77148,20.31055,34.36621,25.251,18.46875-9.043,13.79688,19.1914L446.68945,287.708l13.0918,40.72754L480,332.10254v23.79492l-20.21875,3.667L446.68945,400.292Z"/><path d="M155.99414,429.23828l8.01172-13.84961A184.27623,184.27623,0,0,1,92.417,340.32812l-14.21484,7.34376A200.24693,200.24693,0,0,0,155.99414,429.23828Z"/><path d="M179.33691,423.32031l-6.67382,14.541a199.42351,199.42351,0,0,0,25.00683,9.49707l4.66016-15.30664A183.31058,183.31058,0,0,1,179.33691,423.32031Z"/><path d="M33.18457,279.18164l-15.916,1.63672a240.10032,240.10032,0,0,0,3.875,24.8291l15.65625-3.29492A224.51011,224.51011,0,0,1,33.18457,279.18164Z"/><path d="M40.63086,317.79785,25.25,322.20215a241.71013,241.71013,0,0,0,85.05273,124.52832A237.80368,237.80368,0,0,0,256,496V480a221.9318,221.9318,0,0,1-135.97559-45.97754A225.61412,225.61412,0,0,1,40.63086,317.79785Z"/></g></svg>
