<svg id="Capa_1" enable-background="new 0 0 512 512" height="512" viewBox="0 0 512 512" width="512" xmlns="http://www.w3.org/2000/svg"><g><path d="m222.598 187.79v-67.335c10.03 1.54 20.815 12.045 27.887 18.601l20.059-22.308c-12.867-12.768-28.645-24.662-47.945-26.789v-23.782h-30v25.186c-22.609 4.134-42.516 23.656-46.702 48.014-6.503 35.769 15.277 55.518 46.702 68.55v85.365c-13.55.216-30.505-11.323-43.108-19.878l-16.424 25.105c18.014 13.001 40.805 25.145 59.532 24.833v25.669h30v-26.951c27.425-5.227 50.965-29.754 55.383-58.221 5.915-37.647-16.804-65.55-55.384-76.059zm-47.225-42.837c1.559-8.238 6.899-18.091 17.225-22.352v51.884c-12.733-6.324-19.993-14.385-17.225-29.532zm73.023 113.922c-2.149 12.784-10.916 26.352-25.798 32.027v-71.165c27.635 8.219 27.32 32.322 25.798 39.138z"/><path d="m509.923 354.36-123.632-41.211c18.353-30.946 28.907-67.036 28.907-105.55 0-114.471-93.129-207.599-207.599-207.599s-207.599 93.128-207.599 207.599 93.128 207.599 207.599 207.599c38.514 0 74.604-10.554 105.551-28.906l41.211 123.632 29.21 2.076 42.81-85.62 85.619-42.81zm-302.324 30.838c-97.928 0-177.599-79.67-177.599-177.599s79.671-177.599 177.599-177.599c97.929 0 177.6 79.67 177.6 177.599 0 35.262-10.337 68.15-28.132 95.809l-51.335-17.112-19.437 19.435 17.113 51.339c-27.659 17.791-60.548 28.128-95.809 28.128zm196.421 18.822-32.003 64.006-48.005-144.014 144.014 48.004z"/></g></svg>