<?xml version="1.0" encoding="UTF-8" standalone="no"?>
<!-- Created with Inkscape (http://www.inkscape.org/) -->

<svg
   width="135.46664mm"
   height="135.46667mm"
   viewBox="0 0 135.46664 135.46667"
   version="1.1"
   id="svg28"
   xml:space="preserve"
   xmlns:inkscape="http://www.inkscape.org/namespaces/inkscape"
   xmlns:sodipodi="http://sodipodi.sourceforge.net/DTD/sodipodi-0.dtd"
   xmlns="http://www.w3.org/2000/svg"
   xmlns:svg="http://www.w3.org/2000/svg"><sodipodi:namedview
     id="namedview30"
     pagecolor="#ffffff"
     bordercolor="#000000"
     borderopacity="0.25"
     inkscape:showpageshadow="2"
     inkscape:pageopacity="0.0"
     inkscape:pagecheckerboard="0"
     inkscape:deskcolor="#d1d1d1"
     inkscape:document-units="mm"
     showgrid="false" /><defs
     id="defs25" /><g
     inkscape:label="Layer 1"
     inkscape:groupmode="layer"
     id="layer1"
     transform="translate(271.8476,153.68229)"><g
       id="g423"
       transform="matrix(0.26458333,0,0,0.26458333,-271.8476,-153.68228)"
       style="fill:#fefefe;fill-opacity:1"><path
         d="m 222.598,187.79 v -67.335 c 10.03,1.54 20.815,12.045 27.887,18.601 l 20.059,-22.308 C 257.677,103.98 241.899,92.086 222.599,89.959 V 66.177 h -30 v 25.186 c -22.609,4.134 -42.516,23.656 -46.702,48.014 -6.503,35.769 15.277,55.518 46.702,68.55 v 85.365 c -13.55,0.216 -30.505,-11.323 -43.108,-19.878 l -16.424,25.105 c 18.014,13.001 40.805,25.145 59.532,24.833 v 25.669 h 30 V 322.07 c 27.425,-5.227 50.965,-29.754 55.383,-58.221 5.915,-37.647 -16.804,-65.55 -55.384,-76.059 z m -47.225,-42.837 c 1.559,-8.238 6.899,-18.091 17.225,-22.352 v 51.884 C 179.865,168.161 172.605,160.1 175.373,144.953 Z m 73.023,113.922 c -2.149,12.784 -10.916,26.352 -25.798,32.027 v -71.165 c 27.635,8.219 27.32,32.322 25.798,39.138 z"
         id="path419"
         style="fill:#fefefe;fill-opacity:1" /><path
         d="M 509.923,354.36 386.291,313.149 c 18.353,-30.946 28.907,-67.036 28.907,-105.55 C 415.198,93.128 322.069,0 207.599,0 93.129,0 0,93.128 0,207.599 0,322.07 93.128,415.198 207.599,415.198 c 38.514,0 74.604,-10.554 105.551,-28.906 l 41.211,123.632 29.21,2.076 42.81,-85.62 L 512,383.57 Z M 207.599,385.198 C 109.671,385.198 30,305.528 30,207.599 30,109.67 109.671,30 207.599,30 c 97.929,0 177.6,79.67 177.6,177.599 0,35.262 -10.337,68.15 -28.132,95.809 l -51.335,-17.112 -19.437,19.435 17.113,51.339 c -27.659,17.791 -60.548,28.128 -95.809,28.128 z m 196.421,18.822 -32.003,64.006 -48.005,-144.014 144.014,48.004 z"
         id="path421"
         style="fill:#fefefe;fill-opacity:1" /></g></g></svg>
