<?xml version="1.0" encoding="UTF-8" standalone="no"?>
<!-- Created with Inkscape (http://www.inkscape.org/) -->

<svg
   width="127.45166mm"
   height="127.69012mm"
   viewBox="0 0 127.45166 127.69012"
   version="1.1"
   id="svg28"
   xml:space="preserve"
   xmlns:inkscape="http://www.inkscape.org/namespaces/inkscape"
   xmlns:sodipodi="http://sodipodi.sourceforge.net/DTD/sodipodi-0.dtd"
   xmlns="http://www.w3.org/2000/svg"
   xmlns:svg="http://www.w3.org/2000/svg"><sodipodi:namedview
     id="namedview30"
     pagecolor="#ffffff"
     bordercolor="#000000"
     borderopacity="0.25"
     inkscape:showpageshadow="2"
     inkscape:pageopacity="0.0"
     inkscape:pagecheckerboard="0"
     inkscape:deskcolor="#d1d1d1"
     inkscape:document-units="mm"
     showgrid="false" /><defs
     id="defs25" /><g
     inkscape:label="Layer 1"
     inkscape:groupmode="layer"
     id="layer1"
     transform="translate(986.15292,647.75285)"><g
       id="_OUTLINE"
       data-name=" OUTLINE"
       transform="matrix(0.26458333,0,0,0.26458333,-989.93463,-651.74771)"
       style="fill:#fefefe;fill-opacity:1"><path
         d="m 344,248 a 96,96 0 1 0 96,96 96.10874,96.10874 0 0 0 -96,-96 z m -40,165.2373 v -8.99414 a 40.02292,40.02292 0 0 1 20.57422,-34.96582 L 344,358.48535 l 19.42578,10.792 A 40.02292,40.02292 0 0 1 384,404.24316 v 8.99414 a 79.71214,79.71214 0 0 1 -80,0 z m 24,-91.35937 V 312 a 16,16 0 0 1 32,0 v 9.87793 a 16.01053,16.01053 0 0 1 -8.22949,13.9873 L 344,340.18164 336.23047,335.86523 A 16.00946,16.00946 0 0 1 328,321.87793 Z m 71.90723,79.26978 A 56.02907,56.02907 0 0 0 371.19531,355.291 l -10.74023,-5.96778 A 32.01694,32.01694 0 0 0 376,321.87793 V 312 a 32,32 0 0 0 -64,0 v 9.87793 a 32.0203,32.0203 0 0 0 15.54492,27.44531 l -10.74023,5.96776 a 56.02907,56.02907 0 0 0 -28.71192,45.85669 80,80 0 1 1 111.81446,0 z"
         id="path384"
         style="fill:#fefefe;fill-opacity:1" /><path
         d="M 311.374,163.8252 A 23.73065,23.73065 0 0 0 332.25879,176 h 135.48242 a 23.99991,23.99991 0 0 0 20.58008,-36.34766 L 420.58008,26.751 A 24.0007,24.0007 0 0 0 379.41992,26.75 L 311.67871,139.65234 A 23.73157,23.73157 0 0 0 311.374,163.8252 Z m 14.02539,-15.94043 67.74123,-112.90235 v -10e-4 a 7.99978,7.99978 0 0 1 13.71876,10e-4 l 67.74121,112.90235 A 7.99979,7.99979 0 0 1 467.74121,160 H 332.25879 a 7.99979,7.99979 0 0 1 -6.85938,-12.11523 z"
         id="path386"
         style="fill:#fefefe;fill-opacity:1" /><rect
         x="392"
         y="56"
         width="16"
         height="56"
         id="rect388"
         style="fill:#fefefe;fill-opacity:1" /><rect
         x="392"
         y="128"
         width="16"
         height="16"
         id="rect390"
         style="fill:#fefefe;fill-opacity:1" /><path
         d="m 496,369.25684 v -50.51368 l -23.92188,-4.33886 -7.2539,-22.56153 16.81543,-17.71577 -29.41406,-40.916 -21.90625,10.72461 -18.89356,-13.88184 3.28906,-24.08984 -47.69531,-15.67093 -11.37695,21.498 h -23.28516 l -11.37793,-21.498 -25.96631,8.53174 A 111.99928,111.99928 0 1 0 184,296 a 111.448,111.448 0 0 0 37.13184,-6.3103 l 2.04394,2.15307 -7.2539,22.56153 L 192,318.74316 V 336 H 170.03906 L 165.92676,313.3291 121.68359,299.10742 104.87305,315.0625 82.3418,298.86426 92.4834,278.15137 65.05859,240.82715 42.28125,243.93555 33.707,217.84082 53.98923,207.10645 v -46.2129 L 33.707,150.15918 42.28122,124.06445 65.05856,127.17285 92.4834,89.84863 82.3418,69.13574 104.87305,52.93848 121.68262,68.89258 165.92676,54.6709 170.03809,32 h 27.92285 l 4.1123,22.6709 44.24317,14.22168 16.81059,-15.95508 22.5312,16.19824 -10.1416,20.71289 22.19629,30.208 12.89453,-9.47266 -16.46,-22.40136 L 305.9707,64.03418 261.7168,32.2168 242.18164,50.7578 216.10449,42.374 211.32031,16 h -54.6416 l -4.7832,26.374 -26.07813,8.38379 -19.53222,-18.54 -44.25586,31.81639 11.82324,24.14844 -16.05566,21.85156 -26.55665,-3.624 -16.94723,51.57712 23.69629,12.541 v 26.94336 L 14.293,210.0127 l 16.94726,51.5791 26.55665,-3.626 16.05566,21.85156 -11.82327,24.14846 44.25586,31.81738 19.5332,-18.541 26.07715,8.38379 L 156.67969,352 H 192 v 17.25684 l 23.92188,4.33886 7.2539,22.56153 -16.81543,17.71582 29.415,40.916 21.90527,-10.72461 18.89356,13.88184 -3.28906,24.08984 47.69531,15.6709 11.37699,-21.49702 23.28516,-10e-4 11.37793,21.498 47.69433,-15.6709 -3.28906,-24.08984 18.89356,-13.88184 21.90527,10.72461 29.416,-40.916 -16.8164,-17.71582 7.2539,-22.56153 z M 88,184 a 96,96 0 1 1 189.80273,20.47949 l -4.51757,1.48438 3.28906,24.08984 -18.89356,13.88184 -13.20581,-6.46607 A 87.26021,87.26021 0 0 0 203.11816,185.43164 31.82879,31.82879 0 0 0 216,159.751 V 136 a 32,32 0 0 0 -64,0 v 23.751 a 31.82657,31.82657 0 0 0 12.88184,25.68164 87.43208,87.43208 0 0 0 -44.64331,70.26709 A 95.78593,95.78593 0 0 1 88,184 Z m 112,-48 v 23.751 a 15.92412,15.92412 0 0 1 -10.05859,14.85547 L 184,176.9834 178.05762,174.60645 A 15.92467,15.92467 0 0 1 168,159.751 V 136 a 16,16 0 0 1 32,0 z m -16,144 a 95.4093,95.4093 0 0 1 -48,-12.887 v -4.95 a 71.65391,71.65391 0 0 1 45.26074,-66.85059 L 184,194.2168 l 2.74023,1.0957 a 71.5158,71.5158 0 0 1 42.48194,47.0127 l -22.86279,31.8018 2.49121,2.62451 A 95.91815,95.91815 0 0 1 184,280 Z m 276.91992,135.28516 -13.79687,19.1914 -18.46973,-9.043 -34.36621,25.251 2.77148,20.31055 -22.21,7.29785 -9.57129,-18.084 -42.55468,0.001 -9.57032,18.083 -22.21093,-7.29785 2.77148,-20.31055 -34.36621,-25.251 -18.46973,9.043 -13.7959,-19.1914 14.2295,-14.99317 -13.0918,-40.72754 L 208,355.89746 v -23.79492 l 20.21875,-3.667 13.0918,-40.72754 -14.23047,-14.99317 13.79692,-19.19237 18.46973,9.044 34.36621,-25.251 -2.77148,-20.31055 22.21,-7.29785 9.57129,18.084 h 42.55468 l 9.57032,-18.084 22.21093,7.29785 -2.77148,20.31055 34.36621,25.251 18.46875,-9.043 13.79688,19.1914 -14.22959,14.99314 13.0918,40.72754 20.21875,3.667 v 23.79492 l -20.21875,3.667 -13.0918,40.72754 z"
         id="path392"
         style="fill:#fefefe;fill-opacity:1" /><path
         d="m 155.99414,429.23828 8.01172,-13.84961 A 184.27623,184.27623 0 0 1 92.417,340.32812 l -14.21484,7.34376 a 200.24693,200.24693 0 0 0 77.79198,81.5664 z"
         id="path394"
         style="fill:#fefefe;fill-opacity:1" /><path
         d="m 179.33691,423.32031 -6.67382,14.541 a 199.42351,199.42351 0 0 0 25.00683,9.49707 l 4.66016,-15.30664 a 183.31058,183.31058 0 0 1 -22.99317,-8.73143 z"
         id="path396"
         style="fill:#fefefe;fill-opacity:1" /><path
         d="m 33.18457,279.18164 -15.916,1.63672 a 240.10032,240.10032 0 0 0 3.875,24.8291 l 15.65625,-3.29492 a 224.51011,224.51011 0 0 1 -3.61525,-23.1709 z"
         id="path398"
         style="fill:#fefefe;fill-opacity:1" /><path
         d="M 40.63086,317.79785 25.25,322.20215 A 241.71013,241.71013 0 0 0 110.30273,446.73047 237.80368,237.80368 0 0 0 256,496 V 480 A 221.9318,221.9318 0 0 1 120.02441,434.02246 225.61412,225.61412 0 0 1 40.63086,317.79785 Z"
         id="path400"
         style="fill:#fefefe;fill-opacity:1" /></g></g></svg>
