<?xml version="1.0" encoding="UTF-8" standalone="no"?>
<!-- Created with Inkscape (http://www.inkscape.org/) -->

<svg
   width="135.46667mm"
   height="110.33453mm"
   viewBox="0 0 135.46667 110.33453"
   version="1.1"
   id="svg28"
   xml:space="preserve"
   xmlns:inkscape="http://www.inkscape.org/namespaces/inkscape"
   xmlns:sodipodi="http://sodipodi.sourceforge.net/DTD/sodipodi-0.dtd"
   xmlns="http://www.w3.org/2000/svg"
   xmlns:svg="http://www.w3.org/2000/svg"><sodipodi:namedview
     id="namedview30"
     pagecolor="#ffffff"
     bordercolor="#000000"
     borderopacity="0.25"
     inkscape:showpageshadow="2"
     inkscape:pageopacity="0.0"
     inkscape:pagecheckerboard="0"
     inkscape:deskcolor="#d1d1d1"
     inkscape:document-units="mm"
     showgrid="false" /><defs
     id="defs25" /><g
     inkscape:label="Layer 1"
     inkscape:groupmode="layer"
     id="layer1"
     transform="translate(982.54293,452.69756)"><g
       id="g445"
       transform="matrix(0.26459005,0,0,0.26459005,-982.54296,-465.26353)"
       style="fill:#fefefe;fill-opacity:1"><path
         d="m 50.5,333.494 c -4.142,0 -7.5,3.358 -7.5,7.5 0,4.142 3.358,7.5 7.5,7.5 H 116 c 4.142,0 7.5,-3.358 7.5,-7.5 0,-4.142 -3.358,-7.5 -7.5,-7.5 z"
         id="path433"
         style="fill:#fefefe;fill-opacity:1" /><path
         d="M 503.572,388.371 471.993,356.792 472,103.023 c 0,-6.892 -5.607,-12.5 -12.5,-12.5 L 387.311,90.518 C 358.89,63.314 318.957,47.359 279.242,47.493 c -41.755,0 -79.757,16.364 -107.941,43.01 l -69.769,-0.007 c 0,0 0,0 -10e-4,0 -4.142,0 -7.5,3.357 -7.5,7.499 0,4.143 3.357,7.5 7.499,7.501 l 55.833,0.006 c -4.143,5.079 -7.973,10.422 -11.466,15.997 L 15.006,121.491 v -15.998 l 51.524,0.003 c 4.142,0 7.5,-3.357 7.5,-7.5 0,-4.143 -3.357,-7.5 -7.5,-7.5 L 12.505,90.493 c -6.893,0 -12.5,5.607 -12.5,12.5 L 0,382.97 c 0,6.893 5.607,12.5 12.5,12.5 l 101.628,0.007 c 4.142,0 7.5,-3.357 7.5,-7.5 0,-4.143 -3.357,-7.5 -7.5,-7.5 L 15,380.47 l 0.006,-243.979 122.586,0.008 c -4.818,9.961 -8.607,20.506 -11.247,31.494 H 51 c -4.142,0 -7.5,3.358 -7.5,7.5 v 60 c 0,4.142 3.358,7.5 7.5,7.5 h 75.716 c 1.765,7.032 4.004,13.877 6.682,20.5 H 50.5 c -4.142,0 -7.5,3.358 -7.5,7.5 0,4.142 3.358,7.5 7.5,7.5 h 89.908 c 3.732,6.996 7.971,13.682 12.679,20 H 50.5 c -4.142,0 -7.5,3.358 -7.5,7.5 0,4.142 3.358,7.5 7.5,7.5 h 115.285 c 28.638,29.864 68.913,48.486 113.458,48.486 27.504,0 54.125,-7.113 77.571,-20.431 l 14.996,14.996 c 2.803,2.803 6.485,4.205 10.167,4.205 3.286,0 6.567,-1.124 9.228,-3.356 l 23.103,23.104 -265.18,-0.019 c -4.142,0 -7.5,3.357 -7.5,7.5 0,4.143 3.357,7.5 7.5,7.5 l 32.726,0.002 -6.576,23.99 -12.968,-0.003 c -18.644,0 -33.811,15.167 -33.811,33.81 v 3.688 c 0,4.142 3.357,7.5 7.499,7.5 l 199.997,0.029 h 10e-4 c 1.989,0 3.896,-0.79 5.303,-2.196 1.407,-1.407 2.197,-3.314 2.197,-5.304 v -3.688 c 0,-18.643 -15.167,-33.81 -33.81,-33.81 l -12.967,-0.003 -6.581,-24.006 139.172,0.01 33.568,33.569 c 5.436,5.435 12.662,8.428 20.347,8.428 7.686,0 14.912,-2.993 20.348,-8.428 11.219,-11.22 11.219,-29.475 -10e-4,-40.695 z m -175.466,61.122 -184.22,-0.027 c 1.767,-8.551 9.355,-14.999 18.421,-14.999 l 147.376,0.029 c 9.067,0 16.656,6.447 18.423,14.997 z m -46.943,-30.002 -90.333,-0.018 6.577,-23.992 77.176,0.006 z M 457,121.52 412.657,121.517 c -3.468,-5.553 -7.28,-10.899 -11.428,-15.998 L 457,105.523 Z M 58.5,227.994 v -45 h 65.01 c -0.988,7.11 -1.51,14.366 -1.51,21.743 0,7.901 0.592,15.666 1.723,23.257 z M 137,204.737 c 0,-78.433 63.81,-142.243 142.243,-142.243 70.598,0 129.706,50.544 140.544,120.183 0.637,4.093 4.472,6.898 8.564,6.257 4.093,-0.637 6.895,-4.471 6.257,-8.564 -2.381,-15.298 -7.03,-30.063 -13.681,-43.852 l 36.072,0.003 -0.005,205.273 -25.093,-25.094 c 2.172,-2.584 3.361,-5.814 3.361,-9.229 0,-3.84 -1.496,-7.451 -4.211,-10.167 l -14.99,-14.99 c 11.336,-19.954 18.22,-42.288 19.976,-65.61 0.311,-4.13 -2.785,-7.731 -6.916,-8.042 -4.129,-0.303 -7.73,2.785 -8.042,6.916 C 415.53,289.261 353.228,346.979 279.243,346.979 200.81,346.98 137,283.17 137,204.737 Z m 232.786,128.57 c 5.798,-4.092 11.353,-8.591 16.616,-13.494 8.039,-7.489 15.198,-15.713 21.419,-24.525 l 12.183,12.183 -38.027,38.027 z m 123.18,85.152 c -2.602,2.602 -6.062,4.035 -9.741,4.035 -3.679,0 -7.139,-1.433 -9.741,-4.035 l -71.628,-71.628 19.481,-19.482 71.628,71.628 c 5.371,5.372 5.371,14.111 0.001,19.482 z"
         id="path435"
         style="fill:#fefefe;fill-opacity:1" /><path
         d="m 279.243,77.443 c -70.19,0 -127.294,57.104 -127.294,127.294 0,40.54 19.583,79.018 52.383,102.928 3.347,2.441 8.039,1.704 10.479,-1.643 2.44,-3.347 1.705,-8.039 -1.643,-10.479 -28.94,-21.097 -46.219,-55.044 -46.219,-90.807 0,-61.919 50.375,-112.294 112.294,-112.294 61.919,0 112.294,50.375 112.294,112.294 0,61.919 -50.375,112.294 -112.294,112.294 -12.753,0 -25.262,-2.119 -37.179,-6.298 -3.91,-1.373 -8.189,0.687 -9.559,4.595 -1.371,3.909 0.687,8.188 4.595,9.559 13.516,4.741 27.694,7.144 42.143,7.144 70.19,0 127.294,-57.104 127.294,-127.294 0,-70.19 -57.103,-127.293 -127.294,-127.293 z"
         id="path437"
         style="fill:#fefefe;fill-opacity:1" /><path
         d="m 282.808,185.363 c 4.142,0 7.5,-3.358 7.5,-7.5 0,-4.142 -3.358,-7.5 -7.5,-7.5 h -22.647 c -4.142,0 -7.5,3.358 -7.5,7.5 v 53.747 c 0,4.142 3.358,7.5 7.5,7.5 h 22.647 c 4.142,0 7.5,-3.358 7.5,-7.5 0,-4.142 -3.358,-7.5 -7.5,-7.5 h -15.147 v -11.873 h 13.477 c 4.142,0 7.5,-3.358 7.5,-7.5 0,-4.142 -3.358,-7.5 -7.5,-7.5 h -13.477 v -11.874 z"
         id="path439"
         style="fill:#fefefe;fill-opacity:1" /><path
         d="m 210.938,224.358 c -5.191,0 -10.18,-2.085 -13.345,-5.577 -2.781,-3.068 -7.524,-3.302 -10.594,-0.521 -3.07,2.781 -3.302,7.524 -0.521,10.594 6.05,6.675 14.965,10.504 24.459,10.504 11.78,0 21.677,-7.544 23.533,-17.938 1.401,-7.85 -2.125,-18.091 -16.228,-23.292 -4.531,-1.65 -11.963,-4.36 -14.788,-5.948 -0.79,-0.43 -1.132,-1.202 -1.019,-2.295 0.157,-1.514 1.285,-3.422 3.983,-4.235 7.256,-2.184 14.051,3.149 14.265,3.32 3.171,2.626 7.871,2.207 10.524,-0.952 2.665,-3.17 2.255,-7.901 -0.916,-10.567 -0.524,-0.44 -13.014,-10.739 -28.2,-6.164 -8.035,2.42 -13.756,9.114 -14.578,17.054 -0.739,7.146 2.619,13.665 8.766,17.012 3.09,1.782 10.177,4.468 16.771,6.848 1.723,0.635 7.294,2.988 6.652,6.583 -0.486,2.74 -3.899,5.574 -8.764,5.574 z"
         id="path441"
         style="fill:#fefefe;fill-opacity:1" /><path
         d="m 376.233,204.737 c 0,-19.09 -15.531,-34.621 -34.621,-34.621 -19.09,0 -34.621,15.531 -34.621,34.621 0,19.09 15.531,34.621 34.621,34.621 19.09,0 34.621,-15.531 34.621,-34.621 z m -54.242,0 c 0,-10.819 8.802,-19.621 19.621,-19.621 10.819,0 19.621,8.802 19.621,19.621 0,10.819 -8.802,19.621 -19.621,19.621 -10.819,0 -19.621,-8.802 -19.621,-19.621 z"
         id="path443"
         style="fill:#fefefe;fill-opacity:1" /></g></g></svg>
