<?xml version="1.0" encoding="UTF-8" standalone="no"?>
<!-- Created with Inkscape (http://www.inkscape.org/) -->

<svg
   width="135.46667mm"
   height="114.25714mm"
   viewBox="0 0 135.46667 114.25714"
   version="1.1"
   id="svg28"
   xml:space="preserve"
   xmlns:inkscape="http://www.inkscape.org/namespaces/inkscape"
   xmlns:sodipodi="http://sodipodi.sourceforge.net/DTD/sodipodi-0.dtd"
   xmlns="http://www.w3.org/2000/svg"
   xmlns:svg="http://www.w3.org/2000/svg"><sodipodi:namedview
     id="namedview30"
     pagecolor="#ffffff"
     bordercolor="#000000"
     borderopacity="0.25"
     inkscape:showpageshadow="2"
     inkscape:pageopacity="0.0"
     inkscape:pagecheckerboard="0"
     inkscape:deskcolor="#d1d1d1"
     inkscape:document-units="mm"
     showgrid="false" /><defs
     id="defs25" /><g
     inkscape:label="Layer 1"
     inkscape:groupmode="layer"
     id="layer1"
     transform="translate(1218.9818,648.5197)"><g
       id="g382"
       transform="matrix(0.26458333,0,0,0.26458333,-1218.9818,-659.12447)"
       style="fill:#fefefe;fill-opacity:1"><g
         id="g300"
         style="fill:#fefefe;fill-opacity:1">
	<g
   id="g298"
   style="fill:#fefefe;fill-opacity:1">
		<path
   d="M 480.451,40.081 H 31.549 C 14.152,40.081 0,54.233 0,71.629 v 304.613 c 0,17.396 14.152,31.548 31.549,31.548 h 151.826 l -6.141,49.129 H 151.79 c -4.143,0 -7.5,3.358 -7.5,7.5 0,4.142 3.357,7.5 7.5,7.5 h 208.42 c 4.143,0 7.5,-3.358 7.5,-7.5 0,-4.142 -3.357,-7.5 -7.5,-7.5 H 334.767 L 328.625,407.79 H 480.451 C 497.847,407.79 512,393.638 512,376.242 V 71.629 C 512,54.233 497.848,40.081 480.451,40.081 Z m -288.1,416.838 6.142,-49.129 h 27.603 l 2.708,10.83 c 3.126,12.503 14.31,21.234 27.197,21.234 12.887,0 24.071,-8.731 27.197,-21.234 l 2.708,-10.83 h 27.603 l 6.14,49.129 z m 49.206,-49.129 h 28.885 l -1.798,7.192 c -1.453,5.813 -6.652,9.872 -12.645,9.872 -5.993,0 -11.191,-4.06 -12.645,-9.872 z M 497,376.242 v 0 c 0,9.125 -7.424,16.548 -16.549,16.548 H 31.549 C 22.424,392.79 15,385.367 15,376.242 V 71.629 c 0,-9.125 7.424,-16.548 16.549,-16.548 h 448.902 c 9.125,0 16.549,7.423 16.549,16.548 z"
   id="path296"
   style="fill:#fefefe;fill-opacity:1" />
	</g>
</g><g
         id="g306"
         style="fill:#fefefe;fill-opacity:1">
	<g
   id="g304"
   style="fill:#fefefe;fill-opacity:1">
		<path
   d="M 424.338,72.146 H 39.564 c -4.143,0 -7.5,3.357 -7.5,7.5 v 288.58 c 0,4.143 3.357,7.5 7.5,7.5 h 16.033 c 4.143,0 7.5,-3.357 7.5,-7.5 10e-4,-4.142 -3.357,-7.5 -7.499,-7.5 H 47.065 V 87.146 h 377.273 c 4.143,0 7.5,-3.358 7.5,-7.5 0,-4.143 -3.357,-7.5 -7.5,-7.5 z"
   id="path302"
   style="fill:#fefefe;fill-opacity:1" />
	</g>
</g><g
         id="g312"
         style="fill:#fefefe;fill-opacity:1">
	<g
   id="g310"
   style="fill:#fefefe;fill-opacity:1">
		<path
   d="m 472.436,72.146 h -16.033 c -4.143,0 -7.5,3.357 -7.5,7.5 0,4.142 3.357,7.5 7.5,7.5 h 8.533 v 273.58 H 87.662 c -4.143,0 -7.5,3.358 -7.5,7.5 0,4.143 3.357,7.5 7.5,7.5 h 384.773 c 4.143,0 7.5,-3.357 7.5,-7.5 V 79.646 c 10e-4,-4.143 -3.357,-7.5 -7.499,-7.5 z"
   id="path308"
   style="fill:#fefefe;fill-opacity:1" />
	</g>
</g><g
         id="g318"
         style="fill:#fefefe;fill-opacity:1">
	<g
   id="g316"
   style="fill:#fefefe;fill-opacity:1">
		<path
   d="m 358.1,155.184 c -1.348,-1.723 -3.381,-2.771 -5.565,-2.87 l -176.354,-8.017 c -0.138,-0.006 -0.273,-0.009 -0.412,-0.007 -1.044,-3.427 -3.25,-6.399 -6.236,-8.391 l -21.597,-14.398 c -3.446,-2.297 -8.103,-1.366 -10.4,2.081 -2.297,3.447 -1.366,8.103 2.08,10.4 l 21.596,14.396 c 0.102,0.068 0.177,0.171 0.211,0.289 l 27.509,96.281 c 0.858,3.002 2.27,5.7 4.083,8.03 l -10.065,20.13 c -2.423,4.845 -2.169,10.488 0.679,15.096 1.033,1.671 2.343,3.094 3.848,4.234 -1.97,3.439 -3.103,7.417 -3.103,11.657 0,12.976 10.557,23.532 23.532,23.532 12.975,0 23.532,-10.557 23.532,-23.532 0,-3.009 -0.574,-5.885 -1.608,-8.532 h 68.377 c -1.034,2.647 -1.608,5.523 -1.608,8.532 0,12.976 10.557,23.532 23.532,23.532 12.975,0 23.532,-10.557 23.532,-23.532 0,-3.764 -0.893,-7.321 -2.471,-10.479 1.514,-1.372 2.471,-3.348 2.471,-5.553 0,-4.142 -3.357,-7.5 -7.5,-7.5 H 196.825 c -0.107,0 -0.288,0 -0.439,-0.245 -0.151,-0.244 -0.07,-0.405 -0.022,-0.502 l 9.272,-18.543 c 1.887,0.485 3.853,0.747 5.865,0.747 0.927,0 1.863,-0.055 2.805,-0.165 l 105.386,-12.398 c 13.611,-1.602 24.562,-11.706 27.25,-25.146 l 12.606,-63.034 c 0.429,-2.145 -0.1,-4.37 -1.448,-6.093 z m -37.971,140.381 c 4.705,0 8.532,3.828 8.532,8.532 0,4.705 -3.827,8.532 -8.532,8.532 -4.705,0 -8.532,-3.827 -8.532,-8.532 0,-4.705 3.827,-8.532 8.532,-8.532 z m -112.225,0 c 4.705,0 8.532,3.827 8.532,8.532 0,4.705 -3.827,8.532 -8.532,8.532 -4.705,0 -8.532,-3.827 -8.532,-8.532 0,-4.705 3.827,-8.532 8.532,-8.532 z m -18.392,-103.178 -9.399,-32.895 29.985,1.363 5.199,31.532 z m 23.042,54.571 c -4.182,0.492 -8.047,-2.087 -9.201,-6.13 l -9.555,-33.441 h 23.972 l 6.301,38.216 z m 43.963,-5.172 -17.532,2.063 -6.011,-36.461 h 23.543 z m 0,-49.399 H 230.5 l -5.084,-30.835 31.101,1.414 z m 37.982,44.93 -22.982,2.704 v -32.634 h 25.691 z m 4.067,-44.93 h -27.049 v -28.74 l 29.529,1.342 z m 33.666,28.984 c -1.41,7.048 -7.154,12.349 -14.293,13.189 l -8.217,0.967 2.547,-28.139 h 22.759 z m 5.797,-28.984 h -24.401 l 2.418,-26.716 27.08,1.231 z"
   id="path314"
   style="fill:#fefefe;fill-opacity:1" />
	</g>
</g><g
         id="g320"
         style="fill:#fefefe;fill-opacity:1">
</g><g
         id="g322"
         style="fill:#fefefe;fill-opacity:1">
</g><g
         id="g324"
         style="fill:#fefefe;fill-opacity:1">
</g><g
         id="g326"
         style="fill:#fefefe;fill-opacity:1">
</g><g
         id="g328"
         style="fill:#fefefe;fill-opacity:1">
</g><g
         id="g330"
         style="fill:#fefefe;fill-opacity:1">
</g><g
         id="g332"
         style="fill:#fefefe;fill-opacity:1">
</g><g
         id="g334"
         style="fill:#fefefe;fill-opacity:1">
</g><g
         id="g336"
         style="fill:#fefefe;fill-opacity:1">
</g><g
         id="g338"
         style="fill:#fefefe;fill-opacity:1">
</g><g
         id="g340"
         style="fill:#fefefe;fill-opacity:1">
</g><g
         id="g342"
         style="fill:#fefefe;fill-opacity:1">
</g><g
         id="g344"
         style="fill:#fefefe;fill-opacity:1">
</g><g
         id="g346"
         style="fill:#fefefe;fill-opacity:1">
</g><g
         id="g348"
         style="fill:#fefefe;fill-opacity:1">
</g></g></g></svg>
