<?xml version="1.0" encoding="UTF-8" standalone="no"?>
<!-- Created with Inkscape (http://www.inkscape.org/) -->

<svg
   width="118.24336mm"
   height="131.23306mm"
   viewBox="0 0 118.24336 131.23306"
   version="1.1"
   id="svg28"
   xml:space="preserve"
   xmlns:inkscape="http://www.inkscape.org/namespaces/inkscape"
   xmlns:sodipodi="http://sodipodi.sourceforge.net/DTD/sodipodi-0.dtd"
   xmlns="http://www.w3.org/2000/svg"
   xmlns:svg="http://www.w3.org/2000/svg"><sodipodi:namedview
     id="namedview30"
     pagecolor="#ffffff"
     bordercolor="#000000"
     borderopacity="0.25"
     inkscape:showpageshadow="2"
     inkscape:pageopacity="0.0"
     inkscape:pagecheckerboard="0"
     inkscape:deskcolor="#d1d1d1"
     inkscape:document-units="mm"
     showgrid="false" /><defs
     id="defs25" /><g
     inkscape:label="Layer 1"
     inkscape:groupmode="layer"
     id="layer1"
     transform="translate(281.90424,381.15386)"><path
       d="m -187.20906,-337.55002 h 15.49373 c 4.4413,0 8.05445,-3.61315 8.05445,-8.05444 v -20.56501 c 0,-4.44129 -3.61315,-8.05445 -8.05445,-8.05445 h -19.22886 c -1.66925,-4.14337 -5.69912,-6.92996 -10.25339,-6.92996 h -50.58728 c -6.09547,0 -11.05455,4.95908 -11.05455,11.05456 v 40.51511 h -11.01038 c -4.44129,0 -8.05444,3.61315 -8.05444,8.05445 v 20.565 c 0,4.4413 3.61315,8.05445 8.05444,8.05445 h 11.01038 v 31.93494 c 0,6.09547 4.95908,11.05456 11.05455,11.05456 h 50.58728 c 6.09547,0 11.05429,-4.95909 11.05429,-11.05456 v -3.60019 h 5.75283 c 0.87392,0 1.62878,-0.61092 1.81134,-1.46552 l 0.80169,-3.75709 2.69981,-1.11574 3.2258,2.0947 c 0.73395,0.47652 1.701,0.37465 2.31933,-0.24474 l 5.3774,-5.38506 c 0.61753,-0.61833 0.71887,-1.58433 0.24288,-2.31749 l -2.09444,-3.22527 1.11469,-2.6924 3.76476,-0.80195 c 0.85487,-0.18203 1.46605,-0.93742 1.46605,-1.8116 v -7.60492 c 0,-0.87418 -0.61145,-1.6293 -1.46632,-1.8116 l -3.76422,-0.80169 -1.11575,-2.69928 2.09497,-3.22606 c 0.47625,-0.73343 0.37465,-1.70021 -0.24368,-2.31855 l -5.37739,-5.37739 c -0.6186,-0.61833 -1.58539,-0.7194 -2.31855,-0.24368 l -3.2258,2.09497 -2.69928,-1.11575 -0.80195,-3.76449 c -0.18203,-0.85487 -0.93742,-1.46605 -1.8116,-1.46605 h -5.75284 v -20.82192 z m 19.84401,-28.61945 v 20.56501 c 0,2.39871 -1.95157,4.35028 -4.35028,4.35028 h -16.28986 c -0.50853,0 -0.99457,0.20902 -1.34435,0.57811 l -3.60601,3.80497 v -2.53074 c 0,-1.02288 -0.8292,-1.85208 -1.85208,-1.85208 h -2.63234 c -2.39871,0 -4.35028,-1.95157 -4.35028,-4.35028 v -20.56527 c 0,-2.39871 1.95157,-4.35028 4.35028,-4.35028 h 25.72491 c 2.39844,0 4.35001,1.95157 4.35001,4.35028 z m -71.77537,-11.28025 h 25.29813 v 3.41286 c 0,0.50033 -0.4228,0.92287 -0.92286,0.92287 h -23.45214 c -0.50033,0 -0.92287,-0.4228 -0.92287,-0.92287 v -3.41286 z m -39.05964,76.48496 v -20.565 c 0,-2.39871 1.95156,-4.35028 4.35027,-4.35028 h 16.38724 c 0.7784,3.62982 4.01293,6.36005 7.87506,6.36005 h 5.81289 v 18.55523 c 0,2.39872 -1.95156,4.35028 -4.35028,4.35028 h -2.63234 c -1.02288,0 -1.85208,0.82921 -1.85208,1.85209 v 2.53074 l -3.60627,-3.80498 c -0.34978,-0.36909 -0.83582,-0.57811 -1.34435,-0.57811 h -16.28987 c -2.39871,5.3e-4 -4.35027,-1.95104 -4.35027,-4.35002 z m 28.61257,-22.25939 c -2.39872,0 -4.35028,-1.94813 -4.35028,-4.34287 v -20.57242 c 0,-2.39871 1.95156,-4.35028 4.35028,-4.35028 h 25.7249 c 2.39872,0 4.35028,1.95157 4.35028,4.35028 v 20.57242 c 0,2.39474 -1.95156,4.34287 -4.35028,4.34287 h -2.63233 c -1.02288,0 -1.85209,0.8292 -1.85209,1.85208 v 2.531 l -3.60627,-3.80497 c -0.34978,-0.36909 -0.83582,-0.57811 -1.34435,-0.57811 z m -8.76882,30.3141 6.25475,6.59924 c 0.35665,0.3765 0.84587,0.57812 1.34461,0.57812 0.23045,0 0.46302,-0.0429 0.68527,-0.1315 0.70432,-0.28099 1.16628,-0.96256 1.16628,-1.72059 v -5.32527 h 0.78026 c 4.44129,0 8.05444,-3.61315 8.05444,-8.05444 v -18.55523 h 5.97641 l 6.25475,6.5995 c 0.35666,0.3765 0.84588,0.57812 1.34462,0.57812 0.23045,0 0.46302,-0.0429 0.68527,-0.1315 0.70432,-0.28099 1.16628,-0.96256 1.16628,-1.72059 v -5.32527 h 0.78026 c 4.44129,0 8.05444,-3.60997 8.05444,-8.04703 v -20.57242 c 0,-4.44129 -3.61315,-8.05444 -8.05444,-8.05444 h -25.72438 c -4.4413,0 -8.05445,3.61315 -8.05445,8.05444 v 18.55523 h -1.49331 v -40.51564 c 0,-4.0529 3.29724,-7.3504 7.35039,-7.3504 h 8.94054 v 3.41286 c 0,2.55138 2.07565,4.62704 4.62703,4.62704 h 23.45214 c 2.55164,0 4.62703,-2.07566 4.62703,-4.62704 v -3.41286 h 8.94054 c 2.48602,0 4.73551,1.25201 6.07668,3.2258 h -2.31934 c -4.44129,0 -8.05444,3.61316 -8.05444,8.05445 v 20.56501 c 0,4.44129 3.61315,8.05444 8.05444,8.05444 h 0.78026 v 5.32527 c 0,0.75803 0.46196,1.4396 1.16628,1.72032 0.22252,0.0886 0.45509,0.13176 0.68528,0.13176 0.33787,0 0.67018,-0.0947 0.96096,-0.27119 v 62.30408 h -65.28779 v -24.57027 z m 68.21302,-3.82084 c 0.63553,-0.16246 1.28799,-0.24448 1.95051,-0.24448 4.34234,0 7.87532,3.53298 7.87532,7.87559 0,4.34234 -3.53298,7.87532 -7.87532,7.87532 -0.66252,0 -1.31498,-0.082 -1.95051,-0.24448 z m -11.05429,43.10617 h -50.58728 c -4.05289,0 -7.35039,-3.2975 -7.35039,-7.35039 v -3.66024 h 65.28779 v 3.66024 c 0,4.05289 -3.29724,7.35039 -7.35012,7.35039 z m 15.30799,-56.30306 0.69268,3.25146 c 0.127,0.59664 0.54002,1.09247 1.10411,1.32557 l 4.50003,1.86002 c 0.56304,0.23256 1.20465,0.17356 1.71609,-0.15822 l 2.78448,-1.80843 3.25649,3.25649 -1.80817,2.78474 c -0.33178,0.51144 -0.39105,1.15279 -0.15848,1.71609 l 1.85976,4.50003 c 0.23336,0.56409 0.72919,0.97684 1.32609,1.10411 l 3.2512,0.69241 v 4.60666 l -3.25147,0.69268 c -0.59637,0.127 -1.09193,0.53975 -1.3253,1.10305 l -1.85975,4.49236 c -0.23336,0.56356 -0.1741,1.2057 0.15795,1.71714 l 1.8087,2.78527 -3.25782,3.26258 -2.78368,-1.80764 c -0.51117,-0.33178 -1.15252,-0.39079 -1.71609,-0.15848 l -4.50003,1.85975 c -0.56383,0.2331 -0.97631,0.72867 -1.10384,1.3253 l -0.69242,3.24459 h -4.25423 v -9.40515 c 0.64108,0.10928 1.29249,0.16431 1.95051,0.16431 6.38492,0 11.57949,-5.19456 11.57949,-11.57949 0,-6.38519 -5.19457,-11.57975 -11.57949,-11.57975 -0.65802,0 -1.30943,0.055 -1.95051,0.16431 v -9.41256 h 4.2537 z m -69.12795,9.72 c 0.38444,0 0.76677,-0.1196 1.08903,-0.35375 0.55615,-0.40402 0.8427,-1.08321 0.74427,-1.76345 l -0.8218,-5.68219 4.00606,-4.11586 c 0.47943,-0.49265 0.64664,-1.20994 0.43445,-1.86372 -0.2122,-0.65379 -0.76888,-1.13639 -1.44622,-1.25307 l -5.65705,-0.97737 -2.67997,-5.08159 c -0.32041,-0.60775 -0.95117,-0.98822 -1.6383,-0.98822 -0.68712,0 -1.31762,0.38047 -1.6383,0.98822 l -2.67996,5.08159 -5.65706,0.97737 c -0.67733,0.11668 -1.23401,0.59954 -1.44621,1.25307 -0.2122,0.65378 -0.045,1.37107 0.43445,1.86372 l 4.00605,4.11586 -0.82179,5.68219 c -0.0984,0.68024 0.18812,1.35943 0.744,1.76345 0.55669,0.40402 1.29038,0.46752 1.90712,0.16298 l 5.1517,-2.53709 5.15171,2.53709 c 0.25902,0.12806 0.53895,0.19077 0.81782,0.19077 z m -2.78527,-8.17192 0.449,3.10488 -2.81543,-1.38642 c -0.25797,-0.127 -0.53816,-0.19076 -0.81836,-0.19076 -0.28019,0 -0.56038,0.0635 -0.81835,0.19076 l -2.81517,1.38616 0.449,-3.10462 c 0.0825,-0.56912 -0.10451,-1.14459 -0.50588,-1.55708 l -2.19102,-2.25107 3.09166,-0.53446 c 0.56621,-0.0976 1.05489,-0.4527 1.32291,-0.96097 l 1.46659,-2.7813 1.46659,2.7813 c 0.26802,0.50827 0.7567,0.86334 1.32291,0.96097 l 3.09192,0.53446 -2.19101,2.25107 c -0.40085,0.41249 -0.58764,0.98743 -0.50536,1.55708 z m 72.37439,-37.73197 c 0.26697,0.13785 0.55854,0.2069 0.85064,0.2069 0.2921,0 0.58393,-0.0691 0.85063,-0.2069 9.48373,-4.90273 10.54709,-10.17482 10.33701,-12.88097 -0.23151,-2.98212 -2.25637,-5.6097 -5.03899,-6.53839 -2.26113,-0.75538 -4.52517,-0.25532 -6.14839,1.33456 -1.62189,-1.58935 -3.88673,-2.08968 -6.14865,-1.33456 -2.78262,0.92869 -4.80748,3.55627 -5.03899,6.53839 -0.21034,2.70615 0.85328,7.97824 10.33674,12.88097 z m -6.64395,-12.59417 c 0.13626,-1.75233 1.36287,-2.92602 2.51883,-3.31179 0.22649,-0.0757 0.53393,-0.14869 0.87604,-0.14869 0.52149,0 1.12342,0.1696 1.64253,0.75777 l 1.06416,1.21443 c 0.35163,0.40138 0.85936,0.6313 1.39303,0.6313 0.53366,0 1.04113,-0.23019 1.39276,-0.6313 l 1.06257,-1.21205 c 0.86069,-0.9779 1.94919,-0.80275 2.52069,-0.61172 1.1557,0.38576 2.38257,1.55945 2.51883,3.31179 0.22437,2.88846 -2.49529,6.08489 -7.49459,8.84899 -4.99956,-2.76384 -7.71895,-5.96001 -7.49485,-8.84873 z m -43.64011,76.57333 c 0,-1.01997 0.83238,-1.85261 1.85261,-1.85261 1.02024,0 1.85262,0.83237 1.85262,1.85261 0,1.01997 -0.83238,1.85235 -1.85262,1.85235 -1.02023,0 -1.85261,-0.83238 -1.85261,-1.85235 z m 7.36494,0 c 0,-1.01997 0.83238,-1.85261 1.85262,-1.85261 1.01996,0 1.85261,0.83237 1.85261,1.85261 0,1.01997 -0.83238,1.85235 -1.85261,1.85235 -1.01997,2.6e-4 -1.85262,-0.83238 -1.85262,-1.85235 z m 7.37235,0 c 0,-1.01997 0.83238,-1.85261 1.85262,-1.85261 1.02023,0 1.85261,0.83237 1.85261,1.85261 0,1.01997 -0.83238,1.85235 -1.85261,1.85235 -1.02024,0 -1.85262,-0.83238 -1.85262,-1.85235 z m -6.98579,-46.66536 2.61011,-9.74407 c 0.20691,-0.77444 0.0455,-1.58671 -0.44238,-2.22859 -0.4908,-0.64584 -1.23878,-1.01626 -2.05184,-1.01626 h -5.48296 v -4.45532 c 0,-1.4224 -1.15729,-2.57969 -2.57969,-2.57969 h -0.31486 c -0.94535,0 -1.78726,0.49319 -2.25716,1.32848 l -2.91597,5.25515 c -0.254,-0.0815 -0.52387,-0.12647 -0.8046,-0.12647 h -3.34486 c -1.45547,0 -2.63975,1.18427 -2.63975,2.63975 v 9.74989 c 0,1.45548 1.18428,2.63949 2.63975,2.63949 h 3.34486 c 0.58949,0 1.13242,-0.19659 1.57216,-0.52441 l 1.26021,0.72655 c 0.28125,0.16219 0.60034,0.24765 0.92525,0.24765 h 7.9875 c 1.15438,5.3e-4 2.17779,-0.77814 2.49423,-1.91215 z m -15.3035,-2.24128 h -1.21576 v -7.62079 h 1.21576 z m 5.31786,0.44979 -1.61369,-0.93027 v -6.39049 l 2.52835,-4.55691 v 2.53232 c 0,1.02288 0.82921,1.85209 1.85209,1.85209 h 5.87137 l -2.00713,7.49326 z m 18.44119,71.45919 c 0,1.02288 -0.8292,1.85209 -1.85208,1.85209 h -10.26742 c -1.02288,0 -1.85208,-0.82921 -1.85208,-1.85209 0,-1.02288 0.8292,-1.85208 1.85208,-1.85208 h 10.26742 c 1.02288,0 1.85208,0.8292 1.85208,1.85208 z"
       id="path459"
       style="fill:#fefefe;fill-opacity:1;stroke-width:0.264583" /></g></svg>
