<svg id="Layer_1" enable-background="new 0 0 512 512" viewBox="0 0 512 512" xmlns="http://www.w3.org/2000/svg"><path d="m390.451 172.802h58.559c16.786 0 30.442-13.656 30.442-30.442v-77.726c0-16.786-13.656-30.442-30.442-30.442h-72.676c-6.309-15.66-21.54-26.192-38.753-26.192h-191.196c-23.038 0-41.781 18.743-41.781 41.781v153.128h-41.614c-16.786 0-30.442 13.656-30.442 30.442v77.726c0 16.786 13.656 30.442 30.442 30.442h41.614v120.699c0 23.038 18.743 41.781 41.781 41.781h191.196c23.038 0 41.78-18.743 41.78-41.781v-13.607h21.743c3.303 0 6.156-2.309 6.846-5.539l3.03-14.2 10.204-4.217 12.192 7.917c2.774 1.801 6.429 1.416 8.766-.925l20.324-20.353c2.334-2.337 2.717-5.988.918-8.759l-7.916-12.19 4.213-10.176 14.229-3.031c3.231-.688 5.541-3.543 5.541-6.847v-28.743c0-3.304-2.311-6.158-5.542-6.847l-14.227-3.03-4.217-10.202 7.918-12.193c1.8-2.772 1.416-6.426-.921-8.763l-20.324-20.324c-2.338-2.337-5.992-2.719-8.763-.921l-12.192 7.918-10.202-4.217-3.031-14.228c-.688-3.231-3.543-5.541-6.847-5.541h-21.743v-78.697zm75.001-108.168v77.726c0 9.066-7.376 16.442-16.442 16.442h-61.568c-1.922 0-3.759.79-5.081 2.185l-13.629 14.381v-9.565c0-3.866-3.134-7-7-7h-9.949c-9.066 0-16.442-7.376-16.442-16.442v-77.727c0-9.066 7.376-16.442 16.442-16.442h97.228c9.065 0 16.441 7.376 16.441 16.442zm-271.277-42.634h95.615v12.899c0 1.891-1.598 3.488-3.488 3.488h-88.638c-1.891 0-3.488-1.598-3.488-3.488v-12.899zm-147.627 289.077v-77.726c0-9.066 7.376-16.442 16.442-16.442h61.936c2.942 13.719 15.167 24.038 29.764 24.038h21.97v70.13c0 9.066-7.376 16.442-16.442 16.442h-9.949c-3.866 0-7 3.134-7 7v9.565l-13.63-14.381c-1.322-1.395-3.159-2.185-5.081-2.185h-61.568c-9.066.002-16.442-7.374-16.442-16.441zm108.142-84.13c-9.066 0-16.442-7.363-16.442-16.414v-77.754c0-9.066 7.376-16.442 16.442-16.442h97.228c9.066 0 16.442 7.376 16.442 16.442v77.754c0 9.051-7.376 16.414-16.442 16.414h-9.949c-3.866 0-7 3.134-7 7v9.566l-13.63-14.381c-1.322-1.395-3.159-2.185-5.081-2.185zm-33.142 114.573 23.64 24.942c1.348 1.423 3.197 2.185 5.082 2.185.871 0 1.75-.162 2.59-.497 2.662-1.062 4.408-3.638 4.408-6.503v-20.127h2.949c16.786 0 30.442-13.656 30.442-30.442v-70.13h22.588l23.64 24.943c1.348 1.423 3.197 2.185 5.082 2.185.871 0 1.75-.162 2.59-.497 2.662-1.062 4.408-3.638 4.408-6.503v-20.127h2.949c16.786 0 30.442-13.644 30.442-30.414v-77.754c0-16.786-13.656-30.442-30.442-30.442h-97.226c-16.786 0-30.442 13.656-30.442 30.442v70.13h-5.644v-153.13c0-15.318 12.462-27.781 27.781-27.781h33.791v12.899c0 9.643 7.845 17.488 17.488 17.488h88.638c9.644 0 17.488-7.845 17.488-17.488v-12.899h33.791c9.396 0 17.898 4.732 22.967 12.192h-8.766c-16.786 0-30.442 13.656-30.442 30.442v77.726c0 16.786 13.656 30.442 30.442 30.442h2.949v20.127c0 2.865 1.746 5.441 4.408 6.502.841.335 1.72.498 2.59.498 1.277 0 2.533-.358 3.632-1.025v235.48h-246.757v-92.864zm257.813-14.441c2.402-.614 4.868-.924 7.372-.924 16.412 0 29.765 13.353 29.765 29.766 0 16.412-13.353 29.765-29.765 29.765-2.504 0-4.97-.31-7.372-.924zm-41.78 162.921h-191.196c-15.318 0-27.781-12.463-27.781-27.781v-13.834h246.757v13.834c0 15.318-12.462 27.781-27.78 27.781zm57.857-212.799 2.618 12.289c.48 2.255 2.041 4.129 4.173 5.01l17.008 7.03c2.128.879 4.553.656 6.486-.598l10.524-6.835 12.308 12.308-6.834 10.525c-1.254 1.933-1.478 4.357-.599 6.486l7.029 17.008c.882 2.132 2.756 3.692 5.012 4.173l12.288 2.617v17.411l-12.289 2.618c-2.254.48-4.127 2.04-5.009 4.169l-7.029 16.979c-.882 2.13-.658 4.557.597 6.49l6.836 10.527-12.313 12.331-10.521-6.832c-1.932-1.254-4.356-1.477-6.486-.599l-17.008 7.029c-2.131.881-3.69 2.754-4.172 5.009l-2.617 12.263h-16.079v-35.547c2.423.413 4.885.621 7.372.621 24.132 0 43.765-19.633 43.765-43.765 0-24.133-19.633-43.766-43.765-43.766-2.487 0-4.949.208-7.372.621v-35.575h16.077zm-261.271 36.737c1.453 0 2.898-.452 4.116-1.337 2.102-1.527 3.185-4.094 2.813-6.665l-3.106-21.476 15.141-15.556c1.812-1.862 2.444-4.573 1.642-7.044s-2.906-4.295-5.466-4.736l-21.381-3.694-10.129-19.206c-1.211-2.297-3.595-3.735-6.192-3.735s-4.98 1.438-6.192 3.735l-10.129 19.206-21.381 3.694c-2.56.441-4.664 2.266-5.466 4.736-.802 2.471-.17 5.182 1.642 7.044l15.141 15.556-3.106 21.476c-.372 2.571.711 5.138 2.812 6.665 2.104 1.527 4.877 1.767 7.208.616l19.471-9.589 19.471 9.589c.979.484 2.037.721 3.091.721zm-10.527-30.886 1.697 11.735-10.641-5.24c-.975-.48-2.034-.721-3.093-.721s-2.118.24-3.093.721l-10.64 5.239 1.697-11.734c.312-2.151-.395-4.326-1.912-5.885l-8.281-8.508 11.685-2.02c2.14-.369 3.987-1.711 5-3.632l5.543-10.512 5.543 10.512c1.013 1.921 2.86 3.263 5 3.632l11.686 2.02-8.281 8.508c-1.515 1.559-2.221 3.732-1.91 5.885zm273.541-142.609c1.009.521 2.111.782 3.215.782s2.207-.261 3.215-.782c35.844-18.53 39.863-38.456 39.069-48.684-.875-11.271-8.528-21.202-19.045-24.712-8.546-2.855-17.103-.965-23.238 5.044-6.13-6.007-14.69-7.898-23.239-5.044-10.517 3.51-18.17 13.441-19.045 24.712-.795 10.228 3.225 30.154 39.068 48.684zm-25.111-47.6c.515-6.623 5.151-11.059 9.52-12.517.856-.286 2.018-.562 3.311-.562 1.971 0 4.246.641 6.208 2.864l4.022 4.59c1.329 1.517 3.248 2.386 5.265 2.386s3.935-.87 5.264-2.386l4.016-4.581c3.253-3.696 7.367-3.034 9.527-2.312 4.368 1.458 9.005 5.894 9.52 12.517.848 10.917-9.431 22.998-28.326 33.445-18.896-10.446-29.174-22.526-28.327-33.444zm-164.939 289.411c0-3.855 3.146-7.002 7.002-7.002s7.002 3.146 7.002 7.002c0 3.855-3.146 7.001-7.002 7.001s-7.002-3.146-7.002-7.001zm27.836 0c0-3.855 3.146-7.002 7.002-7.002 3.855 0 7.002 3.146 7.002 7.002 0 3.855-3.146 7.001-7.002 7.001-3.855.001-7.002-3.146-7.002-7.001zm27.864 0c0-3.855 3.146-7.002 7.002-7.002s7.002 3.146 7.002 7.002c0 3.855-3.146 7.001-7.002 7.001s-7.002-3.146-7.002-7.001zm-26.403-176.373 9.865-36.828c.782-2.927.172-5.997-1.672-8.423-1.855-2.441-4.682-3.841-7.755-3.841h-20.723v-16.839c0-5.376-4.374-9.75-9.75-9.75h-1.19c-3.573 0-6.755 1.864-8.531 5.021l-11.021 19.862c-.96-.308-1.98-.478-3.041-.478h-12.642c-5.501 0-9.977 4.476-9.977 9.977v36.85c0 5.501 4.476 9.976 9.977 9.976h12.642c2.228 0 4.28-.743 5.942-1.982l4.763 2.746c1.063.613 2.269.936 3.497.936h30.189c4.363.002 8.231-2.941 9.427-7.227zm-57.84-8.471h-4.595v-28.803h4.595zm20.099 1.7-6.099-3.516v-24.153l9.556-17.223v9.571c0 3.866 3.134 7 7 7h22.191l-7.586 28.321zm69.699 270.082c0 3.866-3.134 7-7 7h-38.806c-3.866 0-7-3.134-7-7s3.134-7 7-7h38.806c3.866 0 7 3.134 7 7z"/></svg>