<svg id="Capa_1" enable-background="new 0 0 480.08 480.08" height="512" viewBox="0 0 480.08 480.08" width="512" xmlns="http://www.w3.org/2000/svg"><g><g id="syllabus_1_"><path d="m431.64 352.928-83.6-41.84v-255.04c0-4.418-3.582-8-8-8h-64v-8c0-4.418-3.582-8-8-8h-32.8c-4.396-21.65-25.51-35.636-47.16-31.24-15.741 3.196-28.044 15.499-31.24 31.24h-32.8c-4.418 0-8 3.582-8 8v8h-64c-4.418 0-8 3.582-8 8v368c0 4.418 3.582 8 8 8h216v8c-.011 2.869 1.515 5.525 4 6.96l56 32c2.475 1.429 5.525 1.429 8 0l56-32c2.485-1.435 4.011-4.091 4-6.96v-55.04l24-12v99.04c0 4.418 3.582 8 8 8s8-3.582 8-8v-112c-.009-3.013-1.71-5.764-4.4-7.12zm-299.6-304.88h32c4.418 0 8-3.582 8-8 0-13.255 10.745-24 24-24s24 10.745 24 24c0 4.418 3.582 8 8 8h32v24h-128zm-72 368v-352h56v16c0 4.418 3.582 8 8 8h144c4.418 0 8-3.582 8-8v-16h56v240c-1.252.008-2.485.309-3.6.88l-96 48c-3.932 2.015-5.487 6.835-3.472 10.768.765 1.493 1.979 2.707 3.472 3.472l35.6 17.84v31.04zm320 19.36-48 27.44-48-27.44v-42.4l44.4 22.16c2.264 1.141 4.936 1.141 7.2 0l44.4-22.16zm-48-36.32-78.08-39.04 78.08-39.04 78.08 39.04z"/><path d="m148.04 144.048h136c4.418 0 8-3.582 8-8s-3.582-8-8-8h-136c-4.418 0-8 3.582-8 8s3.582 8 8 8z"/><path d="m284.04 240.048h-136c-4.418 0-8 3.582-8 8s3.582 8 8 8h136c4.418 0 8-3.582 8-8s-3.582-8-8-8z"/><path d="m108.04 200.048h176c4.418 0 8-3.582 8-8s-3.582-8-8-8h-176c-4.418 0-8 3.582-8 8s3.582 8 8 8z"/><path d="m252.04 304.048c0-4.418-3.582-8-8-8h-136c-4.418 0-8 3.582-8 8s3.582 8 8 8h136c4.418 0 8-3.582 8-8z"/></g></g></svg>