<?xml version="1.0" encoding="UTF-8" standalone="no"?>
<!-- Created with Inkscape (http://www.inkscape.org/) -->

<svg
   width="131.23334mm"
   height="119.74302mm"
   viewBox="0 0 131.23334 119.74302"
   version="1.1"
   id="svg28"
   xml:space="preserve"
   xmlns:inkscape="http://www.inkscape.org/namespaces/inkscape"
   xmlns:sodipodi="http://sodipodi.sourceforge.net/DTD/sodipodi-0.dtd"
   xmlns="http://www.w3.org/2000/svg"
   xmlns:svg="http://www.w3.org/2000/svg"><sodipodi:namedview
     id="namedview30"
     pagecolor="#ffffff"
     bordercolor="#000000"
     borderopacity="0.25"
     inkscape:showpageshadow="2"
     inkscape:pageopacity="0.0"
     inkscape:pagecheckerboard="0"
     inkscape:deskcolor="#d1d1d1"
     inkscape:document-units="mm"
     showgrid="false" /><defs
     id="defs25" /><g
     inkscape:label="Layer 1"
     inkscape:groupmode="layer"
     id="layer1"
     transform="translate(533.39113,141.76265)"><path
       d="m -413.79288,-133.5984 h -107.96323 c -1.91373,0 -3.4708,1.55707 -3.4708,3.4708 v 60.728764 c 0,1.16893 0.94773,2.11666 2.11666,2.11666 h 110.67152 c 1.16892,0 2.11666,-0.94773 2.11666,-2.11666 V -130.1276 c 0,-1.91373 -1.55707,-3.4708 -3.47081,-3.4708 z m -0.76253,62.082894 h -106.43817 v -57.849564 h 106.43817 z m 0.51752,-70.247144 h -107.47348 c -6.55056,0 -11.87979,5.32924 -11.87979,11.87979 v 67.166604 c 0,6.55055 5.32923,11.88005 11.87979,11.88005 h 31.66295 v 11.2784 h -12.74445 c -5.75813,0 -10.44257,3.93382 -10.44257,8.76908 v 6.65242 c 0,1.16893 0.94773,2.11667 2.11666,2.11667 h 86.2883 c 1.16893,0 2.11667,-0.94774 2.11667,-2.11667 v -6.65242 c 0,-4.83526 -4.68472,-8.76908 -10.44258,-8.76908 h -12.74445 v -11.27813 h 31.66295 c 6.55057,0 11.88007,-5.3295 11.88007,-11.88006 v -67.166594 c 0,-6.55082 -5.3295,-11.88006 -11.88007,-11.88006 z m -12.70926,110.973924 v 4.53575 h -82.05496 v -4.53575 c 0,-2.45851 2.84348,-4.53575 6.20924,-4.53575 h 69.63648 c 3.36577,0 6.20924,2.07698 6.20924,4.53575 z m -23.18702,-8.76908 h -35.68092 v -11.27813 h 35.68092 z m 43.54302,-23.15819 c 0,4.2164 -3.43033,7.64673 -7.64674,7.64673 h -107.47348 c -4.2164,0 -7.64646,-3.43033 -7.64646,-7.64673 v -67.166594 c 0,-4.2164 3.43032,-7.64646 7.64646,-7.64646 h 107.47348 c 4.21641,0 7.64674,3.43032 7.64674,7.64646 z m -105.17824,-32.8086 4.77705,0.76465 c 0.22887,0.66305 0.49769,1.31154 0.8054,1.94257 l -2.83792,3.91901 c -0.60987,0.84243 -0.51753,2.0029 0.21775,2.73817 l 3.99626,3.99627 c 0.73528,0.73528 1.89574,0.82762 2.73791,0.21775 l 3.91928,-2.83765 c 0.63103,0.30797 1.27978,0.57705 1.94257,0.80565 l 0.76464,4.77652 c 0.16431,1.02685 1.05013,1.78224 2.08995,1.78224 h 5.65123 c 1.03981,0 1.92564,-0.75539 2.08994,-1.78197 l 0.76465,-4.77705 c 0.66305,-0.22887 1.3118,-0.49768 1.94257,-0.80539 l 3.91927,2.83765 c 0.84191,0.6096 2.00264,0.51753 2.73791,-0.21775 l 3.99627,-3.99627 c 0.73528,-0.73527 0.82762,-1.89574 0.21775,-2.73817 l -2.83765,-3.91901 c 0.30797,-0.63129 0.57705,-1.28005 0.80565,-1.9431 l 4.77652,-0.76464 c 1.02659,-0.16431 1.78197,-1.05014 1.78197,-2.08995 v -5.651234 c 0,-1.03982 -0.75538,-1.92564 -1.78197,-2.08995 l -4.77705,-0.76464 c -0.22886,-0.66278 -0.49794,-1.31154 -0.80565,-1.94257 l 2.83792,-3.91901 c 0.60986,-0.84244 0.51752,-2.0029 -0.21776,-2.73818 l -3.99626,-3.99626 c -0.73528,-0.73528 -1.89574,-0.82735 -2.73791,-0.21775 l -3.91901,2.83765 c -0.63129,-0.30797 -1.28005,-0.57705 -1.94283,-0.80565 l -0.76465,-4.77653 c -0.16431,-1.02658 -1.05013,-1.78197 -2.08994,-1.78197 h -5.65124 c -1.03981,0 -1.92564,0.75539 -2.08994,1.78224 l -0.76465,4.77652 c -0.66304,0.22887 -1.3118,0.49768 -1.94283,0.80566 l -3.91901,-2.83766 c -0.84244,-0.60986 -2.00263,-0.51779 -2.73791,0.21775 l -3.99627,3.99627 c -0.73527,0.73528 -0.82761,1.89574 -0.21775,2.73817 l 2.83792,3.91901 c -0.30797,0.63103 -0.57679,1.27953 -0.80539,1.94257 l -4.77705,0.76465 c -1.02659,0.1643 -1.78197,1.05013 -1.78197,2.08994 v 5.651244 c 0,1.04007 0.75538,1.9259 1.78223,2.0902 z m 2.4511,-5.936454 4.30451,-0.68898 c 0.83264,-0.13335 1.50707,-0.7485 1.71609,-1.56554 0.3085,-1.20544 0.7874,-2.36087 1.42398,-3.43429 0.43022,-0.72575 0.38868,-1.63777 -0.10609,-2.32119 l -2.55747,-3.53218 1.44383,-1.44384 3.53193,2.55747 c 0.68342,0.4945 1.59517,0.53631 2.32092,0.10609 1.07421,-0.63711 2.22965,-1.11601 3.43456,-1.42425 0.8173,-0.20902 1.43245,-0.88318 1.5658,-1.71609 l 0.68898,-4.30397 h 2.04179 l 0.68897,4.30397 c 0.13335,0.83291 0.74877,1.50734 1.56581,1.71609 1.20412,0.30771 2.35929,0.78687 3.43402,1.42425 0.72576,0.43022 1.63777,0.38868 2.32093,-0.10609 l 3.53219,-2.55747 1.44383,1.44384 -2.55773,3.53218 c -0.49477,0.68342 -0.53631,1.59544 -0.1061,2.32093 0.63659,1.07341 1.11575,2.22911 1.42425,3.43455 0.20903,0.81704 0.88318,1.43193 1.71583,1.56528 l 4.30424,0.68897 v 2.041794 l -4.30398,0.68898 c -0.83291,0.13335 -1.50706,0.7485 -1.71609,1.56554 -0.30824,1.20491 -0.7874,2.36035 -1.42451,3.43429 -0.43021,0.72575 -0.38868,1.63777 0.1061,2.32119 l 2.55746,3.53192 -1.44383,1.44383 -3.53219,-2.55746 c -0.68342,-0.49477 -1.59544,-0.53657 -2.32093,-0.1061 -1.07315,0.63633 -2.22885,1.11549 -3.43455,1.42399 -0.81704,0.20929 -1.43219,0.88318 -1.56554,1.71609 l -0.68898,4.3045 h -2.04179 l -0.68897,-4.30397 c -0.13335,-0.83291 -0.74851,-1.50707 -1.56554,-1.71609 -1.20465,-0.30824 -2.36008,-0.7874 -3.43429,-1.42425 -0.72549,-0.43048 -1.63751,-0.38868 -2.32093,0.1061 l -3.53218,2.55746 -1.44384,-1.44383 2.55747,-3.53219 c 0.49477,-0.68342 0.53631,-1.59544 0.10609,-2.32093 -0.63658,-1.07341 -1.11548,-2.22885 -1.42398,-3.43455 -0.20902,-0.81704 -0.88318,-1.43219 -1.71609,-1.56554 l -4.30451,-0.68898 v -2.041524 z m 18.78806,11.487684 c 5.77136,0 10.46692,-4.69556 10.46692,-10.466924 0,-5.77136 -4.69556,-10.46692 -10.46692,-10.46692 -5.77135,0 -10.46691,4.69556 -10.46691,10.46692 -2.7e-4,5.771624 4.69529,10.466924 10.46691,10.466924 z m 0,-16.700504 c 3.43721,0 6.23359,2.79638 6.23359,6.23358 0,3.437204 -2.79638,6.233584 -6.23359,6.233584 -3.4372,0 -6.23358,-2.79638 -6.23358,-6.233584 -2.6e-4,-3.4372 2.79612,-6.23358 6.23358,-6.23358 z m 40.41643,19.296324 c 1.17793,1.17793 2.744,1.82642 4.40955,1.82642 1.66582,0 3.23188,-0.64875 4.40981,-1.82642 4.50215,-4.50188 6.82836,-6.88313 9.52182,-9.64062 2.05423,-2.10291 4.17857,-4.277524 7.56444,-7.696994 1.17237,-1.17899 1.81531,-2.744 1.81081,-4.40664 -0.005,-1.6629 -0.65643,-3.22421 -1.83542,-4.39631 -2.43363,-2.42015 -6.3828,-2.40983 -8.80983,0.031 l -12.67883,12.8635 -4.37621,-4.3762 c -1.17792,-1.17793 -2.74399,-1.82642 -4.40954,-1.82642 -1.66582,0 -3.23189,0.64876 -4.40955,1.82642 -1.17793,1.17792 -1.82668,2.74399 -1.82668,4.40981 0,1.665814 0.64875,3.231884 1.82668,4.409544 z m -5.80945,-14.629074 c 0.37809,-0.37836 0.88106,-0.58658 1.41605,-0.58658 0.53498,0 1.03796,0.20822 1.41631,0.58658 l 5.88381,5.883804 c 0.39687,0.39688 0.9353,0.61992 1.49674,0.61992 h 0.008 c 0.56409,-0.002 1.10384,-0.22913 1.49993,-0.63077 l 14.16867,-14.375074 c 0.77443,-0.77841 2.03782,-0.78238 2.81675,-0.008 0.37703,0.37491 0.58553,0.87444 0.58711,1.40626 0.001,0.53207 -0.20425,1.03267 -0.58261,1.41314 -3.3991,3.43297 -5.62425,5.71076 -7.58772,7.720804 -2.6842,2.7477 -5.00247,5.12075 -9.4869,9.60517 -0.37835,0.37836 -0.88132,0.58658 -1.41631,0.58658 -0.53499,0 -1.03796,-0.20822 -1.41632,-0.58658 l -8.80295,-8.80292 c -0.37835,-0.37809 -0.58658,-0.881074 -0.58658,-1.416054 -5.3e-4,-0.53526 0.20796,-1.03823 0.58632,-1.41658 z"
       id="path573"
       style="fill:#fefefe;fill-opacity:1;stroke-width:0.264583" /></g></svg>
