<?xml version="1.0" encoding="UTF-8" standalone="no"?>
<!-- Created with Inkscape (http://www.inkscape.org/) -->

<svg
   width="122.53967mm"
   height="135.46632mm"
   viewBox="0 0 122.53967 135.46632"
   version="1.1"
   id="svg28"
   xml:space="preserve"
   xmlns:inkscape="http://www.inkscape.org/namespaces/inkscape"
   xmlns:sodipodi="http://sodipodi.sourceforge.net/DTD/sodipodi-0.dtd"
   xmlns="http://www.w3.org/2000/svg"
   xmlns:svg="http://www.w3.org/2000/svg"><sodipodi:namedview
     id="namedview30"
     pagecolor="#ffffff"
     bordercolor="#000000"
     borderopacity="0.25"
     inkscape:showpageshadow="2"
     inkscape:pageopacity="0.0"
     inkscape:pagecheckerboard="0"
     inkscape:deskcolor="#d1d1d1"
     inkscape:document-units="mm"
     showgrid="false" /><defs
     id="defs25" /><g
     inkscape:label="Layer 1"
     inkscape:groupmode="layer"
     id="layer1"
     transform="translate(981.77584,201.55728)"><g
       id="g585"
       transform="matrix(0.26457817,0,0,0.26457817,-988.23949,-201.55736)"
       style="fill:#fefefe;fill-opacity:1"><path
         d="m 447.183,66.584 h -6.075 C 452.688,47.731 448.412,22.42 429.827,8.631 409.802,-6.225 381.345,-1.443 367.37,19.441 L 335.824,66.585 H 64.827 c -22.275,0 -40.397,18.122 -40.397,40.397 v 258.274 c 0,22.275 18.122,40.397 40.397,40.397 h 156.914 l -11.856,49.797 h -25.589 c -16.677,0 -30.245,13.567 -30.245,30.244 v 6.315 h -31.545 c -5.523,0 -10,4.478 -10,10 0,5.522 4.477,10 10,10 h 266.999 c 5.523,0 10,-4.478 10,-10 0,-5.522 -4.477,-10 -10,-10 H 357.96 v -6.315 c 0,-16.677 -13.568,-30.244 -30.245,-30.244 H 302.126 L 290.27,405.653 h 156.914 c 22.275,0 40.397,-18.122 40.397,-40.397 v -56.83 -201.445 c 0,-22.275 -18.122,-40.397 -40.398,-40.397 z M 303.901,242.383 c -15.635,10.945 -44.926,-3.932 -72.898,10.994 -6.825,-35.455 -2.522,-68.8 33.003,-76.16 4.591,-0.957 9.534,-1.39 13.742,-1.306 12.024,8.921 24.186,17.944 36.176,26.841 5.249,15.268 3.279,30.32 -10.023,39.631 z m 10.078,-107.188 28.307,21.002 -21.769,26.541 c -8.962,-6.649 -16.666,-12.365 -25.628,-19.015 1.861,-2.781 17.389,-25.987 19.09,-28.528 z M 383.993,30.564 c 7.574,-11.321 23.021,-13.955 33.917,-5.87 10.9,8.086 12.852,23.632 4.215,34.163 -15.325,18.683 -51.759,63.104 -67.142,81.859 l -29.87,-22.162 z m -46.034,455.13 v 6.315 H 174.051 v -6.315 c 0,-5.648 4.596,-10.244 10.245,-10.244 h 143.418 c 5.649,0 10.245,4.596 10.245,10.244 z M 281.566,455.45 H 230.444 L 242.3,405.653 h 27.41 z m 186.015,-90.194 c 0,11.247 -9.15,20.397 -20.397,20.397 -15.874,0 -364.508,0 -382.356,0 -11.247,0 -20.397,-9.15 -20.397,-20.397 v -46.83 h 28.576 c 5.523,0 10,-4.478 10,-10 0,-5.522 -4.477,-10 -10,-10 H 44.429 V 106.981 c 0,-11.247 9.15,-20.397 20.397,-20.397 h 257.615 c -9.58,14.317 -37.529,56.085 -46.382,69.314 -19.597,0.177 -39.162,7.004 -51.97,21.956 -17.429,20.345 -20.491,52.313 -9.101,95.015 1.947,7.302 11.058,9.918 16.571,4.652 25.857,-24.707 58.061,2.243 86.9,-21.099 17.604,-14.25 21.77,-36.904 15.132,-58.088 8.973,-10.94 82.664,-100.784 91.658,-111.75 h 21.933 c 11.247,0 20.397,9.15 20.397,20.397 V 298.425 H 153.005 c -5.523,0 -10,4.478 -10,10 0,5.522 4.477,10 10,10 h 314.576 z"
         id="path581"
         style="fill:#fefefe;fill-opacity:1" /><path
         d="m 111.075,298.619 c -4.814,0.984 -8.04,5.145 -8.04,9.811 0,6.255 5.719,11.045 11.95,9.8 5.537,-1.124 8.91,-6.46 7.85,-11.76 -1.113,-5.47 -6.419,-8.926 -11.76,-7.851 z"
         id="path583"
         style="fill:#fefefe;fill-opacity:1" /></g></g></svg>
