<svg width="146" height="168" viewBox="0 0 146 168" fill="none" xmlns="http://www.w3.org/2000/svg">
<path d="M113.131 23.9552C136.17 22.0357 139.472 88.9865 109.061 129.065C74.8875 174.134 12.5304 181.197 1.5488 141.58C-9.43281 101.962 40.7908 105.033 63.7523 86.376C86.7907 67.7189 92.7806 25.6443 113.131 23.9552Z" fill="#EAEAF2"/>
<path d="M142.083 135.054H3.77582C3.54543 135.054 3.39185 134.9 3.39185 134.67C3.39185 134.439 3.54543 134.286 3.77582 134.286H142.083C143.695 134.286 145.078 132.981 145.078 131.291V19.3486C145.078 17.7362 143.772 16.3542 142.083 16.3542H3.77582C3.54543 16.3542 3.39185 16.2007 3.39185 15.9703C3.39185 15.74 3.54543 15.5864 3.77582 15.5864H142.083C144.156 15.5864 145.846 17.2755 145.846 19.3486V131.291C145.846 133.364 144.156 135.054 142.083 135.054Z" fill="#FAD6AA"/>
<path d="M135.094 81.7695H86.2532C85.0244 81.7695 84.0261 80.7714 84.0261 79.543V30.7119C84.0261 29.4835 85.0244 28.4854 86.2532 28.4854H135.094C136.323 28.4854 137.321 29.4835 137.321 30.7119V79.543C137.321 80.7714 136.323 81.7695 135.094 81.7695ZM86.2532 29.3299C85.4852 29.3299 84.7941 30.0209 84.7941 30.7887V79.6197C84.7941 80.3875 85.4852 81.0785 86.2532 81.0785H135.094C135.862 81.0785 136.554 80.3875 136.554 79.6197V30.7887C136.554 30.0209 135.862 29.3299 135.094 29.3299H86.2532V29.3299Z" fill="#FAD6AA"/>
<path d="M140.777 131.214H133.789C133.098 131.214 132.483 130.599 132.483 129.908V122.921C132.483 122.23 133.098 121.616 133.789 121.616H140.777C141.468 121.616 142.083 122.23 142.083 122.921V129.908C142.083 130.676 141.468 131.214 140.777 131.214ZM133.789 122.384C133.482 122.384 133.251 122.614 133.251 122.921V129.908C133.251 130.215 133.482 130.446 133.789 130.446H140.777C141.084 130.446 141.315 130.215 141.315 129.908V122.921C141.315 122.614 141.084 122.384 140.777 122.384H133.789Z" fill="#FAD6AA"/>
<path d="M12.0698 150.639C11.8394 150.639 11.6858 150.486 11.6858 150.255V0.383892C11.6858 0.153557 11.8394 0 12.0698 0C12.3002 0 12.4537 0.153557 12.4537 0.383892V150.255C12.4537 150.486 12.3002 150.639 12.0698 150.639Z" fill="#FAD6AA"/>
<path d="M70.1261 60.1179H17.1379C16.2163 60.1179 15.3716 59.3501 15.3716 58.352V19.2718C15.3716 18.3504 16.1395 17.5059 17.1379 17.5059H70.1261C71.0476 17.5059 71.8923 18.2736 71.8923 19.2718V58.352C71.8155 59.3501 71.0476 60.1179 70.1261 60.1179ZM17.0611 18.3504C16.5235 18.3504 16.0627 18.8111 16.0627 19.3485V58.4287C16.0627 58.9662 16.5235 59.4268 17.0611 59.4268H70.0493C70.5868 59.4268 71.0476 58.9662 71.0476 58.4287V19.3485C71.0476 18.8111 70.5868 18.3504 70.0493 18.3504H17.0611V18.3504Z" fill="#FAD6AA"/>
<path d="M87.6355 33.9363C86.714 33.9363 85.946 33.1686 85.946 32.2472C85.946 31.3259 86.714 30.5581 87.6355 30.5581C88.5571 30.5581 89.325 31.3259 89.325 32.2472C89.2482 33.1686 88.5571 33.9363 87.6355 33.9363ZM87.6355 31.3259C87.098 31.3259 86.714 31.7098 86.714 32.2472C86.714 32.7847 87.098 33.1685 87.6355 33.1685C88.1731 33.1685 88.5571 32.7847 88.5571 32.2472C88.5571 31.7098 88.0963 31.3259 87.6355 31.3259Z" fill="#FAD6AA"/>
<path d="M18.1365 21.8819C17.2917 21.8819 16.6006 21.1909 16.6006 20.3464C16.6006 19.5018 17.2917 18.8108 18.1365 18.8108C18.9812 18.8108 19.6724 19.5018 19.6724 20.3464C19.6724 21.1909 18.9812 21.8819 18.1365 21.8819ZM18.1365 19.5018C17.6757 19.5018 17.3685 19.8857 17.3685 20.2696C17.3685 20.7303 17.7525 21.0374 18.1365 21.0374C18.5972 21.0374 18.9044 20.6535 18.9044 20.2696C18.9044 19.8857 18.5972 19.5018 18.1365 19.5018Z" fill="#FAD6AA"/>
<path d="M134.173 124.458C133.635 124.458 133.175 123.997 133.175 123.46C133.175 122.922 133.635 122.461 134.173 122.461C134.71 122.461 135.171 122.922 135.171 123.46C135.171 123.997 134.71 124.458 134.173 124.458ZM134.173 123.152C134.019 123.152 133.943 123.306 133.943 123.383C133.943 123.536 134.096 123.613 134.173 123.613C134.25 123.613 134.403 123.46 134.403 123.383C134.403 123.306 134.326 123.152 134.173 123.152Z" fill="#FAD6AA"/>
<path d="M110.674 99.9651C111.672 99.9651 112.671 100.119 113.592 100.503L115.205 96.1262C113.822 95.5887 112.287 95.3584 110.674 95.3584C104.991 95.3584 100.076 98.967 98.2332 104.034L102.61 105.647C103.839 102.268 106.988 99.9651 110.674 99.9651Z" fill="#578CFF"/>
<path d="M102.073 108.565C102.073 107.49 102.226 106.568 102.61 105.647L98.233 104.035C97.6955 105.417 97.4651 106.952 97.4651 108.565C97.4651 113.478 100.153 117.778 104.146 120.081L106.45 116.089C103.839 114.553 102.073 111.789 102.073 108.565Z" fill="#FAFBFC"/>
<path d="M118.2 112.864C116.74 115.475 113.899 117.164 110.75 117.164C109.215 117.164 107.755 116.78 106.527 116.012L104.223 120.005C106.143 121.08 108.37 121.694 110.75 121.694C115.665 121.694 119.966 119.007 122.193 115.091L118.2 112.864Z" fill="#9CD6FF"/>
<path d="M122.193 101.962L118.2 104.265C118.891 105.494 119.352 106.952 119.352 108.565C119.352 110.1 118.968 111.636 118.2 112.864L122.193 115.168C123.345 113.248 123.959 110.945 123.959 108.565C123.959 106.185 123.345 103.958 122.193 101.962Z" fill="#FD9B78"/>
<path d="M118.2 104.264L122.193 101.961C120.657 99.2735 118.2 97.1237 115.205 96.0488L113.592 100.425C115.589 101.116 117.201 102.498 118.2 104.264Z" fill="#FAFBFC"/>
<path d="M36.0297 48.064H27.5823V53.8223H36.0297V48.064Z" fill="#578CFF"/>
<path d="M36.0297 44.5315H27.5823V47.3723H36.0297V44.5315Z" fill="#FD9B78"/>
<path d="M36.0297 39.3103H27.5823V43.7634H36.0297V39.3103Z" fill="#9CD6FF"/>
<path d="M47.8556 44.5315H39.4082V53.8217H47.8556V44.5315Z" fill="#578CFF"/>
<path d="M47.8556 42.1506H39.4082V43.8398H47.8556V42.1506Z" fill="#FD9B78"/>
<path d="M47.8556 29.1758H39.4082V41.4603H47.8556V29.1758Z" fill="#9CD6FF"/>
<path d="M59.6823 48.6768H51.2349V53.7441H59.6823V48.6768Z" fill="#578CFF"/>
<path d="M59.6823 43.0732H51.2349V48.1406H59.6823V43.0732Z" fill="#FD9B78"/>
<path d="M59.6823 31.4792H51.2349V42.3818H59.6823V31.4792Z" fill="#9CD6FF"/>
<path d="M93.4717 43.3804L100.153 47.2193C105.989 43.8411 115.435 43.8411 121.271 47.2193C127.108 50.5976 127.108 56.0488 121.271 59.4271L127.952 63.266C137.475 57.738 137.475 48.8317 127.952 43.3804C118.43 37.8524 102.994 37.8524 93.4717 43.3804Z" fill="#FD9B78"/>
<path d="M121.271 59.4275L127.953 63.2664V67.4124L121.271 63.5735V59.4275Z" fill="#FD8D65"/>
<path d="M93.4717 43.3799V47.5259L100.153 51.3648V47.2188L93.4717 43.3799Z" fill="#FD7E51"/>
<path d="M121.272 47.22C115.435 43.8417 105.989 43.8417 100.153 47.22V51.366C105.989 47.9877 115.435 47.9877 121.272 51.366C123.268 52.5177 124.574 53.8997 125.188 55.3585C126.417 52.5945 125.111 49.4465 121.272 47.22Z" fill="#FD8D65"/>
<path d="M135.095 53.3611C135.095 56.9697 132.714 60.5015 127.953 63.2655V67.4115C132.791 64.6475 135.171 60.9621 135.095 57.3536V53.3611Z" fill="#D9D9E0"/>
<path d="M135.095 53.3611C135.095 56.9697 132.714 60.5015 127.953 63.2655V67.4115C132.791 64.6475 135.171 60.9621 135.095 57.3536V53.3611Z" fill="#FD7E51"/>
<path d="M100.153 48.6011L93.4716 44.7622C87.0977 48.4476 85.0242 53.6685 87.1745 58.352L96.313 56.97C94.9307 54.0524 96.2362 50.8277 100.153 48.6011Z" fill="#FAFBFC"/>
<path d="M96.1594 56.9695L87.1744 58.3515C86.7137 57.3534 86.4833 56.3553 86.4065 55.3572C86.4065 55.2036 86.4065 55.05 86.4065 54.8965V58.8122C86.4065 60.1174 86.6369 61.3459 87.2512 62.5743L96.3898 61.1923C95.6218 59.7335 95.6218 58.2747 96.1594 56.9695Z" fill="#E3E3EB"/>
<path d="M97.1579 51.0586C97.0043 51.2889 96.8508 51.4425 96.6972 51.6728C96.6972 51.7496 96.6204 51.7496 96.6204 51.8264C96.4668 52.1335 96.3132 52.4406 96.1596 52.7477C96.1596 52.8245 96.1596 52.8245 96.0828 52.9013C95.9292 53.2084 95.8524 53.5155 95.8524 53.8226C95.8524 53.8994 95.8524 53.8994 95.8524 53.9762C95.7756 54.2833 95.7756 54.6672 95.7756 54.9743V55.0511C95.7756 55.3582 95.8524 55.7421 95.9292 56.0492V56.126C96.006 56.3563 96.0828 56.5866 96.1596 56.817C96.774 55.3582 98.0795 53.9762 100.076 52.8245V48.6785C98.8474 49.3695 97.9259 50.1373 97.1579 51.0586Z" fill="#D9D9E0"/>
<path d="M86.3301 55.2809C86.3301 55.1273 86.3301 54.897 86.3301 54.7434V58.6591C86.3301 59.9643 86.5605 61.1928 87.1748 62.4213V58.2752C86.714 57.3539 86.4069 56.3558 86.3301 55.2809Z" fill="#D9D9E0"/>
<path d="M100.153 62.1905C98.233 61.1156 96.9275 59.7336 96.3131 58.3516L87.1746 59.7336C88.2497 62.0369 90.3231 64.2635 93.4717 66.0294C102.994 71.5574 118.43 71.5574 127.952 66.0294L121.271 62.1905C115.435 65.5687 105.989 65.5687 100.153 62.1905Z" fill="#9CD6FF"/>
<path d="M126.954 66.5672C126.878 66.5672 126.878 66.6439 126.801 66.6439C126.494 66.7975 126.263 66.951 125.956 67.1046C125.956 67.1046 125.956 67.1046 125.879 67.1046C125.265 67.4117 124.574 67.7188 123.883 67.9492C114.437 71.481 101.689 70.8667 93.3952 66.1065C92.0129 65.3387 90.861 64.4174 89.8626 63.496C89.709 63.3425 89.5555 63.1889 89.4019 63.1121C89.3251 63.0354 89.3251 63.0354 89.2483 62.9586C89.1715 62.8818 89.0179 62.7282 88.9411 62.6515C88.8643 62.5747 88.8643 62.5747 88.7875 62.4979C88.7107 62.4211 88.6339 62.3443 88.5571 62.1908C88.4803 62.114 88.4803 62.114 88.4035 62.0372C88.3267 61.9605 88.25 61.8837 88.1732 61.7301C88.0964 61.6533 88.0964 61.5766 88.0196 61.5766C87.9428 61.4998 87.866 61.423 87.866 61.2695C87.7892 61.1927 87.7892 61.1159 87.7124 61.1159C87.6356 61.0391 87.5588 60.9623 87.5588 60.8088C87.5588 60.732 87.482 60.732 87.482 60.6552C87.4052 60.5784 87.3284 60.4249 87.3284 60.3481C87.3284 60.2713 87.2516 60.2713 87.2516 60.1945C87.1748 60.041 87.098 59.8874 87.0212 59.7339V63.8799C88.0964 66.1833 90.1698 68.4098 93.3184 70.1757C102.841 75.7038 118.277 75.7038 127.799 70.1757V66.0297C127.646 66.1833 127.338 66.4136 126.954 66.5672Z" fill="#578CFF"/>
<path d="M61.9862 55.5112H25.4321C25.2017 55.5112 25.0481 55.3576 25.0481 55.1273C25.0481 54.897 25.2017 54.7434 25.4321 54.7434H61.9095C62.1398 54.7434 62.2934 54.897 62.2934 55.1273C62.2934 55.3576 62.1398 55.5112 61.9862 55.5112Z" fill="#FAD6AA"/>
<path d="M129.796 109.333C129.796 110.101 129.181 110.715 128.413 110.715C127.645 110.715 127.031 110.101 127.031 109.333C127.031 108.565 127.645 107.951 128.413 107.951C129.181 107.951 129.796 108.565 129.796 109.333Z" fill="#FD9B78"/>
<path d="M88.3264 78.0833C89.1747 78.0833 89.8623 77.3958 89.8623 76.5478C89.8623 75.6997 89.1747 75.0122 88.3264 75.0122C87.4782 75.0122 86.7905 75.6997 86.7905 76.5478C86.7905 77.3958 87.4782 78.0833 88.3264 78.0833Z" fill="#9CD6FF"/>
<path d="M101.689 92.0566C101.689 92.9011 100.998 93.5921 100.153 93.5921C99.3083 93.5921 98.6172 92.9011 98.6172 92.0566C98.6172 91.212 99.3083 90.521 100.153 90.521C100.998 90.521 101.689 91.212 101.689 92.0566Z" fill="#578CFF"/>
<path d="M107.909 126.454C107.909 127.299 107.218 127.913 106.45 127.913C105.605 127.913 104.991 127.222 104.991 126.454C104.991 125.61 105.682 124.996 106.45 124.996C107.295 124.919 107.909 125.61 107.909 126.454Z" fill="#9CD6FF"/>
<path d="M59.5285 156.167C58.9142 158.624 56.8407 160.237 54.3065 161.465C52.3098 162.386 50.0828 163.077 47.9326 163.615C43.0945 164.843 33.4184 166.532 24.3567 166.532C21.592 166.532 20.2097 165.534 19.4418 164.075C18.4435 161.926 19.0578 158.778 19.5186 156.398C20.0562 153.327 22.36 142.885 24.1263 135.898C24.587 134.055 25.0478 132.366 25.355 131.214C25.4318 130.984 25.5086 130.677 25.5854 130.523C26.8141 126.838 43.7089 124.611 50.3132 123.92C51.9259 123.767 52.9242 123.613 52.9242 123.613C52.9242 123.613 54.0761 126.531 55.4584 130.754C57.9926 138.278 61.1412 149.795 59.5285 156.167Z" fill="#3C327A"/>
<path d="M53.5601 146.015C58.4274 138.761 56.4917 128.936 49.2366 124.07C41.9814 119.204 32.1541 121.139 27.2868 128.392C22.4194 135.646 24.3551 145.471 31.6103 150.338C38.8655 155.204 48.6927 153.269 53.5601 146.015Z" fill="#3C327A"/>
<path d="M50.851 134.132C47.5488 136.128 41.7124 135.898 37.6423 138.509C33.1114 141.426 34.033 145.342 27.7358 148.336C22.1298 151.023 22.5906 157.473 21.8994 160.314C21.5923 161.619 20.6707 163.231 19.5956 163.999C18.5973 161.849 19.2116 158.701 19.6724 156.321C20.3636 152.405 23.8961 136.589 25.5088 131.215C33.1882 129.833 55.0747 129.602 55.0747 129.602C55.0747 129.602 54.1531 132.059 50.851 134.132Z" fill="#332B69"/>
<path d="M64.5206 115.244C64.367 115.628 64.1366 116.012 63.9062 116.396C63.5223 116.857 63.1383 117.317 62.6007 117.625C62.14 117.932 61.6792 118.162 61.1416 118.316C60.988 118.392 60.8345 118.392 60.6041 118.392C60.5273 118.392 60.4505 118.392 60.4505 118.392C60.2969 118.392 60.2201 118.392 60.0665 118.469C59.9897 118.469 59.8361 118.469 59.7593 118.469C59.6825 118.469 59.6057 118.469 59.5289 118.469C58.8378 118.392 58.1466 118.239 57.5323 117.855C57.4555 117.778 57.3787 117.778 57.3019 117.701C56.8411 117.394 56.4572 117.087 56.15 116.626L45.322 102.73L34.2636 88.5255C34.1868 88.372 34.0332 88.2184 33.9564 88.0649C32.7277 86.0686 32.8813 83.3814 34.3404 81.3851C34.8011 80.8477 35.2619 80.3102 35.8762 79.9263C36.5674 79.4657 37.3353 79.1586 38.1033 79.005C40.2535 78.6211 42.327 79.4657 43.5557 81.2316L44.17 82.0761L61.0648 106.185L62.4471 108.181L62.5239 108.334L63.4455 109.64L64.1366 110.561C65.0581 112.096 65.1349 113.786 64.5206 115.244Z" fill="#6EC3FF"/>
<path d="M71.5087 110.945C70.8175 111.56 69.2049 112.942 67.4386 114.324C65.1347 116.09 62.5237 118.009 61.2182 118.316H61.1414C60.911 118.393 60.6807 118.393 60.4503 118.47C60.2967 118.47 60.2199 118.47 60.0663 118.546C59.9895 118.546 59.8359 118.546 59.7591 118.546C59.6823 118.546 59.6055 118.546 59.5287 118.546C58.7608 118.546 58.1465 118.316 57.5321 117.932C57.4553 117.855 57.3785 117.855 57.3017 117.779C57.2249 117.702 57.1481 117.625 56.9945 117.548C55.9962 116.704 55.5354 115.629 55.6122 114.247C55.6122 113.94 55.689 113.633 55.7658 113.402C56.3802 110.638 58.7608 107.874 60.4503 106.723C60.6807 106.569 60.8343 106.415 61.1414 106.262C62.4469 105.417 64.5204 104.112 66.3635 102.96C69.0513 101.271 73.7357 108.872 71.5087 110.945Z" fill="#6EC3FF"/>
<path d="M71.8927 109.87C71.8159 110.484 71.5855 110.945 71.1247 111.175C70.8944 111.329 70.664 111.329 70.3568 111.329C69.2049 111.252 67.669 110.1 66.6707 108.257C65.5955 106.338 65.2884 104.342 65.9027 103.42C65.9795 103.267 66.2099 103.113 66.3635 102.96C66.5171 102.883 66.6707 102.806 66.8242 102.806C67.9762 102.653 69.6656 103.881 70.8176 105.877C71.7391 107.336 72.0463 108.795 71.8927 109.87Z" fill="#44388A"/>
<path d="M85.8692 86.1458C85.8692 86.1458 88.9409 84.6102 89.4785 84.3031C90.0161 83.9192 90.784 85.3012 89.8625 85.9155C88.9409 86.5297 85.7156 87.9885 85.7156 87.9885L85.8692 86.1458Z" fill="#FF7D45"/>
<path d="M87.2516 87.5268C87.1748 87.5268 87.098 87.5268 87.098 87.45C86.9444 87.3732 86.8676 87.1429 86.9444 86.9125L94.9311 72.2479C95.0079 72.0943 95.2382 72.0175 95.4686 72.0943C95.6222 72.1711 95.699 72.4015 95.6222 72.6318L87.6356 87.2964C87.482 87.45 87.4052 87.5268 87.2516 87.5268Z" fill="#44388A"/>
<path d="M82.7975 97.5858C82.7975 97.6625 82.5671 97.8929 82.1831 98.3535C81.0312 99.8123 78.3434 103.037 75.1949 106.415C74.9645 106.646 74.7341 106.876 74.5037 107.106C73.659 108.028 72.8142 108.872 71.8927 109.793C71.3551 110.331 70.8944 110.792 70.3568 111.252C70.1264 111.252 69.8192 111.176 69.5121 111.022C68.5137 110.638 67.4386 109.563 66.6707 108.181C65.5955 106.262 65.2884 104.265 65.9027 103.344C66.2099 103.114 66.5171 102.96 66.8242 102.73C71.2783 99.7355 78.8042 94.0539 78.9578 93.9004C79.4185 94.3611 80.724 95.9734 81.7992 96.7412C82.0296 96.8947 82.2599 97.0483 82.4135 97.2019C82.6439 97.4322 82.7207 97.509 82.7975 97.5858Z" fill="#FD9B78"/>
<path d="M87.2513 95.4354C86.9442 95.6657 83.5652 97.7387 82.874 98.0458C82.7205 98.1226 82.4133 98.2762 81.9525 98.4297C80.8774 98.9672 79.2647 99.735 78.7271 100.042C78.5735 100.119 78.4968 100.196 78.4968 100.196L75.8857 97.7387C75.8857 97.7387 76.4233 97.0477 77.1912 96.2032C77.8824 95.3586 78.7271 94.2837 79.2647 93.4391C80.4166 91.75 81.4917 89.2163 82.2597 88.3718C82.9508 87.5272 84.5635 86.4523 84.7939 86.2988C84.9475 86.1452 87.1745 85.3774 87.7889 84.9935C88.4033 84.5329 89.0176 85.531 88.48 86.222C87.8657 86.9898 85.5619 88.4485 85.5619 88.4485C85.5619 88.4485 85.869 88.6021 86.3298 88.9092C87.5585 89.6002 89.9391 91.059 90.0159 91.9036C90.1695 92.9785 88.0193 94.8212 87.2513 95.4354Z" fill="#FD9B78"/>
<path d="M67.4383 114.246C65.1345 116.012 62.5235 117.931 61.218 118.239H61.1412C60.9876 118.315 60.834 118.315 60.6036 118.315C60.5268 118.315 60.45 118.315 60.45 118.315C60.2965 118.315 60.2197 118.315 60.0661 118.392C59.9893 118.392 59.8357 118.392 59.7589 118.392C59.6821 118.392 59.6053 118.392 59.5285 118.392C58.7606 118.392 58.1462 118.162 57.5319 117.778C57.4551 117.701 57.3783 117.701 57.3015 117.624C56.8407 117.317 56.4567 117.01 56.1496 116.549L45.3215 102.653C46.627 98.9672 49.0077 95.2051 49.0077 95.2051C49.0077 95.2051 48.6237 103.267 51.4651 106.184C53.6921 108.488 54.4601 111.098 55.7656 113.171C56.0728 113.709 56.4567 114.169 56.9943 114.63C58.223 115.782 61.3716 115.858 64.5202 115.091C65.5185 115.014 66.5168 114.707 67.4383 114.246Z" fill="#6E9CFF"/>
<path d="M55.5353 130.753C55.3049 132.058 53.2315 133.363 50.3133 134.515C41.7123 137.817 25.5855 139.736 24.2032 135.82C24.1264 135.59 24.1264 135.36 24.1264 135.053C24.6639 128.296 26.123 120.234 26.123 120.234L13.2216 89.7533C12.4536 87.6803 11.4553 87.1429 13.6823 85.7609L23.8192 81.3845C27.6589 80.0793 31.6522 79.3883 35.6455 79.1579C36.9511 79.0811 38.3334 79.0811 39.7157 79.1579H39.7924C42.1731 79.2347 42.6338 81.0774 43.8626 83.1504C43.8626 83.1504 51.542 93.2084 50.7741 95.4349L49.3918 114.092C49.3918 114.092 54.3834 124.764 55.6889 130.216C55.6121 130.369 55.6121 130.599 55.5353 130.753Z" fill="#9CD6FF"/>
<path d="M29.195 137.203C25.4321 135.897 26.7376 131.828 27.4288 128.603C28.1967 125.379 30.1934 122.384 29.4254 117.624C29.1182 115.551 25.7393 112.019 23.7426 107.336C21.1316 101.117 19.6725 93.8228 19.6725 93.8228L15.6792 95.5119L26.1233 120.311C26.1233 120.311 24.6642 128.45 24.1266 135.13C23.973 137.126 26.7376 137.97 30.7309 138.047C30.4237 137.74 29.963 137.433 29.195 137.203Z" fill="#6E9CFF"/>
<path d="M22.3601 90.8282L22.2065 91.8264L18.1364 122.077L17.9828 123.075L17.9061 123.305L17.6757 124.841L17.5221 125.993C17.2917 127.375 16.3702 128.603 15.1415 129.294C14.6039 129.601 14.0663 129.832 13.5288 129.908C12.9144 129.985 12.3001 130.062 11.7625 129.908H11.6857C9.45866 129.525 7.84597 127.682 7.69238 125.609C7.69238 125.379 7.69238 125.148 7.69238 124.918L10.1498 96.2027L10.6874 89.8301C10.6874 89.6766 10.7642 89.4462 10.7642 89.2927C11.2249 86.9893 13.068 85.1466 15.5254 84.686C16.2166 84.5324 16.9077 84.5324 17.5989 84.686H17.6757C20.7474 85.2234 22.8209 87.9107 22.3601 90.8282Z" fill="#9CD6FF"/>
<path d="M20.0561 84.5337C19.8257 81.6161 36.4901 78.6218 38.1796 80.1573C40.253 82.0768 39.7155 94.5917 39.3315 95.6666C28.5803 87.2209 20.3633 88.6797 20.0561 84.5337Z" fill="#FD9B78"/>
<path d="M35.4151 81.462C33.4952 75.5501 33.4952 75.3965 33.4952 69.2543C33.4952 68.9471 33.4952 68.64 33.4184 68.3329C32.8809 65.1082 29.8859 62.8817 26.5837 63.3423C23.3584 63.8798 21.1313 66.8741 21.5921 70.1756C21.6689 70.4827 21.7457 70.7898 21.8225 71.0969C23.7423 77.0089 23.7423 77.1624 23.7423 83.3047C23.7423 83.6118 23.7423 83.9189 23.8191 84.226C24.3567 87.4507 27.3517 89.6773 30.6538 89.2166C33.8792 88.6792 36.1062 85.6848 35.6455 82.3834C35.5687 82.0763 35.4919 81.7691 35.4151 81.462Z" fill="#FD9B78"/>
<path d="M24.5872 79.7723C22.7442 79.4652 18.5973 84.9932 18.9813 87.143C19.3652 89.2928 25.816 88.6018 29.5789 90.2142C33.265 91.8265 39.255 96.2029 39.4854 96.0493C39.7926 95.8958 35.5689 91.2891 33.1114 87.6037C30.5772 83.9183 26.4303 80.0794 24.5872 79.7723Z" fill="white"/>
<path d="M33.5721 69.2547C33.5721 68.9476 33.5721 68.6405 33.4953 68.4102L21.6689 69.7922C21.6689 69.9457 21.6689 70.0225 21.6689 70.176C21.6689 70.2528 21.6689 70.3296 21.7457 70.4064C23.8192 71.942 30.1931 76.3951 34.0329 76.6254C33.4953 74.5524 33.4953 73.0936 33.5721 69.2547Z" fill="#FF7D45"/>
<path d="M40.4837 71.0971C40.7141 71.7881 40.6373 72.2488 40.2533 72.863C40.023 73.1701 39.1782 73.4005 37.7191 73.4772C37.6423 73.4772 37.4887 73.4772 37.4119 73.4772C37.1048 73.4772 36.7208 73.4772 36.26 73.4772C35.0313 73.4005 33.5722 73.3237 31.8827 73.0933C27.8126 72.5559 24.8944 71.6346 22.821 70.7132C19.2884 69.1009 18.1365 67.335 18.1365 67.335C13.6824 61.7301 15.5255 53.8988 22.9746 51.058C29.4253 48.5243 34.1098 51.9025 36.1832 54.8201C36.3368 55.0504 36.4904 55.2808 36.644 55.5111C36.7208 55.6647 36.8744 55.895 36.9512 56.0485C37.7959 57.8912 37.2583 60.1178 37.5655 60.6553C37.8727 61.1927 41.0213 63.1889 41.1749 63.5728C41.3285 63.9567 40.2533 65.1852 40.1765 65.262C40.0997 65.3387 40.0997 65.953 40.2533 66.644C40.4837 67.335 40.3301 68.1028 40.2533 68.5634C40.023 69.0241 40.1765 70.4061 40.4837 71.0971Z" fill="#FD9B78"/>
<path d="M36.0294 54.8961C36.3366 54.7426 36.5669 54.6658 36.5669 54.6658C36.5669 54.6658 36.5669 55.0497 36.4902 55.5871C36.3366 56.8923 36.0294 59.1957 35.2614 60.2706C34.1863 61.8062 31.7289 63.6488 31.1913 64.8773C30.6538 66.1825 30.7306 71.0964 32.3433 72.248C33.4952 73.0926 35.0311 73.3997 36.2598 73.5533C35.0311 73.4765 33.572 73.3997 31.8825 73.1694C27.8124 72.6319 24.8942 71.7106 22.8207 70.7892C21.2081 69.0233 21.4384 67.1039 22.8975 64.8773C25.355 61.2687 30.1162 57.2762 31.4217 56.8156C32.42 56.4317 34.9543 55.3568 36.0294 54.8961Z" fill="#FF7D45"/>
<path d="M40.1765 68.5633C40.3301 68.1026 40.4069 67.3348 40.1765 66.6438C39.9461 65.9528 40.0229 65.3386 40.0997 65.2618C40.1765 65.185 41.1748 63.9566 41.098 63.5727C40.9445 63.1888 37.7959 61.1926 37.4887 60.6551C37.1815 60.1177 37.7191 57.8911 36.8743 56.0484C35.7224 53.6683 32.3435 50.1365 27.1982 50.1365C32.1131 50.2133 35.3385 53.6683 36.4904 56.0484C37.3351 57.8911 36.7976 60.1177 37.1047 60.6551C37.4119 61.1926 40.5605 63.1888 40.7141 63.5727C40.8677 63.9566 39.7925 65.1083 39.7157 65.2618C39.6389 65.3386 39.6389 65.9528 39.7925 66.6438C40.0229 67.3348 39.8693 68.1026 39.7925 68.5633C39.6389 69.024 39.8693 70.406 40.0997 71.097C40.3301 71.788 40.2533 72.2487 39.8693 72.8629C39.6389 73.2468 38.6406 73.4771 36.9511 73.4771C38.9478 73.4771 40.0229 73.2468 40.2533 72.8629C40.7141 72.1719 40.7141 71.7112 40.4837 71.097C40.1765 70.406 40.0229 69.024 40.1765 68.5633Z" fill="#FDBEA7"/>
<path d="M32.6504 49.2148C32.6504 49.2148 38.1028 49.4451 36.1061 56.5855C34.0327 63.7259 29.9626 62.4974 30.193 66.6435C30.5001 70.7895 33.4183 74.3981 33.4951 79.6958C33.5719 84.5328 27.8123 86.913 23.5118 85.3774C19.2114 83.8418 15.9092 84.5328 13.6822 85.3774C11.5319 83.9186 12.2231 79.7726 14.9109 77.4692C17.0611 75.6265 19.1346 73.7071 17.3683 69.6378C15.5252 65.5686 11.3015 61.96 14.8341 54.8964C18.3666 47.8328 32.6504 49.2148 32.6504 49.2148Z" fill="#3C327A"/>
<path d="M32.6505 49.2152C32.6505 49.2152 30.6539 49.0617 27.9661 49.1384C29.8091 49.292 35.2615 49.0617 35.2615 52.8238C35.1847 59.4267 28.9644 57.8912 27.8125 63.2657C26.7373 68.6401 32.113 73.554 31.6522 78.9284C31.4218 81.6925 29.0412 85.3778 21.1313 84.6868C21.8225 84.8404 22.5904 85.0707 23.4352 85.301C27.7357 86.8366 33.4953 84.3797 33.4185 79.6194C33.3417 74.3217 30.4235 70.7132 30.1163 66.5671C29.8091 62.4211 33.956 63.6496 36.0295 56.5092C38.1797 49.4456 32.6505 49.2152 32.6505 49.2152Z" fill="#6C5EBF"/>
<path d="M34.1863 77.4688C34.1863 77.4688 38.7172 95.1278 39.4851 96.0491C40.253 96.9705 39.8691 93.1315 40.0995 90.2907C40.3298 87.4499 41.6353 82.6129 41.8657 81.3077C42.0961 80.0024 34.1863 77.4688 34.1863 77.4688Z" fill="white"/>
<path opacity="0.5" d="M59.5285 156.167C58.9141 158.624 56.8407 160.237 54.3065 161.465C54.9208 138.125 52.0026 141.349 50.7739 134.132C49.9292 129.142 52.0026 127.068 51.4651 124.151C50.2363 117.471 46.0894 119.084 44.8607 113.325C43.7088 107.567 45.3983 101.348 45.2447 94.2841C45.1679 87.9115 41.789 83.5351 35.5686 79.082C36.8741 79.0052 38.2564 79.0052 39.6387 79.082H39.7155C42.0961 79.1588 42.5569 81.0015 43.7856 83.0745C43.7856 83.0745 51.4651 93.1324 50.6971 95.359L49.3148 114.016C49.3148 114.016 54.3065 124.688 55.612 130.14C55.6888 130.293 55.6888 130.524 55.612 130.677C57.9926 138.278 61.1412 149.795 59.5285 156.167Z" fill="#FAFBFC"/>
<path d="M40.9446 152.098L18.0598 145.726C17.3687 145.495 16.9079 144.804 17.1383 144.037L26.5072 110.177C26.7376 109.486 27.4288 109.026 28.1967 109.256L51.0814 115.629C51.7726 115.859 52.2334 116.55 52.003 117.318L42.6341 151.177C42.4037 151.945 41.6357 152.329 40.9446 152.098Z" fill="white"/>
<path d="M41.5588 153.173L18.6741 146.8C17.9829 146.57 17.5222 145.879 17.7526 145.111L27.1215 111.252C27.3519 110.561 28.043 110.1 28.811 110.33L51.6957 116.703C52.3869 116.933 52.8476 117.624 52.6172 118.392L43.2483 152.251C43.0179 152.942 42.25 153.326 41.5588 153.173Z" fill="#578CFF"/>
<path d="M22.1298 129.294L20.5171 135.206C21.5922 135.667 22.9745 136.204 23.5121 136.204C24.3568 136.204 25.2016 135.513 26.7374 135.897C28.2733 136.281 33.4954 137.433 34.8009 137.817C36.1064 138.2 41.2516 141.041 43.4018 141.348C44.4002 141.502 45.3985 141.502 46.2432 141.502L48.1631 134.515L22.1298 129.294Z" fill="#407CFF"/>
<path d="M49.699 133.902C49.2383 133.902 47.0112 134.132 46.6272 134.056C46.2433 133.979 44.7074 133.211 44.7842 133.057C44.861 132.904 45.3217 132.443 45.6289 132.443C45.9361 132.366 48.0863 132.52 49.0847 132.443C49.8526 132.443 50.083 131.675 50.0062 131.292C50.0062 131.215 49.9294 131.138 49.8526 131.061C49.4686 130.984 46.8576 130.14 46.5504 130.14C46.2433 130.14 44.7074 130.063 43.5555 130.063C42.4035 130.063 40.0997 131.215 38.871 131.599C38.7174 131.675 38.4102 131.675 38.0263 131.599C36.26 131.368 32.9578 130.293 31.8059 129.833V136.052C33.9562 136.589 35.492 137.127 35.6456 137.203C36.1064 137.434 43.4787 140.735 44.0162 140.735C44.6306 140.812 46.704 141.196 47.6256 140.735C47.9327 140.582 48.0095 140.351 48.0095 140.121C48.0863 139.66 47.6256 139.123 47.6256 139.123C47.6256 139.123 48.1631 138.893 48.5471 138.432C48.9311 137.971 48.6239 137.127 48.6239 137.127C48.6239 137.127 48.7007 137.127 49.0079 137.05C50.0062 136.82 50.083 135.591 49.7758 135.668C49.8526 135.668 49.9294 135.668 50.0062 135.591C50.6973 135.438 50.467 133.825 49.699 133.902Z" fill="#FD9B78"/>
<path d="M40.023 134.9C39.7158 136.512 39.1782 137.74 38.9478 137.817C38.9478 137.817 38.6406 137.74 38.0263 137.664C37.4887 137.587 36.644 137.433 35.5689 137.203C32.1899 136.589 26.7375 135.437 21.5923 133.978C17.215 132.75 12.9913 131.291 10.2267 129.679C8.53722 128.297 7.92286 126.761 8.15324 125.149C8.38363 123.92 9.15157 122.922 10.3035 122.385C12.9913 121.079 17.1382 121.847 19.2116 122.845C22.053 124.304 30.9612 129.064 37.8727 131.675C38.5639 131.982 39.255 132.212 39.9462 132.443C40.1765 132.519 40.2533 133.364 40.023 134.9Z" fill="#FD9B78"/>
<path d="M47.9328 140.197C47.9328 140.427 47.7792 140.658 47.5488 140.811C46.6273 141.272 44.5538 140.888 43.9395 140.811C43.4019 140.734 36.0296 137.433 35.5689 137.279C32.1899 136.665 26.7375 135.513 21.5923 134.055C23.1282 131.982 25.6624 129.141 25.6624 129.141C25.6624 129.141 25.2016 133.517 26.7375 134.131C27.5823 134.515 29.7325 135.053 31.7292 135.59C33.4186 136.051 34.9545 136.435 35.6457 136.665C36.1064 136.819 37.028 137.279 38.1031 137.817C40.1765 138.815 42.8644 140.12 43.8627 140.427C45.0914 140.581 46.7041 141.195 47.9328 140.197Z" fill="#FF7D45"/>
<path d="M24.4333 135.207C24.1261 135.36 23.7421 135.437 23.435 135.36C15.7555 133.134 7.53851 129.986 7.7689 125.533C7.7689 125.379 7.76889 125.149 7.84569 124.995C7.99928 124.304 8.22966 123.69 8.61363 123.229C10.6103 120.696 15.3715 121.003 18.2129 122.001C18.5969 122.155 25.2012 125.686 26.8907 126.531C28.3498 127.222 26.7371 133.978 24.4333 135.207Z" fill="#9CD6FF"/>
<path d="M87.2515 95.436C86.9443 95.6663 83.5654 97.7393 82.8742 98.0464C82.7206 98.1232 82.4902 98.2 82.1831 98.3535C82.1063 98.3535 82.1063 98.4303 82.0295 98.4303C81.8759 98.5839 78.9577 102.269 75.1948 106.415C74.9644 106.646 74.734 106.876 74.5036 107.106C73.6589 108.028 72.8141 108.872 71.8926 109.794C71.355 110.331 70.8943 110.792 70.3567 111.252C70.1263 111.252 69.8191 111.176 69.512 111.022C72.2766 108.028 76.6539 103.344 78.0362 101.962C79.4953 100.427 80.724 98.1232 81.8759 97.4322C82.0295 97.3554 82.1831 97.2786 82.4134 97.2019C83.7189 96.5876 86.0228 96.127 87.0979 94.2843C87.3283 93.9004 86.8675 93.9772 86.2532 93.5933C85.6388 93.2094 85.946 92.5952 86.0228 92.4416C86.0996 92.288 85.6388 92.3648 85.2548 91.9809C84.8709 91.6738 84.9477 90.9828 84.8709 90.6757C84.8709 90.4454 84.3333 90.6757 84.1797 90.1382C83.9493 89.6008 84.8709 88.833 84.8709 88.833C85.2548 88.6795 85.6388 88.6795 86.0996 88.7562C87.3283 89.4473 89.7089 90.906 89.7857 91.7506C90.1697 92.9791 88.0194 94.8217 87.2515 95.436Z" fill="#FF7D45"/>
<path d="M84.6404 88.8333C84.6404 88.8333 87.7122 87.1442 88.6337 86.7603C89.5552 86.2997 90.4767 87.7584 89.8624 88.3727C89.1712 88.9869 85.9459 90.1386 85.3315 90.2921C84.6404 90.4457 83.8724 89.294 84.6404 88.8333Z" fill="#FDAD90"/>
<path d="M85.6387 90.3687C86.253 90.0616 89.3248 88.6796 89.7088 88.5261C90.3999 88.2957 91.4751 89.7545 90.3231 90.5991C89.0944 91.5204 86.9442 91.9811 86.1762 92.1346C85.4851 92.2114 84.7172 90.8294 85.6387 90.3687Z" fill="#FDAD90"/>
<path d="M86.4068 92.4412C86.9444 92.2109 89.4018 91.136 89.9394 91.136C90.477 91.0592 90.8609 92.2109 90.3234 92.8251C89.7858 93.4393 88.1731 93.5161 87.098 93.6697C86.1765 93.8232 85.8693 92.6715 86.4068 92.4412Z" fill="#FDAD90"/>
<path d="M24.4333 135.206C24.1261 135.36 23.7421 135.437 23.435 135.36C15.7555 133.133 7.53851 129.985 7.7689 125.532C7.7689 125.302 7.7689 125.072 7.7689 124.841L10.2263 96.1262C10.2263 96.4333 9.99593 103.727 9.91914 108.488C9.84234 112.096 8.61363 118.929 8.61363 123.229C8.61363 124.688 8.46005 126.454 8.92081 127.068C10.5335 129.448 12.6837 128.987 15.0644 129.909C18.6737 131.444 21.8991 133.978 24.4333 135.206Z" fill="#6E9CFF"/>
<path d="M81.799 89.4474C82.2598 88.2189 83.7189 87.5279 84.41 86.8369C85.1012 86.1459 85.5619 86.2995 86.7906 85.8388C87.5586 85.5317 87.789 85.1478 87.8658 84.9175C87.789 84.9175 87.789 84.9175 87.7122 84.9943C87.0978 85.4549 84.9476 86.1459 84.7172 86.2995C84.5636 86.453 82.9509 87.5279 82.183 88.3725C81.415 89.2171 80.3399 91.7507 79.188 93.4399C78.9576 93.8238 78.6504 94.2077 78.3433 94.5915C79.9559 93.2095 81.415 90.5991 81.799 89.4474Z" fill="#FDBEA7"/>
<path d="M68.5134 112.25C68.5134 112.557 68.283 112.787 67.9758 112.787C67.6686 112.787 67.4382 112.557 67.4382 112.25C67.4382 111.943 67.6686 111.712 67.9758 111.712C68.283 111.712 68.5134 111.943 68.5134 112.25Z" fill="white"/>
<path d="M40.5605 96.9718C40.5605 97.2789 40.3301 97.5092 40.0229 97.5092C39.7157 97.5092 39.4854 97.2789 39.4854 96.9718C39.4854 96.6647 39.7157 96.4343 40.0229 96.4343C40.3301 96.4343 40.5605 96.6647 40.5605 96.9718Z" fill="white"/>
<path d="M66.6706 113.785C66.6706 114.093 66.4402 114.323 66.133 114.323C65.8258 114.323 65.5955 114.093 65.5955 113.785C65.5955 113.478 65.8258 113.248 66.133 113.248C66.4402 113.248 66.6706 113.478 66.6706 113.785Z" fill="white"/>
<path d="M24.2033 134.054C24.2033 134.361 23.9729 134.592 23.6657 134.592C23.3586 134.592 23.1282 134.361 23.1282 134.054C23.1282 133.747 23.3586 133.517 23.6657 133.517C23.9729 133.517 24.2033 133.747 24.2033 134.054Z" fill="white"/>
<path d="M22.1298 133.517C22.1298 133.824 21.8994 134.055 21.5922 134.055C21.2851 134.055 21.0547 133.824 21.0547 133.517C21.0547 133.21 21.2851 132.98 21.5922 132.98C21.8994 132.98 22.1298 133.21 22.1298 133.517Z" fill="white"/>
<path d="M50.0058 131.291C49.3915 131.521 47.9324 130.984 47.1644 130.754C46.2429 130.523 44.707 130.523 43.7855 130.6C42.7872 130.677 40.4065 131.521 39.485 131.752C38.6403 131.982 37.9491 131.675 37.8723 131.675C38.2563 131.752 38.5635 131.752 38.7171 131.675C39.9458 131.291 42.2496 130.139 43.4015 130.139C44.5534 130.139 46.0893 130.216 46.3965 130.216C46.7037 130.216 49.3915 130.984 49.6987 131.138C49.929 131.061 49.929 131.138 50.0058 131.291Z" fill="#FDBEA7"/>
</svg>
