<svg width="167" height="168" viewBox="0 0 167 168" fill="none" xmlns="http://www.w3.org/2000/svg">
<path d="M148.567 106.553C143.543 124.683 133.655 142.506 121.214 154.183C115.393 159.638 109.013 163.786 102.394 165.86C101.437 166.168 100.4 166.475 99.4435 166.629C93.5423 167.935 87.4019 167.704 81.2614 165.399C79.6665 164.785 78.1513 164.093 76.5564 163.248C46.1731 146.424 63.0793 115.388 86.8437 77.7446C108.295 43.7889 105.504 10.7551 129.747 14.8267C154.229 18.8983 159.732 66.0675 148.567 106.553Z" fill="#EAEAF2"/>
<path d="M51.2767 29.4995C41.1489 25.5047 26.9541 26.0425 17.9428 31.1128C15.7099 32.3419 14.0352 33.7248 12.7593 35.2612L36.3642 41.407L51.2767 29.4995Z" fill="#3CB6B3"/>
<path d="M36.2844 41.407L54.7057 51.6244C50.1602 54.1596 44.4185 55.5424 38.5173 55.8497L36.2844 41.407Z" fill="#52AC62"/>
<path d="M51.2763 29.4993L36.3638 41.4068L54.7851 51.6242C64.9926 45.9393 64.9926 36.7974 54.7851 31.1125C53.6687 30.5748 52.4725 30.037 51.2763 29.4993Z" fill="#D76446"/>
<path d="M51.2767 13.0598C41.1489 9.06503 26.9541 9.60278 17.9428 14.6731C15.7099 15.9023 14.0352 17.2851 12.7593 18.8215L36.3642 24.9673L51.2767 13.0598Z" fill="#FD9B78"/>
<path d="M12.6792 18.8215V35.2616L36.2841 41.4075V24.9674L12.6792 18.8215Z" fill="#FD7E51"/>
<path d="M36.2844 24.9676L51.2767 13.0601V29.5001L36.2844 41.4077V24.9676Z" fill="#FD8D65"/>
<path d="M51.2763 25.2742L36.3638 37.1817L54.7851 47.3992C64.9926 41.7143 64.9926 32.5723 54.7851 26.8874C53.6687 26.2729 52.4725 25.7351 51.2763 25.2742Z" fill="#FAFBFC"/>
<path d="M54.7057 47.4002V51.6255L36.2844 41.408V37.106L54.7057 47.4002Z" fill="#D77846"/>
<path d="M62.3609 37.7205C62.3609 37.7974 62.3609 37.8742 62.3609 37.951C62.3609 38.1047 62.3609 38.1815 62.2812 38.3351C62.2812 38.4119 62.2812 38.4888 62.2014 38.6424C62.2014 38.7192 62.1217 38.8729 62.1217 38.9497C61.404 42.0226 58.9319 45.0187 54.7053 47.3234V51.6255C59.8091 48.783 62.3609 45.0955 62.3609 41.408V37.106C62.3609 37.3364 62.3609 37.5669 62.3609 37.7205Z" fill="#D9D9E0"/>
<path d="M36.2844 34.2637L54.7057 44.4811C50.1602 47.0163 44.4185 48.3991 38.5173 48.7064L36.2844 34.2637Z" fill="#9CD6FF"/>
<path d="M51.1172 46.1709H51.0374C49.7615 46.6318 48.4856 47.0928 47.1299 47.4001C44.4185 48.0915 41.4679 48.5524 38.5173 48.6292L37.4806 42.0225L36.2844 41.3311L38.5971 55.7737C44.4983 55.4664 50.24 54.0836 54.7855 51.5485V44.404C53.5893 45.1722 52.3931 45.71 51.1172 46.1709Z" fill="#578CFF"/>
<path d="M36.2844 41.4082L38.597 55.8509V48.7064L36.2844 34.2637V41.4082Z" fill="#D7569C"/>
<path d="M36.2842 31.1134L38.5969 45.556C31.1805 45.9402 23.6046 44.5574 17.8628 41.3308C9.88823 36.8751 8.13381 30.3451 12.6793 24.9675L36.2842 31.1134Z" fill="#FAFBFC"/>
<path d="M37.4804 45.5558C37.3209 45.5558 37.1614 45.5558 36.9221 45.5558C30.064 45.6326 23.1261 44.2498 17.8628 41.3305C15.1515 39.8709 13.2376 38.104 11.9616 36.2602C11.6426 35.7993 11.4034 35.3384 11.1642 34.8774V34.8006C10.8452 34.1092 10.606 33.4178 10.4465 32.6496C10.287 31.9582 10.287 31.1899 10.287 30.4985V41.2537C10.2072 45.018 12.7591 48.7824 17.9426 51.7016C23.6045 54.8514 31.2602 56.2342 38.6766 55.9269V45.6326C38.1981 45.5558 37.8791 45.5558 37.4804 45.5558Z" fill="#D9D9E0"/>
<path d="M144.979 56.0799C133.415 56.0799 124.005 47.0148 124.005 35.8755C124.005 24.7362 133.415 15.6711 144.979 15.6711C156.542 15.6711 165.952 24.7362 165.952 35.8755C165.952 47.0148 156.542 56.0799 144.979 56.0799ZM144.979 19.5123C135.569 19.5123 127.993 26.8873 127.993 35.8755C127.993 44.8638 135.648 52.2388 144.979 52.2388C154.389 52.2388 161.965 44.8638 161.965 35.8755C161.965 26.8873 154.389 19.5123 144.979 19.5123Z" fill="#FD9B78"/>
<path d="M144.978 56.9254C138.758 56.9254 132.777 54.3134 128.63 49.8577L132.857 46.247C135.887 49.5504 140.353 51.471 144.899 51.471C153.83 51.471 161.007 44.4801 161.007 35.9528C161.007 29.5765 156.861 23.7379 150.64 21.4333L152.714 16.2861C161.087 19.359 166.749 27.2718 166.749 35.9528C166.829 47.4762 157.02 56.9254 144.978 56.9254Z" fill="#9CD6FF"/>
<path d="M152.474 43.0976H137.562V39.1797H152.474V43.0976ZM138.359 42.3294H151.677V39.9479H138.359V42.3294Z" fill="#9CD6FF"/>
<path d="M33.1744 91.1125C19.8569 91.1894 9.01139 101.637 8.93164 114.467H33.1744V91.1125Z" fill="#FD9B78"/>
<path d="M12.4402 114.772C12.5199 125.758 21.7705 134.67 33.1742 134.746V114.772H12.4402Z" fill="#EAEAF2"/>
<path d="M50.6388 114.466C50.5591 105.401 42.9034 98.026 33.4934 97.9492V114.466H50.6388Z" fill="#DCDCF2"/>
<path d="M33.4934 127.909C40.9896 127.832 47.0503 121.994 47.1301 114.772H33.4934V127.909Z" fill="#9CD6FF"/>
<path d="M44.1791 6.68432C44.9718 6.68432 45.6145 6.06522 45.6145 5.30151C45.6145 4.53781 44.9718 3.9187 44.1791 3.9187C43.3863 3.9187 42.7437 4.53781 42.7437 5.30151C42.7437 6.06522 43.3863 6.68432 44.1791 6.68432Z" fill="#FD9B78"/>
<path d="M136.127 11.831C136.92 11.831 137.562 11.2119 137.562 10.4482C137.562 9.68453 136.92 9.06543 136.127 9.06543C135.334 9.06543 134.691 9.68453 134.691 10.4482C134.691 11.2119 135.334 11.831 136.127 11.831Z" fill="#FD9B78"/>
<path d="M53.2704 61.4583C53.2704 62.3034 52.5527 62.9948 51.6755 62.9948C50.7983 62.9948 50.0806 62.3034 50.0806 61.4583C50.0806 60.6133 50.7983 59.9219 51.6755 59.9219C52.5527 59.9219 53.2704 60.6133 53.2704 61.4583Z" fill="#9CD6FF"/>
<path d="M164.676 55.6966C164.676 56.5417 163.958 57.2331 163.081 57.2331C162.204 57.2331 161.486 56.5417 161.486 55.6966C161.486 54.8516 162.204 54.1602 163.081 54.1602C163.958 54.1602 164.676 54.8516 164.676 55.6966Z" fill="#9CD6FF"/>
<path d="M45.9337 129.678C46.6384 129.678 47.2096 129.127 47.2096 128.448C47.2096 127.77 46.6384 127.219 45.9337 127.219C45.229 127.219 44.6577 127.77 44.6577 128.448C44.6577 129.127 45.229 129.678 45.9337 129.678Z" fill="#9CD6FF"/>
<path d="M100.241 151.34C99.6827 158.1 99.3637 163.862 99.5232 166.321C99.5232 166.474 99.5232 166.551 99.5232 166.705C93.622 168.011 87.4815 167.78 81.3411 165.475C81.1018 156.948 80.7031 118.614 80.7031 118.844C80.7829 113.082 85.6474 108.473 91.6283 108.55C95.6156 108.627 99.1245 109.472 101.038 112.852C101.995 114.542 102.633 116.847 102.713 119.92C102.793 122.224 101.198 138.434 100.241 151.34Z" fill="#44388A"/>
<path d="M121.214 154.183C120.098 155.181 119.061 156.18 117.945 157.102C113.08 161.174 107.817 164.17 102.394 165.86C101.995 163.248 101.118 157.64 100.161 151.34C99.284 145.655 98.4068 139.433 97.7688 134.439C97.4499 131.981 97.2106 129.907 97.0511 128.293C96.9714 127.141 96.8916 126.219 96.8916 125.758C97.0511 120.304 98.646 115.771 100.959 112.698C103.192 109.856 105.983 108.243 108.854 108.243C114.037 108.319 119.3 116.54 120.337 123.607C120.496 124.683 120.576 125.681 120.496 126.68C120.496 128.601 120.895 142.967 121.214 154.183Z" fill="#44388A"/>
<path d="M121.214 154.184C120.098 155.182 119.061 156.181 117.945 157.103C118.024 153.492 117.147 151.341 115.313 148.575C113 144.965 113.559 140.816 112.522 137.974C111.565 135.208 109.89 135.516 101.517 134.824C101.118 134.824 100.719 134.747 100.321 134.747C99.4435 134.67 98.5664 134.594 97.7689 134.44C90.3525 133.364 87.6411 130.829 87.6411 130.829C87.6411 130.829 91.7082 129.754 96.9714 128.294C98.5664 127.833 100.321 127.372 102.075 126.911C110.05 124.837 118.503 122.609 119.38 122.532C119.619 122.532 119.938 122.917 120.257 123.608C120.417 124.684 120.497 125.682 120.417 126.681C120.497 128.601 120.895 142.967 121.214 154.184Z" fill="#332B69"/>
<path d="M96.2536 67.5278C96.1739 68.2961 95.9346 69.0643 95.5359 69.7557C93.0638 74.826 90.3524 80.2804 87.6411 85.7349C83.574 93.8781 79.6665 101.944 76.4766 108.244C75.5994 110.011 73.9247 111.24 71.9311 111.547C71.8513 111.547 71.8513 111.547 71.7716 111.547C71.2931 111.624 70.8146 111.624 70.3362 111.547C67.4653 111.24 65.2324 109.012 64.9932 106.323C64.9932 105.939 64.9932 105.555 64.9932 105.094C65.0729 104.556 65.2324 104.019 65.4717 103.558C66.5881 100.869 67.864 97.9497 69.2197 94.8C73.3665 85.1971 78.1512 73.8273 82.3778 64.0708C83.574 61.3052 86.5246 59.4614 89.8739 59.7687C93.8612 60.2297 96.7321 63.6867 96.2536 67.5278Z" fill="#6EC3FF"/>
<path d="M72.9676 111.24C72.6486 111.393 72.3296 111.47 71.9309 111.547C71.8512 111.547 71.8511 111.547 71.7714 111.547C62.2816 113.237 50.8779 86.9636 50.6387 85.9649C50.6387 85.9649 50.6387 85.9649 50.6387 85.888C50.0007 82.1237 56.8589 79.4349 58.2943 81.4323C58.8526 82.2005 64.9132 89.6524 69.1398 94.6458C70.7347 96.5664 72.0106 98.1029 72.7284 98.8711C74.084 100.331 75.5195 103.327 75.679 106.092C75.8385 108.32 75.2005 110.318 72.9676 111.24Z" fill="#6EC3FF"/>
<path d="M58.3743 82.5081C58.3743 82.5081 58.3743 82.585 58.3743 82.5081C58.2945 82.9691 58.135 83.3532 57.816 83.7373C57.3375 84.3519 56.6198 85.0433 55.7426 85.581C55.4236 85.7347 55.1844 85.8883 54.8654 86.042C53.9084 86.5029 52.9515 86.6566 52.154 86.5797C51.5958 86.5029 51.1971 86.3493 50.9578 85.9652C50.7983 85.8115 50.7983 85.581 50.7983 85.3506C50.7983 84.5823 51.4363 83.5837 52.473 82.7386C52.7122 82.585 52.9515 82.3545 53.2705 82.2008C53.3502 82.2008 53.3502 82.124 53.43 82.124C54.9452 81.2021 56.4603 80.8949 57.4173 81.2021H57.4971C57.5768 81.2021 57.6566 81.279 57.7363 81.279C57.8958 81.3558 58.0553 81.5094 58.135 81.6631C58.2148 81.8167 58.2945 81.8935 58.2945 82.0472C58.3743 82.2008 58.3743 82.3545 58.3743 82.5081Z" fill="#F5EBE0"/>
<path d="M58.3743 82.585C58.2946 82.9691 58.1351 83.3532 57.8161 83.7374C56.6199 83.3532 54.9452 82.7387 53.2706 82.1241C50.9579 81.279 48.7251 80.5108 48.3263 80.2803C47.4491 79.7426 46.8111 77.5147 46.8111 77.5147C46.8111 77.5147 46.8111 77.3611 46.8111 77.0538C46.8111 76.6697 46.7314 76.2087 46.5719 75.7478C46.1732 74.9796 42.8239 72.3676 42.3454 71.8298C41.8669 71.2921 42.7441 70.2166 43.5416 70.6775C44.339 71.1384 48.1668 74.2113 48.3263 74.2882C48.4858 74.365 52.2339 74.8259 53.5896 75.8246C54.068 76.1319 54.8655 77.2842 55.7427 78.5902C56.3009 79.4353 56.8591 80.3572 57.4174 81.2022C57.8161 81.6632 58.0553 82.1241 58.3743 82.585Z" fill="#FF7D45"/>
<path d="M58.3743 82.5071C58.3743 82.5071 58.3743 82.5839 58.3743 82.5071C58.2946 82.968 58.1351 83.3521 57.8161 83.7363C57.3376 84.3508 56.6199 85.0422 55.7427 85.58C55.4237 85.7337 55.1845 85.8873 54.8655 86.0409L53.2705 82.968C53.2705 82.968 52.9516 82.8912 52.4731 82.7376C50.0807 82.0462 42.7441 79.8951 42.3454 79.6647C41.7871 79.3574 39.7935 78.205 38.4378 77.2063C37.0821 76.2076 34.4505 74.1334 33.5733 73.2115C32.6961 72.2897 33.5732 71.5214 34.1315 71.9055C34.6099 72.2128 38.9163 75.6699 39.953 76.5149C39.0758 75.7467 35.9656 72.9042 35.3277 72.2128C34.6099 71.4446 35.4872 70.6764 36.2049 71.291C36.8429 71.8287 43.1428 77.2063 43.8605 77.8209C43.3023 77.2831 40.3517 74.4407 39.953 73.9798C39.4745 73.442 40.1922 72.6738 40.8302 73.2115C41.4681 73.7493 45.296 76.7454 45.7744 76.899C45.9339 76.9759 46.3326 76.9759 46.8111 76.9759C47.9276 77.0527 49.682 76.9759 50.7187 77.1295C52.1541 77.2831 54.9452 77.7441 55.7427 78.4355C56.0617 78.7428 56.7794 79.8951 57.4971 81.0475C57.8161 81.662 58.1351 82.0462 58.3743 82.5071Z" fill="#FD9B78"/>
<path d="M87.6409 85.8104C83.5738 93.9536 79.6663 102.02 76.4764 108.319C75.5992 110.086 73.9245 111.316 71.9309 111.623C71.8511 111.623 71.8511 111.623 71.7714 111.623C62.2816 113.313 50.8779 87.0395 50.6387 86.0408C50.6387 86.0408 50.6387 86.0408 50.6387 85.964C53.4298 88.1919 54.8652 92.1866 56.7791 95.3364C58.4538 98.1788 61.7234 102.942 64.993 106.322C66.5879 108.012 68.1828 109.395 69.5385 110.086C72.7283 111.7 74.2435 109.241 75.679 106.168C76.1574 105.093 76.6359 103.864 77.1941 102.788C79.1878 98.6398 79.3473 91.1879 79.6663 87.4236C79.9055 83.6593 81.9789 71.3677 81.9789 71.3677C81.9789 71.3677 85.8067 78.3586 87.6409 85.8104Z" fill="#6E9CFF"/>
<path d="M83.5741 61.9964C80.6235 64.6084 79.6666 116.387 79.1084 124.684C78.4704 134.287 121.294 134.824 121.852 126.912C122.411 118.999 128.87 68.9105 126.318 66.9131C122.411 63.7633 120.178 61.0745 107.498 58.9235C96.3335 57.1566 86.6842 59.3076 83.5741 61.9964Z" fill="#9CD6FF"/>
<path d="M110.13 62.688C109.97 56.2349 109.97 56.0812 111.804 49.9354C111.884 49.6281 111.964 49.3208 112.044 49.0135C112.522 45.6333 109.97 42.4836 106.461 42.0227C102.953 41.5617 99.683 44.02 99.2045 47.4002C99.1248 47.7075 99.2045 48.0916 99.2045 48.3989C99.364 54.852 99.364 55.0057 97.5298 61.1515C97.4501 61.4588 97.3703 61.7661 97.2906 62.0734C97.2108 62.6112 98.8855 64.1476 101.437 64.6854C105.026 65.3768 109.89 64.839 110.05 63.6867C110.13 63.3794 110.13 62.9953 110.13 62.688Z" fill="#FD9B78"/>
<path d="M110.767 64.8384C110.767 64.8384 106.86 70.7537 102.952 72.2134C102.314 72.4438 101.676 72.5975 101.038 72.5975C100.241 72.5975 99.6026 72.2134 99.0444 71.6756C96.652 69.2941 96.5723 63.0715 96.5723 63.0715L101.596 62.9946L110.767 64.8384Z" fill="#E8DFD3"/>
<path d="M104.069 68.9092L103.192 71.9053C103.112 71.9821 103.112 72.1357 103.032 72.2125C102.394 72.443 101.756 72.5967 101.118 72.5967C100.321 72.5967 99.6828 72.2125 99.1246 71.6748V71.598L98.8057 68.2946C98.8057 68.0641 98.8854 67.8336 98.9652 67.6032L100.48 65.2217H102.633L104.069 68.0641C104.149 68.2946 104.149 68.6019 104.069 68.9092Z" fill="#44388A"/>
<path d="M98.4866 55.3899C98.2474 56.6959 98.7259 61.0748 101.597 62.9185C102.075 63.2258 97.6892 70.2167 96.7322 69.6021C95.7752 68.9875 95.217 61.4589 95.217 60.6907C95.2968 59.8456 96.8917 58.4628 98.4866 55.3899Z" fill="#F5EBE0"/>
<path d="M115.632 44.5572C115.632 44.5572 113.878 49.858 102.554 54.3906C97.1311 56.5416 94.1008 57.0794 93.4628 56.4648C92.8248 55.927 92.5856 55.4661 92.6653 54.6979C92.7451 53.9296 92.5058 52.3932 92.2666 52.0091C92.0274 51.625 91.6286 50.7799 91.7084 50.0117C91.7084 49.2434 91.5489 48.6289 91.3894 48.552C91.3097 48.4752 90.3527 47.9374 90.4325 47.4765C90.5122 47.0156 92.7451 43.7122 92.9046 43.0976C93.0641 42.483 91.8679 40.332 92.2666 38.181C92.9046 34.6471 96.9716 28.2708 105.744 29.1159C114.516 29.9609 118.822 37.4895 115.632 44.5572Z" fill="#FD9B78"/>
<path d="M94.1008 56.465C93.4628 55.9273 93.2236 55.4663 93.3033 54.6981C93.383 53.9299 93.1438 52.3934 92.9046 52.0093C92.6653 51.6252 92.2666 50.7801 92.3463 50.0119C92.3463 49.2437 92.1869 48.6291 92.0274 48.5523C91.9476 48.4755 90.9907 47.9377 91.0704 47.4767C91.1502 47.0158 93.383 43.7124 93.5425 43.0978C93.702 42.4833 92.5058 40.3322 92.9046 38.1812C93.4628 34.9546 96.9716 29.1929 104.468 29.0393C96.5729 28.8856 92.9046 34.8778 92.2666 38.1812C91.8679 40.3322 93.0641 42.4833 92.9046 43.0978C92.7451 43.7124 90.4325 47.0158 90.4325 47.4767C90.3527 47.9377 91.3097 48.4755 91.3894 48.5523C91.4692 48.6291 91.7084 49.2437 91.7084 50.0119C91.7084 50.7801 92.0274 51.5484 92.2666 52.0093C92.5058 52.4702 92.7451 53.9299 92.6653 54.6981C92.5856 55.4663 92.8248 55.9273 93.4628 56.465C93.6223 56.6187 94.021 56.6955 94.659 56.6955C94.4198 56.6187 94.1805 56.6187 94.1008 56.465Z" fill="#FDBEA7"/>
<path d="M93.941 34.9544C91.1499 33.4947 91.5486 28.5013 94.26 27.5794C96.5726 26.8112 97.1309 28.194 100.959 27.8867C107.657 27.2721 114.276 28.194 115.233 31.4205C115.393 31.8815 117.865 32.5729 117.945 35.4153C118.024 39.4869 114.755 50.4726 111.246 51.9322C111.565 47.8606 113.638 41.1002 110.688 41.3307C108.455 41.4075 107.418 43.1744 106.78 45.94C106.78 45.94 104.627 48.3984 104.069 47.6301C105.265 46.0169 106.062 44.0963 105.743 41.4843C103.351 37.8736 105.265 35.9531 105.026 35.0312C99.1245 36.4908 96.3334 36.1835 93.941 34.9544Z" fill="#44388A"/>
<path d="M36.2845 69.9088C16.2682 69.9088 0 54.2369 0 34.9544C0 15.6718 16.2682 0 36.2845 0C56.3008 0 72.569 15.6718 72.569 34.9544C72.6487 54.2369 56.3008 69.9088 36.2845 69.9088ZM36.2845 0.691406C16.7467 0.691406 0.797461 16.056 0.797461 34.8776C0.797461 53.6991 16.7467 69.0637 36.2845 69.0637C55.8223 69.0637 71.7715 53.6991 71.7715 34.8776C71.7715 16.056 55.902 0.691406 36.2845 0.691406Z" fill="#FAD6AA"/>
<path d="M111.246 39.6398C108.375 38.5643 106.86 39.8702 106.461 38.4874C106.063 37.1046 107.498 34.4158 105.983 33.6476C104.468 32.8794 97.3702 35.9523 94.4994 33.1098C92.426 31.1125 93.7019 28.8078 94.5791 27.5786C94.4994 27.5786 94.4196 27.5786 94.3399 27.6554C91.6285 28.5005 91.15 33.5708 94.0209 35.0304C96.4133 36.2596 99.2044 36.5669 105.185 35.0304C105.425 35.8755 103.59 37.796 105.903 41.4835C106.222 44.0955 105.425 46.0929 104.228 47.6293C104.787 48.3976 106.94 45.9392 106.94 45.9392C107.498 43.2504 108.614 41.4067 110.847 41.3299C112.044 41.2531 112.442 42.3286 112.363 44.0187C113 42.0981 112.841 40.2544 111.246 39.6398Z" fill="#6C5EBF"/>
<path d="M102.553 54.3899C101.198 54.9276 100.081 55.3118 99.0446 55.6959C98.9649 56.08 100.56 59.3066 101.517 59.3834C103.271 59.4602 107.577 53.468 108.853 51.3938C107.179 52.3157 105.105 53.3912 102.553 54.3899Z" fill="#FF7D45"/>
<path d="M118.184 83.7368C118.184 83.7368 120.895 97.6418 121.294 100.638C121.613 103.634 122.012 108.32 120.417 110.087C118.822 111.854 109.491 115.618 105.504 116.694C101.437 117.769 96.9713 118.768 93.8612 119.536C90.7511 120.304 86.2056 121.15 87.322 121.38C88.3587 121.61 89.0765 122.609 92.8245 121.841C96.5726 121.073 97.9283 121.15 100.081 121.38C102.235 121.61 102.873 122.302 105.185 121.38C107.418 120.458 113.718 119.997 115.552 120.612C117.307 121.226 117.785 121.841 118.822 124.683C119.3 125.989 119.699 127.91 120.576 129.216C121.533 128.601 122.012 127.833 122.091 126.988C122.41 122.686 124.404 106.015 125.839 91.3423C122.729 85.8879 118.184 83.7368 118.184 83.7368Z" fill="#6E9CFF"/>
<path d="M136.047 104.095C134.213 94.9528 131.661 82.5844 129.268 70.9841C128.63 67.9112 125.839 65.6065 122.57 65.6065H122.41C117.865 65.5297 114.515 69.6781 115.632 73.9034C118.662 85.35 121.852 97.6416 124.244 106.707C124.643 108.32 125.6 109.933 128.87 110.778C130.305 111.162 131.82 111.009 133.096 110.317C135.409 109.011 136.445 106.476 136.047 104.095Z" fill="#9CD6FF"/>
<path opacity="0.5" d="M84.6109 93.5703C85.3286 86.733 82.8564 80.7409 83.1754 72.5976C83.4944 64.9154 83.9729 62.5339 87.7209 59.9219C85.8868 60.5365 84.4513 61.2279 83.5741 62.0729C80.6235 64.6849 79.6666 116.463 79.1084 124.76C78.9489 126.988 81.1818 128.755 84.6109 129.984C78.2312 114.773 83.8931 100.408 84.6109 93.5703Z" fill="#FAFBFC"/>
<path d="M104.627 117.463C104.627 117.463 98.7258 119.46 97.6094 119.614C96.4929 119.767 89.874 121.227 89.3955 121.304C88.917 121.457 87.0828 121.765 86.5246 121.765C85.9664 121.765 85.7272 120.996 86.2056 120.92C86.6841 120.843 88.8373 120.151 88.8373 120.151C88.8373 120.151 90.5119 119.614 90.4322 119.23C90.4322 119.23 87.1626 120.075 86.4449 120.228C85.7271 120.382 83.4145 120.228 82.7765 120.075C82.1385 119.998 82.1385 119.153 82.936 118.999C83.6537 118.845 86.4449 118.615 86.4449 118.615C86.4449 118.615 89.5549 117.77 89.5549 117.386C89.5549 117.002 82.3778 118.999 81.5803 119.23C80.8626 119.383 80.3841 118.385 81.3411 118C82.298 117.616 88.8373 115.465 88.8373 115.465C88.8373 115.465 83.4145 116.233 82.0588 116.387C81.0221 116.541 81.1018 115.235 81.8993 115.081C82.7765 114.927 88.4385 114.082 88.7575 114.006C89.1562 113.929 86.2854 114.313 85.8069 114.313C85.3284 114.313 85.4879 113.545 85.9664 113.391C86.4448 113.237 88.1993 112.776 88.6778 112.469C89.1562 112.162 92.4258 111.47 93.5423 111.47C94.6587 111.47 98.0081 112.93 99.0448 113.084L103.67 112.469L104.627 117.463Z" fill="#FD9B78"/>
<path d="M53.669 82.6607C52.6323 81.5852 50.7981 81.4315 48.7247 80.8938C46.6513 80.356 43.1425 79.2805 41.3881 78.5891C39.6337 77.8977 33.573 73.2883 33.573 73.2883C34.4502 74.2102 37.0818 76.2076 38.4375 77.2831C39.7932 78.2818 41.7868 79.4341 42.3451 79.7414C42.8235 79.9719 50.0804 82.1229 52.4728 82.8144C52.9512 82.968 53.2702 83.0448 53.2702 83.0448L54.8652 86.1177C55.1841 85.9641 55.4234 85.8104 55.7424 85.6568C55.7424 85.6568 55.7424 85.6568 55.8221 85.6568C55.1841 84.274 54.2272 83.1985 53.669 82.6607Z" fill="#FF7D45"/>
<path d="M101.676 118.384C101.517 118 101.038 117.769 100.321 118.153C98.4865 119.075 95.2169 119.383 93.7815 119.613C92.4258 119.844 90.6714 120.689 88.6777 121.15C87.5613 121.457 86.5245 121.534 85.9663 121.534C86.0461 121.687 86.2056 121.841 86.4448 121.841C87.003 121.841 88.9169 121.457 89.3157 121.38C89.7941 121.226 96.4131 119.844 97.5295 119.69C98.1675 119.536 100.002 118.998 101.676 118.384Z" fill="#FF7D45"/>
<path d="M98.407 117.308C97.9285 115.925 97.9285 114.466 98.407 113.544C98.6462 113.16 98.9652 112.853 99.3639 112.776C101.916 112.008 118.742 104.248 121.852 102.712C125.202 101.099 128.71 100.791 131.183 101.79C132.778 102.405 133.814 103.557 134.372 105.093C134.452 105.324 134.532 105.631 134.612 105.862C134.771 106.784 134.532 107.629 133.894 108.55C128.79 115.465 100.959 119.613 100.64 119.613C99.6829 119.767 98.8854 118.614 98.407 117.308Z" fill="#F5EBE0"/>
<path d="M136.047 105.478C135.01 100.408 128.95 99.3321 123.048 102.175C119.779 103.711 103.032 111.47 100.56 112.238C97.7688 113.083 99.5232 119.844 101.916 119.537C104.308 119.229 137.801 114.005 136.047 105.478Z" fill="#9CD6FF"/>
<path d="M103.989 68.0641L102.554 65.2217H101.836C102.314 66.1436 103.351 68.2946 103.192 69.2165C103.032 70.1383 102.235 71.3675 101.916 72.5199C102.235 72.443 102.554 72.3662 102.873 72.2126C102.952 72.1357 102.952 71.9821 103.032 71.9053L103.909 68.9092C104.149 68.6019 104.149 68.2946 103.989 68.0641Z" fill="#332B69"/>
<path d="M111.086 55.6961C111.086 55.4657 109.81 58.0776 107.498 60.2287C104.946 62.6102 102.793 62.9943 101.596 62.9175C100.799 62.9175 104.467 70.3693 105.743 71.2912C107.019 72.213 112.92 63.3016 112.92 61.1506C112.043 58.6154 111.325 57.4631 111.086 55.6961Z" fill="#F5EBE0"/>
</svg>
