<svg width="183" height="168" viewBox="0 0 183 168" fill="none" xmlns="http://www.w3.org/2000/svg">
<path d="M106.64 166.984C105.294 167.156 103.947 167.242 102.68 167.328C101.017 167.414 99.4331 167.5 97.8492 167.5C94.6021 167.5 91.4342 167.328 88.3455 166.898C84.0688 166.382 79.9506 165.436 76.0699 164.233C69.3381 162.169 63.3192 159.073 57.8545 155.29C51.9939 151.249 46.9253 146.434 42.4902 141.102C18.0183 111.609 14.692 65.9509 31.8778 52.0212C53.7363 34.3082 75.5155 78.9348 93.2557 87.7913C110.996 96.6478 145.209 87.1034 159.227 96.4758C173.166 105.848 175.383 159.503 106.64 166.984Z" fill="#EAEAF2"/>
<path d="M77.1787 23.5601C79.2378 21.3244 85.732 14.6176 93.0182 14.8755C101.809 15.1335 106.323 22.0983 115.114 22.0983C123.905 22.0983 123.034 5.67505 131.27 5.67505C140.061 5.67505 137.052 17.7131 145.843 17.7131C154.634 17.7131 157.96 0 166.83 0V23.5601H77.1787V23.5601Z" fill="#EAEAF2"/>
<path d="M50.885 98.9694H30.2937L40.9061 49.0117H61.4974L50.885 98.9694Z" fill="#FAFBFC"/>
<path d="M51.2019 99.3993H29.8186L40.5894 48.5818H61.9727L51.2019 99.3993ZM30.769 98.5395H50.5683L61.0223 49.4416H41.223L30.769 98.5395Z" fill="#FAD6AA"/>
<path d="M53.4985 86.4164H32.9072L34.6496 78.3337H55.2408L53.4985 86.4164Z" fill="#EAEAF2"/>
<path d="M91.5132 81.8569H10.8904C9.06888 81.8569 7.40576 80.2232 7.16816 78.2455L0.436396 18.9154C0.198804 16.9377 1.54514 15.304 3.36668 15.304H83.9895C85.811 15.304 87.4742 16.9377 87.7118 18.9154L94.4435 78.2455C94.6811 80.3091 93.3348 81.8569 91.5132 81.8569Z" fill="#FAFBFC"/>
<path d="M91.5132 82.2877H10.8904C8.83125 82.2877 7.00973 80.4821 6.77213 78.3324L0.0403643 19.0023C-0.11803 17.9704 0.198759 16.9386 0.832337 16.1647C1.46592 15.3909 2.33707 14.9609 3.36664 14.9609H83.9895C86.0486 14.9609 87.8701 16.7666 88.1077 18.9163L94.8395 78.2464C94.9979 79.2783 94.6811 80.3101 94.0475 81.084C93.4139 81.8578 92.5428 82.2877 91.5132 82.2877ZM3.36664 15.9068C2.57466 15.9068 1.86189 16.2507 1.3867 16.8526C0.91152 17.4545 0.673943 18.2284 0.832337 19.0023L7.56411 78.3324C7.8017 80.0521 9.22724 81.5139 10.8904 81.5139H91.5132C92.3052 81.5139 93.018 81.1699 93.4932 80.568C93.9683 79.9661 94.2059 79.1923 94.0475 78.4184L87.3158 19.0883C87.0782 17.3685 85.6526 15.9068 83.9895 15.9068H3.36664Z" fill="#FAD6AA"/>
<path d="M10.4153 78.3335L3.7627 19.0034H84.3856L91.1173 78.3335H10.4153Z" fill="#FAFBFC"/>
<path d="M91.5926 78.7637H10.0986L3.2876 18.5737H84.7816L91.5926 78.7637ZM10.8113 77.9039H90.6422L84.0688 19.4336H4.23797L10.8113 77.9039Z" fill="#FAD6AA"/>
<path d="M34.9663 65.1771L25.2251 71.2821V34.0503L34.9663 27.9453V65.1771Z" fill="#DCDCF2"/>
<path d="M15.4839 65.1771L25.2251 71.2821V34.0503L15.4839 27.9453V65.1771Z" fill="#EAEAF2"/>
<path d="M34.9666 27.9446L25.2254 34.0496L15.4841 27.9446L25.2254 21.8396L34.9666 27.9446Z" fill="#F7F7FF"/>
<path d="M34.9664 50.6441L25.2251 56.7491L15.4839 50.6441L25.2251 44.5391L34.9664 50.6441Z" fill="#9CD6FF"/>
<path d="M34.9664 65.1768L25.2251 71.2817L15.4839 65.1768L25.2251 59.0718L34.9664 65.1768Z" fill="#3CF3B3"/>
<path d="M34.9663 65.1764L25.2251 71.2814V56.7498L34.9663 50.6448V65.1764Z" fill="#578CFF"/>
<path d="M15.4839 65.1764L25.2251 71.2814V56.7498L15.4839 50.6448V65.1764Z" fill="#91D2FF"/>
<path d="M58.567 65.1771L48.8257 71.2821V34.0503L58.567 27.9453V65.1771Z" fill="#DCDCF2"/>
<path d="M39.0845 65.1771L48.8257 71.2821V34.0503L39.0845 27.9453V65.1771Z" fill="#EAEAF2"/>
<path d="M58.567 27.9446L48.8257 34.0496L39.0845 27.9446L48.8257 21.8396L58.567 27.9446Z" fill="#F7F7FF"/>
<path d="M58.567 44.1101L48.8257 50.2151L39.0845 44.1101L48.8257 38.0051L58.567 44.1101Z" fill="#FDA586"/>
<path d="M58.567 65.1768L48.8257 71.2817L39.0845 65.1768L48.8257 59.0718L58.567 65.1768Z" fill="#3CF3B3"/>
<path d="M58.567 65.1756L48.8257 71.2806V50.2141L58.567 44.1091V65.1756Z" fill="#FD7E51"/>
<path d="M39.0845 65.0036L48.8257 71.1086V50.2141L39.0845 44.1091V65.0036Z" fill="#FD936D"/>
<path d="M82.0887 65.1771L72.3474 71.2821V34.0503L82.0887 27.9453V65.1771Z" fill="#DCDCF2"/>
<path d="M62.6062 65.1771L72.3475 71.2821V34.0503L62.6062 27.9453V65.1771Z" fill="#EAEAF2"/>
<path d="M82.0887 40.8425L72.3475 46.9475L62.6062 40.8425L72.3475 34.7375L82.0887 40.8425Z" fill="#7AA4FF"/>
<path d="M82.0887 65.1768L72.3475 71.2817L62.6062 65.1768L72.3475 59.0718L82.0887 65.1768Z" fill="#3CF3B3"/>
<path d="M82.0887 65.1772L72.3474 71.2822V46.9483L82.0887 40.8433V65.1772Z" fill="#427EFF"/>
<path d="M62.6062 65.1772L72.3475 71.2822V46.9483L62.6062 40.8433V65.1772Z" fill="#709DFF"/>
<path d="M82.0887 27.9446L72.3475 34.0496L62.6062 27.9446L72.3475 21.8396L82.0887 27.9446Z" fill="#F7F7FF"/>
<path d="M71.7932 99.4001H30.2146C29.977 99.4001 29.8186 99.2282 29.8186 98.9702C29.8186 98.7123 29.977 98.5403 30.2146 98.5403H71.7932C72.0308 98.5403 72.1892 98.7123 72.1892 98.9702C72.1892 99.2282 72.0308 99.4001 71.7932 99.4001Z" fill="#FAD6AA"/>
<path d="M74.4069 102.839C51.9148 102.839 29.502 102.753 7.24755 102.581C7.00996 102.581 6.85156 102.409 6.85156 102.151C6.85156 101.893 7.00996 101.721 7.24755 101.721C51.6772 102.065 96.9781 102.065 141.883 101.721C142.121 101.721 142.279 101.893 142.279 102.151C142.279 102.409 142.121 102.581 141.883 102.581C119.47 102.753 96.8989 102.839 74.4069 102.839Z" fill="#FAD6AA"/>
<path d="M7.24755 99.4862C7.00996 99.4862 6.85156 99.3142 6.85156 99.0563C6.85156 98.7983 7.00996 98.6263 7.24755 98.6263C51.6772 98.3684 96.9781 98.3684 141.883 98.6263C142.121 98.6263 142.279 98.7983 142.279 99.0563C142.279 99.3142 142.121 99.4862 141.883 99.4862C96.9781 99.2282 51.6772 99.2282 7.24755 99.4862Z" fill="#FAD6AA"/>
<path d="M169.285 57.2672V54.0857L166.671 53.6558C166.592 53.0539 166.434 52.538 166.275 52.0221L168.334 50.2164L166.83 47.4648L164.295 48.4967C163.978 48.0667 163.583 47.6368 163.187 47.2929L164.137 44.5413L161.603 42.9076L159.939 45.1432C159.464 44.9713 158.989 44.7993 158.435 44.7133L158.039 41.7898H155.108L154.712 44.6273C154.158 44.7133 153.683 44.8853 153.208 45.0572L151.545 42.8216L149.01 44.4553L149.961 47.1209C149.565 47.4649 149.169 47.8948 148.852 48.3247L146.397 47.2929L144.892 50.0444L146.951 51.8501C146.793 52.366 146.634 52.9679 146.555 53.5698L144.021 53.9998V57.1812L146.555 57.6112C146.634 58.2131 146.793 58.815 146.951 59.3309L144.971 61.0506L146.476 63.8021L148.852 62.7703C149.248 63.2002 149.644 63.6302 150.04 64.0601L149.089 66.6397L151.624 68.2734L153.208 66.1237C153.762 66.2957 154.237 66.4677 154.792 66.5537L155.188 69.3052H158.118L158.514 66.5537C159.068 66.4677 159.623 66.2957 160.098 66.0378L161.682 68.1874L164.216 66.5537L163.266 63.8881C163.662 63.4582 164.058 63.1143 164.374 62.5983L166.75 63.6302L168.255 60.8786L166.196 59.0729C166.354 58.557 166.513 57.9551 166.592 57.3532L169.285 57.2672ZM156.534 63.8021C152.495 63.8021 149.169 60.1907 149.169 55.8055C149.169 51.4202 152.495 47.8088 156.534 47.8088C160.573 47.8088 163.899 51.4202 163.899 55.8055C163.978 60.2767 160.652 63.8021 156.534 63.8021Z" fill="#EAEAF2"/>
<path d="M148.852 7.56651V1.71948H143.467V7.56651H141.803L146.159 12.7257L150.594 7.56651H148.852Z" fill="#FD936D"/>
<path d="M121.291 6.87862L116.856 1.71948L112.421 6.87862H114.164V16.3371H119.549V6.87862H121.291Z" fill="#9CD6FF"/>
<path d="M70.6052 96.5625H30.2146V99.0561H72.902C72.902 97.5943 71.8724 96.5625 70.6052 96.5625Z" fill="#FAFBFC"/>
<path d="M72.9019 99.3993H29.8186V96.0459H70.6052C72.0307 96.0459 73.2187 97.3357 73.2187 98.8834V99.3133L72.9019 99.3993ZM30.6106 98.5395H72.4267C72.2684 97.5936 71.4764 96.9058 70.6052 96.9058H30.6106V98.5395Z" fill="#FAD6AA"/>
<path d="M36.788 98.9701H20.7109C20.7109 97.5943 21.7405 96.5625 22.9285 96.5625H34.4913C35.7585 96.5625 36.788 97.5943 36.788 98.9701Z" fill="#FF895D"/>
<path d="M36.788 99.3993H20.3149V98.9694C20.3149 97.3357 21.5029 96.0459 22.9285 96.0459H34.4913C35.9168 96.0459 37.1048 97.3357 37.1048 98.8834V99.3133L36.788 99.3993ZM21.1861 98.5395H36.392C36.2336 97.5936 35.4416 96.9058 34.5704 96.9058H23.0077C22.1365 96.9917 21.3445 97.6796 21.1861 98.5395Z" fill="#FAD6AA"/>
<path d="M132.221 46.8625C131.033 48.5822 129.449 50.302 127.469 51.8497C125.726 53.1395 123.588 54.3433 121.212 55.0312C120.341 55.2891 119.549 55.5471 118.757 55.7191C117.569 55.977 116.54 56.149 115.51 56.149C114.243 56.235 113.213 56.149 112.342 55.977C111.55 55.805 111.075 55.5471 110.758 55.2891C110.204 54.6872 110.125 53.4834 110.204 52.7095C110.204 52.0217 109.333 46.7765 109.412 45.0568C109.491 43.3371 110.758 41.5314 111.075 40.8435C111.392 40.1556 111.233 38.3499 111.392 36.6302C111.55 34.9105 113.213 31.0411 116.46 28.7195C119.707 26.3979 127.39 27.0858 131.745 31.2991C136.18 35.4264 134.438 43.681 132.221 46.8625Z" fill="#FD9B78"/>
<path d="M110.917 53.2243C110.917 52.5364 110.045 47.2913 110.125 45.5716C110.204 43.8519 111.471 42.0462 111.788 41.2723C112.105 40.5844 111.946 38.7787 112.105 37.059C112.263 35.3393 113.926 31.4699 117.173 29.1483C120.183 27.0847 126.756 27.4286 131.191 30.6101C126.756 26.9127 119.628 26.3968 116.54 28.6324C113.292 30.954 111.629 34.8234 111.471 36.5431C111.313 38.2628 111.471 40.0685 111.154 40.7564C110.837 41.4443 109.57 43.25 109.491 45.0557C109.412 46.7754 110.362 52.0205 110.283 52.7084C110.283 53.3963 110.362 54.6861 110.837 55.288C110.996 55.46 111.154 55.5459 111.392 55.7179C110.996 55.116 110.917 53.9122 110.917 53.2243Z" fill="#FDBEA7"/>
<path d="M70.1298 98.9691L67.4371 103.612C67.4371 103.612 66.5659 103.182 65.4571 102.666C63.7148 101.893 61.3389 100.775 60.7845 100.345C59.8341 99.7429 53.9735 96.1315 53.5776 95.8736C53.1816 95.6156 51.5184 94.5838 51.1225 94.1539C50.8849 93.9819 50.8849 93.638 51.0433 93.38C51.1225 93.208 51.2809 93.122 51.5184 93.208C51.9144 93.466 53.9735 94.4978 53.9735 94.4978C53.9735 94.4978 55.5575 95.2717 55.7951 94.9277C55.7951 94.9277 52.7856 93.294 52.152 92.8641C51.5184 92.5201 49.9345 90.6285 49.5385 90.1125C49.1425 89.5966 49.6969 88.9087 50.3305 89.3387C50.9641 89.7686 53.1816 91.4883 53.1816 91.4883C53.1816 91.4883 56.1119 93.0361 56.3495 92.6921C56.5871 92.4342 49.9345 88.9087 49.2217 88.4788C48.5881 88.1349 48.9049 86.9311 49.8553 87.361C50.8057 87.7049 56.7455 90.4565 57.0623 90.6284C56.7455 90.3705 52.548 87.361 51.5184 86.5871C50.6473 85.8992 51.5976 84.8674 52.3104 85.3833C53.0232 85.8992 57.775 89.2527 58.171 89.4247C58.4878 89.5966 56.1119 87.8769 55.7951 87.533C55.4783 87.189 56.1119 86.6731 56.5871 86.8451C57.0623 87.103 58.6462 87.9629 59.2006 88.0489C59.7549 88.1349 62.6852 89.9406 63.4772 90.7144C64.2692 91.4883 65.7739 95.0997 66.4075 95.9596L70.1298 98.9691Z" fill="#FD9B78"/>
<path d="M65.4574 102.668C63.715 101.894 61.3391 100.776 60.7847 100.346C59.8344 99.7443 53.9738 96.1329 53.5778 95.8749C53.1818 95.617 51.5187 94.5851 51.1227 94.1552C50.8851 93.9832 50.8851 93.6393 51.0435 93.3813C51.4395 93.8113 52.073 94.5851 52.865 94.9291C54.053 95.531 55.3993 95.703 56.3497 96.3049C57.3001 96.9068 58.1712 98.1106 59.676 98.8844C61.2599 99.7443 64.507 101.464 65.3782 101.808C65.6158 102.066 65.695 102.41 65.4574 102.668Z" fill="#FF7D45"/>
<path d="M128.102 48.7536C128.102 49.0976 128.023 49.5275 127.944 49.8714C127.786 50.6453 127.627 51.2472 127.548 51.9351C126.518 57.0942 126.518 57.8681 126.994 64.317C126.994 64.661 127.073 65.0049 126.994 65.4349C126.756 69.3042 123.667 72.1417 120.103 71.8838C116.54 71.6258 113.926 68.2724 114.164 64.403C114.164 64.0591 114.243 63.7151 114.322 63.2852C114.48 62.6833 114.56 62.1674 114.639 61.6515C115.193 59.2439 115.431 57.6961 115.51 56.2344C115.51 56.0624 115.51 55.9764 115.51 55.8044C115.589 54.0847 115.431 52.279 115.193 48.8396C115.193 48.4957 115.114 48.1517 115.193 47.7218C115.431 43.8524 118.52 41.0149 122.083 41.2729C125.647 41.5308 128.34 44.8843 128.102 48.7536Z" fill="#FD9B78"/>
<path d="M116.777 43.7664C117.094 44.4543 117.807 42.5626 118.915 41.6168C120.103 40.585 121.687 40.8429 122.242 41.6168C123.984 43.9384 121.766 55.2025 127.469 55.8044C131.983 56.2344 134.28 47.8938 135.072 41.4448C135.626 36.9736 134.042 28.9769 127.865 27.4291C124.697 26.6553 121.45 27.1712 118.599 26.8273C115.827 26.5693 114.559 25.8814 112.58 27.4291C109.095 30.2667 113.292 33.9641 115.747 36.8016C117.411 38.6933 116.539 43.0785 116.777 43.7664Z" fill="#44388A"/>
<path d="M123.35 41.7899C123.113 40.3282 122.242 39.7263 120.183 39.7263C118.123 39.8123 117.569 37.8346 117.015 36.3728C116.54 34.9111 113.53 32.7614 112.659 30.2678C112.104 28.6341 113.609 27.1724 114.718 26.3125C114.005 26.3985 113.292 26.6564 112.5 27.2583C109.016 30.0959 113.213 33.7933 115.668 36.6308C117.331 38.6085 116.46 42.9937 116.698 43.5956C117.015 44.2835 117.727 42.3918 118.836 41.446C120.024 40.4142 121.608 40.6721 122.163 41.446C123.113 42.7358 122.875 46.7771 123.43 50.2165C123.35 49.5286 123.588 43.2517 123.35 41.7899Z" fill="#6C5EBF"/>
<path d="M119.945 54.1709C119.945 54.1709 119.311 54.8588 118.757 55.7186C118.52 56.0626 118.203 56.4925 117.965 56.8365C117.332 58.0403 117.49 60.6198 114.56 61.5657C115.114 59.1581 115.352 57.6103 115.431 56.1486C114.164 56.2346 113.134 56.1486 112.263 55.9766C112.263 55.9766 113.688 55.9766 115.431 55.7186C117.015 55.5467 118.678 55.0308 119.945 54.1709Z" fill="#FF7D45"/>
<path d="M98.6407 96.0456C98.6407 96.0456 96.1064 93.38 95.3144 92.6921C94.5224 91.9183 92.4633 90.6285 91.1961 89.4247C90.0082 88.2209 88.5035 86.7591 87.8699 86.3292C87.2363 85.8993 84.8604 84.9534 84.0684 84.8674C83.8308 84.8674 83.91 85.6413 85.0188 86.1572C85.0188 86.1572 86.9987 87.275 86.9195 87.533C86.9195 87.533 84.5436 86.5872 83.8308 86.5012C83.118 86.3292 80.8213 85.6413 80.2669 85.5553C79.7126 85.4693 79.7126 86.0712 80.0294 86.3292C80.0294 86.3292 79.475 86.1572 79.3166 86.2432C79.1582 86.3292 78.9998 86.5872 79.5542 86.9311C80.1086 87.275 80.4253 87.447 80.4253 87.447C80.4253 87.447 79.9501 87.447 80.1085 87.9629C80.3461 88.4788 82.4053 89.9406 83.118 90.5425C83.7516 91.0584 86.4443 93.9819 86.4443 94.6698C86.5235 95.2717 85.2564 94.9278 84.3852 94.9278C83.514 94.8418 82.3261 95.1857 81.6133 95.6156C80.9005 96.1316 81.6133 96.8194 82.3261 96.7335C83.0388 96.5615 84.5436 96.5615 85.098 96.9054C85.6524 97.2494 88.1075 98.5392 89.3746 98.4532C90.6418 98.3672 92.7801 97.5933 93.4929 98.0232C94.1265 98.4532 96.2648 100.431 96.2648 100.431L98.6407 96.0456Z" fill="#FD9B78"/>
<path d="M124.063 124.077V143.337L116.54 142.735L92.7804 140.758C92.3052 140.672 91.9092 141.102 91.83 141.618C91.83 141.618 91.7508 142.306 91.5924 143.423C90.9589 148.497 89.0581 162.684 88.5037 166.124C88.4246 166.382 88.3454 166.64 88.2662 166.897C83.9895 166.382 79.8713 165.436 75.9906 164.232C75.9906 164.146 75.9906 164.06 75.9114 163.888C75.5154 160.449 75.1986 150.13 75.1194 142.048C75.0402 136.287 74.961 131.643 74.961 131.643C74.8818 131.041 74.8818 130.354 74.8818 129.666C75.0402 127 76.3074 124.593 78.0497 122.959C79.6337 121.583 81.6136 120.723 83.7519 120.723C83.9895 120.723 84.1479 120.723 84.3855 120.723H84.4647C84.6231 120.723 84.7815 120.723 84.8607 120.723C84.8607 120.723 84.8607 120.723 84.9399 120.723L124.063 124.077Z" fill="#332B69"/>
<path d="M119.707 136.029C119.549 138.695 118.361 141.102 116.539 142.736C115.035 144.112 113.055 144.972 110.916 144.972C110.679 144.972 110.441 144.972 110.204 144.972L91.6715 143.424L75.1985 142.048L59.755 140.759C59.2798 140.673 58.8839 141.102 58.8047 141.618C58.8047 141.618 58.4087 148.755 57.7751 155.29C51.9145 151.249 46.8459 146.434 42.4108 141.102C42.1732 135.857 41.9356 131.644 41.9356 131.644C41.8565 131.042 41.8564 130.354 41.8564 129.666C42.1732 124.593 46.1331 120.81 50.7265 120.81C50.9641 120.81 51.1225 120.81 51.3601 120.81H51.4393C51.5977 120.81 51.7561 120.81 51.9145 120.81C51.9145 120.81 51.9145 120.81 51.9937 120.81L78.208 122.959L111.55 125.711C116.46 126.141 120.103 130.784 119.707 136.029Z" fill="#44388A"/>
<path d="M131.27 62.7698C131.35 61.9959 130.082 60.7062 129.29 59.3304C128.34 57.6107 128.974 55.719 126.281 55.719C123.667 55.719 114.639 58.7285 113.451 61.824C112.263 64.9195 111.392 68.9608 111.392 68.9608C111.392 68.9608 131.112 64.4895 131.27 62.7698Z" fill="white"/>
<path d="M122.4 117.887C125.964 113.674 120.5 107.311 117.332 105.591C114.164 103.871 97.2157 93.9831 96.2654 93.1232C95.315 92.2634 91.1968 97.5085 91.8303 98.2824C92.4639 99.0562 115.352 126.228 122.4 117.887Z" fill="#6EC3FF"/>
<path d="M140.378 69.8203C140.378 76.0113 128.498 130.096 126.993 134.052C124.38 141.102 91.0379 135.599 93.4138 124.679C93.889 122.53 94.3642 120.466 94.7602 118.402V118.316C95.077 116.854 95.3938 115.393 95.7105 114.017C98.8784 99.0555 101.175 87.1894 102.918 79.5367C103.868 75.2374 104.739 72.2279 105.452 70.7662C105.61 70.4222 105.769 70.1643 105.927 69.9923C108.699 66.8108 112.342 63.2854 122.004 61.3937C123.113 61.2218 124.38 60.9638 125.647 60.7918C136.656 59.4161 140.378 65.3491 140.378 69.8203Z" fill="#9CD6FF"/>
<path d="M91.3547 147.552C91.8299 149.616 93.4931 151.078 95.473 151.078H104.977C106.957 151.078 108.699 149.53 109.095 147.552H91.3547Z" fill="#44388A"/>
<path d="M102.68 151.077V167.242C101.017 167.328 99.4328 167.414 97.8489 167.414V151.077H102.68Z" fill="#44388A"/>
<path d="M101.651 136.115C96.582 141.618 81.0593 140.07 73.9315 139.812C66.8038 139.554 60.1512 137.147 57.8545 138.093C55.9538 138.866 56.3497 142.22 56.4289 146.261C56.5081 147.981 56.1914 151.076 54.2114 152.71C55.3994 153.57 56.5081 154.516 57.7753 155.29C58.4089 148.755 58.8049 141.618 58.8049 141.618C58.8841 141.102 59.2801 140.758 59.7552 140.758L75.1987 142.048L91.6717 143.424L105.452 144.541C105.531 137.405 105.056 132.503 101.651 136.115Z" fill="#332B69"/>
<path d="M118.203 79.4502L118.915 78.1604C118.599 78.7623 118.282 79.2782 118.203 79.4502Z" fill="#9CD6FF"/>
<path d="M119.312 77.3015C119.628 76.6996 119.945 76.0118 120.262 75.4099C120.42 75.1519 120.579 74.8939 120.737 74.636L119.312 77.3015Z" fill="#9CD6FF"/>
<path d="M121.608 72.1425C121.529 72.5724 120.895 73.9482 120.183 75.41C112.263 88.9957 102.838 105.333 96.265 116.597C95.869 117.285 95.3938 117.887 94.8394 118.317C94.7602 118.403 94.681 118.403 94.6018 118.489C93.1763 119.607 91.4339 120.037 89.6124 119.607C86.2069 118.747 84.1478 115.135 84.9398 111.438C85.0982 110.836 85.3358 110.234 85.5734 109.718C85.8902 109.03 86.2861 108.342 86.6029 107.655C86.9197 107.053 87.2365 106.451 87.5533 105.849C94.0475 93.123 104.501 72.7444 105.531 70.7667C105.848 70.1648 107.115 69.7349 108.778 69.4769C113.688 68.4451 122.321 68.875 121.608 72.1425Z" fill="#9CD6FF"/>
<path d="M94.998 118.058C94.9188 118.144 94.8396 118.23 94.8396 118.316C94.7604 118.402 94.6812 118.488 94.602 118.574C87.7911 126.227 64.3487 105.074 63.0815 103.355C62.1311 102.151 64.1111 98.7115 65.6158 97.1637C66.2494 96.4758 66.883 96.1319 67.1998 96.3898C68.1501 97.0777 82.4056 103.699 87.5535 105.934C88.1078 106.192 88.5038 106.364 88.8206 106.45C89.1374 106.622 89.5334 106.794 89.9294 107.052C92.2261 108.428 95.0772 111.179 95.79 114.103C96.0276 115.307 95.9484 116.768 94.998 118.058Z" fill="#9CD6FF"/>
<path opacity="0.5" d="M122.004 61.3931C121.688 61.4791 111.471 65.4344 109.016 68.9598C108.937 69.1318 108.858 69.2178 108.699 69.3897C107.115 71.7973 104.819 75.9247 102.918 79.5361C101.809 81.5997 100.859 83.5774 100.304 84.8672C98.7995 88.3066 91.0382 106.278 88.9791 107.739C88.1079 108.341 87.3159 107.997 86.6032 107.739C85.0984 107.137 83.6729 105.418 80.2674 103.698C75.7531 101.462 68.1502 100.947 65.6951 97.2491C66.3286 96.5612 66.9622 96.2173 67.279 96.4752C68.2294 97.1631 82.4849 103.784 87.6327 106.02C94.1269 93.2938 104.581 72.9152 105.611 70.9375C105.769 70.5935 105.927 70.3356 106.086 70.1636C108.699 66.8102 112.342 63.1988 122.004 61.3931Z" fill="#FAFBFC"/>
<path d="M154.237 82.2886C154.237 82.3746 154.237 82.3746 154.237 82.4605L135.864 146.09C135.626 146.95 134.834 147.552 134.042 147.552H61.1014C59.5966 147.552 58.4087 146.262 58.4087 144.628V144.542C58.4087 142.908 59.5966 141.619 61.1014 141.619H91.3548L103.947 98.11L109.253 79.709C109.808 77.7313 111.471 76.4415 113.372 76.4415H150.198C152.891 76.3556 154.95 79.2791 154.237 82.2886Z" fill="#FF895D"/>
<path d="M93.4141 133.967L93.7308 132.935H139.507L139.19 133.967H93.4141ZM98.4827 116.597L98.1659 117.629H143.942L144.259 116.597H98.4827ZM96.1068 124.766L95.79 125.798H141.566L141.883 124.766H96.1068ZM105.531 92.0915L105.214 93.1233H150.99L151.307 92.0915H105.531ZM107.907 83.9229L107.59 84.9547H153.366L153.683 83.9229H107.907ZM103.155 100.26L102.839 101.292H148.615L148.931 100.26H103.155ZM100.859 108.429L100.542 109.461H146.318L146.635 108.429H100.859Z" fill="#FF7745"/>
<path d="M154.238 82.2887C153.921 80.655 153.129 78.3334 150.832 77.9035C147.189 77.3016 144.892 78.6773 135.23 78.2474C125.647 77.9035 113.609 77.2156 111.788 79.0213C109.887 80.741 106.086 94.8426 103.868 98.0241L109.174 79.6232C109.729 77.6455 111.392 76.3557 113.293 76.3557H150.119C152.891 76.3557 154.95 79.2792 154.238 82.2887Z" fill="#FDAD90"/>
<path d="M182.194 83.5788V81.2572L179.819 80.9992C179.739 80.1394 179.502 79.3655 179.264 78.5916L181.244 77.0439L180.214 75.0662L177.997 76.184C177.522 75.4962 176.967 74.8942 176.334 74.3783L177.363 71.9707L175.542 70.8529L174.116 73.0026C173.404 72.6586 172.691 72.4867 171.899 72.3147L171.661 69.7351H169.523L169.285 72.3147C168.493 72.4007 167.78 72.6586 167.068 72.9166L165.642 70.7669L163.821 71.8848L164.85 74.2923C164.217 74.8083 163.662 75.4102 163.187 76.098L160.97 74.9802L159.94 76.9579L161.92 78.5056C161.603 79.2795 161.445 80.0534 161.286 80.9133L158.91 81.1712V83.4928L161.286 83.7508C161.366 84.6106 161.603 85.3845 161.841 86.1584L159.861 87.7061L160.89 89.6838L163.108 88.566C163.583 89.2539 164.137 89.8558 164.771 90.3717L163.741 92.7793L165.563 93.8971L166.989 91.7474C167.701 92.0914 168.414 92.2634 169.206 92.4353L169.444 95.0149H171.582L171.82 92.4353C172.612 92.3493 173.324 92.0914 174.037 91.8334L175.463 93.9831L177.284 92.8653L176.255 90.4577C176.888 89.9417 177.443 89.3399 177.918 88.652L180.135 89.7698L181.165 87.7921L179.185 86.2444C179.502 85.4705 179.66 84.6966 179.819 83.8368L182.194 83.5788ZM177.997 82.375C177.997 86.8463 174.591 90.5437 170.473 90.5437C166.355 90.5437 162.949 86.8463 162.949 82.375C162.949 77.9037 166.355 74.2064 170.473 74.2064C174.671 74.2064 177.997 77.9037 177.997 82.375ZM170.473 77.2159C167.86 77.2159 165.721 79.5375 165.721 82.375C165.721 85.2125 167.86 87.5342 170.473 87.5342C173.087 87.5342 175.225 85.2125 175.225 82.375C175.225 79.5375 173.166 77.2159 170.473 77.2159ZM170.473 86.1584C168.572 86.1584 166.989 84.4387 166.989 82.375C166.989 80.3113 168.572 78.5916 170.473 78.5916C172.374 78.5916 173.958 80.3113 173.958 82.375C173.958 84.4387 172.374 86.1584 170.473 86.1584Z" fill="#EAEAF2"/>
</svg>
