<svg width="307" height="307" viewBox="0 0 307 307" fill="none" xmlns="http://www.w3.org/2000/svg">
<path d="M122.186 0H116.814V5.3725H122.186V0Z" fill="#FDE3A7" fill-opacity="0.25"/>
<path d="M122.186 9.67041H116.814V15.0429H122.186V9.67041Z" fill="#FDE3A7" fill-opacity="0.25"/>
<path d="M122.186 155.649H116.814V161.021H122.186V155.649Z" fill="#FDE3A7" fill-opacity="0.25"/>
<path d="M122.186 165.473H116.814V170.846H122.186V165.473Z" fill="#FDE3A7" fill-opacity="0.25"/>
<path d="M277.835 155.649H272.462V161.021H277.835V155.649Z" fill="#FDE3A7" fill-opacity="0.25"/>
<path d="M277.835 165.473H272.462V170.846H277.835V165.473Z" fill="#FDE3A7" fill-opacity="0.25"/>
<path d="M277.835 0H272.462V5.3725H277.835V0Z" fill="#FDE3A7" fill-opacity="0.25"/>
<path d="M277.835 9.67041H272.462V15.0429H277.835V9.67041Z" fill="#FDE3A7" fill-opacity="0.25"/>
<path d="M122.186 77.8247H116.814V83.1972H122.186V77.8247Z" fill="#FDE3A7" fill-opacity="0.25"/>
<path d="M122.186 87.6484H116.814V93.0209H122.186V87.6484Z" fill="#FDE3A7" fill-opacity="0.25"/>
<path d="M122.186 233.474H116.814V238.846H122.186V233.474Z" fill="#FDE3A7" fill-opacity="0.25"/>
<path d="M122.186 243.298H116.814V248.67H122.186V243.298Z" fill="#FDE3A7" fill-opacity="0.25"/>
<path d="M277.835 233.474H272.462V238.846H277.835V233.474Z" fill="#FDE3A7" fill-opacity="0.25"/>
<path d="M277.835 243.298H272.462V248.67H277.835V243.298Z" fill="#FDE3A7" fill-opacity="0.25"/>
<path d="M277.835 77.8247H272.462V83.1972H277.835V77.8247Z" fill="#FDE3A7" fill-opacity="0.25"/>
<path d="M277.835 87.6484H272.462V93.0209H277.835V87.6484Z" fill="#FDE3A7" fill-opacity="0.25"/>
<path d="M122.186 19.4946H116.814V24.8671H122.186V19.4946Z" fill="#FDE3A7" fill-opacity="0.25"/>
<path d="M122.186 29.165H116.814V34.5375H122.186V29.165Z" fill="#FDE3A7" fill-opacity="0.25"/>
<path d="M122.186 175.144H116.814V180.516H122.186V175.144Z" fill="#FDE3A7" fill-opacity="0.25"/>
<path d="M122.186 184.814H116.814V190.186H122.186V184.814Z" fill="#FDE3A7" fill-opacity="0.25"/>
<path d="M277.835 175.144H272.462V180.516H277.835V175.144Z" fill="#FDE3A7" fill-opacity="0.25"/>
<path d="M277.835 184.814H272.462V190.186H277.835V184.814Z" fill="#FDE3A7" fill-opacity="0.25"/>
<path d="M277.835 19.4946H272.462V24.8671H277.835V19.4946Z" fill="#FDE3A7" fill-opacity="0.25"/>
<path d="M277.835 29.165H272.462V34.5375H277.835V29.165Z" fill="#FDE3A7" fill-opacity="0.25"/>
<path d="M122.186 97.3188H116.814V102.691H122.186V97.3188Z" fill="#FDE3A7" fill-opacity="0.25"/>
<path d="M122.186 106.99H116.814V112.362H122.186V106.99Z" fill="#FDE3A7" fill-opacity="0.25"/>
<path d="M122.186 252.968H116.814V258.341H122.186V252.968Z" fill="#FDE3A7" fill-opacity="0.25"/>
<path d="M122.186 262.792H116.814V268.164H122.186V262.792Z" fill="#FDE3A7" fill-opacity="0.25"/>
<path d="M277.835 252.968H272.462V258.341H277.835V252.968Z" fill="#FDE3A7" fill-opacity="0.25"/>
<path d="M277.835 262.792H272.462V268.164H277.835V262.792Z" fill="#FDE3A7" fill-opacity="0.25"/>
<path d="M277.835 97.3188H272.462V102.691H277.835V97.3188Z" fill="#FDE3A7" fill-opacity="0.25"/>
<path d="M277.835 106.99H272.462V112.362H277.835V106.99Z" fill="#FDE3A7" fill-opacity="0.25"/>
<path d="M122.186 38.9893H116.814V44.3618H122.186V38.9893Z" fill="#FDE3A7" fill-opacity="0.25"/>
<path d="M122.186 48.6597H116.814V54.0322H122.186V48.6597Z" fill="#FDE3A7" fill-opacity="0.25"/>
<path d="M122.186 194.638H116.814V200.011H122.186V194.638Z" fill="#FDE3A7" fill-opacity="0.25"/>
<path d="M122.186 204.309H116.814V209.681H122.186V204.309Z" fill="#FDE3A7" fill-opacity="0.25"/>
<path d="M277.835 194.638H272.462V200.011H277.835V194.638Z" fill="#FDE3A7" fill-opacity="0.25"/>
<path d="M277.835 204.309H272.462V209.681H277.835V204.309Z" fill="#FDE3A7" fill-opacity="0.25"/>
<path d="M277.835 38.9893H272.462V44.3618H277.835V38.9893Z" fill="#FDE3A7" fill-opacity="0.25"/>
<path d="M277.835 48.6597H272.462V54.0322H277.835V48.6597Z" fill="#FDE3A7" fill-opacity="0.25"/>
<path d="M122.186 116.813H116.814V122.186H122.186V116.813Z" fill="#FDE3A7" fill-opacity="0.25"/>
<path d="M122.186 126.484H116.814V131.856H122.186V126.484Z" fill="#FDE3A7" fill-opacity="0.25"/>
<path d="M122.186 272.463H116.814V277.835H122.186V272.463Z" fill="#FDE3A7" fill-opacity="0.25"/>
<path d="M122.186 282.133H116.814V287.506H122.186V282.133Z" fill="#FDE3A7" fill-opacity="0.25"/>
<path d="M277.835 272.463H272.462V277.835H277.835V272.463Z" fill="#FDE3A7" fill-opacity="0.25"/>
<path d="M277.835 282.133H272.462V287.506H277.835V282.133Z" fill="#FDE3A7" fill-opacity="0.25"/>
<path d="M277.835 116.813H272.462V122.186H277.835V116.813Z" fill="#FDE3A7" fill-opacity="0.25"/>
<path d="M277.835 126.484H272.462V131.856H277.835V126.484Z" fill="#FDE3A7" fill-opacity="0.25"/>
<path d="M122.186 58.3301H116.814V63.7026H122.186V58.3301Z" fill="#FDE3A7" fill-opacity="0.25"/>
<path d="M122.186 68.1538H116.814V73.5263H122.186V68.1538Z" fill="#FDE3A7" fill-opacity="0.25"/>
<path d="M122.186 214.133H116.814V219.505H122.186V214.133Z" fill="#FDE3A7" fill-opacity="0.25"/>
<path d="M122.186 223.803H116.814V229.176H122.186V223.803Z" fill="#FDE3A7" fill-opacity="0.25"/>
<path d="M277.835 214.133H272.462V219.505H277.835V214.133Z" fill="#FDE3A7" fill-opacity="0.25"/>
<path d="M277.835 223.803H272.462V229.176H277.835V223.803Z" fill="#FDE3A7" fill-opacity="0.25"/>
<path d="M277.835 58.3301H272.462V63.7026H277.835V58.3301Z" fill="#FDE3A7" fill-opacity="0.25"/>
<path d="M277.835 68.1538H272.462V73.5263H277.835V68.1538Z" fill="#FDE3A7" fill-opacity="0.25"/>
<path d="M122.186 136.155H116.814V141.527H122.186V136.155Z" fill="#FDE3A7" fill-opacity="0.25"/>
<path d="M122.186 145.979H116.814V151.351H122.186V145.979Z" fill="#FDE3A7" fill-opacity="0.25"/>
<path d="M122.186 291.957H116.814V297.33H122.186V291.957Z" fill="#FDE3A7" fill-opacity="0.25"/>
<path d="M122.186 301.627H116.814V307H122.186V301.627Z" fill="#FDE3A7" fill-opacity="0.25"/>
<path d="M277.835 291.957H272.462V297.33H277.835V291.957Z" fill="#FDE3A7" fill-opacity="0.25"/>
<path d="M277.835 301.627H272.462V307H277.835V301.627Z" fill="#FDE3A7" fill-opacity="0.25"/>
<path d="M277.835 136.155H272.462V141.527H277.835V136.155Z" fill="#FDE3A7" fill-opacity="0.25"/>
<path d="M277.835 145.979H272.462V151.351H277.835V145.979Z" fill="#FDE3A7" fill-opacity="0.25"/>
<path d="M131.856 0H126.484V5.3725H131.856V0Z" fill="#FDE3A7" fill-opacity="0.25"/>
<path d="M131.856 9.67041H126.484V15.0429H131.856V9.67041Z" fill="#FDE3A7" fill-opacity="0.25"/>
<path d="M131.856 155.649H126.484V161.021H131.856V155.649Z" fill="#FDE3A7" fill-opacity="0.25"/>
<path d="M131.856 165.473H126.484V170.846H131.856V165.473Z" fill="#FDE3A7" fill-opacity="0.25"/>
<path d="M287.505 155.649H282.133V161.021H287.505V155.649Z" fill="#FDE3A7" fill-opacity="0.25"/>
<path d="M287.505 165.473H282.133V170.846H287.505V165.473Z" fill="#FDE3A7" fill-opacity="0.25"/>
<path d="M287.505 0H282.133V5.3725H287.505V0Z" fill="#FDE3A7" fill-opacity="0.25"/>
<path d="M287.505 9.67041H282.133V15.0429H287.505V9.67041Z" fill="#FDE3A7" fill-opacity="0.25"/>
<path d="M131.856 77.8247H126.484V83.1972H131.856V77.8247Z" fill="#FDE3A7" fill-opacity="0.25"/>
<path d="M131.856 87.6484H126.484V93.0209H131.856V87.6484Z" fill="#FDE3A7" fill-opacity="0.25"/>
<path d="M131.856 233.474H126.484V238.846H131.856V233.474Z" fill="#FDE3A7" fill-opacity="0.25"/>
<path d="M131.856 243.298H126.484V248.67H131.856V243.298Z" fill="#FDE3A7" fill-opacity="0.25"/>
<path d="M287.505 233.474H282.133V238.846H287.505V233.474Z" fill="#FDE3A7" fill-opacity="0.25"/>
<path d="M287.505 243.298H282.133V248.67H287.505V243.298Z" fill="#FDE3A7" fill-opacity="0.25"/>
<path d="M287.505 77.8247H282.133V83.1972H287.505V77.8247Z" fill="#FDE3A7" fill-opacity="0.25"/>
<path d="M287.505 87.6484H282.133V93.0209H287.505V87.6484Z" fill="#FDE3A7" fill-opacity="0.25"/>
<path d="M131.856 19.4946H126.484V24.8671H131.856V19.4946Z" fill="#FDE3A7" fill-opacity="0.25"/>
<path d="M131.856 29.165H126.484V34.5375H131.856V29.165Z" fill="#FDE3A7" fill-opacity="0.25"/>
<path d="M131.856 175.144H126.484V180.516H131.856V175.144Z" fill="#FDE3A7" fill-opacity="0.25"/>
<path d="M131.856 184.814H126.484V190.186H131.856V184.814Z" fill="#FDE3A7" fill-opacity="0.25"/>
<path d="M287.505 175.144H282.133V180.516H287.505V175.144Z" fill="#FDE3A7" fill-opacity="0.25"/>
<path d="M287.505 184.814H282.133V190.186H287.505V184.814Z" fill="#FDE3A7" fill-opacity="0.25"/>
<path d="M287.505 19.4946H282.133V24.8671H287.505V19.4946Z" fill="#FDE3A7" fill-opacity="0.25"/>
<path d="M287.505 29.165H282.133V34.5375H287.505V29.165Z" fill="#FDE3A7" fill-opacity="0.25"/>
<path d="M131.856 97.3188H126.484V102.691H131.856V97.3188Z" fill="#FDE3A7" fill-opacity="0.25"/>
<path d="M131.856 106.99H126.484V112.362H131.856V106.99Z" fill="#FDE3A7" fill-opacity="0.25"/>
<path d="M131.856 252.968H126.484V258.341H131.856V252.968Z" fill="#FDE3A7" fill-opacity="0.25"/>
<path d="M131.856 262.792H126.484V268.164H131.856V262.792Z" fill="#FDE3A7" fill-opacity="0.25"/>
<path d="M287.505 252.968H282.133V258.341H287.505V252.968Z" fill="#FDE3A7" fill-opacity="0.25"/>
<path d="M287.505 262.792H282.133V268.164H287.505V262.792Z" fill="#FDE3A7" fill-opacity="0.25"/>
<path d="M287.505 97.3188H282.133V102.691H287.505V97.3188Z" fill="#FDE3A7" fill-opacity="0.25"/>
<path d="M287.505 106.99H282.133V112.362H287.505V106.99Z" fill="#FDE3A7" fill-opacity="0.25"/>
<path d="M131.856 38.9893H126.484V44.3618H131.856V38.9893Z" fill="#FDE3A7" fill-opacity="0.25"/>
<path d="M131.856 48.6597H126.484V54.0322H131.856V48.6597Z" fill="#FDE3A7" fill-opacity="0.25"/>
<path d="M131.856 194.638H126.484V200.011H131.856V194.638Z" fill="#FDE3A7" fill-opacity="0.25"/>
<path d="M131.856 204.309H126.484V209.681H131.856V204.309Z" fill="#FDE3A7" fill-opacity="0.25"/>
<path d="M287.505 194.638H282.133V200.011H287.505V194.638Z" fill="#FDE3A7" fill-opacity="0.25"/>
<path d="M287.505 204.309H282.133V209.681H287.505V204.309Z" fill="#FDE3A7" fill-opacity="0.25"/>
<path d="M287.505 38.9893H282.133V44.3618H287.505V38.9893Z" fill="#FDE3A7" fill-opacity="0.25"/>
<path d="M287.505 48.6597H282.133V54.0322H287.505V48.6597Z" fill="#FDE3A7" fill-opacity="0.25"/>
<path d="M131.856 116.813H126.484V122.186H131.856V116.813Z" fill="#FDE3A7" fill-opacity="0.25"/>
<path d="M131.856 126.484H126.484V131.856H131.856V126.484Z" fill="#FDE3A7" fill-opacity="0.25"/>
<path d="M131.856 272.463H126.484V277.835H131.856V272.463Z" fill="#FDE3A7" fill-opacity="0.25"/>
<path d="M131.856 282.133H126.484V287.506H131.856V282.133Z" fill="#FDE3A7" fill-opacity="0.25"/>
<path d="M287.505 272.463H282.133V277.835H287.505V272.463Z" fill="#FDE3A7" fill-opacity="0.25"/>
<path d="M287.505 282.133H282.133V287.506H287.505V282.133Z" fill="#FDE3A7" fill-opacity="0.25"/>
<path d="M287.505 116.813H282.133V122.186H287.505V116.813Z" fill="#FDE3A7" fill-opacity="0.25"/>
<path d="M287.505 126.484H282.133V131.856H287.505V126.484Z" fill="#FDE3A7" fill-opacity="0.25"/>
<path d="M131.856 58.3301H126.484V63.7026H131.856V58.3301Z" fill="#FDE3A7" fill-opacity="0.25"/>
<path d="M131.856 68.1538H126.484V73.5263H131.856V68.1538Z" fill="#FDE3A7" fill-opacity="0.25"/>
<path d="M131.856 214.133H126.484V219.505H131.856V214.133Z" fill="#FDE3A7" fill-opacity="0.25"/>
<path d="M131.856 223.803H126.484V229.176H131.856V223.803Z" fill="#FDE3A7" fill-opacity="0.25"/>
<path d="M287.505 214.133H282.133V219.505H287.505V214.133Z" fill="#FDE3A7" fill-opacity="0.25"/>
<path d="M287.505 223.803H282.133V229.176H287.505V223.803Z" fill="#FDE3A7" fill-opacity="0.25"/>
<path d="M287.505 58.3301H282.133V63.7026H287.505V58.3301Z" fill="#FDE3A7" fill-opacity="0.25"/>
<path d="M287.505 68.1538H282.133V73.5263H287.505V68.1538Z" fill="#FDE3A7" fill-opacity="0.25"/>
<path d="M131.856 136.155H126.484V141.527H131.856V136.155Z" fill="#FDE3A7" fill-opacity="0.25"/>
<path d="M131.856 145.979H126.484V151.351H131.856V145.979Z" fill="#FDE3A7" fill-opacity="0.25"/>
<path d="M131.856 291.957H126.484V297.33H131.856V291.957Z" fill="#FDE3A7" fill-opacity="0.25"/>
<path d="M131.856 301.627H126.484V307H131.856V301.627Z" fill="#FDE3A7" fill-opacity="0.25"/>
<path d="M287.505 291.957H282.133V297.33H287.505V291.957Z" fill="#FDE3A7" fill-opacity="0.25"/>
<path d="M287.505 301.627H282.133V307H287.505V301.627Z" fill="#FDE3A7" fill-opacity="0.25"/>
<path d="M287.505 136.155H282.133V141.527H287.505V136.155Z" fill="#FDE3A7" fill-opacity="0.25"/>
<path d="M287.505 145.979H282.133V151.351H287.505V145.979Z" fill="#FDE3A7" fill-opacity="0.25"/>
<path d="M141.527 0H136.154V5.3725H141.527V0Z" fill="#FDE3A7" fill-opacity="0.25"/>
<path d="M141.527 9.67041H136.154V15.0429H141.527V9.67041Z" fill="#FDE3A7" fill-opacity="0.25"/>
<path d="M141.527 155.649H136.154V161.021H141.527V155.649Z" fill="#FDE3A7" fill-opacity="0.25"/>
<path d="M141.527 165.473H136.154V170.846H141.527V165.473Z" fill="#FDE3A7" fill-opacity="0.25"/>
<path d="M297.33 155.649H291.958V161.021H297.33V155.649Z" fill="#FDE3A7" fill-opacity="0.25"/>
<path d="M297.33 165.473H291.958V170.846H297.33V165.473Z" fill="#FDE3A7" fill-opacity="0.25"/>
<path d="M297.33 0H291.958V5.3725H297.33V0Z" fill="#FDE3A7" fill-opacity="0.25"/>
<path d="M297.33 9.67041H291.958V15.0429H297.33V9.67041Z" fill="#FDE3A7" fill-opacity="0.25"/>
<path d="M141.527 77.8247H136.154V83.1972H141.527V77.8247Z" fill="#FDE3A7" fill-opacity="0.25"/>
<path d="M141.527 87.6484H136.154V93.0209H141.527V87.6484Z" fill="#FDE3A7" fill-opacity="0.25"/>
<path d="M141.527 233.474H136.154V238.846H141.527V233.474Z" fill="#FDE3A7" fill-opacity="0.25"/>
<path d="M141.527 243.298H136.154V248.67H141.527V243.298Z" fill="#FDE3A7" fill-opacity="0.25"/>
<path d="M297.33 233.474H291.958V238.846H297.33V233.474Z" fill="#FDE3A7" fill-opacity="0.25"/>
<path d="M297.33 243.298H291.958V248.67H297.33V243.298Z" fill="#FDE3A7" fill-opacity="0.25"/>
<path d="M297.33 77.8247H291.958V83.1972H297.33V77.8247Z" fill="#FDE3A7" fill-opacity="0.25"/>
<path d="M297.33 87.6484H291.958V93.0209H297.33V87.6484Z" fill="#FDE3A7" fill-opacity="0.25"/>
<path d="M141.527 19.4946H136.154V24.8671H141.527V19.4946Z" fill="#FDE3A7" fill-opacity="0.25"/>
<path d="M141.527 29.165H136.154V34.5375H141.527V29.165Z" fill="#FDE3A7" fill-opacity="0.25"/>
<path d="M141.527 175.144H136.154V180.516H141.527V175.144Z" fill="#FDE3A7" fill-opacity="0.25"/>
<path d="M141.527 184.814H136.154V190.186H141.527V184.814Z" fill="#FDE3A7" fill-opacity="0.25"/>
<path d="M297.33 175.144H291.958V180.516H297.33V175.144Z" fill="#FDE3A7" fill-opacity="0.25"/>
<path d="M297.33 184.814H291.958V190.186H297.33V184.814Z" fill="#FDE3A7" fill-opacity="0.25"/>
<path d="M297.33 19.4946H291.958V24.8671H297.33V19.4946Z" fill="#FDE3A7" fill-opacity="0.25"/>
<path d="M297.33 29.165H291.958V34.5375H297.33V29.165Z" fill="#FDE3A7" fill-opacity="0.25"/>
<path d="M141.527 97.3188H136.154V102.691H141.527V97.3188Z" fill="#FDE3A7" fill-opacity="0.25"/>
<path d="M141.527 106.99H136.154V112.362H141.527V106.99Z" fill="#FDE3A7" fill-opacity="0.25"/>
<path d="M141.527 252.968H136.154V258.341H141.527V252.968Z" fill="#FDE3A7" fill-opacity="0.25"/>
<path d="M141.527 262.792H136.154V268.164H141.527V262.792Z" fill="#FDE3A7" fill-opacity="0.25"/>
<path d="M297.33 252.968H291.958V258.341H297.33V252.968Z" fill="#FDE3A7" fill-opacity="0.25"/>
<path d="M297.33 262.792H291.958V268.164H297.33V262.792Z" fill="#FDE3A7" fill-opacity="0.25"/>
<path d="M297.33 97.3188H291.958V102.691H297.33V97.3188Z" fill="#FDE3A7" fill-opacity="0.25"/>
<path d="M297.33 106.99H291.958V112.362H297.33V106.99Z" fill="#FDE3A7" fill-opacity="0.25"/>
<path d="M141.527 38.9893H136.154V44.3618H141.527V38.9893Z" fill="#FDE3A7" fill-opacity="0.25"/>
<path d="M141.527 48.6597H136.154V54.0322H141.527V48.6597Z" fill="#FDE3A7" fill-opacity="0.25"/>
<path d="M141.527 194.638H136.154V200.011H141.527V194.638Z" fill="#FDE3A7" fill-opacity="0.25"/>
<path d="M141.527 204.309H136.154V209.681H141.527V204.309Z" fill="#FDE3A7" fill-opacity="0.25"/>
<path d="M297.33 194.638H291.958V200.011H297.33V194.638Z" fill="#FDE3A7" fill-opacity="0.25"/>
<path d="M297.33 204.309H291.958V209.681H297.33V204.309Z" fill="#FDE3A7" fill-opacity="0.25"/>
<path d="M297.33 38.9893H291.958V44.3618H297.33V38.9893Z" fill="#FDE3A7" fill-opacity="0.25"/>
<path d="M297.33 48.6597H291.958V54.0322H297.33V48.6597Z" fill="#FDE3A7" fill-opacity="0.25"/>
<path d="M141.527 116.813H136.154V122.186H141.527V116.813Z" fill="#FDE3A7" fill-opacity="0.25"/>
<path d="M141.527 126.484H136.154V131.856H141.527V126.484Z" fill="#FDE3A7" fill-opacity="0.25"/>
<path d="M141.527 272.463H136.154V277.835H141.527V272.463Z" fill="#FDE3A7" fill-opacity="0.25"/>
<path d="M141.527 282.133H136.154V287.506H141.527V282.133Z" fill="#FDE3A7" fill-opacity="0.25"/>
<path d="M297.33 272.463H291.958V277.835H297.33V272.463Z" fill="#FDE3A7" fill-opacity="0.25"/>
<path d="M297.33 282.133H291.958V287.506H297.33V282.133Z" fill="#FDE3A7" fill-opacity="0.25"/>
<path d="M297.33 116.813H291.958V122.186H297.33V116.813Z" fill="#FDE3A7" fill-opacity="0.25"/>
<path d="M297.33 126.484H291.958V131.856H297.33V126.484Z" fill="#FDE3A7" fill-opacity="0.25"/>
<path d="M141.527 58.3301H136.154V63.7026H141.527V58.3301Z" fill="#FDE3A7" fill-opacity="0.25"/>
<path d="M141.527 68.1538H136.154V73.5263H141.527V68.1538Z" fill="#FDE3A7" fill-opacity="0.25"/>
<path d="M141.527 214.133H136.154V219.505H141.527V214.133Z" fill="#FDE3A7" fill-opacity="0.25"/>
<path d="M141.527 223.803H136.154V229.176H141.527V223.803Z" fill="#FDE3A7" fill-opacity="0.25"/>
<path d="M297.33 214.133H291.958V219.505H297.33V214.133Z" fill="#FDE3A7" fill-opacity="0.25"/>
<path d="M297.33 223.803H291.958V229.176H297.33V223.803Z" fill="#FDE3A7" fill-opacity="0.25"/>
<path d="M297.33 58.3301H291.958V63.7026H297.33V58.3301Z" fill="#FDE3A7" fill-opacity="0.25"/>
<path d="M297.33 68.1538H291.958V73.5263H297.33V68.1538Z" fill="#FDE3A7" fill-opacity="0.25"/>
<path d="M141.527 136.155H136.154V141.527H141.527V136.155Z" fill="#FDE3A7" fill-opacity="0.25"/>
<path d="M141.527 145.979H136.154V151.351H141.527V145.979Z" fill="#FDE3A7" fill-opacity="0.25"/>
<path d="M141.527 291.957H136.154V297.33H141.527V291.957Z" fill="#FDE3A7" fill-opacity="0.25"/>
<path d="M141.527 301.627H136.154V307H141.527V301.627Z" fill="#FDE3A7" fill-opacity="0.25"/>
<path d="M297.33 291.957H291.958V297.33H297.33V291.957Z" fill="#FDE3A7" fill-opacity="0.25"/>
<path d="M297.33 301.627H291.958V307H297.33V301.627Z" fill="#FDE3A7" fill-opacity="0.25"/>
<path d="M297.33 136.155H291.958V141.527H297.33V136.155Z" fill="#FDE3A7" fill-opacity="0.25"/>
<path d="M297.33 145.979H291.958V151.351H297.33V145.979Z" fill="#FDE3A7" fill-opacity="0.25"/>
<path d="M151.351 0H145.979V5.3725H151.351V0Z" fill="#FDE3A7" fill-opacity="0.25"/>
<path d="M151.351 155.649H145.979V161.021H151.351V155.649Z" fill="#FDE3A7" fill-opacity="0.25"/>
<path d="M307 155.649H301.627V161.021H307V155.649Z" fill="#FDE3A7" fill-opacity="0.25"/>
<path d="M307 0H301.627V5.3725H307V0Z" fill="#FDE3A7" fill-opacity="0.25"/>
<path d="M151.351 77.8247H145.979V83.1972H151.351V77.8247Z" fill="#FDE3A7" fill-opacity="0.25"/>
<path d="M151.351 233.474H145.979V238.846H151.351V233.474Z" fill="#FDE3A7" fill-opacity="0.25"/>
<path d="M307 233.474H301.627V238.846H307V233.474Z" fill="#FDE3A7" fill-opacity="0.25"/>
<path d="M307 77.8247H301.627V83.1972H307V77.8247Z" fill="#FDE3A7" fill-opacity="0.25"/>
<path d="M151.351 19.4946H145.979V24.8671H151.351V19.4946Z" fill="#FDE3A7" fill-opacity="0.25"/>
<path d="M151.351 175.144H145.979V180.516H151.351V175.144Z" fill="#FDE3A7" fill-opacity="0.25"/>
<path d="M307 175.144H301.627V180.516H307V175.144Z" fill="#FDE3A7" fill-opacity="0.25"/>
<path d="M307 19.4946H301.627V24.8671H307V19.4946Z" fill="#FDE3A7" fill-opacity="0.25"/>
<path d="M151.351 97.3188H145.979V102.691H151.351V97.3188Z" fill="#FDE3A7" fill-opacity="0.25"/>
<path d="M151.351 252.968H145.979V258.341H151.351V252.968Z" fill="#FDE3A7" fill-opacity="0.25"/>
<path d="M307 252.968H301.627V258.341H307V252.968Z" fill="#FDE3A7" fill-opacity="0.25"/>
<path d="M307 97.3188H301.627V102.691H307V97.3188Z" fill="#FDE3A7" fill-opacity="0.25"/>
<path d="M151.351 38.9893H145.979V44.3618H151.351V38.9893Z" fill="#FDE3A7" fill-opacity="0.25"/>
<path d="M151.351 194.638H145.979V200.011H151.351V194.638Z" fill="#FDE3A7" fill-opacity="0.25"/>
<path d="M307 194.638H301.627V200.011H307V194.638Z" fill="#FDE3A7" fill-opacity="0.25"/>
<path d="M307 38.9893H301.627V44.3618H307V38.9893Z" fill="#FDE3A7" fill-opacity="0.25"/>
<path d="M151.351 116.813H145.979V122.186H151.351V116.813Z" fill="#FDE3A7" fill-opacity="0.25"/>
<path d="M151.351 272.463H145.979V277.835H151.351V272.463Z" fill="#FDE3A7" fill-opacity="0.25"/>
<path d="M307 272.463H301.627V277.835H307V272.463Z" fill="#FDE3A7" fill-opacity="0.25"/>
<path d="M307 116.813H301.627V122.186H307V116.813Z" fill="#FDE3A7" fill-opacity="0.25"/>
<path d="M151.351 58.3301H145.979V63.7026H151.351V58.3301Z" fill="#FDE3A7" fill-opacity="0.25"/>
<path d="M151.351 214.133H145.979V219.505H151.351V214.133Z" fill="#FDE3A7" fill-opacity="0.25"/>
<path d="M307 214.133H301.627V219.505H307V214.133Z" fill="#FDE3A7" fill-opacity="0.25"/>
<path d="M307 58.3301H301.627V63.7026H307V58.3301Z" fill="#FDE3A7" fill-opacity="0.25"/>
<path d="M151.351 136.155H145.979V141.527H151.351V136.155Z" fill="#FDE3A7" fill-opacity="0.25"/>
<path d="M151.351 291.957H145.979V297.33H151.351V291.957Z" fill="#FDE3A7" fill-opacity="0.25"/>
<path d="M307 291.957H301.627V297.33H307V291.957Z" fill="#FDE3A7" fill-opacity="0.25"/>
<path d="M307 136.155H301.627V141.527H307V136.155Z" fill="#FDE3A7" fill-opacity="0.25"/>
<path d="M151.351 9.67041H145.979V15.0429H151.351V9.67041Z" fill="#FDE3A7" fill-opacity="0.25"/>
<path d="M151.351 165.473H145.979V170.846H151.351V165.473Z" fill="#FDE3A7" fill-opacity="0.25"/>
<path d="M307 165.473H301.627V170.846H307V165.473Z" fill="#FDE3A7" fill-opacity="0.25"/>
<path d="M307 9.67041H301.627V15.0429H307V9.67041Z" fill="#FDE3A7" fill-opacity="0.25"/>
<path d="M151.351 87.6484H145.979V93.0209H151.351V87.6484Z" fill="#FDE3A7" fill-opacity="0.25"/>
<path d="M151.351 243.298H145.979V248.67H151.351V243.298Z" fill="#FDE3A7" fill-opacity="0.25"/>
<path d="M307 243.298H301.627V248.67H307V243.298Z" fill="#FDE3A7" fill-opacity="0.25"/>
<path d="M307 87.6484H301.627V93.0209H307V87.6484Z" fill="#FDE3A7" fill-opacity="0.25"/>
<path d="M151.351 29.165H145.979V34.5375H151.351V29.165Z" fill="#FDE3A7" fill-opacity="0.25"/>
<path d="M151.351 184.814H145.979V190.186H151.351V184.814Z" fill="#FDE3A7" fill-opacity="0.25"/>
<path d="M307 184.814H301.627V190.186H307V184.814Z" fill="#FDE3A7" fill-opacity="0.25"/>
<path d="M307 29.165H301.627V34.5375H307V29.165Z" fill="#FDE3A7" fill-opacity="0.25"/>
<path d="M151.351 106.99H145.979V112.362H151.351V106.99Z" fill="#FDE3A7" fill-opacity="0.25"/>
<path d="M151.351 262.792H145.979V268.164H151.351V262.792Z" fill="#FDE3A7" fill-opacity="0.25"/>
<path d="M307 262.792H301.627V268.164H307V262.792Z" fill="#FDE3A7" fill-opacity="0.25"/>
<path d="M307 106.99H301.627V112.362H307V106.99Z" fill="#FDE3A7" fill-opacity="0.25"/>
<path d="M151.351 48.6597H145.979V54.0322H151.351V48.6597Z" fill="#FDE3A7" fill-opacity="0.25"/>
<path d="M151.351 204.309H145.979V209.681H151.351V204.309Z" fill="#FDE3A7" fill-opacity="0.25"/>
<path d="M307 204.309H301.627V209.681H307V204.309Z" fill="#FDE3A7" fill-opacity="0.25"/>
<path d="M307 48.6597H301.627V54.0322H307V48.6597Z" fill="#FDE3A7" fill-opacity="0.25"/>
<path d="M151.351 126.484H145.979V131.856H151.351V126.484Z" fill="#FDE3A7" fill-opacity="0.25"/>
<path d="M151.351 282.133H145.979V287.506H151.351V282.133Z" fill="#FDE3A7" fill-opacity="0.25"/>
<path d="M307 282.133H301.627V287.506H307V282.133Z" fill="#FDE3A7" fill-opacity="0.25"/>
<path d="M307 126.484H301.627V131.856H307V126.484Z" fill="#FDE3A7" fill-opacity="0.25"/>
<path d="M151.351 68.1538H145.979V73.5263H151.351V68.1538Z" fill="#FDE3A7" fill-opacity="0.25"/>
<path d="M151.351 223.803H145.979V229.176H151.351V223.803Z" fill="#FDE3A7" fill-opacity="0.25"/>
<path d="M307 223.803H301.627V229.176H307V223.803Z" fill="#FDE3A7" fill-opacity="0.25"/>
<path d="M307 68.1538H301.627V73.5263H307V68.1538Z" fill="#FDE3A7" fill-opacity="0.25"/>
<path d="M151.351 145.979H145.979V151.351H151.351V145.979Z" fill="#FDE3A7" fill-opacity="0.25"/>
<path d="M151.351 301.627H145.979V307H151.351V301.627Z" fill="#FDE3A7" fill-opacity="0.25"/>
<path d="M307 301.627H301.627V307H307V301.627Z" fill="#FDE3A7" fill-opacity="0.25"/>
<path d="M307 145.979H301.627V151.351H307V145.979Z" fill="#FDE3A7" fill-opacity="0.25"/>
<path d="M44.3618 0H38.9893V5.3725H44.3618V0Z" fill="#FDE3A7" fill-opacity="0.25"/>
<path d="M44.3618 9.67041H38.9893V15.0429H44.3618V9.67041Z" fill="#FDE3A7" fill-opacity="0.25"/>
<path d="M44.3618 155.649H38.9893V161.021H44.3618V155.649Z" fill="#FDE3A7" fill-opacity="0.25"/>
<path d="M44.3618 165.473H38.9893V170.846H44.3618V165.473Z" fill="#FDE3A7" fill-opacity="0.25"/>
<path d="M200.01 155.649H194.638V161.021H200.01V155.649Z" fill="#FDE3A7" fill-opacity="0.25"/>
<path d="M200.01 165.473H194.638V170.846H200.01V165.473Z" fill="#FDE3A7" fill-opacity="0.25"/>
<path d="M200.01 0H194.638V5.3725H200.01V0Z" fill="#FDE3A7" fill-opacity="0.25"/>
<path d="M200.01 9.67041H194.638V15.0429H200.01V9.67041Z" fill="#FDE3A7" fill-opacity="0.25"/>
<path d="M44.3618 77.8247H38.9893V83.1972H44.3618V77.8247Z" fill="#FDE3A7" fill-opacity="0.25"/>
<path d="M44.3618 87.6484H38.9893V93.0209H44.3618V87.6484Z" fill="#FDE3A7" fill-opacity="0.25"/>
<path d="M44.3618 233.474H38.9893V238.846H44.3618V233.474Z" fill="#FDE3A7" fill-opacity="0.25"/>
<path d="M44.3618 243.298H38.9893V248.67H44.3618V243.298Z" fill="#FDE3A7" fill-opacity="0.25"/>
<path d="M200.01 233.474H194.638V238.846H200.01V233.474Z" fill="#FDE3A7" fill-opacity="0.25"/>
<path d="M200.01 243.298H194.638V248.67H200.01V243.298Z" fill="#FDE3A7" fill-opacity="0.25"/>
<path d="M200.01 77.8247H194.638V83.1972H200.01V77.8247Z" fill="#FDE3A7" fill-opacity="0.25"/>
<path d="M200.01 87.6484H194.638V93.0209H200.01V87.6484Z" fill="#FDE3A7" fill-opacity="0.25"/>
<path d="M44.3618 19.4946H38.9893V24.8671H44.3618V19.4946Z" fill="#FDE3A7" fill-opacity="0.25"/>
<path d="M44.3618 29.165H38.9893V34.5375H44.3618V29.165Z" fill="#FDE3A7" fill-opacity="0.25"/>
<path d="M44.3618 175.144H38.9893V180.516H44.3618V175.144Z" fill="#FDE3A7" fill-opacity="0.25"/>
<path d="M44.3618 184.814H38.9893V190.186H44.3618V184.814Z" fill="#FDE3A7" fill-opacity="0.25"/>
<path d="M200.01 175.144H194.638V180.516H200.01V175.144Z" fill="#FDE3A7" fill-opacity="0.25"/>
<path d="M200.01 184.814H194.638V190.186H200.01V184.814Z" fill="#FDE3A7" fill-opacity="0.25"/>
<path d="M200.01 19.4946H194.638V24.8671H200.01V19.4946Z" fill="#FDE3A7" fill-opacity="0.25"/>
<path d="M200.01 29.165H194.638V34.5375H200.01V29.165Z" fill="#FDE3A7" fill-opacity="0.25"/>
<path d="M44.3618 97.3188H38.9893V102.691H44.3618V97.3188Z" fill="#FDE3A7" fill-opacity="0.25"/>
<path d="M44.3618 106.99H38.9893V112.362H44.3618V106.99Z" fill="#FDE3A7" fill-opacity="0.25"/>
<path d="M44.3618 252.968H38.9893V258.341H44.3618V252.968Z" fill="#FDE3A7" fill-opacity="0.25"/>
<path d="M44.3618 262.792H38.9893V268.164H44.3618V262.792Z" fill="#FDE3A7" fill-opacity="0.25"/>
<path d="M200.01 252.968H194.638V258.341H200.01V252.968Z" fill="#FDE3A7" fill-opacity="0.25"/>
<path d="M200.01 262.792H194.638V268.164H200.01V262.792Z" fill="#FDE3A7" fill-opacity="0.25"/>
<path d="M200.01 97.3188H194.638V102.691H200.01V97.3188Z" fill="#FDE3A7" fill-opacity="0.25"/>
<path d="M200.01 106.99H194.638V112.362H200.01V106.99Z" fill="#FDE3A7" fill-opacity="0.25"/>
<path d="M44.3618 38.9893H38.9893V44.3618H44.3618V38.9893Z" fill="#FDE3A7" fill-opacity="0.25"/>
<path d="M44.3618 48.6597H38.9893V54.0322H44.3618V48.6597Z" fill="#FDE3A7" fill-opacity="0.25"/>
<path d="M44.3618 194.638H38.9893V200.011H44.3618V194.638Z" fill="#FDE3A7" fill-opacity="0.25"/>
<path d="M44.3618 204.309H38.9893V209.681H44.3618V204.309Z" fill="#FDE3A7" fill-opacity="0.25"/>
<path d="M200.01 194.638H194.638V200.011H200.01V194.638Z" fill="#FDE3A7" fill-opacity="0.25"/>
<path d="M200.01 204.309H194.638V209.681H200.01V204.309Z" fill="#FDE3A7" fill-opacity="0.25"/>
<path d="M200.01 38.9893H194.638V44.3618H200.01V38.9893Z" fill="#FDE3A7" fill-opacity="0.25"/>
<path d="M200.01 48.6597H194.638V54.0322H200.01V48.6597Z" fill="#FDE3A7" fill-opacity="0.25"/>
<path d="M44.3618 116.813H38.9893V122.186H44.3618V116.813Z" fill="#FDE3A7" fill-opacity="0.25"/>
<path d="M44.3618 126.484H38.9893V131.856H44.3618V126.484Z" fill="#FDE3A7" fill-opacity="0.25"/>
<path d="M44.3618 272.463H38.9893V277.835H44.3618V272.463Z" fill="#FDE3A7" fill-opacity="0.25"/>
<path d="M44.3618 282.133H38.9893V287.506H44.3618V282.133Z" fill="#FDE3A7" fill-opacity="0.25"/>
<path d="M200.01 272.463H194.638V277.835H200.01V272.463Z" fill="#FDE3A7" fill-opacity="0.25"/>
<path d="M200.01 282.133H194.638V287.506H200.01V282.133Z" fill="#FDE3A7" fill-opacity="0.25"/>
<path d="M200.01 116.813H194.638V122.186H200.01V116.813Z" fill="#FDE3A7" fill-opacity="0.25"/>
<path d="M200.01 126.484H194.638V131.856H200.01V126.484Z" fill="#FDE3A7" fill-opacity="0.25"/>
<path d="M44.3618 58.3301H38.9893V63.7026H44.3618V58.3301Z" fill="#FDE3A7" fill-opacity="0.25"/>
<path d="M44.3618 68.1538H38.9893V73.5263H44.3618V68.1538Z" fill="#FDE3A7" fill-opacity="0.25"/>
<path d="M44.3618 214.133H38.9893V219.505H44.3618V214.133Z" fill="#FDE3A7" fill-opacity="0.25"/>
<path d="M44.3618 223.803H38.9893V229.176H44.3618V223.803Z" fill="#FDE3A7" fill-opacity="0.25"/>
<path d="M200.01 214.133H194.638V219.505H200.01V214.133Z" fill="#FDE3A7" fill-opacity="0.25"/>
<path d="M200.01 223.803H194.638V229.176H200.01V223.803Z" fill="#FDE3A7" fill-opacity="0.25"/>
<path d="M200.01 58.3301H194.638V63.7026H200.01V58.3301Z" fill="#FDE3A7" fill-opacity="0.25"/>
<path d="M200.01 68.1538H194.638V73.5263H200.01V68.1538Z" fill="#FDE3A7" fill-opacity="0.25"/>
<path d="M44.3618 136.155H38.9893V141.527H44.3618V136.155Z" fill="#FDE3A7" fill-opacity="0.25"/>
<path d="M44.3618 145.979H38.9893V151.351H44.3618V145.979Z" fill="#FDE3A7" fill-opacity="0.25"/>
<path d="M44.3618 291.957H38.9893V297.33H44.3618V291.957Z" fill="#FDE3A7" fill-opacity="0.25"/>
<path d="M44.3618 301.627H38.9893V307H44.3618V301.627Z" fill="#FDE3A7" fill-opacity="0.25"/>
<path d="M200.01 291.957H194.638V297.33H200.01V291.957Z" fill="#FDE3A7" fill-opacity="0.25"/>
<path d="M200.01 301.627H194.638V307H200.01V301.627Z" fill="#FDE3A7" fill-opacity="0.25"/>
<path d="M200.01 136.155H194.638V141.527H200.01V136.155Z" fill="#FDE3A7" fill-opacity="0.25"/>
<path d="M200.01 145.979H194.638V151.351H200.01V145.979Z" fill="#FDE3A7" fill-opacity="0.25"/>
<path d="M54.0322 0H48.6597V5.3725H54.0322V0Z" fill="#FDE3A7" fill-opacity="0.25"/>
<path d="M54.0322 9.67041H48.6597V15.0429H54.0322V9.67041Z" fill="#FDE3A7" fill-opacity="0.25"/>
<path d="M54.0322 155.649H48.6597V161.021H54.0322V155.649Z" fill="#FDE3A7" fill-opacity="0.25"/>
<path d="M54.0322 165.473H48.6597V170.846H54.0322V165.473Z" fill="#FDE3A7" fill-opacity="0.25"/>
<path d="M209.681 155.649H204.309V161.021H209.681V155.649Z" fill="#FDE3A7" fill-opacity="0.25"/>
<path d="M209.681 165.473H204.309V170.846H209.681V165.473Z" fill="#FDE3A7" fill-opacity="0.25"/>
<path d="M209.681 0H204.309V5.3725H209.681V0Z" fill="#FDE3A7" fill-opacity="0.25"/>
<path d="M209.681 9.67041H204.309V15.0429H209.681V9.67041Z" fill="#FDE3A7" fill-opacity="0.25"/>
<path d="M54.0322 77.8247H48.6597V83.1972H54.0322V77.8247Z" fill="#FDE3A7" fill-opacity="0.25"/>
<path d="M54.0322 87.6484H48.6597V93.0209H54.0322V87.6484Z" fill="#FDE3A7" fill-opacity="0.25"/>
<path d="M54.0322 233.474H48.6597V238.846H54.0322V233.474Z" fill="#FDE3A7" fill-opacity="0.25"/>
<path d="M54.0322 243.298H48.6597V248.67H54.0322V243.298Z" fill="#FDE3A7" fill-opacity="0.25"/>
<path d="M209.681 233.474H204.309V238.846H209.681V233.474Z" fill="#FDE3A7" fill-opacity="0.25"/>
<path d="M209.681 243.298H204.309V248.67H209.681V243.298Z" fill="#FDE3A7" fill-opacity="0.25"/>
<path d="M209.681 77.8247H204.309V83.1972H209.681V77.8247Z" fill="#FDE3A7" fill-opacity="0.25"/>
<path d="M209.681 87.6484H204.309V93.0209H209.681V87.6484Z" fill="#FDE3A7" fill-opacity="0.25"/>
<path d="M54.0322 19.4946H48.6597V24.8671H54.0322V19.4946Z" fill="#FDE3A7" fill-opacity="0.25"/>
<path d="M54.0322 29.165H48.6597V34.5375H54.0322V29.165Z" fill="#FDE3A7" fill-opacity="0.25"/>
<path d="M54.0322 175.144H48.6597V180.516H54.0322V175.144Z" fill="#FDE3A7" fill-opacity="0.25"/>
<path d="M54.0322 184.814H48.6597V190.186H54.0322V184.814Z" fill="#FDE3A7" fill-opacity="0.25"/>
<path d="M209.681 175.144H204.309V180.516H209.681V175.144Z" fill="#FDE3A7" fill-opacity="0.25"/>
<path d="M209.681 184.814H204.309V190.186H209.681V184.814Z" fill="#FDE3A7" fill-opacity="0.25"/>
<path d="M209.681 19.4946H204.309V24.8671H209.681V19.4946Z" fill="#FDE3A7" fill-opacity="0.25"/>
<path d="M209.681 29.165H204.309V34.5375H209.681V29.165Z" fill="#FDE3A7" fill-opacity="0.25"/>
<path d="M54.0322 97.3188H48.6597V102.691H54.0322V97.3188Z" fill="#FDE3A7" fill-opacity="0.25"/>
<path d="M54.0322 106.99H48.6597V112.362H54.0322V106.99Z" fill="#FDE3A7" fill-opacity="0.25"/>
<path d="M54.0322 252.968H48.6597V258.341H54.0322V252.968Z" fill="#FDE3A7" fill-opacity="0.25"/>
<path d="M54.0322 262.792H48.6597V268.164H54.0322V262.792Z" fill="#FDE3A7" fill-opacity="0.25"/>
<path d="M209.681 252.968H204.309V258.341H209.681V252.968Z" fill="#FDE3A7" fill-opacity="0.25"/>
<path d="M209.681 262.792H204.309V268.164H209.681V262.792Z" fill="#FDE3A7" fill-opacity="0.25"/>
<path d="M209.681 97.3188H204.309V102.691H209.681V97.3188Z" fill="#FDE3A7" fill-opacity="0.25"/>
<path d="M209.681 106.99H204.309V112.362H209.681V106.99Z" fill="#FDE3A7" fill-opacity="0.25"/>
<path d="M54.0322 38.9893H48.6597V44.3618H54.0322V38.9893Z" fill="#FDE3A7" fill-opacity="0.25"/>
<path d="M54.0322 48.6597H48.6597V54.0322H54.0322V48.6597Z" fill="#FDE3A7" fill-opacity="0.25"/>
<path d="M54.0322 194.638H48.6597V200.011H54.0322V194.638Z" fill="#FDE3A7" fill-opacity="0.25"/>
<path d="M54.0322 204.309H48.6597V209.681H54.0322V204.309Z" fill="#FDE3A7" fill-opacity="0.25"/>
<path d="M209.681 194.638H204.309V200.011H209.681V194.638Z" fill="#FDE3A7" fill-opacity="0.25"/>
<path d="M209.681 204.309H204.309V209.681H209.681V204.309Z" fill="#FDE3A7" fill-opacity="0.25"/>
<path d="M209.681 38.9893H204.309V44.3618H209.681V38.9893Z" fill="#FDE3A7" fill-opacity="0.25"/>
<path d="M209.681 48.6597H204.309V54.0322H209.681V48.6597Z" fill="#FDE3A7" fill-opacity="0.25"/>
<path d="M54.0322 116.813H48.6597V122.186H54.0322V116.813Z" fill="#FDE3A7" fill-opacity="0.25"/>
<path d="M54.0322 126.484H48.6597V131.856H54.0322V126.484Z" fill="#FDE3A7" fill-opacity="0.25"/>
<path d="M54.0322 272.463H48.6597V277.835H54.0322V272.463Z" fill="#FDE3A7" fill-opacity="0.25"/>
<path d="M54.0322 282.133H48.6597V287.506H54.0322V282.133Z" fill="#FDE3A7" fill-opacity="0.25"/>
<path d="M209.681 272.463H204.309V277.835H209.681V272.463Z" fill="#FDE3A7" fill-opacity="0.25"/>
<path d="M209.681 282.133H204.309V287.506H209.681V282.133Z" fill="#FDE3A7" fill-opacity="0.25"/>
<path d="M209.681 116.813H204.309V122.186H209.681V116.813Z" fill="#FDE3A7" fill-opacity="0.25"/>
<path d="M209.681 126.484H204.309V131.856H209.681V126.484Z" fill="#FDE3A7" fill-opacity="0.25"/>
<path d="M54.0322 58.3301H48.6597V63.7026H54.0322V58.3301Z" fill="#FDE3A7" fill-opacity="0.25"/>
<path d="M54.0322 68.1538H48.6597V73.5263H54.0322V68.1538Z" fill="#FDE3A7" fill-opacity="0.25"/>
<path d="M54.0322 214.133H48.6597V219.505H54.0322V214.133Z" fill="#FDE3A7" fill-opacity="0.25"/>
<path d="M54.0322 223.803H48.6597V229.176H54.0322V223.803Z" fill="#FDE3A7" fill-opacity="0.25"/>
<path d="M209.681 214.133H204.309V219.505H209.681V214.133Z" fill="#FDE3A7" fill-opacity="0.25"/>
<path d="M209.681 223.803H204.309V229.176H209.681V223.803Z" fill="#FDE3A7" fill-opacity="0.25"/>
<path d="M209.681 58.3301H204.309V63.7026H209.681V58.3301Z" fill="#FDE3A7" fill-opacity="0.25"/>
<path d="M209.681 68.1538H204.309V73.5263H209.681V68.1538Z" fill="#FDE3A7" fill-opacity="0.25"/>
<path d="M54.0322 136.155H48.6597V141.527H54.0322V136.155Z" fill="#FDE3A7" fill-opacity="0.25"/>
<path d="M54.0322 145.979H48.6597V151.351H54.0322V145.979Z" fill="#FDE3A7" fill-opacity="0.25"/>
<path d="M54.0322 291.957H48.6597V297.33H54.0322V291.957Z" fill="#FDE3A7" fill-opacity="0.25"/>
<path d="M54.0322 301.627H48.6597V307H54.0322V301.627Z" fill="#FDE3A7" fill-opacity="0.25"/>
<path d="M209.681 291.957H204.309V297.33H209.681V291.957Z" fill="#FDE3A7" fill-opacity="0.25"/>
<path d="M209.681 301.627H204.309V307H209.681V301.627Z" fill="#FDE3A7" fill-opacity="0.25"/>
<path d="M209.681 136.155H204.309V141.527H209.681V136.155Z" fill="#FDE3A7" fill-opacity="0.25"/>
<path d="M209.681 145.979H204.309V151.351H209.681V145.979Z" fill="#FDE3A7" fill-opacity="0.25"/>
<path d="M63.7026 0H58.3301V5.3725H63.7026V0Z" fill="#FDE3A7" fill-opacity="0.25"/>
<path d="M63.7026 9.67041H58.3301V15.0429H63.7026V9.67041Z" fill="#FDE3A7" fill-opacity="0.25"/>
<path d="M63.7026 155.649H58.3301V161.021H63.7026V155.649Z" fill="#FDE3A7" fill-opacity="0.25"/>
<path d="M63.7026 165.473H58.3301V170.846H63.7026V165.473Z" fill="#FDE3A7" fill-opacity="0.25"/>
<path d="M219.505 155.649H214.132V161.021H219.505V155.649Z" fill="#FDE3A7" fill-opacity="0.25"/>
<path d="M219.505 165.473H214.132V170.846H219.505V165.473Z" fill="#FDE3A7" fill-opacity="0.25"/>
<path d="M219.505 0H214.132V5.3725H219.505V0Z" fill="#FDE3A7" fill-opacity="0.25"/>
<path d="M219.505 9.67041H214.132V15.0429H219.505V9.67041Z" fill="#FDE3A7" fill-opacity="0.25"/>
<path d="M63.7026 77.8247H58.3301V83.1972H63.7026V77.8247Z" fill="#FDE3A7" fill-opacity="0.25"/>
<path d="M63.7026 87.6484H58.3301V93.0209H63.7026V87.6484Z" fill="#FDE3A7" fill-opacity="0.25"/>
<path d="M63.7026 233.474H58.3301V238.846H63.7026V233.474Z" fill="#FDE3A7" fill-opacity="0.25"/>
<path d="M63.7026 243.298H58.3301V248.67H63.7026V243.298Z" fill="#FDE3A7" fill-opacity="0.25"/>
<path d="M219.505 233.474H214.132V238.846H219.505V233.474Z" fill="#FDE3A7" fill-opacity="0.25"/>
<path d="M219.505 243.298H214.132V248.67H219.505V243.298Z" fill="#FDE3A7" fill-opacity="0.25"/>
<path d="M219.505 77.8247H214.132V83.1972H219.505V77.8247Z" fill="#FDE3A7" fill-opacity="0.25"/>
<path d="M219.505 87.6484H214.132V93.0209H219.505V87.6484Z" fill="#FDE3A7" fill-opacity="0.25"/>
<path d="M63.7026 19.4946H58.3301V24.8671H63.7026V19.4946Z" fill="#FDE3A7" fill-opacity="0.25"/>
<path d="M63.7026 29.165H58.3301V34.5375H63.7026V29.165Z" fill="#FDE3A7" fill-opacity="0.25"/>
<path d="M63.7026 175.144H58.3301V180.516H63.7026V175.144Z" fill="#FDE3A7" fill-opacity="0.25"/>
<path d="M63.7026 184.814H58.3301V190.186H63.7026V184.814Z" fill="#FDE3A7" fill-opacity="0.25"/>
<path d="M219.505 175.144H214.132V180.516H219.505V175.144Z" fill="#FDE3A7" fill-opacity="0.25"/>
<path d="M219.505 184.814H214.132V190.186H219.505V184.814Z" fill="#FDE3A7" fill-opacity="0.25"/>
<path d="M219.505 19.4946H214.132V24.8671H219.505V19.4946Z" fill="#FDE3A7" fill-opacity="0.25"/>
<path d="M219.505 29.165H214.132V34.5375H219.505V29.165Z" fill="#FDE3A7" fill-opacity="0.25"/>
<path d="M63.7026 97.3188H58.3301V102.691H63.7026V97.3188Z" fill="#FDE3A7" fill-opacity="0.25"/>
<path d="M63.7026 106.99H58.3301V112.362H63.7026V106.99Z" fill="#FDE3A7" fill-opacity="0.25"/>
<path d="M63.7026 252.968H58.3301V258.341H63.7026V252.968Z" fill="#FDE3A7" fill-opacity="0.25"/>
<path d="M63.7026 262.792H58.3301V268.164H63.7026V262.792Z" fill="#FDE3A7" fill-opacity="0.25"/>
<path d="M219.505 252.968H214.132V258.341H219.505V252.968Z" fill="#FDE3A7" fill-opacity="0.25"/>
<path d="M219.505 262.792H214.132V268.164H219.505V262.792Z" fill="#FDE3A7" fill-opacity="0.25"/>
<path d="M219.505 97.3188H214.132V102.691H219.505V97.3188Z" fill="#FDE3A7" fill-opacity="0.25"/>
<path d="M219.505 106.99H214.132V112.362H219.505V106.99Z" fill="#FDE3A7" fill-opacity="0.25"/>
<path d="M63.7026 38.9893H58.3301V44.3618H63.7026V38.9893Z" fill="#FDE3A7" fill-opacity="0.25"/>
<path d="M63.7026 48.6597H58.3301V54.0322H63.7026V48.6597Z" fill="#FDE3A7" fill-opacity="0.25"/>
<path d="M63.7026 194.638H58.3301V200.011H63.7026V194.638Z" fill="#FDE3A7" fill-opacity="0.25"/>
<path d="M63.7026 204.309H58.3301V209.681H63.7026V204.309Z" fill="#FDE3A7" fill-opacity="0.25"/>
<path d="M219.505 194.638H214.132V200.011H219.505V194.638Z" fill="#FDE3A7" fill-opacity="0.25"/>
<path d="M219.505 204.309H214.132V209.681H219.505V204.309Z" fill="#FDE3A7" fill-opacity="0.25"/>
<path d="M219.505 38.9893H214.132V44.3618H219.505V38.9893Z" fill="#FDE3A7" fill-opacity="0.25"/>
<path d="M219.505 48.6597H214.132V54.0322H219.505V48.6597Z" fill="#FDE3A7" fill-opacity="0.25"/>
<path d="M63.7026 116.813H58.3301V122.186H63.7026V116.813Z" fill="#FDE3A7" fill-opacity="0.25"/>
<path d="M63.7026 126.484H58.3301V131.856H63.7026V126.484Z" fill="#FDE3A7" fill-opacity="0.25"/>
<path d="M63.7026 272.463H58.3301V277.835H63.7026V272.463Z" fill="#FDE3A7" fill-opacity="0.25"/>
<path d="M63.7026 282.133H58.3301V287.506H63.7026V282.133Z" fill="#FDE3A7" fill-opacity="0.25"/>
<path d="M219.505 272.463H214.132V277.835H219.505V272.463Z" fill="#FDE3A7" fill-opacity="0.25"/>
<path d="M219.505 282.133H214.132V287.506H219.505V282.133Z" fill="#FDE3A7" fill-opacity="0.25"/>
<path d="M219.505 116.813H214.132V122.186H219.505V116.813Z" fill="#FDE3A7" fill-opacity="0.25"/>
<path d="M219.505 126.484H214.132V131.856H219.505V126.484Z" fill="#FDE3A7" fill-opacity="0.25"/>
<path d="M63.7026 58.3301H58.3301V63.7026H63.7026V58.3301Z" fill="#FDE3A7" fill-opacity="0.25"/>
<path d="M63.7026 68.1538H58.3301V73.5263H63.7026V68.1538Z" fill="#FDE3A7" fill-opacity="0.25"/>
<path d="M63.7026 214.133H58.3301V219.505H63.7026V214.133Z" fill="#FDE3A7" fill-opacity="0.25"/>
<path d="M63.7026 223.803H58.3301V229.176H63.7026V223.803Z" fill="#FDE3A7" fill-opacity="0.25"/>
<path d="M219.505 214.133H214.132V219.505H219.505V214.133Z" fill="#FDE3A7" fill-opacity="0.25"/>
<path d="M219.505 223.803H214.132V229.176H219.505V223.803Z" fill="#FDE3A7" fill-opacity="0.25"/>
<path d="M219.505 58.3301H214.132V63.7026H219.505V58.3301Z" fill="#FDE3A7" fill-opacity="0.25"/>
<path d="M219.505 68.1538H214.132V73.5263H219.505V68.1538Z" fill="#FDE3A7" fill-opacity="0.25"/>
<path d="M63.7026 136.155H58.3301V141.527H63.7026V136.155Z" fill="#FDE3A7" fill-opacity="0.25"/>
<path d="M63.7026 145.979H58.3301V151.351H63.7026V145.979Z" fill="#FDE3A7" fill-opacity="0.25"/>
<path d="M63.7026 291.957H58.3301V297.33H63.7026V291.957Z" fill="#FDE3A7" fill-opacity="0.25"/>
<path d="M63.7026 301.627H58.3301V307H63.7026V301.627Z" fill="#FDE3A7" fill-opacity="0.25"/>
<path d="M219.505 291.957H214.132V297.33H219.505V291.957Z" fill="#FDE3A7" fill-opacity="0.25"/>
<path d="M219.505 301.627H214.132V307H219.505V301.627Z" fill="#FDE3A7" fill-opacity="0.25"/>
<path d="M219.505 136.155H214.132V141.527H219.505V136.155Z" fill="#FDE3A7" fill-opacity="0.25"/>
<path d="M219.505 145.979H214.132V151.351H219.505V145.979Z" fill="#FDE3A7" fill-opacity="0.25"/>
<path d="M73.5268 0H68.1543V5.3725H73.5268V0Z" fill="#FDE3A7" fill-opacity="0.25"/>
<path d="M73.5268 155.649H68.1543V161.021H73.5268V155.649Z" fill="#FDE3A7" fill-opacity="0.25"/>
<path d="M229.176 155.649H223.803V161.021H229.176V155.649Z" fill="#FDE3A7" fill-opacity="0.25"/>
<path d="M229.176 0H223.803V5.3725H229.176V0Z" fill="#FDE3A7" fill-opacity="0.25"/>
<path d="M73.5268 77.8247H68.1543V83.1972H73.5268V77.8247Z" fill="#FDE3A7" fill-opacity="0.25"/>
<path d="M73.5268 233.474H68.1543V238.846H73.5268V233.474Z" fill="#FDE3A7" fill-opacity="0.25"/>
<path d="M229.176 233.474H223.803V238.846H229.176V233.474Z" fill="#FDE3A7" fill-opacity="0.25"/>
<path d="M229.176 77.8247H223.803V83.1972H229.176V77.8247Z" fill="#FDE3A7" fill-opacity="0.25"/>
<path d="M73.5268 19.4946H68.1543V24.8671H73.5268V19.4946Z" fill="#FDE3A7" fill-opacity="0.25"/>
<path d="M73.5268 175.144H68.1543V180.516H73.5268V175.144Z" fill="#FDE3A7" fill-opacity="0.25"/>
<path d="M229.176 175.144H223.803V180.516H229.176V175.144Z" fill="#FDE3A7" fill-opacity="0.25"/>
<path d="M229.176 19.4946H223.803V24.8671H229.176V19.4946Z" fill="#FDE3A7" fill-opacity="0.25"/>
<path d="M73.5268 97.3188H68.1543V102.691H73.5268V97.3188Z" fill="#FDE3A7" fill-opacity="0.25"/>
<path d="M73.5268 252.968H68.1543V258.341H73.5268V252.968Z" fill="#FDE3A7" fill-opacity="0.25"/>
<path d="M229.176 252.968H223.803V258.341H229.176V252.968Z" fill="#FDE3A7" fill-opacity="0.25"/>
<path d="M229.176 97.3188H223.803V102.691H229.176V97.3188Z" fill="#FDE3A7" fill-opacity="0.25"/>
<path d="M73.5268 38.9893H68.1543V44.3618H73.5268V38.9893Z" fill="#FDE3A7" fill-opacity="0.25"/>
<path d="M73.5268 194.638H68.1543V200.011H73.5268V194.638Z" fill="#FDE3A7" fill-opacity="0.25"/>
<path d="M229.176 194.638H223.803V200.011H229.176V194.638Z" fill="#FDE3A7" fill-opacity="0.25"/>
<path d="M229.176 38.9893H223.803V44.3618H229.176V38.9893Z" fill="#FDE3A7" fill-opacity="0.25"/>
<path d="M73.5268 116.813H68.1543V122.186H73.5268V116.813Z" fill="#FDE3A7" fill-opacity="0.25"/>
<path d="M73.5268 272.463H68.1543V277.835H73.5268V272.463Z" fill="#FDE3A7" fill-opacity="0.25"/>
<path d="M229.176 272.463H223.803V277.835H229.176V272.463Z" fill="#FDE3A7" fill-opacity="0.25"/>
<path d="M229.176 116.813H223.803V122.186H229.176V116.813Z" fill="#FDE3A7" fill-opacity="0.25"/>
<path d="M73.5268 58.3301H68.1543V63.7026H73.5268V58.3301Z" fill="#FDE3A7" fill-opacity="0.25"/>
<path d="M73.5268 214.133H68.1543V219.505H73.5268V214.133Z" fill="#FDE3A7" fill-opacity="0.25"/>
<path d="M229.176 214.133H223.803V219.505H229.176V214.133Z" fill="#FDE3A7" fill-opacity="0.25"/>
<path d="M229.176 58.3301H223.803V63.7026H229.176V58.3301Z" fill="#FDE3A7" fill-opacity="0.25"/>
<path d="M73.5268 136.155H68.1543V141.527H73.5268V136.155Z" fill="#FDE3A7" fill-opacity="0.25"/>
<path d="M73.5268 291.957H68.1543V297.33H73.5268V291.957Z" fill="#FDE3A7" fill-opacity="0.25"/>
<path d="M229.176 291.957H223.803V297.33H229.176V291.957Z" fill="#FDE3A7" fill-opacity="0.25"/>
<path d="M229.176 136.155H223.803V141.527H229.176V136.155Z" fill="#FDE3A7" fill-opacity="0.25"/>
<path d="M73.5268 9.67041H68.1543V15.0429H73.5268V9.67041Z" fill="#FDE3A7" fill-opacity="0.25"/>
<path d="M73.5268 165.473H68.1543V170.846H73.5268V165.473Z" fill="#FDE3A7" fill-opacity="0.25"/>
<path d="M229.176 165.473H223.803V170.846H229.176V165.473Z" fill="#FDE3A7" fill-opacity="0.25"/>
<path d="M229.176 9.67041H223.803V15.0429H229.176V9.67041Z" fill="#FDE3A7" fill-opacity="0.25"/>
<path d="M73.5268 87.6484H68.1543V93.0209H73.5268V87.6484Z" fill="#FDE3A7" fill-opacity="0.25"/>
<path d="M73.5268 243.298H68.1543V248.67H73.5268V243.298Z" fill="#FDE3A7" fill-opacity="0.25"/>
<path d="M229.176 243.298H223.803V248.67H229.176V243.298Z" fill="#FDE3A7" fill-opacity="0.25"/>
<path d="M229.176 87.6484H223.803V93.0209H229.176V87.6484Z" fill="#FDE3A7" fill-opacity="0.25"/>
<path d="M73.5268 29.165H68.1543V34.5375H73.5268V29.165Z" fill="#FDE3A7" fill-opacity="0.25"/>
<path d="M73.5268 184.814H68.1543V190.186H73.5268V184.814Z" fill="#FDE3A7" fill-opacity="0.25"/>
<path d="M229.176 184.814H223.803V190.186H229.176V184.814Z" fill="#FDE3A7" fill-opacity="0.25"/>
<path d="M229.176 29.165H223.803V34.5375H229.176V29.165Z" fill="#FDE3A7" fill-opacity="0.25"/>
<path d="M73.5268 106.99H68.1543V112.362H73.5268V106.99Z" fill="#FDE3A7" fill-opacity="0.25"/>
<path d="M73.5268 262.792H68.1543V268.164H73.5268V262.792Z" fill="#FDE3A7" fill-opacity="0.25"/>
<path d="M229.176 262.792H223.803V268.164H229.176V262.792Z" fill="#FDE3A7" fill-opacity="0.25"/>
<path d="M229.176 106.99H223.803V112.362H229.176V106.99Z" fill="#FDE3A7" fill-opacity="0.25"/>
<path d="M73.5268 48.6597H68.1543V54.0322H73.5268V48.6597Z" fill="#FDE3A7" fill-opacity="0.25"/>
<path d="M73.5268 204.309H68.1543V209.681H73.5268V204.309Z" fill="#FDE3A7" fill-opacity="0.25"/>
<path d="M229.176 204.309H223.803V209.681H229.176V204.309Z" fill="#FDE3A7" fill-opacity="0.25"/>
<path d="M229.176 48.6597H223.803V54.0322H229.176V48.6597Z" fill="#FDE3A7" fill-opacity="0.25"/>
<path d="M73.5268 126.484H68.1543V131.856H73.5268V126.484Z" fill="#FDE3A7" fill-opacity="0.25"/>
<path d="M73.5268 282.133H68.1543V287.506H73.5268V282.133Z" fill="#FDE3A7" fill-opacity="0.25"/>
<path d="M229.176 282.133H223.803V287.506H229.176V282.133Z" fill="#FDE3A7" fill-opacity="0.25"/>
<path d="M229.176 126.484H223.803V131.856H229.176V126.484Z" fill="#FDE3A7" fill-opacity="0.25"/>
<path d="M73.5268 68.1538H68.1543V73.5263H73.5268V68.1538Z" fill="#FDE3A7" fill-opacity="0.25"/>
<path d="M73.5268 223.803H68.1543V229.176H73.5268V223.803Z" fill="#FDE3A7" fill-opacity="0.25"/>
<path d="M229.176 223.803H223.803V229.176H229.176V223.803Z" fill="#FDE3A7" fill-opacity="0.25"/>
<path d="M229.176 68.1538H223.803V73.5263H229.176V68.1538Z" fill="#FDE3A7" fill-opacity="0.25"/>
<path d="M73.5268 145.979H68.1543V151.351H73.5268V145.979Z" fill="#FDE3A7" fill-opacity="0.25"/>
<path d="M73.5268 301.627H68.1543V307H73.5268V301.627Z" fill="#FDE3A7" fill-opacity="0.25"/>
<path d="M229.176 301.627H223.803V307H229.176V301.627Z" fill="#FDE3A7" fill-opacity="0.25"/>
<path d="M229.176 145.979H223.803V151.351H229.176V145.979Z" fill="#FDE3A7" fill-opacity="0.25"/>
<path d="M83.1972 0H77.8247V5.3725H83.1972V0Z" fill="#FDE3A7" fill-opacity="0.25"/>
<path d="M83.1972 9.67041H77.8247V15.0429H83.1972V9.67041Z" fill="#FDE3A7" fill-opacity="0.25"/>
<path d="M83.1972 155.649H77.8247V161.021H83.1972V155.649Z" fill="#FDE3A7" fill-opacity="0.25"/>
<path d="M83.1972 165.473H77.8247V170.846H83.1972V165.473Z" fill="#FDE3A7" fill-opacity="0.25"/>
<path d="M238.846 155.649H233.474V161.021H238.846V155.649Z" fill="#FDE3A7" fill-opacity="0.25"/>
<path d="M238.846 165.473H233.474V170.846H238.846V165.473Z" fill="#FDE3A7" fill-opacity="0.25"/>
<path d="M238.846 0H233.474V5.3725H238.846V0Z" fill="#FDE3A7" fill-opacity="0.25"/>
<path d="M238.846 9.67041H233.474V15.0429H238.846V9.67041Z" fill="#FDE3A7" fill-opacity="0.25"/>
<path d="M5.3725 0H0V5.3725H5.3725V0Z" fill="#FDE3A7" fill-opacity="0.25"/>
<path d="M5.3725 9.67041H0V15.0429H5.3725V9.67041Z" fill="#FDE3A7" fill-opacity="0.25"/>
<path d="M5.3725 155.649H0V161.021H5.3725V155.649Z" fill="#FDE3A7" fill-opacity="0.25"/>
<path d="M5.3725 165.473H0V170.846H5.3725V165.473Z" fill="#FDE3A7" fill-opacity="0.25"/>
<path d="M161.022 155.649H155.649V161.021H161.022V155.649Z" fill="#FDE3A7" fill-opacity="0.25"/>
<path d="M161.022 165.473H155.649V170.846H161.022V165.473Z" fill="#FDE3A7" fill-opacity="0.25"/>
<path d="M161.022 0H155.649V5.3725H161.022V0Z" fill="#FDE3A7" fill-opacity="0.25"/>
<path d="M161.022 9.67041H155.649V15.0429H161.022V9.67041Z" fill="#FDE3A7" fill-opacity="0.25"/>
<path d="M83.1972 77.8247H77.8247V83.1972H83.1972V77.8247Z" fill="#FDE3A7" fill-opacity="0.25"/>
<path d="M83.1972 87.6484H77.8247V93.0209H83.1972V87.6484Z" fill="#FDE3A7" fill-opacity="0.25"/>
<path d="M83.1972 233.474H77.8247V238.846H83.1972V233.474Z" fill="#FDE3A7" fill-opacity="0.25"/>
<path d="M83.1972 243.298H77.8247V248.67H83.1972V243.298Z" fill="#FDE3A7" fill-opacity="0.25"/>
<path d="M238.846 233.474H233.474V238.846H238.846V233.474Z" fill="#FDE3A7" fill-opacity="0.25"/>
<path d="M238.846 243.298H233.474V248.67H238.846V243.298Z" fill="#FDE3A7" fill-opacity="0.25"/>
<path d="M238.846 77.8247H233.474V83.1972H238.846V77.8247Z" fill="#FDE3A7" fill-opacity="0.25"/>
<path d="M238.846 87.6484H233.474V93.0209H238.846V87.6484Z" fill="#FDE3A7" fill-opacity="0.25"/>
<path d="M5.3725 77.8247H0V83.1972H5.3725V77.8247Z" fill="#FDE3A7" fill-opacity="0.25"/>
<path d="M5.3725 87.6484H0V93.0209H5.3725V87.6484Z" fill="#FDE3A7" fill-opacity="0.25"/>
<path d="M5.3725 233.474H0V238.846H5.3725V233.474Z" fill="#FDE3A7" fill-opacity="0.25"/>
<path d="M5.3725 243.298H0V248.67H5.3725V243.298Z" fill="#FDE3A7" fill-opacity="0.25"/>
<path d="M161.022 233.474H155.649V238.846H161.022V233.474Z" fill="#FDE3A7" fill-opacity="0.25"/>
<path d="M161.022 243.298H155.649V248.67H161.022V243.298Z" fill="#FDE3A7" fill-opacity="0.25"/>
<path d="M161.022 77.8247H155.649V83.1972H161.022V77.8247Z" fill="#FDE3A7" fill-opacity="0.25"/>
<path d="M161.022 87.6484H155.649V93.0209H161.022V87.6484Z" fill="#FDE3A7" fill-opacity="0.25"/>
<path d="M83.1972 19.4946H77.8247V24.8671H83.1972V19.4946Z" fill="#FDE3A7" fill-opacity="0.25"/>
<path d="M83.1972 29.165H77.8247V34.5375H83.1972V29.165Z" fill="#FDE3A7" fill-opacity="0.25"/>
<path d="M83.1972 175.144H77.8247V180.516H83.1972V175.144Z" fill="#FDE3A7" fill-opacity="0.25"/>
<path d="M83.1972 184.814H77.8247V190.186H83.1972V184.814Z" fill="#FDE3A7" fill-opacity="0.25"/>
<path d="M238.846 175.144H233.474V180.516H238.846V175.144Z" fill="#FDE3A7" fill-opacity="0.25"/>
<path d="M238.846 184.814H233.474V190.186H238.846V184.814Z" fill="#FDE3A7" fill-opacity="0.25"/>
<path d="M238.846 19.4946H233.474V24.8671H238.846V19.4946Z" fill="#FDE3A7" fill-opacity="0.25"/>
<path d="M238.846 29.165H233.474V34.5375H238.846V29.165Z" fill="#FDE3A7" fill-opacity="0.25"/>
<path d="M5.3725 19.4946H0V24.8671H5.3725V19.4946Z" fill="#FDE3A7" fill-opacity="0.25"/>
<path d="M5.3725 29.165H0V34.5375H5.3725V29.165Z" fill="#FDE3A7" fill-opacity="0.25"/>
<path d="M5.3725 175.144H0V180.516H5.3725V175.144Z" fill="#FDE3A7" fill-opacity="0.25"/>
<path d="M5.3725 184.814H0V190.186H5.3725V184.814Z" fill="#FDE3A7" fill-opacity="0.25"/>
<path d="M161.022 175.144H155.649V180.516H161.022V175.144Z" fill="#FDE3A7" fill-opacity="0.25"/>
<path d="M161.022 184.814H155.649V190.186H161.022V184.814Z" fill="#FDE3A7" fill-opacity="0.25"/>
<path d="M161.022 19.4946H155.649V24.8671H161.022V19.4946Z" fill="#FDE3A7" fill-opacity="0.25"/>
<path d="M161.022 29.165H155.649V34.5375H161.022V29.165Z" fill="#FDE3A7" fill-opacity="0.25"/>
<path d="M83.1972 97.3188H77.8247V102.691H83.1972V97.3188Z" fill="#FDE3A7" fill-opacity="0.25"/>
<path d="M83.1972 106.99H77.8247V112.362H83.1972V106.99Z" fill="#FDE3A7" fill-opacity="0.25"/>
<path d="M83.1972 252.968H77.8247V258.341H83.1972V252.968Z" fill="#FDE3A7" fill-opacity="0.25"/>
<path d="M83.1972 262.792H77.8247V268.164H83.1972V262.792Z" fill="#FDE3A7" fill-opacity="0.25"/>
<path d="M238.846 252.968H233.474V258.341H238.846V252.968Z" fill="#FDE3A7" fill-opacity="0.25"/>
<path d="M238.846 262.792H233.474V268.164H238.846V262.792Z" fill="#FDE3A7" fill-opacity="0.25"/>
<path d="M238.846 97.3188H233.474V102.691H238.846V97.3188Z" fill="#FDE3A7" fill-opacity="0.25"/>
<path d="M238.846 106.99H233.474V112.362H238.846V106.99Z" fill="#FDE3A7" fill-opacity="0.25"/>
<path d="M5.3725 97.3188H0V102.691H5.3725V97.3188Z" fill="#FDE3A7" fill-opacity="0.25"/>
<path d="M5.3725 106.99H0V112.362H5.3725V106.99Z" fill="#FDE3A7" fill-opacity="0.25"/>
<path d="M5.3725 252.968H0V258.341H5.3725V252.968Z" fill="#FDE3A7" fill-opacity="0.25"/>
<path d="M5.3725 262.792H0V268.164H5.3725V262.792Z" fill="#FDE3A7" fill-opacity="0.25"/>
<path d="M161.022 252.968H155.649V258.341H161.022V252.968Z" fill="#FDE3A7" fill-opacity="0.25"/>
<path d="M161.022 262.792H155.649V268.164H161.022V262.792Z" fill="#FDE3A7" fill-opacity="0.25"/>
<path d="M161.022 97.3188H155.649V102.691H161.022V97.3188Z" fill="#FDE3A7" fill-opacity="0.25"/>
<path d="M161.022 106.99H155.649V112.362H161.022V106.99Z" fill="#FDE3A7" fill-opacity="0.25"/>
<path d="M83.1972 38.9893H77.8247V44.3618H83.1972V38.9893Z" fill="#FDE3A7" fill-opacity="0.25"/>
<path d="M83.1972 48.6597H77.8247V54.0322H83.1972V48.6597Z" fill="#FDE3A7" fill-opacity="0.25"/>
<path d="M83.1972 194.638H77.8247V200.011H83.1972V194.638Z" fill="#FDE3A7" fill-opacity="0.25"/>
<path d="M83.1972 204.309H77.8247V209.681H83.1972V204.309Z" fill="#FDE3A7" fill-opacity="0.25"/>
<path d="M238.846 194.638H233.474V200.011H238.846V194.638Z" fill="#FDE3A7" fill-opacity="0.25"/>
<path d="M238.846 204.309H233.474V209.681H238.846V204.309Z" fill="#FDE3A7" fill-opacity="0.25"/>
<path d="M238.846 38.9893H233.474V44.3618H238.846V38.9893Z" fill="#FDE3A7" fill-opacity="0.25"/>
<path d="M238.846 48.6597H233.474V54.0322H238.846V48.6597Z" fill="#FDE3A7" fill-opacity="0.25"/>
<path d="M5.3725 38.9893H0V44.3618H5.3725V38.9893Z" fill="#FDE3A7" fill-opacity="0.25"/>
<path d="M5.3725 48.6597H0V54.0322H5.3725V48.6597Z" fill="#FDE3A7" fill-opacity="0.25"/>
<path d="M5.3725 194.638H0V200.011H5.3725V194.638Z" fill="#FDE3A7" fill-opacity="0.25"/>
<path d="M5.3725 204.309H0V209.681H5.3725V204.309Z" fill="#FDE3A7" fill-opacity="0.25"/>
<path d="M161.022 194.638H155.649V200.011H161.022V194.638Z" fill="#FDE3A7" fill-opacity="0.25"/>
<path d="M161.022 204.309H155.649V209.681H161.022V204.309Z" fill="#FDE3A7" fill-opacity="0.25"/>
<path d="M161.022 38.9893H155.649V44.3618H161.022V38.9893Z" fill="#FDE3A7" fill-opacity="0.25"/>
<path d="M161.022 48.6597H155.649V54.0322H161.022V48.6597Z" fill="#FDE3A7" fill-opacity="0.25"/>
<path d="M83.1972 116.813H77.8247V122.186H83.1972V116.813Z" fill="#FDE3A7" fill-opacity="0.25"/>
<path d="M83.1972 126.484H77.8247V131.856H83.1972V126.484Z" fill="#FDE3A7" fill-opacity="0.25"/>
<path d="M83.1972 272.463H77.8247V277.835H83.1972V272.463Z" fill="#FDE3A7" fill-opacity="0.25"/>
<path d="M83.1972 282.133H77.8247V287.506H83.1972V282.133Z" fill="#FDE3A7" fill-opacity="0.25"/>
<path d="M238.846 272.463H233.474V277.835H238.846V272.463Z" fill="#FDE3A7" fill-opacity="0.25"/>
<path d="M238.846 282.133H233.474V287.506H238.846V282.133Z" fill="#FDE3A7" fill-opacity="0.25"/>
<path d="M238.846 116.813H233.474V122.186H238.846V116.813Z" fill="#FDE3A7" fill-opacity="0.25"/>
<path d="M238.846 126.484H233.474V131.856H238.846V126.484Z" fill="#FDE3A7" fill-opacity="0.25"/>
<path d="M5.3725 116.813H0V122.186H5.3725V116.813Z" fill="#FDE3A7" fill-opacity="0.25"/>
<path d="M5.3725 126.484H0V131.856H5.3725V126.484Z" fill="#FDE3A7" fill-opacity="0.25"/>
<path d="M5.3725 272.463H0V277.835H5.3725V272.463Z" fill="#FDE3A7" fill-opacity="0.25"/>
<path d="M5.3725 282.133H0V287.506H5.3725V282.133Z" fill="#FDE3A7" fill-opacity="0.25"/>
<path d="M161.022 272.463H155.649V277.835H161.022V272.463Z" fill="#FDE3A7" fill-opacity="0.25"/>
<path d="M161.022 282.133H155.649V287.506H161.022V282.133Z" fill="#FDE3A7" fill-opacity="0.25"/>
<path d="M161.022 116.813H155.649V122.186H161.022V116.813Z" fill="#FDE3A7" fill-opacity="0.25"/>
<path d="M161.022 126.484H155.649V131.856H161.022V126.484Z" fill="#FDE3A7" fill-opacity="0.25"/>
<path d="M83.1972 58.3301H77.8247V63.7026H83.1972V58.3301Z" fill="#FDE3A7" fill-opacity="0.25"/>
<path d="M83.1972 68.1538H77.8247V73.5263H83.1972V68.1538Z" fill="#FDE3A7" fill-opacity="0.25"/>
<path d="M83.1972 214.133H77.8247V219.505H83.1972V214.133Z" fill="#FDE3A7" fill-opacity="0.25"/>
<path d="M83.1972 223.803H77.8247V229.176H83.1972V223.803Z" fill="#FDE3A7" fill-opacity="0.25"/>
<path d="M238.846 214.133H233.474V219.505H238.846V214.133Z" fill="#FDE3A7" fill-opacity="0.25"/>
<path d="M238.846 223.803H233.474V229.176H238.846V223.803Z" fill="#FDE3A7" fill-opacity="0.25"/>
<path d="M238.846 58.3301H233.474V63.7026H238.846V58.3301Z" fill="#FDE3A7" fill-opacity="0.25"/>
<path d="M238.846 68.1538H233.474V73.5263H238.846V68.1538Z" fill="#FDE3A7" fill-opacity="0.25"/>
<path d="M5.3725 58.3301H0V63.7026H5.3725V58.3301Z" fill="#FDE3A7" fill-opacity="0.25"/>
<path d="M5.3725 68.1538H0V73.5263H5.3725V68.1538Z" fill="#FDE3A7" fill-opacity="0.25"/>
<path d="M5.3725 214.133H0V219.505H5.3725V214.133Z" fill="#FDE3A7" fill-opacity="0.25"/>
<path d="M5.3725 223.803H0V229.176H5.3725V223.803Z" fill="#FDE3A7" fill-opacity="0.25"/>
<path d="M161.022 214.133H155.649V219.505H161.022V214.133Z" fill="#FDE3A7" fill-opacity="0.25"/>
<path d="M161.022 223.803H155.649V229.176H161.022V223.803Z" fill="#FDE3A7" fill-opacity="0.25"/>
<path d="M161.022 58.3301H155.649V63.7026H161.022V58.3301Z" fill="#FDE3A7" fill-opacity="0.25"/>
<path d="M161.022 68.1538H155.649V73.5263H161.022V68.1538Z" fill="#FDE3A7" fill-opacity="0.25"/>
<path d="M83.1972 136.155H77.8247V141.527H83.1972V136.155Z" fill="#FDE3A7" fill-opacity="0.25"/>
<path d="M83.1972 145.979H77.8247V151.351H83.1972V145.979Z" fill="#FDE3A7" fill-opacity="0.25"/>
<path d="M83.1972 291.957H77.8247V297.33H83.1972V291.957Z" fill="#FDE3A7" fill-opacity="0.25"/>
<path d="M83.1972 301.627H77.8247V307H83.1972V301.627Z" fill="#FDE3A7" fill-opacity="0.25"/>
<path d="M238.846 291.957H233.474V297.33H238.846V291.957Z" fill="#FDE3A7" fill-opacity="0.25"/>
<path d="M238.846 301.627H233.474V307H238.846V301.627Z" fill="#FDE3A7" fill-opacity="0.25"/>
<path d="M238.846 136.155H233.474V141.527H238.846V136.155Z" fill="#FDE3A7" fill-opacity="0.25"/>
<path d="M238.846 145.979H233.474V151.351H238.846V145.979Z" fill="#FDE3A7" fill-opacity="0.25"/>
<path d="M5.3725 136.155H0V141.527H5.3725V136.155Z" fill="#FDE3A7" fill-opacity="0.25"/>
<path d="M5.3725 145.979H0V151.351H5.3725V145.979Z" fill="#FDE3A7" fill-opacity="0.25"/>
<path d="M5.3725 291.957H0V297.33H5.3725V291.957Z" fill="#FDE3A7" fill-opacity="0.25"/>
<path d="M5.3725 301.627H0V307H5.3725V301.627Z" fill="#FDE3A7" fill-opacity="0.25"/>
<path d="M161.022 291.957H155.649V297.33H161.022V291.957Z" fill="#FDE3A7" fill-opacity="0.25"/>
<path d="M161.022 301.627H155.649V307H161.022V301.627Z" fill="#FDE3A7" fill-opacity="0.25"/>
<path d="M161.022 136.155H155.649V141.527H161.022V136.155Z" fill="#FDE3A7" fill-opacity="0.25"/>
<path d="M161.022 145.979H155.649V151.351H161.022V145.979Z" fill="#FDE3A7" fill-opacity="0.25"/>
<path d="M93.0209 0H87.6484V5.3725H93.0209V0Z" fill="#FDE3A7" fill-opacity="0.25"/>
<path d="M93.0209 9.67041H87.6484V15.0429H93.0209V9.67041Z" fill="#FDE3A7" fill-opacity="0.25"/>
<path d="M93.0209 155.649H87.6484V161.021H93.0209V155.649Z" fill="#FDE3A7" fill-opacity="0.25"/>
<path d="M93.0209 165.473H87.6484V170.846H93.0209V165.473Z" fill="#FDE3A7" fill-opacity="0.25"/>
<path d="M248.67 155.649H243.297V161.021H248.67V155.649Z" fill="#FDE3A7" fill-opacity="0.25"/>
<path d="M248.67 165.473H243.297V170.846H248.67V165.473Z" fill="#FDE3A7" fill-opacity="0.25"/>
<path d="M248.67 0H243.297V5.3725H248.67V0Z" fill="#FDE3A7" fill-opacity="0.25"/>
<path d="M248.67 9.67041H243.297V15.0429H248.67V9.67041Z" fill="#FDE3A7" fill-opacity="0.25"/>
<path d="M15.0434 0H9.6709V5.3725H15.0434V0Z" fill="#FDE3A7" fill-opacity="0.25"/>
<path d="M15.0434 9.67041H9.6709V15.0429H15.0434V9.67041Z" fill="#FDE3A7" fill-opacity="0.25"/>
<path d="M15.0434 155.649H9.6709V161.021H15.0434V155.649Z" fill="#FDE3A7" fill-opacity="0.25"/>
<path d="M15.0434 165.473H9.6709V170.846H15.0434V165.473Z" fill="#FDE3A7" fill-opacity="0.25"/>
<path d="M170.846 155.649H165.473V161.021H170.846V155.649Z" fill="#FDE3A7" fill-opacity="0.25"/>
<path d="M170.846 165.473H165.473V170.846H170.846V165.473Z" fill="#FDE3A7" fill-opacity="0.25"/>
<path d="M170.846 0H165.473V5.3725H170.846V0Z" fill="#FDE3A7" fill-opacity="0.25"/>
<path d="M170.846 9.67041H165.473V15.0429H170.846V9.67041Z" fill="#FDE3A7" fill-opacity="0.25"/>
<path d="M93.0209 77.8247H87.6484V83.1972H93.0209V77.8247Z" fill="#FDE3A7" fill-opacity="0.25"/>
<path d="M93.0209 87.6484H87.6484V93.0209H93.0209V87.6484Z" fill="#FDE3A7" fill-opacity="0.25"/>
<path d="M93.0209 233.474H87.6484V238.846H93.0209V233.474Z" fill="#FDE3A7" fill-opacity="0.25"/>
<path d="M93.0209 243.298H87.6484V248.67H93.0209V243.298Z" fill="#FDE3A7" fill-opacity="0.25"/>
<path d="M248.67 233.474H243.297V238.846H248.67V233.474Z" fill="#FDE3A7" fill-opacity="0.25"/>
<path d="M248.67 243.298H243.297V248.67H248.67V243.298Z" fill="#FDE3A7" fill-opacity="0.25"/>
<path d="M248.67 77.8247H243.297V83.1972H248.67V77.8247Z" fill="#FDE3A7" fill-opacity="0.25"/>
<path d="M248.67 87.6484H243.297V93.0209H248.67V87.6484Z" fill="#FDE3A7" fill-opacity="0.25"/>
<path d="M15.0434 77.8247H9.6709V83.1972H15.0434V77.8247Z" fill="#FDE3A7" fill-opacity="0.25"/>
<path d="M15.0434 87.6484H9.6709V93.0209H15.0434V87.6484Z" fill="#FDE3A7" fill-opacity="0.25"/>
<path d="M15.0434 233.474H9.6709V238.846H15.0434V233.474Z" fill="#FDE3A7" fill-opacity="0.25"/>
<path d="M15.0434 243.298H9.6709V248.67H15.0434V243.298Z" fill="#FDE3A7" fill-opacity="0.25"/>
<path d="M170.846 233.474H165.473V238.846H170.846V233.474Z" fill="#FDE3A7" fill-opacity="0.25"/>
<path d="M170.846 243.298H165.473V248.67H170.846V243.298Z" fill="#FDE3A7" fill-opacity="0.25"/>
<path d="M170.846 77.8247H165.473V83.1972H170.846V77.8247Z" fill="#FDE3A7" fill-opacity="0.25"/>
<path d="M170.846 87.6484H165.473V93.0209H170.846V87.6484Z" fill="#FDE3A7" fill-opacity="0.25"/>
<path d="M93.0209 19.4946H87.6484V24.8671H93.0209V19.4946Z" fill="#FDE3A7" fill-opacity="0.25"/>
<path d="M93.0209 29.165H87.6484V34.5375H93.0209V29.165Z" fill="#FDE3A7" fill-opacity="0.25"/>
<path d="M93.0209 175.144H87.6484V180.516H93.0209V175.144Z" fill="#FDE3A7" fill-opacity="0.25"/>
<path d="M93.0209 184.814H87.6484V190.186H93.0209V184.814Z" fill="#FDE3A7" fill-opacity="0.25"/>
<path d="M248.67 175.144H243.297V180.516H248.67V175.144Z" fill="#FDE3A7" fill-opacity="0.25"/>
<path d="M248.67 184.814H243.297V190.186H248.67V184.814Z" fill="#FDE3A7" fill-opacity="0.25"/>
<path d="M248.67 19.4946H243.297V24.8671H248.67V19.4946Z" fill="#FDE3A7" fill-opacity="0.25"/>
<path d="M248.67 29.165H243.297V34.5375H248.67V29.165Z" fill="#FDE3A7" fill-opacity="0.25"/>
<path d="M15.0434 19.4946H9.6709V24.8671H15.0434V19.4946Z" fill="#FDE3A7" fill-opacity="0.25"/>
<path d="M15.0434 29.165H9.6709V34.5375H15.0434V29.165Z" fill="#FDE3A7" fill-opacity="0.25"/>
<path d="M15.0434 175.144H9.6709V180.516H15.0434V175.144Z" fill="#FDE3A7" fill-opacity="0.25"/>
<path d="M15.0434 184.814H9.6709V190.186H15.0434V184.814Z" fill="#FDE3A7" fill-opacity="0.25"/>
<path d="M170.846 175.144H165.473V180.516H170.846V175.144Z" fill="#FDE3A7" fill-opacity="0.25"/>
<path d="M170.846 184.814H165.473V190.186H170.846V184.814Z" fill="#FDE3A7" fill-opacity="0.25"/>
<path d="M170.846 19.4946H165.473V24.8671H170.846V19.4946Z" fill="#FDE3A7" fill-opacity="0.25"/>
<path d="M170.846 29.165H165.473V34.5375H170.846V29.165Z" fill="#FDE3A7" fill-opacity="0.25"/>
<path d="M93.0209 97.3188H87.6484V102.691H93.0209V97.3188Z" fill="#FDE3A7" fill-opacity="0.25"/>
<path d="M93.0209 106.99H87.6484V112.362H93.0209V106.99Z" fill="#FDE3A7" fill-opacity="0.25"/>
<path d="M93.0209 252.968H87.6484V258.341H93.0209V252.968Z" fill="#FDE3A7" fill-opacity="0.25"/>
<path d="M93.0209 262.792H87.6484V268.164H93.0209V262.792Z" fill="#FDE3A7" fill-opacity="0.25"/>
<path d="M248.67 252.968H243.297V258.341H248.67V252.968Z" fill="#FDE3A7" fill-opacity="0.25"/>
<path d="M248.67 262.792H243.297V268.164H248.67V262.792Z" fill="#FDE3A7" fill-opacity="0.25"/>
<path d="M248.67 97.3188H243.297V102.691H248.67V97.3188Z" fill="#FDE3A7" fill-opacity="0.25"/>
<path d="M248.67 106.99H243.297V112.362H248.67V106.99Z" fill="#FDE3A7" fill-opacity="0.25"/>
<path d="M15.0434 97.3188H9.6709V102.691H15.0434V97.3188Z" fill="#FDE3A7" fill-opacity="0.25"/>
<path d="M15.0434 106.99H9.6709V112.362H15.0434V106.99Z" fill="#FDE3A7" fill-opacity="0.25"/>
<path d="M15.0434 252.968H9.6709V258.341H15.0434V252.968Z" fill="#FDE3A7" fill-opacity="0.25"/>
<path d="M15.0434 262.792H9.6709V268.164H15.0434V262.792Z" fill="#FDE3A7" fill-opacity="0.25"/>
<path d="M170.846 252.968H165.473V258.341H170.846V252.968Z" fill="#FDE3A7" fill-opacity="0.25"/>
<path d="M170.846 262.792H165.473V268.164H170.846V262.792Z" fill="#FDE3A7" fill-opacity="0.25"/>
<path d="M170.846 97.3188H165.473V102.691H170.846V97.3188Z" fill="#FDE3A7" fill-opacity="0.25"/>
<path d="M170.846 106.99H165.473V112.362H170.846V106.99Z" fill="#FDE3A7" fill-opacity="0.25"/>
<path d="M93.0209 38.9893H87.6484V44.3618H93.0209V38.9893Z" fill="#FDE3A7" fill-opacity="0.25"/>
<path d="M93.0209 48.6597H87.6484V54.0322H93.0209V48.6597Z" fill="#FDE3A7" fill-opacity="0.25"/>
<path d="M93.0209 194.638H87.6484V200.011H93.0209V194.638Z" fill="#FDE3A7" fill-opacity="0.25"/>
<path d="M93.0209 204.309H87.6484V209.681H93.0209V204.309Z" fill="#FDE3A7" fill-opacity="0.25"/>
<path d="M248.67 194.638H243.297V200.011H248.67V194.638Z" fill="#FDE3A7" fill-opacity="0.25"/>
<path d="M248.67 204.309H243.297V209.681H248.67V204.309Z" fill="#FDE3A7" fill-opacity="0.25"/>
<path d="M248.67 38.9893H243.297V44.3618H248.67V38.9893Z" fill="#FDE3A7" fill-opacity="0.25"/>
<path d="M248.67 48.6597H243.297V54.0322H248.67V48.6597Z" fill="#FDE3A7" fill-opacity="0.25"/>
<path d="M15.0434 38.9893H9.6709V44.3618H15.0434V38.9893Z" fill="#FDE3A7" fill-opacity="0.25"/>
<path d="M15.0434 48.6597H9.6709V54.0322H15.0434V48.6597Z" fill="#FDE3A7" fill-opacity="0.25"/>
<path d="M15.0434 194.638H9.6709V200.011H15.0434V194.638Z" fill="#FDE3A7" fill-opacity="0.25"/>
<path d="M15.0434 204.309H9.6709V209.681H15.0434V204.309Z" fill="#FDE3A7" fill-opacity="0.25"/>
<path d="M170.846 194.638H165.473V200.011H170.846V194.638Z" fill="#FDE3A7" fill-opacity="0.25"/>
<path d="M170.846 204.309H165.473V209.681H170.846V204.309Z" fill="#FDE3A7" fill-opacity="0.25"/>
<path d="M170.846 38.9893H165.473V44.3618H170.846V38.9893Z" fill="#FDE3A7" fill-opacity="0.25"/>
<path d="M170.846 48.6597H165.473V54.0322H170.846V48.6597Z" fill="#FDE3A7" fill-opacity="0.25"/>
<path d="M93.0209 116.813H87.6484V122.186H93.0209V116.813Z" fill="#FDE3A7" fill-opacity="0.25"/>
<path d="M93.0209 126.484H87.6484V131.856H93.0209V126.484Z" fill="#FDE3A7" fill-opacity="0.25"/>
<path d="M93.0209 272.463H87.6484V277.835H93.0209V272.463Z" fill="#FDE3A7" fill-opacity="0.25"/>
<path d="M93.0209 282.133H87.6484V287.506H93.0209V282.133Z" fill="#FDE3A7" fill-opacity="0.25"/>
<path d="M248.67 272.463H243.297V277.835H248.67V272.463Z" fill="#FDE3A7" fill-opacity="0.25"/>
<path d="M248.67 282.133H243.297V287.506H248.67V282.133Z" fill="#FDE3A7" fill-opacity="0.25"/>
<path d="M248.67 116.813H243.297V122.186H248.67V116.813Z" fill="#FDE3A7" fill-opacity="0.25"/>
<path d="M248.67 126.484H243.297V131.856H248.67V126.484Z" fill="#FDE3A7" fill-opacity="0.25"/>
<path d="M15.0434 116.813H9.6709V122.186H15.0434V116.813Z" fill="#FDE3A7" fill-opacity="0.25"/>
<path d="M15.0434 126.484H9.6709V131.856H15.0434V126.484Z" fill="#FDE3A7" fill-opacity="0.25"/>
<path d="M15.0434 272.463H9.6709V277.835H15.0434V272.463Z" fill="#FDE3A7" fill-opacity="0.25"/>
<path d="M15.0434 282.133H9.6709V287.506H15.0434V282.133Z" fill="#FDE3A7" fill-opacity="0.25"/>
<path d="M170.846 272.463H165.473V277.835H170.846V272.463Z" fill="#FDE3A7" fill-opacity="0.25"/>
<path d="M170.846 282.133H165.473V287.506H170.846V282.133Z" fill="#FDE3A7" fill-opacity="0.25"/>
<path d="M170.846 116.813H165.473V122.186H170.846V116.813Z" fill="#FDE3A7" fill-opacity="0.25"/>
<path d="M170.846 126.484H165.473V131.856H170.846V126.484Z" fill="#FDE3A7" fill-opacity="0.25"/>
<path d="M93.0209 58.3301H87.6484V63.7026H93.0209V58.3301Z" fill="#FDE3A7" fill-opacity="0.25"/>
<path d="M93.0209 68.1538H87.6484V73.5263H93.0209V68.1538Z" fill="#FDE3A7" fill-opacity="0.25"/>
<path d="M93.0209 214.133H87.6484V219.505H93.0209V214.133Z" fill="#FDE3A7" fill-opacity="0.25"/>
<path d="M93.0209 223.803H87.6484V229.176H93.0209V223.803Z" fill="#FDE3A7" fill-opacity="0.25"/>
<path d="M248.67 214.133H243.297V219.505H248.67V214.133Z" fill="#FDE3A7" fill-opacity="0.25"/>
<path d="M248.67 223.803H243.297V229.176H248.67V223.803Z" fill="#FDE3A7" fill-opacity="0.25"/>
<path d="M248.67 58.3301H243.297V63.7026H248.67V58.3301Z" fill="#FDE3A7" fill-opacity="0.25"/>
<path d="M248.67 68.1538H243.297V73.5263H248.67V68.1538Z" fill="#FDE3A7" fill-opacity="0.25"/>
<path d="M15.0434 58.3301H9.6709V63.7026H15.0434V58.3301Z" fill="#FDE3A7" fill-opacity="0.25"/>
<path d="M15.0434 68.1538H9.6709V73.5263H15.0434V68.1538Z" fill="#FDE3A7" fill-opacity="0.25"/>
<path d="M15.0434 214.133H9.6709V219.505H15.0434V214.133Z" fill="#FDE3A7" fill-opacity="0.25"/>
<path d="M15.0434 223.803H9.6709V229.176H15.0434V223.803Z" fill="#FDE3A7" fill-opacity="0.25"/>
<path d="M170.846 214.133H165.473V219.505H170.846V214.133Z" fill="#FDE3A7" fill-opacity="0.25"/>
<path d="M170.846 223.803H165.473V229.176H170.846V223.803Z" fill="#FDE3A7" fill-opacity="0.25"/>
<path d="M170.846 58.3301H165.473V63.7026H170.846V58.3301Z" fill="#FDE3A7" fill-opacity="0.25"/>
<path d="M170.846 68.1538H165.473V73.5263H170.846V68.1538Z" fill="#FDE3A7" fill-opacity="0.25"/>
<path d="M93.0209 136.155H87.6484V141.527H93.0209V136.155Z" fill="#FDE3A7" fill-opacity="0.25"/>
<path d="M93.0209 145.979H87.6484V151.351H93.0209V145.979Z" fill="#FDE3A7" fill-opacity="0.25"/>
<path d="M93.0209 291.957H87.6484V297.33H93.0209V291.957Z" fill="#FDE3A7" fill-opacity="0.25"/>
<path d="M93.0209 301.627H87.6484V307H93.0209V301.627Z" fill="#FDE3A7" fill-opacity="0.25"/>
<path d="M248.67 291.957H243.297V297.33H248.67V291.957Z" fill="#FDE3A7" fill-opacity="0.25"/>
<path d="M248.67 301.627H243.297V307H248.67V301.627Z" fill="#FDE3A7" fill-opacity="0.25"/>
<path d="M248.67 136.155H243.297V141.527H248.67V136.155Z" fill="#FDE3A7" fill-opacity="0.25"/>
<path d="M248.67 145.979H243.297V151.351H248.67V145.979Z" fill="#FDE3A7" fill-opacity="0.25"/>
<path d="M15.0434 136.155H9.6709V141.527H15.0434V136.155Z" fill="#FDE3A7" fill-opacity="0.25"/>
<path d="M15.0434 145.979H9.6709V151.351H15.0434V145.979Z" fill="#FDE3A7" fill-opacity="0.25"/>
<path d="M15.0434 291.957H9.6709V297.33H15.0434V291.957Z" fill="#FDE3A7" fill-opacity="0.25"/>
<path d="M15.0434 301.627H9.6709V307H15.0434V301.627Z" fill="#FDE3A7" fill-opacity="0.25"/>
<path d="M170.846 291.957H165.473V297.33H170.846V291.957Z" fill="#FDE3A7" fill-opacity="0.25"/>
<path d="M170.846 301.627H165.473V307H170.846V301.627Z" fill="#FDE3A7" fill-opacity="0.25"/>
<path d="M170.846 136.155H165.473V141.527H170.846V136.155Z" fill="#FDE3A7" fill-opacity="0.25"/>
<path d="M170.846 145.979H165.473V151.351H170.846V145.979Z" fill="#FDE3A7" fill-opacity="0.25"/>
<path d="M102.691 0H97.3188V5.3725H102.691V0Z" fill="#FDE3A7" fill-opacity="0.25"/>
<path d="M102.691 9.67041H97.3188V15.0429H102.691V9.67041Z" fill="#FDE3A7" fill-opacity="0.25"/>
<path d="M102.691 155.649H97.3188V161.021H102.691V155.649Z" fill="#FDE3A7" fill-opacity="0.25"/>
<path d="M102.691 165.473H97.3188V170.846H102.691V165.473Z" fill="#FDE3A7" fill-opacity="0.25"/>
<path d="M258.341 155.649H252.968V161.021H258.341V155.649Z" fill="#FDE3A7" fill-opacity="0.25"/>
<path d="M258.341 165.473H252.968V170.846H258.341V165.473Z" fill="#FDE3A7" fill-opacity="0.25"/>
<path d="M258.341 0H252.968V5.3725H258.341V0Z" fill="#FDE3A7" fill-opacity="0.25"/>
<path d="M258.341 9.67041H252.968V15.0429H258.341V9.67041Z" fill="#FDE3A7" fill-opacity="0.25"/>
<path d="M24.8666 0H19.4941V5.3725H24.8666V0Z" fill="#FDE3A7" fill-opacity="0.25"/>
<path d="M24.8666 9.67041H19.4941V15.0429H24.8666V9.67041Z" fill="#FDE3A7" fill-opacity="0.25"/>
<path d="M24.8666 155.649H19.4941V161.021H24.8666V155.649Z" fill="#FDE3A7" fill-opacity="0.25"/>
<path d="M24.8666 165.473H19.4941V170.846H24.8666V165.473Z" fill="#FDE3A7" fill-opacity="0.25"/>
<path d="M180.516 155.649H175.144V161.021H180.516V155.649Z" fill="#FDE3A7" fill-opacity="0.25"/>
<path d="M180.516 165.473H175.144V170.846H180.516V165.473Z" fill="#FDE3A7" fill-opacity="0.25"/>
<path d="M180.516 0H175.144V5.3725H180.516V0Z" fill="#FDE3A7" fill-opacity="0.25"/>
<path d="M180.516 9.67041H175.144V15.0429H180.516V9.67041Z" fill="#FDE3A7" fill-opacity="0.25"/>
<path d="M102.691 77.8247H97.3188V83.1972H102.691V77.8247Z" fill="#FDE3A7" fill-opacity="0.25"/>
<path d="M102.691 87.6484H97.3188V93.0209H102.691V87.6484Z" fill="#FDE3A7" fill-opacity="0.25"/>
<path d="M102.691 233.474H97.3188V238.846H102.691V233.474Z" fill="#FDE3A7" fill-opacity="0.25"/>
<path d="M102.691 243.298H97.3188V248.67H102.691V243.298Z" fill="#FDE3A7" fill-opacity="0.25"/>
<path d="M258.341 233.474H252.968V238.846H258.341V233.474Z" fill="#FDE3A7" fill-opacity="0.25"/>
<path d="M258.341 243.298H252.968V248.67H258.341V243.298Z" fill="#FDE3A7" fill-opacity="0.25"/>
<path d="M258.341 77.8247H252.968V83.1972H258.341V77.8247Z" fill="#FDE3A7" fill-opacity="0.25"/>
<path d="M258.341 87.6484H252.968V93.0209H258.341V87.6484Z" fill="#FDE3A7" fill-opacity="0.25"/>
<path d="M24.8666 77.8247H19.4941V83.1972H24.8666V77.8247Z" fill="#FDE3A7" fill-opacity="0.25"/>
<path d="M24.8666 87.6484H19.4941V93.0209H24.8666V87.6484Z" fill="#FDE3A7" fill-opacity="0.25"/>
<path d="M24.8666 233.474H19.4941V238.846H24.8666V233.474Z" fill="#FDE3A7" fill-opacity="0.25"/>
<path d="M24.8666 243.298H19.4941V248.67H24.8666V243.298Z" fill="#FDE3A7" fill-opacity="0.25"/>
<path d="M180.516 233.474H175.144V238.846H180.516V233.474Z" fill="#FDE3A7" fill-opacity="0.25"/>
<path d="M180.516 243.298H175.144V248.67H180.516V243.298Z" fill="#FDE3A7" fill-opacity="0.25"/>
<path d="M180.516 77.8247H175.144V83.1972H180.516V77.8247Z" fill="#FDE3A7" fill-opacity="0.25"/>
<path d="M180.516 87.6484H175.144V93.0209H180.516V87.6484Z" fill="#FDE3A7" fill-opacity="0.25"/>
<path d="M102.691 19.4946H97.3188V24.8671H102.691V19.4946Z" fill="#FDE3A7" fill-opacity="0.25"/>
<path d="M102.691 29.165H97.3188V34.5375H102.691V29.165Z" fill="#FDE3A7" fill-opacity="0.25"/>
<path d="M102.691 175.144H97.3188V180.516H102.691V175.144Z" fill="#FDE3A7" fill-opacity="0.25"/>
<path d="M102.691 184.814H97.3188V190.186H102.691V184.814Z" fill="#FDE3A7" fill-opacity="0.25"/>
<path d="M258.341 175.144H252.968V180.516H258.341V175.144Z" fill="#FDE3A7" fill-opacity="0.25"/>
<path d="M258.341 184.814H252.968V190.186H258.341V184.814Z" fill="#FDE3A7" fill-opacity="0.25"/>
<path d="M258.341 19.4946H252.968V24.8671H258.341V19.4946Z" fill="#FDE3A7" fill-opacity="0.25"/>
<path d="M258.341 29.165H252.968V34.5375H258.341V29.165Z" fill="#FDE3A7" fill-opacity="0.25"/>
<path d="M24.8666 19.4946H19.4941V24.8671H24.8666V19.4946Z" fill="#FDE3A7" fill-opacity="0.25"/>
<path d="M24.8666 29.165H19.4941V34.5375H24.8666V29.165Z" fill="#FDE3A7" fill-opacity="0.25"/>
<path d="M24.8666 175.144H19.4941V180.516H24.8666V175.144Z" fill="#FDE3A7" fill-opacity="0.25"/>
<path d="M24.8666 184.814H19.4941V190.186H24.8666V184.814Z" fill="#FDE3A7" fill-opacity="0.25"/>
<path d="M180.516 175.144H175.144V180.516H180.516V175.144Z" fill="#FDE3A7" fill-opacity="0.25"/>
<path d="M180.516 184.814H175.144V190.186H180.516V184.814Z" fill="#FDE3A7" fill-opacity="0.25"/>
<path d="M180.516 19.4946H175.144V24.8671H180.516V19.4946Z" fill="#FDE3A7" fill-opacity="0.25"/>
<path d="M180.516 29.165H175.144V34.5375H180.516V29.165Z" fill="#FDE3A7" fill-opacity="0.25"/>
<path d="M102.691 97.3188H97.3188V102.691H102.691V97.3188Z" fill="#FDE3A7" fill-opacity="0.25"/>
<path d="M102.691 106.99H97.3188V112.362H102.691V106.99Z" fill="#FDE3A7" fill-opacity="0.25"/>
<path d="M102.691 252.968H97.3188V258.341H102.691V252.968Z" fill="#FDE3A7" fill-opacity="0.25"/>
<path d="M102.691 262.792H97.3188V268.164H102.691V262.792Z" fill="#FDE3A7" fill-opacity="0.25"/>
<path d="M258.341 252.968H252.968V258.341H258.341V252.968Z" fill="#FDE3A7" fill-opacity="0.25"/>
<path d="M258.341 262.792H252.968V268.164H258.341V262.792Z" fill="#FDE3A7" fill-opacity="0.25"/>
<path d="M258.341 97.3188H252.968V102.691H258.341V97.3188Z" fill="#FDE3A7" fill-opacity="0.25"/>
<path d="M258.341 106.99H252.968V112.362H258.341V106.99Z" fill="#FDE3A7" fill-opacity="0.25"/>
<path d="M24.8666 97.3188H19.4941V102.691H24.8666V97.3188Z" fill="#FDE3A7" fill-opacity="0.25"/>
<path d="M24.8666 106.99H19.4941V112.362H24.8666V106.99Z" fill="#FDE3A7" fill-opacity="0.25"/>
<path d="M24.8666 252.968H19.4941V258.341H24.8666V252.968Z" fill="#FDE3A7" fill-opacity="0.25"/>
<path d="M24.8666 262.792H19.4941V268.164H24.8666V262.792Z" fill="#FDE3A7" fill-opacity="0.25"/>
<path d="M180.516 252.968H175.144V258.341H180.516V252.968Z" fill="#FDE3A7" fill-opacity="0.25"/>
<path d="M180.516 262.792H175.144V268.164H180.516V262.792Z" fill="#FDE3A7" fill-opacity="0.25"/>
<path d="M180.516 97.3188H175.144V102.691H180.516V97.3188Z" fill="#FDE3A7" fill-opacity="0.25"/>
<path d="M180.516 106.99H175.144V112.362H180.516V106.99Z" fill="#FDE3A7" fill-opacity="0.25"/>
<path d="M102.691 38.9893H97.3188V44.3618H102.691V38.9893Z" fill="#FDE3A7" fill-opacity="0.25"/>
<path d="M102.691 48.6597H97.3188V54.0322H102.691V48.6597Z" fill="#FDE3A7" fill-opacity="0.25"/>
<path d="M102.691 194.638H97.3188V200.011H102.691V194.638Z" fill="#FDE3A7" fill-opacity="0.25"/>
<path d="M102.691 204.309H97.3188V209.681H102.691V204.309Z" fill="#FDE3A7" fill-opacity="0.25"/>
<path d="M258.341 194.638H252.968V200.011H258.341V194.638Z" fill="#FDE3A7" fill-opacity="0.25"/>
<path d="M258.341 204.309H252.968V209.681H258.341V204.309Z" fill="#FDE3A7" fill-opacity="0.25"/>
<path d="M258.341 38.9893H252.968V44.3618H258.341V38.9893Z" fill="#FDE3A7" fill-opacity="0.25"/>
<path d="M258.341 48.6597H252.968V54.0322H258.341V48.6597Z" fill="#FDE3A7" fill-opacity="0.25"/>
<path d="M24.8666 38.9893H19.4941V44.3618H24.8666V38.9893Z" fill="#FDE3A7" fill-opacity="0.25"/>
<path d="M24.8666 48.6597H19.4941V54.0322H24.8666V48.6597Z" fill="#FDE3A7" fill-opacity="0.25"/>
<path d="M24.8666 194.638H19.4941V200.011H24.8666V194.638Z" fill="#FDE3A7" fill-opacity="0.25"/>
<path d="M24.8666 204.309H19.4941V209.681H24.8666V204.309Z" fill="#FDE3A7" fill-opacity="0.25"/>
<path d="M180.516 194.638H175.144V200.011H180.516V194.638Z" fill="#FDE3A7" fill-opacity="0.25"/>
<path d="M180.516 204.309H175.144V209.681H180.516V204.309Z" fill="#FDE3A7" fill-opacity="0.25"/>
<path d="M180.516 38.9893H175.144V44.3618H180.516V38.9893Z" fill="#FDE3A7" fill-opacity="0.25"/>
<path d="M180.516 48.6597H175.144V54.0322H180.516V48.6597Z" fill="#FDE3A7" fill-opacity="0.25"/>
<path d="M102.691 116.813H97.3188V122.186H102.691V116.813Z" fill="#FDE3A7" fill-opacity="0.25"/>
<path d="M102.691 126.484H97.3188V131.856H102.691V126.484Z" fill="#FDE3A7" fill-opacity="0.25"/>
<path d="M102.691 272.463H97.3188V277.835H102.691V272.463Z" fill="#FDE3A7" fill-opacity="0.25"/>
<path d="M102.691 282.133H97.3188V287.506H102.691V282.133Z" fill="#FDE3A7" fill-opacity="0.25"/>
<path d="M258.341 272.463H252.968V277.835H258.341V272.463Z" fill="#FDE3A7" fill-opacity="0.25"/>
<path d="M258.341 282.133H252.968V287.506H258.341V282.133Z" fill="#FDE3A7" fill-opacity="0.25"/>
<path d="M258.341 116.813H252.968V122.186H258.341V116.813Z" fill="#FDE3A7" fill-opacity="0.25"/>
<path d="M258.341 126.484H252.968V131.856H258.341V126.484Z" fill="#FDE3A7" fill-opacity="0.25"/>
<path d="M24.8666 116.813H19.4941V122.186H24.8666V116.813Z" fill="#FDE3A7" fill-opacity="0.25"/>
<path d="M24.8666 126.484H19.4941V131.856H24.8666V126.484Z" fill="#FDE3A7" fill-opacity="0.25"/>
<path d="M24.8666 272.463H19.4941V277.835H24.8666V272.463Z" fill="#FDE3A7" fill-opacity="0.25"/>
<path d="M24.8666 282.133H19.4941V287.506H24.8666V282.133Z" fill="#FDE3A7" fill-opacity="0.25"/>
<path d="M180.516 272.463H175.144V277.835H180.516V272.463Z" fill="#FDE3A7" fill-opacity="0.25"/>
<path d="M180.516 282.133H175.144V287.506H180.516V282.133Z" fill="#FDE3A7" fill-opacity="0.25"/>
<path d="M180.516 116.813H175.144V122.186H180.516V116.813Z" fill="#FDE3A7" fill-opacity="0.25"/>
<path d="M180.516 126.484H175.144V131.856H180.516V126.484Z" fill="#FDE3A7" fill-opacity="0.25"/>
<path d="M102.691 58.3301H97.3188V63.7026H102.691V58.3301Z" fill="#FDE3A7" fill-opacity="0.25"/>
<path d="M102.691 68.1538H97.3188V73.5263H102.691V68.1538Z" fill="#FDE3A7" fill-opacity="0.25"/>
<path d="M102.691 214.133H97.3188V219.505H102.691V214.133Z" fill="#FDE3A7" fill-opacity="0.25"/>
<path d="M102.691 223.803H97.3188V229.176H102.691V223.803Z" fill="#FDE3A7" fill-opacity="0.25"/>
<path d="M258.341 214.133H252.968V219.505H258.341V214.133Z" fill="#FDE3A7" fill-opacity="0.25"/>
<path d="M258.341 223.803H252.968V229.176H258.341V223.803Z" fill="#FDE3A7" fill-opacity="0.25"/>
<path d="M258.341 58.3301H252.968V63.7026H258.341V58.3301Z" fill="#FDE3A7" fill-opacity="0.25"/>
<path d="M258.341 68.1538H252.968V73.5263H258.341V68.1538Z" fill="#FDE3A7" fill-opacity="0.25"/>
<path d="M24.8666 58.3301H19.4941V63.7026H24.8666V58.3301Z" fill="#FDE3A7" fill-opacity="0.25"/>
<path d="M24.8666 68.1538H19.4941V73.5263H24.8666V68.1538Z" fill="#FDE3A7" fill-opacity="0.25"/>
<path d="M24.8666 214.133H19.4941V219.505H24.8666V214.133Z" fill="#FDE3A7" fill-opacity="0.25"/>
<path d="M24.8666 223.803H19.4941V229.176H24.8666V223.803Z" fill="#FDE3A7" fill-opacity="0.25"/>
<path d="M180.516 214.133H175.144V219.505H180.516V214.133Z" fill="#FDE3A7" fill-opacity="0.25"/>
<path d="M180.516 223.803H175.144V229.176H180.516V223.803Z" fill="#FDE3A7" fill-opacity="0.25"/>
<path d="M180.516 58.3301H175.144V63.7026H180.516V58.3301Z" fill="#FDE3A7" fill-opacity="0.25"/>
<path d="M180.516 68.1538H175.144V73.5263H180.516V68.1538Z" fill="#FDE3A7" fill-opacity="0.25"/>
<path d="M102.691 136.155H97.3188V141.527H102.691V136.155Z" fill="#FDE3A7" fill-opacity="0.25"/>
<path d="M102.691 145.979H97.3188V151.351H102.691V145.979Z" fill="#FDE3A7" fill-opacity="0.25"/>
<path d="M102.691 291.957H97.3188V297.33H102.691V291.957Z" fill="#FDE3A7" fill-opacity="0.25"/>
<path d="M102.691 301.627H97.3188V307H102.691V301.627Z" fill="#FDE3A7" fill-opacity="0.25"/>
<path d="M258.341 291.957H252.968V297.33H258.341V291.957Z" fill="#FDE3A7" fill-opacity="0.25"/>
<path d="M258.341 301.627H252.968V307H258.341V301.627Z" fill="#FDE3A7" fill-opacity="0.25"/>
<path d="M258.341 136.155H252.968V141.527H258.341V136.155Z" fill="#FDE3A7" fill-opacity="0.25"/>
<path d="M258.341 145.979H252.968V151.351H258.341V145.979Z" fill="#FDE3A7" fill-opacity="0.25"/>
<path d="M24.8666 136.155H19.4941V141.527H24.8666V136.155Z" fill="#FDE3A7" fill-opacity="0.25"/>
<path d="M24.8666 145.979H19.4941V151.351H24.8666V145.979Z" fill="#FDE3A7" fill-opacity="0.25"/>
<path d="M24.8666 291.957H19.4941V297.33H24.8666V291.957Z" fill="#FDE3A7" fill-opacity="0.25"/>
<path d="M24.8666 301.627H19.4941V307H24.8666V301.627Z" fill="#FDE3A7" fill-opacity="0.25"/>
<path d="M180.516 291.957H175.144V297.33H180.516V291.957Z" fill="#FDE3A7" fill-opacity="0.25"/>
<path d="M180.516 301.627H175.144V307H180.516V301.627Z" fill="#FDE3A7" fill-opacity="0.25"/>
<path d="M180.516 136.155H175.144V141.527H180.516V136.155Z" fill="#FDE3A7" fill-opacity="0.25"/>
<path d="M180.516 145.979H175.144V151.351H180.516V145.979Z" fill="#FDE3A7" fill-opacity="0.25"/>
<path d="M112.362 0H106.989V5.3725H112.362V0Z" fill="#FDE3A7" fill-opacity="0.25"/>
<path d="M112.362 155.649H106.989V161.021H112.362V155.649Z" fill="#FDE3A7" fill-opacity="0.25"/>
<path d="M268.164 155.649H262.792V161.021H268.164V155.649Z" fill="#FDE3A7" fill-opacity="0.25"/>
<path d="M268.164 0H262.792V5.3725H268.164V0Z" fill="#FDE3A7" fill-opacity="0.25"/>
<path d="M34.5371 0H29.1646V5.3725H34.5371V0Z" fill="#FDE3A7" fill-opacity="0.25"/>
<path d="M34.5371 155.649H29.1646V161.021H34.5371V155.649Z" fill="#FDE3A7" fill-opacity="0.25"/>
<path d="M190.186 155.649H184.814V161.021H190.186V155.649Z" fill="#FDE3A7" fill-opacity="0.25"/>
<path d="M190.186 0H184.814V5.3725H190.186V0Z" fill="#FDE3A7" fill-opacity="0.25"/>
<path d="M112.362 77.8247H106.989V83.1972H112.362V77.8247Z" fill="#FDE3A7" fill-opacity="0.25"/>
<path d="M112.362 233.474H106.989V238.846H112.362V233.474Z" fill="#FDE3A7" fill-opacity="0.25"/>
<path d="M268.164 233.474H262.792V238.846H268.164V233.474Z" fill="#FDE3A7" fill-opacity="0.25"/>
<path d="M268.164 77.8247H262.792V83.1972H268.164V77.8247Z" fill="#FDE3A7" fill-opacity="0.25"/>
<path d="M34.5371 77.8247H29.1646V83.1972H34.5371V77.8247Z" fill="#FDE3A7" fill-opacity="0.25"/>
<path d="M34.5371 233.474H29.1646V238.846H34.5371V233.474Z" fill="#FDE3A7" fill-opacity="0.25"/>
<path d="M190.186 233.474H184.814V238.846H190.186V233.474Z" fill="#FDE3A7" fill-opacity="0.25"/>
<path d="M190.186 77.8247H184.814V83.1972H190.186V77.8247Z" fill="#FDE3A7" fill-opacity="0.25"/>
<path d="M112.362 19.4946H106.989V24.8671H112.362V19.4946Z" fill="#FDE3A7" fill-opacity="0.25"/>
<path d="M112.362 175.144H106.989V180.516H112.362V175.144Z" fill="#FDE3A7" fill-opacity="0.25"/>
<path d="M268.164 175.144H262.792V180.516H268.164V175.144Z" fill="#FDE3A7" fill-opacity="0.25"/>
<path d="M268.164 19.4946H262.792V24.8671H268.164V19.4946Z" fill="#FDE3A7" fill-opacity="0.25"/>
<path d="M34.5371 19.4946H29.1646V24.8671H34.5371V19.4946Z" fill="#FDE3A7" fill-opacity="0.25"/>
<path d="M34.5371 175.144H29.1646V180.516H34.5371V175.144Z" fill="#FDE3A7" fill-opacity="0.25"/>
<path d="M190.186 175.144H184.814V180.516H190.186V175.144Z" fill="#FDE3A7" fill-opacity="0.25"/>
<path d="M190.186 19.4946H184.814V24.8671H190.186V19.4946Z" fill="#FDE3A7" fill-opacity="0.25"/>
<path d="M112.362 97.3188H106.989V102.691H112.362V97.3188Z" fill="#FDE3A7" fill-opacity="0.25"/>
<path d="M112.362 252.968H106.989V258.341H112.362V252.968Z" fill="#FDE3A7" fill-opacity="0.25"/>
<path d="M268.164 252.968H262.792V258.341H268.164V252.968Z" fill="#FDE3A7" fill-opacity="0.25"/>
<path d="M268.164 97.3188H262.792V102.691H268.164V97.3188Z" fill="#FDE3A7" fill-opacity="0.25"/>
<path d="M34.5371 97.3188H29.1646V102.691H34.5371V97.3188Z" fill="#FDE3A7" fill-opacity="0.25"/>
<path d="M34.5371 252.968H29.1646V258.341H34.5371V252.968Z" fill="#FDE3A7" fill-opacity="0.25"/>
<path d="M190.186 252.968H184.814V258.341H190.186V252.968Z" fill="#FDE3A7" fill-opacity="0.25"/>
<path d="M190.186 97.3188H184.814V102.691H190.186V97.3188Z" fill="#FDE3A7" fill-opacity="0.25"/>
<path d="M112.362 38.9893H106.989V44.3618H112.362V38.9893Z" fill="#FDE3A7" fill-opacity="0.25"/>
<path d="M112.362 194.638H106.989V200.011H112.362V194.638Z" fill="#FDE3A7" fill-opacity="0.25"/>
<path d="M268.164 194.638H262.792V200.011H268.164V194.638Z" fill="#FDE3A7" fill-opacity="0.25"/>
<path d="M268.164 38.9893H262.792V44.3618H268.164V38.9893Z" fill="#FDE3A7" fill-opacity="0.25"/>
<path d="M34.5371 38.9893H29.1646V44.3618H34.5371V38.9893Z" fill="#FDE3A7" fill-opacity="0.25"/>
<path d="M34.5371 194.638H29.1646V200.011H34.5371V194.638Z" fill="#FDE3A7" fill-opacity="0.25"/>
<path d="M190.186 194.638H184.814V200.011H190.186V194.638Z" fill="#FDE3A7" fill-opacity="0.25"/>
<path d="M190.186 38.9893H184.814V44.3618H190.186V38.9893Z" fill="#FDE3A7" fill-opacity="0.25"/>
<path d="M112.362 116.813H106.989V122.186H112.362V116.813Z" fill="#FDE3A7" fill-opacity="0.25"/>
<path d="M112.362 272.463H106.989V277.835H112.362V272.463Z" fill="#FDE3A7" fill-opacity="0.25"/>
<path d="M268.164 272.463H262.792V277.835H268.164V272.463Z" fill="#FDE3A7" fill-opacity="0.25"/>
<path d="M268.164 116.813H262.792V122.186H268.164V116.813Z" fill="#FDE3A7" fill-opacity="0.25"/>
<path d="M34.5371 116.813H29.1646V122.186H34.5371V116.813Z" fill="#FDE3A7" fill-opacity="0.25"/>
<path d="M34.5371 272.463H29.1646V277.835H34.5371V272.463Z" fill="#FDE3A7" fill-opacity="0.25"/>
<path d="M190.186 272.463H184.814V277.835H190.186V272.463Z" fill="#FDE3A7" fill-opacity="0.25"/>
<path d="M190.186 116.813H184.814V122.186H190.186V116.813Z" fill="#FDE3A7" fill-opacity="0.25"/>
<path d="M112.362 58.3301H106.989V63.7026H112.362V58.3301Z" fill="#FDE3A7" fill-opacity="0.25"/>
<path d="M112.362 214.133H106.989V219.505H112.362V214.133Z" fill="#FDE3A7" fill-opacity="0.25"/>
<path d="M268.164 214.133H262.792V219.505H268.164V214.133Z" fill="#FDE3A7" fill-opacity="0.25"/>
<path d="M268.164 58.3301H262.792V63.7026H268.164V58.3301Z" fill="#FDE3A7" fill-opacity="0.25"/>
<path d="M34.5371 58.3301H29.1646V63.7026H34.5371V58.3301Z" fill="#FDE3A7" fill-opacity="0.25"/>
<path d="M34.5371 214.133H29.1646V219.505H34.5371V214.133Z" fill="#FDE3A7" fill-opacity="0.25"/>
<path d="M190.186 214.133H184.814V219.505H190.186V214.133Z" fill="#FDE3A7" fill-opacity="0.25"/>
<path d="M190.186 58.3301H184.814V63.7026H190.186V58.3301Z" fill="#FDE3A7" fill-opacity="0.25"/>
<path d="M112.362 136.155H106.989V141.527H112.362V136.155Z" fill="#FDE3A7" fill-opacity="0.25"/>
<path d="M112.362 291.957H106.989V297.33H112.362V291.957Z" fill="#FDE3A7" fill-opacity="0.25"/>
<path d="M268.164 291.957H262.792V297.33H268.164V291.957Z" fill="#FDE3A7" fill-opacity="0.25"/>
<path d="M268.164 136.155H262.792V141.527H268.164V136.155Z" fill="#FDE3A7" fill-opacity="0.25"/>
<path d="M34.5371 136.155H29.1646V141.527H34.5371V136.155Z" fill="#FDE3A7" fill-opacity="0.25"/>
<path d="M34.5371 291.957H29.1646V297.33H34.5371V291.957Z" fill="#FDE3A7" fill-opacity="0.25"/>
<path d="M190.186 291.957H184.814V297.33H190.186V291.957Z" fill="#FDE3A7" fill-opacity="0.25"/>
<path d="M190.186 136.155H184.814V141.527H190.186V136.155Z" fill="#FDE3A7" fill-opacity="0.25"/>
<path d="M112.362 9.67041H106.989V15.0429H112.362V9.67041Z" fill="#FDE3A7" fill-opacity="0.25"/>
<path d="M112.362 165.473H106.989V170.846H112.362V165.473Z" fill="#FDE3A7" fill-opacity="0.25"/>
<path d="M268.164 165.473H262.792V170.846H268.164V165.473Z" fill="#FDE3A7" fill-opacity="0.25"/>
<path d="M268.164 9.67041H262.792V15.0429H268.164V9.67041Z" fill="#FDE3A7" fill-opacity="0.25"/>
<path d="M34.5371 9.67041H29.1646V15.0429H34.5371V9.67041Z" fill="#FDE3A7" fill-opacity="0.25"/>
<path d="M34.5371 165.473H29.1646V170.846H34.5371V165.473Z" fill="#FDE3A7" fill-opacity="0.25"/>
<path d="M190.186 165.473H184.814V170.846H190.186V165.473Z" fill="#FDE3A7" fill-opacity="0.25"/>
<path d="M190.186 9.67041H184.814V15.0429H190.186V9.67041Z" fill="#FDE3A7" fill-opacity="0.25"/>
<path d="M112.362 87.6484H106.989V93.0209H112.362V87.6484Z" fill="#FDE3A7" fill-opacity="0.25"/>
<path d="M112.362 243.298H106.989V248.67H112.362V243.298Z" fill="#FDE3A7" fill-opacity="0.25"/>
<path d="M268.164 243.298H262.792V248.67H268.164V243.298Z" fill="#FDE3A7" fill-opacity="0.25"/>
<path d="M268.164 87.6484H262.792V93.0209H268.164V87.6484Z" fill="#FDE3A7" fill-opacity="0.25"/>
<path d="M34.5371 87.6484H29.1646V93.0209H34.5371V87.6484Z" fill="#FDE3A7" fill-opacity="0.25"/>
<path d="M34.5371 243.298H29.1646V248.67H34.5371V243.298Z" fill="#FDE3A7" fill-opacity="0.25"/>
<path d="M190.186 243.298H184.814V248.67H190.186V243.298Z" fill="#FDE3A7" fill-opacity="0.25"/>
<path d="M190.186 87.6484H184.814V93.0209H190.186V87.6484Z" fill="#FDE3A7" fill-opacity="0.25"/>
<path d="M112.362 29.165H106.989V34.5375H112.362V29.165Z" fill="#FDE3A7" fill-opacity="0.25"/>
<path d="M112.362 184.814H106.989V190.186H112.362V184.814Z" fill="#FDE3A7" fill-opacity="0.25"/>
<path d="M268.164 184.814H262.792V190.186H268.164V184.814Z" fill="#FDE3A7" fill-opacity="0.25"/>
<path d="M268.164 29.165H262.792V34.5375H268.164V29.165Z" fill="#FDE3A7" fill-opacity="0.25"/>
<path d="M34.5371 29.165H29.1646V34.5375H34.5371V29.165Z" fill="#FDE3A7" fill-opacity="0.25"/>
<path d="M34.5371 184.814H29.1646V190.186H34.5371V184.814Z" fill="#FDE3A7" fill-opacity="0.25"/>
<path d="M190.186 184.814H184.814V190.186H190.186V184.814Z" fill="#FDE3A7" fill-opacity="0.25"/>
<path d="M190.186 29.165H184.814V34.5375H190.186V29.165Z" fill="#FDE3A7" fill-opacity="0.25"/>
<path d="M112.362 106.99H106.989V112.362H112.362V106.99Z" fill="#FDE3A7" fill-opacity="0.25"/>
<path d="M112.362 262.792H106.989V268.164H112.362V262.792Z" fill="#FDE3A7" fill-opacity="0.25"/>
<path d="M268.164 262.792H262.792V268.164H268.164V262.792Z" fill="#FDE3A7" fill-opacity="0.25"/>
<path d="M268.164 106.99H262.792V112.362H268.164V106.99Z" fill="#FDE3A7" fill-opacity="0.25"/>
<path d="M34.5371 106.99H29.1646V112.362H34.5371V106.99Z" fill="#FDE3A7" fill-opacity="0.25"/>
<path d="M34.5371 262.792H29.1646V268.164H34.5371V262.792Z" fill="#FDE3A7" fill-opacity="0.25"/>
<path d="M190.186 262.792H184.814V268.164H190.186V262.792Z" fill="#FDE3A7" fill-opacity="0.25"/>
<path d="M190.186 106.99H184.814V112.362H190.186V106.99Z" fill="#FDE3A7" fill-opacity="0.25"/>
<path d="M112.362 48.6597H106.989V54.0322H112.362V48.6597Z" fill="#FDE3A7" fill-opacity="0.25"/>
<path d="M112.362 204.309H106.989V209.681H112.362V204.309Z" fill="#FDE3A7" fill-opacity="0.25"/>
<path d="M268.164 204.309H262.792V209.681H268.164V204.309Z" fill="#FDE3A7" fill-opacity="0.25"/>
<path d="M268.164 48.6597H262.792V54.0322H268.164V48.6597Z" fill="#FDE3A7" fill-opacity="0.25"/>
<path d="M34.5371 48.6597H29.1646V54.0322H34.5371V48.6597Z" fill="#FDE3A7" fill-opacity="0.25"/>
<path d="M34.5371 204.309H29.1646V209.681H34.5371V204.309Z" fill="#FDE3A7" fill-opacity="0.25"/>
<path d="M190.186 204.309H184.814V209.681H190.186V204.309Z" fill="#FDE3A7" fill-opacity="0.25"/>
<path d="M190.186 48.6597H184.814V54.0322H190.186V48.6597Z" fill="#FDE3A7" fill-opacity="0.25"/>
<path d="M112.362 126.484H106.989V131.856H112.362V126.484Z" fill="#FDE3A7" fill-opacity="0.25"/>
<path d="M112.362 282.133H106.989V287.506H112.362V282.133Z" fill="#FDE3A7" fill-opacity="0.25"/>
<path d="M268.164 282.133H262.792V287.506H268.164V282.133Z" fill="#FDE3A7" fill-opacity="0.25"/>
<path d="M268.164 126.484H262.792V131.856H268.164V126.484Z" fill="#FDE3A7" fill-opacity="0.25"/>
<path d="M34.5371 126.484H29.1646V131.856H34.5371V126.484Z" fill="#FDE3A7" fill-opacity="0.25"/>
<path d="M34.5371 282.133H29.1646V287.506H34.5371V282.133Z" fill="#FDE3A7" fill-opacity="0.25"/>
<path d="M190.186 282.133H184.814V287.506H190.186V282.133Z" fill="#FDE3A7" fill-opacity="0.25"/>
<path d="M190.186 126.484H184.814V131.856H190.186V126.484Z" fill="#FDE3A7" fill-opacity="0.25"/>
<path d="M112.362 68.1538H106.989V73.5263H112.362V68.1538Z" fill="#FDE3A7" fill-opacity="0.25"/>
<path d="M112.362 223.803H106.989V229.176H112.362V223.803Z" fill="#FDE3A7" fill-opacity="0.25"/>
<path d="M268.164 223.803H262.792V229.176H268.164V223.803Z" fill="#FDE3A7" fill-opacity="0.25"/>
<path d="M268.164 68.1538H262.792V73.5263H268.164V68.1538Z" fill="#FDE3A7" fill-opacity="0.25"/>
<path d="M34.5371 68.1538H29.1646V73.5263H34.5371V68.1538Z" fill="#FDE3A7" fill-opacity="0.25"/>
<path d="M34.5371 223.803H29.1646V229.176H34.5371V223.803Z" fill="#FDE3A7" fill-opacity="0.25"/>
<path d="M190.186 223.803H184.814V229.176H190.186V223.803Z" fill="#FDE3A7" fill-opacity="0.25"/>
<path d="M190.186 68.1538H184.814V73.5263H190.186V68.1538Z" fill="#FDE3A7" fill-opacity="0.25"/>
<path d="M112.362 145.979H106.989V151.351H112.362V145.979Z" fill="#FDE3A7" fill-opacity="0.25"/>
<path d="M112.362 301.627H106.989V307H112.362V301.627Z" fill="#FDE3A7" fill-opacity="0.25"/>
<path d="M268.164 301.627H262.792V307H268.164V301.627Z" fill="#FDE3A7" fill-opacity="0.25"/>
<path d="M268.164 145.979H262.792V151.351H268.164V145.979Z" fill="#FDE3A7" fill-opacity="0.25"/>
<path d="M34.5371 145.979H29.1646V151.351H34.5371V145.979Z" fill="#FDE3A7" fill-opacity="0.25"/>
<path d="M34.5371 301.627H29.1646V307H34.5371V301.627Z" fill="#FDE3A7" fill-opacity="0.25"/>
<path d="M190.186 301.627H184.814V307H190.186V301.627Z" fill="#FDE3A7" fill-opacity="0.25"/>
<path d="M190.186 145.979H184.814V151.351H190.186V145.979Z" fill="#FDE3A7" fill-opacity="0.25"/>
</svg>
