<?xml version="1.0" encoding="UTF-8"?>
<svg width="31px" height="35px" viewBox="0 0 31 35" version="1.1" xmlns="http://www.w3.org/2000/svg" xmlns:xlink="http://www.w3.org/1999/xlink">
    <!-- Generator: sketchtool 64 (101010) - https://sketch.com -->
    <title>A02FA292-8C23-4735-A93A-FE4462D0CD77</title>
    <desc>Created with sketchtool.</desc>
    <defs>
        <path d="M57,46.609375 L57,23.640625 C57,22.7314453 56.2595982,22 55.3392857,22 L32.6428571,22 C28.9754464,22 26,24.9394531 26,28.5625 L26,50.4375 C26,54.0605469 28.9754464,57 32.6428571,57 L55.3392857,57 C56.2595982,57 57,56.2685547 57,55.359375 L57,54.265625 C57,53.7529297 56.7578125,53.2880859 56.3841518,52.9873047 C56.0935268,51.9345703 56.0935268,48.9335938 56.3841518,47.8808594 C56.7578125,47.5869141 57,47.1220703 57,46.609375 Z M35,31.375 C35,31.16875 35.1928571,31 35.4285714,31 L50.5714286,31 C50.8071429,31 51,31.16875 51,31.375 L51,32.625 C51,32.83125 50.8071429,33 50.5714286,33 L35.4285714,33 C35.1928571,33 35,32.83125 35,32.625 L35,31.375 Z M35,35.375 C35,35.16875 35.1928571,35 35.4285714,35 L50.5714286,35 C50.8071429,35 51,35.16875 51,35.375 L51,36.625 C51,36.83125 50.8071429,37 50.5714286,37 L35.4285714,37 C35.1928571,37 35,36.83125 35,36.625 L35,35.375 Z M52,52 L32.2180214,52 C30.9911783,52 30,51.10625 30,50 C30,48.9 30.9981096,48 32.2180214,48 L52,48 C51.868305,49.06875 51.868305,50.93125 52,52 Z" id="path-1"/>
    </defs>
    <g id="Page-1" stroke="none" stroke-width="1" fill="none" fill-rule="evenodd">
        <g id="EPP-101-Redesign_Article-Page" transform="translate(-196.000000, -3411.000000)">
            <g id="Action-option-1" transform="translate(170.000000, 3389.000000)">
                <mask id="mask-2" fill="white">
                    <use xlink:href="#path-1"/>
                </mask>
                <use id="book" fill="#59AB40" fill-rule="nonzero" xlink:href="#path-1"/>
            </g>
        </g>
    </g>
</svg>