<?xml version="1.0" encoding="UTF-8"?>
<svg width="30px" height="42px" viewBox="0 0 30 42" version="1.1" xmlns="http://www.w3.org/2000/svg" xmlns:xlink="http://www.w3.org/1999/xlink">
    <!-- Generator: sketchtool 64 (101010) - https://sketch.com -->
    <title>70710DC2-C4D1-4097-B19D-82C87337D7AA</title>
    <desc>Created with sketchtool.</desc>
    <defs>
        <path d="M21.7241379,34.5679012 L21.7241379,36.872428 C21.7241379,37.732428 21.1626724,38.4637037 20.3793103,38.7348971 L20.3793103,39.5061728 C20.3793103,40.5971193 19.4761746,41.4814815 18.362069,41.4814815 L11.637931,41.4814815 C10.5238254,41.4814815 9.62068966,40.5971193 9.62068966,39.5061728 L9.62068966,38.7348971 C8.83732759,38.4637037 8.27586207,37.732428 8.27586207,36.872428 L8.27586207,34.5679012 C8.27586207,34.0224691 8.72747198,33.5802469 9.28448276,33.5802469 L20.7155172,33.5802469 C21.272528,33.5802469 21.7241379,34.0224691 21.7241379,34.5679012 Z M9.6215625,31.6049383 C8.77721591,31.6049383 8.01707386,31.1046914 7.71451705,30.3434568 C4.40599432,22.0198354 0,22.8585185 0,14.4855967 C0,6.48584362 6.71633523,0 15,0 C23.2836648,0 30,6.48584362 30,14.4855967 C30,22.8585185 25.5940057,22.0198354 22.2855682,30.3434568 C21.9830114,31.1046914 21.2227841,31.6049383 20.3785227,31.6049383 L9.6215625,31.6049383 Z M8.79310345,14.4444444 C8.79310345,10.7003704 11.6935345,7.65432099 15.2586207,7.65432099 C15.9728179,7.65432099 16.5517241,7.04626543 16.5517241,6.2962963 C16.5517241,5.54632716 15.9728179,4.9382716 15.2586207,4.9382716 C10.2674838,4.9382716 6.20689655,9.20272377 6.20689655,14.4444444 C6.20689655,15.1944136 6.78588362,15.8024691 7.5,15.8024691 C8.21411638,15.8024691 8.79310345,15.1944136 8.79310345,14.4444444 Z" id="path-1"/>
    </defs>
    <g id="Page-1" stroke="none" stroke-width="1" fill="none" fill-rule="evenodd">
        <g id="EPP-101-Redesign_Article-Page" transform="translate(-196.000000, -1307.000000)">
            <g id="Tip-option-1" transform="translate(170.000000, 1290.000000)">
                <g id="lightbulb" transform="translate(26.000000, 17.000000)">
                    <mask id="mask-2" fill="white">
                        <use xlink:href="#path-1"/>
                    </mask>
                    <use id="Mask" fill="#5DA3CA" fill-rule="nonzero" xlink:href="#path-1"/>
                </g>
            </g>
        </g>
    </g>
</svg>