<?xml version="1.0" encoding="UTF-8" standalone="no"?>
<svg
   version="1.1"
   width="496"
   height="496"
   x="0"
   y="0"
   viewBox="0 0 62 62"
   xml:space="preserve"
   class=""
   id="svg2056"
   sodipodi:docname="affiliate-market.svg"
   xmlns:inkscape="http://www.inkscape.org/namespaces/inkscape"
   xmlns:sodipodi="http://sodipodi.sourceforge.net/DTD/sodipodi-0.dtd"
   xmlns="http://www.w3.org/2000/svg"
   xmlns:svg="http://www.w3.org/2000/svg"><defs
     id="defs2060" /><sodipodi:namedview
     id="namedview2058"
     pagecolor="#ffffff"
     bordercolor="#000000"
     borderopacity="0.25"
     inkscape:showpageshadow="2"
     inkscape:pageopacity="0.0"
     inkscape:pagecheckerboard="0"
     inkscape:deskcolor="#d1d1d1"
     showgrid="false" /><g
     id="g2054"
     transform="translate(-1,-1)"><path
       d="M 56.994,42.211 A 26.801,26.801 0 0 0 59,32 C 59,26.475 57.334,21.201 54.207,16.68 A 4.959,4.959 0 0 0 55,14 C 55,11.243 52.757,9 50,9 49.012,9 48.096,9.297 47.32,9.793 42.799,6.666 37.525,5 32,5 29.62,5 27.275,5.327 25,5.936 V 4 C 25,2.346 23.654,1 22,1 A 2.998,2.998 0 0 0 19.049,3.514 C 16.042,6.402 12.111,8 7.929,8 H 4 C 2.346,8 1,9.346 1,11 v 4 c 0,1.654 1.346,3 3,3 H 4.246 L 5.96,24 C 5.123,26.763 5,29.587 5,32 5,37.525 6.666,42.799 9.793,47.32 A 4.959,4.959 0 0 0 9,50 c 0,2.757 2.243,5 5,5 0.988,0 1.904,-0.297 2.68,-0.793 C 21.201,57.334 26.475,59 32,59 35.543,59 38.971,58.32 42.211,56.994 44.035,60.553 47.733,63 52,63 58.065,63 63,58.065 63,52 63,47.733 60.553,44.035 56.994,42.211 Z M 50,11 c 1.654,0 3,1.346 3,3 0,1.654 -1.346,3 -3,3 -1.654,0 -3,-1.346 -3,-3 0,-1.654 1.346,-3 3,-3 z M 25,10.184 c 1.161,0.414 2,1.514 2,2.816 0,1.302 -0.839,2.402 -2,2.816 z M 21,4 c 0,-0.551 0.449,-1 1,-1 0.551,0 1,0.449 1,1 v 18 c 0,0.551 -0.449,1 -1,1 -0.551,0 -1,-0.449 -1,-1 z M 9,9.948 A 17.885,17.885 0 0 0 19,6.194 V 19.807 A 17.885,17.885 0 0 0 9,16.053 Z M 4,16 C 3.449,16 3,15.551 3,15 v -4 c 0,-0.551 0.449,-1 1,-1 h 3 v 6 z m 3.929,2 C 8.289,18 8.644,18.029 9,18.052 V 23 H 7.754 L 6.325,18 Z M 14,53 c -1.654,0 -3,-1.346 -3,-3 0,-1.654 1.346,-3 3,-3 1.654,0 3,1.346 3,3 0,1.654 -1.346,3 -3,3 z m 21.668,-12.899 -0.24,-0.48 A 2.988,2.988 0 0 0 37,37 h 1 c 1.654,0 3,-1.346 3,-3 0,-0.549 -0.159,-1.058 -0.418,-1.501 C 40.855,31.685 41,30.839 41,29.974 A 6.981,6.981 0 0 0 34.026,23 H 29.973 A 6.981,6.981 0 0 0 23,29.974 c 0,0.866 0.145,1.712 0.418,2.525 A 2.963,2.963 0 0 0 23,34 c 0,1.654 1.346,3 3,3 h 1 c 0,1.134 0.64,2.112 1.571,2.621 l -0.24,0.48 C 24.116,40.959 21,44.725 21,49.071 V 52 h 20 c 0,1.091 0.165,2.144 0.462,3.14 A 24.811,24.811 0 0 1 32,57 24.771,24.771 0 0 1 18.149,52.786 4.966,4.966 0 0 0 19,50 c 0,-2.757 -2.243,-5 -5,-5 -1.031,0 -1.99,0.314 -2.786,0.851 A 24.771,24.771 0 0 1 7,32 C 7,29.861 7.101,27.388 7.753,25 H 11 v -6.704 a 15.94,15.94 0 0 1 8.049,4.19 A 2.998,2.998 0 0 0 22,25 c 1.654,0 3,-1.346 3,-3 V 17.899 C 27.279,17.434 29,15.415 29,13 29,10.585 27.279,8.566 25,8.101 V 8.011 A 25.04,25.04 0 0 1 32,7 c 4.981,0 9.741,1.465 13.851,4.214 A 4.966,4.966 0 0 0 45,14 c 0,2.757 2.243,5 5,5 1.031,0 1.99,-0.314 2.786,-0.851 A 24.771,24.771 0 0 1 57,32 c 0,3.284 -0.63,6.461 -1.86,9.462 A 10.97,10.97 0 0 0 52,41 c -4.001,0 -7.5,2.155 -9.425,5.358 -0.983,-3.124 -3.603,-5.584 -6.907,-6.257 z M 41,49.071 V 50 h -5.198 l 1.585,-7.133 C 39.555,44.114 41,46.456 41,49.071 Z M 26,31 c -0.31,0 -0.603,0.061 -0.884,0.148 A 5.97,5.97 0 0 1 25,29.974 4.98,4.98 0 0 1 29.974,25 h 4.053 A 4.979,4.979 0 0 1 39,29.974 c 0,0.398 -0.039,0.79 -0.116,1.174 A 2.972,2.972 0 0 0 38,31 H 36 A 6.202,6.202 0 0 1 31.586,29.172 L 31.121,28.707 A 2.398,2.398 0 0 0 29.414,28 2.417,2.417 0 0 0 27,30.414 V 31 Z m 1,2 v 2 h -1 c -0.551,0 -1,-0.449 -1,-1 0,-0.551 0.449,-1 1,-1 z m 12,1 c 0,0.551 -0.449,1 -1,1 h -1 v -2 h 1 c 0.551,0 1,0.449 1,1 z m -9,4 c -0.551,0 -1,-0.449 -1,-1 v -6.586 a 0.415,0.415 0 0 1 0.707,-0.293 l 0.465,0.465 A 8.18,8.18 0 0 0 35,32.94 V 37 c 0,0.551 -0.449,1 -1,1 z M 33.829,40.895 32,43.333 30.171,40.894 30.618,40 h 2.764 z M 30.75,45 l -1.246,1.661 -1.01,-4.547 c 0.026,-0.006 0.053,-0.009 0.08,-0.015 z M 32,46.667 34.5,50 h -5 z M 34.496,46.661 33.25,45 35.426,42.098 c 0.026,0.006 0.054,0.009 0.08,0.015 z M 28.198,50 H 23 v -0.929 c 0,-2.615 1.445,-4.957 3.613,-6.205 z M 52,61 c -4.962,0 -9,-4.038 -9,-9 0,-4.962 4.038,-9 9,-9 4.962,0 9,4.038 9,9 0,4.962 -4.038,9 -9,9 z"
       fill="#b59a4c"
       data-original="#000000"
       id="path2050" /><path
       d="m 51,49 h 2 c 0.551,0 1,0.449 1,1 h 2 c 0,-1.654 -1.346,-3 -3,-3 v -2 h -2 v 2 c -1.654,0 -3,1.346 -3,3 0,1.654 1.346,3 3,3 h 2 c 0.551,0 1,0.449 1,1 0,0.551 -0.449,1 -1,1 h -2 c -0.551,0 -1,-0.449 -1,-1 h -2 c 0,1.654 1.346,3 3,3 v 2 h 2 v -2 c 1.654,0 3,-1.346 3,-3 0,-1.654 -1.346,-3 -3,-3 h -2 c -0.551,0 -1,-0.449 -1,-1 0,-0.551 0.449,-1 1,-1 z"
       fill="#b59a4c"
       data-original="#000000"
       id="path2052" /></g></svg>
