<?xml version="1.0" encoding="UTF-8" standalone="no"?>
<svg
   version="1.1"
   width="496"
   height="496"
   x="0"
   y="0"
   viewBox="0 0 62 62"
   xml:space="preserve"
   class=""
   id="svg2312"
   xmlns="http://www.w3.org/2000/svg"
   xmlns:svg="http://www.w3.org/2000/svg"><defs
     id="defs2316" /><g
     id="g2310"
     transform="translate(-1,-1)"><path
       d="m 38.949,33 h 6.11 c 0.5,4.493 4.317,8 8.941,8 4.962,0 9,-4.038 9,-9 0,-4.962 -4.038,-9 -9,-9 -4.624,0 -8.441,3.507 -8.941,8 h -6.11 a 10.954,10.954 0 0 0 -2.501,-6.034 l 6.508,-6.508 A 8.91,8.91 0 0 0 46,19 c 4.962,0 9,-4.038 9,-9 0,-4.962 -4.038,-9 -9,-9 -4.962,0 -9,4.038 -9,9 0,3.141 1.621,5.908 4.067,7.519 l -6.033,6.033 A 10.953,10.953 0 0 0 23.826,21.828 12.065,12.065 0 0 0 17.223,15.782 C 19.486,14.367 21,11.86 21,9 21,4.589 17.411,1 13,1 8.589,1 5,4.589 5,9 5,11.86 6.514,14.367 8.777,15.782 4.241,17.496 1,21.871 1,27 v 10 c 0,2.206 1.794,4 4,4 h 1 v 18 c 0,2.206 1.794,4 4,4 1.2,0 2.266,-0.542 3,-1.382 0.734,0.84 1.8,1.382 3,1.382 2.206,0 4,-1.794 4,-4 V 39.526 c 2.008,2.133 4.847,3.474 8,3.474 2.673,0 5.125,-0.961 7.034,-2.552 l 6.033,6.033 C 38.621,48.092 37,50.859 37,54 c 0,4.962 4.038,9 9,9 4.962,0 9,-4.038 9,-9 0,-4.962 -4.038,-9 -9,-9 -1.07,0 -2.092,0.197 -3.044,0.541 L 36.448,39.033 A 10.94,10.94 0 0 0 38.949,33 Z m 2.73,-17.504 C 42.564,13.962 44.192,13 46,13 c 1.808,0 3.436,0.962 4.321,2.496 a 6.956,6.956 0 0 1 -8.642,0 z M 44,9 c 0,-1.103 0.897,-2 2,-2 1.103,0 2,0.897 2,2 0,1.103 -0.897,2 -2,2 -1.103,0 -2,-0.897 -2,-2 z m 2,-6 c 3.86,0 7,3.14 7,7 A 6.957,6.957 0 0 1 51.729,14.01 6.943,6.943 0 0 0 48.966,11.659 3.97,3.97 0 0 0 50,9 C 50,6.794 48.206,5 46,5 43.794,5 42,6.794 42,9 A 3.97,3.97 0 0 0 43.034,11.659 6.943,6.943 0 0 0 40.271,14.01 6.957,6.957 0 0 1 39,10 C 39,6.14 42.14,3 46,3 Z M 41.679,59.496 C 42.564,57.962 44.192,57 46,57 c 1.808,0 3.436,0.962 4.321,2.496 a 6.956,6.956 0 0 1 -8.642,0 z M 44,53 c 0,-1.103 0.897,-2 2,-2 1.103,0 2,0.897 2,2 0,1.103 -0.897,2 -2,2 -1.103,0 -2,-0.897 -2,-2 z m 9,1 A 6.957,6.957 0 0 1 51.729,58.01 6.943,6.943 0 0 0 48.966,55.659 3.97,3.97 0 0 0 50,53 c 0,-2.206 -1.794,-4 -4,-4 -2.206,0 -4,1.794 -4,4 A 3.97,3.97 0 0 0 43.034,55.659 6.943,6.943 0 0 0 40.271,58.01 6.957,6.957 0 0 1 39,54 c 0,-3.86 3.14,-7 7,-7 3.86,0 7,3.14 7,7 z M 49.679,37.496 C 50.564,35.962 52.192,35 54,35 c 1.808,0 3.436,0.962 4.321,2.496 a 6.956,6.956 0 0 1 -8.642,0 z M 52,31 c 0,-1.103 0.897,-2 2,-2 1.103,0 2,0.897 2,2 0,1.103 -0.897,2 -2,2 -1.103,0 -2,-0.897 -2,-2 z m 2,-6 c 3.86,0 7,3.14 7,7 A 6.957,6.957 0 0 1 59.729,36.01 6.943,6.943 0 0 0 56.966,33.659 3.97,3.97 0 0 0 58,31 c 0,-2.206 -1.794,-4 -4,-4 -2.206,0 -4,1.794 -4,4 A 3.97,3.97 0 0 0 51.034,33.659 6.943,6.943 0 0 0 48.271,36.01 6.957,6.957 0 0 1 47,32 c 0,-3.86 3.14,-7 7,-7 z M 9.587,17.613 c 0.383,-0.14 0.775,-0.259 1.178,-0.352 l -0.272,3.81 A 23.057,23.057 0 0 1 9.587,17.613 Z m 3.201,-0.602 C 12.859,17.009 12.928,17 13,17 c 0.071,0 0.141,0.007 0.212,0.008 l 0.565,7.914 c -0.247,0.433 -0.503,0.86 -0.778,1.275 -0.274,-0.418 -0.53,-0.848 -0.777,-1.283 z m 2.723,4.104 -0.276,-3.857 a 9.97,9.97 0 0 1 1.205,0.366 23.123,23.123 0 0 1 -0.929,3.491 z M 7,9 c 0,-3.309 2.691,-6 6,-6 3.309,0 6,2.691 6,6 0,3.309 -2.691,6 -6,6 C 9.691,15 7,12.309 7,9 Z m 11,50 c 0,1.103 -0.897,2 -2,2 -1.103,0 -2,-0.897 -2,-2 V 40.243 c 0,-0.534 0.208,-1.037 0.586,-1.415 l 1.121,-1.121 -1.414,-1.414 -1.121,1.121 A 3.972,3.972 0 0 0 12,40.243 V 59 c 0,1.103 -0.897,2 -2,2 C 8.897,61 8,60.103 8,59 V 22 H 6 V 39 H 5 C 3.897,39 3,38.103 3,37 V 27 c 0,-3.574 1.891,-6.707 4.718,-8.476 a 25.226,25.226 0 0 0 3.703,8.911 L 13,29.803 14.618,27.377 a 25.246,25.246 0 0 0 3.688,-8.836 10.021,10.021 0 0 1 3.751,4.218 11.057,11.057 0 0 0 -2.056,1.715 V 22 h -2 v 5.444 c -0.636,1.39 -1,2.93 -1,4.556 0,1.626 0.364,3.166 1,4.556 V 59 Z M 28,41 c -4.962,0 -9,-4.038 -9,-9 0,-4.962 4.038,-9 9,-9 4.962,0 9,4.038 9,9 0,4.962 -4.038,9 -9,9 z"
       fill="#b59a4c"
       data-original="#000000"
       id="path2306" /><path
       d="m 29,29 c 0.551,0 1,0.449 1,1 h 2 c 0,-1.654 -1.346,-3 -3,-3 v -2 h -2 v 2 h -3 v 3 c 0,1.654 1.346,3 3,3 h 2 c 0.551,0 1,0.449 1,1 v 1 h -3 c -0.551,0 -1,-0.449 -1,-1 h -2 c 0,1.654 1.346,3 3,3 v 2 h 2 v -2 h 3 v -3 c 0,-1.654 -1.346,-3 -3,-3 h -2 c -0.551,0 -1,-0.449 -1,-1 v -1 z"
       fill="#b59a4c"
       data-original="#000000"
       id="path2308" /></g></svg>
