<?xml version="1.0" encoding="UTF-8" standalone="no"?>
<svg
   version="1.1"
   width="450.59824"
   height="458.32181"
   x="0"
   y="0"
   viewBox="0 0 56.32478 57.290226"
   xml:space="preserve"
   class=""
   id="svg2445"
   xmlns="http://www.w3.org/2000/svg"
   xmlns:svg="http://www.w3.org/2000/svg"><defs
     id="defs2449" /><g
     id="g2443"
     transform="translate(-3.8725805,-3.3499999)"><path
       d="m 15,22.75 v -0.51 a 2.49,2.49 0 0 0 -1.5,-4.49 0.5,0.5 0 0 1 -0.5,-0.5 0.5,0.5 0 0 1 0.5,-0.5 H 15 a 1,1 0 0 0 0,-2 1,1 0 0 0 -2,0 v 0.05 a 2.5,2.5 0 0 0 0.5,4.95 0.51,0.51 0 0 1 0.5,0.5 0.5,0.5 0 0 1 -0.5,0.5 H 12 a 1,1 0 0 0 0,2 h 1 a 1,1 0 0 0 2,0 z m 35.5,-2 H 49 a 1,1 0 0 0 0,2 h 1 a 1,1 0 0 0 2,0 v -0.51 a 2.49,2.49 0 0 0 -1.5,-4.49 0.5,0.5 0 0 1 -0.5,-0.5 0.5,0.5 0 0 1 0.5,-0.5 H 52 a 1,1 0 0 0 0,-2 1,1 0 0 0 -2,0 v 0.05 a 2.5,2.5 0 0 0 0.5,4.95 0.51,0.51 0 0 1 0.5,0.5 0.5,0.5 0 0 1 -0.5,0.5 z"
       fill="#b59a4c"
       data-original="#000000"
       id="path2435" /><path
       d="M 59.32,32 53.89,26.52 A 8.5,8.5 0 1 0 42,18.75 v 0.36 l -4,4 a 3,3 0 0 0 0,4.23 l 0.43,0.43 -2.43,2.55 a 2.2,2.2 0 0 1 -1.67,0.54 3.15,3.15 0 0 0 -2.28,0.91 l -0.95,1 a 2.79,2.79 0 0 0 -2,-0.74 L 25.57,28.46 26,28 a 3,3 0 0 0 0,-4.22 l -4,-4.07 a 7.46,7.46 0 0 0 0.06,-0.95 8.5,8.5 0 1 0 -11.43,8 l -5.89,6 a 3,3 0 0 0 0,4.22 L 8.79,41 a 3,3 0 0 0 4.26,0 l 0.38,-0.39 3.57,3.6 a 2.75,2.75 0 0 0 0.76,2 3,3 0 0 0 0.16,4 l 0.24,0.24 a 2.91,2.91 0 0 0 1.9,0.86 3,3 0 0 0 0.84,1.92 l 0.24,0.24 a 3,3 0 0 0 1.91,0.86 3,3 0 0 0 0.84,1.92 l 0.24,0.24 a 2.9,2.9 0 0 0 1.91,0.85 3,3 0 0 0 0.84,1.93 l 0.24,0.24 a 2.91,2.91 0 0 0 4,0.18 l 0.12,0.12 a 2.74,2.74 0 0 0 2,0.83 2.83,2.83 0 0 0 1.65,-0.54 l 10.92,-8 a 2.83,2.83 0 0 0 1.14,-2 2.91,2.91 0 0 0 -0.25,-1.37 l 0.81,-3.28 a 3.71,3.71 0 0 0 -0.09,-2.09 l 3.14,-3.36 0.39,0.39 a 3,3 0 0 0 4.26,0 l 4.11,-4.15 a 3,3 0 0 0 0,-4.24 z M 50.5,12.25 a 6.5,6.5 0 1 1 -6.5,6.5 6.51,6.51 0 0 1 6.5,-6.5 z M 7,18.75 a 6.5,6.5 0 1 1 6.5,6.5 6.51,6.51 0 0 1 -6.5,-6.5 z m 4.63,20.88 a 1,1 0 0 1 -1.42,0 L 6.1,35.48 a 1,1 0 0 1 0,-1.4 l 6.79,-6.86 a 6.08,6.08 0 0 0 0.61,0 8.52,8.52 0 0 0 7.87,-5.22 l 3.18,3.22 a 1,1 0 0 1 0,1.4 z m 9.23,9.42 a 0.94,0.94 0 0 1 -1.32,0 L 19.3,48.81 a 1,1 0 0 1 0,-1.37 l 2.28,-2.3 a 1,1 0 0 1 0.67,-0.28 0.88,0.88 0 0 1 0.66,0.28 l 0.24,0.24 a 1,1 0 0 1 0,1.37 z m 3,3 a 0.94,0.94 0 0 1 -1.32,0 L 22.3,51.81 a 1,1 0 0 1 0,-1.37 l 1.94,-2 1,-1 a 1,1 0 0 1 1.33,0 l 0.24,0.24 a 1,1 0 0 1 0,1.37 l -0.63,0.63 z m 3,3 a 0.94,0.94 0 0 1 -1.32,0 l -0.23,-0.24 a 1,1 0 0 1 0,-1.37 l 2.28,-2.31 a 0.92,0.92 0 0 1 0.66,-0.28 1,1 0 0 1 0.67,0.28 l 0.24,0.25 a 1,1 0 0 1 0,1.37 z m 4.65,1.35 -1.66,1.67 a 1,1 0 0 1 -1.33,0 l -0.24,-0.24 a 1,1 0 0 1 0,-1.37 l 1.1,-1.1 0.56,-0.57 a 1,1 0 0 1 1.33,0 l 0.24,0.24 a 1,1 0 0 1 -0.02,1.41 z m 13.34,-6.55 a 0.78,0.78 0 0 1 -0.32,0.57 L 43.26,51.35 41.83,50 a 1,1 0 0 0 -1.42,1.4 l 1.2,1.22 -1.28,0.94 -1.64,-1.66 a 1,1 0 0 0 -1.42,0 1,1 0 0 0 0,1.41 l 1.43,1.45 -1.28,1 -1.88,-1.9 a 1.0005623,1.0005623 0 1 0 -1.42,1.41 l 1.67,1.68 -2.2,1.62 a 0.76,0.76 0 0 1 -1,-0.08 l -0.12,-0.11 0.45,-0.45 a 3,3 0 0 0 0,-4.19 L 32.68,53.5 a 2.79,2.79 0 0 0 -1.32,-0.73 3,3 0 0 0 -0.8,-2.68 L 30.32,49.85 A 2.81,2.81 0 0 0 29,49 3,3 0 0 0 28.2,46.32 L 28,46.11 A 3,3 0 0 0 25.37,45.32 2.88,2.88 0 0 0 24.57,44 l -0.24,-0.24 a 2.9,2.9 0 0 0 -2.08,-0.87 2.94,2.94 0 0 0 -2.09,0.87 l -1,1.05 a 0.79,0.79 0 0 1 -0.13,-0.67 1,1 0 0 0 -0.26,-1 l -3.89,-3.92 9.29,-9.39 3.83,3.92 a 1,1 0 0 0 1,0.25 0.74,0.74 0 0 1 0.66,0.14 l -0.75,0.76 a 3.7229592,3.7229592 0 0 0 5.24,5.29 1,1 0 0 1 0.73,-0.3 1,1 0 0 1 0.73,0.3 l 9,9 a 0.82,0.82 0 0 1 0.22,0.7 z m 0.56,-7.49 a 1,1 0 0 0 -0.15,1.22 1.71,1.71 0 0 1 0.21,1.3 L 45,46.8 39,40.8 A 4.91,4.91 0 0 0 41.39,39.57 1.0043157,1.0043157 0 0 0 40,38.12 3.83,3.83 0 0 1 37.34,38.96 0.79,0.79 0 0 0 37.07,38.86 L 37,38.8 a 3,3 0 0 0 -2.15,-0.89 3,3 0 0 0 -2.15,0.89 1.67,1.67 0 0 1 -2.37,0 1.76,1.76 0 0 1 0,-2.49 l 3.12,-3.15 a 1.14,1.14 0 0 1 0.8,-0.33 4.17,4.17 0 0 0 3.16,-1.13 l 2.48,-2.51 9.29,9.38 z M 57.9,34.85 53.79,39 a 1,1 0 0 1 -1.42,0 L 51.27,37.89 40.57,27.08 39.45,26 a 1,1 0 0 1 0,-1.41 l 3,-3.05 a 8.5,8.5 0 0 0 8,5.76 7.72,7.72 0 0 0 1.18,-0.09 l 6.22,6.28 a 1,1 0 0 1 0.05,1.36 z"
       fill="#b59a4c"
       data-original="#000000"
       id="path2437" /><path
       d="m 32,20.35 a 8.5,8.5 0 1 0 -8.5,-8.5 8.51,8.51 0 0 0 8.5,8.5 z m 0,-15 a 6.5,6.5 0 1 1 -6.5,6.5 6.51,6.51 0 0 1 6.5,-6.5 z"
       fill="#b59a4c"
       data-original="#000000"
       id="path2439" /><path
       d="m 28.67,15.35 a 1,1 0 0 0 1,-1 2.33,2.33 0 1 1 4.66,0 1,1 0 1 0 2,0 4.33,4.33 0 0 0 -2,-3.66 2.66,2.66 0 1 0 -5,-1.34 2.55,2.55 0 0 0 0.38,1.34 4.31,4.31 0 0 0 -2,3.66 1,1 0 0 0 0.96,1 z M 32,8.69 A 0.67,0.67 0 1 1 31.33,9.35 0.67,0.67 0 0 1 32,8.69 Z"
       fill="#b59a4c"
       data-original="#000000"
       id="path2441" /></g></svg>
