<?xml version="1.0" encoding="UTF-8" standalone="no"?>
<svg
   version="1.1"
   width="512"
   height="512"
   x="0"
   y="0"
   viewBox="0 0 512 512"
   xml:space="preserve"
   class=""
   id="svg2183"
   xmlns="http://www.w3.org/2000/svg"
   xmlns:svg="http://www.w3.org/2000/svg"><defs
     id="defs2187" /><g
     id="g2181"><path
       d="M 477.3,289.4 507,234.5 c 7.9,-16.2 -13.2,-24.9 -26.1,-20.7 -6.5,1.8 -12,5.8 -15.8,11.5 v -81.8 c 0.4,-14.6 -15.1,-25 -27.7,-18.2 V 114 c 0,-10.4 -7.5,-19.2 -17.1,-20.2 V 49.1 c 0,-2.9 -2.4,-5.3 -5.3,-5.3 H 344.8 C 344.6,37.3 339.3,32 332.7,32 H 315 c -7.4,0 -12.8,6.6 -12.1,13.8 -4.2,-5.4 -9.6,-10 -15.9,-13.4 L 232.1,2.6 c -6.3,-3.4 -14.3,-1.3 -17.9,4.7 -7.5,12.3 -3.4,29.4 8.7,37.2 h -81.8 c -14.6,-0.4 -25,15.1 -18.2,27.7 H 111.6 C 99.6,72.1 89.7,82.4 91.5,93.9 H 51.3 c -2.9,0 -5.3,2.4 -5.3,5.3 v 70.2 c -6.5,0.2 -11.8,5.5 -11.8,12.1 v 17.8 c 0,7.4 6.6,12.8 13.8,12.1 -5.4,4.2 -10,9.6 -13.4,15.9 L 4.8,282.1 c -3.4,6.3 -1.3,14.3 4.7,17.9 12.3,7.5 29.4,3.4 37.2,-8.7 V 373 c -0.4,14.7 15.1,25 27.7,18.2 v 11.3 c 0,10.3 7.5,19.1 17.1,20.2 v 40.2 c 0,2.9 2.4,5.3 5.3,5.3 H 167 c 0.1,6.6 5.5,11.9 12.1,11.9 h 17.8 c 7.4,0 12.8,-6.6 12.1,-13.8 4.2,5.4 9.6,10 15.9,13.4 l 54.9,29.7 c 6.1,3.4 14.3,1.4 17.9,-4.7 7.5,-12.3 3.4,-29.4 -8.7,-37.2 h 81.8 c 14.7,0.4 25,-15.1 18.2,-27.7 h 11.3 c 10.3,0 19.1,-7.5 20.2,-17 h 40.3 c 2.9,0 5.3,-2.4 5.3,-5.3 v -70.2 c 6.6,-0.1 11.9,-5.5 11.9,-12.1 v -17.8 c 0,-7.4 -6.6,-12.8 -13.8,-12.1 5.1,-4.3 9.7,-9.6 13.1,-15.9 z M 344.9,54.4 h 64.9 V 96 c -7.6,3.9 -11.3,12.6 -10.5,20.9 -12.6,-6.6 -28,3.7 -27.7,18.3 v 8.2 h -26.7 z m 26.7,99.5 v 1.3 c -1.1,-0.6 -2.2,-1 -3.4,-1.3 z M 313.4,44.1 c 0,-0.9 0.7,-1.6 1.6,-1.6 h 17.8 c 0.9,0 1.6,0.7 1.6,1.6 v 109.5 c 0,0.9 -0.7,1.6 -1.6,1.6 H 315 c -0.9,0 -1.6,-0.7 -1.6,-1.6 z M 111.7,82.7 h 95.5 c 6.9,0 6.9,-10.5 0,-10.5 -0.4,-0.2 -68.3,0.3 -68.6,-0.2 -10.9,-2.4 -8.7,-17.1 2.6,-17 h 101.7 c 5.4,0.1 7.4,-7.7 2.6,-10.2 -7.5,-4.7 -21.9,-9.1 -23.9,-19 -1.3,-3.8 -0.6,-16.3 5.5,-14 l 54.8,29.7 c 12.8,7 20.8,20.1 20.8,34.3 v 43.9 c 0,19.5 -16.4,35.3 -36.7,35.3 h -95 c -11,0.1 -13.5,-14.1 -2.9,-16.9 h 39.2 c 6.9,0 6.9,-10.5 0,-10.5 -24.8,0 -49.7,-0.3 -74.5,-0.3 -5.9,0 -11.4,-5.2 -9.3,-11.3 2.9,-8.3 18.2,-5.5 25,-5.5 h 58.7 c 2.9,0 5.3,-2.4 5.3,-5.3 0,-2.9 -2.4,-5.3 -5.3,-5.3 -27.7,0 -55.5,-0.1 -83.2,-0.2 -5.1,0 -13.8,1.6 -18.2,-1.7 -7.4,-4.8 -3.1,-15.4 5.9,-15.3 z m -55.1,21.7 h 40.2 c 4.5,4.8 11.3,6.4 17.7,6 -6.8,12.7 4,28.2 18.2,27.7 h 12.8 v 31.3 h -89 v -65 z m -10.3,96.4 c -0.9,0 -1.6,-0.7 -1.6,-1.6 v -17.8 c 0,-0.9 0.7,-1.6 1.6,-1.6 h 109.5 c 0.9,0 1.6,0.7 1.6,1.6 v 17.8 c 0,0.9 -0.7,1.6 -1.6,1.6 z M 98.5,410.5 C 92.2,415.1 85,409.4 85,402.4 V 307 c 0,-2.9 -2.4,-5.3 -5.3,-5.3 -2.9,0 -5.3,2.4 -5.3,5.3 v 68.2 c -2.2,11.2 -17.1,9.5 -17.1,-2.1 V 271.4 c 0.1,-5.4 -7.7,-7.4 -10.2,-2.6 -4.7,7.5 -9.1,21.9 -19,23.9 -3.8,1.3 -16.3,0.6 -14,-5.5 l 29.7,-54.8 c 7,-12.8 20.1,-20.8 34.3,-20.8 H 122 c 19.5,0 35.3,16.4 35.3,36.7 v 95.2 c 0.1,11 -14,13.5 -16.9,2.9 v -39.1 c 0,-2.9 -2.4,-5.3 -5.3,-5.3 -2.9,0 -5.3,2.4 -5.3,5.3 -0.2,24.6 -0.2,49.3 -0.3,73.9 0.2,11.2 -13.3,14.4 -16.9,3.5 v -77.4 c 0,-2.9 -2.4,-5.3 -5.3,-5.3 -2.9,0 -5.3,2.4 -5.3,5.3 v 30 c -0.1,20.4 0.1,40.8 -0.2,61.2 0.3,4 0.6,9.2 -3.3,12 z m 68.4,47.1 H 102 v -36.9 c 7.7,-3.8 11.4,-12.6 10.6,-21 12.6,6.8 28.1,-3.8 27.7,-18.3 v -12.8 h 26.6 z m 31.5,10.3 c 0,0.9 -0.7,1.6 -1.6,1.6 H 179 c -2.4,0 -1.4,-3.9 -1.6,-6.6 V 358.5 c 0,-0.9 0.7,-1.6 1.6,-1.6 h 17.8 c 0.9,0 1.6,0.7 1.6,1.6 z M 196.8,346.3 H 179 c -6.6,0 -11.9,5.3 -12.1,11.9 h -5.2 c 3.8,-3.7 6.2,-9 6.2,-14.9 V 248 c 0,-14.8 -6.7,-28 -17,-36.7 h 4.9 c 6.7,0 12.1,-5.4 12.1,-12.1 v -17.8 c 0,-6.6 -5.3,-11.9 -11.8,-12.1 v -9.8 c 3.7,3.8 9,6.1 14.9,6.1 h 95.2 c 14.8,0 28,-6.7 36.7,-17 v 4.9 c 0,6.7 5.4,12.1 12.1,12.1 h 17.8 c 6.6,0 11.9,-5.3 12.1,-11.8 h 13 c -8.1,2.4 -13.9,10.3 -13.9,19.5 v 95.2 c 0,14.8 6.7,28 17,36.7 h -4.9 c -6.7,0 -12.1,5.4 -12.1,12.1 v 17.8 c 0,6.6 5.3,12 11.9,12.1 v 5.3 c -3.7,-3.8 -9.1,-6.3 -15,-6.3 h -95.2 c -14.8,0 -28,6.7 -36.7,17 v -4.9 c 0,-6.6 -5.5,-12 -12.2,-12 z m 203.3,83 h -95.5 c -6.9,0 -6.9,10.5 0,10.5 h 68.2 c 4.7,1 8.2,4.9 7.6,9.6 -0.5,4.2 -4.8,7.5 -9.7,7.5 H 268.9 c -5.4,-0.1 -7.5,7.7 -2.6,10.2 l 15.1,8.2 c 8.6,4.4 12.1,15.7 7,24 -0.7,1.1 -2.4,1.5 -3.8,0.8 L 229.8,470.4 C 217,463.4 209,450.3 209,436.1 v -43.9 c 0,-19.5 16.4,-35.3 36.7,-35.3 h 95.2 c 4.9,0 9.2,3.3 9.7,7.5 0.5,4.4 -2.4,8.3 -6.8,9.3 h -39.2 c -2.9,0 -5.3,2.4 -5.3,5.3 0,2.9 2.4,5.3 5.3,5.3 h 38.5 c 0.5,0.1 0.9,0.3 1.4,0.3 h 34.6 c 11.1,-0.1 13.5,14.2 2.9,16.9 h -77.4 c -2.9,0 -5.3,2.4 -5.3,5.3 0,2.9 2.4,5.3 5.3,5.3 h 76.7 c 0.5,0.1 0.9,0.3 1.4,0.3 2.1,0.2 19.7,-0.5 21.4,0.6 9.4,3.4 6.3,16.4 -4,16.3 z m 55.2,-17.1 h -37 c -3.9,-7.8 -12.6,-11.4 -21,-10.6 6.9,-12.6 -3.6,-28 -18.2,-27.7 h -12.7 v -26.6 h 88.9 z m 10.3,-96.4 c 0.9,0 1.6,0.7 1.6,1.6 v 17.8 c 0,0.9 -0.7,1.6 -1.6,1.6 H 356.1 c -0.9,0 -1.6,-0.7 -1.6,-1.6 v -17.8 c 0,-0.9 0.7,-1.6 1.6,-1.6 z m -31.9,-10.6 h -43.9 c -19.5,0 -35.3,-16.4 -35.3,-36.7 v -95.2 c -0.1,-11 14.2,-13.6 16.9,-2.8 v 39.1 c 0,6.9 10.5,6.9 10.5,0 v -38.5 c 0.1,-0.5 0.3,-0.9 0.3,-1.4 v -34.6 c 0,-4.5 2.7,-8.4 6.4,-9.4 4.5,-1.4 9.2,1.6 10.5,6.6 v 77.3 c 0,6.9 10.5,6.9 10.5,0 v -76.7 c 1,-7 -2.1,-17.7 1.5,-24.1 4.7,-8.7 15.9,-3.3 15.9,5.3 v 95.5 c 0,2.9 2.4,5.3 5.3,5.3 2.9,0 5.3,-2.4 5.3,-5.3 v -68.2 c 2.2,-11.2 17.1,-9.5 17.1,2.1 v 101.7 c -0.1,5.4 7.7,7.4 10.2,2.6 l 8.2,-15.1 c 4.4,-8.6 15.7,-12.1 24,-7 1.1,0.7 1.5,2.4 0.8,3.8 l -29.7,54.8 c -7.1,12.9 -20.2,20.9 -34.5,20.9 z"
       fill="#b59a4c"
       data-original="#000000"
       class=""
       id="path2179" /></g></svg>
