<svg version="1.1" id="Layer_1" xmlns="http://www.w3.org/2000/svg" xmlns:xlink="http://www.w3.org/1999/xlink" x="0px" y="0px"
	 width="100%" viewBox="0 0 512 512" enable-background="new 0 0 512 512" xml:space="preserve">
<path fill="#000000" opacity="1.000000" stroke="none" 
	d="
M292.000000,513.000000 
	C194.690292,513.000000 97.880577,513.000000 1.035435,513.000000 
	C1.035435,342.398590 1.035435,171.797195 1.035435,1.097890 
	C171.559723,1.097890 342.119537,1.097890 512.839661,1.097890 
	C512.839661,171.666550 512.839661,342.333252 512.839661,513.000000 
	C439.463837,513.000000 365.981903,513.000000 292.000000,513.000000 
M392.509521,315.994202 
	C366.923645,330.484528 342.105469,346.365906 315.411713,359.961517 
	C316.822723,354.589203 318.450653,350.502991 318.905670,346.290100 
	C320.795105,328.795959 307.748718,312.435211 290.295868,309.871735 
	C283.816681,308.920074 277.429688,306.983887 271.167999,304.975037 
	C252.402603,298.954803 233.473892,293.323425 215.072525,286.321869 
	C195.818298,278.995789 176.980133,277.547333 158.412994,287.079559 
	C143.126022,294.927765 128.314911,303.708496 113.351044,312.178619 
	C101.949738,318.632294 90.639565,325.247009 79.222763,331.828125 
	C77.104118,328.233215 75.028168,324.797150 73.035988,321.313171 
	C68.265961,312.971161 57.482456,308.137634 48.724007,312.057373 
	C38.073532,316.823944 28.042791,322.990936 17.810905,328.672668 
	C7.682254,334.297058 6.571076,349.255981 11.293740,357.629486 
	C24.478781,381.007141 37.910427,404.245575 51.150505,427.592346 
	C61.852684,446.464020 72.279343,465.493042 83.093407,484.299744 
	C90.156937,496.583893 102.903381,498.966522 114.035324,492.959076 
	C121.678490,488.834290 128.935654,483.960236 136.713455,480.127563 
	C146.507187,475.301392 152.397888,461.344696 146.072937,450.430542 
	C143.613663,446.186859 141.447144,441.773560 139.108078,437.363647 
	C143.212219,434.997101 147.060501,432.662567 151.033218,430.563477 
	C152.111908,429.993530 153.670410,429.720459 154.831940,430.012970 
	C166.816879,433.031342 178.751892,436.247131 190.726959,439.305511 
	C219.210388,446.580109 247.666351,453.969086 276.217682,460.968048 
	C290.187256,464.392456 303.229492,460.304504 315.467682,453.862274 
	C323.987946,449.377167 332.052795,444.018829 340.269440,438.966553 
	C361.374969,425.989227 382.449615,412.961731 403.540558,399.960693 
	C421.894012,388.647095 440.257141,377.349243 458.607330,366.030396 
	C466.407318,361.219116 474.864014,357.181183 481.814178,351.351532 
	C492.280334,342.572723 495.202484,330.699219 493.134491,317.068481 
	C490.580811,300.236359 476.445496,289.637909 460.507904,288.964813 
	C447.811279,288.428589 436.111816,292.179047 425.046021,297.628784 
	C414.104828,303.017151 403.686676,309.467560 392.509521,315.994202 
M398.039978,25.562983 
	C393.081665,19.368128 386.337921,17.401411 378.833679,18.077456 
	C372.272858,18.668510 367.146179,22.409376 362.576385,26.931110 
	C342.050751,47.240753 322.617737,68.783760 298.834686,85.485626 
	C290.339050,91.451775 281.487152,97.497673 271.903992,101.182388 
	C259.384308,105.996185 246.024536,108.693298 232.935547,111.935104 
	C223.689560,114.225098 215.183548,117.811577 208.200455,124.346741 
	C193.463531,138.138321 187.103729,155.036469 191.092804,175.012466 
	C194.772247,193.438095 205.286484,206.611694 222.886398,214.085373 
	C236.099472,219.696243 249.326385,218.742554 262.913452,215.395432 
	C266.650208,229.771194 270.325928,244.069443 274.092072,258.343811 
	C276.447723,267.272034 280.126038,275.427429 287.995422,281.003571 
	C299.456879,289.124969 311.646790,288.225098 324.142303,284.024841 
	C330.076263,282.030151 332.343567,278.203674 330.767792,272.451355 
	C329.709106,268.586639 328.488586,264.765930 327.449097,260.896362 
	C322.375092,242.008240 317.337646,223.110321 312.102600,203.525024 
	C321.087006,204.031906 329.716278,204.027069 338.206116,205.112610 
	C351.046234,206.754410 363.936371,208.514374 376.534454,211.404587 
	C390.742310,214.664093 404.657806,219.204803 418.685028,223.241837 
	C424.961975,225.048355 430.989319,224.179993 436.431580,220.932709 
	C445.817444,215.332367 448.857513,204.609314 445.458923,192.821350 
	C441.386810,178.697205 437.745300,164.448929 433.943939,150.353195 
	C447.278320,142.517883 453.693054,131.168594 452.934631,116.212349 
	C452.078644,99.331985 439.568665,85.472992 422.566772,84.008163 
	C418.547577,83.661880 415.415588,82.656105 414.326050,77.917259 
	C412.131378,68.372040 409.739380,58.852448 406.909180,49.479168 
	C404.517426,41.558048 401.392456,33.858326 398.039978,25.562983 
M493.019440,153.540619 
	C487.592865,150.441132 482.113342,147.429886 476.754974,144.216629 
	C471.679688,141.173080 466.081879,141.718201 463.557892,145.997299 
	C461.104004,150.157547 461.882568,155.459579 467.570282,158.918533 
	C470.856750,160.917206 474.064850,163.088638 477.508698,164.772354 
	C480.919800,166.440063 484.660675,168.902679 488.118774,168.696747 
	C495.154358,168.277771 497.125275,162.145157 493.019440,153.540619 
M445.966797,52.348804 
	C444.642303,54.555981 443.170166,56.689556 442.025238,58.986259 
	C439.902344,63.244896 441.364014,68.461021 445.091980,70.576576 
	C448.260559,72.374657 454.865845,70.749001 456.909882,67.410789 
	C460.087708,62.221046 463.144989,56.950954 466.064026,51.611431 
	C468.279266,47.559246 466.873047,41.061844 463.639832,39.249210 
	C458.795288,36.533207 453.959534,38.097782 450.965698,43.299496 
	C449.362000,46.085934 447.681366,48.828129 445.966797,52.348804 
M478.640320,110.999687 
	C485.480011,109.318878 492.341827,107.722145 499.151764,105.928429 
	C503.888977,104.680672 506.453339,99.242340 504.973694,94.048508 
	C503.958466,90.484871 498.700806,88.090950 494.321838,89.308678 
	C488.933167,90.807198 483.657776,93.099686 478.176971,93.770363 
	C472.817261,94.426201 470.448364,97.580421 470.212402,101.822235 
	C469.953247,106.481934 472.768524,110.009636 478.640320,110.999687 
z"/>
<path fill="#FFFFFF" opacity="1.000000" stroke="none" 
	d="
M392.774292,315.723145 
	C403.686676,309.467560 414.104828,303.017151 425.046021,297.628784 
	C436.111816,292.179047 447.811279,288.428589 460.507904,288.964813 
	C476.445496,289.637909 490.580811,300.236359 493.134491,317.068481 
	C495.202484,330.699219 492.280334,342.572723 481.814178,351.351532 
	C474.864014,357.181183 466.407318,361.219116 458.607330,366.030396 
	C440.257141,377.349243 421.894012,388.647095 403.540558,399.960693 
	C382.449615,412.961731 361.374969,425.989227 340.269440,438.966553 
	C332.052795,444.018829 323.987946,449.377167 315.467682,453.862274 
	C303.229492,460.304504 290.187256,464.392456 276.217682,460.968048 
	C247.666351,453.969086 219.210388,446.580109 190.726959,439.305511 
	C178.751892,436.247131 166.816879,433.031342 154.831940,430.012970 
	C153.670410,429.720459 152.111908,429.993530 151.033218,430.563477 
	C147.060501,432.662567 143.212219,434.997101 139.108078,437.363647 
	C141.447144,441.773560 143.613663,446.186859 146.072937,450.430542 
	C152.397888,461.344696 146.507187,475.301392 136.713455,480.127563 
	C128.935654,483.960236 121.678490,488.834290 114.035324,492.959076 
	C102.903381,498.966522 90.156937,496.583893 83.093407,484.299744 
	C72.279343,465.493042 61.852684,446.464020 51.150505,427.592346 
	C37.910427,404.245575 24.478781,381.007141 11.293740,357.629486 
	C6.571076,349.255981 7.682254,334.297058 17.810905,328.672668 
	C28.042791,322.990936 38.073532,316.823944 48.724007,312.057373 
	C57.482456,308.137634 68.265961,312.971161 73.035988,321.313171 
	C75.028168,324.797150 77.104118,328.233215 79.222763,331.828125 
	C90.639565,325.247009 101.949738,318.632294 113.351044,312.178619 
	C128.314911,303.708496 143.126022,294.927765 158.412994,287.079559 
	C176.980133,277.547333 195.818298,278.995789 215.072525,286.321869 
	C233.473892,293.323425 252.402603,298.954803 271.167999,304.975037 
	C277.429688,306.983887 283.816681,308.920074 290.295868,309.871735 
	C307.748718,312.435211 320.795105,328.795959 318.905670,346.290100 
	C318.450653,350.502991 316.822723,354.589203 315.411713,359.961517 
	C342.105469,346.365906 366.923645,330.484528 392.774292,315.723145 
M297.283478,442.998657 
	C301.541351,441.149200 306.092346,439.777100 310.008911,437.371887 
	C333.319885,423.056183 356.430176,408.414062 379.712555,394.051300 
	C404.754761,378.602844 429.921844,363.356934 455.012360,347.986633 
	C460.912567,344.372223 467.745544,341.563080 472.300964,336.664490 
	C477.250000,331.342621 478.800323,324.065674 475.183899,316.449280 
	C471.752777,309.223053 466.327698,306.072296 458.617554,305.984375 
	C449.808380,305.883972 441.583405,308.528717 434.091095,312.588654 
	C417.418182,321.623444 401.088470,331.294098 384.658295,340.773926 
	C368.789886,349.929596 353.014923,359.247925 337.114136,368.346558 
	C327.200378,374.019318 316.698120,378.569855 305.056061,377.856140 
	C294.362732,377.200562 283.556274,376.165771 273.133331,373.817261 
	C255.135803,369.761993 237.367859,364.664551 219.568863,359.767120 
	C214.896561,358.481506 212.726334,353.325867 214.150146,348.579681 
	C215.259003,344.883423 220.681610,342.277527 224.894928,343.426208 
	C242.395905,348.197449 259.880188,353.031006 277.405090,357.712738 
	C283.283936,359.283264 289.498230,360.101562 294.796356,356.532471 
	C300.294952,352.828369 302.955872,347.147034 301.945221,340.348602 
	C301.027039,334.171967 295.067383,328.561371 288.687805,326.967010 
	C277.165771,324.087341 265.547241,321.476868 254.229797,317.923309 
	C238.031677,312.837189 221.943970,307.335907 206.043884,301.384674 
	C193.714813,296.769928 181.626068,295.523865 169.440613,301.057068 
	C162.722000,304.107819 156.091476,307.421387 149.685638,311.079468 
	C129.061401,322.857025 108.559998,334.849701 87.696030,346.942108 
	C101.898941,372.021484 116.065567,397.036743 130.393005,422.335999 
	C135.808563,419.250916 140.754730,415.904785 146.140930,413.576752 
	C149.052368,412.318298 152.930298,411.906891 156.002823,412.646973 
	C170.511765,416.141693 184.896866,420.152100 199.319077,424.005066 
	C222.123489,430.097382 244.940216,436.144836 267.714874,442.346619 
	C277.275330,444.950012 286.778748,446.354065 297.283478,442.998657 
M117.497635,471.001740 
	C120.695427,469.145050 123.824242,467.154114 127.108932,465.466553 
	C130.974548,463.480530 132.609207,461.274200 130.051392,456.854858 
	C119.907547,439.328491 109.975639,421.679169 100.011971,404.048920 
	C86.331261,379.841522 72.611458,355.655365 59.123352,331.340881 
	C57.066547,327.633179 54.840176,327.284515 51.657406,329.090942 
	C44.241661,333.299896 36.994629,337.824219 29.443104,341.768677 
	C25.224056,343.972412 25.215082,346.808411 27.058342,350.197479 
	C31.744024,358.812653 36.557613,367.359680 41.414467,375.880096 
	C52.239780,394.871002 63.137753,413.820526 73.977425,432.803284 
	C82.264206,447.315308 90.480461,461.867645 98.797096,476.362457 
	C100.089188,478.614380 101.752953,479.845032 104.632050,478.097595 
	C108.605576,475.685944 112.841515,473.706635 117.497635,471.001740 
z"/>
<path fill="#FFFFFF" opacity="1.000000" stroke="none" 
	d="
M398.315979,25.811802 
	C401.392456,33.858326 404.517426,41.558048 406.909180,49.479168 
	C409.739380,58.852448 412.131378,68.372040 414.326050,77.917259 
	C415.415588,82.656105 418.547577,83.661880 422.566772,84.008163 
	C439.568665,85.472992 452.078644,99.331985 452.934631,116.212349 
	C453.693054,131.168594 447.278320,142.517883 433.943939,150.353195 
	C437.745300,164.448929 441.386810,178.697205 445.458923,192.821350 
	C448.857513,204.609314 445.817444,215.332367 436.431580,220.932709 
	C430.989319,224.179993 424.961975,225.048355 418.685028,223.241837 
	C404.657806,219.204803 390.742310,214.664093 376.534454,211.404587 
	C363.936371,208.514374 351.046234,206.754410 338.206116,205.112610 
	C329.716278,204.027069 321.087006,204.031906 312.102600,203.525024 
	C317.337646,223.110321 322.375092,242.008240 327.449097,260.896362 
	C328.488586,264.765930 329.709106,268.586639 330.767792,272.451355 
	C332.343567,278.203674 330.076263,282.030151 324.142303,284.024841 
	C311.646790,288.225098 299.456879,289.124969 287.995422,281.003571 
	C280.126038,275.427429 276.447723,267.272034 274.092072,258.343811 
	C270.325928,244.069443 266.650208,229.771194 262.913452,215.395432 
	C249.326385,218.742554 236.099472,219.696243 222.886398,214.085373 
	C205.286484,206.611694 194.772247,193.438095 191.092804,175.012466 
	C187.103729,155.036469 193.463531,138.138321 208.200455,124.346741 
	C215.183548,117.811577 223.689560,114.225098 232.935547,111.935104 
	C246.024536,108.693298 259.384308,105.996185 271.903992,101.182388 
	C281.487152,97.497673 290.339050,91.451775 298.834686,85.485626 
	C322.617737,68.783760 342.050751,47.240753 362.576385,26.931110 
	C367.146179,22.409376 372.272858,18.668510 378.833679,18.077456 
	C386.337921,17.401411 393.081665,19.368128 398.315979,25.811802 
M299.033447,156.234497 
	C301.356201,164.585526 303.894867,172.884933 305.908936,181.309753 
	C306.889496,185.411499 308.331146,187.210571 313.018341,187.151962 
	C323.930115,187.015503 334.967438,186.807297 345.741547,188.232880 
	C360.508789,190.186813 375.079315,193.627090 390.405212,196.558716 
	C378.288696,151.353241 366.204712,106.269028 353.990692,60.699772 
	C332.967712,80.478668 312.650360,99.592941 288.024841,113.203087 
	C291.740570,127.482559 295.371399,141.435699 299.033447,156.234497 
M259.973724,122.536209 
	C252.821167,124.359444 245.711899,126.378769 238.508041,127.969704 
	C215.476929,133.056030 203.453842,153.745132 207.963318,173.115051 
	C211.598541,188.729752 227.593506,202.052673 242.212143,200.815552 
	C251.455902,200.033310 260.595947,197.672302 269.692902,195.621887 
	C276.840851,194.010773 283.851624,191.791016 290.671906,189.910934 
	C284.282074,166.082489 277.995026,142.637253 271.753082,119.360329 
	C267.833588,120.307106 264.245422,121.173859 259.973724,122.536209 
M401.966583,95.765480 
	C396.977722,77.498650 392.078003,59.206383 386.882324,40.998566 
	C386.263062,38.828384 384.309021,36.728035 382.415558,35.378361 
	C381.604767,34.800430 378.847534,35.757576 377.865570,36.831654 
	C374.435120,40.583893 371.393433,44.691536 368.203979,48.664108 
	C374.300476,71.114723 380.423340,93.558220 386.486755,116.017761 
	C394.016327,143.908142 401.461395,171.821457 409.092224,199.684006 
	C409.519104,201.242737 411.042236,203.019409 412.509247,203.668823 
	C415.711182,205.086227 419.182709,205.928162 422.586639,206.847534 
	C427.117706,208.071350 430.658203,204.451233 429.444885,199.952866 
	C427.103485,191.272064 424.743561,182.596161 422.440399,173.905212 
	C415.613373,148.143890 408.810272,122.376266 401.966583,95.765480 
M302.002625,232.451370 
	C299.995117,224.690613 298.086731,216.900970 295.846985,209.207825 
	C295.584869,208.307495 293.369659,207.248596 292.275177,207.447571 
	C288.204163,208.187622 284.223083,209.422272 279.912140,210.548599 
	C280.070007,211.979233 280.040955,213.466385 280.415924,214.843536 
	C284.203796,228.755112 288.088684,242.640274 291.883118,256.550110 
	C294.728760,266.981842 301.338379,271.296143 312.089294,269.427490 
	C308.734955,257.369995 305.386627,245.334244 302.002625,232.451370 
M425.455170,118.968620 
	C426.784088,123.387428 428.112976,127.806236 429.557190,132.608475 
	C436.255188,125.517448 438.227905,118.189125 433.945099,110.285965 
	C431.338318,105.475624 427.274872,101.784843 420.860016,100.938934 
	C422.345062,107.092865 423.689270,112.663185 425.455170,118.968620 
z"/>
<path fill="#FFFFFF" opacity="1.000000" stroke="none" 
	d="
M493.304260,153.806580 
	C497.125275,162.145157 495.154358,168.277771 488.118774,168.696747 
	C484.660675,168.902679 480.919800,166.440063 477.508698,164.772354 
	C474.064850,163.088638 470.856750,160.917206 467.570282,158.918533 
	C461.882568,155.459579 461.104004,150.157547 463.557892,145.997299 
	C466.081879,141.718201 471.679688,141.173080 476.754974,144.216629 
	C482.113342,147.429886 487.592865,150.441132 493.304260,153.806580 
z"/>
<path fill="#FFFFFF" opacity="1.000000" stroke="none" 
	d="
M446.001129,51.969543 
	C447.681366,48.828129 449.362000,46.085934 450.965698,43.299496 
	C453.959534,38.097782 458.795288,36.533207 463.639832,39.249210 
	C466.873047,41.061844 468.279266,47.559246 466.064026,51.611431 
	C463.144989,56.950954 460.087708,62.221046 456.909882,67.410789 
	C454.865845,70.749001 448.260559,72.374657 445.091980,70.576576 
	C441.364014,68.461021 439.902344,63.244896 442.025238,58.986259 
	C443.170166,56.689556 444.642303,54.555981 446.001129,51.969543 
z"/>
<path fill="#FFFFFF" opacity="1.000000" stroke="none" 
	d="
M478.225830,110.999237 
	C472.768524,110.009636 469.953247,106.481934 470.212402,101.822235 
	C470.448364,97.580421 472.817261,94.426201 478.176971,93.770363 
	C483.657776,93.099686 488.933167,90.807198 494.321838,89.308678 
	C498.700806,88.090950 503.958466,90.484871 504.973694,94.048508 
	C506.453339,99.242340 503.888977,104.680672 499.151764,105.928429 
	C492.341827,107.722145 485.480011,109.318878 478.225830,110.999237 
z"/>
<path fill="#000000" opacity="1.000000" stroke="none" 
	d="
M296.859314,443.001190 
	C286.778748,446.354065 277.275330,444.950012 267.714874,442.346619 
	C244.940216,436.144836 222.123489,430.097382 199.319077,424.005066 
	C184.896866,420.152100 170.511765,416.141693 156.002823,412.646973 
	C152.930298,411.906891 149.052368,412.318298 146.140930,413.576752 
	C140.754730,415.904785 135.808563,419.250916 130.393005,422.335999 
	C116.065567,397.036743 101.898941,372.021484 87.696030,346.942108 
	C108.559998,334.849701 129.061401,322.857025 149.685638,311.079468 
	C156.091476,307.421387 162.722000,304.107819 169.440613,301.057068 
	C181.626068,295.523865 193.714813,296.769928 206.043884,301.384674 
	C221.943970,307.335907 238.031677,312.837189 254.229797,317.923309 
	C265.547241,321.476868 277.165771,324.087341 288.687805,326.967010 
	C295.067383,328.561371 301.027039,334.171967 301.945221,340.348602 
	C302.955872,347.147034 300.294952,352.828369 294.796356,356.532471 
	C289.498230,360.101562 283.283936,359.283264 277.405090,357.712738 
	C259.880188,353.031006 242.395905,348.197449 224.894928,343.426208 
	C220.681610,342.277527 215.259003,344.883423 214.150146,348.579681 
	C212.726334,353.325867 214.896561,358.481506 219.568863,359.767120 
	C237.367859,364.664551 255.135803,369.761993 273.133331,373.817261 
	C283.556274,376.165771 294.362732,377.200562 305.056061,377.856140 
	C316.698120,378.569855 327.200378,374.019318 337.114136,368.346558 
	C353.014923,359.247925 368.789886,349.929596 384.658295,340.773926 
	C401.088470,331.294098 417.418182,321.623444 434.091095,312.588654 
	C441.583405,308.528717 449.808380,305.883972 458.617554,305.984375 
	C466.327698,306.072296 471.752777,309.223053 475.183899,316.449280 
	C478.800323,324.065674 477.250000,331.342621 472.300964,336.664490 
	C467.745544,341.563080 460.912567,344.372223 455.012360,347.986633 
	C429.921844,363.356934 404.754761,378.602844 379.712555,394.051300 
	C356.430176,408.414062 333.319885,423.056183 310.008911,437.371887 
	C306.092346,439.777100 301.541351,441.149200 296.859314,443.001190 
z"/>
<path fill="#000000" opacity="1.000000" stroke="none" 
	d="
M117.231354,471.271973 
	C112.841515,473.706635 108.605576,475.685944 104.632050,478.097595 
	C101.752953,479.845032 100.089188,478.614380 98.797096,476.362457 
	C90.480461,461.867645 82.264206,447.315308 73.977425,432.803284 
	C63.137753,413.820526 52.239780,394.871002 41.414467,375.880096 
	C36.557613,367.359680 31.744024,358.812653 27.058342,350.197479 
	C25.215082,346.808411 25.224056,343.972412 29.443104,341.768677 
	C36.994629,337.824219 44.241661,333.299896 51.657406,329.090942 
	C54.840176,327.284515 57.066547,327.633179 59.123352,331.340881 
	C72.611458,355.655365 86.331261,379.841522 100.011971,404.048920 
	C109.975639,421.679169 119.907547,439.328491 130.051392,456.854858 
	C132.609207,461.274200 130.974548,463.480530 127.108932,465.466553 
	C123.824242,467.154114 120.695427,469.145050 117.231354,471.271973 
M54.302658,362.171051 
	C55.130894,361.684692 56.081722,361.329742 56.767159,360.690338 
	C60.721638,357.001343 61.130844,352.518097 58.004719,348.097076 
	C56.084270,345.381134 49.020222,343.781586 46.117836,345.405487 
	C42.024239,347.695831 40.367249,352.349518 41.980865,357.024231 
	C43.670105,361.918030 46.476162,363.288147 54.302658,362.171051 
z"/>
<path fill="#000000" opacity="1.000000" stroke="none" 
	d="
M299.017822,155.811676 
	C295.371399,141.435699 291.740570,127.482559 288.024841,113.203087 
	C312.650360,99.592941 332.967712,80.478668 353.990692,60.699772 
	C366.204712,106.269028 378.288696,151.353241 390.405212,196.558716 
	C375.079315,193.627090 360.508789,190.186813 345.741547,188.232880 
	C334.967438,186.807297 323.930115,187.015503 313.018341,187.151962 
	C308.331146,187.210571 306.889496,185.411499 305.908936,181.309753 
	C303.894867,172.884933 301.356201,164.585526 299.017822,155.811676 
z"/>
<path fill="#000000" opacity="1.000000" stroke="none" 
	d="
M260.315491,122.288406 
	C264.245422,121.173859 267.833588,120.307106 271.753082,119.360329 
	C277.995026,142.637253 284.282074,166.082489 290.671906,189.910934 
	C283.851624,191.791016 276.840851,194.010773 269.692902,195.621887 
	C260.595947,197.672302 251.455902,200.033310 242.212143,200.815552 
	C227.593506,202.052673 211.598541,188.729752 207.963318,173.115051 
	C203.453842,153.745132 215.476929,133.056030 238.508041,127.969704 
	C245.711899,126.378769 252.821167,124.359444 260.315491,122.288406 
z"/>
<path fill="#000000" opacity="1.000000" stroke="none" 
	d="
M401.982208,96.188293 
	C408.810272,122.376266 415.613373,148.143890 422.440399,173.905212 
	C424.743561,182.596161 427.103485,191.272064 429.444885,199.952866 
	C430.658203,204.451233 427.117706,208.071350 422.586639,206.847534 
	C419.182709,205.928162 415.711182,205.086227 412.509247,203.668823 
	C411.042236,203.019409 409.519104,201.242737 409.092224,199.684006 
	C401.461395,171.821457 394.016327,143.908142 386.486755,116.017761 
	C380.423340,93.558220 374.300476,71.114723 368.203979,48.664116 
	C371.393433,44.691536 374.435120,40.583893 377.865570,36.831654 
	C378.847534,35.757576 381.604767,34.800430 382.415558,35.378361 
	C384.309021,36.728035 386.263062,38.828384 386.882324,40.998566 
	C392.078003,59.206383 396.977722,77.498650 401.982208,96.188293 
z"/>
<path fill="#000000" opacity="1.000000" stroke="none" 
	d="
M302.020477,232.874924 
	C305.386627,245.334244 308.734955,257.369995 312.089294,269.427490 
	C301.338379,271.296143 294.728760,266.981842 291.883118,256.550110 
	C288.088684,242.640274 284.203796,228.755112 280.415924,214.843536 
	C280.040955,213.466385 280.070007,211.979233 279.912140,210.548599 
	C284.223083,209.422272 288.204163,208.187622 292.275177,207.447571 
	C293.369659,207.248596 295.584869,208.307495 295.846985,209.207825 
	C298.086731,216.900970 299.995117,224.690613 302.020477,232.874924 
z"/>
<path fill="#000000" opacity="1.000000" stroke="none" 
	d="
M425.244324,118.601059 
	C423.689270,112.663185 422.345062,107.092865 420.860016,100.938934 
	C427.274872,101.784843 431.338318,105.475624 433.945099,110.285965 
	C438.227905,118.189125 436.255188,125.517448 429.557190,132.608475 
	C428.112976,127.806236 426.784088,123.387428 425.244324,118.601059 
z"/>
<path fill="#FFFFFF" opacity="1.000000" stroke="none" 
	d="
M54.029175,362.472290 
	C46.476162,363.288147 43.670105,361.918030 41.980865,357.024231 
	C40.367249,352.349518 42.024239,347.695831 46.117836,345.405487 
	C49.020222,343.781586 56.084270,345.381134 58.004719,348.097076 
	C61.130844,352.518097 60.721638,357.001343 56.767159,360.690338 
	C56.081722,361.329742 55.130894,361.684692 54.029175,362.472290 
z"/>
</svg>