<svg version="1.1" id="Layer_1" xmlns="http://www.w3.org/2000/svg" xmlns:xlink="http://www.w3.org/1999/xlink" x="0px" y="0px"
	 width="100%" viewBox="0 0 512 512" enable-background="new 0 0 512 512" xml:space="preserve">
<path fill="#000000" opacity="1.000000" stroke="none" 
	d="
M181.000000,513.000000 
	C173.312424,513.000000 165.624832,513.000000 157.177887,512.692566 
	C159.305603,509.393066 160.798248,506.029846 158.960754,501.924042 
	C157.124847,497.821777 153.523224,498.035126 149.761108,497.936584 
	C129.434616,497.404144 108.996628,497.790771 88.822571,495.692596 
	C67.639458,493.489410 50.334679,482.112579 36.746338,466.025787 
	C22.081091,448.664062 16.074749,427.799622 16.047405,405.313507 
	C15.934350,312.341125 15.998946,219.368484 16.009836,126.395943 
	C16.010004,124.969170 16.157742,123.542419 16.227556,122.279449 
	C177.022430,122.279449 337.394135,122.279449 498.000000,122.279449 
	C498.000000,124.365868 498.000000,126.174889 498.000000,127.983917 
	C498.000000,217.624115 498.059631,307.264404 497.912354,396.904358 
	C497.896759,406.397491 497.446350,416.022308 495.846649,425.354401 
	C491.863953,448.588379 479.873596,467.084778 460.813232,481.035339 
	C444.053497,493.302063 424.935364,497.895081 404.636139,497.938751 
	C331.991272,498.095093 259.345825,497.999176 186.700623,498.001526 
	C180.836121,498.001709 178.636673,500.157837 179.080566,506.062195 
	C179.257065,508.409607 180.333359,510.689423 181.000000,513.000000 
M461.000000,319.500000 
	C461.000000,285.667480 460.927551,251.834763 461.028503,218.002563 
	C461.084656,199.187347 455.349854,183.094589 440.400543,170.833191 
	C431.739502,163.729462 421.857483,159.484116 410.837921,159.139740 
	C393.855103,158.608978 376.843475,158.982590 359.844116,159.009491 
	C353.936798,159.018845 351.812439,161.248199 352.000031,167.046402 
	C352.170502,172.314880 355.240356,174.961578 361.523743,174.983429 
	C376.356354,175.035019 391.194977,175.260361 406.020721,174.937378 
	C426.898224,174.482544 444.905914,192.934677 444.956360,213.774628 
	C445.086639,267.605713 445.098877,321.437653 444.913483,375.268402 
	C444.877960,385.576630 441.177765,394.932953 433.944763,402.468719 
	C425.931396,410.817566 415.770538,414.861664 404.345398,414.930634 
	C371.681091,415.127838 339.014587,414.938873 306.349762,415.085663 
	C302.705414,415.102051 299.032684,416.153046 295.431213,416.977783 
	C284.645447,419.447784 276.091156,425.785248 268.333679,433.260529 
	C264.544983,436.911438 261.232758,441.056732 257.874725,444.789398 
	C251.207947,438.716339 245.646027,433.542633 239.967377,428.500427 
	C230.024521,419.671906 218.463715,414.975861 205.059372,414.990143 
	C175.393814,415.021790 145.728073,415.039459 116.062706,414.955627 
	C111.817192,414.943634 107.557777,414.470062 103.331383,413.980560 
	C82.669907,411.587433 69.188026,394.573822 69.087372,374.676971 
	C68.826859,323.180145 68.973885,271.681061 69.043579,220.183014 
	C69.049995,215.442078 69.221138,210.619232 70.081566,205.976349 
	C73.146538,189.437469 88.678612,175.073837 106.066063,175.046692 
	C177.563309,174.935028 249.060837,175.000015 320.558258,174.999939 
	C321.724884,174.999939 322.901642,175.098557 324.056396,174.981140 
	C329.355438,174.442322 333.378265,170.322098 332.998657,165.894501 
	C332.623840,161.523041 329.169281,159.000214 323.553253,159.000198 
	C251.055862,158.999908 178.558411,158.947647 106.061119,159.036682 
	C87.854179,159.059036 73.672813,167.550659 63.144447,181.820648 
	C56.096924,191.372742 53.043762,202.685577 53.027622,214.599136 
	C52.961472,263.430634 52.954731,312.262360 53.044842,361.093750 
	C53.059750,369.173096 52.906181,377.372650 54.171524,385.302673 
	C56.270142,398.454834 62.562794,409.476593 73.142822,418.085022 
	C85.433487,428.085358 99.639503,431.041077 114.932037,431.015045 
	C144.930878,430.963989 174.929916,431.033508 204.928726,430.975647 
	C212.123718,430.961761 219.006195,432.626465 224.394363,437.141327 
	C233.613556,444.866211 242.209763,453.338470 251.003983,461.564850 
	C254.761017,465.079346 259.354248,465.147064 263.034943,461.477997 
	C268.699158,455.831757 274.208466,450.022949 280.018707,444.531982 
	C289.142151,435.909790 299.402557,430.725677 312.660858,430.815491 
	C345.905457,431.040710 379.160583,430.544891 412.402588,429.888550 
	C424.506958,429.649567 434.839569,423.929443 443.501526,415.836456 
	C455.207703,404.899323 460.823883,390.977814 460.963348,374.997742 
	C461.121918,356.833099 461.000000,338.666016 461.000000,319.500000 
M415.039612,219.435745 
	C408.224304,209.461151 398.289795,204.316666 386.699799,204.170013 
	C350.221344,203.708466 313.730621,203.743912 277.250549,204.135941 
	C264.105499,204.277222 254.404022,211.736130 247.300461,222.381317 
	C242.072845,230.215286 241.088287,239.337845 241.049011,248.455536 
	C240.919098,278.608673 240.890518,308.763397 241.090775,338.915741 
	C241.131653,345.070160 241.719727,351.361725 243.125427,357.338440 
	C246.615067,372.175629 261.864899,385.009277 277.591370,385.003967 
	C314.408844,384.991577 351.226318,385.002258 388.043793,384.991913 
	C389.534393,384.991516 391.106873,385.160980 392.503143,384.764801 
	C410.790222,379.576447 423.254730,365.232056 423.080444,344.958893 
	C422.786865,310.809479 422.996582,276.655701 423.002502,242.503754 
	C423.003967,234.167267 420.727509,226.599030 415.039612,219.435745 
M164.039719,239.449890 
	C155.717880,246.218796 146.745300,250.725266 135.462097,249.108017 
	C130.893829,248.453232 126.148796,248.867432 121.492104,249.026642 
	C110.649345,249.397339 101.621277,253.527313 95.701241,262.869293 
	C85.311119,279.265259 92.261948,301.515198 110.146057,308.161316 
	C111.433571,308.639740 112.802643,310.846802 112.881393,312.317169 
	C113.437759,322.705780 113.330772,333.136200 114.082420,343.506439 
	C115.082047,357.298035 129.922150,365.754120 142.353210,362.209717 
	C154.667969,358.698395 159.411804,349.658722 159.942688,338.047272 
	C160.256180,331.190826 160.000000,324.308350 160.000000,317.040192 
	C166.524460,321.203430 172.377716,325.154907 178.439468,328.755341 
	C187.393280,334.073517 196.885345,334.873169 206.099167,329.890289 
	C215.585327,324.760162 220.005539,316.232483 220.001648,305.438171 
	C219.995422,288.121704 220.076965,270.804596 219.930344,253.489349 
	C219.903366,250.303055 219.402893,246.977783 218.382355,243.967041 
	C213.298065,228.967743 194.742218,221.384918 180.870728,229.585510 
	C175.488831,232.767197 170.068832,235.884354 164.039719,239.449890 
z"/>
<path fill="#FFFFFF" opacity="1.000000" stroke="none" 
	d="
M181.468658,513.000000 
	C180.333359,510.689423 179.257065,508.409607 179.080566,506.062195 
	C178.636673,500.157837 180.836121,498.001709 186.700623,498.001526 
	C259.345825,497.999176 331.991272,498.095093 404.636139,497.938751 
	C424.935364,497.895081 444.053497,493.302063 460.813232,481.035339 
	C479.873596,467.084778 491.863953,448.588379 495.846649,425.354401 
	C497.446350,416.022308 497.896759,406.397491 497.912354,396.904358 
	C498.059631,307.264404 498.000000,217.624115 498.000000,127.983917 
	C498.000000,126.174889 498.000000,124.365868 498.000000,122.279449 
	C337.394135,122.279449 177.022430,122.279449 16.227556,122.279449 
	C16.157742,123.542419 16.010004,124.969170 16.009836,126.395943 
	C15.998946,219.368484 15.934350,312.341125 16.047405,405.313507 
	C16.074749,427.799622 22.081091,448.664062 36.746338,466.025787 
	C50.334679,482.112579 67.639458,493.489410 88.822571,495.692596 
	C108.996628,497.790771 129.434616,497.404144 149.761108,497.936584 
	C153.523224,498.035126 157.124847,497.821777 158.960754,501.924042 
	C160.798248,506.029846 159.305603,509.393066 156.709259,512.692566 
	C132.645767,513.000000 108.291542,513.000000 83.765945,512.657471 
	C82.776550,511.877258 82.005547,511.223114 81.133583,511.033691 
	C63.951210,507.300018 48.685871,499.615112 35.606655,487.981018 
	C18.814266,473.044067 7.578021,454.657501 2.923425,432.466095 
	C2.798228,431.869171 1.663795,431.483948 1.000001,431.000000 
	C1.000000,315.312439 1.000000,199.624878 1.342504,83.765945 
	C2.122780,82.776558 2.772444,82.005814 2.967009,81.133553 
	C6.789630,63.996414 14.310535,48.665726 26.006592,35.595573 
	C40.993828,18.847574 59.342369,7.577503 81.533997,2.923407 
	C82.130875,2.798229 82.516083,1.663790 83.000000,0.999999 
	C198.687561,1.000000 314.375122,1.000000 430.234070,1.342520 
	C431.223511,2.122804 431.994232,2.772445 432.866516,2.967016 
	C450.003632,6.789675 465.334320,14.310539 478.404449,26.006601 
	C495.152405,40.993862 506.422668,59.342323 511.076630,81.534019 
	C511.201782,82.130890 512.336182,82.516098 513.000000,83.000008 
	C513.000000,198.687561 513.000000,314.375122 512.657471,430.234070 
	C511.877167,431.223511 511.223114,431.994537 511.033630,432.866547 
	C507.300110,450.048950 499.614929,465.314117 487.980927,478.393372 
	C473.043976,495.185760 454.657440,506.421997 432.466034,511.076569 
	C431.869141,511.201752 431.483948,512.336243 431.000000,513.000000 
	C347.979095,513.000000 264.958221,513.000000 181.468658,513.000000 
M120.501511,16.000000 
	C113.918221,16.332874 107.332626,16.981503 100.752129,16.933331 
	C86.762276,16.830915 74.048935,20.978937 61.907986,27.543230 
	C42.620773,37.971317 29.172752,53.595806 22.172495,74.184723 
	C18.754679,84.237091 17.466942,95.013695 15.175780,105.644714 
	C176.930313,105.644714 337.413727,105.644714 497.728485,105.644714 
	C497.129822,99.816216 496.841583,94.277107 495.952362,88.836212 
	C492.509613,67.771355 482.119965,50.384815 466.054688,36.769379 
	C448.867889,22.203510 428.221252,16.084270 405.917816,16.054232 
	C311.112305,15.926549 216.306534,16.000000 120.501511,16.000000 
z"/>
<path fill="#000000" opacity="1.000000" stroke="none" 
	d="
M431.468658,513.000000 
	C431.483948,512.336243 431.869141,511.201752 432.466034,511.076569 
	C454.657440,506.421997 473.043976,495.185760 487.980927,478.393372 
	C499.614929,465.314117 507.300110,450.048950 511.033630,432.866547 
	C511.223114,431.994537 511.877167,431.223511 512.657471,430.702728 
	C513.000000,458.260223 513.000000,485.520477 513.000000,513.000000 
	C485.979492,513.000000 458.958405,513.000000 431.468658,513.000000 
z"/>
<path fill="#000000" opacity="1.000000" stroke="none" 
	d="
M1.000001,431.468658 
	C1.663795,431.483948 2.798228,431.869171 2.923425,432.466095 
	C7.578021,454.657501 18.814266,473.044067 35.606655,487.981018 
	C48.685871,499.615112 63.951210,507.300018 81.133583,511.033691 
	C82.005547,511.223114 82.776550,511.877258 83.297287,512.657471 
	C55.739773,513.000000 28.479548,513.000000 1.000000,513.000000 
	C1.000000,485.979492 1.000000,458.958405 1.000001,431.468658 
z"/>
<path fill="#000000" opacity="1.000000" stroke="none" 
	d="
M513.000000,82.531349 
	C512.336182,82.516098 511.201782,82.130890 511.076630,81.534019 
	C506.422668,59.342323 495.152405,40.993862 478.404449,26.006601 
	C465.334320,14.310539 450.003632,6.789675 432.866516,2.967016 
	C431.994232,2.772445 431.223511,2.122804 430.702759,1.342520 
	C458.260223,1.000000 485.520477,1.000000 513.000000,1.000000 
	C513.000000,28.020498 513.000000,55.041592 513.000000,82.531349 
z"/>
<path fill="#000000" opacity="1.000000" stroke="none" 
	d="
M82.531342,0.999999 
	C82.516083,1.663790 82.130875,2.798229 81.533997,2.923407 
	C59.342369,7.577503 40.993828,18.847574 26.006592,35.595573 
	C14.310535,48.665726 6.789630,63.996414 2.967009,81.133553 
	C2.772444,82.005814 2.122780,82.776558 1.342504,83.297287 
	C1.000000,55.739769 1.000000,28.479540 1.000000,1.000000 
	C28.020498,1.000000 55.041592,1.000000 82.531342,0.999999 
z"/>
<path fill="#FFFFFF" opacity="1.000000" stroke="none" 
	d="
M461.000000,320.000000 
	C461.000000,338.666016 461.121918,356.833099 460.963348,374.997742 
	C460.823883,390.977814 455.207703,404.899323 443.501526,415.836456 
	C434.839569,423.929443 424.506958,429.649567 412.402588,429.888550 
	C379.160583,430.544891 345.905457,431.040710 312.660858,430.815491 
	C299.402557,430.725677 289.142151,435.909790 280.018707,444.531982 
	C274.208466,450.022949 268.699158,455.831757 263.034943,461.477997 
	C259.354248,465.147064 254.761017,465.079346 251.003983,461.564850 
	C242.209763,453.338470 233.613556,444.866211 224.394363,437.141327 
	C219.006195,432.626465 212.123718,430.961761 204.928726,430.975647 
	C174.929916,431.033508 144.930878,430.963989 114.932037,431.015045 
	C99.639503,431.041077 85.433487,428.085358 73.142822,418.085022 
	C62.562794,409.476593 56.270142,398.454834 54.171524,385.302673 
	C52.906181,377.372650 53.059750,369.173096 53.044842,361.093750 
	C52.954731,312.262360 52.961472,263.430634 53.027622,214.599136 
	C53.043762,202.685577 56.096924,191.372742 63.144447,181.820648 
	C73.672813,167.550659 87.854179,159.059036 106.061119,159.036682 
	C178.558411,158.947647 251.055862,158.999908 323.553253,159.000198 
	C329.169281,159.000214 332.623840,161.523041 332.998657,165.894501 
	C333.378265,170.322098 329.355438,174.442322 324.056396,174.981140 
	C322.901642,175.098557 321.724884,174.999939 320.558258,174.999939 
	C249.060837,175.000015 177.563309,174.935028 106.066063,175.046692 
	C88.678612,175.073837 73.146538,189.437469 70.081566,205.976349 
	C69.221138,210.619232 69.049995,215.442078 69.043579,220.183014 
	C68.973885,271.681061 68.826859,323.180145 69.087372,374.676971 
	C69.188026,394.573822 82.669907,411.587433 103.331383,413.980560 
	C107.557777,414.470062 111.817192,414.943634 116.062706,414.955627 
	C145.728073,415.039459 175.393814,415.021790 205.059372,414.990143 
	C218.463715,414.975861 230.024521,419.671906 239.967377,428.500427 
	C245.646027,433.542633 251.207947,438.716339 257.874725,444.789398 
	C261.232758,441.056732 264.544983,436.911438 268.333679,433.260529 
	C276.091156,425.785248 284.645447,419.447784 295.431213,416.977783 
	C299.032684,416.153046 302.705414,415.102051 306.349762,415.085663 
	C339.014587,414.938873 371.681091,415.127838 404.345398,414.930634 
	C415.770538,414.861664 425.931396,410.817566 433.944763,402.468719 
	C441.177765,394.932953 444.877960,385.576630 444.913483,375.268402 
	C445.098877,321.437653 445.086639,267.605713 444.956360,213.774628 
	C444.905914,192.934677 426.898224,174.482544 406.020721,174.937378 
	C391.194977,175.260361 376.356354,175.035019 361.523743,174.983429 
	C355.240356,174.961578 352.170502,172.314880 352.000031,167.046402 
	C351.812439,161.248199 353.936798,159.018845 359.844116,159.009491 
	C376.843475,158.982590 393.855103,158.608978 410.837921,159.139740 
	C421.857483,159.484116 431.739502,163.729462 440.400543,170.833191 
	C455.349854,183.094589 461.084656,199.187347 461.028503,218.002563 
	C460.927551,251.834763 461.000000,285.667480 461.000000,320.000000 
z"/>
<path fill="#FFFFFF" opacity="1.000000" stroke="none" 
	d="
M415.276184,219.719803 
	C420.727509,226.599030 423.003967,234.167267 423.002502,242.503754 
	C422.996582,276.655701 422.786865,310.809479 423.080444,344.958893 
	C423.254730,365.232056 410.790222,379.576447 392.503143,384.764801 
	C391.106873,385.160980 389.534393,384.991516 388.043793,384.991913 
	C351.226318,385.002258 314.408844,384.991577 277.591370,385.003967 
	C261.864899,385.009277 246.615067,372.175629 243.125427,357.338440 
	C241.719727,351.361725 241.131653,345.070160 241.090775,338.915741 
	C240.890518,308.763397 240.919098,278.608673 241.049011,248.455536 
	C241.088287,239.337845 242.072845,230.215286 247.300461,222.381317 
	C254.404022,211.736130 264.105499,204.277222 277.250549,204.135941 
	C313.730621,203.743912 350.221344,203.708466 386.699799,204.170013 
	C398.289795,204.316666 408.224304,209.461151 415.276184,219.719803 
M312.500000,220.000000 
	C301.670807,220.000000 290.833038,219.757217 280.017303,220.138657 
	C276.484436,220.263260 272.727783,221.472717 269.559875,223.120972 
	C260.075165,228.055801 257.141571,236.989853 257.078003,246.819473 
	C256.870087,278.972595 256.905945,311.128387 257.063080,343.282104 
	C257.104797,351.808838 260.077911,359.210541 267.136841,364.720551 
	C272.619781,369.000366 279.029724,369.810944 285.459747,369.910034 
	C302.615845,370.174347 319.779938,370.129974 336.938477,369.962769 
	C353.511597,369.801300 370.091370,369.575592 386.649719,368.914520 
	C397.573364,368.478424 406.983429,357.853729 406.991150,346.742432 
	C407.015289,312.088898 406.941254,277.435242 407.032593,242.781952 
	C407.063629,231.001877 395.986481,219.867935 383.972931,219.951828 
	C360.483002,220.115921 336.991089,220.000000 312.500000,220.000000 
z"/>
<path fill="#FFFFFF" opacity="1.000000" stroke="none" 
	d="
M164.352951,239.240387 
	C170.068832,235.884354 175.488831,232.767197 180.870728,229.585510 
	C194.742218,221.384918 213.298065,228.967743 218.382355,243.967041 
	C219.402893,246.977783 219.903366,250.303055 219.930344,253.489349 
	C220.076965,270.804596 219.995422,288.121704 220.001648,305.438171 
	C220.005539,316.232483 215.585327,324.760162 206.099167,329.890289 
	C196.885345,334.873169 187.393280,334.073517 178.439468,328.755341 
	C172.377716,325.154907 166.524460,321.203430 160.000000,317.040192 
	C160.000000,324.308350 160.256180,331.190826 159.942688,338.047272 
	C159.411804,349.658722 154.667969,358.698395 142.353210,362.209717 
	C129.922150,365.754120 115.082047,357.298035 114.082420,343.506439 
	C113.330772,333.136200 113.437759,322.705780 112.881393,312.317169 
	C112.802643,310.846802 111.433571,308.639740 110.146057,308.161316 
	C92.261948,301.515198 85.311119,279.265259 95.701241,262.869293 
	C101.621277,253.527313 110.649345,249.397339 121.492104,249.026642 
	C126.148796,248.867432 130.893829,248.453232 135.462097,249.108017 
	C146.745300,250.725266 155.717880,246.218796 164.352951,239.240387 
M171.021210,254.476639 
	C168.312744,256.197723 165.458496,257.734650 162.955658,259.715515 
	C161.650909,260.748199 160.164047,262.544159 160.128937,264.027802 
	C159.884750,274.339661 159.910660,284.661621 160.095947,294.975922 
	C160.123886,296.531342 161.008987,298.718109 162.217834,299.501648 
	C170.698242,304.998474 179.475845,310.037720 187.940750,315.557190 
	C194.138046,319.598053 203.732712,314.671478 203.890045,306.682129 
	C204.240555,288.882843 204.157898,271.069763 203.925323,253.266586 
	C203.824921,245.581909 195.947922,239.217590 188.057144,243.997253 
	C182.568817,247.321640 177.105042,250.686523 171.021210,254.476639 
M121.783768,294.000000 
	C129.068527,294.000000 136.353302,294.000000 143.784958,294.000000 
	C143.784958,284.171417 143.784958,274.766998 143.784958,265.000000 
	C142.464584,265.000000 141.330780,265.000000 140.196976,265.000031 
	C133.531006,265.000183 126.779976,264.338562 120.222351,265.181580 
	C113.278091,266.074249 106.927040,270.671204 107.005234,280.382721 
	C107.062614,287.509155 113.302254,293.616608 121.783768,294.000000 
M131.028046,344.272247 
	C133.638779,345.069824 136.931900,347.221497 138.693405,346.333832 
	C141.077072,345.132629 143.597595,341.681244 143.762466,339.051208 
	C144.360001,329.519684 143.997925,319.927979 143.997925,310.368164 
	C138.724030,310.368164 133.883575,310.368164 129.000000,310.368164 
	C129.000000,317.866089 128.787888,325.004791 129.085754,332.122162 
	C129.244598,335.917145 130.284821,339.675201 131.028046,344.272247 
z"/>
<path fill="#000000" opacity="1.000000" stroke="none" 
	d="
M121.001190,16.000000 
	C216.306534,16.000000 311.112305,15.926549 405.917816,16.054232 
	C428.221252,16.084270 448.867889,22.203510 466.054688,36.769379 
	C482.119965,50.384815 492.509613,67.771355 495.952362,88.836212 
	C496.841583,94.277107 497.129822,99.816216 497.728485,105.644714 
	C337.413727,105.644714 176.930313,105.644714 15.175780,105.644714 
	C17.466942,95.013695 18.754679,84.237091 22.172495,74.184723 
	C29.172752,53.595806 42.620773,37.971317 61.907986,27.543230 
	C74.048935,20.978937 86.762276,16.830915 100.752129,16.933331 
	C107.332626,16.981503 113.918221,16.332874 121.001190,16.000000 
M378.000000,60.567570 
	C377.118988,46.751667 367.554626,38.216587 354.831726,38.103474 
	C341.863495,37.988178 332.338928,49.314819 331.789032,59.803532 
	C331.060699,73.696396 343.512451,83.398193 352.980896,84.198730 
	C367.096100,85.392143 378.451538,72.944534 378.000000,60.567570 
M309.999969,64.156601 
	C312.731964,46.158478 293.973877,34.774250 281.289917,38.879887 
	C270.852875,42.258209 266.342499,47.709740 264.158875,57.757225 
	C262.270996,66.443810 267.856750,76.751289 275.214783,81.059074 
	C287.517822,88.261909 306.130737,83.096275 309.999969,64.156601 
M442.647034,49.118443 
	C438.226654,42.250446 431.792206,38.465302 423.788422,38.082169 
	C410.728119,37.456993 399.611328,48.647808 399.722107,61.809910 
	C399.853149,77.378654 415.966431,87.566856 429.600433,83.099121 
	C443.754242,78.461044 449.129608,65.174057 442.647034,49.118443 
z"/>
<path fill="#000000" opacity="1.000000" stroke="none" 
	d="
M313.000000,220.000000 
	C336.991089,220.000000 360.483002,220.115921 383.972931,219.951828 
	C395.986481,219.867935 407.063629,231.001877 407.032593,242.781952 
	C406.941254,277.435242 407.015289,312.088898 406.991150,346.742432 
	C406.983429,357.853729 397.573364,368.478424 386.649719,368.914520 
	C370.091370,369.575592 353.511597,369.801300 336.938477,369.962769 
	C319.779938,370.129974 302.615845,370.174347 285.459747,369.910034 
	C279.029724,369.810944 272.619781,369.000366 267.136841,364.720551 
	C260.077911,359.210541 257.104797,351.808838 257.063080,343.282104 
	C256.905945,311.128387 256.870087,278.972595 257.078003,246.819473 
	C257.141571,236.989853 260.075165,228.055801 269.559875,223.120972 
	C272.727783,221.472717 276.484436,220.263260 280.017303,220.138657 
	C290.833038,219.757217 301.670807,220.000000 313.000000,220.000000 
M365.070038,242.001251 
	C361.245087,242.000961 357.419373,241.953568 353.595367,242.013245 
	C349.520844,242.076828 347.074188,244.246429 347.049377,248.275543 
	C346.937775,266.401855 346.888153,284.530579 347.092468,302.655273 
	C347.134888,306.417450 349.097473,309.635315 353.477814,309.974518 
	C366.975616,311.019806 378.540802,307.351593 386.673279,295.816376 
	C396.091766,282.457092 394.899567,265.247314 384.779022,253.298203 
	C379.801788,247.421677 373.327576,243.968307 365.070038,242.001251 
M308.955414,244.570084 
	C302.490326,239.640625 297.539856,240.722794 294.025757,247.916550 
	C292.693726,250.643356 291.528412,253.453018 290.328949,256.242920 
	C284.329132,270.198395 278.279510,284.133026 272.389221,298.134674 
	C270.495178,302.637024 272.423950,308.109009 276.024506,309.553284 
	C280.705048,311.430817 285.242767,309.966248 286.862488,304.699097 
	C289.456024,296.265289 294.532959,293.395416 302.916718,294.926971 
	C305.492676,295.397552 308.244354,294.825745 310.880615,295.085724 
	C311.955566,295.191711 313.358551,295.999329 313.878204,296.907715 
	C315.139893,299.113129 316.030182,301.541626 316.963867,303.921936 
	C319.031769,309.194031 322.891266,311.352051 327.603790,309.790436 
	C331.923492,308.359009 333.863586,303.806366 331.961487,298.722198 
	C330.169769,293.933228 328.027191,289.274231 325.998749,284.575439 
	C320.354706,271.501343 314.689758,258.436310 308.955414,244.570084 
M352.500000,332.000000 
	C328.515533,332.000000 304.531067,331.995911 280.546600,332.002686 
	C274.045441,332.004517 272.033936,333.863831 271.999969,339.836090 
	C271.970032,345.098755 274.965637,347.985260 280.675323,347.988922 
	C315.152985,348.011169 349.630676,348.007935 384.108337,347.992065 
	C389.787415,347.989471 393.029907,345.000488 392.999939,339.935974 
	C392.970093,334.892426 389.737610,332.019287 383.980255,332.006348 
	C373.820190,331.983551 363.660095,332.000000 352.500000,332.000000 
z"/>
<path fill="#000000" opacity="1.000000" stroke="none" 
	d="
M171.325760,254.254974 
	C177.105042,250.686523 182.568817,247.321640 188.057144,243.997253 
	C195.947922,239.217590 203.824921,245.581909 203.925323,253.266586 
	C204.157898,271.069763 204.240555,288.882843 203.890045,306.682129 
	C203.732712,314.671478 194.138046,319.598053 187.940750,315.557190 
	C179.475845,310.037720 170.698242,304.998474 162.217834,299.501648 
	C161.008987,298.718109 160.123886,296.531342 160.095947,294.975922 
	C159.910660,284.661621 159.884750,274.339661 160.128937,264.027802 
	C160.164047,262.544159 161.650909,260.748199 162.955658,259.715515 
	C165.458496,257.734650 168.312744,256.197723 171.325760,254.254974 
z"/>
<path fill="#000000" opacity="1.000000" stroke="none" 
	d="
M121.323715,294.000000 
	C113.302254,293.616608 107.062614,287.509155 107.005234,280.382721 
	C106.927040,270.671204 113.278091,266.074249 120.222351,265.181580 
	C126.779976,264.338562 133.531006,265.000183 140.196976,265.000031 
	C141.330780,265.000000 142.464584,265.000000 143.784958,265.000000 
	C143.784958,274.766998 143.784958,284.171417 143.784958,294.000000 
	C136.353302,294.000000 129.068527,294.000000 121.323715,294.000000 
z"/>
<path fill="#000000" opacity="1.000000" stroke="none" 
	d="
M130.977631,343.861084 
	C130.284821,339.675201 129.244598,335.917145 129.085754,332.122162 
	C128.787888,325.004791 129.000000,317.866089 129.000000,310.368164 
	C133.883575,310.368164 138.724030,310.368164 143.997925,310.368164 
	C143.997925,319.927979 144.360001,329.519684 143.762466,339.051208 
	C143.597595,341.681244 141.077072,345.132629 138.693405,346.333832 
	C136.931900,347.221497 133.638779,345.069824 130.977631,343.861084 
z"/>
<path fill="#FFFFFF" opacity="1.000000" stroke="none" 
	d="
M378.000000,61.015564 
	C378.451538,72.944534 367.096100,85.392143 352.980896,84.198730 
	C343.512451,83.398193 331.060699,73.696396 331.789032,59.803532 
	C332.338928,49.314819 341.863495,37.988178 354.831726,38.103474 
	C367.554626,38.216587 377.118988,46.751667 378.000000,61.015564 
M348.904816,58.588299 
	C345.976105,62.985146 349.346558,65.657791 352.210846,67.324867 
	C353.806702,68.253693 357.417908,67.441956 359.117920,66.122452 
	C363.034851,63.082253 362.925659,59.328064 359.643860,56.159962 
	C356.187653,52.823490 353.143158,53.293621 348.904816,58.588299 
z"/>
<path fill="#FFFFFF" opacity="1.000000" stroke="none" 
	d="
M309.999451,64.601791 
	C306.130737,83.096275 287.517822,88.261909 275.214783,81.059074 
	C267.856750,76.751289 262.270996,66.443810 264.158875,57.757225 
	C266.342499,47.709740 270.852875,42.258209 281.289917,38.879887 
	C293.973877,34.774250 312.731964,46.158478 309.999451,64.601791 
M280.002228,61.399647 
	C280.597961,62.695389 280.998627,64.134712 281.826538,65.259567 
	C284.174072,68.449074 287.984924,69.034027 290.706604,66.801476 
	C294.568085,63.633984 295.097565,60.189129 292.250549,56.756416 
	C288.218781,51.895226 282.875885,53.573692 280.002228,61.399647 
z"/>
<path fill="#FFFFFF" opacity="1.000000" stroke="none" 
	d="
M442.815796,49.473282 
	C449.129608,65.174057 443.754242,78.461044 429.600433,83.099121 
	C415.966431,87.566856 399.853149,77.378654 399.722107,61.809910 
	C399.611328,48.647808 410.728119,37.456993 423.788422,38.082169 
	C431.792206,38.465302 438.226654,42.250446 442.815796,49.473282 
M416.847595,57.714783 
	C415.138184,61.377869 415.340942,65.080627 419.106689,66.796356 
	C421.259247,67.777084 424.991577,67.573730 426.923065,66.278610 
	C430.884125,63.622574 430.855499,59.613232 427.830444,56.348637 
	C424.730377,53.003155 421.974670,53.199886 416.847595,57.714783 
z"/>
<path fill="#FFFFFF" opacity="1.000000" stroke="none" 
	d="
M365.521332,242.010330 
	C373.327576,243.968307 379.801788,247.421677 384.779022,253.298203 
	C394.899567,265.247314 396.091766,282.457092 386.673279,295.816376 
	C378.540802,307.351593 366.975616,311.019806 353.477814,309.974518 
	C349.097473,309.635315 347.134888,306.417450 347.092468,302.655273 
	C346.888153,284.530579 346.937775,266.401855 347.049377,248.275543 
	C347.074188,244.246429 349.520844,242.076828 353.595367,242.013245 
	C357.419373,241.953568 361.245087,242.000961 365.521332,242.010330 
M364.553284,258.951843 
	C364.053406,258.913300 363.553528,258.874756 363.053650,258.836243 
	C363.053650,270.179077 363.053650,281.521912 363.053650,292.952209 
	C371.696350,291.476166 375.795990,284.667633 376.898254,278.290497 
	C377.969849,272.090607 374.742676,262.699280 364.553284,258.951843 
z"/>
<path fill="#FFFFFF" opacity="1.000000" stroke="none" 
	d="
M308.994263,244.968903 
	C314.689758,258.436310 320.354706,271.501343 325.998749,284.575439 
	C328.027191,289.274231 330.169769,293.933228 331.961487,298.722198 
	C333.863586,303.806366 331.923492,308.359009 327.603790,309.790436 
	C322.891266,311.352051 319.031769,309.194031 316.963867,303.921936 
	C316.030182,301.541626 315.139893,299.113129 313.878204,296.907715 
	C313.358551,295.999329 311.955566,295.191711 310.880615,295.085724 
	C308.244354,294.825745 305.492676,295.397552 302.916718,294.926971 
	C294.532959,293.395416 289.456024,296.265289 286.862488,304.699097 
	C285.242767,309.966248 280.705048,311.430817 276.024506,309.553284 
	C272.423950,308.109009 270.495178,302.637024 272.389221,298.134674 
	C278.279510,284.133026 284.329132,270.198395 290.328949,256.242920 
	C291.528412,253.453018 292.693726,250.643356 294.025757,247.916550 
	C297.539856,240.722794 302.490326,239.640625 308.994263,244.968903 
M299.871490,278.971283 
	C301.787079,278.971283 303.702667,278.971283 305.967712,278.971283 
	C304.770538,276.144257 303.721863,273.667908 302.077454,269.784760 
	C300.788513,273.632263 299.956909,276.114624 299.871490,278.971283 
z"/>
<path fill="#FFFFFF" opacity="1.000000" stroke="none" 
	d="
M353.000000,332.000000 
	C363.660095,332.000000 373.820190,331.983551 383.980255,332.006348 
	C389.737610,332.019287 392.970093,334.892426 392.999939,339.935974 
	C393.029907,345.000488 389.787415,347.989471 384.108337,347.992065 
	C349.630676,348.007935 315.152985,348.011169 280.675323,347.988922 
	C274.965637,347.985260 271.970032,345.098755 271.999969,339.836090 
	C272.033936,333.863831 274.045441,332.004517 280.546600,332.002686 
	C304.531067,331.995911 328.515533,332.000000 353.000000,332.000000 
z"/>
<path fill="#000000" opacity="1.000000" stroke="none" 
	d="
M348.963013,58.194313 
	C353.143158,53.293621 356.187653,52.823490 359.643860,56.159962 
	C362.925659,59.328064 363.034851,63.082253 359.117920,66.122452 
	C357.417908,67.441956 353.806702,68.253693 352.210846,67.324867 
	C349.346558,65.657791 345.976105,62.985146 348.963013,58.194313 
z"/>
<path fill="#000000" opacity="1.000000" stroke="none" 
	d="
M280.002167,61.001945 
	C282.875885,53.573692 288.218781,51.895226 292.250549,56.756416 
	C295.097565,60.189129 294.568085,63.633984 290.706604,66.801476 
	C287.984924,69.034027 284.174072,68.449074 281.826538,65.259567 
	C280.998627,64.134712 280.597961,62.695389 280.002167,61.001945 
z"/>
<path fill="#000000" opacity="1.000000" stroke="none" 
	d="
M417.102905,57.405521 
	C421.974670,53.199886 424.730377,53.003155 427.830444,56.348637 
	C430.855499,59.613232 430.884125,63.622574 426.923065,66.278610 
	C424.991577,67.573730 421.259247,67.777084 419.106689,66.796356 
	C415.340942,65.080627 415.138184,61.377869 417.102905,57.405521 
z"/>
<path fill="#000000" opacity="1.000000" stroke="none" 
	d="
M364.954529,258.974731 
	C374.742676,262.699280 377.969849,272.090607 376.898254,278.290497 
	C375.795990,284.667633 371.696350,291.476166 363.053650,292.952209 
	C363.053650,281.521912 363.053650,270.179077 363.053650,258.836243 
	C363.553528,258.874756 364.053406,258.913300 364.954529,258.974731 
z"/>
<path fill="#000000" opacity="1.000000" stroke="none" 
	d="
M299.498413,278.784119 
	C299.956909,276.114624 300.788513,273.632263 302.077454,269.784760 
	C303.721863,273.667908 304.770538,276.144257 305.967712,278.971283 
	C303.702667,278.971283 301.787079,278.971283 299.498413,278.784119 
z"/>
</svg>