<svg width="920" height="615" viewBox="0 0 920 615" fill="none" xmlns="http://www.w3.org/2000/svg">
<path d="M1003.79 135.947H388.059V137.219H1003.79V135.947Z" fill="url(#paint0_linear_1_382)"/>
<path d="M1003.79 181.111H388.059V182.383H1003.79V181.111Z" fill="url(#paint1_linear_1_382)"/>
<path d="M1003.79 120.89H388.059V122.162H1003.79V120.89Z" fill="url(#paint2_linear_1_382)"/>
<path d="M1003.79 105.833H388.059V107.106H1003.79V105.833Z" fill="url(#paint3_linear_1_382)"/>
<path d="M1003.79 150.997H388.059V152.269H1003.79V150.997Z" fill="url(#paint4_linear_1_382)"/>
<path d="M1003.79 166.054H388.059V167.326H1003.79V166.054Z" fill="url(#paint5_linear_1_382)"/>
<path d="M1003.79 90.7832H388.059V92.0554H1003.79V90.7832Z" fill="url(#paint6_linear_1_382)"/>
<path d="M1003.79 30.5625H388.059V31.8347H1003.79V30.5625Z" fill="url(#paint7_linear_1_382)"/>
<path d="M1003.79 15.5054H388.059V16.7776H1003.79V15.5054Z" fill="url(#paint8_linear_1_382)"/>
<path d="M1003.79 0.455078H388.059V1.7273H1003.79V0.455078Z" fill="url(#paint9_linear_1_382)"/>
<path d="M1003.79 45.6191H388.059V46.8914H1003.79V45.6191Z" fill="url(#paint10_linear_1_382)"/>
<path d="M1003.79 196.161H388.059V197.433H1003.79V196.161Z" fill="url(#paint11_linear_1_382)"/>
<path d="M1003.79 75.7261H388.059V76.9983H1003.79V75.7261Z" fill="url(#paint12_linear_1_382)"/>
<path d="M1003.79 60.6694H388.059V61.9416H1003.79V60.6694Z" fill="url(#paint13_linear_1_382)"/>
<path d="M1003.79 346.709H388.059V347.982H1003.79V346.709Z" fill="url(#paint14_linear_1_382)"/>
<path d="M1003.79 331.653H388.059V332.925H1003.79V331.653Z" fill="url(#paint15_linear_1_382)"/>
<path d="M1003.79 361.767H388.059V363.039H1003.79V361.767Z" fill="url(#paint16_linear_1_382)"/>
<path d="M1003.79 316.603H388.059V317.875H1003.79V316.603Z" fill="url(#paint17_linear_1_382)"/>
<path d="M1003.79 376.816H388.059V378.089H1003.79V376.816Z" fill="url(#paint18_linear_1_382)"/>
<path d="M1003.79 241.325H388.059V242.597H1003.79V241.325Z" fill="url(#paint19_linear_1_382)"/>
<path d="M1003.79 256.382H388.059V257.654H1003.79V256.382Z" fill="url(#paint20_linear_1_382)"/>
<path d="M1003.79 211.218H388.059V212.49H1003.79V211.218Z" fill="url(#paint21_linear_1_382)"/>
<path d="M1003.79 226.275H388.059V227.547H1003.79V226.275Z" fill="url(#paint22_linear_1_382)"/>
<path d="M1003.79 286.489H388.059V287.761H1003.79V286.489Z" fill="url(#paint23_linear_1_382)"/>
<path d="M1003.79 301.545H388.059V302.818H1003.79V301.545Z" fill="url(#paint24_linear_1_382)"/>
<path d="M1003.79 271.438H388.059V272.711H1003.79V271.438Z" fill="url(#paint25_linear_1_382)"/>
<path d="M968.125 408.094H345.708V614.194H968.125V408.094Z" fill="url(#paint26_radial_1_382)"/>
<path d="M818.392 417.668H816.345H782.189L794.291 513.053C795.183 520.069 801.202 525.336 808.337 525.336H816.345H818.392H826.208C833.208 525.336 839.112 520.069 839.984 513.053L851.862 417.668H818.392Z" fill="#0061FE"/>
<path d="M826.208 525.336C833.208 525.336 839.112 520.069 839.984 513.053L851.862 417.668H825.457L802.133 523.917C804.013 524.827 806.124 525.336 808.337 525.336H816.345H818.392H826.208Z" fill="url(#paint27_radial_1_382)"/>
<path d="M822.788 429.824C822.788 429.824 827.433 390.239 835.634 368.573C843.834 346.907 843.828 338.103 843.828 338.103" stroke="#0061FE" stroke-miterlimit="10"/>
<path d="M843.661 340.132C843.661 340.132 832.554 289.682 853.049 248.379C853.049 248.379 858.15 267.946 861.243 279.53C867.397 302.551 853.402 331.665 843.661 340.132Z" fill="#FB8F8F"/>
<path d="M853.344 249.512C853.042 254.721 851.4 284.644 852.022 305.598C852.407 318.682 847.947 331.322 844.02 339.801C853.742 330.947 867.319 302.271 861.243 279.53C858.599 269.6 854.473 253.825 853.344 249.512Z" fill="url(#paint28_radial_1_382)"/>
<path d="M817.186 421.389C817.186 421.389 806.258 352.994 802.158 320.495C798.058 287.99 793.964 269.034 793.964 269.034" stroke="#0061FE" stroke-miterlimit="10"/>
<path d="M820.26 423.081C820.26 423.081 812.746 359.432 814.113 332.34C815.479 305.254 805.918 200.296 805.918 200.296" stroke="#0061FE" stroke-miterlimit="10"/>
<path d="M794.304 269.371C794.304 269.371 802.158 262.26 787.13 246.688C771.756 230.753 763.562 213.845 758.782 205.722C754.001 197.599 721.899 191.505 713.698 180.666C713.704 180.666 721.899 222.649 794.304 269.371Z" fill="#FB8F8F"/>
<path d="M805.578 201.32C805.578 201.32 777.569 164.756 774.842 132.251C772.115 99.7455 770.742 97.042 770.742 97.042C770.742 97.042 793.149 133.167 802.845 149.184C813.092 166.105 811.725 195.219 805.578 201.32Z" fill="#FB8F8F"/>
<path d="M787.136 246.688C771.762 230.753 763.568 213.845 758.788 205.722C754.007 197.599 721.905 191.505 713.704 180.666C713.704 180.666 713.736 180.844 713.82 181.174C716.527 186.085 731.279 211.282 757.081 227.725C785.693 245.962 796.242 264.639 796.299 264.734C796.691 261.051 795.26 255.11 787.136 246.688Z" fill="url(#paint29_radial_1_382)"/>
<path d="M793.964 160.685C802.517 172.796 805.507 188.992 806.534 200.105C811.834 192.064 812.527 165.176 802.845 149.171C793.149 133.154 770.742 97.0293 770.742 97.0293C770.742 97.0293 770.954 97.4491 771.377 99.9363C773.642 109.987 781.856 143.542 793.964 160.685Z" fill="url(#paint30_radial_1_382)"/>
<path d="M744.318 252.673H650.308L595.131 366.13L528.705 377.275L530.752 402.936L666.657 413.406L670.931 409.519L744.318 252.673Z" stroke="#0061FE" stroke-miterlimit="10"/>
<path d="M744.318 252.673H650.308L595.131 366.13L528.705 377.275L530.752 402.936L666.657 413.406L670.931 409.519L744.318 252.673Z" fill="url(#paint31_radial_1_382)"/>
<path d="M561.944 417.318L545.094 520.4C544.677 522.766 542.604 524.496 540.185 524.496C537.56 524.496 535.385 522.48 535.212 519.885L528.032 413.737" stroke="#0061FE" stroke-miterlimit="10"/>
<path d="M733.115 276.623L686.402 519.267C685.818 522.302 683.142 524.496 680.03 524.496C676.841 524.496 674.126 522.2 673.62 519.083L657.738 419.544" stroke="#0061FE" stroke-miterlimit="10"/>
<path d="M644.52 411.714L625.482 520.4C625.064 522.766 622.992 524.497 620.573 524.497C617.948 524.497 615.773 522.48 615.6 519.885L608.42 413.737" stroke="#0061FE" stroke-miterlimit="10"/>
<path d="M653.824 400.531H535.18V414.035H666.657V413.253C666.657 406.23 660.914 400.531 653.824 400.531Z" fill="#0061FE"/>
<path d="M670.065 411.376L744.318 252.673C735.682 252.266 727.667 257.12 724.093 264.925L667.216 389.202C664.707 394.685 664.829 400.995 667.543 406.383L670.065 411.376Z" fill="#0061FE"/>
<path d="M454.792 347.893L527.005 474.861C527.005 474.861 563.791 469.46 571.966 445.148C571.966 445.148 537.567 393.483 531.432 385.379C525.298 377.275 508.948 349.585 508.948 349.585L468.754 346.881L454.792 347.893Z" fill="#FB8F8F"/>
<path d="M454.792 347.893L527.005 474.861C527.005 474.861 563.791 469.46 571.966 445.148C571.966 445.148 537.567 393.483 531.432 385.379C525.298 377.275 508.948 349.585 508.948 349.585L468.754 346.881L454.792 347.893Z" fill="url(#paint32_radial_1_382)"/>
<path d="M524.958 450.548C524.958 450.548 522.231 498.499 520.87 503.225C520.209 505.509 520.986 508.428 521.576 511.443C522.526 516.284 520.396 521.201 516.193 523.835C512.952 525.864 507.87 527.493 502.474 530.234C493.33 534.878 482.563 540.552 473.015 541.016C472.11 541.061 471.642 539.96 472.316 539.356C477.398 534.789 492.085 521.844 505.881 511.997C505.881 511.997 505.881 456.617 503.834 452.565C501.8 448.519 524.958 450.548 524.958 450.548Z" fill="#FFDE99"/>
<path d="M562.104 459.511C562.104 459.511 575.374 480.942 581.508 486.342C587.642 491.743 589.003 495.121 578.101 512.684C570.536 524.872 563.272 535.234 556.592 538.644C555.61 539.146 554.558 538.103 555.039 537.117C556.303 534.534 558.357 529.63 561.071 520.788C565.838 505.254 568.566 500.528 565.158 494.446C561.751 488.365 546.608 469.04 546.608 469.04C546.608 469.04 557.009 464.422 562.104 459.511Z" fill="#FFDE99"/>
<path d="M643.493 337.766C643.493 337.766 662.57 364.107 648.941 384.367C635.312 404.627 549.483 397.872 535.854 384.367L551.523 454.6C551.523 454.6 505.881 467.431 484.764 455.949V344.515H569.24L574.007 339.114L642.133 337.766" fill="#FB8F8F"/>
<path d="M643.493 337.766H642.133L628.587 338.033L627.195 338.389C627.195 338.389 642.133 378.28 602.619 380.309C563.105 382.338 530.406 362.752 530.406 362.752L537.868 393.394L535.854 384.361C549.476 397.866 635.312 404.621 648.941 384.361C662.57 364.101 643.493 337.766 643.493 337.766Z" fill="url(#paint33_radial_1_382)"/>
<path d="M612.404 396.72C610.191 391.167 607.765 385.684 605.834 380.048C604.801 380.162 603.735 380.258 602.619 380.315C563.105 382.344 530.406 362.758 530.406 362.758L537.868 393.4L535.854 384.367C544.535 392.961 582.464 398.819 612.404 396.72Z" fill="url(#paint34_radial_1_382)"/>
<path d="M576.054 285.089C576.054 285.089 569.239 303.327 562.431 302.646C555.617 301.972 516.11 249.97 512.022 249.97C507.935 249.97 501.8 248.621 501.8 248.621L486.131 240.517V237.814C486.131 237.814 472.508 235.784 471.142 232.413H511.336C511.336 232.413 522.237 238.494 523.598 241.866L561.745 276.311L567.533 261.114C567.539 261.114 582.522 271.916 576.054 285.089Z" fill="#FFDE99"/>
<path d="M516.276 253.392C518.811 249.327 521.038 245.091 522.809 240.644C519.934 237.203 511.336 232.413 511.336 232.413H471.142C472.502 235.791 486.131 237.814 486.131 237.814V240.517L501.8 248.621C501.8 248.621 507.935 249.97 512.022 249.97C512.657 249.97 514.165 251.242 516.276 253.392Z" fill="url(#paint35_radial_1_382)"/>
<path d="M509.289 234.436H490.892C490.892 234.436 490.892 237.814 501.794 239.162C501.794 239.162 507.242 244.563 513.376 243.214C519.511 241.866 509.289 234.436 509.289 234.436Z" fill="url(#paint36_radial_1_382)"/>
<path d="M486.131 236.465L483.32 238.692C482.961 238.978 482.82 239.455 482.967 239.888L483.404 241.192L482.878 243.8C482.781 244.277 482.935 244.773 483.282 245.123L484.764 245.918L484.469 247.775C484.264 248.583 484.809 249.391 485.643 249.506C489.641 250.059 499.336 250.231 500.434 251.318C500.434 251.318 501.114 249.289 499.753 247.941H501.8C501.8 247.941 503.161 245.237 499.753 243.889H501.8C501.8 243.889 505.208 239.837 490.218 237.808C483.166 236.86 486.131 236.465 486.131 236.465Z" fill="#FFDE99"/>
<path d="M576.215 271.75L566.686 264.842H566.115L561.745 276.311L560.988 275.63L562.316 276.928C564.812 279.364 566.333 282.615 566.583 286.082C566.93 290.84 566.551 296.717 562.425 295.897C558.37 295.095 546.332 285.185 537.265 277.297C548.161 289.962 559.127 302.322 562.425 302.646C569.24 303.32 576.048 285.089 576.048 285.089C578.473 280.166 577.889 275.573 576.215 271.75Z" fill="url(#paint37_radial_1_382)"/>
<path d="M565.755 130.826C565.755 130.826 561.745 122.334 555.617 127.06C549.483 131.787 543.355 156.099 552.21 166.232C561.065 176.365 555.617 191.218 547.442 200.677C539.267 210.13 559.704 213.508 568.559 210.13C577.414 206.752 589.676 214.856 591.043 214.182C592.404 213.508 602.677 186.874 602.677 186.874L600.822 158.153L565.755 130.826Z" fill="#F9C1DA"/>
<path d="M565.755 130.826C565.755 130.826 561.745 122.334 555.617 127.06C549.483 131.787 543.355 156.099 552.21 166.232C561.065 176.365 555.617 191.218 547.442 200.677C539.267 210.13 559.704 213.508 568.559 210.13C577.414 206.752 589.676 214.856 591.043 214.182C592.404 213.508 602.677 186.874 602.677 186.874L600.822 158.153L565.755 130.826Z" fill="url(#paint38_radial_1_382)"/>
<path d="M580.142 189.864C580.142 189.864 584.909 195.945 580.142 213.502C575.374 231.058 567.199 239.162 563.792 249.296C560.385 259.429 610.114 250.644 610.114 250.644L627.144 222.28L618.289 214.176C618.289 214.176 606.707 214.85 605.346 208.775C603.986 202.694 600.579 185.137 602.619 170.278C604.666 155.418 578.775 189.189 578.775 189.189L580.142 189.864Z" fill="#FFDE99"/>
<path d="M574.11 229.194C574.11 229.194 558.338 253.347 558.338 258.748C558.338 264.148 579.455 290.49 580.135 302.646C580.815 314.802 571.96 339.788 571.96 339.788C571.96 339.788 618.282 355.997 646.214 338.44C646.214 338.44 637.019 324.598 643.827 313.791C650.641 302.983 670.398 309.064 670.398 309.064C670.398 309.064 674.486 309.739 678.573 307.041C682.661 304.338 678.573 299.612 678.573 299.612C678.573 299.612 681.3 300.286 677.893 292.856C674.486 285.426 642.467 221.268 629.524 217.89C616.582 214.513 609.087 214.513 609.087 214.513C609.087 214.513 585.243 244.225 574.341 241.528C565.935 239.442 574.11 229.194 574.11 229.194Z" fill="#0061FE"/>
<path d="M605.378 218.908C610.704 221.618 621.587 225.517 633.644 220.352C632.129 219.061 630.75 218.208 629.53 217.89C616.588 214.513 609.093 214.513 609.093 214.513C609.093 214.513 607.675 216.281 605.378 218.908Z" fill="url(#paint39_radial_1_382)"/>
<path d="M646.182 311.081L612.154 312.099L582.862 316.151L584.909 321.551C584.909 321.551 598.564 327.124 616.62 327.575C625.809 327.804 633.605 334.185 635.844 343.02C635.864 343.096 635.883 343.173 635.902 343.243C639.521 342.04 642.993 340.463 646.22 338.44C646.22 338.44 637.025 324.598 643.833 313.791C644.507 312.729 645.296 311.838 646.182 311.081Z" fill="url(#paint40_radial_1_382)"/>
<path d="M580.142 189.864C580.142 189.864 584.909 195.945 580.142 213.502C575.374 231.058 567.199 239.162 563.792 249.296C560.385 259.429 610.114 250.644 610.114 250.644L627.144 222.28L618.289 214.176C618.289 214.176 606.707 214.85 605.346 208.775C603.986 202.694 600.579 185.137 602.619 170.278C604.666 155.418 578.775 189.189 578.775 189.189L580.142 189.864Z" fill="url(#paint41_radial_1_382)"/>
<path d="M563.792 136.513C563.792 137.187 547.198 195.518 561.065 198.642C576.054 202.02 588.316 193.241 594.444 188.509C600.578 183.782 605.346 171.626 605.346 171.626L596.491 145.285L576.054 131.1L565.832 129.751L563.792 136.513Z" fill="#FFDE99"/>
<path d="M584.909 161.499C572.159 156.76 562.303 158.179 558.588 159.038C556.419 170.163 554.674 182.879 555.989 190.862L563.785 191.212C563.792 191.212 601.259 167.574 584.909 161.499Z" fill="url(#paint42_radial_1_382)"/>
<path d="M564.78 133.237C564.78 133.237 571.287 131.78 573.327 137.862C575.374 143.943 585.589 177.708 599.212 176.359L601.939 177.708C601.939 177.708 586.95 215.524 607.387 218.228C627.824 220.931 624.417 212.827 638.726 212.827C653.035 212.827 668.018 199.323 656.436 187.841C644.854 176.359 637.359 174.336 633.952 156.773C630.544 139.216 608.747 120.305 598.525 123.683L593.078 124.357L579.455 125.031C579.455 125.031 580.161 121.094 571.96 123.002C560.385 125.706 564.78 133.237 564.78 133.237Z" fill="#F9C1DA"/>
<path d="M564.78 133.237C564.78 133.237 571.287 131.78 573.327 137.862C575.374 143.943 585.589 177.708 599.212 176.359L601.939 177.708C601.939 177.708 586.95 215.524 607.387 218.228C627.824 220.931 624.417 212.827 638.726 212.827C653.035 212.827 668.018 199.323 656.436 187.841C644.854 176.359 637.359 174.336 633.952 156.773C630.544 139.216 608.747 120.305 598.525 123.683L593.078 124.357L579.455 125.031C579.455 125.031 580.161 121.094 571.96 123.002C560.385 125.706 564.78 133.237 564.78 133.237Z" fill="url(#paint43_radial_1_382)"/>
<path d="M605.006 170.615C605.006 170.615 608.413 185.474 606.366 199.653C606.366 199.653 605.898 211.434 612.263 212.973" stroke="#FB8F8F" stroke-miterlimit="10"/>
<path d="M565.755 130.826C565.755 130.826 572.307 120.642 577.754 134.146C583.202 147.651 585.249 163.185 594.104 165.214" stroke="#FB8F8F" stroke-miterlimit="10"/>
<path d="M603.986 181.085C613.014 181.085 620.336 173.828 620.336 164.877C620.336 155.926 613.014 148.669 603.986 148.669C594.958 148.669 587.636 155.926 587.636 164.877C587.636 173.828 594.958 181.085 603.986 181.085Z" fill="#241921"/>
<path d="M601.599 181.423C610.627 181.423 617.948 174.166 617.948 165.214C617.948 156.263 610.627 149.006 601.599 149.006C592.57 149.006 585.249 156.263 585.249 165.214C585.249 174.166 592.57 181.423 601.599 181.423Z" stroke="#241921" stroke-miterlimit="10"/>
<path d="M599.571 150.66C598.788 142.142 594.444 134.236 587.649 128.962L582.746 125.285C582.317 124.961 582.522 124.287 583.061 124.249L589.227 123.822C591.018 123.702 592.769 124.325 594.098 125.527C601.072 131.869 605.5 140.654 606.36 150.049L599.571 150.66Z" fill="#241921"/>
<path d="M594.444 175.004L587.129 181.219C582.618 185.054 576.869 187.16 570.927 187.16H561.065" stroke="#241921" stroke-miterlimit="10"/>
<path d="M563.792 190.538C566.05 190.538 567.879 188.723 567.879 186.486C567.879 184.248 566.05 182.434 563.792 182.434C561.533 182.434 559.704 184.248 559.704 186.486C559.704 188.723 561.533 190.538 563.792 190.538Z" fill="#241921"/>
<path d="M646.9 287.786C635.318 288.461 640.766 283.734 639.406 277.653C638.045 271.572 631.911 269.549 630.551 260.096C629.19 250.644 629.19 245.237 629.19 245.237C629.19 245.237 610.114 251.318 607.393 270.898C605.32 285.795 583.549 288.187 571.44 282.239C575.9 289.803 579.853 297.493 580.141 302.64C580.238 304.338 580.141 306.297 579.91 308.396L590.357 310.069L612.154 314.121L636.679 309.395L645.534 297.239C645.534 297.239 638.719 297.239 642.126 292.513C642.126 292.513 652.348 287.786 660.523 292.513C668.704 297.245 658.483 287.112 646.9 287.786Z" fill="url(#paint44_radial_1_382)"/>
<path d="M646.9 287.786C635.318 288.461 640.766 283.734 639.406 277.653C638.045 271.572 631.911 269.549 630.551 260.096C629.19 250.644 629.19 245.237 629.19 245.237C629.19 245.237 629.081 245.288 628.863 245.389C624.185 247.648 620.393 251.375 618 255.955C616.415 258.983 614.907 262.062 613.181 265.115C610.595 269.689 607.233 273.728 602.317 275.878C598.487 277.551 579.833 284.822 571.447 282.239C575.906 289.803 579.859 297.493 580.148 302.64C580.244 304.338 580.148 306.297 579.917 308.396L590.363 310.069L612.16 314.121L636.685 309.395L645.54 297.239C645.54 297.239 638.725 297.239 642.133 292.513C642.133 292.513 652.354 287.786 660.529 292.513C668.704 297.245 658.482 287.112 646.9 287.786Z" fill="url(#paint45_radial_1_382)"/>
<path d="M574.193 317.995L584.222 326.284C584.222 326.284 585.583 325.61 584.903 322.906L586.263 323.58C586.263 323.58 587.623 321.558 586.943 319.528H588.99L586.943 314.802L580.809 312.099L578.762 314.121L574.193 317.995Z" fill="#FFDE99"/>
<path d="M574.193 317.995L584.222 326.284C584.222 326.284 585.583 325.61 584.903 322.906L586.263 323.58C586.263 323.58 587.623 321.558 586.943 319.528H588.99L586.943 314.802L580.809 312.099L578.762 314.121L574.193 317.995Z" fill="url(#paint46_radial_1_382)"/>
<path d="M672.811 302.64C674.332 304.256 673.793 306.876 671.759 307.786C663.52 311.469 642.948 319.681 622.382 320.203C603.543 320.68 595.663 321.163 592.673 321.399C591.595 321.488 590.517 321.208 589.619 320.61L582.868 316.151H579.461C579.461 316.151 576.054 318.854 576.054 319.529L571.967 316.151L585.743 301.87C586.462 301.126 587.585 300.935 588.502 301.412C591.621 303.034 596.485 308.721 599.892 310.07C599.892 310.07 617.3 310.235 645.534 297.239C659.06 291.018 668.473 298.028 672.811 302.64Z" fill="#FFDE99"/>
<path d="M672.811 302.64C674.332 304.256 673.793 306.876 671.759 307.786C663.52 311.469 642.948 319.681 622.382 320.203C603.543 320.68 595.663 321.163 592.673 321.399C591.595 321.488 590.517 321.208 589.619 320.61L582.868 316.151H579.461C579.461 316.151 576.054 318.854 576.054 319.529L571.967 316.151L585.743 301.87C586.462 301.126 587.585 300.935 588.502 301.412C591.621 303.034 596.485 308.721 599.892 310.07C599.892 310.07 617.3 310.235 645.534 297.239C659.06 291.018 668.473 298.028 672.811 302.64Z" fill="url(#paint47_radial_1_382)"/>
<path d="M490.898 359.375V445.141" stroke="#F9C1DA" stroke-miterlimit="10"/>
<path d="M502.141 454.937C502.141 454.937 524.625 455.612 543.695 446.833" stroke="#F9C1DA" stroke-miterlimit="10"/>
<path d="M530.072 470.471C530.072 470.471 558.684 464.39 566.179 446.833" stroke="#F9C1DA" stroke-miterlimit="10"/>
<path d="M583.208 273.27C583.208 273.27 591.383 278.671 602.965 268.544" stroke="#F9C1DA" stroke-miterlimit="10"/>
<path d="M602.959 198.979C602.959 198.979 598.872 211.809 608.407 214.513" stroke="#FB8F8F" stroke-miterlimit="10"/>
<path d="M630.211 210.461C630.211 210.461 634.298 208.432 639.066 209.112C643.833 209.787 650.648 208.438 652.688 202.357" stroke="#FB8F8F" stroke-miterlimit="10"/>
<path d="M611.397 176.213C615.138 173.802 617.608 169.629 617.608 164.877C617.608 163.122 617.268 161.442 616.652 159.896" stroke="#0061FE" stroke-miterlimit="10"/>
<path d="M657.738 419.544L652.772 388.413C651.277 379.049 643.134 372.154 633.573 372.154H585.865C576.33 372.154 568.207 379.011 566.679 388.336L561.944 417.318" stroke="#0061FE" stroke-miterlimit="10"/>
<path d="M444.192 254.689H382.951V285.382H444.192V254.689Z" fill="#FFDE99"/>
<path d="M382.925 285.382H444.211V254.689H382.925V285.382Z" fill="url(#paint48_radial_1_382)"/>
<path d="M382.951 254.689L413.225 269.695L444.185 254.689H382.951Z" fill="#FFDE99"/>
<path d="M369.829 277.284C371.407 274.066 375.854 272.615 379.056 274.276C380.589 275.071 381.757 276.419 383.214 277.342C385.274 278.652 387.898 279.046 390.259 278.398C392.614 277.755 394.668 276.076 395.758 273.907" stroke="#FA404B" stroke-miterlimit="10"/>
<path d="M485.592 105.305H393.192V161.919H485.592V105.305Z" fill="url(#paint49_radial_1_382)"/>
<path d="M439.956 198.178H356.694C353.819 198.178 351.483 195.869 351.483 193.012V134.636C351.483 131.787 353.813 129.471 356.694 129.471H439.963C442.837 129.471 445.173 131.78 445.173 134.636V193.012C445.167 195.869 442.837 198.178 439.956 198.178Z" stroke="#0061FE" stroke-miterlimit="10"/>
<path d="M443.807 193.012H360.544C357.669 193.012 355.333 190.703 355.333 187.847V129.471C355.333 126.622 357.663 124.306 360.544 124.306H443.813C446.688 124.306 449.023 126.615 449.023 129.471V187.847C449.017 190.697 446.688 193.012 443.807 193.012Z" fill="#0061FE"/>
<path d="M443.807 124.312H430.948C407.719 147.155 384.568 170.081 361.423 193.013H443.807C446.681 193.013 449.017 190.703 449.017 187.847V129.471C449.017 126.622 446.688 124.312 443.807 124.312Z" fill="url(#paint50_radial_1_382)"/>
<path d="M405.486 171.703H379.614C377.189 171.703 375.225 169.756 375.225 167.352V149.973C375.225 147.569 377.189 145.622 379.614 145.622H405.486C407.912 145.622 409.875 147.569 409.875 149.973V167.352C409.875 169.75 407.912 171.703 405.486 171.703Z" fill="white"/>
<path d="M413.083 153.574V158.026V159.299V163.751L429.125 172.657V159.299V158.026V144.668L413.083 153.574Z" fill="white"/>
<path d="M299.829 171.779C288.844 171.779 279.938 180.608 279.938 191.498C279.938 196.842 282.087 201.689 285.565 205.238L281.221 209.545H291.815C294.266 210.62 296.98 211.218 299.836 211.218C310.821 211.218 319.727 202.388 319.727 191.498C319.727 180.608 310.815 171.779 299.829 171.779Z" fill="#FB8F8F"/>
<path d="M321.088 202.191C323.064 199.125 324.212 195.487 324.212 191.575C324.212 187.491 322.961 183.7 320.818 180.551" stroke="#FB8F8F" stroke-miterlimit="10"/>
<path d="M324.938 202.191C326.914 199.125 328.063 195.487 328.063 191.575C328.063 187.491 326.811 183.7 324.668 180.551" stroke="#FB8F8F" stroke-miterlimit="10"/>
<path d="M290.846 194.043C292.263 194.043 293.413 192.904 293.413 191.499C293.413 190.093 292.263 188.954 290.846 188.954C289.429 188.954 288.279 190.093 288.279 191.499C288.279 192.904 289.429 194.043 290.846 194.043Z" fill="white"/>
<path d="M299.829 194.043C301.247 194.043 302.396 192.904 302.396 191.499C302.396 190.093 301.247 188.954 299.829 188.954C298.412 188.954 297.263 190.093 297.263 191.499C297.263 192.904 298.412 194.043 299.829 194.043Z" fill="white"/>
<path d="M308.813 194.043C310.23 194.043 311.379 192.904 311.379 191.499C311.379 190.093 310.23 188.954 308.813 188.954C307.395 188.954 306.246 190.093 306.246 191.499C306.246 192.904 307.395 194.043 308.813 194.043Z" fill="white"/>
<path d="M446.129 210.512C454.811 210.512 461.85 217.375 461.85 225.848C461.85 230.002 460.15 233.774 457.403 236.535L460.836 239.887H452.463C450.525 240.721 448.382 241.191 446.123 241.191C437.441 241.191 430.402 234.328 430.402 225.855C430.402 217.382 437.448 210.512 446.129 210.512Z" fill="#F9C1DA"/>
<path d="M453.226 227.827C454.349 227.827 455.254 226.941 455.254 225.848C455.254 224.756 454.349 223.87 453.226 223.87C452.11 223.87 451.198 224.756 451.198 225.848C451.198 226.941 452.11 227.827 453.226 227.827Z" fill="white"/>
<path d="M446.129 227.827C447.252 227.827 448.157 226.941 448.157 225.848C448.157 224.756 447.252 223.87 446.129 223.87C445.013 223.87 444.102 224.756 444.102 225.848C444.102 226.941 445.013 227.827 446.129 227.827Z" fill="white"/>
<path d="M439.032 227.827C440.155 227.827 441.06 226.941 441.06 225.848C441.06 224.756 440.155 223.87 439.032 223.87C437.91 223.87 437.005 224.756 437.005 225.848C437.005 226.941 437.91 227.827 439.032 227.827Z" fill="white"/>
<path d="M388.059 112.939V100.853H398.325" stroke="#0061FE" stroke-miterlimit="10"/>
<path d="M477.571 101.807H489.763V111.984" stroke="#0061FE" stroke-miterlimit="10"/>
<path d="M390.625 217.261H406.025" stroke="#F9C1DA" stroke-miterlimit="10"/>
<path d="M390.625 220.124H406.025" stroke="#F9C1DA" stroke-miterlimit="10"/>
<path d="M390.625 222.986H406.025" stroke="#F9C1DA" stroke-miterlimit="10"/>
<path d="M352.754 120.553H330.392C328.615 120.553 327.171 119.121 327.171 117.359V100.712C327.171 98.9503 328.615 97.519 330.392 97.519H352.754C354.532 97.519 355.975 98.9503 355.975 100.712V117.359C355.975 119.121 354.532 120.553 352.754 120.553Z" fill="url(#paint51_radial_1_382)"/>
<path d="M350.187 118.008H327.825C326.048 118.008 324.604 116.577 324.604 114.815V98.1679C324.604 96.4059 326.048 94.9746 327.825 94.9746H350.187C351.965 94.9746 353.408 96.4059 353.408 98.1679V114.815C353.408 116.577 351.965 118.008 350.187 118.008Z" fill="#EECFF8"/>
<path d="M332.798 112.652L345.214 100.337" stroke="#0061FE" stroke-miterlimit="10"/>
<path d="M332.798 100.337L345.214 112.652" stroke="#0061FE" stroke-miterlimit="10"/>
<path d="M446.874 348.332H568.008C569.252 348.332 570.26 347.333 570.26 346.099C570.26 344.865 569.252 343.866 568.008 343.866H446.874C445.629 343.866 444.622 344.865 444.622 346.099C444.622 347.327 445.629 348.332 446.874 348.332Z" fill="#241921"/>
<path d="M446.874 348.332H528.231C529.476 348.332 530.483 347.333 530.483 346.099C530.483 344.865 529.476 343.866 528.231 343.866H446.874C445.629 343.866 444.622 344.865 444.622 346.099C444.622 347.327 445.629 348.332 446.874 348.332Z" fill="#0061FE"/>
<path d="M425.224 273.875H505.791C506.876 273.875 507.838 274.568 508.178 275.593L529.392 339.464C529.931 341.08 528.718 342.747 527.005 342.747H446.437C445.353 342.747 444.39 342.053 444.05 341.029L422.837 277.157C422.298 275.542 423.51 273.875 425.224 273.875Z" fill="#0061FE"/>
<path d="M540.044 347.212H546.416C546.935 347.212 547.352 346.792 547.352 346.283C547.352 345.768 546.929 345.354 546.416 345.354H540.044C539.524 345.354 539.107 345.774 539.107 346.283C539.107 346.799 539.53 347.212 540.044 347.212Z" stroke="#F2F6FF" stroke-miterlimit="10"/>
<path d="M450.243 347.397H456.614C457.134 347.397 457.551 346.977 457.551 346.468C457.551 345.953 457.128 345.539 456.614 345.539H450.243C449.723 345.539 449.306 345.959 449.306 346.468C449.306 346.983 449.729 347.397 450.243 347.397Z" stroke="#F2F6FF" stroke-miterlimit="10"/>
<path d="M534.981 347.397C535.501 347.397 535.918 346.983 535.918 346.468C535.918 345.953 535.501 345.539 534.981 345.539C534.461 345.539 534.044 345.953 534.044 346.468C534.044 346.983 534.467 347.397 534.981 347.397Z" stroke="#F2F6FF" stroke-miterlimit="10"/>
<path d="M423.748 274.352C424.159 274.053 424.666 273.875 425.224 273.875H505.792C506.876 273.875 507.838 274.568 508.179 275.593L529.142 338.714L423.748 274.352Z" fill="url(#paint52_radial_1_382)"/>
<path d="M479.547 311.006C480.786 309.211 479.907 306.476 477.577 304.895C475.255 303.315 472.361 303.488 471.122 305.282C469.884 307.076 470.763 309.811 473.092 311.392C475.415 312.972 478.309 312.8 479.547 311.006Z" fill="#0144B9"/>
<path d="M437.287 278.754L462.787 294.39" stroke="#BDD9FF" stroke-miterlimit="10"/>
<path d="M219.153 501.602H214.764L198.767 382.014H204.112L219.153 501.602Z" fill="#FB8F8F"/>
<path d="M214.192 382.65L224.716 500.966H219.717L204.875 382.65H214.192ZM214.783 382.014H204.15L219.153 501.602H225.415L214.783 382.014Z" fill="white"/>
<path d="M112.463 501.285H116.954L133.336 381.696H127.863L112.463 501.285Z" fill="#FB8F8F"/>
<path d="M127.099 382.332L111.898 500.648H106.752L117.525 382.332H127.099ZM127.824 381.696H116.935L106.046 501.285H112.463L127.824 381.696Z" fill="white"/>
<path d="M185.247 424.315L218.017 401.097L224.433 375.017L183.367 367.383L95.4584 378.197L69.1501 379.469L47.9751 390.283L33.5376 417.318V424.315H185.247Z" fill="white"/>
<path d="M103.377 315.298L88.6184 253.596L88.5414 253.271L88.4067 252.96C88.0923 252.241 80.3858 235.358 51.4467 235.358V239.175V235.358C48.0523 235.358 44.4589 235.594 40.7565 236.064C21.1793 238.533 11.5671 246.427 6.94709 252.61C1.80734 259.499 1.48009 265.771 1.46084 266.458L1.448 266.909L1.54426 267.355L31.7026 408.571L33.5442 417.203L38.6262 409.958C46.4481 398.807 76.4653 387.014 87.3736 383.413L89.2216 382.803L89.8183 380.964L96.8767 359.336L96.9729 359.044L97.0178 358.738L103.435 316.755L103.544 316.024L103.377 315.298Z" fill="white" stroke="#FA404B" stroke-miterlimit="10"/>
<path d="M196.694 543.904H192.305L176.308 424.315H181.653L196.694 543.904Z" fill="#FB8F8F"/>
<path d="M191.734 424.951L202.258 543.268H197.259L182.417 424.951H191.734ZM192.325 424.315H181.692L196.694 543.904H202.957L192.325 424.315Z" fill="white"/>
<path d="M50.8625 543.904H55.3542L71.7359 424.315H66.2625L50.8625 543.904Z" fill="#FB8F8F"/>
<path d="M111.821 328.898L205.331 333.186C215.123 333.637 222.829 341.633 222.829 351.353V351.798H228.604V351.353C228.604 341.633 220.898 333.637 211.106 333.186L117.596 328.898" stroke="#FA404B" stroke-miterlimit="10"/>
<path d="M111.821 328.898L205.331 333.186C215.123 333.637 222.829 341.633 222.829 351.353V351.798H228.604V351.353C228.604 341.633 220.898 333.637 211.106 333.186L117.596 328.898" fill="#FA404B"/>
<path d="M33.5376 417.318V424.315H185.247" stroke="#FA404B" stroke-miterlimit="10"/>
<path d="M35.0586 415.041H192.992" stroke="#FA404B" stroke-miterlimit="10"/>
<path d="M35.4625 407.776L5.3042 266.56C5.3042 266.56 5.94587 244.296 41.2375 239.843C76.5292 235.39 84.8708 254.474 84.8708 254.474L99.6292 316.176L93.2125 358.16L86.1542 379.787C86.1542 379.787 45.7292 393.146 35.4625 407.776Z" fill="#FB8F8F"/>
<path d="M137.513 497.118C137.513 497.118 126.99 508.536 119.682 517.435C115.543 522.473 113.566 528.981 114.465 535.412C114.92 538.681 116.056 541.429 118.552 541.678C124.969 542.314 176.302 541.678 176.302 541.678C176.302 541.678 176.302 536.589 162.827 533.408C149.352 530.228 140.369 527.683 140.369 527.683L158.336 505.419L137.513 497.118Z" fill="#FFDE99"/>
<path d="M137.513 497.118C137.513 497.118 126.99 508.536 119.682 517.435C115.543 522.473 113.566 528.981 114.465 535.412C114.92 538.681 116.056 541.429 118.552 541.678C124.969 542.314 176.302 541.678 176.302 541.678C176.302 541.678 176.302 536.589 162.827 533.408C149.352 530.228 140.369 527.683 140.369 527.683L158.336 505.419L137.513 497.118Z" fill="url(#paint53_radial_1_382)"/>
<path d="M240.796 507.646C240.796 507.646 245.929 535.634 252.346 541.359C258.763 547.084 315.229 545.176 315.229 545.176C315.229 545.176 319.721 542.632 301.754 538.815C283.788 534.998 271.917 532.772 269.992 529.591C268.067 526.411 263.254 505.101 263.254 505.101L240.796 507.646Z" fill="#FFDE99"/>
<path d="M240.796 507.646C240.796 507.646 245.929 535.634 252.346 541.359C258.763 547.084 315.229 545.176 315.229 545.176C315.229 545.176 319.721 542.632 301.754 538.815C283.788 534.998 271.917 532.772 269.992 529.591C268.067 526.411 263.254 505.101 263.254 505.101L240.796 507.646Z" fill="url(#paint54_radial_1_382)"/>
<path d="M132.522 495.044L141.171 482.519H143.084C145.214 479.078 181.866 420.212 208.527 401.154C215.31 396.307 218.325 391.574 217.498 387.077C215.566 376.613 193.454 370.608 193.23 370.545L192.768 370.424L210.516 347.613L210.722 347.67C211.184 347.797 257.018 360.329 273.451 369.291C276.435 370.92 278.539 373.782 279.22 377.147C279.893 380.5 279.053 383.96 276.916 386.638C260.958 406.58 207.077 472.85 183.868 488.187L168.115 501.933L170.63 504.427L165.824 511.227L132.522 495.044Z" fill="white"/>
<path d="M210.638 347.982C210.638 347.982 256.704 360.526 273.297 369.572C276.217 371.162 278.251 373.974 278.905 377.211C279.56 380.468 278.745 383.84 276.659 386.441C262.613 403.992 207.128 472.431 183.681 487.92L167.64 501.915L170.206 504.459L165.715 510.82L132.99 494.917L141.331 482.831H143.256C143.256 482.831 181.115 421.128 208.706 401.409C236.298 381.69 193.306 370.24 193.306 370.24L210.638 347.982ZM210.394 347.257L210.132 347.594L192.807 369.858L192.216 370.615L193.146 370.863C193.364 370.92 215.284 376.881 217.183 387.141C217.985 391.498 215.014 396.129 208.341 400.9C181.962 419.754 145.849 477.462 142.903 482.201H141.338H140.998L140.805 482.481L132.464 494.567L132.047 495.172L132.714 495.496L165.439 511.399L165.934 511.641L166.247 511.195L170.739 504.834L171.047 504.395L170.669 504.02L168.584 501.953L184.079 488.435C207.346 473.029 261.201 406.791 277.166 386.842C279.367 384.094 280.233 380.538 279.534 377.09C278.834 373.63 276.678 370.691 273.605 369.018C257.133 360.043 211.267 347.499 210.805 347.371L210.394 347.257Z" fill="#0061FE"/>
<path d="M220.262 438.946V392.185L216.092 394.214C214.635 396.472 212.261 398.871 208.712 401.415C181.121 421.134 143.263 482.837 143.263 482.837H141.338L132.996 494.923L165.721 510.826L170.213 504.465L167.646 501.921L154.813 490.471L165.721 472.023C178.554 447.215 220.262 438.946 220.262 438.946Z" fill="url(#paint55_radial_1_382)"/>
<path d="M220.262 438.946V392.185L216.092 394.214C214.635 396.472 212.261 398.871 208.712 401.415C181.121 421.134 143.263 482.837 143.263 482.837H141.338L132.996 494.923L165.721 510.826L170.213 504.465L167.646 501.921L154.813 490.471L165.721 472.023C178.554 447.215 220.262 438.946 220.262 438.946Z" fill="url(#paint56_radial_1_382)"/>
<path d="M228.816 499.694H233.879C203.008 433.596 203.105 395.035 203.239 390.41C182.167 397.286 148.826 401.892 120.06 401.892C120.054 401.892 120.054 401.892 120.054 401.892C96.7677 401.892 78.9678 398.883 69.946 393.413C46.846 379.418 63.8887 349.877 64.0619 349.578L64.1518 349.426L171.888 347.708C174.743 348.153 240.463 358.655 241.759 370.843C242.997 382.497 266.065 486.819 267.368 492.69H269.921L273.284 505.362L232.23 511.176L228.816 499.694Z" fill="white"/>
<path d="M171.894 348.033C171.894 348.033 240.154 358.796 241.438 370.882C242.721 382.968 267.104 493.015 267.104 493.015H269.671L272.879 505.101L232.454 510.826L229.246 500.012H234.379C201.013 428.768 203.579 389.965 203.579 389.965C182.488 396.937 149.038 401.574 120.054 401.574C98.7696 401.574 79.8982 399.068 70.1128 393.146C47.0128 379.151 64.3378 349.744 64.3378 349.744L171.894 348.033ZM171.939 347.396H171.881L64.3313 349.108L63.972 349.114L63.7923 349.426C63.6127 349.731 59.3841 356.983 57.9339 366.098C56.0025 378.28 60.0964 387.821 69.7791 393.686C78.8523 399.182 96.7034 402.21 120.054 402.21C148.666 402.21 181.788 397.662 202.912 390.856C202.854 393.718 202.944 403.126 205.845 418.393C209.046 435.262 216.419 462.965 233.385 499.382H229.259H228.399L228.643 500.197L231.851 511.011L232.005 511.539L232.557 511.462L272.982 505.737L273.694 505.635L273.508 504.942L270.3 492.856L270.172 492.379H269.678H267.624C265.834 484.294 243.299 382.313 242.079 370.818C241.759 367.771 237.896 364.762 230.279 361.626C224.427 359.215 216.374 356.754 206.339 354.311C189.283 350.151 172.163 347.435 171.997 347.409L171.939 347.396Z" fill="#0061FE"/>
<path d="M192.992 382.014C192.992 382.014 183.367 380.741 132.675 385.83C111.937 387.91 99.5717 384.138 92.2054 378.947C83.8509 373.07 86.963 360.061 97.0564 358.35L139.849 351.086L121.042 348.84L64.3378 349.744C64.3378 349.744 47.0128 379.151 70.1128 393.145C91.1595 405.893 154.274 402.802 192.992 393.012V382.014Z" fill="url(#paint57_radial_1_382)"/>
<path d="M250.1 333.669L252.211 333.249C254.996 332.696 257.511 331.22 259.334 329.064C269.594 316.908 305.104 274.854 318.758 258.608C320.844 255.714 323.795 253.538 327.19 252.387L350.2 244.614C350.2 244.614 355.333 239.525 358.542 234.436V230.619L362.392 224.894V222.35L352.125 228.711L364.317 217.897C364.317 217.897 366.242 215.353 359.183 217.897C352.125 220.441 345.067 226.803 341.217 228.075C337.367 229.347 328.383 230.619 328.383 230.619C328.383 230.619 333.517 226.166 334.158 222.986C334.8 219.805 333.517 218.533 333.517 218.533C333.517 218.533 325.175 226.803 320.042 228.075C314.908 229.347 307.208 236.344 307.208 236.344L305.925 249.703C305.925 249.703 295.017 262.425 282.825 272.603C270.633 282.78 258.403 285.535 254.572 296.558C250.742 307.589 250.1 333.669 250.1 333.669Z" fill="#FFDE99"/>
<path d="M250.1 333.669L252.211 333.249C254.996 332.696 257.511 331.22 259.334 329.064C269.594 316.908 305.104 274.854 318.758 258.608C320.844 255.714 323.795 253.538 327.19 252.387L350.2 244.614C350.2 244.614 355.333 239.525 358.542 234.436V230.619L362.392 224.894V222.35L352.125 228.711L364.317 217.897C364.317 217.897 366.242 215.353 359.183 217.897C352.125 220.441 345.067 226.803 341.217 228.075C337.367 229.347 328.383 230.619 328.383 230.619C328.383 230.619 333.517 226.166 334.158 222.986C334.8 219.805 333.517 218.533 333.517 218.533C333.517 218.533 325.175 226.803 320.042 228.075C314.908 229.347 307.208 236.344 307.208 236.344L305.925 249.703C305.925 249.703 295.017 262.425 282.825 272.603C270.633 282.78 258.403 285.535 254.572 296.558C250.742 307.589 250.1 333.669 250.1 333.669Z" fill="url(#paint58_radial_1_382)"/>
<path d="M344.81 246.433C345.708 246.522 352.767 243.978 352.767 243.978L355.333 233.8C355.333 233.8 352.125 233.8 348.275 240.161C348.275 240.161 338.65 241.433 336.083 243.341C333.517 245.25 332.509 250.593 332.509 250.593L344.81 246.433Z" fill="url(#paint59_radial_1_382)"/>
<path d="M216.092 167.644L217.709 172.447" stroke="#241921" stroke-miterlimit="10"/>
<path d="M185.292 198.177C189.783 187.363 192.35 182.911 192.35 182.911L190.425 169.552L181.403 156.811L164.117 161.283V162.555C164.117 162.555 167.325 179.094 162.192 186.091C157.058 193.088 150.642 201.358 144.867 200.722C139.092 200.086 143.583 200.722 143.583 200.722L158.342 225.53L180.158 222.986L189.142 215.352C189.142 215.352 180.8 208.991 185.292 198.177Z" fill="#FFDE99"/>
<path d="M185.292 198.177C189.783 187.363 192.35 182.911 192.35 182.911L190.425 169.552L181.403 156.811L164.117 161.283V162.555C164.117 162.555 167.325 179.094 162.192 186.091C157.058 193.088 150.642 201.358 144.867 200.722C139.092 200.086 143.583 200.722 143.583 200.722L158.342 225.53L180.158 222.986L189.142 215.352C189.142 215.352 180.8 208.991 185.292 198.177Z" fill="url(#paint60_radial_1_382)"/>
<path d="M221.225 145.38C221.225 145.38 215.45 190.544 204.542 196.269C204.542 196.269 173.1 191.18 179.517 162.555C185.934 133.93 221.225 145.38 221.225 145.38Z" fill="#FFDE99"/>
<path d="M217.818 164.909C207.391 161.296 194.275 162.555 194.275 162.555L192.35 184.705L208.77 191.855C212.697 185.633 215.726 174.641 217.818 164.909Z" fill="url(#paint61_radial_1_382)"/>
<path d="M176.309 163.828C176.309 163.828 170.534 183.547 175.025 187.364C175.025 187.364 179.517 191.817 182.725 191.817C182.725 191.817 189.142 196.905 194.917 196.269C194.917 196.269 199.409 199.45 202.617 198.178C202.617 198.178 206.467 198.178 208.392 194.997C210.317 191.817 214.391 179.323 214.391 179.323C214.391 179.323 193.634 175.278 192.35 170.825C191.067 166.372 191.709 160.011 191.709 160.011L184.4 151.869L193.634 147.289C193.634 147.289 198.125 153.014 205.825 151.742C205.825 151.742 212.884 153.014 216.734 148.561C216.734 148.561 222.509 151.105 228.284 144.744C234.059 138.383 233.417 133.93 233.417 133.93C233.417 133.93 242.4 133.93 241.759 128.206C241.117 122.481 235.342 114.847 226.359 116.119C217.375 117.392 207.109 119.3 207.109 119.3C205.825 118.664 200.05 116.756 200.05 116.756C200.05 116.756 199.409 114.847 197.484 114.847C195.559 114.847 187.217 116.756 183.367 114.847C179.517 112.939 170.534 112.303 167.967 114.847C165.4 117.392 162.834 127.569 162.834 127.569C162.834 127.569 151.284 132.658 153.85 141.564C156.417 150.469 157.7 148.561 157.7 154.286C157.7 160.011 153.85 162.555 157.7 164.464C161.55 166.372 167.325 167.644 167.325 167.644L176.309 163.828Z" fill="#FB8F8F"/>
<path d="M176.309 163.828C176.309 163.828 170.534 183.547 175.025 187.364C175.025 187.364 179.517 191.817 182.725 191.817C182.725 191.817 189.142 196.905 194.917 196.269C194.917 196.269 199.409 199.45 202.617 198.178C202.617 198.178 206.467 198.178 208.392 194.997C210.317 191.817 214.391 179.323 214.391 179.323C214.391 179.323 193.634 175.278 192.35 170.825C191.067 166.372 191.709 160.011 191.709 160.011L184.4 151.869L193.634 147.289C193.634 147.289 198.125 153.014 205.825 151.742C205.825 151.742 212.884 153.014 216.734 148.561C216.734 148.561 222.509 151.105 228.284 144.744C234.059 138.383 233.417 133.93 233.417 133.93C233.417 133.93 242.4 133.93 241.759 128.206C241.117 122.481 235.342 114.847 226.359 116.119C217.375 117.392 207.109 119.3 207.109 119.3C205.825 118.664 200.05 116.756 200.05 116.756C200.05 116.756 199.409 114.847 197.484 114.847C195.559 114.847 187.217 116.756 183.367 114.847C179.517 112.939 170.534 112.303 167.967 114.847C165.4 117.392 162.834 127.569 162.834 127.569C162.834 127.569 151.284 132.658 153.85 141.564C156.417 150.469 157.7 148.561 157.7 154.286C157.7 160.011 153.85 162.555 157.7 164.464C161.55 166.372 167.325 167.644 167.325 167.644L176.309 163.828Z" fill="url(#paint62_radial_1_382)"/>
<path d="M175.988 174.323C185.201 174.323 192.671 166.918 192.671 157.785C192.671 148.651 185.201 141.246 175.988 141.246C166.774 141.246 159.304 148.651 159.304 157.785C159.304 166.918 166.774 174.323 175.988 174.323Z" fill="#241921"/>
<path d="M178.233 174.642C187.447 174.642 194.917 167.237 194.917 158.103C194.917 148.969 187.447 141.564 178.233 141.564C169.02 141.564 161.55 148.969 161.55 158.103C161.55 167.237 169.02 174.642 178.233 174.642Z" stroke="#241921" stroke-miterlimit="10"/>
<path d="M182.071 146.315L177.605 143.809L181.654 136.729C186.223 128.74 192.857 122.13 200.891 117.57C201.417 117.271 202.034 117.182 202.63 117.309L207.263 118.295C207.898 118.428 208.04 119.268 207.481 119.599L204.176 121.577C196.617 125.693 190.368 131.799 186.12 139.242L182.071 146.315Z" fill="#241921"/>
<path d="M217.709 172.447L218.132 173.713C219.287 177.154 219.018 180.913 217.382 184.164L216.092 186.728" stroke="#241921" stroke-miterlimit="10"/>
<path d="M215.45 188.636C216.868 188.636 218.017 187.496 218.017 186.091C218.017 184.686 216.868 183.547 215.45 183.547C214.033 183.547 212.884 184.686 212.884 186.091C212.884 187.496 214.033 188.636 215.45 188.636Z" fill="#241921"/>
<path d="M230.529 463.754C222.188 432.584 219.621 382.332 219.621 382.332L198.446 389.329L198.132 391.638C200.025 391.097 201.847 390.537 203.579 389.965C203.579 389.965 201.013 428.768 234.379 500.012L263.254 494.923C263.254 494.923 238.871 494.923 230.529 463.754Z" fill="url(#paint63_radial_1_382)"/>
<path d="M144.867 200.722C144.867 200.722 129.467 195.633 112.142 200.722C112.142 200.722 66.5835 277.692 58.2419 278.964C49.9002 280.236 58.2419 287.233 58.2419 287.233C58.2419 287.233 52.4669 287.233 54.3919 290.414C54.3919 290.414 81.9835 283.417 90.3252 284.689C98.6669 285.961 94.1752 292.958 94.1752 292.958L78.1335 313.95C78.1335 313.95 60.1669 337.486 59.5252 347.028C58.8835 356.569 187.217 348.936 187.217 348.936L192.992 340.031C192.992 340.031 194.275 323.492 200.05 306.953C205.825 290.414 207.75 282.781 207.75 282.781C207.75 282.781 223.15 313.95 233.417 322.856C243.684 331.761 243.684 327.944 243.684 327.944C243.684 327.944 244.967 334.942 250.1 334.306C250.1 334.306 250.742 298.683 257.8 290.414C257.8 290.414 257.159 280.872 252.025 282.781L248.175 284.689C248.175 284.689 249.459 280.872 245.609 280.236C245.609 280.236 223.4 241.179 218.659 231.256C212.884 219.169 189.142 215.353 189.142 215.353C189.142 215.353 163.475 229.347 144.867 200.722Z" fill="#241921"/>
<path d="M189.604 400.779C186.928 400.779 184.426 399.59 182.739 397.522L146.824 353.484C145.887 352.333 145.586 350.8 146.028 349.381C146.471 347.975 147.575 346.881 148.993 346.461L193.852 333.179C194.674 332.938 195.521 332.817 196.368 332.817C199.044 332.817 201.546 334.006 203.234 336.074L239.161 380.105C240.097 381.257 240.398 382.79 239.949 384.208C239.506 385.614 238.403 386.708 236.985 387.128L192.12 400.41C191.305 400.658 190.457 400.779 189.604 400.779Z" fill="white"/>
<path d="M196.374 333.129C198.953 333.129 201.366 334.274 202.989 336.271L238.903 380.309C239.776 381.378 240.052 382.803 239.641 384.119C239.224 385.442 238.223 386.435 236.888 386.829L192.023 400.111C191.234 400.347 190.419 400.461 189.598 400.461C187.018 400.461 184.612 399.316 182.982 397.319L147.068 353.281C146.195 352.212 145.919 350.787 146.33 349.47C146.747 348.147 147.748 347.155 149.083 346.761L193.942 333.479C194.737 333.25 195.559 333.129 196.374 333.129ZM196.374 332.493C195.501 332.493 194.628 332.614 193.762 332.874L148.903 346.156C145.656 347.117 144.437 351.061 146.574 353.682L182.488 397.719C184.259 399.889 186.89 401.097 189.604 401.097C190.47 401.097 191.349 400.976 192.209 400.716L237.074 387.434C240.321 386.473 241.54 382.529 239.404 379.908L203.49 335.87C201.725 333.701 199.094 332.493 196.374 332.493Z" fill="#0061FE"/>
<path d="M194.102 330.33L148.582 343.72C145.29 344.687 144.052 348.669 146.221 351.308L182.661 395.69C185.035 398.578 188.924 399.767 192.53 398.711L238.05 385.321C241.341 384.354 242.58 380.372 240.411 377.733L203.971 333.351C201.597 330.463 197.702 329.274 194.102 330.33Z" fill="#0061FE"/>
<path d="M191.497 356.805L189.886 362.059L193.954 367.549L199.62 367.784L201.231 362.53L197.163 357.04L191.497 356.805Z" fill="url(#paint64_radial_1_382)"/>
<path d="M203.701 395.423L238.043 385.321C241.335 384.354 242.574 380.372 240.405 377.732L209.303 339.852L203.701 395.423Z" fill="url(#paint65_radial_1_382)"/>
<path d="M54.071 290.732L49.7654 304.014C48.8928 306.717 49.8938 309.663 52.2423 311.285C55.8869 313.797 61.1935 317.41 64.3377 319.363C67.5075 321.329 102.196 331.449 129.146 334.63C156.096 337.811 165.721 340.355 165.721 340.355C165.721 340.355 176.565 354.381 182.09 359.184C183.258 360.195 184.965 360.291 186.254 359.438C186.254 359.438 189.463 362.619 195.238 362.619L195.879 361.347C196.643 360.59 196.835 359.426 196.354 358.465L188.179 342.257C188.179 342.257 198.446 359.432 203.579 357.524C203.579 357.524 193.313 339.076 190.746 334.624C188.179 330.171 186.254 328.899 186.254 328.899C186.254 328.899 174.704 330.171 170.854 328.262C167.004 326.354 102.395 300.522 89.4653 299.129C89.4653 299.129 95.5483 293.9 95.343 288.499C95.1377 283.099 82.9653 284.873 75.5797 285.891C68.1877 286.915 54.071 290.732 54.071 290.732Z" fill="#FFDE99"/>
<path d="M54.071 290.732L49.7654 304.014C48.8928 306.717 49.8938 309.663 52.2423 311.285C55.8869 313.797 61.1935 317.41 64.3377 319.363C67.5075 321.329 102.196 331.449 129.146 334.63C156.096 337.811 165.721 340.355 165.721 340.355C165.721 340.355 176.565 354.381 182.09 359.184C183.258 360.195 184.965 360.291 186.254 359.438C186.254 359.438 189.463 362.619 195.238 362.619L195.879 361.347C196.643 360.59 196.835 359.426 196.354 358.465L188.179 342.257C188.179 342.257 198.446 359.432 203.579 357.524C203.579 357.524 193.313 339.076 190.746 334.624C188.179 330.171 186.254 328.899 186.254 328.899C186.254 328.899 174.704 330.171 170.854 328.262C167.004 326.354 102.395 300.522 89.4653 299.129C89.4653 299.129 95.5483 293.9 95.343 288.499C95.1377 283.099 82.9653 284.873 75.5797 285.891C68.1877 286.915 54.071 290.732 54.071 290.732Z" fill="url(#paint66_radial_1_382)"/>
<path d="M203.579 357.523C203.579 357.523 193.313 339.076 190.746 334.623C188.179 330.171 186.254 328.898 186.254 328.898C186.254 328.898 186.203 328.905 186.113 328.911C186.049 329.013 185.985 329.102 185.933 329.216C182.725 335.578 176.308 341.939 176.308 341.939L185.876 359.642C186.004 359.578 186.132 359.514 186.254 359.432C186.254 359.432 189.463 362.612 195.238 362.612L195.879 361.34C196.643 360.583 196.835 359.419 196.354 358.458L188.179 342.257C188.179 342.257 198.446 359.432 203.579 357.523Z" fill="url(#paint67_radial_1_382)"/>
<path d="M238.351 499.312L263.254 494.923" stroke="#0061FE" stroke-miterlimit="10"/>
<path d="M149.038 486.018L165.509 500.012" stroke="#0061FE" stroke-miterlimit="10"/>
<path d="M257.479 402.687C257.479 402.687 274.163 384.876 274.163 379.151C274.163 373.426 270.313 372.154 270.313 372.154" stroke="#0061FE" stroke-miterlimit="10"/>
<path d="M79.0959 390.601C79.0959 390.601 97.0626 399.507 126.579 396.326" stroke="#0061FE" stroke-miterlimit="10"/>
<path d="M247.854 287.551C247.854 287.551 242.079 301.546 242.721 318.721" stroke="#DEF4FF" stroke-miterlimit="10"/>
<path d="M243.363 281.19C243.363 281.19 239.513 288.823 238.229 302.182" stroke="#DEF4FF" stroke-miterlimit="10"/>
<path d="M59.8459 285.007C59.8459 285.007 86.1543 275.465 94.4959 281.19C102.838 286.915 102.838 279.282 102.838 279.282C102.838 279.282 102.196 276.737 95.1376 274.829" stroke="#DEF4FF" stroke-miterlimit="10"/>
<path d="M95.324 290.045C95.324 290.045 105.405 290.096 106.046 283.098C106.688 276.101 106.688 276.737 113.105 268.468C119.521 260.199 125.296 243.66 125.296 243.66" stroke="#DEF4FF" stroke-miterlimit="10"/>
<path d="M16.2126 334.941L109.723 339.229C119.515 339.68 127.221 347.676 127.221 357.396V357.841H132.996V357.396C132.996 347.676 125.29 339.68 115.498 339.229L21.9876 334.941" stroke="#FA404B" stroke-miterlimit="10"/>
<path d="M16.2126 334.941L109.723 339.229C119.515 339.68 127.221 347.676 127.221 357.396V357.841H132.996V357.396C132.996 347.676 125.29 339.68 115.498 339.229L21.9876 334.941" fill="#FA404B"/>
<path d="M157.379 414.773V424.315" stroke="#FA404B" stroke-miterlimit="10"/>
<path d="M65.4989 424.951L50.2978 543.268H45.1516L55.9252 424.951H65.4989ZM66.224 424.315H55.3349L44.4458 543.904H50.8625L66.224 424.315Z" fill="white"/>
<defs>
<linearGradient id="paint0_linear_1_382" x1="1056.19" y1="136.58" x2="351.55" y2="136.58" gradientUnits="userSpaceOnUse">
<stop offset="0.1096" stop-color="#EECFF8"/>
<stop offset="0.4487" stop-color="#EFD1F8" stop-opacity="0.6009"/>
<stop offset="0.6432" stop-color="#F2DAFA" stop-opacity="0.3721"/>
<stop offset="0.801" stop-color="#F7E8FC" stop-opacity="0.1863"/>
<stop offset="0.9385" stop-color="#FEFBFE" stop-opacity="0.0245"/>
<stop offset="0.9593" stop-color="white" stop-opacity="0"/>
</linearGradient>
<linearGradient id="paint1_linear_1_382" x1="1056.19" y1="181.744" x2="351.55" y2="181.744" gradientUnits="userSpaceOnUse">
<stop offset="0.1096" stop-color="#EECFF8"/>
<stop offset="0.4487" stop-color="#EFD1F8" stop-opacity="0.6009"/>
<stop offset="0.6432" stop-color="#F2DAFA" stop-opacity="0.3721"/>
<stop offset="0.801" stop-color="#F7E8FC" stop-opacity="0.1863"/>
<stop offset="0.9385" stop-color="#FEFBFE" stop-opacity="0.0245"/>
<stop offset="0.9593" stop-color="white" stop-opacity="0"/>
</linearGradient>
<linearGradient id="paint2_linear_1_382" x1="1056.19" y1="121.526" x2="351.55" y2="121.526" gradientUnits="userSpaceOnUse">
<stop offset="0.1096" stop-color="#EECFF8"/>
<stop offset="0.4487" stop-color="#EFD1F8" stop-opacity="0.6009"/>
<stop offset="0.6432" stop-color="#F2DAFA" stop-opacity="0.3721"/>
<stop offset="0.801" stop-color="#F7E8FC" stop-opacity="0.1863"/>
<stop offset="0.9385" stop-color="#FEFBFE" stop-opacity="0.0245"/>
<stop offset="0.9593" stop-color="white" stop-opacity="0"/>
</linearGradient>
<linearGradient id="paint3_linear_1_382" x1="1056.19" y1="106.472" x2="351.55" y2="106.472" gradientUnits="userSpaceOnUse">
<stop offset="0.1096" stop-color="#EECFF8"/>
<stop offset="0.4487" stop-color="#EFD1F8" stop-opacity="0.6009"/>
<stop offset="0.6432" stop-color="#F2DAFA" stop-opacity="0.3721"/>
<stop offset="0.801" stop-color="#F7E8FC" stop-opacity="0.1863"/>
<stop offset="0.9385" stop-color="#FEFBFE" stop-opacity="0.0245"/>
<stop offset="0.9593" stop-color="white" stop-opacity="0"/>
</linearGradient>
<linearGradient id="paint4_linear_1_382" x1="1056.19" y1="151.635" x2="351.55" y2="151.635" gradientUnits="userSpaceOnUse">
<stop offset="0.1096" stop-color="#EECFF8"/>
<stop offset="0.4487" stop-color="#EFD1F8" stop-opacity="0.6009"/>
<stop offset="0.6432" stop-color="#F2DAFA" stop-opacity="0.3721"/>
<stop offset="0.801" stop-color="#F7E8FC" stop-opacity="0.1863"/>
<stop offset="0.9385" stop-color="#FEFBFE" stop-opacity="0.0245"/>
<stop offset="0.9593" stop-color="white" stop-opacity="0"/>
</linearGradient>
<linearGradient id="paint5_linear_1_382" x1="1056.19" y1="166.69" x2="351.55" y2="166.69" gradientUnits="userSpaceOnUse">
<stop offset="0.1096" stop-color="#EECFF8"/>
<stop offset="0.4487" stop-color="#EFD1F8" stop-opacity="0.6009"/>
<stop offset="0.6432" stop-color="#F2DAFA" stop-opacity="0.3721"/>
<stop offset="0.801" stop-color="#F7E8FC" stop-opacity="0.1863"/>
<stop offset="0.9385" stop-color="#FEFBFE" stop-opacity="0.0245"/>
<stop offset="0.9593" stop-color="white" stop-opacity="0"/>
</linearGradient>
<linearGradient id="paint6_linear_1_382" x1="1056.19" y1="91.4168" x2="351.55" y2="91.4168" gradientUnits="userSpaceOnUse">
<stop offset="0.1096" stop-color="#EECFF8"/>
<stop offset="0.4487" stop-color="#EFD1F8" stop-opacity="0.6009"/>
<stop offset="0.6432" stop-color="#F2DAFA" stop-opacity="0.3721"/>
<stop offset="0.801" stop-color="#F7E8FC" stop-opacity="0.1863"/>
<stop offset="0.9385" stop-color="#FEFBFE" stop-opacity="0.0245"/>
<stop offset="0.9593" stop-color="white" stop-opacity="0"/>
</linearGradient>
<linearGradient id="paint7_linear_1_382" x1="1056.19" y1="31.1986" x2="351.55" y2="31.1986" gradientUnits="userSpaceOnUse">
<stop offset="0.1096" stop-color="#EECFF8"/>
<stop offset="0.4487" stop-color="#EFD1F8" stop-opacity="0.6009"/>
<stop offset="0.6432" stop-color="#F2DAFA" stop-opacity="0.3721"/>
<stop offset="0.801" stop-color="#F7E8FC" stop-opacity="0.1863"/>
<stop offset="0.9385" stop-color="#FEFBFE" stop-opacity="0.0245"/>
<stop offset="0.9593" stop-color="white" stop-opacity="0"/>
</linearGradient>
<linearGradient id="paint8_linear_1_382" x1="1056.19" y1="16.1437" x2="351.55" y2="16.1437" gradientUnits="userSpaceOnUse">
<stop offset="0.1096" stop-color="#EECFF8"/>
<stop offset="0.4487" stop-color="#EFD1F8" stop-opacity="0.6009"/>
<stop offset="0.6432" stop-color="#F2DAFA" stop-opacity="0.3721"/>
<stop offset="0.801" stop-color="#F7E8FC" stop-opacity="0.1863"/>
<stop offset="0.9385" stop-color="#FEFBFE" stop-opacity="0.0245"/>
<stop offset="0.9593" stop-color="white" stop-opacity="0"/>
</linearGradient>
<linearGradient id="paint9_linear_1_382" x1="1056.19" y1="1.08894" x2="351.55" y2="1.08894" gradientUnits="userSpaceOnUse">
<stop offset="0.1096" stop-color="#EECFF8"/>
<stop offset="0.4487" stop-color="#EFD1F8" stop-opacity="0.6009"/>
<stop offset="0.6432" stop-color="#F2DAFA" stop-opacity="0.3721"/>
<stop offset="0.801" stop-color="#F7E8FC" stop-opacity="0.1863"/>
<stop offset="0.9385" stop-color="#FEFBFE" stop-opacity="0.0245"/>
<stop offset="0.9593" stop-color="white" stop-opacity="0"/>
</linearGradient>
<linearGradient id="paint10_linear_1_382" x1="1056.19" y1="46.2527" x2="351.55" y2="46.2527" gradientUnits="userSpaceOnUse">
<stop offset="0.1096" stop-color="#EECFF8"/>
<stop offset="0.4487" stop-color="#EFD1F8" stop-opacity="0.6009"/>
<stop offset="0.6432" stop-color="#F2DAFA" stop-opacity="0.3721"/>
<stop offset="0.801" stop-color="#F7E8FC" stop-opacity="0.1863"/>
<stop offset="0.9385" stop-color="#FEFBFE" stop-opacity="0.0245"/>
<stop offset="0.9593" stop-color="white" stop-opacity="0"/>
</linearGradient>
<linearGradient id="paint11_linear_1_382" x1="1056.19" y1="196.799" x2="351.55" y2="196.799" gradientUnits="userSpaceOnUse">
<stop offset="0.1096" stop-color="#EECFF8"/>
<stop offset="0.4487" stop-color="#EFD1F8" stop-opacity="0.6009"/>
<stop offset="0.6432" stop-color="#F2DAFA" stop-opacity="0.3721"/>
<stop offset="0.801" stop-color="#F7E8FC" stop-opacity="0.1863"/>
<stop offset="0.9385" stop-color="#FEFBFE" stop-opacity="0.0245"/>
<stop offset="0.9593" stop-color="white" stop-opacity="0"/>
</linearGradient>
<linearGradient id="paint12_linear_1_382" x1="1056.19" y1="76.3622" x2="351.55" y2="76.3622" gradientUnits="userSpaceOnUse">
<stop offset="0.1096" stop-color="#EECFF8"/>
<stop offset="0.4487" stop-color="#EFD1F8" stop-opacity="0.6009"/>
<stop offset="0.6432" stop-color="#F2DAFA" stop-opacity="0.3721"/>
<stop offset="0.801" stop-color="#F7E8FC" stop-opacity="0.1863"/>
<stop offset="0.9385" stop-color="#FEFBFE" stop-opacity="0.0245"/>
<stop offset="0.9593" stop-color="white" stop-opacity="0"/>
</linearGradient>
<linearGradient id="paint13_linear_1_382" x1="1056.19" y1="61.3075" x2="351.55" y2="61.3075" gradientUnits="userSpaceOnUse">
<stop offset="0.1096" stop-color="#EECFF8"/>
<stop offset="0.4487" stop-color="#EFD1F8" stop-opacity="0.6009"/>
<stop offset="0.6432" stop-color="#F2DAFA" stop-opacity="0.3721"/>
<stop offset="0.801" stop-color="#F7E8FC" stop-opacity="0.1863"/>
<stop offset="0.9385" stop-color="#FEFBFE" stop-opacity="0.0245"/>
<stop offset="0.9593" stop-color="white" stop-opacity="0"/>
</linearGradient>
<linearGradient id="paint14_linear_1_382" x1="1056.19" y1="347.346" x2="351.55" y2="347.346" gradientUnits="userSpaceOnUse">
<stop offset="0.1096" stop-color="#EECFF8"/>
<stop offset="0.4487" stop-color="#EFD1F8" stop-opacity="0.6009"/>
<stop offset="0.6432" stop-color="#F2DAFA" stop-opacity="0.3721"/>
<stop offset="0.801" stop-color="#F7E8FC" stop-opacity="0.1863"/>
<stop offset="0.9385" stop-color="#FEFBFE" stop-opacity="0.0245"/>
<stop offset="0.9593" stop-color="white" stop-opacity="0"/>
</linearGradient>
<linearGradient id="paint15_linear_1_382" x1="1056.19" y1="332.291" x2="351.55" y2="332.291" gradientUnits="userSpaceOnUse">
<stop offset="0.1096" stop-color="#EECFF8"/>
<stop offset="0.4487" stop-color="#EFD1F8" stop-opacity="0.6009"/>
<stop offset="0.6432" stop-color="#F2DAFA" stop-opacity="0.3721"/>
<stop offset="0.801" stop-color="#F7E8FC" stop-opacity="0.1863"/>
<stop offset="0.9385" stop-color="#FEFBFE" stop-opacity="0.0245"/>
<stop offset="0.9593" stop-color="white" stop-opacity="0"/>
</linearGradient>
<linearGradient id="paint16_linear_1_382" x1="1056.19" y1="362.4" x2="351.55" y2="362.4" gradientUnits="userSpaceOnUse">
<stop offset="0.1096" stop-color="#EECFF8"/>
<stop offset="0.4487" stop-color="#EFD1F8" stop-opacity="0.6009"/>
<stop offset="0.6432" stop-color="#F2DAFA" stop-opacity="0.3721"/>
<stop offset="0.801" stop-color="#F7E8FC" stop-opacity="0.1863"/>
<stop offset="0.9385" stop-color="#FEFBFE" stop-opacity="0.0245"/>
<stop offset="0.9593" stop-color="white" stop-opacity="0"/>
</linearGradient>
<linearGradient id="paint17_linear_1_382" x1="1056.19" y1="317.236" x2="351.55" y2="317.236" gradientUnits="userSpaceOnUse">
<stop offset="0.1096" stop-color="#EECFF8"/>
<stop offset="0.4487" stop-color="#EFD1F8" stop-opacity="0.6009"/>
<stop offset="0.6432" stop-color="#F2DAFA" stop-opacity="0.3721"/>
<stop offset="0.801" stop-color="#F7E8FC" stop-opacity="0.1863"/>
<stop offset="0.9385" stop-color="#FEFBFE" stop-opacity="0.0245"/>
<stop offset="0.9593" stop-color="white" stop-opacity="0"/>
</linearGradient>
<linearGradient id="paint18_linear_1_382" x1="1056.19" y1="377.455" x2="351.55" y2="377.455" gradientUnits="userSpaceOnUse">
<stop offset="0.1096" stop-color="#EECFF8"/>
<stop offset="0.4487" stop-color="#EFD1F8" stop-opacity="0.6009"/>
<stop offset="0.6432" stop-color="#F2DAFA" stop-opacity="0.3721"/>
<stop offset="0.801" stop-color="#F7E8FC" stop-opacity="0.1863"/>
<stop offset="0.9385" stop-color="#FEFBFE" stop-opacity="0.0245"/>
<stop offset="0.9593" stop-color="white" stop-opacity="0"/>
</linearGradient>
<linearGradient id="paint19_linear_1_382" x1="1056.19" y1="241.963" x2="351.55" y2="241.963" gradientUnits="userSpaceOnUse">
<stop offset="0.1096" stop-color="#EECFF8"/>
<stop offset="0.4487" stop-color="#EFD1F8" stop-opacity="0.6009"/>
<stop offset="0.6432" stop-color="#F2DAFA" stop-opacity="0.3721"/>
<stop offset="0.801" stop-color="#F7E8FC" stop-opacity="0.1863"/>
<stop offset="0.9385" stop-color="#FEFBFE" stop-opacity="0.0245"/>
<stop offset="0.9593" stop-color="white" stop-opacity="0"/>
</linearGradient>
<linearGradient id="paint20_linear_1_382" x1="1056.19" y1="257.018" x2="351.55" y2="257.018" gradientUnits="userSpaceOnUse">
<stop offset="0.1096" stop-color="#EECFF8"/>
<stop offset="0.4487" stop-color="#EFD1F8" stop-opacity="0.6009"/>
<stop offset="0.6432" stop-color="#F2DAFA" stop-opacity="0.3721"/>
<stop offset="0.801" stop-color="#F7E8FC" stop-opacity="0.1863"/>
<stop offset="0.9385" stop-color="#FEFBFE" stop-opacity="0.0245"/>
<stop offset="0.9593" stop-color="white" stop-opacity="0"/>
</linearGradient>
<linearGradient id="paint21_linear_1_382" x1="1056.19" y1="211.854" x2="351.55" y2="211.854" gradientUnits="userSpaceOnUse">
<stop offset="0.1096" stop-color="#EECFF8"/>
<stop offset="0.4487" stop-color="#EFD1F8" stop-opacity="0.6009"/>
<stop offset="0.6432" stop-color="#F2DAFA" stop-opacity="0.3721"/>
<stop offset="0.801" stop-color="#F7E8FC" stop-opacity="0.1863"/>
<stop offset="0.9385" stop-color="#FEFBFE" stop-opacity="0.0245"/>
<stop offset="0.9593" stop-color="white" stop-opacity="0"/>
</linearGradient>
<linearGradient id="paint22_linear_1_382" x1="1056.19" y1="226.908" x2="351.55" y2="226.908" gradientUnits="userSpaceOnUse">
<stop offset="0.1096" stop-color="#EECFF8"/>
<stop offset="0.4487" stop-color="#EFD1F8" stop-opacity="0.6009"/>
<stop offset="0.6432" stop-color="#F2DAFA" stop-opacity="0.3721"/>
<stop offset="0.801" stop-color="#F7E8FC" stop-opacity="0.1863"/>
<stop offset="0.9385" stop-color="#FEFBFE" stop-opacity="0.0245"/>
<stop offset="0.9593" stop-color="white" stop-opacity="0"/>
</linearGradient>
<linearGradient id="paint23_linear_1_382" x1="1056.19" y1="287.127" x2="351.55" y2="287.127" gradientUnits="userSpaceOnUse">
<stop offset="0.1096" stop-color="#EECFF8"/>
<stop offset="0.4487" stop-color="#EFD1F8" stop-opacity="0.6009"/>
<stop offset="0.6432" stop-color="#F2DAFA" stop-opacity="0.3721"/>
<stop offset="0.801" stop-color="#F7E8FC" stop-opacity="0.1863"/>
<stop offset="0.9385" stop-color="#FEFBFE" stop-opacity="0.0245"/>
<stop offset="0.9593" stop-color="white" stop-opacity="0"/>
</linearGradient>
<linearGradient id="paint24_linear_1_382" x1="1056.19" y1="302.181" x2="351.55" y2="302.181" gradientUnits="userSpaceOnUse">
<stop offset="0.1096" stop-color="#EECFF8"/>
<stop offset="0.4487" stop-color="#EFD1F8" stop-opacity="0.6009"/>
<stop offset="0.6432" stop-color="#F2DAFA" stop-opacity="0.3721"/>
<stop offset="0.801" stop-color="#F7E8FC" stop-opacity="0.1863"/>
<stop offset="0.9385" stop-color="#FEFBFE" stop-opacity="0.0245"/>
<stop offset="0.9593" stop-color="white" stop-opacity="0"/>
</linearGradient>
<linearGradient id="paint25_linear_1_382" x1="1056.19" y1="272.072" x2="351.55" y2="272.072" gradientUnits="userSpaceOnUse">
<stop offset="0.1096" stop-color="#EECFF8"/>
<stop offset="0.4487" stop-color="#EFD1F8" stop-opacity="0.6009"/>
<stop offset="0.6432" stop-color="#F2DAFA" stop-opacity="0.3721"/>
<stop offset="0.801" stop-color="#F7E8FC" stop-opacity="0.1863"/>
<stop offset="0.9385" stop-color="#FEFBFE" stop-opacity="0.0245"/>
<stop offset="0.9593" stop-color="white" stop-opacity="0"/>
</linearGradient>
<radialGradient id="paint26_radial_1_382" cx="0" cy="0" r="1" gradientUnits="userSpaceOnUse" gradientTransform="translate(695.102 344.332) rotate(-0.467702) scale(307.401 212.104)">
<stop offset="0.131" stop-color="#F1D23C"/>
<stop offset="1" stop-color="white" stop-opacity="0"/>
</radialGradient>
<radialGradient id="paint27_radial_1_382" cx="0" cy="0" r="1" gradientUnits="userSpaceOnUse" gradientTransform="translate(806.361 398.635) scale(103.886 102.986)">
<stop offset="0.0775" stop-color="#0144B9"/>
<stop offset="1" stop-color="#0060FB" stop-opacity="0"/>
</radialGradient>
<radialGradient id="paint28_radial_1_382" cx="0" cy="0" r="1" gradientUnits="userSpaceOnUse" gradientTransform="translate(827.099 209.603) scale(134.736 133.568)">
<stop offset="0.0775" stop-color="#0144B9"/>
<stop offset="1" stop-color="#FB8F8F" stop-opacity="0"/>
</radialGradient>
<radialGradient id="paint29_radial_1_382" cx="0" cy="0" r="1" gradientUnits="userSpaceOnUse" gradientTransform="translate(828.415 167.203) scale(142.563 141.329)">
<stop offset="0.0775" stop-color="#0144B9"/>
<stop offset="1" stop-color="#FB8F8F" stop-opacity="0"/>
</radialGradient>
<radialGradient id="paint30_radial_1_382" cx="0" cy="0" r="1" gradientUnits="userSpaceOnUse" gradientTransform="translate(734.539 217.497) scale(138.953 137.75)">
<stop offset="0.0775" stop-color="#0144B9"/>
<stop offset="1" stop-color="#FB8F8F" stop-opacity="0"/>
</radialGradient>
<radialGradient id="paint31_radial_1_382" cx="0" cy="0" r="1" gradientUnits="userSpaceOnUse" gradientTransform="translate(582.368 233.157) scale(326.566 323.739)">
<stop stop-color="#335BFC"/>
<stop offset="0.1457" stop-color="#6886FD"/>
<stop offset="0.2916" stop-color="#96ABFD"/>
<stop offset="0.4383" stop-color="#BCC9FE"/>
<stop offset="0.5833" stop-color="#D9E1FE"/>
<stop offset="0.7263" stop-color="#EEF1FF"/>
<stop offset="0.8663" stop-color="#FBFCFF"/>
<stop offset="1" stop-color="white"/>
</radialGradient>
<radialGradient id="paint32_radial_1_382" cx="0" cy="0" r="1" gradientUnits="userSpaceOnUse" gradientTransform="translate(513.376 410.87) scale(61.6394 61.1057)">
<stop offset="0.0775" stop-color="#0144B9"/>
<stop offset="1" stop-color="#FB8F8F" stop-opacity="0"/>
</radialGradient>
<radialGradient id="paint33_radial_1_382" cx="0" cy="0" r="1" gradientUnits="userSpaceOnUse" gradientTransform="translate(706.967 340.252) scale(117.904 116.883)">
<stop offset="0.0775" stop-color="#0144B9"/>
<stop offset="1" stop-color="#FB8F8F" stop-opacity="0"/>
</radialGradient>
<radialGradient id="paint34_radial_1_382" cx="0" cy="0" r="1" gradientUnits="userSpaceOnUse" gradientTransform="translate(478.758 327.967) scale(120.914 119.868)">
<stop offset="0.0775" stop-color="#0144B9"/>
<stop offset="1" stop-color="#FB8F8F" stop-opacity="0"/>
</radialGradient>
<radialGradient id="paint35_radial_1_382" cx="0" cy="0" r="1" gradientUnits="userSpaceOnUse" gradientTransform="translate(495.281 248.932) scale(23.1135 22.9134)">
<stop stop-color="#FA404B"/>
<stop offset="0.025" stop-color="#FA484F" stop-opacity="0.975"/>
<stop offset="0.1916" stop-color="#FC7565" stop-opacity="0.8084"/>
<stop offset="0.3589" stop-color="#FD9B78" stop-opacity="0.6411"/>
<stop offset="0.5244" stop-color="#FEB886" stop-opacity="0.4756"/>
<stop offset="0.6876" stop-color="#FECD91" stop-opacity="0.3124"/>
<stop offset="0.8474" stop-color="#FFDA97" stop-opacity="0.1526"/>
<stop offset="1" stop-color="#FFDE99" stop-opacity="0"/>
</radialGradient>
<radialGradient id="paint36_radial_1_382" cx="0" cy="0" r="1" gradientUnits="userSpaceOnUse" gradientTransform="translate(487.921 242.15) scale(27.2291 26.9931)">
<stop stop-color="#FA404B"/>
<stop offset="0.025" stop-color="#FA484F" stop-opacity="0.975"/>
<stop offset="0.1916" stop-color="#FC7565" stop-opacity="0.8084"/>
<stop offset="0.3589" stop-color="#FD9B78" stop-opacity="0.6411"/>
<stop offset="0.5244" stop-color="#FEB886" stop-opacity="0.4756"/>
<stop offset="0.6876" stop-color="#FECD91" stop-opacity="0.3124"/>
<stop offset="0.8474" stop-color="#FFDA97" stop-opacity="0.1526"/>
<stop offset="1" stop-color="#FFDE99" stop-opacity="0"/>
</radialGradient>
<radialGradient id="paint37_radial_1_382" cx="0" cy="0" r="1" gradientUnits="userSpaceOnUse" gradientTransform="translate(581.675 282.414) scale(47.7102 47.2972)">
<stop stop-color="#FA404B"/>
<stop offset="0.025" stop-color="#FA484F" stop-opacity="0.975"/>
<stop offset="0.1916" stop-color="#FC7565" stop-opacity="0.8084"/>
<stop offset="0.3589" stop-color="#FD9B78" stop-opacity="0.6411"/>
<stop offset="0.5244" stop-color="#FEB886" stop-opacity="0.4756"/>
<stop offset="0.6876" stop-color="#FECD91" stop-opacity="0.3124"/>
<stop offset="0.8474" stop-color="#FFDA97" stop-opacity="0.1526"/>
<stop offset="1" stop-color="#FFDE99" stop-opacity="0"/>
</radialGradient>
<radialGradient id="paint38_radial_1_382" cx="0" cy="0" r="1" gradientUnits="userSpaceOnUse" gradientTransform="translate(583.568 183.032) scale(82.3667 81.6537)">
<stop stop-color="#FA404B"/>
<stop offset="0.025" stop-color="#FA484F" stop-opacity="0.975"/>
<stop offset="0.1916" stop-color="#FC7565" stop-opacity="0.8084"/>
<stop offset="0.3589" stop-color="#FD9B78" stop-opacity="0.6411"/>
<stop offset="0.5244" stop-color="#FEB886" stop-opacity="0.4756"/>
<stop offset="0.6876" stop-color="#FECD91" stop-opacity="0.3124"/>
<stop offset="0.8474" stop-color="#FFDA97" stop-opacity="0.1526"/>
<stop offset="1" stop-color="#FFDE99" stop-opacity="0"/>
</radialGradient>
<radialGradient id="paint39_radial_1_382" cx="0" cy="0" r="1" gradientUnits="userSpaceOnUse" gradientTransform="translate(623.967 195.828) scale(42.9214 42.5495)">
<stop offset="0.0775" stop-color="#0144B9"/>
<stop offset="1" stop-color="#0060FB" stop-opacity="0"/>
</radialGradient>
<radialGradient id="paint40_radial_1_382" cx="0" cy="0" r="1" gradientUnits="userSpaceOnUse" gradientTransform="translate(631.584 302.547) scale(56.2238 55.7369)">
<stop offset="0.0775" stop-color="#0144B9"/>
<stop offset="1" stop-color="#0060FB" stop-opacity="0"/>
</radialGradient>
<radialGradient id="paint41_radial_1_382" cx="0" cy="0" r="1" gradientUnits="userSpaceOnUse" gradientTransform="translate(600.264 158.379) scale(84.5376 83.8057)">
<stop stop-color="#FA404B"/>
<stop offset="0.025" stop-color="#FA484F" stop-opacity="0.975"/>
<stop offset="0.1916" stop-color="#FC7565" stop-opacity="0.8084"/>
<stop offset="0.3589" stop-color="#FD9B78" stop-opacity="0.6411"/>
<stop offset="0.5244" stop-color="#FEB886" stop-opacity="0.4756"/>
<stop offset="0.6876" stop-color="#FECD91" stop-opacity="0.3124"/>
<stop offset="0.8474" stop-color="#FFDA97" stop-opacity="0.1526"/>
<stop offset="1" stop-color="#FFDE99" stop-opacity="0"/>
</radialGradient>
<radialGradient id="paint42_radial_1_382" cx="0" cy="0" r="1" gradientUnits="userSpaceOnUse" gradientTransform="translate(567.116 153.722) scale(32.958 32.6727)">
<stop stop-color="#FA404B"/>
<stop offset="0.025" stop-color="#FA484F" stop-opacity="0.975"/>
<stop offset="0.1916" stop-color="#FC7565" stop-opacity="0.8084"/>
<stop offset="0.3589" stop-color="#FD9B78" stop-opacity="0.6411"/>
<stop offset="0.5244" stop-color="#FEB886" stop-opacity="0.4756"/>
<stop offset="0.6876" stop-color="#FECD91" stop-opacity="0.3124"/>
<stop offset="0.8474" stop-color="#FFDA97" stop-opacity="0.1526"/>
<stop offset="1" stop-color="#FFDE99" stop-opacity="0"/>
</radialGradient>
<radialGradient id="paint43_radial_1_382" cx="0" cy="0" r="1" gradientUnits="userSpaceOnUse" gradientTransform="translate(655.595 163.07) scale(100.846 99.9731)">
<stop stop-color="#FA404B"/>
<stop offset="0.025" stop-color="#FA484F" stop-opacity="0.975"/>
<stop offset="0.1916" stop-color="#FC7565" stop-opacity="0.8084"/>
<stop offset="0.3589" stop-color="#FD9B78" stop-opacity="0.6411"/>
<stop offset="0.5244" stop-color="#FEB886" stop-opacity="0.4756"/>
<stop offset="0.6876" stop-color="#FECD91" stop-opacity="0.3124"/>
<stop offset="0.8474" stop-color="#FFDA97" stop-opacity="0.1526"/>
<stop offset="1" stop-color="#FFDE99" stop-opacity="0"/>
</radialGradient>
<radialGradient id="paint44_radial_1_382" cx="0" cy="0" r="1" gradientUnits="userSpaceOnUse" gradientTransform="translate(654.132 286.338) scale(48.6432 48.2221)">
<stop offset="0.0775" stop-color="#0144B9"/>
<stop offset="1" stop-color="#0061FE"/>
</radialGradient>
<radialGradient id="paint45_radial_1_382" cx="0" cy="0" r="1" gradientUnits="userSpaceOnUse" gradientTransform="translate(598.711 247.268) scale(46.8076 46.4025)">
<stop offset="0.0775" stop-color="#0144B9"/>
<stop offset="1" stop-color="#0060FB" stop-opacity="0"/>
</radialGradient>
<radialGradient id="paint46_radial_1_382" cx="0" cy="0" r="1" gradientUnits="userSpaceOnUse" gradientTransform="translate(586.667 315.001) scale(15.0874 14.9567)">
<stop stop-color="#FA404B"/>
<stop offset="0.025" stop-color="#FA484F" stop-opacity="0.975"/>
<stop offset="0.1916" stop-color="#FC7565" stop-opacity="0.8084"/>
<stop offset="0.3589" stop-color="#FD9B78" stop-opacity="0.6411"/>
<stop offset="0.5244" stop-color="#FEB886" stop-opacity="0.4756"/>
<stop offset="0.6876" stop-color="#FECD91" stop-opacity="0.3124"/>
<stop offset="0.8474" stop-color="#FFDA97" stop-opacity="0.1526"/>
<stop offset="1" stop-color="#FFDE99" stop-opacity="0"/>
</radialGradient>
<radialGradient id="paint47_radial_1_382" cx="0" cy="0" r="1" gradientUnits="userSpaceOnUse" gradientTransform="translate(614.548 353.56) scale(88.7528 87.9843)">
<stop stop-color="#FA404B"/>
<stop offset="0.025" stop-color="#FA484F" stop-opacity="0.975"/>
<stop offset="0.1916" stop-color="#FC7565" stop-opacity="0.8084"/>
<stop offset="0.3589" stop-color="#FD9B78" stop-opacity="0.6411"/>
<stop offset="0.5244" stop-color="#FEB886" stop-opacity="0.4756"/>
<stop offset="0.6876" stop-color="#FECD91" stop-opacity="0.3124"/>
<stop offset="0.8474" stop-color="#FFDA97" stop-opacity="0.1526"/>
<stop offset="1" stop-color="#FFDE99" stop-opacity="0"/>
</radialGradient>
<radialGradient id="paint48_radial_1_382" cx="0" cy="0" r="1" gradientUnits="userSpaceOnUse" gradientTransform="translate(431.814 241.205) rotate(180) scale(79.31 78.5607)">
<stop stop-color="#FA404B"/>
<stop offset="0.025" stop-color="#FA484F" stop-opacity="0.975"/>
<stop offset="0.1916" stop-color="#FC7565" stop-opacity="0.8084"/>
<stop offset="0.3589" stop-color="#FD9B78" stop-opacity="0.6411"/>
<stop offset="0.5244" stop-color="#FEB886" stop-opacity="0.4756"/>
<stop offset="0.6876" stop-color="#FECD91" stop-opacity="0.3124"/>
<stop offset="0.8474" stop-color="#FFDA97" stop-opacity="0.1526"/>
<stop offset="1" stop-color="#FFDE99" stop-opacity="0"/>
</radialGradient>
<radialGradient id="paint49_radial_1_382" cx="0" cy="0" r="1" gradientUnits="userSpaceOnUse" gradientTransform="translate(455.055 51.1555) scale(200.625 198.888)">
<stop stop-color="#335BFC"/>
<stop offset="0.1457" stop-color="#6886FD" stop-opacity="0.8543"/>
<stop offset="0.2916" stop-color="#96ABFD" stop-opacity="0.7084"/>
<stop offset="0.4383" stop-color="#BCC9FE" stop-opacity="0.5617"/>
<stop offset="0.5833" stop-color="#D9E1FE" stop-opacity="0.4167"/>
<stop offset="0.7263" stop-color="#EEF1FF" stop-opacity="0.2737"/>
<stop offset="0.8663" stop-color="#FBFCFF" stop-opacity="0.1337"/>
<stop offset="1" stop-color="white" stop-opacity="0"/>
</radialGradient>
<radialGradient id="paint50_radial_1_382" cx="0" cy="0" r="1" gradientUnits="userSpaceOnUse" gradientTransform="translate(489.859 121.53) scale(177.165 175.631)">
<stop stop-color="#FA404B"/>
<stop offset="0.025" stop-color="#FA484F" stop-opacity="0.975"/>
<stop offset="0.1916" stop-color="#FC7565" stop-opacity="0.8084"/>
<stop offset="0.3589" stop-color="#FD9B78" stop-opacity="0.6411"/>
<stop offset="0.5244" stop-color="#FEB886" stop-opacity="0.4756"/>
<stop offset="0.6876" stop-color="#FECD91" stop-opacity="0.3124"/>
<stop offset="0.8474" stop-color="#FFDA97" stop-opacity="0.1526"/>
<stop offset="1" stop-color="#FFDE99" stop-opacity="0"/>
</radialGradient>
<radialGradient id="paint51_radial_1_382" cx="0" cy="0" r="1" gradientUnits="userSpaceOnUse" gradientTransform="translate(336.793 133.368) scale(48.6091 48.1884)">
<stop stop-color="#335BFC"/>
<stop offset="0.1457" stop-color="#6886FD" stop-opacity="0.8543"/>
<stop offset="0.2916" stop-color="#96ABFD" stop-opacity="0.7084"/>
<stop offset="0.4383" stop-color="#BCC9FE" stop-opacity="0.5617"/>
<stop offset="0.5833" stop-color="#D9E1FE" stop-opacity="0.4167"/>
<stop offset="0.7263" stop-color="#EEF1FF" stop-opacity="0.2737"/>
<stop offset="0.8663" stop-color="#FBFCFF" stop-opacity="0.1337"/>
<stop offset="1" stop-color="white" stop-opacity="0"/>
</radialGradient>
<radialGradient id="paint52_radial_1_382" cx="0" cy="0" r="1" gradientUnits="userSpaceOnUse" gradientTransform="translate(461.703 249.986) rotate(180) scale(82.9393 82.3445)">
<stop offset="0.1096" stop-color="#BDD9FF"/>
<stop offset="1" stop-color="#0061FE" stop-opacity="0"/>
</radialGradient>
<radialGradient id="paint53_radial_1_382" cx="0" cy="0" r="1" gradientUnits="userSpaceOnUse" gradientTransform="translate(95.8096 474.933) scale(112.632 111.657)">
<stop stop-color="#FA404B"/>
<stop offset="0.025" stop-color="#FA484F" stop-opacity="0.975"/>
<stop offset="0.1916" stop-color="#FC7565" stop-opacity="0.8084"/>
<stop offset="0.3589" stop-color="#FD9B78" stop-opacity="0.6411"/>
<stop offset="0.5244" stop-color="#FEB886" stop-opacity="0.4756"/>
<stop offset="0.6876" stop-color="#FECD91" stop-opacity="0.3124"/>
<stop offset="0.8474" stop-color="#FFDA97" stop-opacity="0.1526"/>
<stop offset="1" stop-color="#FFDE99" stop-opacity="0"/>
</radialGradient>
<radialGradient id="paint54_radial_1_382" cx="0" cy="0" r="1" gradientUnits="userSpaceOnUse" gradientTransform="translate(237.328 489.395) scale(77.2137 76.5451)">
<stop stop-color="#FA404B"/>
<stop offset="0.025" stop-color="#FA484F" stop-opacity="0.975"/>
<stop offset="0.1916" stop-color="#FC7565" stop-opacity="0.8084"/>
<stop offset="0.3589" stop-color="#FD9B78" stop-opacity="0.6411"/>
<stop offset="0.5244" stop-color="#FEB886" stop-opacity="0.4756"/>
<stop offset="0.6876" stop-color="#FECD91" stop-opacity="0.3124"/>
<stop offset="0.8474" stop-color="#FFDA97" stop-opacity="0.1526"/>
<stop offset="1" stop-color="#FFDE99" stop-opacity="0"/>
</radialGradient>
<radialGradient id="paint55_radial_1_382" cx="0" cy="0" r="1" gradientUnits="userSpaceOnUse" gradientTransform="translate(196.964 404.063) scale(100.851 99.9776)">
<stop offset="0.0829" stop-color="#F2F6FF"/>
<stop offset="0.484" stop-color="#FBFCFF" stop-opacity="0.5627"/>
<stop offset="1" stop-color="white" stop-opacity="0"/>
</radialGradient>
<radialGradient id="paint56_radial_1_382" cx="0" cy="0" r="1" gradientUnits="userSpaceOnUse" gradientTransform="translate(146.629 494.94) scale(79.7803 79.0896)">
<stop offset="0.0829" stop-color="#F2F6FF"/>
<stop offset="0.484" stop-color="#FBFCFF" stop-opacity="0.5627"/>
<stop offset="1" stop-color="white" stop-opacity="0"/>
</radialGradient>
<radialGradient id="paint57_radial_1_382" cx="0" cy="0" r="1" gradientUnits="userSpaceOnUse" gradientTransform="translate(56.4992 339.541) scale(286.227 283.749)">
<stop offset="0.0829" stop-color="#F2F6FF"/>
<stop offset="0.484" stop-color="#FBFCFF" stop-opacity="0.5627"/>
<stop offset="1" stop-color="white" stop-opacity="0"/>
</radialGradient>
<radialGradient id="paint58_radial_1_382" cx="0" cy="0" r="1" gradientUnits="userSpaceOnUse" gradientTransform="translate(258.969 347.416) scale(83.6341 82.9101)">
<stop stop-color="#FA404B"/>
<stop offset="0.025" stop-color="#FA484F" stop-opacity="0.975"/>
<stop offset="0.1916" stop-color="#FC7565" stop-opacity="0.8084"/>
<stop offset="0.3589" stop-color="#FD9B78" stop-opacity="0.6411"/>
<stop offset="0.5244" stop-color="#FEB886" stop-opacity="0.4756"/>
<stop offset="0.6876" stop-color="#FECD91" stop-opacity="0.3124"/>
<stop offset="0.8474" stop-color="#FFDA97" stop-opacity="0.1526"/>
<stop offset="1" stop-color="#FFDE99" stop-opacity="0"/>
</radialGradient>
<radialGradient id="paint59_radial_1_382" cx="0" cy="0" r="1" gradientUnits="userSpaceOnUse" gradientTransform="translate(400.608 231.59) scale(67.415 66.8311)">
<stop stop-color="#FA404B"/>
<stop offset="0.138" stop-color="#FB635C"/>
<stop offset="0.3337" stop-color="#FC8F72"/>
<stop offset="0.5231" stop-color="#FEB183"/>
<stop offset="0.7018" stop-color="#FECA8F"/>
<stop offset="0.8654" stop-color="#FFD996"/>
<stop offset="1" stop-color="#FFDE99"/>
</radialGradient>
<radialGradient id="paint60_radial_1_382" cx="0" cy="0" r="1" gradientUnits="userSpaceOnUse" gradientTransform="translate(193.803 190.008) scale(44.9441 44.555)">
<stop stop-color="#FA404B"/>
<stop offset="0.025" stop-color="#FA484F" stop-opacity="0.975"/>
<stop offset="0.1916" stop-color="#FC7565" stop-opacity="0.8084"/>
<stop offset="0.3589" stop-color="#FD9B78" stop-opacity="0.6411"/>
<stop offset="0.5244" stop-color="#FEB886" stop-opacity="0.4756"/>
<stop offset="0.6876" stop-color="#FECD91" stop-opacity="0.3124"/>
<stop offset="0.8474" stop-color="#FFDA97" stop-opacity="0.1526"/>
<stop offset="1" stop-color="#FFDE99" stop-opacity="0"/>
</radialGradient>
<radialGradient id="paint61_radial_1_382" cx="0" cy="0" r="1" gradientUnits="userSpaceOnUse" gradientTransform="translate(213.498 154.333) scale(32.0471 31.7696)">
<stop stop-color="#FA404B"/>
<stop offset="0.025" stop-color="#FA484F" stop-opacity="0.975"/>
<stop offset="0.1916" stop-color="#FC7565" stop-opacity="0.8084"/>
<stop offset="0.3589" stop-color="#FD9B78" stop-opacity="0.6411"/>
<stop offset="0.5244" stop-color="#FEB886" stop-opacity="0.4756"/>
<stop offset="0.6876" stop-color="#FECD91" stop-opacity="0.3124"/>
<stop offset="0.8474" stop-color="#FFDA97" stop-opacity="0.1526"/>
<stop offset="1" stop-color="#FFDE99" stop-opacity="0"/>
</radialGradient>
<radialGradient id="paint62_radial_1_382" cx="0" cy="0" r="1" gradientUnits="userSpaceOnUse" gradientTransform="translate(140.794 154.413) scale(73.7326 73.0942)">
<stop stop-color="#FA404B"/>
<stop offset="0.025" stop-color="#FA484F" stop-opacity="0.975"/>
<stop offset="0.1916" stop-color="#FC7565" stop-opacity="0.8084"/>
<stop offset="0.3589" stop-color="#FD9B78" stop-opacity="0.6411"/>
<stop offset="0.5244" stop-color="#FEB886" stop-opacity="0.4756"/>
<stop offset="0.6876" stop-color="#FECD91" stop-opacity="0.3124"/>
<stop offset="0.8474" stop-color="#FFDA97" stop-opacity="0.1526"/>
<stop offset="1" stop-color="#FFDE99" stop-opacity="0"/>
</radialGradient>
<radialGradient id="paint63_radial_1_382" cx="0" cy="0" r="1" gradientUnits="userSpaceOnUse" gradientTransform="translate(199.395 427.204) scale(220.07 218.165)">
<stop offset="0.0829" stop-color="#F2F6FF"/>
<stop offset="0.484" stop-color="#FBFCFF" stop-opacity="0.5627"/>
<stop offset="1" stop-color="white" stop-opacity="0"/>
</radialGradient>
<radialGradient id="paint64_radial_1_382" cx="0" cy="0" r="1" gradientUnits="userSpaceOnUse" gradientTransform="translate(172.596 326.627) rotate(-72.9915) scale(106.718 123.175)">
<stop offset="0.0775" stop-color="#0144B9"/>
<stop offset="1" stop-color="#0060FB" stop-opacity="0"/>
</radialGradient>
<radialGradient id="paint65_radial_1_382" cx="0" cy="0" r="1" gradientUnits="userSpaceOnUse" gradientTransform="translate(248.514 347.898) scale(69.9141 69.3088)">
<stop offset="0.0775" stop-color="#0144B9"/>
<stop offset="1" stop-color="#0060FB" stop-opacity="0"/>
</radialGradient>
<radialGradient id="paint66_radial_1_382" cx="0" cy="0" r="1" gradientUnits="userSpaceOnUse" gradientTransform="translate(55.6887 263.376) scale(99.0393 98.1818)">
<stop stop-color="#FA404B"/>
<stop offset="0.025" stop-color="#FA484F" stop-opacity="0.975"/>
<stop offset="0.1916" stop-color="#FC7565" stop-opacity="0.8084"/>
<stop offset="0.3589" stop-color="#FD9B78" stop-opacity="0.6411"/>
<stop offset="0.5244" stop-color="#FEB886" stop-opacity="0.4756"/>
<stop offset="0.6876" stop-color="#FECD91" stop-opacity="0.3124"/>
<stop offset="0.8474" stop-color="#FFDA97" stop-opacity="0.1526"/>
<stop offset="1" stop-color="#FFDE99" stop-opacity="0"/>
</radialGradient>
<radialGradient id="paint67_radial_1_382" cx="0" cy="0" r="1" gradientUnits="userSpaceOnUse" gradientTransform="translate(173.863 324.757) scale(35.6813 35.3723)">
<stop stop-color="#FA404B"/>
<stop offset="0.025" stop-color="#FA484F" stop-opacity="0.975"/>
<stop offset="0.1916" stop-color="#FC7565" stop-opacity="0.8084"/>
<stop offset="0.3589" stop-color="#FD9B78" stop-opacity="0.6411"/>
<stop offset="0.5244" stop-color="#FEB886" stop-opacity="0.4756"/>
<stop offset="0.6876" stop-color="#FECD91" stop-opacity="0.3124"/>
<stop offset="0.8474" stop-color="#FFDA97" stop-opacity="0.1526"/>
<stop offset="1" stop-color="#FFDE99" stop-opacity="0"/>
</radialGradient>
</defs>
</svg>
