<svg version="1.1" id="Layer_1" xmlns="http://www.w3.org/2000/svg" xmlns:xlink="http://www.w3.org/1999/xlink" x="0px" y="0px"
	 width="100%" viewBox="0 0 512 512" enable-background="new 0 0 512 512" xml:space="preserve">
<path fill="#000000" opacity="1.000000" stroke="none" 
	d="
M1.000000,186.000000 
	C1.000000,124.000000 1.000000,62.500000 1.000000,1.000000 
	C171.666672,1.000000 342.333344,1.000000 513.000000,1.000000 
	C513.000000,171.666672 513.000000,342.333344 513.000000,513.000000 
	C342.333344,513.000000 171.666672,513.000000 1.000000,513.000000 
	C1.000000,404.166656 1.000000,295.333344 1.000000,186.000000 
M85.754417,305.030762 
	C84.894157,305.479675 84.060738,305.992218 83.169647,306.368011 
	C67.907150,312.804260 55.362156,322.513214 45.411888,335.924957 
	C36.073383,348.512115 30.035236,362.146332 27.899019,377.718140 
	C25.840038,392.726990 26.254910,407.580627 31.471951,421.736816 
	C39.068630,442.349976 51.676445,459.148743 71.020386,470.649414 
	C94.888489,484.839844 119.934135,487.664001 146.401733,480.193085 
	C166.519424,474.514496 182.340591,462.464569 194.414124,445.852356 
	C203.574600,433.248260 209.804520,419.072571 211.001740,403.161072 
	C211.502640,396.504059 212.005173,389.847198 212.525421,382.945404 
	C243.142487,398.836823 274.969818,403.588348 308.645447,393.939972 
	C309.122803,395.370880 309.600067,396.719727 310.024078,398.085114 
	C314.681183,413.081146 319.430389,428.049896 323.912048,443.098267 
	C325.062408,446.960968 326.998535,449.524536 331.038605,449.964203 
	C335.522583,450.452179 338.521729,448.164703 340.293488,444.214844 
	C342.915802,438.368805 345.453522,432.484497 347.990692,426.600708 
	C351.366547,418.771820 354.707245,410.927765 358.310455,402.512482 
	C367.771759,412.065338 376.639221,421.094147 385.598389,430.031006 
	C389.758026,434.180206 393.182739,434.127380 397.407166,430.047668 
	C408.269165,419.557953 418.801422,408.700714 430.059937,398.656708 
	C437.584961,391.943420 435.412079,384.601379 429.907166,379.331421 
	C421.799255,371.569641 413.967529,363.519440 405.902588,355.476898 
	C419.656525,349.505707 432.729034,343.341095 446.204010,338.239563 
	C451.072144,336.396484 452.693756,333.056396 452.737213,329.302429 
	C452.785767,325.112518 449.753113,322.234467 445.269623,320.937347 
	C429.719421,316.438385 414.256042,311.640076 398.732391,307.047729 
	C396.648834,306.431305 396.077209,306.144531 396.638794,303.459839 
	C398.494659,294.587250 400.321747,285.595032 400.781036,276.578491 
	C401.177216,268.800842 399.712769,260.925232 399.024719,253.097015 
	C398.732025,249.767227 398.321625,246.447769 397.971710,243.188858 
	C459.701355,230.829056 494.946106,176.925629 486.817871,119.938820 
	C479.311249,67.309982 436.529297,31.032690 388.051727,27.067225 
	C357.339355,24.554956 329.569733,33.006729 306.425690,53.346813 
	C279.088501,77.372032 266.701263,108.255119 269.113281,144.837494 
	C228.234482,146.975891 195.144272,163.556534 171.146042,196.080978 
	C147.322433,228.368774 141.295334,264.834137 150.390167,304.681976 
	C128.387711,296.978882 107.406441,297.131866 85.754417,305.030762 
M229.037415,106.603035 
	C229.745758,105.525795 230.591965,104.514145 231.140747,103.360977 
	C235.658264,93.868530 236.930252,84.064575 235.118561,73.581078 
	C233.325302,63.204350 228.616211,54.419895 220.989685,47.742008 
	C208.962646,37.210968 194.554245,33.526737 178.826157,37.075230 
	C165.967545,39.976326 155.664307,46.934879 149.107269,58.634644 
	C142.993027,69.544373 141.308884,81.276428 144.062469,93.456818 
	C146.179810,102.822731 150.732864,111.207100 158.042297,117.335075 
	C169.622208,127.043297 183.061371,130.930466 198.305145,128.065536 
	C211.628738,125.561516 221.511856,118.347733 229.037415,106.603035 
M112.584686,188.066055 
	C106.600204,179.475922 99.158081,173.535583 88.326492,171.528061 
	C75.743164,169.195877 62.383324,174.597107 55.499954,183.195374 
	C45.831013,195.273209 45.316418,213.987122 54.550842,226.479431 
	C64.534523,239.985382 82.743874,243.676620 96.382057,237.775177 
	C115.270638,229.601791 122.684189,207.927841 112.584686,188.066055 
M282.405090,481.061310 
	C292.691223,472.100037 297.310608,461.035278 293.920319,447.538177 
	C290.869171,435.391113 283.294067,426.881866 271.029999,423.627197 
	C259.224609,420.494232 248.082840,422.713226 239.257111,431.433594 
	C231.430069,439.167206 227.925827,448.689178 229.918564,460.056946 
	C232.155899,472.819977 238.801682,481.648590 251.071777,486.017731 
	C262.097412,489.943756 272.325531,487.929047 282.405090,481.061310 
z"/>
<path fill="#FFFFFF" opacity="1.000000" stroke="none" 
	d="
M86.159637,305.014893 
	C107.406441,297.131866 128.387711,296.978882 150.390167,304.681976 
	C141.295334,264.834137 147.322433,228.368774 171.146042,196.080978 
	C195.144272,163.556534 228.234482,146.975891 269.113281,144.837494 
	C266.701263,108.255119 279.088501,77.372032 306.425690,53.346813 
	C329.569733,33.006729 357.339355,24.554956 388.051727,27.067225 
	C436.529297,31.032690 479.311249,67.309982 486.817871,119.938820 
	C494.946106,176.925629 459.701355,230.829056 397.971710,243.188858 
	C398.321625,246.447769 398.732025,249.767227 399.024719,253.097015 
	C399.712769,260.925232 401.177216,268.800842 400.781036,276.578491 
	C400.321747,285.595032 398.494659,294.587250 396.638794,303.459839 
	C396.077209,306.144531 396.648834,306.431305 398.732391,307.047729 
	C414.256042,311.640076 429.719421,316.438385 445.269623,320.937347 
	C449.753113,322.234467 452.785767,325.112518 452.737213,329.302429 
	C452.693756,333.056396 451.072144,336.396484 446.204010,338.239563 
	C432.729034,343.341095 419.656525,349.505707 405.902588,355.476898 
	C413.967529,363.519440 421.799255,371.569641 429.907166,379.331421 
	C435.412079,384.601379 437.584961,391.943420 430.059937,398.656708 
	C418.801422,408.700714 408.269165,419.557953 397.407166,430.047668 
	C393.182739,434.127380 389.758026,434.180206 385.598389,430.031006 
	C376.639221,421.094147 367.771759,412.065338 358.310455,402.512482 
	C354.707245,410.927765 351.366547,418.771820 347.990692,426.600708 
	C345.453522,432.484497 342.915802,438.368805 340.293488,444.214844 
	C338.521729,448.164703 335.522583,450.452179 331.038605,449.964203 
	C326.998535,449.524536 325.062408,446.960968 323.912048,443.098267 
	C319.430389,428.049896 314.681183,413.081146 310.024078,398.085114 
	C309.600067,396.719727 309.122803,395.370880 308.645447,393.939972 
	C274.969818,403.588348 243.142487,398.836823 212.525421,382.945404 
	C212.005173,389.847198 211.502640,396.504059 211.001740,403.161072 
	C209.804520,419.072571 203.574600,433.248260 194.414124,445.852356 
	C182.340591,462.464569 166.519424,474.514496 146.401733,480.193085 
	C119.934135,487.664001 94.888489,484.839844 71.020386,470.649414 
	C51.676445,459.148743 39.068630,442.349976 31.471951,421.736816 
	C26.254910,407.580627 25.840038,392.726990 27.899019,377.718140 
	C30.035236,362.146332 36.073383,348.512115 45.411888,335.924957 
	C55.362156,322.513214 67.907150,312.804260 83.169647,306.368011 
	C84.060738,305.992218 84.894157,305.479675 86.159637,305.014893 
M430.958191,212.552734 
	C440.824524,205.389282 449.447601,197.039291 456.041809,186.683533 
	C466.885345,169.654449 472.103516,151.317322 471.153870,130.916107 
	C470.188690,110.180305 463.049957,91.925743 449.775024,76.591400 
	C430.060699,53.818737 404.982025,42.383942 374.236664,43.843594 
	C358.830444,44.575012 344.671936,48.545429 331.510925,56.184910 
	C316.100861,65.129860 304.175934,77.545578 295.927063,93.436836 
	C287.267609,110.119026 283.421661,127.620407 285.937164,146.447006 
	C287.226471,156.096359 289.511963,165.361511 293.626648,174.203720 
	C301.834320,191.841553 314.275330,205.509109 330.972961,215.554886 
	C350.266205,227.162292 371.083832,231.155243 393.075562,227.806839 
	C406.458710,225.769180 418.993439,220.620697 430.958191,212.552734 
M86.699074,460.971375 
	C103.126328,468.154022 120.232475,470.526093 137.521545,465.631317 
	C161.806549,458.755920 179.721451,443.892914 189.372604,420.116577 
	C196.201996,403.291901 196.932114,386.162903 191.371246,368.738861 
	C186.301178,352.852631 176.959976,340.120026 163.695465,330.246185 
	C146.765900,317.644226 127.521591,312.823975 106.903725,316.227844 
	C88.057671,319.339203 72.020233,328.285339 59.828468,343.588135 
	C45.315762,361.804047 39.839157,382.210388 43.991375,405.121582 
	C48.623863,430.682800 63.153870,448.801392 86.699074,460.971375 
M200.965485,348.612885 
	C204.034012,358.941284 212.217712,364.218262 220.964386,369.011444 
	C240.055084,379.473145 260.592407,383.291138 282.100708,381.878479 
	C289.103271,381.418518 296.012268,379.534424 302.896545,378.313660 
	C300.294281,369.673920 297.915985,361.777679 295.543640,353.901276 
	C249.230804,366.778107 190.986649,336.878632 187.218735,274.843750 
	C185.887787,252.931076 193.028427,232.698624 207.565445,216.223511 
	C226.813385,194.409439 251.781815,185.016144 280.792633,186.771362 
	C277.593414,178.127838 274.449097,169.632767 271.254791,161.002548 
	C269.826813,161.002548 268.320526,160.872940 266.847717,161.039520 
	C265.414490,161.201599 264.026215,161.897949 262.600006,161.963364 
	C248.829407,162.595078 235.971970,166.731827 223.796371,172.780182 
	C209.664490,179.800323 197.644928,189.541534 187.520508,201.834473 
	C173.081406,219.366241 165.501297,239.661942 163.186661,261.811554 
	C161.442444,278.502533 164.051025,295.010773 170.099548,310.780457 
	C171.008041,313.149017 172.691513,315.538605 174.655029,317.131256 
	C185.294617,325.761200 194.325089,335.666382 200.965485,348.612885 
M299.331970,294.040039 
	C297.971405,293.867798 296.610840,293.695587 294.806305,293.467133 
	C307.392181,334.498413 319.923737,375.352570 332.807007,417.353455 
	C337.844086,406.248657 342.366089,396.528961 346.669098,386.713257 
	C350.061676,378.974396 355.274231,377.781952 361.175262,383.680817 
	C370.939117,393.441101 380.672607,403.231750 389.461700,412.049347 
	C397.555237,403.978607 405.513733,396.042480 413.485565,388.093079 
	C404.419800,379.001129 394.879211,369.461884 385.373077,359.888336 
	C379.845612,354.321655 380.757507,348.370117 387.824615,345.049377 
	C397.871460,340.328461 408.023041,335.830383 419.148041,330.774384 
	C378.699951,318.460938 339.352203,306.482452 299.331970,294.040039 
M327.630798,232.966980 
	C316.505432,226.699432 306.278961,219.263885 297.417023,210.002243 
	C295.981506,208.501999 294.288513,206.851913 292.401489,206.246094 
	C282.346710,203.018097 271.926422,202.128082 261.637451,204.267807 
	C245.323425,207.660568 231.211517,215.058945 220.192719,228.145935 
	C211.276642,238.735535 205.566803,250.750214 204.200684,264.230011 
	C202.397629,282.020844 206.308441,298.622742 217.588745,313.244904 
	C234.110184,334.660980 255.964142,343.027802 282.358307,340.923584 
	C285.294464,340.689514 288.154724,339.502686 291.056152,338.756195 
	C288.478668,330.558380 286.040436,322.803528 283.596191,315.029510 
	C267.099640,318.155029 252.943497,314.689606 240.983810,302.588409 
	C222.478745,283.864349 225.558289,251.257492 247.901596,235.985428 
	C263.071075,225.616760 286.073090,225.995804 300.090179,237.757874 
	C312.843170,248.459229 319.572174,261.971069 316.017944,279.183502 
	C315.447968,281.943817 316.658295,283.294983 319.313904,284.032349 
	C326.081940,285.911652 332.792786,287.996948 339.532837,290.001709 
	C343.435394,275.952728 343.345337,262.093262 337.854004,248.732040 
	C335.558563,243.146896 331.596069,238.246902 327.630798,232.966980 
M272.546509,245.000000 
	C258.233826,245.161072 243.907333,257.450500 246.071182,275.446472 
	C247.756348,289.461243 260.004150,301.589630 278.685150,298.590149 
	C277.332977,293.788788 276.061401,288.975067 274.615875,284.214172 
	C272.681549,277.843323 276.068665,272.447571 282.422333,273.162415 
	C288.331177,273.827240 294.087097,275.851044 299.896362,277.273132 
	C300.495117,257.517761 290.276550,245.015167 272.546509,245.000000 
M382.000122,253.580719 
	C381.589294,251.529266 381.385040,249.403091 380.681305,247.457596 
	C380.324493,246.471329 379.139893,245.212204 378.204132,245.097244 
	C369.896881,244.076599 361.561554,243.284607 353.343872,242.436447 
	C359.772095,259.537964 359.013550,277.118256 355.915649,294.570526 
	C364.159821,297.129120 371.884430,299.526459 380.098328,302.075684 
	C381.127197,295.055145 381.782166,288.282135 383.171326,281.663208 
	C385.108398,272.433777 383.412628,263.487091 382.000122,253.580719 
z"/>
<path fill="#FFFFFF" opacity="1.000000" stroke="none" 
	d="
M229.003693,106.978195 
	C221.511856,118.347733 211.628738,125.561516 198.305145,128.065536 
	C183.061371,130.930466 169.622208,127.043297 158.042297,117.335075 
	C150.732864,111.207100 146.179810,102.822731 144.062469,93.456818 
	C141.308884,81.276428 142.993027,69.544373 149.107269,58.634644 
	C155.664307,46.934879 165.967545,39.976326 178.826157,37.075230 
	C194.554245,33.526737 208.962646,37.210968 220.989685,47.742008 
	C228.616211,54.419895 233.325302,63.204350 235.118561,73.581078 
	C236.930252,84.064575 235.658264,93.868530 231.140747,103.360977 
	C230.591965,104.514145 229.745758,105.525795 229.003693,106.978195 
M174.491440,108.046547 
	C180.439224,111.416725 186.383453,113.296509 193.635986,112.182251 
	C208.927032,109.833000 221.767273,95.298340 219.008118,78.185898 
	C216.550095,62.941147 205.435532,53.037880 190.376846,52.146275 
	C179.340408,51.492813 170.430801,56.893280 164.221115,65.745766 
	C160.308701,71.323242 158.219055,78.165230 159.154388,85.068954 
	C160.466263,94.751968 164.989990,102.813591 174.491440,108.046547 
z"/>
<path fill="#FFFFFF" opacity="1.000000" stroke="none" 
	d="
M112.779892,188.398682 
	C122.684189,207.927841 115.270638,229.601791 96.382057,237.775177 
	C82.743874,243.676620 64.534523,239.985382 54.550842,226.479431 
	C45.316418,213.987122 45.831013,195.273209 55.499954,183.195374 
	C62.383324,174.597107 75.743164,169.195877 88.326492,171.528061 
	C99.158081,173.535583 106.600204,179.475922 112.779892,188.398682 
M76.478889,188.949326 
	C69.709236,190.443604 65.525764,196.905533 65.085602,202.949615 
	C64.364761,212.847794 68.635712,220.313766 75.847198,222.942734 
	C82.757729,225.461990 92.278946,223.303497 95.961525,218.382721 
	C101.632874,210.804550 102.285545,201.789093 97.645622,195.120056 
	C93.542847,189.223053 84.606628,186.306580 76.478889,188.949326 
z"/>
<path fill="#FFFFFF" opacity="1.000000" stroke="none" 
	d="
M282.159210,481.335999 
	C272.325531,487.929047 262.097412,489.943756 251.071777,486.017731 
	C238.801682,481.648590 232.155899,472.819977 229.918564,460.056946 
	C227.925827,448.689178 231.430069,439.167206 239.257111,431.433594 
	C248.082840,422.713226 259.224609,420.494232 271.029999,423.627197 
	C283.294067,426.881866 290.869171,435.391113 293.920319,447.538177 
	C297.310608,461.035278 292.691223,472.100037 282.159210,481.335999 
M247.340271,448.132568 
	C244.356415,454.589447 246.082321,461.292267 250.606247,466.088654 
	C254.919937,470.662231 262.797668,472.645905 268.051758,469.869781 
	C274.042023,466.704620 278.034271,462.237518 278.202545,454.526031 
	C278.359985,447.309845 272.921326,440.374237 264.332428,438.134705 
	C258.835175,436.701355 250.639771,441.486176 247.340271,448.132568 
z"/>
<path fill="#000000" opacity="1.000000" stroke="none" 
	d="
M430.648315,212.761475 
	C418.993439,220.620697 406.458710,225.769180 393.075562,227.806839 
	C371.083832,231.155243 350.266205,227.162292 330.972961,215.554886 
	C314.275330,205.509109 301.834320,191.841553 293.626648,174.203720 
	C289.511963,165.361511 287.226471,156.096359 285.937164,146.447006 
	C283.421661,127.620407 287.267609,110.119026 295.927063,93.436836 
	C304.175934,77.545578 316.100861,65.129860 331.510925,56.184910 
	C344.671936,48.545429 358.830444,44.575012 374.236664,43.843594 
	C404.982025,42.383942 430.060699,53.818737 449.775024,76.591400 
	C463.049957,91.925743 470.188690,110.180305 471.153870,130.916107 
	C472.103516,151.317322 466.885345,169.654449 456.041809,186.683533 
	C449.447601,197.039291 440.824524,205.389282 430.648315,212.761475 
M407.998474,162.200165 
	C407.999023,158.894684 408.197815,155.575027 407.962769,152.286392 
	C407.269989,142.593933 402.456268,135.072037 393.792480,131.216461 
	C388.081573,128.674973 381.422638,128.162766 375.134033,127.047356 
	C368.208282,125.818947 364.562378,121.525772 365.000244,114.543877 
	C365.382019,108.456764 370.264496,104.044815 376.765137,104.009468 
	C384.258331,103.968704 391.754150,104.110580 399.244720,103.964104 
	C405.033356,103.850891 408.099731,100.829445 407.999878,95.790199 
	C407.900696,90.787621 404.670715,88.003357 398.958862,88.000397 
	C395.028839,87.998352 391.098846,88.000000 386.999573,88.000000 
	C386.999573,83.425621 387.119202,79.442650 386.967865,75.469994 
	C386.796082,70.960007 383.528229,68.005913 379.014923,68.000114 
	C374.502228,67.994316 371.235382,70.946381 371.028503,75.440254 
	C370.883179,78.597473 371.257660,81.797600 370.884216,84.916824 
	C370.714050,86.337929 369.522766,88.520729 368.408539,88.796158 
	C362.731049,90.199562 358.532318,93.581329 354.752808,97.744522 
	C343.998260,109.590797 346.836212,129.382370 359.535522,138.277588 
	C366.069763,142.854507 373.039062,144.120209 380.666504,144.041351 
	C386.654480,143.979416 392.000244,149.566345 392.000031,155.500183 
	C391.999786,162.035629 387.204437,166.980377 380.809723,166.995682 
	C373.149780,167.014023 365.488068,166.901123 357.830353,167.032867 
	C352.166565,167.130295 347.866730,171.074066 348.000549,175.704926 
	C348.135681,180.380585 352.561981,183.978622 358.229065,183.997253 
	C362.473846,184.011200 366.718658,184.000000 371.000153,184.000000 
	C371.000153,188.559845 370.966675,192.389679 371.009521,196.218628 
	C371.053345,200.136383 373.029053,202.328094 376.834320,203.484085 
	C380.545227,204.611389 383.730103,203.333847 384.843231,200.432312 
	C386.347504,196.511230 386.265106,191.998749 387.044037,187.773300 
	C387.342896,186.152222 387.810699,183.500900 388.758545,183.223679 
	C399.150909,180.184433 404.717651,172.766190 407.998474,162.200165 
z"/>
<path fill="#000000" opacity="1.000000" stroke="none" 
	d="
M86.368538,460.760864 
	C63.153870,448.801392 48.623863,430.682800 43.991375,405.121582 
	C39.839157,382.210388 45.315762,361.804047 59.828468,343.588135 
	C72.020233,328.285339 88.057671,319.339203 106.903725,316.227844 
	C127.521591,312.823975 146.765900,317.644226 163.695465,330.246185 
	C176.959976,340.120026 186.301178,352.852631 191.371246,368.738861 
	C196.932114,386.162903 196.201996,403.291901 189.372604,420.116577 
	C179.721451,443.892914 161.806549,458.755920 137.521545,465.631317 
	C120.232475,470.526093 103.126328,468.154022 86.368538,460.760864 
M137.450409,427.031281 
	C147.679886,417.945953 148.580338,404.717896 140.904236,393.863556 
	C136.273621,387.315704 129.881851,383.936768 121.357262,383.813171 
	C112.987991,383.691803 108.782578,381.140778 108.986282,374.209869 
	C109.153496,368.520721 112.889824,366.000153 121.352982,366.000000 
	C126.681496,365.999939 132.012436,366.099365 137.337784,365.969818 
	C142.011124,365.856110 144.879044,362.631287 144.999405,357.696533 
	C145.102112,353.485474 141.817429,350.164246 137.243088,350.020355 
	C133.957230,349.916931 130.665482,350.000183 126.999969,350.000183 
	C126.999969,346.832916 126.971611,344.043152 127.007225,341.254211 
	C127.050674,337.851013 125.861099,335.415375 122.505417,333.942413 
	C118.768974,332.302277 115.499146,332.962769 113.538673,336.165344 
	C112.035378,338.621033 111.232155,341.835480 111.144623,344.743439 
	C111.036926,348.321564 110.546867,350.435944 106.655304,352.044159 
	C93.925568,357.304810 88.382912,372.936096 94.507050,385.015045 
	C99.486420,394.836029 107.487938,399.394684 118.545464,399.062347 
	C125.167938,398.863312 129.085007,402.676544 129.000000,408.459412 
	C128.924133,413.620667 124.852959,416.984039 118.635056,416.997437 
	C112.973541,417.009613 107.311958,416.995239 101.650421,417.001312 
	C95.843979,417.007538 92.988022,419.674469 92.999992,425.063782 
	C93.011398,430.197601 96.087700,432.952057 101.900406,432.995575 
	C105.178970,433.020111 108.457870,433.000000 111.428238,433.000000 
	C111.791893,433.629608 111.936295,433.763763 111.937973,433.899689 
	C111.968842,436.396790 111.967072,438.894257 112.003212,441.391235 
	C112.081253,446.782288 114.080070,448.866058 119.271767,448.999939 
	C124.510193,449.135040 127.770447,446.348846 127.976883,441.391113 
	C128.101044,438.409241 127.999702,435.418030 127.999702,433.257812 
	C131.341583,431.136169 134.146378,429.355499 137.450409,427.031281 
z"/>
<path fill="#000000" opacity="1.000000" stroke="none" 
	d="
M200.732910,348.306915 
	C194.325089,335.666382 185.294617,325.761200 174.655029,317.131256 
	C172.691513,315.538605 171.008041,313.149017 170.099548,310.780457 
	C164.051025,295.010773 161.442444,278.502533 163.186661,261.811554 
	C165.501297,239.661942 173.081406,219.366241 187.520508,201.834473 
	C197.644928,189.541534 209.664490,179.800323 223.796371,172.780182 
	C235.971970,166.731827 248.829407,162.595078 262.600006,161.963364 
	C264.026215,161.897949 265.414490,161.201599 266.847717,161.039520 
	C268.320526,160.872940 269.826813,161.002548 271.254791,161.002548 
	C274.449097,169.632767 277.593414,178.127838 280.792633,186.771362 
	C251.781815,185.016144 226.813385,194.409439 207.565445,216.223511 
	C193.028427,232.698624 185.887787,252.931076 187.218735,274.843750 
	C190.986649,336.878632 249.230804,366.778107 295.543640,353.901276 
	C297.915985,361.777679 300.294281,369.673920 302.896545,378.313660 
	C296.012268,379.534424 289.103271,381.418518 282.100708,381.878479 
	C260.592407,383.291138 240.055084,379.473145 220.964386,369.011444 
	C212.217712,364.218262 204.034012,358.941284 200.732910,348.306915 
z"/>
<path fill="#000000" opacity="1.000000" stroke="none" 
	d="
M299.668213,294.272003 
	C339.352203,306.482452 378.699951,318.460938 419.148041,330.774384 
	C408.023041,335.830383 397.871460,340.328461 387.824615,345.049377 
	C380.757507,348.370117 379.845612,354.321655 385.373077,359.888336 
	C394.879211,369.461884 404.419800,379.001129 413.485565,388.093079 
	C405.513733,396.042480 397.555237,403.978607 389.461700,412.049347 
	C380.672607,403.231750 370.939117,393.441101 361.175262,383.680817 
	C355.274231,377.781952 350.061676,378.974396 346.669098,386.713257 
	C342.366089,396.528961 337.844086,406.248657 332.807007,417.353455 
	C319.923737,375.352570 307.392181,334.498413 294.806305,293.467133 
	C296.610840,293.695587 297.971405,293.867798 299.668213,294.272003 
z"/>
<path fill="#000000" opacity="1.000000" stroke="none" 
	d="
M328.011169,233.001190 
	C331.596069,238.246902 335.558563,243.146896 337.854004,248.732040 
	C343.345337,262.093262 343.435394,275.952728 339.532837,290.001709 
	C332.792786,287.996948 326.081940,285.911652 319.313904,284.032349 
	C316.658295,283.294983 315.447968,281.943817 316.017944,279.183502 
	C319.572174,261.971069 312.843170,248.459229 300.090179,237.757874 
	C286.073090,225.995804 263.071075,225.616760 247.901596,235.985428 
	C225.558289,251.257492 222.478745,283.864349 240.983810,302.588409 
	C252.943497,314.689606 267.099640,318.155029 283.596191,315.029510 
	C286.040436,322.803528 288.478668,330.558380 291.056152,338.756195 
	C288.154724,339.502686 285.294464,340.689514 282.358307,340.923584 
	C255.964142,343.027802 234.110184,334.660980 217.588745,313.244904 
	C206.308441,298.622742 202.397629,282.020844 204.200684,264.230011 
	C205.566803,250.750214 211.276642,238.735535 220.192719,228.145935 
	C231.211517,215.058945 245.323425,207.660568 261.637451,204.267807 
	C271.926422,202.128082 282.346710,203.018097 292.401489,206.246094 
	C294.288513,206.851913 295.981506,208.501999 297.417023,210.002243 
	C306.278961,219.263885 316.505432,226.699432 328.011169,233.001190 
z"/>
<path fill="#000000" opacity="1.000000" stroke="none" 
	d="
M273.002625,245.000000 
	C290.276550,245.015167 300.495117,257.517761 299.896362,277.273132 
	C294.087097,275.851044 288.331177,273.827240 282.422333,273.162415 
	C276.068665,272.447571 272.681549,277.843323 274.615875,284.214172 
	C276.061401,288.975067 277.332977,293.788788 278.685150,298.590149 
	C260.004150,301.589630 247.756348,289.461243 246.071182,275.446472 
	C243.907333,257.450500 258.233826,245.161072 273.002625,245.000000 
z"/>
<path fill="#000000" opacity="1.000000" stroke="none" 
	d="
M382.001892,254.025452 
	C383.412628,263.487091 385.108398,272.433777 383.171326,281.663208 
	C381.782166,288.282135 381.127197,295.055145 380.098328,302.075684 
	C371.884430,299.526459 364.159821,297.129120 355.915649,294.570526 
	C359.013550,277.118256 359.772095,259.537964 353.343872,242.436447 
	C361.561554,243.284607 369.896881,244.076599 378.204132,245.097244 
	C379.139893,245.212204 380.324493,246.471329 380.681305,247.457596 
	C381.385040,249.403091 381.589294,251.529266 382.001892,254.025452 
z"/>
<path fill="#000000" opacity="1.000000" stroke="none" 
	d="
M174.111877,108.011459 
	C164.989990,102.813591 160.466263,94.751968 159.154388,85.068954 
	C158.219055,78.165230 160.308701,71.323242 164.221115,65.745766 
	C170.430801,56.893280 179.340408,51.492813 190.376846,52.146275 
	C205.435532,53.037880 216.550095,62.941147 219.008118,78.185898 
	C221.767273,95.298340 208.927032,109.833000 193.635986,112.182251 
	C186.383453,113.296509 180.439224,111.416725 174.111877,108.011459 
z"/>
<path fill="#000000" opacity="1.000000" stroke="none" 
	d="
M76.776390,188.677734 
	C84.606628,186.306580 93.542847,189.223053 97.645622,195.120056 
	C102.285545,201.789093 101.632874,210.804550 95.961525,218.382721 
	C92.278946,223.303497 82.757729,225.461990 75.847198,222.942734 
	C68.635712,220.313766 64.364761,212.847794 65.085602,202.949615 
	C65.525764,196.905533 69.709236,190.443604 76.776390,188.677734 
z"/>
<path fill="#000000" opacity="1.000000" stroke="none" 
	d="
M247.629364,447.850067 
	C250.639771,441.486176 258.835175,436.701355 264.332428,438.134705 
	C272.921326,440.374237 278.359985,447.309845 278.202545,454.526031 
	C278.034271,462.237518 274.042023,466.704620 268.051758,469.869781 
	C262.797668,472.645905 254.919937,470.662231 250.606247,466.088654 
	C246.082321,461.292267 244.356415,454.589447 247.629364,447.850067 
z"/>
<path fill="#FFFFFF" opacity="1.000000" stroke="none" 
	d="
M407.988281,162.626221 
	C404.717651,172.766190 399.150909,180.184433 388.758545,183.223679 
	C387.810699,183.500900 387.342896,186.152222 387.044037,187.773300 
	C386.265106,191.998749 386.347504,196.511230 384.843231,200.432312 
	C383.730103,203.333847 380.545227,204.611389 376.834320,203.484085 
	C373.029053,202.328094 371.053345,200.136383 371.009521,196.218628 
	C370.966675,192.389679 371.000153,188.559845 371.000153,184.000000 
	C366.718658,184.000000 362.473846,184.011200 358.229065,183.997253 
	C352.561981,183.978622 348.135681,180.380585 348.000549,175.704926 
	C347.866730,171.074066 352.166565,167.130295 357.830353,167.032867 
	C365.488068,166.901123 373.149780,167.014023 380.809723,166.995682 
	C387.204437,166.980377 391.999786,162.035629 392.000031,155.500183 
	C392.000244,149.566345 386.654480,143.979416 380.666504,144.041351 
	C373.039062,144.120209 366.069763,142.854507 359.535522,138.277588 
	C346.836212,129.382370 343.998260,109.590797 354.752808,97.744522 
	C358.532318,93.581329 362.731049,90.199562 368.408539,88.796158 
	C369.522766,88.520729 370.714050,86.337929 370.884216,84.916824 
	C371.257660,81.797600 370.883179,78.597473 371.028503,75.440254 
	C371.235382,70.946381 374.502228,67.994316 379.014923,68.000114 
	C383.528229,68.005913 386.796082,70.960007 386.967865,75.469994 
	C387.119202,79.442650 386.999573,83.425621 386.999573,88.000000 
	C391.098846,88.000000 395.028839,87.998352 398.958862,88.000397 
	C404.670715,88.003357 407.900696,90.787621 407.999878,95.790199 
	C408.099731,100.829445 405.033356,103.850891 399.244720,103.964104 
	C391.754150,104.110580 384.258331,103.968704 376.765137,104.009468 
	C370.264496,104.044815 365.382019,108.456764 365.000244,114.543877 
	C364.562378,121.525772 368.208282,125.818947 375.134033,127.047356 
	C381.422638,128.162766 388.081573,128.674973 393.792480,131.216461 
	C402.456268,135.072037 407.269989,142.593933 407.962769,152.286392 
	C408.197815,155.575027 407.999023,158.894684 407.988281,162.626221 
z"/>
<path fill="#FFFFFF" opacity="1.000000" stroke="none" 
	d="
M137.200775,427.303040 
	C134.146378,429.355499 131.341583,431.136169 127.999702,433.257812 
	C127.999702,435.418030 128.101044,438.409241 127.976883,441.391113 
	C127.770447,446.348846 124.510193,449.135040 119.271767,448.999939 
	C114.080070,448.866058 112.081253,446.782288 112.003212,441.391235 
	C111.967072,438.894257 111.968842,436.396790 111.937973,433.899689 
	C111.936295,433.763763 111.791893,433.629608 111.428238,433.000000 
	C108.457870,433.000000 105.178970,433.020111 101.900406,432.995575 
	C96.087700,432.952057 93.011398,430.197601 92.999992,425.063782 
	C92.988022,419.674469 95.843979,417.007538 101.650421,417.001312 
	C107.311958,416.995239 112.973541,417.009613 118.635056,416.997437 
	C124.852959,416.984039 128.924133,413.620667 129.000000,408.459412 
	C129.085007,402.676544 125.167938,398.863312 118.545464,399.062347 
	C107.487938,399.394684 99.486420,394.836029 94.507050,385.015045 
	C88.382912,372.936096 93.925568,357.304810 106.655304,352.044159 
	C110.546867,350.435944 111.036926,348.321564 111.144623,344.743439 
	C111.232155,341.835480 112.035378,338.621033 113.538673,336.165344 
	C115.499146,332.962769 118.768974,332.302277 122.505417,333.942413 
	C125.861099,335.415375 127.050674,337.851013 127.007225,341.254211 
	C126.971611,344.043152 126.999969,346.832916 126.999969,350.000183 
	C130.665482,350.000183 133.957230,349.916931 137.243088,350.020355 
	C141.817429,350.164246 145.102112,353.485474 144.999405,357.696533 
	C144.879044,362.631287 142.011124,365.856110 137.337784,365.969818 
	C132.012436,366.099365 126.681496,365.999939 121.352982,366.000000 
	C112.889824,366.000153 109.153496,368.520721 108.986282,374.209869 
	C108.782578,381.140778 112.987991,383.691803 121.357262,383.813171 
	C129.881851,383.936768 136.273621,387.315704 140.904236,393.863556 
	C148.580338,404.717896 147.679886,417.945953 137.200775,427.303040 
z"/>
</svg>