<svg version="1.1" id="Layer_1" xmlns="http://www.w3.org/2000/svg" xmlns:xlink="http://www.w3.org/1999/xlink" x="0px" y="0px"
	 width="100%" viewBox="0 0 512 512" enable-background="new 0 0 512 512" xml:space="preserve">
<path fill="#000000" opacity="1.000000" stroke="none" 
	d="
M275.000000,513.000000 
	C183.355576,513.000000 92.211151,513.000000 1.033362,513.000000 
	C1.033362,342.397217 1.033362,171.794418 1.033362,1.095816 
	C171.561111,1.095816 342.122284,1.095816 512.841736,1.095816 
	C512.841736,171.666550 512.841736,342.333252 512.841736,513.000000 
	C433.794403,513.000000 354.647186,513.000000 275.000000,513.000000 
M75.000000,290.500000 
	C75.000000,323.593414 75.000000,356.686829 75.000000,390.000092 
	C69.622833,390.000092 64.810440,390.069580 60.001156,389.977173 
	C56.408466,389.908173 54.776321,391.598480 55.012672,395.100891 
	C55.287807,399.178009 55.317688,403.310394 56.043148,407.311981 
	C60.505203,431.924530 82.322212,448.778595 105.916336,448.859924 
	C203.071533,449.194672 300.228546,449.017426 397.384857,448.957275 
	C403.296783,448.953613 409.223999,448.505188 415.116577,447.964020 
	C425.639862,446.997620 434.403046,442.130402 442.234192,435.283478 
	C453.804596,425.167206 458.546967,411.898987 459.984100,397.098785 
	C460.404663,392.767700 457.799591,390.039398 453.330139,390.007629 
	C448.577393,389.973816 443.824219,390.000000 439.000000,390.000000 
	C439.000000,387.475494 439.000000,385.647797 439.000000,383.820068 
	C439.000000,309.994568 438.987549,236.169083 439.020630,162.343613 
	C439.023682,155.534378 435.834412,152.849823 429.841156,152.859680 
	C314.520416,153.049301 199.199234,152.999451 83.878159,153.001328 
	C76.677017,153.001434 75.001305,154.705582 75.000969,162.013550 
	C74.998993,204.509033 75.000000,247.004517 75.000000,290.500000 
M280.625977,69.958015 
	C265.961060,63.410378 250.850845,63.517036 236.070297,68.601440 
	C217.549316,74.972519 204.569107,87.779617 197.428879,106.139397 
	C194.594803,113.426666 193.006821,120.988914 194.339783,128.671265 
	C198.757690,128.671265 202.835556,128.671265 206.905380,128.671265 
	C206.575714,99.870117 229.374496,80.245766 253.784241,78.104561 
	C267.104492,76.936127 279.219238,81.521507 289.231873,90.002869 
	C300.969055,99.944969 307.687256,112.846603 307.110809,128.751282 
	C311.575958,128.751282 315.648926,128.751282 319.686737,128.751282 
	C322.186462,105.993324 305.689850,79.429604 280.625977,69.958015 
M256.570740,106.000000 
	C265.999451,105.814842 279.330933,114.260590 279.272034,128.673767 
	C283.493896,128.673767 287.710449,128.673767 292.045227,128.673767 
	C292.425659,113.960510 285.589752,103.716263 273.332947,97.166313 
	C260.053558,90.069908 246.811584,91.750908 235.144089,100.619614 
	C226.172470,107.439148 220.876556,116.816437 222.180954,128.699066 
	C226.753876,128.699066 230.843155,128.699066 234.958908,128.699066 
	C233.735138,118.322861 243.896317,107.336021 256.570740,106.000000 
M263.983887,131.938400 
	C263.989258,130.777206 263.947357,129.613541 264.007935,128.455231 
	C264.324921,122.391479 260.567505,121.165466 256.596497,121.104271 
	C251.671829,121.028381 249.841248,123.773491 250.000061,129.756454 
	C250.111191,133.943665 252.872131,136.518112 257.460236,135.867294 
	C259.666626,135.554337 261.673737,133.836700 263.983887,131.938400 
z"/>
<path fill="#FFFFFF" opacity="1.000000" stroke="none" 
	d="
M75.000000,290.000000 
	C75.000000,247.004517 74.998993,204.509033 75.000969,162.013550 
	C75.001305,154.705582 76.677017,153.001434 83.878159,153.001328 
	C199.199234,152.999451 314.520416,153.049301 429.841156,152.859680 
	C435.834412,152.849823 439.023682,155.534378 439.020630,162.343613 
	C438.987549,236.169083 439.000000,309.994568 439.000000,383.820068 
	C439.000000,385.647797 439.000000,387.475494 439.000000,390.000000 
	C443.824219,390.000000 448.577393,389.973816 453.330139,390.007629 
	C457.799591,390.039398 460.404663,392.767700 459.984100,397.098785 
	C458.546967,411.898987 453.804596,425.167206 442.234192,435.283478 
	C434.403046,442.130402 425.639862,446.997620 415.116577,447.964020 
	C409.223999,448.505188 403.296783,448.953613 397.384857,448.957275 
	C300.228546,449.017426 203.071533,449.194672 105.916336,448.859924 
	C82.322212,448.778595 60.505203,431.924530 56.043148,407.311981 
	C55.317688,403.310394 55.287807,399.178009 55.012672,395.100891 
	C54.776321,391.598480 56.408466,389.908173 60.001156,389.977173 
	C64.810440,390.069580 69.622833,390.000092 75.000000,390.000092 
	C75.000000,356.686829 75.000000,323.593414 75.000000,290.000000 
M263.500000,338.000000 
	C225.671051,338.000000 187.842087,338.001038 150.013138,337.999023 
	C142.990845,337.998657 142.002396,337.038208 142.001678,330.181976 
	C141.998047,295.518707 141.999954,260.855438 142.000031,226.192154 
	C142.000046,218.427612 143.404831,217.000946 151.081909,217.000793 
	C221.741653,216.999466 292.401398,217.000015 363.061127,217.000031 
	C363.894379,217.000031 364.741333,216.902603 365.558563,217.017151 
	C369.502441,217.570038 372.098785,219.042862 372.070404,223.835846 
	C371.920319,249.165802 372.000000,274.497131 372.000000,299.827972 
	C372.000000,301.805969 372.000000,303.783966 372.000000,305.498230 
	C381.062866,308.462738 389.790558,311.147980 398.383698,314.210785 
	C401.890350,315.460632 403.176025,320.807068 400.673523,323.694427 
	C398.306366,326.425659 395.303101,328.605621 392.792175,330.838959 
	C393.750916,332.523834 394.096588,333.481873 394.726837,334.184723 
	C401.099823,341.292328 407.402832,348.468170 413.953522,355.409637 
	C423.488098,365.513031 423.466400,367.271698 413.303833,376.238739 
	C408.473480,380.500854 403.845856,384.992706 398.789246,389.693909 
	C408.347565,389.693909 417.088654,389.693909 425.697235,389.693909 
	C425.697235,314.987244 425.697235,240.587036 425.697235,166.295486 
	C312.996765,166.295486 200.599319,166.295486 88.292183,166.295486 
	C88.292183,240.658173 88.292183,314.725006 88.292183,388.689880 
	C188.930893,388.689880 289.277130,388.689880 389.836609,388.689880 
	C380.584167,378.278015 371.580261,368.145813 362.712402,358.166748 
	C360.309784,360.087128 358.321289,362.148468 355.921143,363.451813 
	C353.844788,364.579376 350.743927,366.002136 349.100708,365.209991 
	C346.894562,364.146515 344.826385,361.300903 344.159760,358.826752 
	C342.329773,352.034790 341.262604,345.037262 339.869537,338.000000 
	C314.467896,338.000000 289.483948,338.000000 263.500000,338.000000 
M155.000000,282.500000 
	C155.000000,296.596252 155.000000,310.692505 155.000000,324.774933 
	C216.010818,324.774933 276.446869,324.774933 337.355499,324.774933 
	C335.940491,318.172394 334.216370,311.919037 333.406708,305.549408 
	C333.034882,302.623840 333.539246,298.587708 335.355469,296.697968 
	C336.820648,295.173462 340.981659,295.507294 343.716003,296.093292 
	C348.843842,297.192169 353.804749,299.070007 358.709351,300.585052 
	C358.709351,277.054657 358.709351,253.631531 358.709351,230.286667 
	C290.685272,230.286667 222.952225,230.286667 155.000000,230.286667 
	C155.000000,247.548279 155.000000,264.524139 155.000000,282.500000 
M229.500000,436.000000 
	C285.968689,436.000000 342.437378,436.024689 398.905975,435.956543 
	C403.812103,435.950623 408.758698,435.626801 413.615509,434.944977 
	C428.612183,432.839539 444.279724,418.470093 445.163666,403.284119 
	C319.496521,403.284119 193.817886,403.284119 67.438210,403.284119 
	C69.037872,407.281952 70.033989,411.051910 71.931686,414.294189 
	C80.536758,428.996246 93.312355,436.178894 110.565857,436.074799 
	C149.875961,435.837616 189.188461,436.000000 229.500000,436.000000 
M364.663971,316.961334 
	C359.202606,315.063599 353.741241,313.165863 347.877441,311.128326 
	C350.368103,323.371979 352.739929,335.031586 355.175201,347.003082 
	C362.648865,340.281586 364.010132,340.120300 370.420990,347.027344 
	C378.900970,356.163696 387.016022,365.638763 395.290741,374.971436 
	C398.622253,371.909302 401.825348,368.965210 405.164551,365.896027 
	C397.325409,356.974823 389.718384,347.970154 381.720917,339.326691 
	C375.358429,332.450287 375.134094,330.579376 381.609436,323.838715 
	C381.895599,323.540833 381.857788,322.931763 381.968201,322.478607 
	C376.415070,320.632599 370.951080,318.816193 364.663971,316.961334 
z"/>
<path fill="#FFFFFF" opacity="1.000000" stroke="none" 
	d="
M281.027161,69.978378 
	C305.689850,79.429604 322.186462,105.993324 319.686737,128.751282 
	C315.648926,128.751282 311.575958,128.751282 307.110809,128.751282 
	C307.687256,112.846603 300.969055,99.944969 289.231873,90.002869 
	C279.219238,81.521507 267.104492,76.936127 253.784241,78.104561 
	C229.374496,80.245766 206.575714,99.870117 206.905380,128.671265 
	C202.835556,128.671265 198.757690,128.671265 194.339783,128.671265 
	C193.006821,120.988914 194.594803,113.426666 197.428879,106.139397 
	C204.569107,87.779617 217.549316,74.972519 236.070297,68.601440 
	C250.850845,63.517036 265.961060,63.410378 281.027161,69.978378 
z"/>
<path fill="#FFFFFF" opacity="1.000000" stroke="none" 
	d="
M256.134338,106.000053 
	C243.896317,107.336021 233.735138,118.322861 234.958908,128.699066 
	C230.843155,128.699066 226.753876,128.699066 222.180954,128.699066 
	C220.876556,116.816437 226.172470,107.439148 235.144089,100.619614 
	C246.811584,91.750908 260.053558,90.069908 273.332947,97.166313 
	C285.589752,103.716263 292.425659,113.960510 292.045227,128.673767 
	C287.710449,128.673767 283.493896,128.673767 279.272034,128.673767 
	C279.330933,114.260590 265.999451,105.814842 256.134338,106.000053 
z"/>
<path fill="#FFFFFF" opacity="1.000000" stroke="none" 
	d="
M263.877472,132.346786 
	C261.673737,133.836700 259.666626,135.554337 257.460236,135.867294 
	C252.872131,136.518112 250.111191,133.943665 250.000061,129.756454 
	C249.841248,123.773491 251.671829,121.028381 256.596497,121.104271 
	C260.567505,121.165466 264.324921,122.391479 264.007935,128.455231 
	C263.947357,129.613541 263.989258,130.777206 263.877472,132.346786 
z"/>
<path fill="#000000" opacity="1.000000" stroke="none" 
	d="
M264.000000,338.000000 
	C289.483948,338.000000 314.467896,338.000000 339.869537,338.000000 
	C341.262604,345.037262 342.329773,352.034790 344.159760,358.826752 
	C344.826385,361.300903 346.894562,364.146515 349.100708,365.209991 
	C350.743927,366.002136 353.844788,364.579376 355.921143,363.451813 
	C358.321289,362.148468 360.309784,360.087128 362.712402,358.166748 
	C371.580261,368.145813 380.584167,378.278015 389.836609,388.689880 
	C289.277130,388.689880 188.930893,388.689880 88.292183,388.689880 
	C88.292183,314.725006 88.292183,240.658173 88.292183,166.295486 
	C200.599319,166.295486 312.996765,166.295486 425.697235,166.295486 
	C425.697235,240.587036 425.697235,314.987244 425.697235,389.693909 
	C417.088654,389.693909 408.347565,389.693909 398.789246,389.693909 
	C403.845856,384.992706 408.473480,380.500854 413.303833,376.238739 
	C423.466400,367.271698 423.488098,365.513031 413.953522,355.409637 
	C407.402832,348.468170 401.099823,341.292328 394.726837,334.184723 
	C394.096588,333.481873 393.750916,332.523834 392.792175,330.838959 
	C395.303101,328.605621 398.306366,326.425659 400.673523,323.694427 
	C403.176025,320.807068 401.890350,315.460632 398.383698,314.210785 
	C389.790558,311.147980 381.062866,308.462738 372.000000,305.498230 
	C372.000000,303.783966 372.000000,301.805969 372.000000,299.827972 
	C372.000000,274.497131 371.920319,249.165802 372.070404,223.835846 
	C372.098785,219.042862 369.502441,217.570038 365.558563,217.017151 
	C364.741333,216.902603 363.894379,217.000031 363.061127,217.000031 
	C292.401398,217.000015 221.741653,216.999466 151.081909,217.000793 
	C143.404831,217.000946 142.000046,218.427612 142.000031,226.192154 
	C141.999954,260.855438 141.998047,295.518707 142.001678,330.181976 
	C142.002396,337.038208 142.990845,337.998657 150.013138,337.999023 
	C187.842087,338.001038 225.671051,338.000000 264.000000,338.000000 
M367.500000,177.000000 
	C281.184662,177.000000 194.869308,176.999893 108.553955,177.000198 
	C100.539268,177.000229 99.000534,178.502472 99.000435,186.336029 
	C98.999657,246.823669 98.999962,307.311310 99.000031,367.798950 
	C99.000038,376.907715 101.101349,378.999268 110.273048,378.999420 
	C182.424973,379.000519 254.576904,379.000000 326.728821,379.000000 
	C328.352539,379.000000 329.976227,379.000000 331.796753,379.000000 
	C331.796753,374.544739 331.796753,370.474060 331.796753,365.841064 
	C258.432129,365.841064 185.250610,365.841064 112.352104,365.841064 
	C112.352104,306.881592 112.352104,248.484177 112.352104,190.335602 
	C209.095932,190.335602 305.487488,190.335602 402.269165,190.335602 
	C402.269165,227.406845 402.269165,264.143341 402.269165,300.664948 
	C406.738800,300.664948 410.812134,300.664948 414.999908,300.664948 
	C414.999908,261.514313 415.022400,222.698593 414.971313,183.882965 
	C414.964966,179.055878 412.653046,177.030838 407.492004,177.014023 
	C394.494781,176.971680 381.497345,177.000015 367.500000,177.000000 
z"/>
<path fill="#000000" opacity="1.000000" stroke="none" 
	d="
M155.000000,282.000000 
	C155.000000,264.524139 155.000000,247.548279 155.000000,230.286667 
	C222.952225,230.286667 290.685272,230.286667 358.709351,230.286667 
	C358.709351,253.631531 358.709351,277.054657 358.709351,300.585052 
	C353.804749,299.070007 348.843842,297.192169 343.716003,296.093292 
	C340.981659,295.507294 336.820648,295.173462 335.355469,296.697968 
	C333.539246,298.587708 333.034882,302.623840 333.406708,305.549408 
	C334.216370,311.919037 335.940491,318.172394 337.355499,324.774933 
	C276.446869,324.774933 216.010818,324.774933 155.000000,324.774933 
	C155.000000,310.692505 155.000000,296.596252 155.000000,282.000000 
M264.535339,253.024979 
	C263.518951,251.017319 262.781250,248.790192 261.416443,247.056885 
	C259.663971,244.831238 257.293701,241.295013 255.396439,241.421677 
	C252.853836,241.591400 249.474335,244.215897 248.255356,246.678131 
	C242.355850,258.594696 237.019501,270.791840 231.563660,282.925568 
	C227.901489,291.070190 224.373032,299.274933 220.544846,307.999481 
	C225.021957,307.999481 228.835480,308.206207 232.603622,307.883179 
	C233.859100,307.775543 235.508606,306.571777 236.097946,305.419128 
	C238.124725,301.455078 239.762054,297.291962 241.637039,293.000427 
	C249.510941,293.000427 257.499664,292.920746 265.483215,293.087708 
	C266.657593,293.112305 268.376923,294.022614 268.870026,295.009674 
	C270.987823,299.248993 272.741730,303.670135 274.443817,307.599335 
	C279.544922,307.599335 284.228668,307.599335 288.931854,307.599335 
	C280.839539,289.391052 272.904205,271.535950 264.535339,253.024979 
M200.382935,241.000000 
	C196.553085,241.000031 192.720230,240.903351 188.894073,241.022003 
	C182.660782,241.215302 180.012756,243.942749 180.006424,250.071106 
	C179.988190,267.721771 180.000000,285.372467 180.000000,303.023132 
	C180.000000,304.618683 180.000000,306.214233 180.000000,307.704956 
	C184.665146,307.704956 188.736389,307.704956 193.188690,307.704956 
	C193.188690,299.674469 193.188690,291.932861 193.188690,284.000000 
	C197.557251,284.000000 201.549179,283.768494 205.506256,284.041779 
	C219.466293,285.005829 229.037704,269.204834 225.293060,256.697144 
	C222.264587,246.581635 213.811417,241.008102 200.382935,241.000000 
M314.983490,252.527939 
	C311.911560,256.694824 308.839630,260.861694 305.622559,265.225464 
	C299.854187,257.360229 294.343872,249.791107 288.735687,242.295212 
	C288.232330,241.622421 287.104279,241.082443 286.251740,241.061020 
	C281.542236,240.942657 276.828186,241.004379 271.668732,241.004379 
	C272.433746,242.783951 272.684998,243.943909 273.337677,244.796616 
	C279.057617,252.269501 284.664764,259.840637 290.673370,267.077118 
	C296.250885,273.794434 300.490509,280.581970 299.152893,290.005737 
	C298.327576,295.820557 299.000000,301.847931 299.000000,307.719055 
	C303.635345,307.719055 307.707397,307.719055 312.000000,307.719055 
	C312.000000,298.968048 311.947510,290.495361 312.047943,282.024506 
	C312.066193,280.486755 312.279480,278.640045 313.135742,277.474426 
	C318.410706,270.293457 323.948242,263.306213 329.293030,256.175507 
	C332.927399,251.326660 336.389618,246.348755 340.237122,241.000015 
	C335.456299,241.000015 331.434998,240.690109 327.496948,241.128296 
	C325.470520,241.353775 323.192261,242.510315 321.737854,243.958984 
	C319.352631,246.334686 317.545990,249.291245 314.983490,252.527939 
z"/>
<path fill="#000000" opacity="1.000000" stroke="none" 
	d="
M229.000000,436.000000 
	C189.188461,436.000000 149.875961,435.837616 110.565857,436.074799 
	C93.312355,436.178894 80.536758,428.996246 71.931686,414.294189 
	C70.033989,411.051910 69.037872,407.281952 67.438210,403.284119 
	C193.817886,403.284119 319.496521,403.284119 445.163666,403.284119 
	C444.279724,418.470093 428.612183,432.839539 413.615509,434.944977 
	C408.758698,435.626801 403.812103,435.950623 398.905975,435.956543 
	C342.437378,436.024689 285.968689,436.000000 229.000000,436.000000 
z"/>
<path fill="#000000" opacity="1.000000" stroke="none" 
	d="
M365.075500,316.980560 
	C370.951080,318.816193 376.415070,320.632599 381.968201,322.478607 
	C381.857788,322.931763 381.895599,323.540833 381.609436,323.838715 
	C375.134094,330.579376 375.358429,332.450287 381.720917,339.326691 
	C389.718384,347.970154 397.325409,356.974823 405.164551,365.896027 
	C401.825348,368.965210 398.622253,371.909302 395.290741,374.971436 
	C387.016022,365.638763 378.900970,356.163696 370.420990,347.027344 
	C364.010132,340.120300 362.648865,340.281586 355.175201,347.003082 
	C352.739929,335.031586 350.368103,323.371979 347.877441,311.128326 
	C353.741241,313.165863 359.202606,315.063599 365.075500,316.980560 
z"/>
<path fill="#FFFFFF" opacity="1.000000" stroke="none" 
	d="
M368.000000,177.000000 
	C381.497345,177.000015 394.494781,176.971680 407.492004,177.014023 
	C412.653046,177.030838 414.964966,179.055878 414.971313,183.882965 
	C415.022400,222.698593 414.999908,261.514313 414.999908,300.664948 
	C410.812134,300.664948 406.738800,300.664948 402.269165,300.664948 
	C402.269165,264.143341 402.269165,227.406845 402.269165,190.335602 
	C305.487488,190.335602 209.095932,190.335602 112.352104,190.335602 
	C112.352104,248.484177 112.352104,306.881592 112.352104,365.841064 
	C185.250610,365.841064 258.432129,365.841064 331.796753,365.841064 
	C331.796753,370.474060 331.796753,374.544739 331.796753,379.000000 
	C329.976227,379.000000 328.352539,379.000000 326.728821,379.000000 
	C254.576904,379.000000 182.424973,379.000519 110.273048,378.999420 
	C101.101349,378.999268 99.000038,376.907715 99.000031,367.798950 
	C98.999962,307.311310 98.999657,246.823669 99.000435,186.336029 
	C99.000534,178.502472 100.539268,177.000229 108.553955,177.000198 
	C194.869308,176.999893 281.184662,177.000000 368.000000,177.000000 
z"/>
<path fill="#FFFFFF" opacity="1.000000" stroke="none" 
	d="
M264.752106,253.352921 
	C272.904205,271.535950 280.839539,289.391052 288.931854,307.599335 
	C284.228668,307.599335 279.544922,307.599335 274.443817,307.599335 
	C272.741730,303.670135 270.987823,299.248993 268.870026,295.009674 
	C268.376923,294.022614 266.657593,293.112305 265.483215,293.087708 
	C257.499664,292.920746 249.510941,293.000427 241.637039,293.000427 
	C239.762054,297.291962 238.124725,301.455078 236.097946,305.419128 
	C235.508606,306.571777 233.859100,307.775543 232.603622,307.883179 
	C228.835480,308.206207 225.021957,307.999481 220.544846,307.999481 
	C224.373032,299.274933 227.901489,291.070190 231.563660,282.925568 
	C237.019501,270.791840 242.355850,258.594696 248.255356,246.678131 
	C249.474335,244.215897 252.853836,241.591400 255.396439,241.421677 
	C257.293701,241.295013 259.663971,244.831238 261.416443,247.056885 
	C262.781250,248.790192 263.518951,251.017319 264.752106,253.352921 
M252.722260,281.000000 
	C255.768524,281.000000 258.814789,281.000000 262.401733,281.000000 
	C259.811035,275.152100 257.543030,270.032562 254.878571,264.018188 
	C252.097778,270.125122 249.695160,275.401550 247.145905,281.000000 
	C248.939682,281.000000 250.381531,281.000000 252.722260,281.000000 
z"/>
<path fill="#FFFFFF" opacity="1.000000" stroke="none" 
	d="
M200.862442,241.000000 
	C213.811417,241.008102 222.264587,246.581635 225.293060,256.697144 
	C229.037704,269.204834 219.466293,285.005829 205.506256,284.041779 
	C201.549179,283.768494 197.557251,284.000000 193.188690,284.000000 
	C193.188690,291.932861 193.188690,299.674469 193.188690,307.704956 
	C188.736389,307.704956 184.665146,307.704956 180.000000,307.704956 
	C180.000000,306.214233 180.000000,304.618683 180.000000,303.023132 
	C180.000000,285.372467 179.988190,267.721771 180.006424,250.071106 
	C180.012756,243.942749 182.660782,241.215302 188.894073,241.022003 
	C192.720230,240.903351 196.553085,241.000031 200.862442,241.000000 
M211.059113,257.592621 
	C205.888748,251.899506 199.308899,254.634521 193.285156,253.998154 
	C193.285156,260.001556 193.285156,265.395050 193.285156,271.000000 
	C197.200592,271.000000 200.833405,271.042542 204.464874,270.991028 
	C211.763168,270.887512 215.206757,264.715088 211.059113,257.592621 
z"/>
<path fill="#FFFFFF" opacity="1.000000" stroke="none" 
	d="
M315.239441,252.265411 
	C317.545990,249.291245 319.352631,246.334686 321.737854,243.958984 
	C323.192261,242.510315 325.470520,241.353775 327.496948,241.128296 
	C331.434998,240.690109 335.456299,241.000015 340.237122,241.000015 
	C336.389618,246.348755 332.927399,251.326660 329.293030,256.175507 
	C323.948242,263.306213 318.410706,270.293457 313.135742,277.474426 
	C312.279480,278.640045 312.066193,280.486755 312.047943,282.024506 
	C311.947510,290.495361 312.000000,298.968048 312.000000,307.719055 
	C307.707397,307.719055 303.635345,307.719055 299.000000,307.719055 
	C299.000000,301.847931 298.327576,295.820557 299.152893,290.005737 
	C300.490509,280.581970 296.250885,273.794434 290.673370,267.077118 
	C284.664764,259.840637 279.057617,252.269501 273.337677,244.796616 
	C272.684998,243.943909 272.433746,242.783951 271.668732,241.004379 
	C276.828186,241.004379 281.542236,240.942657 286.251740,241.061020 
	C287.104279,241.082443 288.232330,241.622421 288.735687,242.295212 
	C294.343872,249.791107 299.854187,257.360229 305.622559,265.225464 
	C308.839630,260.861694 311.911560,256.694824 315.239441,252.265411 
z"/>
<path fill="#000000" opacity="1.000000" stroke="none" 
	d="
M252.272827,281.000000 
	C250.381531,281.000000 248.939682,281.000000 247.145905,281.000000 
	C249.695160,275.401550 252.097778,270.125122 254.878571,264.018188 
	C257.543030,270.032562 259.811035,275.152100 262.401733,281.000000 
	C258.814789,281.000000 255.768524,281.000000 252.272827,281.000000 
z"/>
<path fill="#000000" opacity="1.000000" stroke="none" 
	d="
M211.367065,257.857239 
	C215.206757,264.715088 211.763168,270.887512 204.464874,270.991028 
	C200.833405,271.042542 197.200592,271.000000 193.285156,271.000000 
	C193.285156,265.395050 193.285156,260.001556 193.285156,253.998154 
	C199.308899,254.634521 205.888748,251.899506 211.367065,257.857239 
z"/>
</svg>