<svg width="126" height="150" viewBox="0 0 126 150" fill="none" xmlns="http://www.w3.org/2000/svg">
<path d="M44.043 102.743L39.1751 97.6592L33.9374 97.342L26.392 89.4591L22.6072 92.0315L40.6724 110.384L44.043 102.743Z" fill="black"/>
<path d="M92.1081 43.4916C81.865 51.7301 74.9582 59.5947 74.9582 59.5947C74.9582 59.5947 66.7096 52.2655 64.8242 50.0973L61.5668 50.6247L60.5181 59.0532C60.5181 59.0532 72.4403 73.3296 77.573 70.8319C86.3166 66.5884 95.7959 49.5921 95.7959 49.5921L92.1081 43.4916Z" fill="#3424C7"/>
<path d="M65.7236 51.0632C62.84 47.0096 61.0759 42.3963 59.4008 43.4652C58.061 44.318 62.9289 53.2799 62.9289 53.2799L65.7236 51.0632Z" fill="#3424C7"/>
<path d="M58.2567 59.4777C58.2521 59.844 58.381 60.1994 58.6194 60.4776C58.8578 60.7558 59.1893 60.9376 59.552 60.9892C63.3409 61.5287 63.4762 61.1145 63.2661 59.6939C63.1307 58.7684 61.4252 58.2794 60.045 58.0147C59.8287 57.9744 59.6063 57.9817 59.3931 58.0363C59.1799 58.0909 58.9813 58.1913 58.811 58.3307C58.6407 58.47 58.5028 58.6448 58.4071 58.8429C58.3114 59.041 58.26 59.2577 58.2567 59.4777Z" fill="#3424C7"/>
<path d="M61.8175 61.4841C61.1477 61.4464 60.4838 61.3373 59.8372 61.1588L59.9766 60.5688C62.1165 61.0699 62.4015 61.0255 63.038 60.0858L63.5412 60.4233C63.0299 61.1851 62.5894 61.4841 61.8175 61.4841Z" fill="white"/>
<path d="M89.7455 42.6794L78.866 55.4605L86.7589 63.5777L97.5758 49.9904L92.7261 42.6794H89.7455Z" fill="#070000"/>
<path d="M58.5217 105.421H44.8516V117.965H58.5217V105.421Z" fill="#FF3D81"/>
<path d="M58.5219 117.963H61.8379V105.419H58.5219V117.963Z" fill="black"/>
<path d="M75.0927 11.2113L65.7065 6.69812L57.3684 24.039L66.7545 28.5522L75.0927 11.2113Z" fill="black"/>
<path d="M60.2512 22.1065L59.9885 22.6528L66.1148 25.5986L66.3775 25.0522L60.2512 22.1065Z" fill="white"/>
<path d="M65.2364 12.4191L62.4236 18.267L69.3688 18.0064L65.2364 12.4191Z" fill="#FF3D81"/>
<path d="M30.0596 0.741246L34.4829 15.834L38.781 14.5367L37.3463 9.98808L42.3981 13.4516L57.5171 8.89285L56.6583 6.04564C56.6583 6.04564 52.916 6.38109 49.6303 6.75897C47.0882 7.05197 44.4309 6.15274 42.1859 4.26539L39.5792 2.05876C37.5847 0.373479 35.1942 -0.32165 32.9795 0.139075L30.0596 0.741246Z" fill="#FF3D81"/>
<path d="M32.1755 9.65459L36.7181 8.28454L42.3458 11.934L58.7541 6.98724L59.6069 9.81827L33.1172 18.0729L32.1755 9.65459Z" fill="#070000"/>
<path d="M46.682 71.8042C47.481 71.8042 48.1288 71.1564 48.1288 70.3574C48.1288 69.5583 47.481 68.9105 46.682 68.9105C45.8829 68.9105 45.2351 69.5583 45.2351 70.3574C45.2351 71.1564 45.8829 71.8042 46.682 71.8042Z" fill="#070000"/>
<path d="M59.8533 71.8042C60.6524 71.8042 61.3002 71.1564 61.3002 70.3574C61.3002 69.5583 60.6524 68.9105 59.8533 68.9105C59.0543 68.9105 58.4065 69.5583 58.4065 70.3574C58.4065 71.1564 59.0543 71.8042 59.8533 71.8042Z" fill="#070000"/>
<path d="M46.9612 70.5068L46.4358 70.2057C46.5045 70.0885 53.2295 58.336 55.2926 54.3552C56.8001 51.4453 58.7561 49.7601 60.1565 50.1602C60.9769 50.3966 61.8963 51.3988 61.6195 54.8381C61.2538 59.3787 60.1828 70.2765 60.1706 70.3856L59.5644 70.327C59.5745 70.2178 60.6455 59.3241 61.0113 54.7896C61.1992 52.4597 60.8253 50.9846 59.9867 50.7482C59.0592 50.4814 57.3315 51.7323 55.8261 54.6381C53.7609 58.627 47.0299 70.3896 46.9612 70.5068Z" fill="#070000"/>
<path d="M37.7785 31.221L24.5046 27.9532L21.5059 40.1342L34.7798 43.402L37.7785 31.221Z" fill="#FF3D81"/>
<path d="M34.7686 43.4076L37.9885 44.2003L40.9872 32.0193L37.7673 31.2266L34.7686 43.4076Z" fill="black"/>
<path d="M32.2157 29.7063C30.3607 23.139 35.0225 20.6959 35.1437 23.8462C35.2649 26.9965 32.2157 29.7063 32.2157 29.7063Z" stroke="#070000" stroke-width="3" stroke-linejoin="bevel"/>
<path d="M72.9982 54.6321L73.6651 53.4196L73.2003 44.7689C73.2003 44.7689 66.9361 41.6449 65.7014 41.0851C65.6406 41.0433 65.5718 41.0144 65.4993 41.0003C65.1922 40.9356 64.8406 41.1599 64.8588 41.8348L64.9396 46.3572C64.992 49.4883 64.2532 52.5819 62.7916 55.3514L50.0105 79.5112L37.2314 103.671C35.765 106.438 33.6235 108.789 31.0056 110.507L27.2208 112.984C26.4953 113.449 26.8288 113.995 27.2673 114.116C28.7767 114.86 34.6469 117.852 34.6469 117.852L41.9801 113.3L42.5985 112.073L43.6877 111.422L57.9257 83.4173L73.0649 55.889L72.9982 54.6321Z" fill="#B7B2FF"/>
<path d="M59.3116 84.1485L46.5306 108.308C44.914 111.356 43.2267 113.457 39.5025 115.617C39.5025 115.617 35.8995 117.769 34.9458 117.874C34.4204 117.933 33.9758 117.268 34.8265 116.727L38.6093 114.249C41.2283 112.532 43.3701 110.179 44.8352 107.411L57.6162 83.2534L59.3116 84.1485Z" fill="#070000"/>
<path d="M74.6592 58.6877C74.4316 58.5674 74.2447 58.3824 74.1223 58.1559C73.9999 57.9294 73.9475 57.6717 73.9715 57.4154C73.9956 57.1591 74.0952 56.9157 74.2576 56.716C74.42 56.5163 74.638 56.3692 74.8841 56.2935C75.1301 56.2177 75.3931 56.2165 75.6397 56.2902C75.8864 56.3639 76.1056 56.5091 76.2698 56.7075C76.4339 56.9058 76.5355 57.1483 76.5617 57.4044C76.588 57.6605 76.5377 57.9186 76.4172 58.1461C76.2554 58.4506 75.9795 58.6785 75.65 58.78C75.3205 58.8815 74.9643 58.8483 74.6592 58.6877Z" fill="#070000"/>
<path d="M46.8942 111.174C46.6667 111.054 46.4086 111.003 46.1527 111.03C45.8967 111.056 45.6543 111.158 45.4561 111.322C45.2579 111.486 45.1128 111.705 45.0391 111.952C44.9654 112.198 44.9665 112.461 45.0422 112.707C45.1178 112.953 45.2647 113.171 45.4642 113.333C45.6638 113.496 45.907 113.596 46.1632 113.62C46.4194 113.644 46.677 113.592 46.9035 113.47C47.13 113.348 47.3152 113.161 47.4357 112.934C47.597 112.629 47.6305 112.272 47.529 111.942C47.4274 111.612 47.1991 111.336 46.8942 111.174Z" fill="#070000"/>
<path d="M59.3116 84.1486L72.0906 59.9908C73.7072 56.9436 74.4872 54.3611 74.178 50.0671C74.178 50.0671 73.9295 45.8781 73.4809 45.0314C73.2323 44.5626 72.4362 44.5687 72.4705 45.577L72.5513 50.0994C72.6057 53.2307 71.8668 56.3248 70.4033 59.0936L57.6243 83.2534L59.3116 84.1486Z" fill="#070000"/>
<path d="M45.5142 100.593L38.7933 107.027L36.3341 104.459L38.3467 100.535L32.715 100.676L24.7271 92.3327L28.1178 89.0874L36.0168 89.7704L41.9032 85.4501L51.1945 95.1576L45.5142 100.593Z" fill="#4C3BE3"/>
<path d="M43.6213 47.4706L43.1926 47.8993L89.7065 94.4132L90.1352 93.9845L43.6213 47.4706Z" fill="#070000"/>
<path d="M39.3015 51.7923L38.8728 52.221L85.3867 98.7349L85.8154 98.3063L39.3015 51.7923Z" fill="#070000"/>
<path d="M34.9831 56.1088L34.5544 56.5374L81.0684 103.051L81.497 102.623L34.9831 56.1088Z" fill="#070000"/>
<path d="M30.6647 60.4305L30.2361 60.8591L76.75 107.373L77.1787 106.944L30.6647 60.4305Z" fill="#070000"/>
<path d="M26.3444 64.7469L25.9158 65.1756L72.4297 111.69L72.8583 111.261L26.3444 64.7469Z" fill="#070000"/>
<path d="M22.0261 69.0686L21.5974 69.4973L68.1113 116.011L68.54 115.583L22.0261 69.0686Z" fill="#070000"/>
<path d="M67.1155 69.06L43.1934 92.9821L43.622 93.4108L67.5441 69.4887L67.1155 69.06Z" fill="#070000"/>
<path d="M62.7966 64.7477L38.8745 88.6698L39.3032 89.0985L63.2253 65.1764L62.7966 64.7477Z" fill="#070000"/>
<path d="M58.4751 60.4295L34.553 84.3516L34.9816 84.7803L58.9037 60.8582L58.4751 60.4295Z" fill="#070000"/>
<path d="M54.1582 56.1093L30.2361 80.0314L30.6647 80.4601L54.5868 56.538L54.1582 56.1093Z" fill="#070000"/>
<path d="M49.8386 51.7977L25.9165 75.7198L26.3452 76.1484L50.2673 52.2264L49.8386 51.7977Z" fill="#070000"/>
<path d="M45.518 47.4788L21.5959 71.4009L22.0246 71.8296L45.9467 47.9075L45.518 47.4788Z" fill="#070000"/>
<path d="M88.7114 90.6621L64.7893 114.584L65.218 115.013L89.1401 91.0908L88.7114 90.6621Z" fill="#070000"/>
<path d="M84.3916 86.3455L60.4695 110.268L60.8981 110.696L84.8202 86.7741L84.3916 86.3455Z" fill="#070000"/>
<path d="M80.071 82.0238L56.1489 105.946L56.5776 106.375L80.4997 82.4524L80.071 82.0238Z" fill="#070000"/>
<path d="M75.7534 77.7067L51.8313 101.629L52.26 102.057L76.1821 78.1353L75.7534 77.7067Z" fill="#070000"/>
<path d="M71.4331 73.385L47.511 97.3071L47.9396 97.7357L71.8617 73.8136L71.4331 73.385Z" fill="#070000"/>
<path d="M17.7058 73.3873L17.2771 73.8159L63.791 120.33L64.2197 119.901L17.7058 73.3873Z" fill="#070000"/>
<path d="M13.3864 77.7052L12.9578 78.1339L59.4717 124.648L59.9003 124.219L13.3864 77.7052Z" fill="#070000"/>
<path d="M9.06733 82.0251L8.63867 82.4538L55.1526 128.968L55.5812 128.539L9.06733 82.0251Z" fill="#070000"/>
<path d="M4.74751 86.3451L4.31885 86.7737L50.8328 133.288L51.2614 132.859L4.74751 86.3451Z" fill="#070000"/>
<path d="M0.42866 90.6633L0 91.092L46.5139 137.606L46.9426 137.177L0.42866 90.6633Z" fill="#070000"/>
<path d="M45.5178 90.663L21.5957 114.585L22.0244 115.014L45.9465 91.0916L45.5178 90.663Z" fill="#070000"/>
<path d="M41.2009 86.3446L17.2788 110.267L17.7075 110.695L41.6296 86.7732L41.2009 86.3446Z" fill="#070000"/>
<path d="M36.8799 82.0242L12.9578 105.946L13.3864 106.375L37.3085 82.4529L36.8799 82.0242Z" fill="#070000"/>
<path d="M32.561 77.7062L8.63892 101.628L9.06758 102.057L32.9897 78.1349L32.561 77.7062Z" fill="#070000"/>
<path d="M28.2414 73.3856L4.31934 97.3077L4.748 97.7364L28.6701 73.8143L28.2414 73.3856Z" fill="#070000"/>
<path d="M23.9231 69.0674L0.000976562 92.9895L0.429637 93.4182L24.3517 69.4961L23.9231 69.0674Z" fill="#070000"/>
<path d="M67.1159 112.252L43.1938 136.174L43.6225 136.602L67.5446 112.68L67.1159 112.252Z" fill="#070000"/>
<path d="M62.7956 107.94L38.8735 131.862L39.3022 132.291L63.2243 108.369L62.7956 107.94Z" fill="#070000"/>
<path d="M58.4758 103.621L34.5537 127.543L34.9824 127.972L58.9045 104.05L58.4758 103.621Z" fill="#070000"/>
<path d="M54.1557 99.3015L30.2336 123.224L30.6623 123.652L54.5844 99.7302L54.1557 99.3015Z" fill="#070000"/>
<path d="M49.8391 94.9812L25.917 118.903L26.3457 119.332L50.2677 95.4098L49.8391 94.9812Z" fill="#070000"/>
<path d="M61.8377 117.966L27.2935 117.955L22.9731 70.4442H66.2308L61.8377 117.966Z" stroke="#070000" stroke-width="3" stroke-linejoin="round"/>
<path d="M30.6155 71.8042C31.4146 71.8042 32.0624 71.1564 32.0624 70.3574C32.0624 69.5583 31.4146 68.9105 30.6155 68.9105C29.8165 68.9105 29.1687 69.5583 29.1687 70.3574C29.1687 71.1564 29.8165 71.8042 30.6155 71.8042Z" fill="#070000"/>
<path d="M43.7867 71.8042C44.5858 71.8042 45.2335 71.1564 45.2335 70.3574C45.2335 69.5583 44.5858 68.9105 43.7867 68.9105C42.9876 68.9105 42.3398 69.5583 42.3398 70.3574C42.3398 71.1564 42.9876 71.8042 43.7867 71.8042Z" fill="#070000"/>
<path d="M43.5236 70.5066C43.4549 70.3894 36.7239 58.6267 34.6547 54.6338C33.1492 51.728 31.4215 50.4772 30.496 50.7439C29.6554 50.9844 29.2836 52.4595 29.4695 54.7853C29.8352 59.3198 30.9062 70.2136 30.9183 70.3227L30.3121 70.3813C30.302 70.2722 29.229 59.3744 28.8633 54.8339C28.5864 51.3986 29.5058 50.3883 30.3263 50.1559C31.7266 49.7517 33.6827 51.4411 35.1901 54.3509C37.2553 58.3317 43.9803 70.0842 44.047 70.2014L43.5236 70.5066Z" fill="#070000"/>
<path d="M57.5515 57.0549C57.5933 57.4248 57.7687 57.7666 58.0448 58.0163C58.3209 58.266 58.6786 58.4062 59.0508 58.4108C62.9569 58.4552 63.4964 57.946 63.1085 56.5618C62.8437 55.6121 60.6836 55.3878 59.0973 55.3494C58.8799 55.3454 58.6641 55.3879 58.4644 55.474C58.2647 55.5602 58.0857 55.688 57.9393 55.8488C57.793 56.0097 57.6827 56.2 57.6158 56.4069C57.5489 56.6139 57.527 56.8327 57.5515 57.0488V57.0549Z" fill="#3424C7"/>
<path d="M61.171 58.7198C60.8477 58.7198 60.4718 58.6955 60.0232 58.6531L60.0778 58.0469C62.0298 58.2227 62.2339 58.0873 62.7512 57.0628L63.2907 57.3356C62.7492 58.4147 62.2783 58.7198 61.171 58.7198Z" fill="white"/>
<path d="M56.9899 54.2419C57.0323 54.6118 57.2082 54.9535 57.4847 55.2028C57.7611 55.4521 58.1191 55.5918 58.4913 55.5958C62.3954 55.6423 62.9369 55.1311 62.549 53.7489C62.2842 52.7991 60.1241 52.5748 58.5358 52.5364C58.3184 52.5325 58.1026 52.575 57.9029 52.6611C57.7032 52.7472 57.5241 52.875 57.3778 53.0359C57.2315 53.1968 57.1212 53.3871 57.0543 53.594C56.9874 53.8009 56.9655 54.0198 56.9899 54.2359V54.2419Z" fill="#3424C7"/>
<path d="M60.4636 55.8463C60.2615 55.8463 60.0433 55.8463 59.7967 55.8463H59.728V55.2401H59.7967C61.5608 55.2724 61.6679 55.2745 62.1792 54.2641L62.7187 54.5369C62.1408 55.6927 61.7063 55.8463 60.4636 55.8463Z" fill="white"/>
<path d="M56.1128 51.2735C56.113 51.4706 56.1526 51.6656 56.2294 51.8471C56.3061 52.0287 56.4184 52.193 56.5596 52.3305C56.7009 52.4679 56.8682 52.5757 57.0517 52.6475C57.2353 52.7194 57.4313 52.7537 57.6283 52.7486C60.9706 52.6698 62.0739 52.203 61.6536 50.8754C61.3485 49.8933 59.1014 49.766 57.5637 49.7963C57.1766 49.8037 56.8079 49.9626 56.5367 50.2387C56.2654 50.5149 56.1133 50.8864 56.1128 51.2735Z" fill="#3424C7"/>
<path d="M59.6815 53.1953L59.6572 52.5891C60.9909 52.5325 61.1 52.5285 61.2738 51.4495L61.88 51.5505C61.6396 52.9711 61.2496 53.1307 59.6815 53.1953Z" fill="white"/>
<path d="M119.38 90.1486L110.372 90.848L111.171 101.141L120.179 100.441L119.38 90.1486Z" fill="#3424C7"/>
<path d="M71.8402 86.7473C65.1981 92.6336 66.7884 107.027 78.7289 106.191C86.2399 105.665 95.0968 104.978 116.642 103.392L112.41 87.5293L82.5036 94.1977C82.5036 94.1977 118.234 67.3221 111.184 63.9939C103.519 60.3748 92.1384 68.391 92.1384 68.391L71.8402 86.7473Z" fill="#766DFF"/>
<path d="M114.273 89.0931L123.676 87.1896L123.954 92.6011L122.027 93.3912L124.256 94.638L125.391 109.25L122.128 109.753L118.903 101.622L117.296 101.498L114.273 89.0931Z" fill="#766DFF"/>
<path d="M121.037 106.662L120.6 106.241L122.492 104.281L118.64 102.204L120.859 99.2374L121.344 99.6011L119.547 102.004L123.484 104.128L121.037 106.662Z" fill="#070000"/>
<path d="M109.206 88.2829L108.623 88.4491L113.183 104.446L113.766 104.28L109.206 88.2829Z" fill="#070000"/>
<path d="M100.682 136.467H90.3582V145.502H100.682V136.467Z" fill="#3424C7"/>
<path d="M91.142 81.9564C79.6239 101.899 81.4789 106.522 87.6724 141.731L103.816 138.743L96.8425 103.307C96.8425 103.307 117.005 75.9226 116.472 67.4618C115.938 59.001 113.497 57.0167 113.497 57.0167L96.0059 66.7363L91.142 81.9564Z" fill="#B7B2FF"/>
<path d="M102.113 140.476L103.281 150L97.8651 149.859L97.2266 147.876L95.8101 150H81.1537L80.9072 146.708L89.2609 144.124L89.5095 142.53L102.113 140.476Z" fill="#766DFF"/>
<path d="M86.4097 148.495L84.0737 145.859L84.5264 145.457L86.3329 147.494L88.7032 143.817L91.4878 146.258L91.0897 146.712L88.8325 144.736L86.4097 148.495Z" fill="#070000"/>
<path d="M103.215 135.2L86.9819 137.931L87.0825 138.529L103.315 135.798L103.215 135.2Z" fill="#070000"/>
<path d="M91.9926 140.911C91.6592 138.067 92.324 134.816 93.0272 131.375C94.2053 125.618 95.539 119.093 92.2189 113.237C89.7334 108.858 88.8968 104.119 89.794 99.5383C90.566 95.6141 92.623 91.8232 95.5773 88.8669C100.136 84.3061 106.764 74.6854 99.934 61.4638L100.474 61.187C107.481 74.7481 100.676 84.6274 96.0057 89.2953C93.1565 92.1218 91.2033 95.7253 90.3902 99.6555C89.5172 104.101 90.3295 108.686 92.7423 112.938C96.1775 119 94.8155 125.636 93.6173 131.496C92.9241 134.889 92.2674 138.094 92.5907 140.84L91.9926 140.911Z" fill="white"/>
<path d="M92.1381 68.3971C86.2032 48.6728 83.8329 34.3014 94.1386 34.0448C107.019 33.7296 116.296 60.0556 116.296 60.0556L92.1381 68.3971Z" fill="#070000"/>
<path d="M41.1877 53.8477C38.3041 49.7921 36.54 45.1808 34.8628 46.2498C33.5231 47.1025 38.393 56.0624 38.393 56.0624L41.1877 53.8477Z" fill="#3424C7"/>
<path d="M37.3526 53.0901C32.2826 52.2818 26.6023 51.033 26.8327 52.6031C27.0631 54.1732 37.3142 56.099 37.3142 56.099L37.3526 53.0901Z" fill="#3424C7"/>
<path d="M37.892 55.4988C32.7594 55.325 32.0582 55.7857 32.4826 57.3174C32.9069 58.8491 38.2295 58.4915 38.2295 58.4915L37.892 55.4988Z" fill="#3424C7"/>
<path d="M32.8423 56.8104L32.3008 56.5376C33.002 55.1493 33.5819 55.0443 35.5703 55.2241L35.5158 55.8303C33.5637 55.6565 33.3596 55.7859 32.8423 56.8104Z" fill="white"/>
<path d="M38.4517 58.3153C33.3211 58.1395 32.6179 58.6023 33.0443 60.134C33.4706 61.6657 38.7912 61.31 38.7912 61.31L38.4517 58.3153Z" fill="#3424C7"/>
<path d="M33.4039 59.6233L32.8623 59.3485C33.5453 57.9987 34.0222 58.0067 35.7964 58.0391H35.8651L35.855 58.6453H35.7843C34.0222 58.615 33.9151 58.6109 33.4039 59.6233Z" fill="white"/>
<path d="M38.7325 60.787C34.2061 60.7668 33.4665 61.4902 33.9373 63.0098C34.1636 63.7332 35.2144 64.2384 36.249 64.5718C36.5132 64.6554 36.793 64.6775 37.067 64.6365C37.341 64.5954 37.6021 64.4923 37.8302 64.335C38.0582 64.1776 38.2474 63.9703 38.3831 63.7287C38.5188 63.4871 38.5976 63.2178 38.6133 62.9411L38.7325 60.787Z" fill="#3424C7"/>
<path d="M34.3115 62.428L33.7053 62.3269C33.9458 60.9124 34.3358 60.7487 35.9039 60.6841L35.9281 61.2903C34.6025 61.3449 34.4934 61.3489 34.3115 62.428Z" fill="white"/>
<path d="M76.6173 49.9984C66.3742 58.2389 65.1558 58.148 65.1558 58.148C65.1558 58.148 42.1741 55.0563 40.2887 52.882L37.0293 53.4094L37.3526 63.2443C37.3526 63.2443 64.5839 71.2019 69.7206 68.7002C78.4642 64.4567 83.3706 61.3771 83.3706 61.3771L76.6173 49.9984Z" fill="#3424C7"/>
<path d="M88.608 37.2518C84.6676 42.0288 65.1555 58.14 65.1555 58.14L71.6016 67.7728L90.1418 57.265L88.608 37.2518Z" fill="#070000"/>
<path d="M93.0505 29.2367C93.3007 25.7716 90.6945 22.7597 87.2293 22.5095C83.7642 22.2593 80.7523 24.8655 80.5021 28.3306C80.2519 31.7958 82.8581 34.8076 86.3232 35.0578C89.7884 35.308 92.8003 32.7018 93.0505 29.2367Z" fill="#3424C7"/>
<path d="M111.784 41.5801C114.918 33.093 105.297 34.3358 108.31 26.1357L118.779 26.8147V39.4684L111.784 41.5801Z" fill="#D1CFFF"/>
<path d="M83.916 28.5079C83.7835 28.2903 83.579 28.1259 83.338 28.0432C83.097 27.9605 82.8347 27.9648 82.5965 28.0553L82.4126 27.4773C82.7822 27.3486 83.1848 27.351 83.5529 27.4842C83.9209 27.6175 84.2318 27.8733 84.4333 28.2088L83.916 28.5079Z" fill="#070000"/>
<path d="M84.5241 31.143C84.4251 31.0182 84.2914 30.9254 84.1399 30.8763C83.9883 30.8272 83.8256 30.824 83.6723 30.8671C83.5189 30.9101 83.3817 30.9976 83.2779 31.1184C83.174 31.2392 83.1082 31.388 83.0886 31.5461C83.0691 31.7042 83.0967 31.8645 83.168 32.007C83.2392 32.1494 83.351 32.2676 83.4893 32.3468C83.6276 32.4259 83.7861 32.4624 83.945 32.4517C84.104 32.441 84.2562 32.3836 84.3826 32.2867C84.4678 32.2214 84.539 32.1399 84.5923 32.0468C84.6456 31.9537 84.6798 31.8509 84.693 31.7445C84.7061 31.638 84.698 31.53 84.669 31.4267C84.64 31.3235 84.5907 31.227 84.5241 31.143Z" fill="#FF3D81"/>
<path d="M80.5496 27.7704C80.0363 28.7808 79.2301 29.387 79.3978 29.773C79.5999 30.2357 81.4185 30.5025 81.4185 30.5025L80.5496 27.7704Z" fill="#3424C7"/>
<path d="M87.1492 23.7916C88.0479 21.3628 89.1287 19.0053 90.3823 16.7393L92.7648 18.0891L91.8271 19.1581L93.3508 18.4205L94.5794 19.342L89.1174 25.3455L87.1492 23.7916Z" fill="#070000"/>
<path d="M91.9585 26.5097C94.052 24.9828 96.2574 23.6156 98.5562 22.4197L99.7969 24.8628L98.4228 25.2366L100.559 26.3622L100.787 28.5082L92.7344 28.8962L91.9585 26.5097Z" fill="#070000"/>
<path d="M85.6115 27.1278C85.0902 30.27 86.3531 30.272 87.0786 30.0962C88.8972 34.6893 91.6979 32.6686 91.6979 32.6686C91.6979 32.6686 95.796 28.1644 90.8654 23.8501C87.8161 21.1828 83.4756 22.6519 81.758 24.9494C81.3559 25.4889 85.6115 27.1278 85.6115 27.1278Z" fill="#070000"/>
<path d="M87.7799 31.5067C88.5756 31.5067 89.2207 30.8617 89.2207 30.066C89.2207 29.2702 88.5756 28.6252 87.7799 28.6252C86.9842 28.6252 86.3391 29.2702 86.3391 30.066C86.3391 30.8617 86.9842 31.5067 87.7799 31.5067Z" fill="#3424C7"/>
</svg>
