<svg width="145" height="150" viewBox="0 0 145 150" fill="none" xmlns="http://www.w3.org/2000/svg">
<path d="M138.087 128.154C138.002 128.154 137.92 128.188 137.86 128.249C137.8 128.309 137.766 128.39 137.766 128.476C137.766 128.561 137.8 128.642 137.86 128.703C137.92 128.763 138.002 128.797 138.087 128.797C138.172 128.797 138.254 128.763 138.314 128.703C138.375 128.642 138.408 128.561 138.408 128.476C138.408 128.39 138.375 128.309 138.314 128.249C138.254 128.188 138.172 128.154 138.087 128.154Z" fill="black"/>
<path d="M24.7759 134.806C18.4987 136.98 14.505 141.124 12.326 144.073C12.1129 144.36 11.9886 144.703 11.9683 145.06C11.948 145.417 12.0327 145.772 12.2118 146.081C12.391 146.39 12.6568 146.641 12.9765 146.8C13.2962 146.96 13.6557 147.023 14.0106 146.981L37.8631 144.05L37.2132 136.46C37.2132 136.46 27.5284 133.853 24.7759 134.806Z" fill="white"/>
<path d="M41.0802 141.077L0.717529 145.883L1.20778 150L41.5705 145.194L41.0802 141.077Z" fill="#4C3BE3"/>
<path d="M24.7761 134.806L37.2057 136.46L45.2924 114.991L34.522 111.438L24.7761 134.806Z" fill="#070000"/>
<path d="M46.039 76.7183C39.7704 80.244 35.153 86.1085 33.1966 93.0294L19.5615 121.607L39.874 129.115L56.2182 97.9381L89.5107 98.119L89.1182 78.1889L46.039 76.7183Z" fill="#4C3BE3"/>
<path d="M22.1761 135.698L22.25 139.755L19.1917 137.395C19.1324 137.351 19.0615 137.324 18.9875 137.318C18.9135 137.312 18.8393 137.327 18.7737 137.362C18.7083 137.397 18.6547 137.451 18.6193 137.516C18.584 137.581 18.5686 137.655 18.5749 137.729L18.8578 141.223L16.4595 139.485L16.011 140.105L19.0693 142.329C19.1346 142.377 19.213 142.403 19.2936 142.403C19.3596 142.404 19.4246 142.387 19.4822 142.355C19.546 142.319 19.5981 142.266 19.6325 142.201C19.6668 142.137 19.6819 142.063 19.6759 141.99L19.3981 138.529L22.3902 140.846C22.4471 140.89 22.5154 140.918 22.5871 140.925C22.6589 140.932 22.7312 140.918 22.7957 140.886C22.8601 140.854 22.9142 140.804 22.9516 140.742C22.989 140.681 23.0082 140.61 23.0069 140.538L22.9203 135.683L22.1761 135.698Z" fill="#070000"/>
<path d="M60.4336 12.1671L55.9353 9.09094L49.156 16.1557C49.156 16.1557 49.602 47.9394 59.7429 48.6327C72.9473 49.5374 86.6257 51.4361 86.6257 51.4361L94.6079 36.1954L65.8316 35.5761L60.4336 12.1671Z" fill="#070000"/>
<path d="M60.5865 2.53315C58.4763 2.82114 55.999 11.2774 55.999 11.2774L60.5508 12.7149C60.8006 6.91676 64.6108 1.9852 60.5865 2.53315Z" fill="#070000"/>
<path d="M46.4441 0.361785C45.2769 3.8126 54.7985 12.2969 54.7985 12.2969L58.2213 11.201C54.0645 5.15826 47.1272 -1.65672 46.4441 0.361785Z" fill="#070000"/>
<path d="M47.7184 17.2566C47.249 17.0755 46.7268 17.0882 46.2668 17.2921C45.8068 17.4959 45.4465 17.8742 45.2654 18.3436C45.0842 18.813 45.097 19.3352 45.3008 19.7952C45.5047 20.2553 45.8829 20.6155 46.3524 20.7966C49.8695 22.1703 51.7605 22.0964 52.1734 20.5137C52.4869 19.298 49.6605 17.9982 47.7184 17.2566Z" fill="#070000"/>
<path d="M47.2523 20.5418L46.9592 21.2478C48.677 21.9588 49.5996 22.3055 50.2877 22.3055C50.9758 22.3055 51.376 21.9945 52.0717 21.3829L51.562 20.8069C50.4355 21.8008 50.3922 21.8391 47.2523 20.5418Z" fill="white"/>
<path d="M49.0107 13.9743C48.7782 13.8846 48.5304 13.8415 48.2813 13.8476C48.0323 13.8537 47.7868 13.9088 47.559 14.0097C47.3312 14.1107 47.1256 14.2555 46.9537 14.4359C46.7819 14.6163 46.6473 14.8288 46.5576 15.0613C46.3765 15.5307 46.3892 16.0528 46.5931 16.5129C46.7969 16.9729 47.1752 17.3331 47.6446 17.5143C51.1591 18.888 53.0528 18.8166 53.4631 17.2314C53.7791 16.0157 50.9527 14.7159 49.0107 13.9743Z" fill="#070000"/>
<path d="M48.4425 17.3481L48.1494 18.0566C49.8672 18.7651 50.7898 19.1143 51.4779 19.1143C52.1278 19.1143 52.5662 18.8008 53.2619 18.1917L52.7522 17.6157C51.6257 18.6097 51.5824 18.6479 48.4425 17.3481Z" fill="white"/>
<path d="M50.0938 10.7754C49.6313 10.5999 49.1186 10.6123 48.6651 10.81C48.2117 11.0076 47.8536 11.3748 47.6675 11.8331C47.5731 12.0656 47.5257 12.3145 47.5279 12.5654C47.5302 12.8163 47.5821 13.0643 47.6806 13.2951C47.7792 13.5258 47.9225 13.7348 48.1022 13.9099C48.2819 14.0851 48.4945 14.2229 48.7277 14.3155C52.2448 15.6866 54.1358 15.6153 54.5487 14.03C54.8622 12.8169 52.0358 11.5145 50.0938 10.7754Z" fill="#070000"/>
<path d="M49.5258 14.15L49.2327 14.856C50.9351 15.5594 51.8628 15.9035 52.5459 15.9035C53.2289 15.9035 53.6469 15.5951 54.3299 14.9911L53.8202 14.4151C52.709 15.409 52.6656 15.4473 49.5258 14.15Z" fill="white"/>
<path d="M51.5467 7.87505C51.0556 7.7304 50.5272 7.78675 50.0777 8.0317C49.6282 8.27666 49.2944 8.69014 49.1497 9.18121C49.0051 9.67227 49.0614 10.2007 49.3064 10.6502C49.5513 11.0997 49.9648 11.4335 50.4559 11.5782C53.2593 12.3631 55.0153 12.014 55.3518 10.5587C55.6321 9.33794 53.2033 8.37967 51.5467 7.87505Z" fill="#070000"/>
<path d="M50.6675 10.8468L50.3821 11.5553C51.4984 12.0013 52.4006 12.3199 53.2187 12.3199C53.5867 12.3177 53.9506 12.242 54.2889 12.0971C54.6273 11.9522 54.9332 11.7412 55.1888 11.4763L54.679 10.9182C53.6316 11.8994 52.7599 11.6776 50.6675 10.8468Z" fill="white"/>
<path d="M95.0947 35.5991L103.309 35.7393L106.023 29.6838L95.4974 30.7389L95.0947 35.5991Z" fill="#FF3D81"/>
<path d="M94.2562 35.8076L85.1755 74.0138L102.109 77.0187L104.043 35.1195C104.043 35.1195 100.164 34.2504 94.2562 35.8076Z" fill="#FF3D81"/>
<path d="M96.3408 30.6492L92.5816 31.057L94.2611 35.8076C90.7211 37.1788 87.9737 39.2635 87.3365 41.7102C85.239 49.7536 79.3008 72.4465 79.3008 72.4465L87.5736 74.0139C89.1639 67.9889 95.4921 43.7491 95.9203 37.6375C96.1471 34.3218 96.2694 32.0841 96.3408 30.6492Z" fill="white"/>
<path d="M71.8385 37.2377C67.9693 37.2377 64.187 38.385 60.9698 40.5347C57.7527 42.6843 55.2452 45.7396 53.7646 49.3143C52.2839 52.889 51.8965 56.8225 52.6513 60.6174C53.4061 64.4123 55.2694 67.8981 58.0053 70.6341C60.7413 73.37 64.2271 75.2332 68.022 75.9881C71.8168 76.7429 75.7503 76.3555 79.325 74.8748C82.8997 73.3941 85.9551 70.8867 88.1047 67.6695C90.2543 64.4524 91.4017 60.67 91.4017 56.8008C91.3963 51.614 89.3334 46.6412 85.6658 42.9735C81.9982 39.3059 77.0253 37.2431 71.8385 37.2377ZM71.8385 75.5994C68.1205 75.5994 64.486 74.4969 61.3946 72.4313C58.3032 70.3656 55.8938 67.4297 54.4709 63.9947C53.0481 60.5597 52.6758 56.78 53.4012 53.1334C54.1265 49.4868 55.9169 46.1373 58.546 43.5082C61.175 40.8792 64.5246 39.0888 68.1711 38.3635C71.8177 37.6381 75.5974 38.0104 79.0324 39.4332C82.4674 40.856 85.4034 43.2655 87.469 46.3569C89.5346 49.4483 90.6371 53.0828 90.6371 56.8008C90.631 61.7846 88.6485 66.5626 85.1244 70.0867C81.6003 73.6108 76.8224 75.5933 71.8385 75.5994Z" fill="#E7E5FF"/>
<path d="M71.8384 39.3481C68.3865 39.3481 65.0122 40.3718 62.1421 42.2895C59.272 44.2072 57.035 46.933 55.714 50.1221C54.3931 53.3112 54.0474 56.8204 54.7209 60.2059C55.3943 63.5915 57.0565 66.7013 59.4973 69.1421C61.9382 71.5829 65.048 73.2451 68.4335 73.9186C71.819 74.592 75.3282 74.2464 78.5173 72.9254C81.7064 71.6044 84.4322 69.3675 86.3499 66.4974C88.2677 63.6272 89.2913 60.2529 89.2913 56.801C89.2859 52.1739 87.4454 47.7378 84.1735 44.4659C80.9016 41.194 76.4655 39.3535 71.8384 39.3481ZM71.8384 73.4995C68.5378 73.4995 65.3112 72.5208 62.5669 70.687C59.8225 68.8533 57.6835 66.247 56.4204 63.1976C55.1573 60.1482 54.8268 56.7927 55.4707 53.5555C56.1147 50.3183 57.7041 47.3447 60.038 45.0108C62.3719 42.6769 65.3455 41.0875 68.5827 40.4436C71.8199 39.7997 75.1753 40.1302 78.2247 41.3933C81.2741 42.6564 83.8805 44.7953 85.7142 47.5397C87.548 50.2841 88.5267 53.5106 88.5267 56.8112C88.5193 61.234 86.7583 65.4734 83.63 68.5998C80.5016 71.7263 76.2612 73.4846 71.8384 73.4893V73.4995Z" fill="#E7E5FF"/>
<path d="M71.8386 41.4608C68.8046 41.4608 65.8388 42.3605 63.3161 44.0461C60.7935 45.7317 58.8273 48.1275 57.6662 50.9305C56.5052 53.7335 56.2014 56.8179 56.7933 59.7936C57.3852 62.7693 58.8462 65.5026 60.9916 67.648C63.1369 69.7933 65.8702 71.2543 68.8459 71.8462C71.8216 72.4381 74.906 72.1343 77.709 70.9733C80.5121 69.8122 82.9079 67.8461 84.5934 65.3234C86.279 62.8007 87.1787 59.8349 87.1787 56.8009C87.174 52.7339 85.5563 48.8348 82.6805 45.959C79.8047 43.0832 75.9056 41.4655 71.8386 41.4608ZM71.8386 71.3764C68.9559 71.3764 66.1378 70.5216 63.7409 68.92C61.344 67.3184 59.4758 65.042 58.3726 62.3787C57.2694 59.7154 56.9808 56.7847 57.5432 53.9573C58.1056 51.13 59.4938 48.5329 61.5322 46.4944C63.5706 44.456 66.1677 43.0679 68.9951 42.5055C71.8225 41.9431 74.7531 42.2317 77.4164 43.3349C80.0798 44.4381 82.3561 46.3062 83.9577 48.7032C85.5593 51.1001 86.4141 53.9181 86.4141 56.8009C86.4074 60.6635 84.8693 64.3659 82.137 67.0963C79.4047 69.8266 75.7013 71.3622 71.8386 71.3662V71.3764Z" fill="#E7E5FF"/>
<path d="M71.8386 43.5712C69.2219 43.5707 66.6638 44.3462 64.4878 45.7996C62.3118 47.253 60.6157 49.319 59.614 51.7364C58.6123 54.1538 58.3499 56.814 58.8601 59.3805C59.3703 61.947 60.6301 64.3046 62.4802 66.155C64.3304 68.0055 66.6877 69.2658 69.2541 69.7765C71.8205 70.2872 74.4807 70.0253 76.8983 69.0241C79.3159 68.0228 81.3822 66.3271 82.8361 64.1514C84.2899 61.9757 85.0659 59.4177 85.0659 56.801C85.0598 53.2945 83.6644 49.9334 81.1852 47.4537C78.7059 44.974 75.3451 43.5779 71.8386 43.5712ZM71.8386 69.2663C69.3731 69.2668 66.9628 68.5362 64.9126 67.1668C62.8623 65.7974 61.2642 63.8507 60.3204 61.573C59.3765 59.2954 59.1293 56.7889 59.61 54.3707C60.0907 51.9525 61.2777 49.7312 63.0209 47.9877C64.7641 46.2441 66.9852 45.0566 69.4033 44.5755C71.8214 44.0943 74.3278 44.341 76.6057 45.2844C78.8836 46.2278 80.8305 47.8255 82.2004 49.8754C83.5702 51.9254 84.3013 54.3355 84.3013 56.801C84.2952 60.1047 82.9804 63.2714 80.6445 65.6077C78.3087 67.944 75.1423 69.2595 71.8386 69.2663Z" fill="#E7E5FF"/>
<path d="M103.099 26.7801C105.795 24.237 105.919 19.99 103.376 17.2941C100.833 14.5982 96.5855 14.4744 93.8896 17.0175C91.1937 19.5607 91.0699 23.8077 93.613 26.5035C96.1562 29.1994 100.403 29.3233 103.099 26.7801Z" fill="#070000"/>
<path d="M99.6722 31.0317L107.382 29.8161L109.209 16.4409L98.2501 14.2058C93.869 22.4327 104.216 22.5117 99.6722 31.0317Z" fill="#070000"/>
<path d="M94.7479 21.8008C94.4824 21.8352 94.2295 21.9343 94.0113 22.0894C93.7931 22.2445 93.6163 22.4508 93.4966 22.6903L94.1541 23.0777C94.2161 22.9447 94.3096 22.8289 94.4263 22.7401C94.5431 22.6513 94.6797 22.5922 94.8244 22.568C95.4641 22.5017 96.2669 23.2153 96.5243 23.4982L97.0901 22.9885C96.9703 22.8432 95.8795 21.6861 94.7479 21.8008Z" fill="white"/>
<path d="M96.3918 25.7944C96.2199 25.7895 96.0504 25.8356 95.9047 25.927C95.7591 26.0184 95.6438 26.1509 95.5735 26.3079C95.5032 26.4648 95.481 26.6391 95.5098 26.8087C95.5386 26.9782 95.617 27.1354 95.7352 27.2603C95.8534 27.3853 96.0059 27.4723 96.1736 27.5105C96.3413 27.5487 96.5165 27.5363 96.6771 27.4749C96.8378 27.4135 96.9765 27.3057 97.0759 27.1654C97.1753 27.0251 97.2308 26.8584 97.2354 26.6864C97.2388 26.5724 97.2196 26.4589 97.179 26.3523C97.1385 26.2457 97.0772 26.1482 96.9988 26.0653C96.9205 25.9824 96.8265 25.9158 96.7223 25.8693C96.6182 25.8229 96.5058 25.7974 96.3918 25.7944Z" fill="#FF3D81"/>
<path d="M91.9321 26.3042C92.2252 26.8343 93.9328 26.3501 93.9328 26.3501L92.7426 23.6588C91.8531 25.7461 91.718 25.9142 91.9321 26.3042Z" fill="black"/>
<path d="M93.828 25.9828C93.1628 26.1714 92.4008 26.2377 92.2657 26.1204C92.179 25.9599 92.2173 25.8452 92.7754 24.5709C92.8722 24.3492 92.9818 24.0969 93.1042 23.8063C93.144 23.713 93.1452 23.6077 93.1075 23.5136C93.0697 23.4194 92.9961 23.3441 92.9028 23.3042C92.8096 23.2644 92.7042 23.2632 92.6101 23.3009C92.5159 23.3387 92.4406 23.4123 92.4007 23.5056C92.2784 23.7936 92.1688 24.0459 92.0745 24.2701C91.445 25.7279 91.3329 25.993 91.6056 26.49C91.7942 26.8341 92.2198 26.9411 92.6786 26.9411C93.1424 26.9263 93.6024 26.8518 94.0472 26.7194C94.139 26.6871 94.2151 26.6209 94.2598 26.5345C94.3046 26.448 94.3147 26.3477 94.288 26.254C94.2614 26.1604 94.2 26.0805 94.1164 26.0305C94.0328 25.9806 93.9333 25.9644 93.8382 25.9854L93.828 25.9828Z" fill="white"/>
<path d="M98.3623 6.57255C98.3623 6.57255 93.1988 15.378 92.5005 18.8696C92.5005 18.8696 93.8028 17.0422 94.6056 19.155C97.5569 18.9664 99.0785 22.2134 99.3104 23.7298L105.384 23.2991C106.658 18.9257 108.073 9.60794 108.073 9.60794C108.073 9.60794 102.499 6.28201 98.3623 6.57255Z" fill="#3424C7"/>
<path d="M99.0196 7.81137C98.731 7.96393 98.465 8.15608 98.2295 8.38225C97.6281 8.98372 97.6638 10.1969 97.6842 10.8493C97.6842 10.9334 97.6842 11.0073 97.6842 11.0634C97.6842 11.331 97.3248 11.7745 97.0394 11.9401C96.5959 12.195 96.4302 12.98 96.2442 14.0606L96.2059 14.2721C96.1805 14.4174 96.0734 14.5117 95.8517 14.6926C95.2536 15.1358 94.8377 15.7819 94.6819 16.5098L95.421 16.6984C95.544 16.1335 95.8717 15.6342 96.341 15.2966C96.6537 15.0944 96.8764 14.7795 96.9629 14.4174L96.9986 14.2033C97.0725 13.7751 97.2534 12.7684 97.4242 12.6129C97.8371 12.3759 98.4436 11.7209 98.4436 11.0838C98.4436 11.0226 98.4436 10.9411 98.4436 10.8468C98.4283 10.388 98.3978 9.3176 98.7648 8.94295C98.9523 8.76617 99.1632 8.61609 99.3917 8.49694C99.7103 8.31599 100.07 8.11211 100.07 7.6559L99.3051 7.63806C99.2172 7.70704 99.1214 7.76522 99.0196 7.81137Z" fill="#070000"/>
<path d="M100.674 11.2188L99.9245 11.071C99.8379 11.4966 100.075 11.856 100.263 12.144C100.345 12.2496 100.408 12.3686 100.45 12.4957C100.072 12.8464 99.6732 13.1724 99.2542 13.4718C99.1887 13.5193 99.1397 13.5861 99.1141 13.6629C98.9484 14.1577 98.8465 14.6716 98.8108 15.1921C98.6738 15.3401 98.5137 15.4649 98.3367 15.5616C97.9035 15.842 97.3173 16.2268 97.0293 16.9073L97.7378 17.1978C97.9264 16.7391 98.3648 16.4537 98.7572 16.2039C99.1497 15.9541 99.5779 15.6712 99.5779 15.2048C99.6062 14.7978 99.6832 14.3957 99.8073 14.007C100.225 13.7067 100.621 13.3789 100.995 13.0258C101.461 12.5594 101.115 12.0293 100.908 11.7158C100.773 11.5399 100.641 11.3335 100.674 11.2188Z" fill="#070000"/>
<path d="M25.2346 87.1671C18.7382 88.5586 14.2755 92.1879 11.7473 94.8461C11.5009 95.105 11.3357 95.4303 11.2721 95.782C11.2085 96.1337 11.2493 96.4964 11.3894 96.8251C11.5296 97.1539 11.7629 97.4345 12.0607 97.6322C12.3584 97.8298 12.7076 97.936 13.0649 97.9375H37.0958L37.3711 90.3248C37.3711 90.3248 28.089 86.558 25.2346 87.1671Z" fill="white"/>
<path d="M0.0123032 95.2364L0 99.383L40.6476 99.5036L40.6599 95.357L0.0123032 95.2364Z" fill="#4C3BE3"/>
<path d="M25.2424 87.1673L37.3789 90.325L48.0219 70.0024L37.7663 65.1651L25.2424 87.1673Z" fill="#070000"/>
<path d="M86.6559 67.5791C84.6705 63.328 73.4031 37.0339 62.9538 36.0425C48.6816 34.6892 30.8413 75.625 30.8413 75.625L52.191 81.6703L59.8369 67.9308C61.1749 70.7979 65.9382 83.1052 68.994 91.0696C69.7794 93.1154 71.1709 94.8726 72.9823 96.106C74.7937 97.3394 76.9385 97.9902 79.1298 97.9712L92.9867 97.8515C96.6294 97.8199 100.129 96.4314 102.803 93.9571C105.477 91.4828 107.132 88.1006 107.445 84.4713L108.921 78.0284C94.1106 74.784 89.5307 73.7416 89.5307 73.7416C88.1978 70.8999 87.4205 69.2305 86.6559 67.5791Z" fill="#766DFF"/>
<path d="M22.5 87.988L21.7354 88.1129L22.0438 89.9556L19.4952 88.8699C19.4294 88.8439 19.3577 88.8368 19.2881 88.8491C19.2185 88.8615 19.1536 88.8929 19.1008 88.9399C19.048 88.987 19.0092 89.0477 18.9889 89.1154C18.9685 89.1831 18.9673 89.2552 18.9855 89.3235L19.5334 91.3624L16.7044 90.45L16.47 91.1789L19.9667 92.3054C20.0324 92.326 20.1023 92.3288 20.1695 92.3136C20.2366 92.2984 20.2986 92.2656 20.349 92.2187C20.399 92.1713 20.4351 92.1111 20.4535 92.0446C20.472 91.9782 20.4719 91.908 20.4535 91.8415L19.9284 89.8868L22.4031 90.9368C22.466 90.9634 22.5348 90.9727 22.6025 90.9638C22.6702 90.9548 22.7342 90.9279 22.788 90.8858C22.842 90.8432 22.8837 90.787 22.9088 90.7229C22.9338 90.6589 22.9414 90.5893 22.9307 90.5214L22.5 87.988Z" fill="#070000"/>
<path d="M90.0128 87.6771C83.4756 87.6771 74.2114 67.9763 68.6834 56.2043C66.0839 50.6738 64.6923 47.7582 63.9507 47.1287C63.2931 46.5705 62.656 46.3641 62.0571 46.5425C60.4208 47.0089 59.4371 50.0672 57.9487 54.698L57.6199 55.7175C56.6209 58.809 54.3985 59.3493 52.0461 59.9201C49.8543 60.4528 47.5886 61.0008 46.5029 63.715C45.5675 66.0419 46.09 68.3331 46.5972 70.5453C47.2878 73.5807 47.9428 76.4479 45.0068 79.3864L45.5471 79.9267C48.7813 76.69 48.0499 73.4813 47.3312 70.3771C46.8215 68.1802 46.3576 66.1056 47.2012 64.0056C48.1416 61.6583 50.1193 61.1792 52.2143 60.6695C54.5565 60.1037 57.207 59.4589 58.331 55.9622L58.6597 54.9427C59.9697 50.865 61.0045 47.6435 62.2482 47.2969C62.5897 47.1975 62.9796 47.3402 63.4384 47.7301C64.0883 48.2832 65.8902 52.1112 67.9724 56.5483C73.9642 69.2277 82.9888 88.4417 90.0128 88.4417C92.8749 88.4417 95.3011 87.0985 97.0266 84.5601C97.8208 83.3856 98.411 82.0854 98.7723 80.7143L98.0282 80.541C98.0103 80.6021 96.3129 87.6771 90.0128 87.6771Z" fill="#070000"/>
<path d="M91.886 75.8517L91.2361 76.2518C92.6327 78.5226 95.1457 80.1792 98.5047 81.0407C100.014 81.4309 101.564 81.6414 103.123 81.6676H103.176V80.903C103.09 80.9056 95.0182 80.9438 91.886 75.8517Z" fill="#070000"/>
<path d="M115.224 41.7765C114.91 37.5789 111.781 35.3081 107.721 34.4569V29.4106L101.166 30.1243C103.164 42.6125 100.587 81.6062 99.9321 88.0491L115.316 90.9622C115.316 90.9622 116.136 54.02 115.224 41.7765Z" fill="white"/>
<path d="M96.8075 49.4863C92.9383 49.4863 89.156 50.6336 85.9388 52.7833C82.7217 54.9329 80.2142 57.9882 78.7335 61.5629C77.2529 65.1376 76.8654 69.0711 77.6203 72.866C78.3751 76.6609 80.2384 80.1467 82.9743 82.8826C85.7103 85.6186 89.1961 87.4818 92.991 88.2366C96.7858 88.9915 100.719 88.6041 104.294 87.1234C107.869 85.6427 110.924 83.1352 113.074 79.9181C115.223 76.7009 116.371 72.9186 116.371 69.0494C116.365 63.8626 114.302 58.8898 110.635 55.2221C106.967 51.5545 101.994 49.4917 96.8075 49.4863ZM96.8075 87.848C93.0895 87.848 89.455 86.7455 86.3636 84.6798C83.2722 82.6142 80.8627 79.6783 79.4399 76.2433C78.0171 72.8083 77.6448 69.0285 78.3702 65.382C79.0955 61.7354 80.8859 58.3858 83.515 55.7568C86.144 53.1278 89.4936 51.3374 93.1401 50.612C96.7867 49.8867 100.566 50.259 104.001 51.6818C107.436 53.1046 110.372 55.5141 112.438 58.6055C114.504 61.6969 115.606 65.3314 115.606 69.0494C115.6 74.0332 113.618 78.8112 110.093 82.3353C106.569 85.8594 101.791 87.8419 96.8075 87.848Z" fill="#E7E5FF"/>
<path d="M96.8076 51.5966C93.3558 51.5966 89.9814 52.6202 87.1113 54.5379C84.2412 56.4557 82.0042 59.1815 80.6833 62.3706C79.3623 65.5597 79.0167 69.0689 79.6901 72.4544C80.3635 75.8399 82.0257 78.9497 84.4666 81.3906C86.9074 83.8314 90.0172 85.4936 93.4027 86.167C96.7883 86.8405 100.297 86.4948 103.487 85.1739C106.676 83.8529 109.401 81.6159 111.319 78.7458C113.237 75.8757 114.261 72.5014 114.261 69.0495C114.255 64.4224 112.415 59.9863 109.143 56.7144C105.871 53.4425 101.435 51.602 96.8076 51.5966ZM96.8076 85.748C93.507 85.748 90.2805 84.7693 87.5361 82.9355C84.7917 81.1018 82.6527 78.4954 81.3896 75.446C80.1265 72.3966 79.7961 69.0412 80.44 65.804C81.0839 62.5668 82.6733 59.5932 85.0072 57.2593C87.3411 54.9254 90.3147 53.336 93.5519 52.692C96.7891 52.0481 100.145 52.3786 103.194 53.6417C106.243 54.9048 108.85 57.0438 110.683 59.7882C112.517 62.5325 113.496 65.759 113.496 69.0597C113.488 73.4823 111.727 77.7213 108.598 80.8476C105.47 83.9739 101.23 85.7324 96.8076 85.7378V85.748Z" fill="#E7E5FF"/>
<path d="M96.8074 53.7094C93.7732 53.7083 90.8068 54.6072 88.2835 56.2922C85.7601 57.9771 83.7932 60.3726 82.6313 63.1755C81.4695 65.9785 81.165 69.063 81.7563 72.039C82.3476 75.0151 83.8082 77.7489 85.9534 79.8947C88.0985 82.0406 90.8319 83.5021 93.8077 84.0944C96.7835 84.6867 99.8681 84.3833 102.671 83.2223C105.475 82.0614 107.871 80.0952 109.557 77.5725C111.243 75.0497 112.142 72.0837 112.142 69.0495C112.138 64.9833 110.521 61.085 107.646 58.2094C104.771 55.3337 100.873 53.7154 96.8074 53.7094ZM96.8074 83.625C93.9244 83.626 91.1058 82.772 88.7082 81.171C86.3106 79.57 84.4417 77.294 83.3377 74.6308C82.2337 71.9676 81.9444 69.0367 82.5062 66.209C83.068 63.3813 84.4558 60.7838 86.494 58.7448C88.5322 56.7059 91.1293 55.3172 93.9568 54.7544C96.7844 54.1916 99.7153 54.4799 102.379 55.5829C105.043 56.686 107.319 58.5542 108.921 60.9512C110.523 63.3483 111.378 66.1665 111.378 69.0495C111.374 72.913 109.837 76.6172 107.106 79.3496C104.375 82.082 100.671 83.6196 96.8074 83.625Z" fill="#E7E5FF"/>
<path d="M96.8075 55.8195C94.1909 55.8195 91.633 56.5954 89.4574 58.0491C87.2817 59.5028 85.586 61.569 84.5847 63.9865C83.5834 66.4039 83.3214 69.064 83.8319 71.6303C84.3423 74.1966 85.6024 76.554 87.4526 78.4042C89.3028 80.2545 91.6601 81.5144 94.2265 82.0249C96.7928 82.5354 99.4529 82.2734 101.87 81.2721C104.288 80.2707 106.354 78.575 107.808 76.3994C109.261 74.2238 110.037 71.6659 110.037 69.0493C110.031 65.5424 108.635 62.1808 106.156 59.7011C103.676 57.2213 100.314 55.8255 96.8075 55.8195ZM96.8075 81.5145C94.3421 81.5145 91.9321 80.7835 89.8822 79.4138C87.8323 78.0441 86.2346 76.0973 85.2911 73.8196C84.3476 71.5418 84.1008 69.0355 84.5817 66.6175C85.0627 64.1994 86.2499 61.9783 87.9932 60.235C89.7365 58.4917 91.9576 57.3045 94.3756 56.8236C96.7937 56.3426 99.3 56.5894 101.578 57.5329C103.855 58.4764 105.802 60.0741 107.172 62.124C108.542 64.1739 109.273 66.5839 109.273 69.0493C109.267 72.3534 107.951 75.5205 105.615 77.8569C103.279 80.1932 100.112 81.5085 96.8075 81.5145Z" fill="#E7E5FF"/>
<path d="M117.145 27.5963C114.478 27.5958 111.871 28.3863 109.653 29.8677C107.435 31.3491 105.706 33.4549 104.685 35.9189C103.664 38.3828 103.397 41.0942 103.917 43.7102C104.437 46.3261 105.721 48.7291 107.607 50.6152C109.493 52.5014 111.895 53.7859 114.511 54.3064C117.127 54.8269 119.839 54.5601 122.303 53.5395C124.767 52.519 126.873 50.7906 128.355 48.573C129.837 46.3554 130.628 43.7482 130.628 41.081C130.622 37.507 129.199 34.081 126.672 31.5535C124.145 29.026 120.72 27.6031 117.145 27.5963ZM117.145 53.7986C114.629 53.7991 112.17 53.0534 110.078 51.6559C107.985 50.2584 106.355 48.2718 105.392 45.9474C104.428 43.623 104.176 41.0652 104.667 38.5975C105.158 36.1298 106.369 33.8631 108.148 32.084C109.928 30.3049 112.194 29.0934 114.662 28.6026C117.13 28.1119 119.687 28.364 122.012 29.3271C124.336 30.2902 126.323 31.9209 127.72 34.0131C129.118 36.1053 129.864 38.565 129.863 41.081C129.856 44.4519 128.514 47.6827 126.131 50.0662C123.747 52.4498 120.516 53.7918 117.145 53.7986Z" fill="#E7E5FF"/>
<path d="M117.145 29.0388V29.8034C120.106 29.8479 122.931 31.0555 125.01 33.1654C127.088 35.2753 128.253 38.1181 128.253 41.0797C128.253 44.0414 127.088 46.8841 125.01 48.994C122.931 51.1039 120.106 52.3115 117.145 52.3561V53.1206C120.308 53.0746 123.326 51.7858 125.547 49.5327C127.767 47.2796 129.012 44.2432 129.012 41.0797C129.012 37.9163 127.767 34.8799 125.547 32.6268C123.326 30.3737 120.308 29.0848 117.145 29.0388Z" fill="#E7E5FF"/>
<path d="M117.146 29.4771C114.851 29.4765 112.607 30.1567 110.698 31.4314C108.79 32.7062 107.302 34.5182 106.423 36.6385C105.545 38.7588 105.315 41.092 105.762 43.3431C106.209 45.5942 107.314 47.6621 108.937 49.2851C110.56 50.9082 112.627 52.0136 114.878 52.4616C117.129 52.9095 119.463 52.6799 121.583 51.8017C123.704 50.9235 125.516 49.4362 126.791 47.5279C128.066 45.6196 128.747 43.376 128.747 41.0809C128.744 38.0048 127.52 35.0557 125.345 32.8803C123.171 30.705 120.222 29.4811 117.146 29.4771ZM117.146 51.9048C115.002 51.9053 112.906 51.27 111.123 50.0791C109.34 48.8883 107.95 47.1955 107.129 45.2148C106.309 43.234 106.094 41.0544 106.512 38.9516C106.93 36.8487 107.963 34.9171 109.479 33.4011C110.995 31.885 112.926 30.8526 115.029 30.4345C117.132 30.0163 119.312 30.2312 121.292 31.0519C123.273 31.8726 124.966 33.2623 126.157 35.0452C127.348 36.8281 127.983 38.9241 127.982 41.0681C127.982 43.9432 126.84 46.7004 124.808 48.7346C122.777 50.7687 120.021 51.9135 117.146 51.9176V51.9048Z" fill="#E7E5FF"/>
<path d="M117.145 31.4369C115.238 31.4364 113.373 32.0016 111.787 33.0609C110.2 34.1203 108.964 35.6264 108.234 37.3885C107.503 39.1507 107.312 41.0898 107.684 42.9607C108.056 44.8317 108.974 46.5503 110.323 47.8992C111.671 49.2482 113.39 50.167 115.26 50.5393C117.131 50.9116 119.07 50.7208 120.833 49.991C122.595 49.2611 124.101 48.025 125.161 46.439C126.221 44.853 126.787 42.9884 126.787 41.0809C126.783 38.5246 125.767 36.074 123.959 34.2662C122.152 32.4584 119.702 31.4409 117.145 31.4369ZM117.145 49.9577C115.389 49.9582 113.672 49.4378 112.211 48.4623C110.751 47.4868 109.612 46.1001 108.94 44.4775C108.267 42.8549 108.091 41.0693 108.434 39.3466C108.776 37.624 109.622 36.0416 110.864 34.7996C112.106 33.5577 113.688 32.712 115.411 32.3694C117.134 32.0269 118.919 32.203 120.542 32.8753C122.164 33.5477 123.551 34.6862 124.527 36.1468C125.502 37.6074 126.023 39.3245 126.022 41.0809C126.019 43.4341 125.082 45.69 123.418 47.354C121.754 49.018 119.499 49.9543 117.145 49.9577Z" fill="#E7E5FF"/>
<path d="M138.347 94.5331C135.105 93.4678 130.385 93.7099 121.243 94.2426L122.306 98.2362C122.306 98.2362 139.127 98.2362 140.093 98.0884C141.059 97.9406 141.589 95.5984 138.347 94.5331Z" fill="#070000"/>
<path d="M120.42 96.47C121.292 102.179 123.711 106.919 124.87 105.179C126.03 103.438 124.87 97.4359 124.87 97.4359L120.42 96.47Z" fill="#070000"/>
<path d="M112.226 37.2582C108.544 35.0944 107.483 50.3861 107.483 51.5559C107.483 52.7257 120.153 98.0884 120.153 98.0884H130.821C130.821 98.0884 117.178 40.1661 112.226 37.2582Z" fill="#070000"/>
<path d="M136.864 96.7706C136.487 96.7706 133.095 97.5352 133.095 97.5352C136.487 98.7432 135.643 103.473 136.714 104.093C137.784 104.712 138.974 103.114 138.597 100.815C138.22 98.5164 137.249 96.7706 136.864 96.7706Z" fill="#070000"/>
<path d="M138.138 95.4555C137.784 95.5881 134.871 97.4791 134.871 97.4791C138.469 97.423 139.328 102.153 140.554 102.36C141.78 102.566 142.338 100.65 141.174 98.6285C140.009 96.6075 138.498 95.323 138.138 95.4555Z" fill="#070000"/>
<path d="M144.533 97.8539H18.1167V98.6185H144.533V97.8539Z" fill="#070000"/>
</svg>
