<svg width="147" height="150" viewBox="0 0 147 150" fill="none" xmlns="http://www.w3.org/2000/svg">
<path d="M118.775 3.92377C118.775 3.92377 124.678 10.0465 124.691 15.1995C124.704 20.3526 122.662 23.1477 122.662 23.1477L132.75 29.4691L142.834 17.5019L122.081 0.0159302L118.775 3.92377Z" fill="#FF3D81"/>
<path d="M120.428 1.9632L130.805 10.7062L132.933 15.5174L139.694 21.2162L142.834 17.4886L122.081 0L120.428 1.9632Z" fill="#070000"/>
<path d="M81.9796 54.7311C72.418 68.7066 69.1487 84.2134 69.1487 84.2134L78.8799 110.572L101.106 62.5044L132.75 29.456L122.661 23.1345C122.661 23.1345 91.5412 40.7529 81.9796 54.7311Z" fill="#4C3BE3"/>
<path d="M119.638 24.9044L129.525 32.8234L134.57 27.6359L124.155 19.5977L119.638 24.9044Z" fill="white"/>
<path d="M60.0137 83.9537C58.5248 85.5433 54.1374 91.6369 54.1374 91.6369L50.3223 116.899C50.3223 116.899 62.3399 115.736 75.1311 114.573C87.9223 113.409 99.9373 69.2231 99.9373 69.2231L75.2609 58.668C75.2609 58.668 65.0396 78.6152 60.0137 83.9537Z" fill="#FF3D81"/>
<path d="M50.3226 25.6012C44.7589 27.8744 36.0451 51.8062 24.1785 58.8907L31.7159 69.8008L42.9758 56.0426L58.6814 24.8673C58.6814 24.8673 55.8783 23.3307 50.3226 25.6012Z" fill="#4C3BE3"/>
<path d="M46.7062 20.2494C45.1165 20.5752 47.1142 26.8728 47.3049 30.1368L51.3876 27.6862C51.3876 27.6862 48.2932 19.9235 46.7062 20.2494Z" fill="#4C3BE3"/>
<path d="M48.7437 27.1244L51.3639 28.714C51.3639 28.714 56.2361 19.767 55.0041 18.7126C53.7722 17.6581 50.7916 22.2972 48.7437 27.1244Z" fill="#4C3BE3"/>
<path d="M48.3801 26.9549L49.1034 27.2835C51.1143 22.8855 53.5517 19.1446 54.4287 19.1154L54.4022 18.3206C52.3515 18.3816 48.7802 26.078 48.3801 26.9549Z" fill="#070000"/>
<path d="M51.1357 28.661L53.756 30.2507C53.756 30.2507 58.6282 21.3037 57.3962 20.2492C56.1643 19.1948 53.1837 23.8391 51.1357 28.661Z" fill="#4C3BE3"/>
<path d="M51.8083 26.3296L52.5316 26.6608C54.8551 21.5739 56.1215 20.4824 56.7706 20.4612L56.7468 19.6664C55.4274 19.7061 53.8934 21.77 51.8083 26.3296Z" fill="#070000"/>
<path d="M53.4988 30.3934L56.119 31.9963C56.119 31.9963 60.9912 23.0493 59.7593 21.9949C58.5273 20.9404 55.5468 25.5715 53.4988 30.3934Z" fill="#4C3BE3"/>
<path d="M54.2805 27.8425L55.0011 28.1736C56.8001 24.2393 58.1804 22.2284 59.1368 22.1993L59.1103 21.4045C57.7671 21.4469 56.3205 23.373 54.2805 27.8425Z" fill="#070000"/>
<path d="M55.6636 31.7183L58.6097 32.8231C58.6097 32.8231 63.2249 25.1399 62.03 24.0616C60.8352 22.9833 57.595 27.5217 55.6636 31.7183Z" fill="#4C3BE3"/>
<path d="M56.7048 29.0267L57.4122 29.387C58.7661 26.7217 60.1861 24.2578 61.4075 24.2578V23.463H61.389C59.8391 23.463 58.4932 25.503 56.7048 29.0267Z" fill="#070000"/>
<path d="M131.918 98.6151C127.634 95.7935 126.423 92.5401 126.423 92.5401L115.582 97.46L119.988 112.477L146.028 104.833L144.585 99.9107C144.585 99.9107 136.234 101.447 131.918 98.6151Z" fill="#FF3D81"/>
<path d="M132.287 106.192L127.099 105.31L118.616 107.798L119.988 112.477L146.029 104.836L145.306 102.372L132.287 106.192Z" fill="#070000"/>
<path d="M85.5432 58.668L94.1087 87.7953L104.682 66.391L113.462 91.3958L115.595 97.4709L126.436 92.551C117.179 45.7178 112.297 29.4559 85.5432 58.668Z" fill="#4C3BE3"/>
<path d="M68.4337 69.2047H42.2366V81.1349H68.4337V69.2047Z" fill="white"/>
<path d="M72.1612 52.0713H38.3948V69.2075H72.1612V52.0713Z" fill="#766DFF"/>
<path d="M51.099 88.3464C51.099 88.3464 59.1345 88.1239 61.3839 86.1422C74.4851 74.5962 87.9254 55.3802 87.9254 55.3802L104.67 71.1625L83.5513 108.254C82.0543 110.883 79.8879 113.07 77.2722 114.59C74.6565 116.111 71.6847 116.912 68.6591 116.912C68.6591 116.912 54.975 116.782 39.1688 116.912C30.2377 116.984 22.9546 99.1427 22.9546 99.1427L51.099 88.3464Z" fill="#FF3D81"/>
<path d="M30.7884 114.051C30.4216 114.051 30.063 114.159 29.758 114.363C29.4531 114.567 29.2154 114.857 29.075 115.196C28.9346 115.534 28.8979 115.907 28.9695 116.267C29.041 116.627 29.2177 116.957 29.477 117.217C29.7364 117.476 30.0669 117.653 30.4266 117.724C30.7864 117.796 31.1593 117.759 31.4981 117.619C31.837 117.478 32.1266 117.241 32.3304 116.936C32.5342 116.631 32.643 116.272 32.643 115.905C32.643 115.413 32.4476 114.942 32.0998 114.594C31.752 114.246 31.2803 114.051 30.7884 114.051Z" fill="#FFD4E3"/>
<path d="M42.1728 117.776C43.2015 117.776 44.0354 116.942 44.0354 115.913C44.0354 114.885 43.2015 114.051 42.1728 114.051C41.1442 114.051 40.3103 114.885 40.3103 115.913C40.3103 116.942 41.1442 117.776 42.1728 117.776Z" fill="#FFD4E3"/>
<path d="M53.5542 117.776C54.5828 117.776 55.4167 116.942 55.4167 115.913C55.4167 114.885 54.5828 114.051 53.5542 114.051C52.5255 114.051 51.6917 114.885 51.6917 115.913C51.6917 116.942 52.5255 117.776 53.5542 117.776Z" fill="#FFD4E3"/>
<path d="M64.9388 114.051C64.572 114.051 64.2134 114.159 63.9084 114.363C63.6035 114.567 63.3658 114.857 63.2254 115.196C63.085 115.534 63.0483 115.907 63.1199 116.267C63.1914 116.627 63.368 116.957 63.6274 117.217C63.8868 117.476 64.2172 117.653 64.577 117.724C64.9367 117.796 65.3096 117.759 65.6485 117.619C65.9874 117.478 66.277 117.241 66.4808 116.936C66.6846 116.631 66.7934 116.272 66.7934 115.905C66.7934 115.413 66.598 114.942 66.2502 114.594C65.9024 114.246 65.4307 114.051 64.9388 114.051Z" fill="#FFD4E3"/>
<path d="M76.3205 117.776C77.3492 117.776 78.1831 116.942 78.1831 115.913C78.1831 114.885 77.3492 114.051 76.3205 114.051C75.2919 114.051 74.458 114.885 74.458 115.913C74.458 116.942 75.2919 117.776 76.3205 117.776Z" fill="#FFD4E3"/>
<path d="M87.7045 117.776C88.7332 117.776 89.5671 116.942 89.5671 115.913C89.5671 114.885 88.7332 114.051 87.7045 114.051C86.6759 114.051 85.842 114.885 85.842 115.913C85.842 116.942 86.6759 117.776 87.7045 117.776Z" fill="#FFD4E3"/>
<path d="M99.0867 114.051C98.7199 114.051 98.3614 114.159 98.0564 114.363C97.7514 114.567 97.5137 114.857 97.3733 115.196C97.233 115.534 97.1963 115.907 97.2678 116.267C97.3394 116.627 97.516 116.957 97.7753 117.217C98.0347 117.476 98.3652 117.653 98.7249 117.724C99.0847 117.796 99.4576 117.759 99.7964 117.619C100.135 117.478 100.425 117.241 100.629 116.936C100.833 116.631 100.941 116.272 100.941 115.905C100.941 115.413 100.746 114.942 100.398 114.594C100.05 114.246 99.5786 114.051 99.0867 114.051Z" fill="#FFD4E3"/>
<path d="M30.7884 103.072C30.4216 103.072 30.063 103.18 29.758 103.384C29.4531 103.588 29.2154 103.878 29.075 104.216C28.9346 104.555 28.8979 104.928 28.9695 105.288C29.041 105.648 29.2177 105.978 29.477 106.238C29.7364 106.497 30.0669 106.674 30.4266 106.745C30.7864 106.817 31.1593 106.78 31.4981 106.64C31.837 106.499 32.1266 106.261 32.3304 105.956C32.5342 105.652 32.643 105.293 32.643 104.926C32.643 104.434 32.4476 103.963 32.0998 103.615C31.752 103.267 31.2803 103.072 30.7884 103.072Z" fill="#FFD4E3"/>
<path d="M42.1728 106.797C43.2015 106.797 44.0354 105.963 44.0354 104.934C44.0354 103.905 43.2015 103.072 42.1728 103.072C41.1442 103.072 40.3103 103.905 40.3103 104.934C40.3103 105.963 41.1442 106.797 42.1728 106.797Z" fill="#FFD4E3"/>
<path d="M53.5542 106.797C54.5828 106.797 55.4167 105.963 55.4167 104.934C55.4167 103.905 54.5828 103.072 53.5542 103.072C52.5255 103.072 51.6917 103.905 51.6917 104.934C51.6917 105.963 52.5255 106.797 53.5542 106.797Z" fill="#FFD4E3"/>
<path d="M64.9388 103.072C64.572 103.072 64.2134 103.18 63.9084 103.384C63.6035 103.588 63.3658 103.878 63.2254 104.216C63.085 104.555 63.0483 104.928 63.1199 105.288C63.1914 105.648 63.368 105.978 63.6274 106.238C63.8868 106.497 64.2172 106.674 64.577 106.745C64.9367 106.817 65.3096 106.78 65.6485 106.64C65.9874 106.499 66.277 106.261 66.4808 105.956C66.6846 105.652 66.7934 105.293 66.7934 104.926C66.7934 104.434 66.598 103.963 66.2502 103.615C65.9024 103.267 65.4307 103.072 64.9388 103.072Z" fill="#FFD4E3"/>
<path d="M76.3205 106.797C77.3492 106.797 78.1831 105.963 78.1831 104.934C78.1831 103.905 77.3492 103.072 76.3205 103.072C75.2919 103.072 74.458 103.905 74.458 104.934C74.458 105.963 75.2919 106.797 76.3205 106.797Z" fill="#FFD4E3"/>
<path d="M87.7045 106.797C88.7332 106.797 89.5671 105.963 89.5671 104.934C89.5671 103.905 88.7332 103.072 87.7045 103.072C86.6759 103.072 85.842 103.905 85.842 104.934C85.842 105.963 86.6759 106.797 87.7045 106.797Z" fill="#FFD4E3"/>
<path d="M99.0867 103.072C98.7199 103.072 98.3614 103.18 98.0564 103.384C97.7514 103.588 97.5137 103.878 97.3733 104.216C97.233 104.555 97.1963 104.928 97.2678 105.288C97.3394 105.648 97.516 105.978 97.7753 106.238C98.0347 106.497 98.3652 106.674 98.7249 106.745C99.0847 106.817 99.4576 106.78 99.7964 106.64C100.135 106.499 100.425 106.261 100.629 105.956C100.833 105.652 100.941 105.293 100.941 104.926C100.941 104.434 100.746 103.963 100.398 103.615C100.05 103.267 99.5786 103.072 99.0867 103.072Z" fill="#FFD4E3"/>
<path d="M30.7884 92.0921C30.4216 92.0921 30.063 92.2009 29.758 92.4046C29.4531 92.6084 29.2154 92.8981 29.075 93.237C28.9346 93.5759 28.8979 93.9487 28.9695 94.3085C29.041 94.6682 29.2177 94.9987 29.477 95.2581C29.7364 95.5174 30.0669 95.694 30.4266 95.7656C30.7864 95.8372 31.1593 95.8004 31.4981 95.6601C31.837 95.5197 32.1266 95.282 32.3304 94.977C32.5342 94.672 32.643 94.3135 32.643 93.9467C32.643 93.4548 32.4476 92.9831 32.0998 92.6353C31.752 92.2875 31.2803 92.0921 30.7884 92.0921Z" fill="#FFD4E3"/>
<path d="M42.1728 95.8172C43.2015 95.8172 44.0354 94.9833 44.0354 93.9546C44.0354 92.926 43.2015 92.0921 42.1728 92.0921C41.1442 92.0921 40.3103 92.926 40.3103 93.9546C40.3103 94.9833 41.1442 95.8172 42.1728 95.8172Z" fill="#FFD4E3"/>
<path d="M53.5542 95.8172C54.5828 95.8172 55.4167 94.9833 55.4167 93.9546C55.4167 92.926 54.5828 92.0921 53.5542 92.0921C52.5255 92.0921 51.6917 92.926 51.6917 93.9546C51.6917 94.9833 52.5255 95.8172 53.5542 95.8172Z" fill="#FFD4E3"/>
<path d="M64.9388 92.0921C64.572 92.0921 64.2134 92.2009 63.9084 92.4046C63.6035 92.6084 63.3658 92.8981 63.2254 93.237C63.085 93.5759 63.0483 93.9487 63.1199 94.3085C63.1914 94.6682 63.368 94.9987 63.6274 95.2581C63.8868 95.5174 64.2172 95.694 64.577 95.7656C64.9367 95.8372 65.3096 95.8004 65.6485 95.6601C65.9874 95.5197 66.277 95.282 66.4808 94.977C66.6846 94.672 66.7934 94.3135 66.7934 93.9467C66.7934 93.4548 66.598 92.9831 66.2502 92.6353C65.9024 92.2875 65.4307 92.0921 64.9388 92.0921Z" fill="#FFD4E3"/>
<path d="M76.3205 95.8172C77.3492 95.8172 78.1831 94.9833 78.1831 93.9546C78.1831 92.926 77.3492 92.0921 76.3205 92.0921C75.2919 92.0921 74.458 92.926 74.458 93.9546C74.458 94.9833 75.2919 95.8172 76.3205 95.8172Z" fill="#FFD4E3"/>
<path d="M87.7045 95.8172C88.7332 95.8172 89.5671 94.9833 89.5671 93.9546C89.5671 92.926 88.7332 92.0921 87.7045 92.0921C86.6759 92.0921 85.842 92.926 85.842 93.9546C85.842 94.9833 86.6759 95.8172 87.7045 95.8172Z" fill="#FFD4E3"/>
<path d="M99.0867 92.0921C98.7199 92.0921 98.3614 92.2009 98.0564 92.4046C97.7514 92.6084 97.5137 92.8981 97.3733 93.237C97.233 93.5759 97.1963 93.9487 97.2678 94.3085C97.3394 94.6682 97.516 94.9987 97.7753 95.2581C98.0347 95.5174 98.3652 95.694 98.7249 95.7656C99.0847 95.8372 99.4576 95.8004 99.7964 95.6601C100.135 95.5197 100.425 95.282 100.629 94.977C100.833 94.672 100.941 94.3135 100.941 93.9467C100.941 93.4548 100.746 92.9831 100.398 92.6353C100.05 92.2875 99.5786 92.0921 99.0867 92.0921Z" fill="#FFD4E3"/>
<path d="M64.9388 81.1136C64.572 81.1136 64.2134 81.2223 63.9084 81.4261C63.6035 81.6299 63.3658 81.9196 63.2254 82.2584C63.085 82.5973 63.0483 82.9702 63.1199 83.33C63.1914 83.6897 63.368 84.0202 63.6274 84.2795C63.8868 84.5389 64.2172 84.7155 64.577 84.7871C64.9367 84.8586 65.3096 84.8219 65.6485 84.6816C65.9874 84.5412 66.277 84.3035 66.4808 83.9985C66.6846 83.6935 66.7934 83.335 66.7934 82.9682C66.7934 82.4763 66.598 82.0046 66.2502 81.6568C65.9024 81.309 65.4307 81.1136 64.9388 81.1136Z" fill="#FFD4E3"/>
<path d="M76.3205 84.8386C77.3492 84.8386 78.1831 84.0048 78.1831 82.9761C78.1831 81.9475 77.3492 81.1136 76.3205 81.1136C75.2919 81.1136 74.458 81.9475 74.458 82.9761C74.458 84.0048 75.2919 84.8386 76.3205 84.8386Z" fill="#FFD4E3"/>
<path d="M87.7045 84.8386C88.7332 84.8386 89.5671 84.0048 89.5671 82.9761C89.5671 81.9475 88.7332 81.1136 87.7045 81.1136C86.6759 81.1136 85.842 81.9475 85.842 82.9761C85.842 84.0048 86.6759 84.8386 87.7045 84.8386Z" fill="#FFD4E3"/>
<path d="M99.0867 81.1136C98.7199 81.1136 98.3614 81.2223 98.0564 81.4261C97.7514 81.6299 97.5137 81.9196 97.3733 82.2584C97.233 82.5973 97.1963 82.9702 97.2678 83.33C97.3394 83.6897 97.516 84.0202 97.7753 84.2795C98.0347 84.5389 98.3652 84.7155 98.7249 84.7871C99.0847 84.8586 99.4576 84.8219 99.7964 84.6816C100.135 84.5412 100.425 84.3035 100.629 83.9985C100.833 83.6935 100.941 83.335 100.941 82.9682C100.941 82.4763 100.746 82.0046 100.398 81.6568C100.05 81.309 99.5786 81.1136 99.0867 81.1136Z" fill="#FFD4E3"/>
<path d="M64.9388 70.1343C64.572 70.1343 64.2134 70.2431 63.9084 70.4469C63.6035 70.6507 63.3658 70.9403 63.2254 71.2792C63.085 71.6181 63.0483 71.991 63.1199 72.3507C63.1914 72.7105 63.368 73.0409 63.6274 73.3003C63.8868 73.5597 64.2172 73.7363 64.577 73.8078C64.9367 73.8794 65.3096 73.8427 65.6485 73.7023C65.9874 73.5619 66.277 73.3242 66.4808 73.0193C66.6846 72.7143 66.7934 72.3557 66.7934 71.9889C66.7934 71.497 66.598 71.0253 66.2502 70.6775C65.9024 70.3297 65.4307 70.1343 64.9388 70.1343Z" fill="#FFD4E3"/>
<path d="M76.3205 73.8594C77.3492 73.8594 78.1831 73.0255 78.1831 71.9969C78.1831 70.9682 77.3492 70.1343 76.3205 70.1343C75.2919 70.1343 74.458 70.9682 74.458 71.9969C74.458 73.0255 75.2919 73.8594 76.3205 73.8594Z" fill="#FFD4E3"/>
<path d="M87.7045 73.8594C88.7332 73.8594 89.5671 73.0255 89.5671 71.9969C89.5671 70.9682 88.7332 70.1343 87.7045 70.1343C86.6759 70.1343 85.842 70.9682 85.842 71.9969C85.842 73.0255 86.6759 73.8594 87.7045 73.8594Z" fill="#FFD4E3"/>
<path d="M99.0867 70.1343C98.7199 70.1343 98.3614 70.2431 98.0564 70.4469C97.7514 70.6507 97.5137 70.9403 97.3733 71.2792C97.233 71.6181 97.1963 71.991 97.2678 72.3507C97.3394 72.7105 97.516 73.0409 97.7753 73.3003C98.0347 73.5597 98.3652 73.7363 98.7249 73.8078C99.0847 73.8794 99.4576 73.8427 99.7964 73.7023C100.135 73.5619 100.425 73.3242 100.629 73.0193C100.833 72.7143 100.941 72.3557 100.941 71.9889C100.941 71.497 100.746 71.0253 100.398 70.6775C100.05 70.3297 99.5786 70.1343 99.0867 70.1343Z" fill="#FFD4E3"/>
<path d="M64.9388 59.1553C64.572 59.1553 64.2134 59.264 63.9084 59.4678C63.6035 59.6716 63.3658 59.9612 63.2254 60.3001C63.085 60.639 63.0483 61.0119 63.1199 61.3716C63.1914 61.7314 63.368 62.0618 63.6274 62.3212C63.8868 62.5806 64.2172 62.7572 64.577 62.8288C64.9367 62.9003 65.3096 62.8636 65.6485 62.7232C65.9874 62.5829 66.277 62.3451 66.4808 62.0402C66.6846 61.7352 66.7934 61.3766 66.7934 61.0098C66.7934 60.518 66.598 60.0462 66.2502 59.6984C65.9024 59.3506 65.4307 59.1553 64.9388 59.1553Z" fill="#FFD4E3"/>
<path d="M76.3205 62.8803C77.3492 62.8803 78.1831 62.0464 78.1831 61.0178C78.1831 59.9892 77.3492 59.1553 76.3205 59.1553C75.2919 59.1553 74.458 59.9892 74.458 61.0178C74.458 62.0464 75.2919 62.8803 76.3205 62.8803Z" fill="#FFD4E3"/>
<path d="M87.7045 62.8803C88.7332 62.8803 89.5671 62.0464 89.5671 61.0178C89.5671 59.9892 88.7332 59.1553 87.7045 59.1553C86.6759 59.1553 85.842 59.9892 85.842 61.0178C85.842 62.0464 86.6759 62.8803 87.7045 62.8803Z" fill="#FFD4E3"/>
<path d="M99.0867 59.1553C98.7199 59.1553 98.3614 59.264 98.0564 59.4678C97.7514 59.6716 97.5137 59.9612 97.3733 60.3001C97.233 60.639 97.1963 61.0119 97.2678 61.3716C97.3394 61.7314 97.516 62.0618 97.7753 62.3212C98.0347 62.5806 98.3652 62.7572 98.7249 62.8288C99.0847 62.9003 99.4576 62.8636 99.7964 62.7232C100.135 62.5829 100.425 62.3451 100.629 62.0402C100.833 61.7352 100.941 61.3766 100.941 61.0098C100.941 60.518 100.746 60.0462 100.398 59.6984C100.05 59.3506 99.5786 59.1553 99.0867 59.1553Z" fill="#FFD4E3"/>
<path d="M107.506 52.7413C106.944 52.7413 106.395 52.908 105.928 53.2202C105.461 53.5324 105.097 53.9761 104.882 54.4952C104.667 55.0143 104.611 55.5855 104.721 56.1365C104.831 56.6875 105.101 57.1936 105.499 57.5907C105.896 57.9878 106.403 58.2581 106.954 58.3674C107.505 58.4767 108.076 58.4201 108.595 58.2047C109.114 57.9893 109.557 57.6249 109.869 57.1574C110.181 56.69 110.347 56.1407 110.346 55.5788C110.346 55.206 110.273 54.8368 110.13 54.4924C109.987 54.1479 109.778 53.835 109.514 53.5715C109.25 53.308 108.937 53.099 108.593 52.9566C108.248 52.8141 107.879 52.741 107.506 52.7413Z" fill="#FFD4E3"/>
<path d="M107.639 44.3454C103.072 43.8526 96.7528 47.3895 90.7361 53.7958L91.3163 54.3256C97.1635 48.1022 103.239 44.6607 107.554 45.1217C109.759 45.3575 111.55 46.5921 112.872 48.7937L113.553 48.383C112.095 45.9668 110.106 44.6103 107.639 44.3454Z" fill="#070000"/>
<path d="M35.359 64.1416C26.9367 56.0636 21.0709 59.9212 18.9329 61.2114C12.2644 65.2199 14.6011 80.2499 16.5723 88.3835C18.5434 96.5171 23.7256 108.892 23.7256 108.892L51.1202 88.3464C51.1202 88.3464 42.47 70.9585 35.359 64.1416Z" fill="white"/>
<path d="M27.9883 52.5429C27.9883 52.5429 29.6018 52.4873 29.7077 51.9468C29.7846 51.5521 29.6176 51.4382 28.2718 49.8856L27.9883 52.5429Z" fill="#4C3BE3"/>
<path d="M28.8173 51.0702C29.4237 47.7599 27.2317 44.5848 23.9214 43.9784C20.6111 43.3721 17.436 45.5641 16.8296 48.8744C16.2232 52.1847 18.4152 55.3598 21.7255 55.9661C25.0359 56.5725 28.211 54.3805 28.8173 51.0702Z" fill="#4C3BE3"/>
<path d="M22.4303 41.5823C27.8191 48.4998 16.3526 50.7147 21.5454 57.3991L33.2291 53.1601L29.52 41.4763L22.4303 41.5823Z" fill="#4C3BE3"/>
<path d="M25.8706 50.7701L26.6098 51.0642C26.6098 51.0483 27.2165 49.5832 28.5359 49.7157L28.6127 48.9209C27.0788 48.7699 26.1514 50.0654 25.8706 50.7701Z" fill="white"/>
<path d="M17.4064 49.1882C16.8184 49.1877 16.2434 49.3616 15.7542 49.6879C15.265 50.0142 14.8836 50.4783 14.6582 51.0214C14.4328 51.5646 14.3735 52.1623 14.4879 52.7391C14.6023 53.3159 14.8853 53.8458 15.3009 54.2618C15.7165 54.6778 16.2461 54.9612 16.8228 55.0761C17.3995 55.191 17.9974 55.1323 18.5407 54.9074C19.084 54.6825 19.5484 54.3015 19.8752 53.8126C20.202 53.3237 20.3764 52.7489 20.3764 52.1608C20.3764 51.3729 20.0635 50.6172 19.5066 50.0598C18.9497 49.5024 18.1943 49.1889 17.4064 49.1882Z" fill="#070000"/>
<path d="M15.6604 44.6553C15.0723 44.6553 14.4975 44.8297 14.0086 45.1564C13.5197 45.4832 13.1387 45.9476 12.9138 46.4909C12.6888 47.0343 12.6301 47.6321 12.7451 48.2088C12.86 48.7855 13.1434 49.3151 13.5593 49.7308C13.9753 50.1464 14.5052 50.4293 15.082 50.5437C15.6588 50.6581 16.2566 50.5988 16.7998 50.3734C17.3429 50.148 17.807 49.7666 18.1333 49.2774C18.4596 48.7882 18.6335 48.2133 18.633 47.6252C18.633 47.235 18.5561 46.8485 18.4066 46.488C18.2572 46.1275 18.0382 45.8 17.7621 45.5242C17.4861 45.2484 17.1584 45.0297 16.7977 44.8806C16.4371 44.7315 16.0506 44.6549 15.6604 44.6553Z" fill="#070000"/>
<path d="M19.2475 44.6553C18.6593 44.6548 18.0842 44.8287 17.595 45.1551C17.1057 45.4816 16.7243 45.9458 16.499 46.4891C16.2737 47.0324 16.2146 47.6303 16.3292 48.2071C16.4438 48.784 16.727 49.3139 17.1429 49.7298C17.5588 50.1457 18.0887 50.4289 18.6656 50.5435C19.2424 50.6581 19.8403 50.599 20.3836 50.3737C20.9269 50.1484 21.3911 49.767 21.7176 49.2777C22.044 48.7885 22.218 48.2134 22.2174 47.6252C22.2174 46.8375 21.9045 46.0821 21.3476 45.5252C20.7906 44.9682 20.0351 44.6553 19.2475 44.6553Z" fill="#070000"/>
<path d="M19.1313 41.1661C18.5434 41.1661 17.9686 41.3405 17.4798 41.6671C16.991 41.9937 16.6099 42.458 16.385 43.0012C16.16 43.5443 16.1011 44.142 16.2158 44.7187C16.3305 45.2953 16.6136 45.825 17.0294 46.2407C17.4451 46.6564 17.9747 46.9395 18.5514 47.0542C19.128 47.1689 19.7257 47.1101 20.2689 46.8851C20.812 46.6601 21.2763 46.2791 21.6029 45.7902C21.9296 45.3014 22.1039 44.7267 22.1039 44.1387C22.1039 43.3504 21.7907 42.5943 21.2332 42.0368C20.6758 41.4793 19.9197 41.1661 19.1313 41.1661Z" fill="#070000"/>
<path d="M23.4921 40.88C22.9041 40.8795 22.3291 41.0534 21.8399 41.3797C21.3507 41.706 20.9693 42.1701 20.7439 42.7132C20.5185 43.2563 20.4592 43.8541 20.5736 44.4309C20.688 45.0077 20.9709 45.5376 21.3866 45.9536C21.8022 46.3696 22.3319 46.653 22.9086 46.7679C23.4853 46.8828 24.0831 46.8241 24.6264 46.5992C25.1698 46.3743 25.6342 45.9933 25.9609 45.5044C26.2877 45.0155 26.4621 44.4406 26.4621 43.8526C26.4621 43.0647 26.1493 42.309 25.5924 41.7516C25.0355 41.1942 24.28 40.8807 23.4921 40.88Z" fill="#070000"/>
<path d="M22.6205 44.2001C22.0325 44.1996 21.4575 44.3735 20.9683 44.6998C20.4791 45.0262 20.0977 45.4902 19.8723 46.0334C19.6469 46.5765 19.5877 47.1743 19.7021 47.7511C19.8165 48.3279 20.0994 48.8578 20.515 49.2738C20.9306 49.6898 21.4603 49.9731 22.037 50.0881C22.6137 50.203 23.2115 50.1442 23.7548 49.9193C24.2981 49.6944 24.7626 49.3134 25.0893 48.8245C25.4161 48.3356 25.5905 47.7608 25.5905 47.1728C25.5905 46.3848 25.2777 45.6291 24.7208 45.0717C24.1639 44.5143 23.4084 44.2008 22.6205 44.2001Z" fill="#070000"/>
<path d="M20.6199 48.9341C20.3485 48.9341 20.0832 49.0146 19.8575 49.1654C19.6318 49.3162 19.4559 49.5306 19.352 49.7814C19.2482 50.0321 19.221 50.3081 19.2739 50.5743C19.3269 50.8405 19.4576 51.085 19.6495 51.277C19.8414 51.4689 20.086 51.5996 20.3522 51.6525C20.6184 51.7055 20.8943 51.6783 21.1451 51.5744C21.3959 51.4706 21.6102 51.2947 21.761 51.069C21.9118 50.8433 21.9923 50.578 21.9923 50.3065C21.9923 49.9426 21.8477 49.5935 21.5904 49.3361C21.333 49.0787 20.9839 48.9341 20.6199 48.9341Z" fill="#4C3BE3"/>
<path d="M10.4756 33.6338C3.91307 32.4681 3.91307 29.9008 3.28781 28.7219L1.49683 30.1366C1.49683 30.1366 3.46533 35.0804 7.40762 36.9985C11.3499 38.9167 11.8851 44.075 12.1527 46.8224C12.4203 49.5698 14.9372 50.5051 14.9372 50.5051C21.5606 47.2437 21.2957 42.4987 21.2957 42.4987C21.2957 42.4987 17.0355 34.8075 10.4756 33.6338Z" fill="#FF3D81"/>
<path d="M2.67639 31.8803C4.15278 31.8803 5.34961 30.6834 5.34961 29.207C5.34961 27.7306 4.15278 26.5338 2.67639 26.5338C1.20001 26.5338 0.00317383 27.7306 0.00317383 29.207C0.00317383 30.6834 1.20001 31.8803 2.67639 31.8803Z" fill="white"/>
<path d="M19.2474 39.5578C19.2474 39.5578 19.2819 42.2072 16.4497 45.0288C13.6175 47.8503 12.261 47.4636 12.261 47.4636C12.6001 50.5978 14.4335 51.6787 14.4335 51.6787C14.4335 51.6787 18.7387 49.1671 20.3867 46.8224C22.4876 43.8392 21.9922 41.166 21.9922 41.166C21.9922 41.166 19.6342 39.9473 19.2474 39.5578Z" fill="white"/>
<path d="M48.1473 66.0173L41.4072 76.5671C41.4072 76.5671 35.4541 69.472 30.4229 64.4435C21.9926 56.0105 14.8154 67.2863 24.5439 79.4973C27.4397 83.1296 33.8168 89.8299 42.0537 91.3851C49.472 92.7787 58.6812 65.8636 58.6812 65.8636C58.6812 65.8636 57.0995 63.0897 48.1473 66.0173Z" fill="#4C3BE3"/>
<path d="M72.1612 54.0631V52.1635H47.4849L72.1612 54.0631Z" fill="#070000"/>
<path d="M78.6601 28.1339H47.4849V52.1637H78.6601V28.1339Z" fill="#FF3D81"/>
<path d="M78.6601 40.0745H47.4849V40.8693H78.6601V40.0745Z" fill="#070000"/>
<path d="M74.1772 21.4362C73.7374 21.4098 73.2969 21.4779 72.8856 21.6361C72.4743 21.7942 72.1017 22.0386 71.7928 22.3529C70.3038 23.8312 70.0998 26.6926 70.076 27.7391C66.8411 27.808 64.5123 28.7088 63.5161 30.2984C62.7902 31.4456 62.8114 32.9001 63.577 34.5056C64.4195 36.278 62.9597 37.0596 62.7822 37.155L63.124 37.873C63.1479 37.873 65.4846 36.7019 64.2844 34.1638C63.6327 32.7994 63.5982 31.6416 64.1785 30.7196C65.0183 29.3949 67.1537 28.6002 70.0654 28.5313V52.1611H70.8602V28.5207C75.0038 28.3908 76.9326 26.2343 76.9538 24.226C77.0121 22.6417 75.8569 21.4945 74.1772 21.4362ZM70.8814 27.7285C70.9079 26.7429 71.1039 24.1624 72.3624 22.9146C72.5808 22.6909 72.8428 22.5146 73.1322 22.3965C73.4216 22.2785 73.7323 22.2212 74.0448 22.2284H74.1507C75.5814 22.2761 76.2066 23.259 76.1908 24.2128C76.1537 26.4171 73.5546 27.6172 70.8814 27.7285Z" fill="#070000"/>
<path d="M66.8914 23.8523C65.6488 23.9212 64.801 24.6842 64.8275 25.7069C64.8331 26.0295 64.9069 26.3473 65.0438 26.6395C65.1808 26.9317 65.3779 27.1917 65.6223 27.4025C66.7377 28.4066 68.8016 28.547 69.8613 28.547C70.2428 28.547 70.4972 28.5285 70.5343 28.5258L70.9343 28.4967L70.8999 28.0966C70.6164 25.0419 68.6267 23.7543 66.8914 23.8523ZM66.1416 26.8143C65.9782 26.6751 65.8464 26.5027 65.7551 26.3085C65.6637 26.1144 65.6148 25.9029 65.6117 25.6883C65.5932 25.018 66.2582 24.6815 66.9364 24.6445H67.0742C68.33 24.6445 69.7077 25.6035 70.0389 27.7575C68.9871 27.7734 67.0503 27.6356 66.1416 26.8143Z" fill="#070000"/>
<path d="M113.211 90.7094L115.842 98.4694L127.104 93.833L125.146 86.1418L113.211 90.7094Z" fill="white"/>
<path d="M22.5436 127.433L12.1315 60.1383C11.8201 58.0918 10.7834 56.2255 9.21052 54.8798C7.63764 53.534 5.63341 52.7985 3.56341 52.8075H0V53.6023H3.56341C5.44364 53.5941 7.26417 54.2621 8.69303 55.4842C10.1219 56.7064 11.0639 58.4014 11.3473 60.2602L21.7594 127.555C22.0814 129.698 23.1643 131.654 24.8101 133.065C26.4559 134.476 28.5545 135.247 30.7222 135.238H85.6651V134.443H30.7222C28.7443 134.452 26.8294 133.748 25.3276 132.461C23.8258 131.173 22.8376 129.389 22.5436 127.433Z" fill="#070000"/>
<path d="M39.1684 138.412C38.4148 138.411 37.6779 138.634 37.0511 139.053C36.4242 139.471 35.9355 140.066 35.6467 140.762C35.358 141.458 35.2821 142.224 35.4288 142.963C35.5755 143.702 35.9382 144.382 36.4709 144.915C37.0036 145.448 37.6824 145.811 38.4215 145.958C39.1606 146.105 39.9268 146.03 40.6231 145.742C41.3194 145.453 41.9146 144.965 42.3333 144.339C42.7521 143.712 42.9756 142.975 42.9756 142.222C42.9756 141.212 42.5746 140.243 41.8606 139.529C41.1467 138.814 40.1784 138.413 39.1684 138.412Z" fill="#070000"/>
<path d="M39.1687 134.443C37.6303 134.443 36.1264 134.899 34.8472 135.754C33.568 136.608 32.571 137.823 31.9823 139.245C31.3935 140.666 31.2395 142.23 31.5396 143.739C31.8397 145.248 32.5806 146.634 33.6685 147.722C34.7563 148.81 36.1423 149.55 37.6512 149.851C39.1601 150.151 40.7241 149.997 42.1455 149.408C43.5668 148.819 44.7817 147.822 45.6364 146.543C46.4911 145.264 46.9473 143.76 46.9473 142.221C46.9452 140.159 46.125 138.182 44.6667 136.723C43.2084 135.265 41.2311 134.445 39.1687 134.443ZM39.1687 149.205C37.7875 149.205 36.4373 148.796 35.2888 148.028C34.1403 147.261 33.2451 146.17 32.7166 144.894C32.188 143.618 32.0497 142.214 32.3192 140.859C32.5886 139.504 33.2538 138.26 34.2305 137.283C35.2072 136.306 36.4516 135.641 37.8063 135.372C39.161 135.102 40.5652 135.241 41.8413 135.769C43.1174 136.298 44.2081 137.193 44.9755 138.341C45.7429 139.49 46.1525 140.84 46.1525 142.221C46.1504 144.073 45.414 145.848 44.1047 147.157C42.7954 148.467 41.0203 149.203 39.1687 149.205Z" fill="#070000"/>
<path d="M72.9585 138.412C72.2049 138.411 71.468 138.634 70.8411 139.053C70.2143 139.471 69.7255 140.066 69.4368 140.762C69.148 141.458 69.0722 142.224 69.2189 142.963C69.3656 143.702 69.7282 144.382 70.2609 144.915C70.7936 145.448 71.4725 145.811 72.2116 145.958C72.9507 146.105 73.7168 146.03 74.4132 145.742C75.1095 145.453 75.7046 144.965 76.1234 144.339C76.5421 143.712 76.7656 142.975 76.7656 142.222C76.7656 141.212 76.3646 140.243 75.6507 139.529C74.9368 138.814 73.9684 138.413 72.9585 138.412Z" fill="#070000"/>
<path d="M72.9588 134.443C71.4203 134.443 69.9164 134.899 68.6372 135.754C67.358 136.608 66.361 137.823 65.7723 139.245C65.1836 140.666 65.0295 142.23 65.3296 143.739C65.6298 145.248 66.3706 146.634 67.4585 147.722C68.5463 148.81 69.9323 149.55 71.4412 149.851C72.9501 150.151 74.5142 149.997 75.9355 149.408C77.3569 148.819 78.5717 147.822 79.4264 146.543C80.2811 145.264 80.7374 143.76 80.7374 142.221C80.7353 140.159 79.915 138.182 78.4567 136.723C76.9984 135.265 75.0211 134.445 72.9588 134.443ZM72.9588 149.205C71.5775 149.205 70.2273 148.796 69.0788 148.028C67.9303 147.261 67.0352 146.17 66.5066 144.894C65.978 143.618 65.8397 142.214 66.1092 140.859C66.3787 139.504 67.0438 138.26 68.0205 137.283C68.9972 136.306 70.2416 135.641 71.5963 135.372C72.951 135.102 74.3552 135.241 75.6314 135.769C76.9075 136.298 77.9982 137.193 78.7656 138.341C79.5329 139.49 79.9425 140.84 79.9425 142.221C79.9404 144.073 79.204 145.848 77.8947 147.157C76.5855 148.467 74.8103 149.203 72.9588 149.205Z" fill="#070000"/>
<path d="M12.6956 66.7775H104.12L90.2616 108.903C89.5372 111.113 88.1324 113.038 86.248 114.402C84.3636 115.766 82.0961 116.499 79.77 116.496H20.604V117.291H79.77C82.2634 117.293 84.6939 116.508 86.7139 115.046C88.7338 113.584 90.2399 111.521 91.0166 109.152L105.217 65.9668H12.6956V66.7775Z" fill="#070000"/>
<path d="M77.8467 78.2576H14.8152V79.0524H77.8467V78.2576Z" fill="#070000"/>
<path d="M96.4426 90.9852H16.5637V91.78H96.4426V90.9852Z" fill="#070000"/>
<path d="M92.2597 103.713H34.625V104.508H92.2597V103.713Z" fill="#070000"/>
<path d="M53.9622 62.5914L58.2568 64.65C58.2568 64.65 63.0257 57.796 61.8891 56.6515C60.7525 55.507 56.585 60.6336 53.9622 62.5914Z" fill="#4C3BE3"/>
<path d="M48.1475 66.0172L53.5549 66.1417L56.448 70.6456L63.5245 63.4737L63.1854 60.2548C55.9075 60.5435 51.226 61.9318 48.1475 66.0172Z" fill="#4C3BE3"/>
<path d="M60.541 61.8314C60.541 61.8314 66.1577 70.3306 67.6652 69.7371C69.1727 69.1437 66.4836 64.3404 63.1851 60.2682L60.541 61.8314Z" fill="#4C3BE3"/>
<path d="M62.8699 60.5066C65.8133 64.3456 67.9726 68.2534 67.5858 69.0403L68.3011 69.39C69.2045 67.5354 64.0859 60.7875 63.5004 60.0218L62.8699 60.5066Z" fill="#070000"/>
<path d="M58.0559 63.2064C58.0559 63.2064 63.6726 71.7056 65.1801 71.1121C66.6876 70.5187 63.9985 65.7154 60.7 61.6432L58.0559 63.2064Z" fill="#4C3BE3"/>
<path d="M61.8074 63.8158C65.2092 68.2509 65.5801 69.8829 65.2913 70.4711L66.0067 70.8208C66.5922 69.6233 65.4927 67.3157 62.4379 63.331L61.8074 63.8158Z" fill="#070000"/>
<path d="M55.4277 64.4806C55.4277 64.4806 61.0444 72.9798 62.5519 72.3863C64.0594 71.7928 61.3703 66.9895 58.0718 62.9174L55.4277 64.4806Z" fill="#4C3BE3"/>
<path d="M59.3174 65.2887C61.9509 68.7329 63.0742 70.8922 62.6556 71.7426L63.3709 72.0923C63.9617 70.8842 62.9391 68.7064 59.9479 64.8065L59.3174 65.2887Z" fill="#070000"/>
<path d="M53.5178 66.2957C53.5178 66.2957 58.133 73.9789 59.6538 73.4252C61.1745 72.8715 58.6761 67.8853 55.8757 64.2106L53.5178 66.2957Z" fill="#4C3BE3"/>
<path d="M57.1157 66.8492C58.8378 69.2999 60.3506 71.7161 59.7651 72.7918L60.4645 73.1707C61.217 71.785 60.0433 69.6364 57.7648 66.3909L57.1157 66.8492Z" fill="#070000"/>
</svg>
