<?xml version="1.0" encoding="UTF-8" standalone="no"?>
<!-- Created with Inkscape (http://www.inkscape.org/) -->

<svg
   version="1.1"
   id="svg2"
   width="666.66669"
   height="666.71997"
   viewBox="0 0 666.66669 666.71997"
   sodipodi:docname="web-design.eps"
   xmlns:inkscape="http://www.inkscape.org/namespaces/inkscape"
   xmlns:sodipodi="http://sodipodi.sourceforge.net/DTD/sodipodi-0.dtd"
   xmlns="http://www.w3.org/2000/svg"
   xmlns:svg="http://www.w3.org/2000/svg">
  <defs
     id="defs6" />
  <sodipodi:namedview
     id="namedview4"
     pagecolor="#ffffff"
     bordercolor="#000000"
     borderopacity="0.25"
     inkscape:showpageshadow="2"
     inkscape:pageopacity="0.0"
     inkscape:pagecheckerboard="0"
     inkscape:deskcolor="#d1d1d1"
     showgrid="false" />
  <g
     id="g10"
     inkscape:groupmode="layer"
     inkscape:label="Page 1"
     transform="matrix(1.3333333,0,0,-1.3333333,0,666.72)">
    <path
       d="m 446.02,117.163 c 0,-4.872 -3.353,-8.819 -7.489,-8.819 H 61.4688 c -4.136,0 -7.4883,3.947 -7.4883,8.819 v 0 c 0,4.872 3.3523,8.819 7.4883,8.819 H 438.531 c 4.136,0 7.489,-3.947 7.489,-8.819 v 0"
       style="fill:#6897d6;fill-opacity:1;fill-rule:nonzero;stroke:none;stroke-width:0.1"
       id="path16" />
    <path
       d="m 474.453,175.293 c 1.285,5.338 -1.48,10.396 -6.515,11.57 -2.596,0.606 -5.315,0.059 -7.645,-1.308 0.102,0.968 0.172,1.947 0.172,2.951 0,12.082 -7.557,21.877 -16.881,21.877 -7.369,0 -13.617,-6.127 -15.922,-14.659 -2.986,3.04 -6.805,4.661 -10.499,4.045 -6.504,-1.084 -10.172,-8.689 -8.255,-17.031 -1.256,0.633 -2.653,0.996 -4.135,0.996 -4.752,0 -8.7,-3.64 -9.533,-8.441 h 79.213"
       style="fill:#96c8ed;fill-opacity:1;fill-rule:nonzero;stroke:none;stroke-width:0.1"
       id="path18" />
    <path
       d="m 104.447,291.116 c 1.285,5.338 -1.481,10.398 -6.5157,11.571 -2.5958,0.606 -5.3145,0.059 -7.6446,-1.308 0.1016,0.969 0.1719,1.947 0.1719,2.951 0,12.082 -7.5566,21.877 -16.8809,21.877 -7.3691,0 -13.6172,-6.128 -15.9218,-14.658 -2.9864,3.039 -6.8047,4.66 -10.4993,4.045 -6.5039,-1.084 -10.1718,-8.69 -8.2546,-17.033 -1.2559,0.633 -2.6536,0.997 -4.1348,0.997 -4.7531,0 -8.7004,-3.641 -9.5332,-8.442 h 79.213"
       style="fill:#96c8ed;fill-opacity:1;fill-rule:nonzero;stroke:none;stroke-width:0.1"
       id="path20" />
    <path
       d="m 326.539,389.599 c 1.285,5.338 -1.48,10.398 -6.516,11.572 -2.595,0.605 -5.314,0.058 -7.644,-1.309 0.101,0.969 0.172,1.947 0.172,2.951 0,12.082 -7.557,21.877 -16.881,21.877 -7.369,0 -13.617,-6.127 -15.922,-14.658 -2.986,3.039 -6.805,4.66 -10.499,4.045 -6.504,-1.084 -10.172,-8.689 -8.255,-17.032 -1.256,0.633 -2.653,0.996 -4.135,0.996 -4.753,0 -8.7,-3.641 -9.533,-8.442 h 79.213"
       style="fill:#96c8ed;fill-opacity:1;fill-rule:nonzero;stroke:none;stroke-width:0.1"
       id="path22" />
    <path
       d="m 443.189,389.599 c 0,-3.454 -2.8,-6.253 -6.253,-6.253 -3.456,0 -6.254,2.799 -6.254,6.253 0,3.455 2.798,6.254 6.254,6.254 3.453,0 6.253,-2.799 6.253,-6.254"
       style="fill:#96c8ed;fill-opacity:1;fill-rule:nonzero;stroke:none;stroke-width:0.1"
       id="path24" />
    <path
       d="m 446.69,231.883 c 0,-3.454 -2.8,-6.254 -6.253,-6.254 -3.456,0 -6.254,2.8 -6.254,6.254 0,3.454 2.798,6.254 6.254,6.254 3.453,0 6.253,-2.8 6.253,-6.254"
       style="fill:#96c8ed;fill-opacity:1;fill-rule:nonzero;stroke:none;stroke-width:0.1"
       id="path26" />
    <path
       d="m 142.514,399.316 c 0,-3.454 -2.801,-6.254 -6.254,-6.254 -3.455,0 -6.254,2.8 -6.254,6.254 0,3.454 2.799,6.254 6.254,6.254 3.453,0 6.254,-2.8 6.254,-6.254"
       style="fill:#96c8ed;fill-opacity:1;fill-rule:nonzero;stroke:none;stroke-width:0.1"
       id="path28" />
    <path
       d="m 56.1641,342.547 c 0,-3.454 -2.8008,-6.254 -6.2539,-6.254 -3.4551,0 -6.2539,2.8 -6.2539,6.254 0,3.454 2.7988,6.253 6.2539,6.253 3.4531,0 6.2539,-2.799 6.2539,-6.253"
       style="fill:#96c8ed;fill-opacity:1;fill-rule:nonzero;stroke:none;stroke-width:0.1"
       id="path30" />
    <path
       d="m 91.7004,407.145 c 0,-2.201 -1.7856,-3.986 -3.9863,-3.986 -2.2036,0 -3.9868,1.785 -3.9868,3.986 0,2.203 1.7832,3.987 3.9868,3.987 2.2007,0 3.9863,-1.784 3.9863,-3.987"
       style="fill:#96c8ed;fill-opacity:1;fill-rule:nonzero;stroke:none;stroke-width:0.1"
       id="path32" />
    <path
       d="m 61.8691,251.09 c 0,-2.201 -1.7851,-3.987 -3.9863,-3.987 -2.2031,0 -3.9863,1.786 -3.9863,3.987 0,2.202 1.7832,3.987 3.9863,3.987 2.2012,0 3.9863,-1.785 3.9863,-3.987"
       style="fill:#96c8ed;fill-opacity:1;fill-rule:nonzero;stroke:none;stroke-width:0.1"
       id="path34" />
    <path
       d="m 104.523,217.771 c 0,-2.201 -1.785,-3.987 -3.986,-3.987 -2.203,0 -3.9862,1.786 -3.9862,3.987 0,2.203 1.7832,3.987 3.9862,3.987 2.201,0 3.986,-1.784 3.986,-3.987"
       style="fill:#96c8ed;fill-opacity:1;fill-rule:nonzero;stroke:none;stroke-width:0.1"
       id="path36" />
    <path
       d="m 57.8816,145.906 c 0,-2.201 -1.7847,-3.987 -3.9863,-3.987 -2.2027,0 -3.9859,1.786 -3.9859,3.987 0,2.202 1.7832,3.986 3.9859,3.986 2.2016,0 3.9863,-1.784 3.9863,-3.986"
       style="fill:#96c8ed;fill-opacity:1;fill-rule:nonzero;stroke:none;stroke-width:0.1"
       id="path38" />
    <path
       d="m 456.344,151.223 c 0,-2.202 -1.785,-3.987 -3.987,-3.987 -2.203,0 -3.986,1.785 -3.986,3.987 0,2.202 1.783,3.986 3.986,3.986 2.202,0 3.987,-1.784 3.987,-3.986"
       style="fill:#96c8ed;fill-opacity:1;fill-rule:nonzero;stroke:none;stroke-width:0.1"
       id="path40" />
    <path
       d="m 368.725,409.967 c 0,-2.201 -1.786,-3.987 -3.987,-3.987 -2.203,0 -3.986,1.786 -3.986,3.987 0,2.203 1.783,3.987 3.986,3.987 2.201,0 3.987,-1.784 3.987,-3.987"
       style="fill:#96c8ed;fill-opacity:1;fill-rule:nonzero;stroke:none;stroke-width:0.1"
       id="path42" />
    <path
       d="m 456.344,336.293 c 0,-2.201 -1.785,-3.987 -3.987,-3.987 -2.203,0 -3.986,1.786 -3.986,3.987 0,2.202 1.783,3.987 3.986,3.987 2.202,0 3.987,-1.785 3.987,-3.987"
       style="fill:#96c8ed;fill-opacity:1;fill-rule:nonzero;stroke:none;stroke-width:0.1"
       id="path44" />
    <path
       d="m 240.814,405.57 c 0,-2.201 -1.785,-3.987 -3.986,-3.987 -2.203,0 -3.986,1.786 -3.986,3.987 0,2.202 1.783,3.987 3.986,3.987 2.201,0 3.986,-1.785 3.986,-3.987"
       style="fill:#96c8ed;fill-opacity:1;fill-rule:nonzero;stroke:none;stroke-width:0.1"
       id="path46" />
    <path
       d="m 422.48,274.92 c -6.433,0 -11.652,5.218 -11.652,11.652 0,6.437 5.219,11.654 11.652,11.654 6.438,0 11.653,-5.217 11.653,-11.654 0,-6.434 -5.215,-11.652 -11.653,-11.652 z m 32.131,5.119 v 13.123 h -8.449 c -0.543,1.956 -1.32,3.813 -2.305,5.538 l 5.983,5.981 -9.279,9.278 -5.989,-5.985 c -1.724,0.976 -3.578,1.75 -5.529,2.288 v 8.469 H 415.92 v -8.469 c -1.951,-0.538 -3.805,-1.312 -5.531,-2.288 l -5.989,5.985 -9.277,-9.278 5.981,-5.981 c -0.983,-1.725 -1.76,-3.582 -2.303,-5.538 h -8.449 v -13.123 h 8.433 c 0.537,-1.963 1.315,-3.825 2.297,-5.559 l -5.959,-5.957 9.277,-9.28 5.952,5.95 c 1.736,-0.986 3.601,-1.767 5.568,-2.31 v -8.409 h 13.123 v 8.409 c 1.967,0.543 3.832,1.324 5.568,2.31 l 5.95,-5.95 9.279,9.28 -5.957,5.957 c 0.98,1.734 1.758,3.596 2.297,5.559 h 8.431"
       style="fill:#1c2f46;fill-opacity:1;fill-rule:nonzero;stroke:none;stroke-width:0.1"
       id="path48" />
    <path
       d="m 77.4031,172.008 c -6.4336,0 -11.6519,5.217 -11.6519,11.652 0,6.437 5.2183,11.654 11.6519,11.654 6.4375,0 11.6528,-5.217 11.6528,-11.654 0,-6.435 -5.2153,-11.652 -11.6528,-11.652 z m 32.1309,5.119 v 13.123 h -8.449 c -0.543,1.956 -1.3205,3.812 -2.3045,5.538 l 5.9825,5.979 -9.2794,9.28 -5.9887,-5.987 c -1.7246,0.977 -3.5777,1.751 -5.5293,2.289 v 8.47 H 70.843 v -8.47 c -1.9512,-0.538 -3.8047,-1.312 -5.5317,-2.289 l -5.9883,5.987 -9.2769,-9.28 5.9805,-5.979 c -0.9828,-1.726 -1.7598,-3.582 -2.3032,-5.538 h -8.4492 v -13.123 h 8.4336 c 0.5371,-1.963 1.3149,-3.825 2.2973,-5.559 l -5.959,-5.957 9.2769,-9.28 5.9512,5.95 c 1.7363,-0.986 3.602,-1.767 5.5688,-2.31 v -8.409 h 13.1226 v 8.409 c 1.9668,0.543 3.8324,1.324 5.5688,2.31 l 5.9492,-5.95 9.2794,9.28 -5.9571,5.957 c 0.98,1.734 1.7571,3.596 2.2971,5.559 h 8.431"
       style="fill:#1c2f46;fill-opacity:1;fill-rule:nonzero;stroke:none;stroke-width:0.1"
       id="path50" />
    <path
       d="m 188.974,363.333 c -6.435,0 -11.653,5.218 -11.653,11.653 0,6.436 5.218,11.653 11.653,11.653 6.437,0 11.652,-5.217 11.652,-11.653 0,-6.435 -5.215,-11.653 -11.652,-11.653 z m 32.13,5.12 v 13.123 h -8.45 c -0.542,1.956 -1.32,3.812 -2.303,5.538 l 5.981,5.979 -9.279,9.279 -5.988,-5.986 c -1.724,0.977 -3.578,1.751 -5.529,2.288 v 8.471 h -13.123 v -8.471 c -1.951,-0.537 -3.806,-1.311 -5.531,-2.288 l -5.988,5.986 -9.278,-9.279 5.98,-5.979 c -0.983,-1.726 -1.759,-3.582 -2.302,-5.538 h -8.449 v -13.123 h 8.432 c 0.537,-1.963 1.315,-3.826 2.297,-5.559 l -5.958,-5.957 9.278,-9.28 5.951,5.95 c 1.735,-0.987 3.601,-1.768 5.568,-2.311 v -8.408 h 13.123 v 8.408 c 1.966,0.543 3.831,1.324 5.568,2.311 l 5.949,-5.95 9.279,9.28 -5.957,5.957 c 0.98,1.733 1.758,3.596 2.297,5.559 h 8.432"
       style="fill:#1c2f46;fill-opacity:1;fill-rule:nonzero;stroke:none;stroke-width:0.1"
       id="path52" />
    <path
       d="M 416.85,375.016 H 83.1477 c -2.7961,0 -5.0637,-2.268 -5.0637,-5.062 v -0.084 -247.561 -0.084 c 0,-2.793 2.2676,-5.062 5.0637,-5.062 H 416.85 c 2.796,0 5.066,2.269 5.066,5.062 v 0.084 247.561 0.084 c 0,2.794 -2.27,5.062 -5.066,5.062"
       style="fill:#ffffff;fill-opacity:1;fill-rule:nonzero;stroke:none;stroke-width:0.1"
       id="path54" />
    <path
       d="M 83.1477,375.016 H 416.85 c 2.796,0 5.066,-2.268 5.066,-5.062 v -23.97 H 78.084 v 23.97 c 0,2.794 2.2676,5.062 5.0637,5.062"
       style="fill:#223b6c;fill-opacity:1;fill-rule:nonzero;stroke:none;stroke-width:0.1"
       id="path56" />
    <path
       d="m 403.674,360.189 c 0,-1.915 1.553,-3.468 3.465,-3.468 1.922,0 3.47,1.553 3.47,3.468 0,1.917 -1.548,3.47 -3.47,3.47 -1.912,0 -3.465,-1.553 -3.465,-3.47"
       style="fill:#fcca1e;fill-opacity:1;fill-rule:nonzero;stroke:none;stroke-width:0.1"
       id="path58" />
    <path
       d="m 389.994,360.189 c 0,-1.915 1.551,-3.468 3.469,-3.468 1.918,0 3.469,1.553 3.469,3.468 0,1.917 -1.551,3.47 -3.469,3.47 -1.918,0 -3.469,-1.553 -3.469,-3.47"
       style="fill:#fcca1e;fill-opacity:1;fill-rule:nonzero;stroke:none;stroke-width:0.1"
       id="path60" />
    <path
       d="m 376.314,360.189 c 0,-1.915 1.555,-3.468 3.467,-3.468 1.92,0 3.469,1.553 3.469,3.468 0,1.917 -1.549,3.47 -3.469,3.47 -1.912,0 -3.467,-1.553 -3.467,-3.47"
       style="fill:#fcca1e;fill-opacity:1;fill-rule:nonzero;stroke:none;stroke-width:0.1"
       id="path62" />
    <path
       d="m 89.3906,360.189 c 0,-4.109 3.3328,-7.443 7.4364,-7.443 4.123,0 7.444,3.334 7.444,7.443 0,4.113 -3.321,7.446 -7.444,7.446 -4.1036,0 -7.4364,-3.333 -7.4364,-7.446"
       style="fill:#c6eced;fill-opacity:1;fill-rule:nonzero;stroke:none;stroke-width:0.1"
       id="path64" />
    <path
       d="m 114.627,352.612 h 250.537 c 0.822,0 1.484,0.589 1.484,1.318 v 12.519 c 0,0.727 -0.662,1.318 -1.484,1.318 H 114.627 c -0.817,0 -1.481,-0.591 -1.481,-1.318 V 353.93 c 0,-0.729 0.664,-1.318 1.481,-1.318"
       style="fill:#2153aa;fill-opacity:1;fill-rule:nonzero;stroke:none;stroke-width:0.1"
       id="path66" />
    <path
       d="m 358.573,358.094 c -1.358,-1.034 -3.297,-0.771 -4.331,0.588 -1.034,1.358 -0.77,3.297 0.587,4.33 1.359,1.034 3.298,0.772 4.331,-0.587 1.034,-1.358 0.772,-3.297 -0.587,-4.331 z"
       style="fill:none;stroke:#ffffff;stroke-width:1;stroke-linecap:round;stroke-linejoin:round;stroke-miterlimit:10;stroke-dasharray:none;stroke-opacity:1"
       id="path68" />
    <path
       d="m 351.433,356.543 2.809,2.139"
       style="fill:none;stroke:#ffffff;stroke-width:1;stroke-linecap:round;stroke-linejoin:round;stroke-miterlimit:10;stroke-dasharray:none;stroke-opacity:1"
       id="path70" />
    <path
       d="M 421.916,328.759 H 78.084 v 17.225 h 343.832 v -17.225"
       style="fill:#c6eced;fill-opacity:1;fill-rule:nonzero;stroke:none;stroke-width:0.1"
       id="path72" />
    <path
       d="m 139.074,227.658 h 184.292 c 0.743,0 1.348,0.61 1.348,1.37 v 44.122 c 0,0.758 -0.605,1.372 -1.348,1.372 H 139.074 c -0.744,0 -1.346,-0.614 -1.346,-1.372 v -44.122 c 0,-0.76 0.602,-1.37 1.346,-1.37"
       style="fill:#c6eced;fill-opacity:1;fill-rule:nonzero;stroke:none;stroke-width:0.1"
       id="path74" />
    <path
       d="m 139.074,274.522 c -0.744,0 -1.346,-0.614 -1.346,-1.372 v -44.122 c 0,-0.76 0.602,-1.37 1.346,-1.37 h 44.614 v 46.864 h -44.614"
       style="fill:#5b73c1;fill-opacity:1;fill-rule:nonzero;stroke:none;stroke-width:0.1"
       id="path76" />
    <path
       d="M 316.838,252.191 H 190.264 v 1.588 h 126.574 v -1.588"
       style="fill:#5b73c1;fill-opacity:1;fill-rule:nonzero;stroke:none;stroke-width:0.1"
       id="path78" />
    <path
       d="m 253.385,248.133 h -63.121 v 1.587 h 63.121 v -1.587"
       style="fill:#5b73c1;fill-opacity:1;fill-rule:nonzero;stroke:none;stroke-width:0.1"
       id="path80" />
    <path
       d="m 316.838,248.133 h -58.815 v 1.587 h 58.815 v -1.587"
       style="fill:#5b73c1;fill-opacity:1;fill-rule:nonzero;stroke:none;stroke-width:0.1"
       id="path82" />
    <path
       d="m 215.054,244.078 h -24.79 v 1.587 h 24.79 v -1.587"
       style="fill:#5b73c1;fill-opacity:1;fill-rule:nonzero;stroke:none;stroke-width:0.1"
       id="path84" />
    <path
       d="m 270.541,244.078 h -51.122 v 1.587 h 51.122 v -1.587"
       style="fill:#5b73c1;fill-opacity:1;fill-rule:nonzero;stroke:none;stroke-width:0.1"
       id="path86" />
    <path
       d="m 263.052,265.131 h -72.788 v 3.872 h 72.788 v -3.872"
       style="fill:#ee256e;fill-opacity:1;fill-rule:nonzero;stroke:none;stroke-width:0.1"
       id="path88" />
    <path
       d="m 223.403,258.911 h -33.139 v 3.871 h 33.139 v -3.871"
       style="fill:#223b6c;fill-opacity:1;fill-rule:nonzero;stroke:none;stroke-width:0.1"
       id="path90" />
    <path
       d="m 278.897,258.911 h -51.028 v 3.871 h 51.028 v -3.871"
       style="fill:#223b6c;fill-opacity:1;fill-rule:nonzero;stroke:none;stroke-width:0.1"
       id="path92" />
    <path
       d="m 316.838,236.411 c 0,-2.126 -1.691,-3.852 -3.775,-3.852 h -21.059 c -2.084,0 -3.775,1.726 -3.775,3.852 v 0 c 0,2.125 1.691,3.849 3.775,3.849 h 21.059 c 2.084,0 3.775,-1.724 3.775,-3.849 v 0"
       style="fill:#fcca1e;fill-opacity:1;fill-rule:nonzero;stroke:none;stroke-width:0.1"
       id="path94" />
    <path
       d="M 90.6395,280.408 H 127.75 c 0.689,0 1.25,0.559 1.25,1.252 v 36.633 c 0,0.691 -0.561,1.254 -1.25,1.254 H 90.6395 c -0.6903,0 -1.2489,-0.563 -1.2489,-1.254 V 281.66 c 0,-0.693 0.5586,-1.252 1.2489,-1.252"
       style="fill:#fcca1e;fill-opacity:1;fill-rule:nonzero;stroke:none;stroke-width:0.1"
       id="path96" />
    <path
       d="M 90.6395,254.869 H 127.75 c 0.689,0 1.25,0.559 1.25,1.252 v 16.633 c 0,0.692 -0.561,1.254 -1.25,1.254 H 90.6395 c -0.6903,0 -1.2489,-0.562 -1.2489,-1.254 v -16.633 c 0,-0.693 0.5586,-1.252 1.2489,-1.252"
       style="fill:#5b73c1;fill-opacity:1;fill-rule:nonzero;stroke:none;stroke-width:0.1"
       id="path98" />
    <path
       d="M 90.6395,148.535 H 127.75 c 0.689,0 1.25,0.559 1.25,1.252 v 16.634 c 0,0.691 -0.561,1.254 -1.25,1.254 H 90.6395 c -0.6903,0 -1.2489,-0.563 -1.2489,-1.254 v -16.634 c 0,-0.693 0.5586,-1.252 1.2489,-1.252"
       style="fill:#5b73c1;fill-opacity:1;fill-rule:nonzero;stroke:none;stroke-width:0.1"
       id="path100" />
    <path
       d="m 100.443,131.414 c 0,-0.442 -0.358,-0.801 -0.8004,-0.801 h -9.4512 c -0.4426,0 -0.8008,0.359 -0.8008,0.801 v 9.451 c 0,0.443 0.3582,0.801 0.8008,0.801 h 9.4512 c 0.4424,0 0.8004,-0.358 0.8004,-0.801 v -9.451"
       style="fill:#5b73c1;fill-opacity:1;fill-rule:nonzero;stroke:none;stroke-width:0.1"
       id="path102" />
    <path
       d="m 125.043,136.837 h -20.498 v 2.346 h 20.498 v -2.346"
       style="fill:#ee256e;fill-opacity:1;fill-rule:nonzero;stroke:none;stroke-width:0.1"
       id="path104" />
    <path
       d="m 114.333,133.067 h -9.788 v 2.346 h 9.788 v -2.346"
       style="fill:#5b73c1;fill-opacity:1;fill-rule:nonzero;stroke:none;stroke-width:0.1"
       id="path106" />
    <path
       d="M 129.322,133.067 H 115.54 v 2.346 h 13.782 v -2.346"
       style="fill:#5b73c1;fill-opacity:1;fill-rule:nonzero;stroke:none;stroke-width:0.1"
       id="path108" />
    <path
       d="M 90.6395,227.202 H 127.75 c 0.689,0 1.25,0.559 1.25,1.252 v 16.634 c 0,0.691 -0.561,1.254 -1.25,1.254 H 90.6395 c -0.6903,0 -1.2489,-0.563 -1.2489,-1.254 v -16.634 c 0,-0.693 0.5586,-1.252 1.2489,-1.252"
       style="fill:#5b73c1;fill-opacity:1;fill-rule:nonzero;stroke:none;stroke-width:0.1"
       id="path110" />
    <path
       d="m 100.443,210.081 c 0,-0.442 -0.358,-0.801 -0.8004,-0.801 h -9.4512 c -0.4426,0 -0.8008,0.359 -0.8008,0.801 v 9.451 c 0,0.442 0.3582,0.801 0.8008,0.801 h 9.4512 c 0.4424,0 0.8004,-0.359 0.8004,-0.801 v -9.451"
       style="fill:#5b73c1;fill-opacity:1;fill-rule:nonzero;stroke:none;stroke-width:0.1"
       id="path112" />
    <path
       d="m 125.043,215.504 h -20.498 v 2.346 h 20.498 v -2.346"
       style="fill:#ee256e;fill-opacity:1;fill-rule:nonzero;stroke:none;stroke-width:0.1"
       id="path114" />
    <path
       d="m 114.333,211.734 h -9.788 v 2.346 h 9.788 v -2.346"
       style="fill:#5b73c1;fill-opacity:1;fill-rule:nonzero;stroke:none;stroke-width:0.1"
       id="path116" />
    <path
       d="M 129.322,211.734 H 115.54 v 2.346 h 13.782 v -2.346"
       style="fill:#5b73c1;fill-opacity:1;fill-rule:nonzero;stroke:none;stroke-width:0.1"
       id="path118" />
    <path
       d="m 100.443,193.164 c 0,-0.442 -0.358,-0.801 -0.8004,-0.801 h -9.4512 c -0.4426,0 -0.8008,0.359 -0.8008,0.801 v 9.451 c 0,0.443 0.3582,0.801 0.8008,0.801 h 9.4512 c 0.4424,0 0.8004,-0.358 0.8004,-0.801 v -9.451"
       style="fill:#5b73c1;fill-opacity:1;fill-rule:nonzero;stroke:none;stroke-width:0.1"
       id="path120" />
    <path
       d="m 125.043,198.587 h -20.498 v 2.346 h 20.498 v -2.346"
       style="fill:#ee256e;fill-opacity:1;fill-rule:nonzero;stroke:none;stroke-width:0.1"
       id="path122" />
    <path
       d="m 114.333,194.817 h -9.788 v 2.346 h 9.788 v -2.346"
       style="fill:#5b73c1;fill-opacity:1;fill-rule:nonzero;stroke:none;stroke-width:0.1"
       id="path124" />
    <path
       d="M 129.322,194.817 H 115.54 v 2.346 h 13.782 v -2.346"
       style="fill:#5b73c1;fill-opacity:1;fill-rule:nonzero;stroke:none;stroke-width:0.1"
       id="path126" />
    <path
       d="m 100.443,176.247 c 0,-0.442 -0.358,-0.801 -0.8004,-0.801 h -9.4512 c -0.4426,0 -0.8008,0.359 -0.8008,0.801 v 9.451 c 0,0.443 0.3582,0.801 0.8008,0.801 h 9.4512 c 0.4424,0 0.8004,-0.358 0.8004,-0.801 v -9.451"
       style="fill:#5b73c1;fill-opacity:1;fill-rule:nonzero;stroke:none;stroke-width:0.1"
       id="path128" />
    <path
       d="m 125.043,181.67 h -20.498 v 2.346 h 20.498 v -2.346"
       style="fill:#ee256e;fill-opacity:1;fill-rule:nonzero;stroke:none;stroke-width:0.1"
       id="path130" />
    <path
       d="m 114.333,177.9 h -9.788 v 2.346 h 9.788 V 177.9"
       style="fill:#5b73c1;fill-opacity:1;fill-rule:nonzero;stroke:none;stroke-width:0.1"
       id="path132" />
    <path
       d="M 129.322,177.9 H 115.54 v 2.346 h 13.782 V 177.9"
       style="fill:#5b73c1;fill-opacity:1;fill-rule:nonzero;stroke:none;stroke-width:0.1"
       id="path134" />
    <path
       d="m 335.759,178.447 h 74.225 c 0.69,0 1.25,0.559 1.25,1.252 v 138.594 c 0,0.691 -0.56,1.254 -1.25,1.254 h -74.225 c -0.691,0 -1.249,-0.563 -1.249,-1.254 V 179.699 c 0,-0.693 0.558,-1.252 1.249,-1.252"
       style="fill:#c6eced;fill-opacity:1;fill-rule:nonzero;stroke:none;stroke-width:0.1"
       id="path136" />
    <path
       d="m 341.742,194.384 c 0,-4.669 3.784,-8.454 8.454,-8.454 4.671,0 8.456,3.785 8.456,8.454 0,4.67 -3.785,8.456 -8.456,8.456 -4.67,0 -8.454,-3.786 -8.454,-8.456"
       style="fill:#5b73c1;fill-opacity:1;fill-rule:nonzero;stroke:none;stroke-width:0.1"
       id="path138" />
    <path
       d="m 403.137,198.365 h -41 v 2.304 h 41 v -2.304"
       style="fill:#ee256e;fill-opacity:1;fill-rule:nonzero;stroke:none;stroke-width:0.1"
       id="path140" />
    <path
       d="m 377.595,193.232 h -15.458 v 2.307 h 15.458 v -2.307"
       style="fill:#223b6c;fill-opacity:1;fill-rule:nonzero;stroke:none;stroke-width:0.1"
       id="path142" />
    <path
       d="m 405.625,193.232 h -24.246 v 2.307 h 24.246 v -2.307"
       style="fill:#223b6c;fill-opacity:1;fill-rule:nonzero;stroke:none;stroke-width:0.1"
       id="path144" />
    <path
       d="m 388.675,188.101 h -26.538 v 2.303 h 26.538 v -2.303"
       style="fill:#5b73c1;fill-opacity:1;fill-rule:nonzero;stroke:none;stroke-width:0.1"
       id="path146" />
    <path
       d="m 403.394,307.51 h -36.769 v 2.303 h 36.769 v -2.303"
       style="fill:#ee256e;fill-opacity:1;fill-rule:nonzero;stroke:none;stroke-width:0.1"
       id="path148" />
    <path
       d="m 380.487,302.377 h -13.862 v 2.306 h 13.862 v -2.306"
       style="fill:#223b6c;fill-opacity:1;fill-rule:nonzero;stroke:none;stroke-width:0.1"
       id="path150" />
    <path
       d="m 405.625,302.377 h -21.744 v 2.306 h 21.744 v -2.306"
       style="fill:#223b6c;fill-opacity:1;fill-rule:nonzero;stroke:none;stroke-width:0.1"
       id="path152" />
    <path
       d="m 390.424,297.246 h -23.799 v 2.303 h 23.799 v -2.303"
       style="fill:#5b73c1;fill-opacity:1;fill-rule:nonzero;stroke:none;stroke-width:0.1"
       id="path154" />
    <path
       d="m 362.418,290.597 c 0,-0.828 -0.669,-1.498 -1.499,-1.498 H 343.24 c -0.826,0 -1.498,0.67 -1.498,1.498 v 17.68 c 0,0.827 0.672,1.498 1.498,1.498 h 17.679 c 0.83,0 1.499,-0.671 1.499,-1.498 v -17.68"
       style="fill:#5b73c1;fill-opacity:1;fill-rule:nonzero;stroke:none;stroke-width:0.1"
       id="path156" />
    <path
       d="m 403.394,281.193 h -36.769 v 2.304 h 36.769 v -2.304"
       style="fill:#ee256e;fill-opacity:1;fill-rule:nonzero;stroke:none;stroke-width:0.1"
       id="path158" />
    <path
       d="m 380.487,276.061 h -13.862 v 2.306 h 13.862 v -2.306"
       style="fill:#223b6c;fill-opacity:1;fill-rule:nonzero;stroke:none;stroke-width:0.1"
       id="path160" />
    <path
       d="m 405.625,276.061 h -21.744 v 2.306 h 21.744 v -2.306"
       style="fill:#223b6c;fill-opacity:1;fill-rule:nonzero;stroke:none;stroke-width:0.1"
       id="path162" />
    <path
       d="m 390.424,270.93 h -23.799 v 2.303 h 23.799 v -2.303"
       style="fill:#5b73c1;fill-opacity:1;fill-rule:nonzero;stroke:none;stroke-width:0.1"
       id="path164" />
    <path
       d="m 362.418,264.28 c 0,-0.827 -0.669,-1.498 -1.499,-1.498 H 343.24 c -0.826,0 -1.498,0.671 -1.498,1.498 v 17.68 c 0,0.827 0.672,1.498 1.498,1.498 h 17.679 c 0.83,0 1.499,-0.671 1.499,-1.498 v -17.68"
       style="fill:#5b73c1;fill-opacity:1;fill-rule:nonzero;stroke:none;stroke-width:0.1"
       id="path166" />
    <path
       d="m 405.08,233.999 c 0,-0.606 -0.489,-1.096 -1.097,-1.096 h -12.934 c -0.604,0 -1.096,0.49 -1.096,1.096 v 20.935 c 0,0.605 0.492,1.097 1.096,1.097 h 12.934 c 0.608,0 1.097,-0.492 1.097,-1.097 v -20.935"
       style="fill:#fcca1e;fill-opacity:1;fill-rule:nonzero;stroke:none;stroke-width:0.1"
       id="path168" />
    <path
       d="m 405.08,214.127 c 0,-0.606 -0.489,-1.096 -1.097,-1.096 h -12.934 c -0.604,0 -1.096,0.49 -1.096,1.096 v 12.935 c 0,0.606 0.492,1.097 1.096,1.097 h 12.934 c 0.608,0 1.097,-0.491 1.097,-1.097 v -12.935"
       style="fill:#5b73c1;fill-opacity:1;fill-rule:nonzero;stroke:none;stroke-width:0.1"
       id="path170" />
    <path
       d="m 139.074,129.928 h 184.292 c 0.743,0 1.348,0.61 1.348,1.37 v 87.926 c 0,0.757 -0.605,1.372 -1.348,1.372 H 139.074 c -0.744,0 -1.346,-0.615 -1.346,-1.372 v -87.926 c 0,-0.76 0.602,-1.37 1.346,-1.37"
       style="fill:#c6eced;fill-opacity:1;fill-rule:nonzero;stroke:none;stroke-width:0.1"
       id="path172" />
    <path
       d="m 244.097,161.725 h -98.913 c -0.55,0 -0.996,0.446 -0.996,0.995 v 50.587 c 0,0.548 0.446,0.994 0.996,0.994 h 98.913 c 0.55,0 0.996,-0.446 0.996,-0.994 V 162.72 c 0,-0.549 -0.446,-0.995 -0.996,-0.995"
       style="fill:#ffffff;fill-opacity:1;fill-rule:nonzero;stroke:none;stroke-width:0.1"
       id="path174" />
    <path
       d="m 240,165.524 h -90.72 c -0.533,0 -0.965,0.434 -0.965,0.967 v 43.043 c 0,0.532 0.432,0.966 0.965,0.966 H 240 c 0.533,0 0.966,-0.434 0.966,-0.966 v -43.043 c 0,-0.533 -0.433,-0.967 -0.966,-0.967"
       style="fill:#5b73c1;fill-opacity:1;fill-rule:nonzero;stroke:none;stroke-width:0.1"
       id="path176" />
    <path
       d="m 213.71,183.911 c 0,-9.148 -7.417,-16.562 -16.564,-16.562 -9.148,0 -16.564,7.414 -16.564,16.562 0,9.148 7.416,16.563 16.564,16.563 9.147,0 16.564,-7.415 16.564,-16.563"
       style="fill:#7791d2;fill-opacity:1;fill-rule:nonzero;stroke:none;stroke-width:0.1"
       id="path178" />
    <path
       d="m 206.59,195.697 c 0,-4.243 -3.442,-7.684 -7.685,-7.684 -4.245,0 -7.686,3.441 -7.686,7.684 0,4.244 3.441,7.686 7.686,7.686 4.243,0 7.685,-3.442 7.685,-7.686"
       style="fill:#fcca1e;fill-opacity:1;fill-rule:nonzero;stroke:none;stroke-width:0.1"
       id="path180" />
    <path
       d="m 240.966,166.905 v 9.867 l -15.572,9.989 c -1.78,1.14 -5.319,1.14 -7.098,0 l -33.105,-21.237 h 54.156 c 1.568,0 1.619,0.617 1.619,1.381"
       style="fill:#223b6c;fill-opacity:1;fill-rule:nonzero;stroke:none;stroke-width:0.1"
       id="path182" />
    <path
       d="m 163.603,193.563 -15.288,-9.804 v -16.854 c 0,-0.764 0.206,-1.381 1.773,-1.381 h 66.595 l -43.708,28.039 c -2.351,1.508 -7.025,1.508 -9.372,0"
       style="fill:#223b6c;fill-opacity:1;fill-rule:nonzero;stroke:none;stroke-width:0.1"
       id="path184" />
    <path
       d="m 207.31,141.031 h -63.122 v 1.586 h 63.122 v -1.586"
       style="fill:#5b73c1;fill-opacity:1;fill-rule:nonzero;stroke:none;stroke-width:0.1"
       id="path186" />
    <path
       d="m 270.763,141.031 h -58.815 v 1.586 h 58.815 v -1.586"
       style="fill:#5b73c1;fill-opacity:1;fill-rule:nonzero;stroke:none;stroke-width:0.1"
       id="path188" />
    <path
       d="m 168.979,136.976 h -24.791 v 1.586 h 24.791 v -1.586"
       style="fill:#5b73c1;fill-opacity:1;fill-rule:nonzero;stroke:none;stroke-width:0.1"
       id="path190" />
    <path
       d="m 224.466,136.976 h -51.122 v 1.586 h 51.122 v -1.586"
       style="fill:#5b73c1;fill-opacity:1;fill-rule:nonzero;stroke:none;stroke-width:0.1"
       id="path192" />
    <path
       d="m 216.977,152.127 h -72.789 v 3.871 h 72.789 v -3.871"
       style="fill:#ee256e;fill-opacity:1;fill-rule:nonzero;stroke:none;stroke-width:0.1"
       id="path194" />
    <path
       d="m 177.328,145.906 h -33.14 v 3.871 h 33.14 v -3.871"
       style="fill:#223b6c;fill-opacity:1;fill-rule:nonzero;stroke:none;stroke-width:0.1"
       id="path196" />
    <path
       d="m 232.822,145.906 h -51.028 v 3.871 h 51.028 v -3.871"
       style="fill:#223b6c;fill-opacity:1;fill-rule:nonzero;stroke:none;stroke-width:0.1"
       id="path198" />
    <path
       d="m 316.838,141.37 c 0,-2.126 -1.691,-3.852 -3.775,-3.852 h -21.059 c -2.084,0 -3.775,1.726 -3.775,3.852 v 0 c 0,2.125 1.691,3.849 3.775,3.849 h 21.059 c 2.084,0 3.775,-1.724 3.775,-3.849 v 0"
       style="fill:#fcca1e;fill-opacity:1;fill-rule:nonzero;stroke:none;stroke-width:0.1"
       id="path200" />
    <path
       d="M 139.499,280.408 H 322.79 c 0.689,0 1.25,0.559 1.25,1.252 v 36.633 c 0,0.691 -0.561,1.254 -1.25,1.254 H 139.499 c -0.69,0 -1.249,-0.563 -1.249,-1.254 V 281.66 c 0,-0.693 0.559,-1.252 1.249,-1.252"
       style="fill:#c6eced;fill-opacity:1;fill-rule:nonzero;stroke:none;stroke-width:0.1"
       id="path202" />
    <path
       d="m 146.252,308.399 c 0,-2.54 2.06,-4.6 4.601,-4.6 2.542,0 4.601,2.06 4.601,4.6 0,2.542 -2.059,4.602 -4.601,4.602 -2.541,0 -4.601,-2.06 -4.601,-4.602"
       style="fill:#5b73c1;fill-opacity:1;fill-rule:nonzero;stroke:none;stroke-width:0.1"
       id="path204" />
    <path
       d="m 190.264,307.248 h -30.41 v 2.304 h 30.41 v -2.304"
       style="fill:#223b6c;fill-opacity:1;fill-rule:nonzero;stroke:none;stroke-width:0.1"
       id="path206" />
    <path
       d="m 199.818,308.399 c 0,-2.54 2.059,-4.6 4.6,-4.6 2.542,0 4.603,2.06 4.603,4.6 0,2.542 -2.061,4.602 -4.603,4.602 -2.541,0 -4.6,-2.06 -4.6,-4.602"
       style="fill:#5b73c1;fill-opacity:1;fill-rule:nonzero;stroke:none;stroke-width:0.1"
       id="path208" />
    <path
       d="m 243.83,307.248 h -30.409 v 2.304 h 30.409 v -2.304"
       style="fill:#223b6c;fill-opacity:1;fill-rule:nonzero;stroke:none;stroke-width:0.1"
       id="path210" />
    <path
       d="m 253.385,308.399 c 0,-2.54 2.058,-4.6 4.599,-4.6 2.542,0 4.602,2.06 4.602,4.6 0,2.542 -2.06,4.602 -4.602,4.602 -2.541,0 -4.599,-2.06 -4.599,-4.602"
       style="fill:#5b73c1;fill-opacity:1;fill-rule:nonzero;stroke:none;stroke-width:0.1"
       id="path212" />
    <path
       d="m 297.396,307.248 h -30.41 v 2.304 h 30.41 v -2.304"
       style="fill:#223b6c;fill-opacity:1;fill-rule:nonzero;stroke:none;stroke-width:0.1"
       id="path214" />
    <path
       d="M 146.252,297.246 H 316.838"
       style="fill:none;stroke:#5b73c1;stroke-width:1;stroke-linecap:butt;stroke-linejoin:miter;stroke-miterlimit:10;stroke-dasharray:none;stroke-opacity:1"
       id="path216" />
    <path
       d="m 335.759,129.928 h 74.225 c 0.69,0 1.25,0.558 1.25,1.252 v 37.476 c 0,0.692 -0.56,1.254 -1.25,1.254 h -74.225 c -0.691,0 -1.249,-0.562 -1.249,-1.254 V 131.18 c 0,-0.694 0.558,-1.252 1.249,-1.252"
       style="fill:#c6eced;fill-opacity:1;fill-rule:nonzero;stroke:none;stroke-width:0.1"
       id="path218" />
    <path
       d="M 405.625,154.723 H 341.71 v 2.236 h 63.915 v -2.236"
       style="fill:#223b6c;fill-opacity:1;fill-rule:nonzero;stroke:none;stroke-width:0.1"
       id="path220" />
    <path
       d="M 373.584,149.003 H 341.71 v 2.237 h 31.874 v -2.237"
       style="fill:#5b73c1;fill-opacity:1;fill-rule:nonzero;stroke:none;stroke-width:0.1"
       id="path222" />
    <path
       d="m 405.625,149.003 h -29.699 v 2.237 h 29.699 v -2.237"
       style="fill:#5b73c1;fill-opacity:1;fill-rule:nonzero;stroke:none;stroke-width:0.1"
       id="path224" />
    <path
       d="M 354.229,143.29 H 341.71 v 2.236 h 12.519 v -2.236"
       style="fill:#5b73c1;fill-opacity:1;fill-rule:nonzero;stroke:none;stroke-width:0.1"
       id="path226" />
    <path
       d="m 382.247,143.29 h -25.814 v 2.236 h 25.814 v -2.236"
       style="fill:#5b73c1;fill-opacity:1;fill-rule:nonzero;stroke:none;stroke-width:0.1"
       id="path228" />
    <path
       d="m 261.637,78.1371 c 0,-3.0851 -2.123,-5.584 -4.742,-5.584 h -67.178 c -2.619,0 -4.742,2.4989 -4.742,5.584 v 0 c 0,3.0848 2.123,5.5848 4.742,5.5848 h 67.178 c 2.619,0 4.742,-2.5 4.742,-5.5848 v 0"
       style="fill:#6897d6;fill-opacity:1;fill-rule:nonzero;stroke:none;stroke-width:0.1"
       id="path230" />
    <path
       d="m 319.029,165.858 -58.97,-8.532 c -0.545,-0.079 -1.049,0.298 -1.129,0.844 l -7.244,50.075 c -0.079,0.544 0.296,1.049 0.841,1.128 l 58.971,8.532 c 0.545,0.079 1.049,-0.299 1.129,-0.844 l 7.244,-50.075 c 0.078,-0.545 -0.297,-1.049 -0.842,-1.128"
       style="fill:#ffffff;fill-opacity:1;fill-rule:nonzero;stroke:none;stroke-width:0.1"
       id="path232" />
    <path
       d="m 313.074,180.459 -51.445,-7.443 c -0.529,-0.077 -1.022,0.292 -1.098,0.822 l -4.535,31.342 c -0.076,0.531 0.291,1.021 0.82,1.097 l 51.446,7.444 c 0.531,0.077 1.023,-0.289 1.099,-0.82 l 4.535,-31.343 c 0.077,-0.529 -0.291,-1.022 -0.822,-1.099"
       style="fill:#5b73c1;fill-opacity:1;fill-rule:nonzero;stroke:none;stroke-width:0.1"
       id="path234" />
    <path
       d="m 278.779,199.895 2.102,-14.529 c 0.211,-1.451 1.984,-2.044 3.025,-1.009 l 8.719,8.676 c 0.848,0.844 0.641,2.268 -0.41,2.835 l -10.82,5.851 c -1.291,0.697 -2.827,-0.371 -2.616,-1.824"
       style="fill:#fcca1e;fill-opacity:1;fill-rule:nonzero;stroke:none;stroke-width:0.1"
       id="path236" />
    <path
       d="m 261.68,165.894 53.367,7.722"
       style="fill:none;stroke:#223b6c;stroke-width:0.951326;stroke-linecap:butt;stroke-linejoin:miter;stroke-miterlimit:10;stroke-dasharray:none;stroke-opacity:1"
       id="path238" />
    <path
       d="m 270.441,167.202 c 0.155,-1.061 -0.584,-2.044 -1.646,-2.198 -1.061,-0.154 -2.045,0.581 -2.199,1.641 -0.155,1.064 0.582,2.047 1.642,2.201 1.065,0.154 2.051,-0.58 2.203,-1.644"
       style="fill:#ee256e;fill-opacity:1;fill-rule:nonzero;stroke:none;stroke-width:0.1"
       id="path240" />
    <path
       d="m 221.307,147.226 c 0.267,-1.954 -1.1,-3.752 -3.053,-4.018 v 0 c -1.954,-0.265 -3.752,1.102 -4.016,3.055 l -2.328,15.423 c -0.267,1.955 1.102,3.753 3.053,4.017 v 0 c 1.954,0.268 3.751,-1.1 4.018,-3.055 l 2.326,-15.422"
       style="fill:#f7996e;fill-opacity:1;fill-rule:nonzero;stroke:none;stroke-width:0.1"
       id="path242" />
    <path
       d="m 218.452,160.584 c -1.027,-1.684 -3.225,-2.211 -4.906,-1.184 v 0 c -1.68,1.027 -2.211,3.222 -1.183,4.906 l 9.453,15.367 c 1.028,1.682 3.225,2.213 4.907,1.184 v 0 c 1.682,-1.028 2.212,-3.226 1.183,-4.906 l -9.454,-15.367"
       style="fill:#f7996e;fill-opacity:1;fill-rule:nonzero;stroke:none;stroke-width:0.1"
       id="path244" />
    <path
       d="m 221.177,147.969 c 0,0 4.292,-6.743 3.268,-8.07 -1.045,-1.352 -2.396,1.396 -2.396,1.396 0,0 0.424,-4.887 -2.858,-6.959 -3.281,-2.071 -7.174,3.859 -4.92,14.268 l 6.906,-0.635"
       style="fill:#f7996e;fill-opacity:1;fill-rule:nonzero;stroke:none;stroke-width:0.1"
       id="path246" />
    <path
       d="m 217.965,142.702 c 0.29,-0.598 0.681,-1.062 1.175,-1.385 1.357,-0.89 2.952,-0.367 3.019,-0.345 0.178,0.062 0.272,0.252 0.214,0.43 -0.059,0.177 -0.255,0.273 -0.434,0.215 -0.01,-0.005 -1.353,-0.439 -2.431,0.273 -0.818,0.542 -1.3,1.605 -1.429,3.168 -0.017,0.185 -0.181,0.325 -0.368,0.309 -0.187,-0.016 -0.328,-0.18 -0.31,-0.368 0.074,-0.907 0.264,-1.675 0.564,-2.297"
       style="fill:#f57561;fill-opacity:1;fill-rule:nonzero;stroke:none;stroke-width:0.1"
       id="path248" />
    <path
       d="m 214.559,138.497 c -0.022,0.041 -0.032,0.087 -0.035,0.135 -0.004,0.189 0.141,0.346 0.331,0.352 l 5.677,0.189 c 0.188,0.005 0.347,-0.142 0.352,-0.329 0.005,-0.188 -0.142,-0.345 -0.329,-0.352 l -0.453,-0.015 -0.101,-3.495 c -0.189,-0.179 -0.394,-0.35 -0.62,-0.507 -0.01,0.015 -0.027,0.026 -0.037,0.042 -0.023,0.049 -0.035,0.101 -0.033,0.159 l 0.111,3.779 -1.465,-0.049 -0.054,-4.474 c -0.228,-0.004 -0.454,0.033 -0.677,0.098 l 0.052,4.354 -1.29,-0.041 -0.149,-3.393 c -0.001,-0.002 -0.001,-0.003 -0.001,-0.004 -0.225,0.238 -0.441,0.511 -0.642,0.832 l 0.108,2.541 -0.428,-0.014 c -0.139,-0.005 -0.261,0.073 -0.317,0.192"
       style="fill:#f57561;fill-opacity:1;fill-rule:nonzero;stroke:none;stroke-width:0.1"
       id="path250" />
    <path
       d="m 222.339,164.473 6.861,9.907 c 1.53,2.259 0.94,5.328 -1.317,6.858 -2.258,1.529 -5.328,0.942 -6.858,-1.316 l -6.86,-9.908 8.174,-5.541"
       style="fill:#ed1859;fill-opacity:1;fill-rule:nonzero;stroke:none;stroke-width:0.1"
       id="path252" />
    <path
       d="m 213.484,98.3121 -2.668,-8.173 -8.806,2.8711 2.667,8.1728 8.807,-2.8709"
       style="fill:#f7996e;fill-opacity:1;fill-rule:nonzero;stroke:none;stroke-width:0.1"
       id="path254" />
    <path
       d="m 199.026,85.7672 c 0,0 -1.857,9.5808 7.912,7.3058 9.767,-2.2769 16.735,-13.6738 11.053,-13.3058 -4.745,0.3058 -18.965,6 -18.965,6"
       style="fill:#1c2f46;fill-opacity:1;fill-rule:nonzero;stroke:none;stroke-width:0.1"
       id="path256" />
    <path
       d="m 220.183,78.4492 c -0.085,-0.2441 -0.352,-0.3711 -0.597,-0.2863 l -21.792,6.318 c -0.243,0.0851 -0.371,0.3531 -0.285,0.5972 l 0.571,1.6129 c 0.086,0.243 0.353,0.3711 0.596,0.284 l 21.791,-6.3148 c 0.244,-0.0872 0.373,-0.3543 0.286,-0.6 l -0.57,-1.611"
       style="fill:#778ca0;fill-opacity:1;fill-rule:nonzero;stroke:none;stroke-width:0.1"
       id="path258" />
    <path
       d="m 229.538,142.053 -15.714,-47.2178 -11.636,2.7089 9.763,27.5139 c 0,0 4.079,21.442 5.914,25.092 l 13.244,-4.031 -1.571,-4.066"
       style="fill:#142535;fill-opacity:1;fill-rule:nonzero;stroke:none;stroke-width:0.1"
       id="path260" />
    <path
       d="m 235.931,97.027 0.993,-8.5391 -9.202,-1.0719 -0.992,8.5399 9.201,1.0711"
       style="fill:#f7996e;fill-opacity:1;fill-rule:nonzero;stroke:none;stroke-width:0.1"
       id="path262" />
    <path
       d="m 228.039,79.5902 c 0,0 -5.692,7.9258 4.133,9.9399 9.827,2.016 20.92,-5.427 15.603,-7.4672 -4.439,-1.7039 -19.736,-2.4727 -19.736,-2.4727"
       style="fill:#1c2f46;fill-opacity:1;fill-rule:nonzero;stroke:none;stroke-width:0.1"
       id="path264" />
    <path
       d="m 250.318,81.7832 c 0.024,-0.259 -0.165,-0.4852 -0.423,-0.5102 l -22.437,-3.3671 c -0.258,-0.0239 -0.485,0.166 -0.509,0.423 l -0.157,1.7043 c -0.024,0.2559 0.166,0.4848 0.424,0.509 l 22.437,3.3668 c 0.257,0.023 0.485,-0.166 0.509,-0.4238 l 0.156,-1.702"
       style="fill:#778ca0;fill-opacity:1;fill-rule:nonzero;stroke:none;stroke-width:0.1"
       id="path266" />
    <path
       d="m 232.236,143.474 5.457,-49.4631 -11.705,-2.4 -2.628,29.0751 c 0,0 -5.256,21.183 -5.113,25.267 l 13.717,1.872 0.272,-4.351"
       style="fill:#1c2f46;fill-opacity:1;fill-rule:nonzero;stroke:none;stroke-width:0.1"
       id="path268" />
    <path
       d="m 233.172,178.827 h -8.13 v 10.261 h 8.13 v -10.261"
       style="fill:#f57561;fill-opacity:1;fill-rule:nonzero;stroke:none;stroke-width:0.1"
       id="path270" />
    <path
       d="m 214.544,146.374 c 9.863,-4.899 19.75,-2.109 19.75,-2.109 l 1.08,5.899 c 11.043,33.212 -7.453,32.57 -7.453,32.57 -13.635,1.493 -9.146,-23.627 -9.146,-23.627 0.427,-4.742 -5.78,-11.963 -4.231,-12.733"
       style="fill:#ee256e;fill-opacity:1;fill-rule:nonzero;stroke:none;stroke-width:0.1"
       id="path272" />
    <path
       d="m 231.568,181.997 c -0.011,0.004 -0.022,0.009 -0.033,0.013 -0.056,0.02 -0.111,0.041 -0.165,0.063 -0.072,0.025 -0.143,0.052 -0.212,0.074 -1.772,-0.235 -3.216,-0.681 -3.941,-1.451 0,0 -5.917,-4.566 4.747,-15.678 2.014,-2.097 4.167,-6.166 5.151,-8.995 0.128,0.493 0.248,0.978 0.36,1.454 0.027,0.116 0.051,0.225 0.077,0.34 0.082,0.355 0.162,0.707 0.237,1.053 0.03,0.143 0.058,0.284 0.087,0.426 0.066,0.312 0.127,0.62 0.185,0.924 0.028,0.144 0.055,0.288 0.08,0.429 0.056,0.3 0.108,0.594 0.155,0.885 0.022,0.133 0.044,0.268 0.065,0.397 0.048,0.304 0.092,0.602 0.133,0.896 0.014,0.107 0.031,0.219 0.045,0.325 0.044,0.339 0.084,0.668 0.119,0.993 0.007,0.06 0.013,0.121 0.021,0.179 0.083,0.794 0.141,1.552 0.176,2.28 0.477,10.347 -3.925,14.063 -7.287,15.393"
       style="fill:#ed1859;fill-opacity:1;fill-rule:nonzero;stroke:none;stroke-width:0.1"
       id="path274" />
    <path
       d="m 241.83,198.302 c 0.765,-7.131 -3.537,-13.46 -9.606,-14.137 -6.072,-0.676 -11.614,4.558 -12.379,11.69 -0.764,7.132 3.536,13.461 9.607,14.136 6.071,0.676 11.611,-4.557 12.378,-11.689"
       style="fill:#f7996e;fill-opacity:1;fill-rule:nonzero;stroke:none;stroke-width:0.1"
       id="path276" />
    <path
       d="m 241.342,194.699 c 0,0 1.797,-1.186 1.669,-3.41 l -2.394,0.01 c 0,0 -0.007,2.286 0.725,3.4"
       style="fill:#f7996e;fill-opacity:1;fill-rule:nonzero;stroke:none;stroke-width:0.1"
       id="path278" />
    <path
       d="m 229.408,210.391 c -6.275,-0.699 -10.72,-7.242 -9.93,-14.612 0.455,-4.246 2.549,-7.837 5.441,-9.989 -0.484,1.937 0.663,7.918 4.966,13.289 3.232,4.033 12.083,0.272 12.083,0.272 -0.787,6.74 -6.407,11.726 -12.56,11.04"
       style="fill:#1c2f46;fill-opacity:1;fill-rule:nonzero;stroke:none;stroke-width:0.1"
       id="path280" />
    <path
       d="m 237.137,203.759 c -1.352,-0.872 -4.51,-1.68 -5.906,-3.564 l 0.004,-0.001 c 3.841,2.083 10.733,-0.843 10.733,-0.843 -0.311,2.663 -1.379,5.049 -2.932,6.922 -0.006,-0.013 -0.795,-1.8 -1.899,-2.514"
       style="fill:#142535;fill-opacity:1;fill-rule:nonzero;stroke:none;stroke-width:0.1"
       id="path282" />
    <path
       d="m 238.142,203.771 c 0,0 1.248,0.902 1.248,3.083 0,2.15 4.296,0.555 4.296,-1.385 0,-1.94 -0.999,-5.905 -1.718,-6.118 0,0 -2.344,1.03 -5.663,1.496 0,0 0.726,1.723 1.837,2.924"
       style="fill:#1c2f46;fill-opacity:1;fill-rule:nonzero;stroke:none;stroke-width:0.1"
       id="path284" />
    <path
       d="m 229.156,198.122 c 0,0 -0.634,-4.73 0,-6.175 0.634,-1.449 2.555,-2.095 3.26,-1.264 0.701,0.833 1.874,2.958 3.831,2.31 1.482,-0.488 4.864,-1.571 5.093,-1.894 0.232,-0.323 -2.401,-5.863 -4.018,-6.791 -2.698,-1.552 -5.541,-1.716 -8.447,-0.434 -2.674,1.18 -1.321,10.62 -0.55,13.959 l 0.831,0.289"
       style="fill:#1c2f46;fill-opacity:1;fill-rule:nonzero;stroke:none;stroke-width:0.1"
       id="path286" />
    <path
       d="m 228.645,194.889 c 0,-1.625 -0.997,-2.942 -2.225,-2.942 -1.228,0 -2.224,1.317 -2.224,2.942 0,1.626 0.996,2.944 2.224,2.944 1.228,0 2.225,-1.318 2.225,-2.944"
       style="fill:#f7996e;fill-opacity:1;fill-rule:nonzero;stroke:none;stroke-width:0.1"
       id="path288" />
    <path
       d="m 239.109,194.74 c 0,-0.727 0.372,-1.317 0.83,-1.317 0.459,0 0.832,0.59 0.832,1.317 0,0.728 -0.373,1.317 -0.832,1.317 -0.458,0 -0.83,-0.589 -0.83,-1.317"
       style="fill:#1c2f46;fill-opacity:1;fill-rule:nonzero;stroke:none;stroke-width:0.1"
       id="path290" />
    <path
       d="m 238.328,197.061 c 0,0 1.441,1.35 3.026,0"
       style="fill:none;stroke:#1c2f46;stroke-width:0.553731;stroke-linecap:round;stroke-linejoin:round;stroke-miterlimit:10;stroke-dasharray:none;stroke-opacity:1"
       id="path292" />
    <path
       d="m 240.347,189.26 c 0,0 -1.431,-0.621 -3.208,0.42"
       style="fill:none;stroke:#ef336a;stroke-width:0.583497;stroke-linecap:round;stroke-linejoin:round;stroke-miterlimit:10;stroke-dasharray:none;stroke-opacity:1"
       id="path294" />
    <path
       d="m 258.445,165.184 c 1.951,-0.292 3.295,-2.107 3.004,-4.056 v 0 c -0.293,-1.949 -2.109,-3.293 -4.056,-3.001 l -15.459,2.08 c -1.95,0.291 -3.294,2.109 -3.004,4.056 v 0 c 0.292,1.951 2.108,3.294 4.059,3.003 l 15.456,-2.082"
       style="fill:#f7996e;fill-opacity:1;fill-rule:nonzero;stroke:none;stroke-width:0.1"
       id="path296" />
    <path
       d="m 244.822,166.181 c 1.33,-1.457 1.22,-3.715 -0.236,-5.042 v 0 c -1.455,-1.327 -3.712,-1.221 -5.04,0.236 l -12.109,13.375 c -1.328,1.459 -1.221,3.716 0.236,5.044 v 0 c 1.457,1.327 3.717,1.22 5.041,-0.238 l 12.108,-13.375"
       style="fill:#f7996e;fill-opacity:1;fill-rule:nonzero;stroke:none;stroke-width:0.1"
       id="path298" />
    <path
       d="m 257.549,165.148 c 0,0 6.711,4.26 8.029,3.241 1.344,-1.041 -1.39,-2.381 -1.39,-2.381 0,0 4.859,0.412 6.917,-2.853 2.053,-3.266 -3.851,-7.13 -14.201,-4.873 l 0.645,6.866"
       style="fill:#f7996e;fill-opacity:1;fill-rule:nonzero;stroke:none;stroke-width:0.1"
       id="path300" />
    <path
       d="m 270.967,163.343 c -0.016,-0.012 -0.026,-0.029 -0.043,-0.035 -0.047,-0.023 -0.102,-0.035 -0.156,-0.035 l -4.053,0.127 c -0.186,0.005 -0.332,0.16 -0.326,0.348 0.006,0.187 0.164,0.333 0.349,0.326 l 3.723,-0.112 c 0.18,-0.191 0.35,-0.393 0.506,-0.619"
       style="fill:#f57561;fill-opacity:1;fill-rule:nonzero;stroke:none;stroke-width:0.1"
       id="path302" />
    <path
       d="m 266.697,161.602 c 0.002,0.186 0.157,0.335 0.342,0.331 l 4.465,-0.06 c 0.004,-0.23 -0.033,-0.453 -0.1,-0.674 l -4.373,0.06 c -0.187,0.002 -0.338,0.155 -0.334,0.343"
       style="fill:#f57561;fill-opacity:1;fill-rule:nonzero;stroke:none;stroke-width:0.1"
       id="path304" />
    <path
       d="m 266.717,159.654 c 0.008,0.185 0.166,0.331 0.353,0.322 l 3.42,-0.154 c 0,0 0,-0.001 0.002,-0.001 -0.238,-0.224 -0.51,-0.44 -0.83,-0.638 l -2.623,0.116 c -0.185,0.009 -0.33,0.166 -0.322,0.355"
       style="fill:#f57561;fill-opacity:1;fill-rule:nonzero;stroke:none;stroke-width:0.1"
       id="path306" />
    <path
       d="m 242.177,171 -7.593,9.359 c -1.739,2.1 -4.852,2.394 -6.952,0.655 -2.1,-1.74 -2.394,-4.852 -0.654,-6.953 l 7.592,-9.358 7.607,6.297"
       style="fill:#ee256e;fill-opacity:1;fill-rule:nonzero;stroke:none;stroke-width:0.1"
       id="path308" />
    <path
       d="m 131.991,78.1371 c 0,-3.0851 -2.123,-5.584 -4.741,-5.584 H 60.0707 c -2.618,0 -4.741,2.4989 -4.741,5.584 v 0 c 0,3.0848 2.123,5.5848 4.741,5.5848 H 127.25 c 2.618,0 4.741,-2.5 4.741,-5.5848 v 0"
       style="fill:#6897d6;fill-opacity:1;fill-rule:nonzero;stroke:none;stroke-width:0.1"
       id="path310" />
    <path
       d="m 66.498,226.582 h 1.118 V 499.963 H 66.498 V 226.582"
       style="fill:#5b73c1;fill-opacity:1;fill-rule:nonzero;stroke:none;stroke-width:0.1"
       id="path312" />
    <path
       d="m 103.484,226.656 h 1.118 v 273.381 h -1.118 V 226.656"
       style="fill:#5b73c1;fill-opacity:1;fill-rule:nonzero;stroke:none;stroke-width:0.1"
       id="path314" />
    <path
       d="m 62.4504,229.338 h 46.6156 v 6.297 H 62.4504 v -6.297"
       style="fill:#2153aa;fill-opacity:1;fill-rule:nonzero;stroke:none;stroke-width:0.1"
       id="path316" />
    <path
       d="m 62.4504,229.338 h 46.6156 v 2.133 H 62.4504 v -2.133"
       style="fill:#223b6c;fill-opacity:1;fill-rule:nonzero;stroke:none;stroke-width:0.1"
       id="path318" />
    <path
       d="m 126.492,215.172 c 1.153,-1.643 0.757,-3.91 -0.887,-5.063 v 0 c -1.643,-1.152 -3.91,-0.754 -5.061,0.887 l -15.567,22.271 c -1.155,1.647 -0.755,3.913 0.887,5.065 v 0 c 1.645,1.152 3.91,0.754 5.063,-0.889 l 15.565,-22.271"
       style="fill:#f57561;fill-opacity:1;fill-rule:nonzero;stroke:none;stroke-width:0.1"
       id="path320" />
    <path
       d="m 78.1324,244.842 c 0,0 -1.3144,-7.508 8.9024,-9.922 10.6,-2.504 18.7222,-4.885 18.7222,-4.885 0,0 7.788,2.904 4.932,8.473 0,0 -20.5761,11.638 -24.9238,11.825 -4.3472,0.19 -7.4785,-2.751 -7.6328,-5.491"
       style="fill:#142535;fill-opacity:1;fill-rule:nonzero;stroke:none;stroke-width:0.1"
       id="path322" />
    <path
       d="m 123.606,204.537 c 0,0 -7.785,3.937 -0.825,9.59 6.96,5.654 18.013,3.953 15.455,0.519 -2.538,-3.412 -14.63,-10.109 -14.63,-10.109"
       style="fill:#1c2f46;fill-opacity:1;fill-rule:nonzero;stroke:none;stroke-width:0.1"
       id="path324" />
    <path
       d="m 139.862,215.262 c 0.117,-0.192 0.054,-0.444 -0.141,-0.563 l -16.444,-11.355 c -0.194,-0.12 -0.447,-0.061 -0.564,0.13 l -0.771,1.262 c -0.116,0.194 -0.054,0.444 0.141,0.563 l 16.444,11.357 c 0.195,0.115 0.447,0.059 0.564,-0.133 l 0.771,-1.261"
       style="fill:#778ca0;fill-opacity:1;fill-rule:nonzero;stroke:none;stroke-width:0.1"
       id="path326" />
    <path
       d="m 96.4156,246.973 c 0,0 -1.4961,-4.459 -4.8586,-7.772 l -6.5429,8.988 11.4015,-1.216"
       style="fill:#1c2f46;fill-opacity:1;fill-rule:nonzero;stroke:none;stroke-width:0.1"
       id="path328" />
    <path
       d="m 111.533,205.59 c 0.067,-2.008 -1.504,-3.688 -3.511,-3.754 v 0 c -2.005,-0.067 -3.685,1.508 -3.752,3.512 l -0.851,27.158 c -0.066,2.011 1.507,3.687 3.512,3.756 v 0 c 2.007,0.062 3.687,-1.508 3.752,-3.516 l 0.85,-27.156"
       style="fill:#f7996e;fill-opacity:1;fill-rule:nonzero;stroke:none;stroke-width:0.1"
       id="path330" />
    <path
       d="m 77.9609,245.701 c 0,0 -2.2222,-7.291 7.6243,-10.932 10.216,-3.779 17.5618,-7.509 17.5618,-7.509 0,0 7.229,2.035 6.354,8.183 0,0 -19.003,14.06 -23.2944,14.777 -4.2921,0.719 -7.7597,-1.82 -8.2457,-4.519"
       style="fill:#1c2f46;fill-opacity:1;fill-rule:nonzero;stroke:none;stroke-width:0.1"
       id="path332" />
    <path
       d="m 103.301,198.266 c 0,0 -4.3639,7.554 4.554,8.48 8.92,0.928 17.244,-6.543 13.223,-8.02 -3.99,-1.466 -17.777,-0.46 -17.777,-0.46"
       style="fill:#1c2f46;fill-opacity:1;fill-rule:nonzero;stroke:none;stroke-width:0.1"
       id="path334" />
    <path
       d="m 122.776,198.351 c -0.007,-0.222 -0.197,-0.398 -0.425,-0.392 l -19.977,-0.514 c -0.229,0.006 -0.407,0.196 -0.401,0.418 l 0.046,1.481 c 0.006,0.222 0.197,0.4 0.424,0.392 l 19.978,0.514 c 0.228,-0.008 0.407,-0.195 0.4,-0.418 l -0.045,-1.481"
       style="fill:#778ca0;fill-opacity:1;fill-rule:nonzero;stroke:none;stroke-width:0.1"
       id="path336" />
    <path
       d="m 117.557,268.638 c 1.659,0.599 3.488,-0.257 4.087,-1.916 v 0 c 0.594,-1.657 -0.264,-3.486 -1.92,-4.083 l -12.16,-4.311 c -1.658,-0.599 -3.487,0.26 -4.085,1.917 v 0 c -0.599,1.661 0.261,3.486 1.919,4.084 l 12.159,4.309"
       style="fill:#f57561;fill-opacity:1;fill-rule:nonzero;stroke:none;stroke-width:0.1"
       id="path338" />
    <path
       d="m 108.834,263.468 c 1.192,-1.299 1.097,-3.318 -0.204,-4.507 v 0 c -1.3,-1.188 -3.318,-1.095 -4.507,0.207 L 92.65,271.89 c -1.1883,1.302 -1.0957,3.319 0.2063,4.507 v 0 c 1.3031,1.191 3.321,1.098 4.5082,-0.205 l 11.4695,-12.724"
       style="fill:#f57561;fill-opacity:1;fill-rule:nonzero;stroke:none;stroke-width:0.1"
       id="path340" />
    <path
       d="m 117.453,268.595 c 0,0 4.718,5.674 6.174,5.149 1.484,-0.538 -0.552,-2.5 -0.552,-2.5 0,0 4.178,1.75 6.925,-0.551 2.746,-2.302 -1.371,-7.396 -11.159,-8.35 l -1.388,6.252"
       style="fill:#f57561;fill-opacity:1;fill-rule:nonzero;stroke:none;stroke-width:0.1"
       id="path342" />
    <path
       d="m 122.989,267.256 c 0.444,0.424 0.742,0.898 0.886,1.424 0.401,1.444 -0.509,2.699 -0.546,2.752 -0.105,0.138 -0.299,0.168 -0.439,0.066 -0.139,-0.102 -0.169,-0.3 -0.067,-0.441 0.007,-0.009 0.767,-1.066 0.446,-2.216 -0.246,-0.871 -1.046,-1.595 -2.382,-2.149 -0.16,-0.067 -0.236,-0.251 -0.169,-0.411 0.067,-0.16 0.25,-0.237 0.41,-0.169 0.778,0.322 1.4,0.705 1.861,1.144"
       style="fill:#dd6254;fill-opacity:1;fill-rule:nonzero;stroke:none;stroke-width:0.1"
       id="path344" />
    <path
       d="m 127.647,265.447 c -0.03,-0.031 -0.067,-0.053 -0.109,-0.069 -0.165,-0.058 -0.344,0.026 -0.403,0.191 l -1.766,4.938 c -0.057,0.165 0.027,0.346 0.19,0.403 0.164,0.058 0.343,-0.027 0.401,-0.19 l 0.141,-0.394 3.102,0.896 c 0.212,-0.116 0.42,-0.248 0.621,-0.402 -0.011,-0.014 -0.015,-0.032 -0.028,-0.044 -0.036,-0.033 -0.078,-0.06 -0.129,-0.074 l -3.354,-0.968 0.456,-1.274 3.949,1.214 c 0.068,-0.2 0.099,-0.409 0.105,-0.624 l -3.843,-1.18 0.4,-1.123 3.024,0.826 c 0.002,0 0.003,0 0.004,0 -0.146,-0.265 -0.325,-0.533 -0.55,-0.8 l -2.265,-0.62 0.134,-0.373 c 0.043,-0.121 0.008,-0.251 -0.08,-0.333"
       style="fill:#dd6254;fill-opacity:1;fill-rule:nonzero;stroke:none;stroke-width:0.1"
       id="path346" />
    <path
       d="m 98.9434,263.429 7.1206,5.811 -7.1327,7.667 c -1.7067,1.873 -4.6106,2.008 -6.4836,0.298 -1.8719,-1.71 -2.0047,-4.612 -0.2957,-6.483 l 6.7914,-7.293"
       style="fill:#ed1859;fill-opacity:1;fill-rule:nonzero;stroke:none;stroke-width:0.1"
       id="path348" />
    <path
       d="m 117.742,268.571 c 0,-8.67 7.029,-15.699 15.699,-15.699 8.671,0 15.702,7.029 15.702,15.699 0,8.671 -7.031,15.701 -15.702,15.701 -8.67,0 -15.699,-7.03 -15.699,-15.701"
       style="fill:#ffffff;fill-opacity:1;fill-rule:nonzero;stroke:none;stroke-width:0.1"
       id="path350" />
    <path
       d="m 126.687,272.348 c 0,-3.731 3.023,-6.756 6.754,-6.756 3.733,0 6.756,3.025 6.756,6.756 0,3.729 -3.023,6.755 -6.756,6.755 -3.731,0 -6.754,-3.026 -6.754,-6.755"
       style="fill:#fcca1e;fill-opacity:1;fill-rule:nonzero;stroke:none;stroke-width:0.1"
       id="path352" />
    <path
       d="m 133.441,252.872 c -3.98,0 -7.611,1.482 -10.378,3.922 0.506,5.29 4.959,9.425 10.378,9.425 5.421,0 9.873,-4.135 10.379,-9.425 -2.767,-2.44 -6.399,-3.922 -10.379,-3.922"
       style="fill:#fcca1e;fill-opacity:1;fill-rule:nonzero;stroke:none;stroke-width:0.1"
       id="path354" />
    <path
       d="m 117.742,268.571 c 0,-8.67 7.029,-15.699 15.699,-15.699 8.671,0 15.702,7.029 15.702,15.699 0,8.671 -7.031,15.701 -15.702,15.701 -8.67,0 -15.699,-7.03 -15.699,-15.701 z"
       style="fill:none;stroke:#5b73c1;stroke-width:1;stroke-linecap:butt;stroke-linejoin:miter;stroke-miterlimit:10;stroke-dasharray:none;stroke-opacity:1"
       id="path356" />
    <path
       d="m 95.7734,277.813 h -7.2695 v 9.175 h 7.2695 v -9.175"
       style="fill:#f57561;fill-opacity:1;fill-rule:nonzero;stroke:none;stroke-width:0.1"
       id="path358" />
    <path
       d="m 79.1195,248.756 c 8.816,-4.381 17.6563,-1.885 17.6563,-1.885 l 0.9644,5.273 c 9.8758,29.691 -6.6621,29.119 -6.6621,29.119 -12.1902,1.334 -8.1773,-21.125 -8.1773,-21.125 0.3801,-4.24 -5.1672,-10.695 -3.7813,-11.382"
       style="fill:#ee256e;fill-opacity:1;fill-rule:nonzero;stroke:none;stroke-width:0.1"
       id="path360" />
    <path
       d="m 98.1918,277.711 c 0,0 6.9192,-9.244 4.7992,-13.08 -2.121,-3.836 -3.7367,-3.636 -5.9578,-8.784 0,0 -6.6676,28.886 1.1586,21.864"
       style="fill:#ee256e;fill-opacity:1;fill-rule:nonzero;stroke:none;stroke-width:0.1"
       id="path362" />
    <path
       d="m 100.072,260.757 c -0.008,-0.004 -2.9243,-1.357 -5.9357,-0.666 0,0 2.2555,-1.54 5.4184,-1.675 0.1957,0.808 0.3683,1.588 0.5173,2.341"
       style="fill:#ed1859;fill-opacity:1;fill-rule:nonzero;stroke:none;stroke-width:0.1"
       id="path364" />
    <path
       d="m 90.5414,281.292 c -11.5199,0.605 -7.6406,-21.154 -7.6406,-21.154 0.0164,-0.179 0.0207,-0.362 0.034,-0.545 0.0011,0.004 0.0023,0.004 0.0043,0.006 15.5472,4.32 16.6093,10.436 16.6093,10.436 -4.5894,7.899 -8.0617,10.437 -9.007,11.257"
       style="fill:#ed1859;fill-opacity:1;fill-rule:nonzero;stroke:none;stroke-width:0.1"
       id="path366" />
    <path
       d="m 111.887,268.665 c 1.725,0.363 3.415,-0.745 3.776,-2.47 v 0 c 0.358,-1.724 -0.749,-3.414 -2.473,-3.774 l -13.4849,-2.933 c -1.7266,-0.36 -3.416,0.747 -3.7766,2.472 v 0 c -0.3582,1.726 0.7477,3.414 2.4719,3.775 l 13.4866,2.93"
       style="fill:#f7996e;fill-opacity:1;fill-rule:nonzero;stroke:none;stroke-width:0.1"
       id="path368" />
    <path
       d="m 101.636,264.496 c 1.044,-1.422 0.732,-3.418 -0.689,-4.46 v 0 c -1.4204,-1.039 -3.4173,-0.731 -4.4587,0.692 l -9.9895,13.387 c -1.0383,1.423 -0.7297,3.419 0.6914,4.461 v 0 c 1.4227,1.04 3.4196,0.729 4.4586,-0.694 l 9.9872,-13.386"
       style="fill:#f7996e;fill-opacity:1;fill-rule:nonzero;stroke:none;stroke-width:0.1"
       id="path370" />
    <path
       d="m 110.546,268.409 c 0,0 4.718,5.674 6.173,5.149 1.484,-0.536 -0.552,-2.499 -0.552,-2.499 0,0 4.178,1.748 6.924,-0.552 2.746,-2.302 -1.371,-7.396 -11.159,-8.348 l -1.386,6.25"
       style="fill:#f7996e;fill-opacity:1;fill-rule:nonzero;stroke:none;stroke-width:0.1"
       id="path372" />
    <path
       d="m 122.916,270.634 c -0.011,-0.014 -0.015,-0.032 -0.028,-0.044 -0.035,-0.034 -0.079,-0.058 -0.129,-0.074 l -3.615,-1.042 c -0.166,-0.049 -0.34,0.047 -0.388,0.214 -0.048,0.167 0.049,0.341 0.216,0.389 l 3.321,0.959 c 0.213,-0.116 0.42,-0.248 0.623,-0.402"
       style="fill:#f57561;fill-opacity:1;fill-rule:nonzero;stroke:none;stroke-width:0.1"
       id="path374" />
    <path
       d="m 119.639,267.88 c -0.051,0.165 0.043,0.341 0.208,0.39 l 3.963,1.218 c 0.067,-0.201 0.098,-0.409 0.104,-0.624 l -3.882,-1.193 c -0.166,-0.051 -0.342,0.042 -0.393,0.209"
       style="fill:#f57561;fill-opacity:1;fill-rule:nonzero;stroke:none;stroke-width:0.1"
       id="path376" />
    <path
       d="m 120.212,266.165 c -0.045,0.165 0.051,0.339 0.22,0.385 l 3.064,0.836 c 0.001,0 0.003,0 0.004,0 -0.147,-0.265 -0.326,-0.532 -0.551,-0.799 l -2.35,-0.643 c -0.169,-0.046 -0.341,0.052 -0.387,0.221"
       style="fill:#f57561;fill-opacity:1;fill-rule:nonzero;stroke:none;stroke-width:0.1"
       id="path378" />
    <path
       d="m 91.8422,265.025 7.7062,5.01 -6.264,8.39 c -1.4961,2.045 -4.3672,2.493 -6.4137,0.994 -2.0453,-1.497 -2.4898,-4.366 -0.9937,-6.413 l 5.9652,-7.981"
       style="fill:#ee256e;fill-opacity:1;fill-rule:nonzero;stroke:none;stroke-width:0.1"
       id="path380" />
    <path
       d="m 84.8961,286.603 c 0,-2.918 -2.3648,-5.283 -5.284,-5.283 -2.9168,0 -5.2828,2.365 -5.2828,5.283 0,2.918 2.366,5.283 5.2828,5.283 2.9192,0 5.284,-2.365 5.284,-5.283"
       style="fill:#1c2f46;fill-opacity:1;fill-rule:nonzero;stroke:none;stroke-width:0.1"
       id="path382" />
    <path
       d="m 85.8863,289.662 c 0.6938,-1.917 0.4098,-3.777 -0.634,-4.156 -1.0437,-0.378 -2.4527,0.87 -3.1464,2.787 -0.695,1.918 -0.411,3.778 0.6343,4.156 1.0434,0.378 2.4516,-0.87 3.1461,-2.787"
       style="fill:#ee256e;fill-opacity:1;fill-rule:nonzero;stroke:none;stroke-width:0.1"
       id="path384" />
    <path
       d="m 103.63,296.602 c 0.734,-6.842 -3.392,-12.914 -9.2155,-13.562 -5.8239,-0.649 -11.1407,4.372 -11.8747,11.214 -0.7339,6.841 3.3918,12.914 9.2168,13.563 5.8235,0.649 11.1394,-4.373 11.8734,-11.215"
       style="fill:#f8a074;fill-opacity:1;fill-rule:nonzero;stroke:none;stroke-width:0.1"
       id="path386" />
    <path
       d="m 103.63,296.602 c 0.734,-6.842 -3.392,-12.914 -9.2155,-13.562 -5.8239,-0.649 -11.1407,4.372 -11.8747,11.214 -0.7339,6.841 3.3918,12.914 9.2168,13.563 5.8235,0.649 11.1394,-4.373 11.8734,-11.215"
       style="fill:#f7996e;fill-opacity:1;fill-rule:nonzero;stroke:none;stroke-width:0.1"
       id="path388" />
    <path
       d="m 102.939,292.139 c 0,0 1.724,-1.139 1.601,-3.27 l -2.298,0.007 c 0,0 -0.005,2.195 0.697,3.263"
       style="fill:#f7996e;fill-opacity:1;fill-rule:nonzero;stroke:none;stroke-width:0.1"
       id="path390" />
    <path
       d="m 103.617,298.371 c -0.767,6.093 -6.765,10.362 -11.8908,9.791 -5.9981,-0.668 -10.2477,-6.923 -9.4922,-13.97 0.4519,-4.213 2.5906,-7.754 5.5195,-9.779 -1.2965,2.108 -0.5289,9.095 3.1371,10.989 3.6664,1.893 5.4977,4.938 5.4977,4.938 -1.0059,-3.417 -3.2926,-5.482 -3.2926,-5.482 8.3573,1.53 7.4783,6.29 7.4783,6.29 1.13,-0.99 2.165,-1.706 3.043,-2.777"
       style="fill:#1c2f46;fill-opacity:1;fill-rule:nonzero;stroke:none;stroke-width:0.1"
       id="path392" />
    <path
       d="m 90.982,293.328 c 0,-1.56 -0.9566,-2.824 -2.1343,-2.824 -1.1793,0 -2.1344,1.264 -2.1344,2.824 0,1.56 0.9551,2.824 2.1344,2.824 1.1777,0 2.1343,-1.264 2.1343,-2.824"
       style="fill:#f7996e;fill-opacity:1;fill-rule:nonzero;stroke:none;stroke-width:0.1"
       id="path394" />
    <path
       d="m 100.463,293.258 c 0,-0.727 0.372,-1.317 0.83,-1.317 0.459,0 0.832,0.59 0.832,1.317 0,0.727 -0.373,1.317 -0.832,1.317 -0.458,0 -0.83,-0.59 -0.83,-1.317"
       style="fill:#1c2f46;fill-opacity:1;fill-rule:nonzero;stroke:none;stroke-width:0.1"
       id="path396" />
    <path
       d="m 99.682,295.579 c 0,0 1.441,1.35 3.026,0"
       style="fill:none;stroke:#1c2f46;stroke-width:0.553731;stroke-linecap:round;stroke-linejoin:round;stroke-miterlimit:10;stroke-dasharray:none;stroke-opacity:1"
       id="path398" />
    <path
       d="m 101.701,287.778 c 0,0 -1.431,-0.621 -3.2084,0.42"
       style="fill:none;stroke:#ef336a;stroke-width:0.583497;stroke-linecap:round;stroke-linejoin:round;stroke-miterlimit:10;stroke-dasharray:none;stroke-opacity:1"
       id="path400" />
    <path
       d="m 444.67,78.1371 c 0,-3.0851 -2.123,-5.584 -4.74,-5.584 h -67.18 c -2.617,0 -4.74,2.4989 -4.74,5.584 v 0 c 0,3.0848 2.123,5.5848 4.74,5.5848 h 67.18 c 2.617,0 4.74,-2.5 4.74,-5.5848 v 0"
       style="fill:#6897d6;fill-opacity:1;fill-rule:nonzero;stroke:none;stroke-width:0.1"
       id="path402" />
    <path
       d="m 399.057,244.829 c 0,0 -2.457,-7.299 -3.68,-8.105 0,0 5.859,-0.287 9.014,1.628 0,0 0.529,4.903 0.433,7.315 l -5.767,-0.838"
       style="fill:#142535;fill-opacity:1;fill-rule:nonzero;stroke:none;stroke-width:0.1"
       id="path404" />
    <path
       d="m 410.037,185.1 11.664,-36.99 8.68,2.83 -11.17,36.736 -9.174,-2.576"
       style="fill:#f7996e;fill-opacity:1;fill-rule:nonzero;stroke:none;stroke-width:0.1"
       id="path406" />
    <path
       d="m 433.322,143.801 c 0,0 1.832,9.443 -7.799,7.202 -9.627,-2.245 -16.494,-13.479 -10.894,-13.116 4.678,0.301 18.693,5.914 18.693,5.914"
       style="fill:#1c2f46;fill-opacity:1;fill-rule:nonzero;stroke:none;stroke-width:0.1"
       id="path408" />
    <path
       d="m 412.467,136.588 c 0.084,-0.241 0.347,-0.366 0.59,-0.281 l 21.48,6.227 c 0.24,0.084 0.365,0.348 0.281,0.589 l -0.562,1.589 c -0.086,0.24 -0.35,0.367 -0.588,0.281 l -21.48,-6.225 c -0.241,-0.087 -0.368,-0.351 -0.284,-0.592 l 0.563,-1.588"
       style="fill:#778ca0;fill-opacity:1;fill-rule:nonzero;stroke:none;stroke-width:0.1"
       id="path410" />
    <path
       d="m 428.965,160.096 c -1.219,6.131 -12.86,44.478 -14.211,47.17 l -13.055,-3.975 1.547,-4.008 12.442,-42.324 13.277,3.137"
       style="fill:#142535;fill-opacity:1;fill-rule:nonzero;stroke:none;stroke-width:0.1"
       id="path412" />
    <path
       d="m 400.289,186.515 -4.322,-40.031 9.07,-1.057 5.516,39.735 -10.264,1.353"
       style="fill:#f7996e;fill-opacity:1;fill-rule:nonzero;stroke:none;stroke-width:0.1"
       id="path414" />
    <path
       d="m 404.725,137.712 c 0,0 5.609,7.813 -4.077,9.8 -9.683,1.986 -20.619,-5.351 -15.378,-7.364 4.375,-1.678 19.455,-2.436 19.455,-2.436"
       style="fill:#1c2f46;fill-opacity:1;fill-rule:nonzero;stroke:none;stroke-width:0.1"
       id="path416" />
    <path
       d="m 382.764,139.874 c -0.024,-0.254 0.164,-0.479 0.418,-0.502 l 22.115,-3.319 c 0.254,-0.024 0.478,0.164 0.502,0.416 l 0.154,1.679 c 0.022,0.253 -0.164,0.48 -0.418,0.503 l -22.117,3.32 c -0.252,0.021 -0.479,-0.165 -0.502,-0.418 l -0.152,-1.679"
       style="fill:#778ca0;fill-opacity:1;fill-rule:nonzero;stroke:none;stroke-width:0.1"
       id="path418" />
    <path
       d="m 407.457,155.998 c 1.389,6.793 6.408,44.687 6.92,47.131 l -13.523,1.845 -0.266,-4.291 -6.777,-42.763 13.646,-1.922"
       style="fill:#1c2f46;fill-opacity:1;fill-rule:nonzero;stroke:none;stroke-width:0.1"
       id="path420" />
    <path
       d="m 392.203,215.827 c -0.812,-1.767 -0.033,-3.852 1.731,-4.666 v 0 c 1.767,-0.806 3.851,-0.031 4.664,1.737 l 6.857,15.05 c 0.809,1.767 0.033,3.855 -1.734,4.663 v 0 c -1.768,0.813 -3.856,0.035 -4.664,-1.733 l -6.854,-15.051"
       style="fill:#f57561;fill-opacity:1;fill-rule:nonzero;stroke:none;stroke-width:0.1"
       id="path422" />
    <path
       d="m 380.289,210.385 c -1.707,-0.932 -2.338,-3.067 -1.41,-4.772 v 0 c 0.932,-1.704 3.066,-2.337 4.773,-1.408 l 13.446,7.129 c 1.707,0.931 2.336,3.066 1.408,4.771 v 0 c -0.932,1.709 -3.065,2.336 -4.772,1.407 l -13.445,-7.127"
       style="fill:#f57561;fill-opacity:1;fill-rule:nonzero;stroke:none;stroke-width:0.1"
       id="path424" />
    <path
       d="m 381.207,210.174 c 0,0 -7.318,0.951 -8.029,-0.424 -0.721,-1.403 2.105,-1.457 2.105,-1.457 0,0 -4.252,-1.559 -4.701,-5.113 -0.449,-3.556 6.033,-4.492 13.859,1.466 l -3.234,5.528"
       style="fill:#f57561;fill-opacity:1;fill-rule:nonzero;stroke:none;stroke-width:0.1"
       id="path426" />
    <path
       d="m 378.059,205.427 c -0.614,0.008 -1.155,0.154 -1.618,0.441 -1.275,0.786 -1.462,2.325 -1.47,2.39 -0.018,0.173 0.103,0.326 0.275,0.346 0.172,0.021 0.328,-0.105 0.35,-0.278 0,-0.011 0.162,-1.304 1.179,-1.927 0.774,-0.472 1.852,-0.459 3.207,0.044 0.164,0.06 0.344,-0.023 0.405,-0.186 0.06,-0.163 -0.022,-0.345 -0.186,-0.404 -0.789,-0.293 -1.506,-0.435 -2.142,-0.426"
       style="fill:#dd6254;fill-opacity:1;fill-rule:nonzero;stroke:none;stroke-width:0.1"
       id="path428" />
    <path
       d="m 375.873,200.933 c 0.045,-0.002 0.086,0.007 0.129,0.024 0.16,0.069 0.232,0.253 0.164,0.414 l -2.064,4.821 c -0.069,0.16 -0.254,0.237 -0.413,0.166 -0.16,-0.069 -0.232,-0.253 -0.164,-0.413 l 0.164,-0.384 -2.882,-1.452 c -0.078,-0.229 -0.141,-0.467 -0.182,-0.717 0.016,-0.002 0.031,-0.013 0.049,-0.014 0.051,0 0.097,0.01 0.144,0.034 l 3.118,1.571 0.533,-1.244 -3.721,-1.796 c 0.086,-0.191 0.205,-0.366 0.348,-0.528 l 3.621,1.747 0.469,-1.095 -2.78,-1.451 c 0,-0.002 0,-0.002 -0.002,-0.003 0.287,-0.095 0.6,-0.168 0.948,-0.211 l 2.082,1.084 0.154,-0.363 c 0.051,-0.118 0.166,-0.19 0.285,-0.19"
       style="fill:#dd6254;fill-opacity:1;fill-rule:nonzero;stroke:none;stroke-width:0.1"
       id="path430" />
    <path
       d="m 377.27,205.13 -40.217,9.988 c -0.438,0.108 -0.703,0.551 -0.594,0.988 l 9.988,40.217 c 0.108,0.436 0.549,0.703 0.989,0.594 l 40.214,-9.987 c 0.438,-0.109 0.704,-0.552 0.596,-0.989 l -9.988,-40.217 c -0.11,-0.436 -0.551,-0.703 -0.988,-0.594"
       style="fill:#ffffff;fill-opacity:1;fill-rule:nonzero;stroke:none;stroke-width:0.1"
       id="path432" />
    <path
       d="m 374.459,209.881 -32.699,8.12 c -0.405,0.1 -0.653,0.512 -0.551,0.917 l 8.121,32.697 c 0.1,0.403 0.51,0.651 0.916,0.551 l 32.697,-8.121 c 0.403,-0.1 0.651,-0.511 0.551,-0.915 l -8.121,-32.697 c -0.1,-0.406 -0.512,-0.653 -0.914,-0.552"
       style="fill:#5b73c1;fill-opacity:1;fill-rule:nonzero;stroke:none;stroke-width:0.1"
       id="path434" />
    <path
       d="m 374.16,224.783 c -1.726,-6.95 -8.76,-11.184 -15.707,-9.458 -6.949,1.727 -11.183,8.758 -9.459,15.708 1.727,6.949 8.76,11.184 15.709,9.457 6.947,-1.725 11.182,-8.758 9.457,-15.707"
       style="fill:#7791d2;fill-opacity:1;fill-rule:nonzero;stroke:none;stroke-width:0.1"
       id="path436" />
    <path
       d="m 371.291,235.002 c -0.801,-3.225 -4.064,-5.19 -7.289,-4.389 -3.225,0.801 -5.189,4.065 -4.389,7.289 0.801,3.224 4.065,5.189 7.289,4.388 3.225,-0.801 5.19,-4.064 4.389,-7.288"
       style="fill:#fcca1e;fill-opacity:1;fill-rule:nonzero;stroke:none;stroke-width:0.1"
       id="path438" />
    <path
       d="m 375.424,210.639 1.889,7.602 -3.858,9.014 c -0.441,1.032 -1.746,1.356 -2.617,0.649 l -16.213,-13.097 19.834,-4.926 c 0.578,-0.145 0.822,0.177 0.965,0.758"
       style="fill:#223b6c;fill-opacity:1;fill-rule:nonzero;stroke:none;stroke-width:0.1"
       id="path440" />
    <path
       d="m 351.953,238.083 -7.486,-6.049 -3.203,-12.9 c -0.145,-0.578 -0.082,-0.99 0.496,-1.133 l 24.476,-6.079 -10.826,25.302 c -0.582,1.361 -2.305,1.79 -3.457,0.859"
       style="fill:#223b6c;fill-opacity:1;fill-rule:nonzero;stroke:none;stroke-width:0.1"
       id="path442" />
    <path
       d="m 399.664,235.532 h 8.014 v 10.114 h -8.014 v -10.114"
       style="fill:#f57561;fill-opacity:1;fill-rule:nonzero;stroke:none;stroke-width:0.1"
       id="path444" />
    <path
       d="m 418.025,203.543 c -9.72,-4.828 -19.466,-2.08 -19.466,-2.08 l -1.065,5.816 c -10.887,32.737 7.346,32.106 7.346,32.106 13.441,1.47 9.015,-23.289 9.015,-23.289 -0.419,-4.676 5.698,-11.793 4.17,-12.553"
       style="fill:#ee256e;fill-opacity:1;fill-rule:nonzero;stroke:none;stroke-width:0.1"
       id="path446" />
    <path
       d="m 401.244,238.656 c 0.012,0.006 0.024,0.01 0.033,0.014 0.055,0.019 0.11,0.041 0.162,0.062 0.073,0.024 0.143,0.052 0.209,0.074 1.747,-0.232 3.17,-0.672 3.887,-1.43 0,0 5.832,-4.502 -4.681,-15.454 -1.983,-2.07 -4.108,-6.078 -5.077,-8.868 -0.127,0.487 -0.244,0.964 -0.355,1.434 -0.026,0.113 -0.051,0.221 -0.076,0.336 -0.08,0.348 -0.158,0.695 -0.233,1.036 -0.029,0.141 -0.058,0.281 -0.086,0.42 -0.064,0.308 -0.127,0.611 -0.183,0.911 -0.028,0.142 -0.053,0.283 -0.078,0.424 -0.053,0.295 -0.106,0.585 -0.153,0.871 -0.021,0.131 -0.043,0.264 -0.062,0.393 -0.049,0.299 -0.092,0.592 -0.133,0.883 -0.014,0.105 -0.029,0.215 -0.043,0.321 -0.045,0.332 -0.084,0.657 -0.119,0.977 -0.006,0.059 -0.014,0.12 -0.02,0.177 -0.082,0.782 -0.14,1.529 -0.173,2.247 -0.471,10.199 3.869,13.863 7.181,15.172"
       style="fill:#ed1859;fill-opacity:1;fill-rule:nonzero;stroke:none;stroke-width:0.1"
       id="path448" />
    <path
       d="m 389.236,255.374 c -0.773,-7.216 3.577,-13.618 9.717,-14.303 6.145,-0.683 11.75,4.612 12.524,11.827 0.773,7.214 -3.579,13.619 -9.719,14.302 -6.141,0.685 -11.746,-4.611 -12.522,-11.826"
       style="fill:#f8a074;fill-opacity:1;fill-rule:nonzero;stroke:none;stroke-width:0.1"
       id="path450" />
    <path
       d="m 389.236,255.374 c -0.773,-7.216 3.577,-13.618 9.717,-14.303 6.145,-0.683 11.75,4.612 12.524,11.827 0.773,7.214 -3.579,13.619 -9.719,14.302 -6.141,0.685 -11.746,-4.611 -12.522,-11.826"
       style="fill:#f7996e;fill-opacity:1;fill-rule:nonzero;stroke:none;stroke-width:0.1"
       id="path452" />
    <path
       d="m 390.486,250.003 c 0,0 -1.816,-1.199 -1.685,-3.448 l 2.422,0.008 c 0,0 0.006,2.314 -0.737,3.44"
       style="fill:#f7996e;fill-opacity:1;fill-rule:nonzero;stroke:none;stroke-width:0.1"
       id="path454" />
    <path
       d="m 388.9,253.194 c 0,0 -0.712,3.252 1.561,7.796 2.199,4.356 6.613,7.142 11.342,6.614 5.709,-0.635 9.92,-6.056 10.127,-12.567 0,0 1.365,-10.633 1.994,-14.26 0.623,-3.61 -13.567,-4.053 -13.567,-4.053 0,0 3.571,3.154 4.467,12.219 l 0.039,0.033 c 0.207,1.675 0.203,3.412 -1.429,5.281 -0.668,-1.155 -0.346,-3.086 -0.346,-3.086 -1.754,1.298 -2.731,4.278 -2.731,4.278 -0.252,-1.248 -0.146,-2.255 -0.146,-2.255 -1.438,1.95 -1.838,4.898 -1.838,4.898 -0.352,-0.617 -1.926,-3.042 -5.135,-3.45 0,0 1.037,1.543 1.131,2.619 0,0 -2.478,-2.619 -5.469,-4.067"
       style="fill:#1c2f46;fill-opacity:1;fill-rule:nonzero;stroke:none;stroke-width:0.1"
       id="path456" />
    <path
       d="m 402.574,251.921 c 0,-1.644 1.008,-2.978 2.25,-2.978 1.242,0 2.25,1.334 2.25,2.978 0,1.644 -1.008,2.978 -2.25,2.978 -1.242,0 -2.25,-1.334 -2.25,-2.978"
       style="fill:#f7996e;fill-opacity:1;fill-rule:nonzero;stroke:none;stroke-width:0.1"
       id="path458" />
    <path
       d="m 393.119,250.727 c 0,-0.727 -0.373,-1.317 -0.83,-1.317 -0.459,0 -0.832,0.59 -0.832,1.317 0,0.727 0.373,1.317 0.832,1.317 0.457,0 0.83,-0.59 0.83,-1.317"
       style="fill:#1c2f46;fill-opacity:1;fill-rule:nonzero;stroke:none;stroke-width:0.1"
       id="path460" />
    <path
       d="m 393.9,253.048 c 0,0 -1.441,1.35 -3.027,0"
       style="fill:none;stroke:#1c2f46;stroke-width:0.553731;stroke-linecap:round;stroke-linejoin:round;stroke-miterlimit:10;stroke-dasharray:none;stroke-opacity:1"
       id="path462" />
    <path
       d="m 391.881,245.247 c 0,0 1.432,-0.621 3.209,0.42"
       style="fill:none;stroke:#ef336a;stroke-width:0.583497;stroke-linecap:round;stroke-linejoin:round;stroke-miterlimit:10;stroke-dasharray:none;stroke-opacity:1"
       id="path464" />
    <path
       d="m 378.949,233.022 c -1.785,0.771 -3.855,-0.048 -4.627,-1.833 v 0 c -0.771,-1.783 0.051,-3.853 1.834,-4.622 l 15.037,-6.848 c 1.784,-0.774 3.856,0.049 4.627,1.831 v 0 c 0.77,1.783 -0.05,3.854 -1.834,4.626 l -15.037,6.846"
       style="fill:#f7996e;fill-opacity:1;fill-rule:nonzero;stroke:none;stroke-width:0.1"
       id="path466" />
    <path
       d="m 390.123,225.314 c -1.31,-1.436 -1.203,-3.662 0.231,-4.969 v 0 c 1.435,-1.308 3.66,-1.204 4.97,0.233 l 9.992,10.937 c 1.309,1.436 1.205,3.663 -0.232,4.971 v 0 c -1.436,1.308 -3.664,1.202 -4.969,-0.235 l -9.992,-10.937"
       style="fill:#f7996e;fill-opacity:1;fill-rule:nonzero;stroke:none;stroke-width:0.1"
       id="path468" />
    <path
       d="m 380.082,232.339 c 0,0 -4.043,6.844 -5.68,6.534 -1.672,-0.316 0.157,-2.753 0.157,-2.753 0,0 -4.143,2.575 -7.459,0.602 -3.313,-1.978 0.191,-8.101 10.437,-10.792 l 2.545,6.409"
       style="fill:#f7996e;fill-opacity:1;fill-rule:nonzero;stroke:none;stroke-width:0.1"
       id="path470" />
    <path
       d="m 367.309,236.826 c 0.009,-0.018 0.009,-0.037 0.023,-0.051 0.031,-0.042 0.074,-0.076 0.123,-0.101 l 3.668,-1.728 c 0.168,-0.081 0.369,-0.009 0.447,0.161 0.08,0.17 0.006,0.371 -0.162,0.45 l -3.367,1.591 c -0.248,-0.089 -0.49,-0.191 -0.732,-0.322"
       style="fill:#f57561;fill-opacity:1;fill-rule:nonzero;stroke:none;stroke-width:0.1"
       id="path472" />
    <path
       d="m 370.322,233.336 c 0.082,0.166 0.012,0.37 -0.154,0.45 l -4.006,1.975 c -0.107,-0.203 -0.176,-0.419 -0.217,-0.646 l 3.924,-1.933 c 0.168,-0.084 0.369,-0.015 0.453,0.154"
       style="fill:#f57561;fill-opacity:1;fill-rule:nonzero;stroke:none;stroke-width:0.1"
       id="path474" />
    <path
       d="m 369.418,231.609 c 0.078,0.168 0.004,0.37 -0.168,0.449 l -3.115,1.415 h -0.002 c 0.109,-0.308 0.252,-0.624 0.447,-0.946 l 2.391,-1.088 c 0.17,-0.076 0.369,-0.002 0.447,0.17"
       style="fill:#f57561;fill-opacity:1;fill-rule:nonzero;stroke:none;stroke-width:0.1"
       id="path476" />
    <path
       d="m 395.09,233.312 3.181,3.731 c 1.715,2.07 4.784,2.359 6.854,0.645 2.07,-1.714 2.359,-4.783 0.646,-6.853 l -3.183,-3.731 -7.498,6.208"
       style="fill:#ee256e;fill-opacity:1;fill-rule:nonzero;stroke:none;stroke-width:0.1"
       id="path478" />
    <path
       d="m 397.773,79.9492 h 2.243 l 13.019,51.7118 h -2.242 l -13.02,-51.7118"
       style="fill:#223b6c;fill-opacity:1;fill-rule:nonzero;stroke:none;stroke-width:0.1"
       id="path480" />
    <path
       d="m 378.549,79.9492 h 2.242 l 13.02,51.7118 h -2.243 L 378.549,79.9492"
       style="fill:#223b6c;fill-opacity:1;fill-rule:nonzero;stroke:none;stroke-width:0.1"
       id="path482" />
    <path
       d="m 390.77,121.756 h 18.46 v 2.17 h -18.46 v -2.17"
       style="fill:#223b6c;fill-opacity:1;fill-rule:nonzero;stroke:none;stroke-width:0.1"
       id="path484" />
    <path
       d="m 388.191,111.349 h 18.461 v 2.168 h -18.461 v -2.168"
       style="fill:#223b6c;fill-opacity:1;fill-rule:nonzero;stroke:none;stroke-width:0.1"
       id="path486" />
    <path
       d="m 385.383,100.259 h 18.463 v 2.17 h -18.463 v -2.17"
       style="fill:#223b6c;fill-opacity:1;fill-rule:nonzero;stroke:none;stroke-width:0.1"
       id="path488" />
    <path
       d="m 382.48,88.698 h 18.461 v 2.1719 H 382.48 V 88.698"
       style="fill:#223b6c;fill-opacity:1;fill-rule:nonzero;stroke:none;stroke-width:0.1"
       id="path490" />
    <path
       d="m 421.471,131.661 h -29.887 v 5.694 h 29.887 v -5.694"
       style="fill:#2153aa;fill-opacity:1;fill-rule:nonzero;stroke:none;stroke-width:0.1"
       id="path492" />
    <path
       d="m 421.471,131.661 h -29.887 v 1.93 h 29.887 v -1.93"
       style="fill:#223b6c;fill-opacity:1;fill-rule:nonzero;stroke:none;stroke-width:0.1"
       id="path494" />
    <path
       d="M 415.262,79.9492 H 413.02 L 400,131.661 h 2.24 l 13.022,-51.7118"
       style="fill:#2153aa;fill-opacity:1;fill-rule:nonzero;stroke:none;stroke-width:0.1"
       id="path496" />
    <path
       d="m 434.486,79.9492 h -2.242 l -13.021,51.7118 h 2.242 l 13.021,-51.7118"
       style="fill:#2153aa;fill-opacity:1;fill-rule:nonzero;stroke:none;stroke-width:0.1"
       id="path498" />
    <path
       d="m 422.266,121.756 h -18.461 v 2.17 h 18.461 v -2.17"
       style="fill:#2153aa;fill-opacity:1;fill-rule:nonzero;stroke:none;stroke-width:0.1"
       id="path500" />
    <path
       d="m 424.842,111.349 h -18.461 v 2.168 h 18.461 v -2.168"
       style="fill:#2153aa;fill-opacity:1;fill-rule:nonzero;stroke:none;stroke-width:0.1"
       id="path502" />
    <path
       d="m 427.65,100.259 h -18.461 v 2.17 h 18.461 v -2.17"
       style="fill:#2153aa;fill-opacity:1;fill-rule:nonzero;stroke:none;stroke-width:0.1"
       id="path504" />
    <path
       d="m 430.555,88.698 h -18.463 v 2.1719 h 18.463 V 88.698"
       style="fill:#2153aa;fill-opacity:1;fill-rule:nonzero;stroke:none;stroke-width:0.1"
       id="path506" />
  </g>
</svg>
